<?xml version="1.0" standalone="no"?>
<!DOCTYPE svg PUBLIC "-//W3C//DTD SVG 1.1//EN" "http://www.w3.org/Graphics/SVG/1.1/DTD/svg11.dtd" >
<svg xmlns="http://www.w3.org/2000/svg" xmlns:xlink="http://www.w3.org/1999/xlink" version="1.1">
<metadata>
Created by FontForge 20170731 at Thu Dec  7 22:11:56 2023
 By Aleksey,,,
</metadata>
<defs>
<font id="AlmiregoDisplayLight" horiz-adv-x="1343" >
  <font-face 
    font-family="Almirego Display Light"
    font-weight="400"
    font-stretch="normal"
    units-per-em="2048"
    panose-1="0 0 0 0 0 0 0 0 0 0"
    ascent="1638"
    descent="-410"
    x-height="1056"
    cap-height="1433"
    bbox="-156 -434 2386 1942"
    underline-thickness="0"
    underline-position="0"
    unicode-range="U+000A-FB02"
  />
<missing-glyph horiz-adv-x="1079" 
d="M102 1434h875v-1434h-875v1434zM160 1393l379 -633l381 633h-760zM514 717l-369 614v-1231zM541 674l-379 -631h758zM565 717l371 -621v1239z" />
    <glyph glyph-name="tt.liga" unicode="tt" horiz-adv-x="1132" 
d="M1091 1057v-110h-470q22 -1 44.5 -3.5t54.5 -9t59 -19t51 -30.5t38 -47t14 -65v-501q0 -64 38.5 -106.5t100.5 -42.5h70v-123h-70q-105 0 -182.5 75t-77.5 185v522q0 46 -17 80t-41.5 49.5t-49.5 24.5t-42 10l-17 1h-511q22 -1 44.5 -3.5t54.5 -9t59 -19t51 -30.5t38 -47
t14 -65v-501q0 -64 38.5 -106.5t100.5 -42.5h71v-123h-71q-105 0 -182.5 75t-77.5 185v522q0 46 -17 80t-41.5 49.5t-49.5 24.5t-42 10l-17 1h-40v110h207v376h121v-376h417v376h121v-376h209z" />
    <glyph glyph-name="fi.liga" unicode="fi" horiz-adv-x="974" 
d="M862 0h-121v1057h121v-1057zM802 1313q-34 0 -57.5 17.5t-23.5 42.5t23.5 43t57.5 18t58 -18t24 -43t-24 -42.5t-58 -17.5zM344 1161v-104h210v-110h-42q-4 0 -10 -0.5t-23.5 -3.5t-33 -9t-35 -18.5t-33.5 -29t-23.5 -44t-9.5 -60.5v-782h-121v774q0 43 21 75.5t50 50
t68.5 29t67 14.5t55.5 4h-469v110h207v117q0 106 76 183t184 77h71v-123h-71q-62 0 -100.5 -43t-38.5 -107z" />
    <glyph glyph-name="fl.liga" unicode="fl" horiz-adv-x="974" 
d="M862 0h-121v1434h121v-1434zM344 1161v-104h210v-110h-42q-4 0 -10 -0.5t-23.5 -3.5t-33 -9t-35 -18.5t-33.5 -29t-23.5 -44t-9.5 -60.5v-782h-121v774q0 43 21 75.5t50 50t68.5 29t67 14.5t55.5 4h-469v110h207v117q0 106 76 183t184 77h71v-123h-71q-62 0 -100.5 -43
t-38.5 -107z" />
    <glyph glyph-name=".notdef" horiz-adv-x="1079" 
d="M102 1434h875v-1434h-875v1434zM160 1393l379 -633l381 633h-760zM514 717l-369 614v-1231zM541 674l-379 -631h758zM565 717l371 -621v1239z" />
    <glyph glyph-name=".null" horiz-adv-x="0" 
 />
    <glyph glyph-name=".null" horiz-adv-x="0" 
 />
    <glyph glyph-name="nonmarkingreturn" horiz-adv-x="682" 
 />
    <glyph glyph-name="controlLF" unicode="&#xa;" horiz-adv-x="0" 
 />
    <glyph glyph-name="controlCR" unicode="&#xd;" horiz-adv-x="0" 
 />
    <glyph glyph-name="space" unicode=" " horiz-adv-x="526" 
 />
    <glyph glyph-name="exclam" unicode="!" horiz-adv-x="401" 
d="M232 294h-63q-33 867 -33 1140h128q0 -122 -8 -407t-16 -509zM200 134q37 0 63.5 -19.5t26.5 -47.5t-26.5 -47.5t-63.5 -19.5t-63 19.5t-26 47.5t26 47.5t63 19.5z" />
    <glyph glyph-name="quotedbl" unicode="&#x22;" horiz-adv-x="665" 
d="M123 860q-4 100 -16.5 304.5t-12.5 269.5h144q0 -65 -12.5 -269.5t-16.5 -304.5h-86zM427 1434h144q0 -65 -12.5 -269.5t-16.5 -304.5h-86q-4 100 -16.5 304.5t-12.5 269.5z" />
    <glyph glyph-name="numbersign" unicode="#" horiz-adv-x="1269" 
d="M860 685q-14 -51 -30 -82t-37 -43.5t-36 -15t-44 -2.5l95 351h-253q-38 -139 -57 -208q-14 -51 -30 -82t-37 -43.5t-36 -15t-44 -2.5l95 351h-241l27 98h229h12h360h1h350l-27 -98h-241q-37 -139 -56 -208zM981 1134q-14 -51 -30 -82t-37 -43.5t-36 -15t-44 -2.5l119 443
h109q-67 -248 -81 -300zM620 1134q-14 -51 -30 -82t-37 -43.5t-36 -15t-44 -2.5l119 443h109q-67 -248 -81 -300zM110 542h952l-26 -98h-241l-119 -444h-109l119 444h-252l-120 -444h-109l120 444h-241z" />
    <glyph glyph-name="dollar" unicode="$" horiz-adv-x="1323" 
d="M867 740q64 -12 119.5 -34.5t110.5 -62.5t87.5 -106t32.5 -152q0 -166 -146.5 -289t-359.5 -134v-193h-103v195q-122 11 -221 59t-159.5 118.5t-93 153t-32.5 168.5h133q0 -55 24 -114t68 -114t118 -95.5t163 -51.5v566l-126 23q-148 28 -237.5 116t-93.5 228
q0 159 131.5 275.5t325.5 133.5v120h103v-119q112 -8 202 -50t146.5 -106t86 -141.5t29.5 -160.5h-131q0 70 -36.5 141t-115 127.5t-181.5 67.5v-451q0 -25 -10.5 -41.5t-25.5 -22t-30.5 -8t-26.5 -0.5l-10 1v522q-145 -15 -235.5 -99.5t-90.5 -187.5q0 -86 68 -141.5
t174 -77.5l84 -16zM612 88q100 -9 190 13t151 65t96.5 100.5t35.5 118.5q0 89 -72.5 148.5t-185.5 81.5q-3 1 -116 21v-447q0 -35 -12 -58t-31 -31t-31.5 -10.5t-24.5 -1.5z" />
    <glyph glyph-name="percent" unicode="%" horiz-adv-x="1632" 
d="M715 1072q0 -167 -86 -262t-224 -96q-138 1 -224.5 95.5t-86.5 262.5q0 166 87.5 261.5t223.5 95.5t223 -96t87 -261zM198 1072q0 -121 54 -193.5t153 -73.5q99 1 153 73.5t54 193.5q0 117 -59.5 190.5t-147.5 75.5q-88 -2 -147.5 -75.5t-59.5 -190.5zM1228 715
q136 0 223 -96t87 -262q0 -167 -86 -261.5t-224 -95.5q-138 1 -224.5 95.5t-86.5 261.5q0 166 87.5 262t223.5 96zM1228 91q99 1 153 73.5t54 192.5q0 117 -59.5 190.5t-147.5 75.5q-88 -2 -147.5 -75.5t-59.5 -190.5q0 -120 54 -192.5t153 -73.5zM1271 1412h130
l-1037 -1412h-130z" />
    <glyph glyph-name="ampersand" unicode="&#x26;" horiz-adv-x="1382" 
d="M1300 671v-121h-489l455 -550h-176l-124 150q-173 -189 -416 -189q-197 0 -325.5 110t-128.5 290q0 118 54 201.5t150 151.5q35 25 69 33t58 1.5t42.5 -16.5t28.5 -20l9 -9q-11 -8 -48.5 -33t-51 -35t-44.5 -34t-44.5 -38.5t-35 -40t-30.5 -47t-17 -49.5t-8 -58
q0 -116 86 -198.5t202 -87.5q108 -5 206 42.5t160 126.5l-375 452q-11 13 -50 59t-56.5 67.5t-48 64.5t-45 73t-27 69.5t-12.5 75.5q0 137 95 229.5t235 92.5q67 0 122 -22t89.5 -55t59 -76t34.5 -82t11 -75h-120q0 50 -20.5 89t-52 59.5t-63.5 30.5t-61 10q-31 0 -62.5 -9
t-63.5 -28.5t-52 -59t-20 -92.5q0 -32 15 -69.5t45.5 -80t55 -73.5t66 -78t57.5 -66q28 -34 72 -86h590z" />
    <glyph glyph-name="quotesingle" unicode="'" horiz-adv-x="395" 
d="M168 1434h147l-135 -471h-96z" />
    <glyph glyph-name="quotesingle" unicode="&#x2019;" horiz-adv-x="395" 
d="M168 1434h147l-135 -471h-96z" />
    <glyph glyph-name="quotesingle" unicode="&#x2018;" horiz-adv-x="395" 
d="M168 1434h147l-135 -471h-96z" />
    <glyph glyph-name="parenleft" unicode="(" horiz-adv-x="770" 
d="M255 555q0 -289 109 -536t294 -396h-136q-120 80 -215.5 232.5t-146.5 336t-51 363.5q0 264 119 530t294 388h134q-181 -153 -291 -396t-110 -522z" />
    <glyph glyph-name="parenright" unicode=")" horiz-adv-x="772" 
d="M249 1473q175 -122 294 -388t119 -530q0 -180 -51 -363.5t-146.5 -336t-215.5 -232.5h-136q185 149 293.5 396t108.5 536q0 279 -110 522t-291 396h135z" />
    <glyph glyph-name="asterisk" unicode="*" horiz-adv-x="784" 
d="M694 1196l-218 -126l218 -125l-43 -73l-217 125v-251h-84v251l-218 -125l-42 73l218 125l-218 126l42 73l218 -126v251h84v-251l217 126z" />
    <glyph glyph-name="plus" unicode="+" horiz-adv-x="1155" 
d="M636 560h443v-116h-443v-444h-117v444h-443v116h443v444h117v-444z" />
    <glyph glyph-name="comma" unicode="," horiz-adv-x="329" 
d="M111 214h147l-135 -471h-96z" />
    <glyph glyph-name="hyphen" unicode="-" horiz-adv-x="628" 
d="M565 444h-502v116h502v-116z" />
    <glyph glyph-name="period" unicode="." horiz-adv-x="337" 
d="M168 0q-40 0 -69 26.5t-29 64.5t29 64.5t69 26.5q41 0 70 -27t29 -64t-29 -64t-70 -27z" />
    <glyph glyph-name="slash" unicode="/" horiz-adv-x="888" 
d="M702 1434h136l-651 -1434h-136z" />
    <glyph glyph-name="zero" unicode="0" horiz-adv-x="1181" 
d="M590 1448q119 0 212 -57.5t151.5 -158.5t88.5 -233t30 -287t-30 -287t-88.5 -233t-151.5 -158.5t-212 -57.5t-212 57.5t-151 158.5t-88 233t-30 287t30 287t88 233t151 158.5t212 57.5zM590 97q84 0 151.5 50t110.5 135.5t65.5 195.5t22.5 234t-22.5 234t-65.5 195.5
t-110.5 135.5t-151.5 50t-151.5 -50t-110.5 -135.5t-65.5 -195.5t-22.5 -234t22.5 -234t65.5 -195.5t110.5 -135.5t151.5 -50z" />
    <glyph glyph-name="one" unicode="1" horiz-adv-x="712" 
d="M458 1409h131v-1409h-131v1409q0 -159 -18 -229q-38 -147 -184 -193q-75 -23 -182 -23v109q80 0 142 11t102 26t68 44.5t42 52t21 64.5t8 66t1 71v1z" />
    <glyph glyph-name="two" unicode="2" horiz-adv-x="1169" 
d="M265 902h-131q0 97 27 184.5t80.5 163t146 124.5t212.5 59q124 10 232 -48.5t171 -165.5t63 -234q0 -225 -237 -364q-326 -182 -395 -229q-76 -52 -119.5 -116.5t-58.5 -153.5h803v-121h-959q0 106 18 179l1 4q56 213 264 336q55 32 150 85.5t163 90.5l67 37l1 1
q84 49 127.5 108t43.5 146q0 142 -100.5 239t-234.5 84q-70 -7 -127.5 -36t-95.5 -70.5t-63.5 -93.5t-37 -104.5t-11.5 -104.5z" />
    <glyph glyph-name="three" unicode="3" horiz-adv-x="1210" 
d="M493 813h107q137 3 227 74t90 176q0 106 -97.5 185t-227.5 79q-30 0 -62.5 -5t-81.5 -26.5t-86.5 -56.5t-64.5 -103t-27 -159h-132q0 85 17.5 155t46 118t68.5 84.5t80.5 57.5t86.5 34t83 17.5t73 4.5q125 0 232 -50.5t168.5 -140t53.5 -194.5q-12 -117 -131.5 -183.5
t-315.5 -66.5q112 0 199.5 -21t144 -56.5t93 -87t51.5 -108t15 -124.5q0 -88 -38 -168.5t-103 -140.5t-159 -95.5t-200 -35.5q-31 0 -65.5 3t-85.5 15t-96.5 32t-93.5 56.5t-82 85t-56 123t-22 164.5h132q0 -83 27 -148.5t67.5 -103.5t92.5 -63t96 -34t85 -9q154 0 262 99.5
t108 224.5q0 124 -103 197t-264 74h-112v121z" />
    <glyph glyph-name="four" unicode="4" horiz-adv-x="1181" 
d="M887 488h211v-121h-57q-6 0 -16.5 -1t-37 -11t-47 -26.5t-37 -54t-16.5 -87.5v-187h-131v187q0 50 23 87.5t55.5 54t65 26.5t55.5 11l23 1h-896v158l655 909h150v-946zM205 488h551v772z" />
    <glyph glyph-name="five" unicode="5" horiz-adv-x="1183" 
d="M588 935q97 11 189 -25t158 -103t106 -159.5t40 -190.5q0 -201 -136 -336t-355 -145q-91 -4 -179 24.5t-156 81t-109.5 130.5t-41.5 167h132q0 -78 52.5 -146t134.5 -104.5t167 -31.5q160 10 260 112.5t100 247.5q0 144 -106.5 252.5t-253.5 108.5q-203 0 -297 -168h-143
l76 774h774v-131h-666l-41 -643q7 114 94.5 193t200.5 92z" />
    <glyph glyph-name="six" unicode="6" horiz-adv-x="1196" 
d="M642 928q137 9 240 -51.5t153.5 -161.5t50.5 -225q0 -221 -137 -368t-338 -147q-140 0 -244 61.5t-161 166.5t-80.5 234t-13.5 275q10 154 45.5 281.5t97 227t155 159t213.5 68.5q110 8 209.5 -38t162 -137.5t62.5 -204.5h-130q-18 124 -105.5 195.5t-198.5 61.5
q-92 -8 -164 -63t-123 -158.5t-70 -269.5t-1 -382q-8 97 22 185.5t84.5 149.5t125.5 98.5t145 42.5zM603 96q152 0 252 102t100 282q0 141 -92 235t-246 94t-253 -101t-99 -242q0 -151 97 -260.5t241 -109.5z" />
    <glyph glyph-name="seven" unicode="7" horiz-adv-x="1116" 
d="M51 1409h993v-131l-667 -1277h-148q524 1004 592 1133q21 41 52 70.5t59.5 43t54.5 21t41 8.5l16 1h-993v131z" />
    <glyph glyph-name="eight" unicode="8" horiz-adv-x="1202" 
d="M601 829q67 0 137 -19t134 -56t114.5 -87t80.5 -117t30 -140q0 -180 -145.5 -307.5t-350.5 -127.5q-101 0 -195.5 34.5t-163 92.5t-106.5 139.5t-30 168.5q5 51 25 96.5t59.5 86.5t95 69t137 40t178.5 3q-106 0 -207 46.5t-167 132t-66 185.5q0 157 129 268t311 111
q121 0 227 -50.5t166 -139t48 -189.5q-13 -112 -119 -180.5t-322 -59.5zM292 1069q0 -108 90 -174t219 -66t219.5 66t90.5 174q0 110 -91.5 184t-218.5 74t-218 -74t-91 -184zM601 96q149 0 256.5 90.5t107.5 223.5q0 131 -106.5 213t-257.5 82t-257 -82t-106 -213
q0 -133 107 -223.5t256 -90.5z" />
    <glyph glyph-name="nine" unicode="9" horiz-adv-x="1196" 
d="M553 496q-137 -9 -240 51.5t-153.5 161.5t-50.5 225q0 221 137 368t338 147q140 0 244 -61.5t161 -166.5t80.5 -234t13.5 -275q-10 -154 -46 -281t-97 -226.5t-155 -159t-214 -68.5q-110 -8 -209.5 38t-161.5 137t-62 204h130q18 -124 105 -195.5t198 -61.5q73 6 134 42
t110 104t79 170t41 241t-5 316q8 -97 -22 -185.5t-84.5 -149.5t-125.5 -98.5t-145 -42.5zM592 1328q-152 0 -252.5 -102t-100.5 -282q0 -141 92 -235t246 -94t253.5 101.5t99.5 241.5q0 151 -97 260.5t-241 109.5z" />
    <glyph glyph-name="colon" unicode=":" horiz-adv-x="366" 
d="M183 0q-41 0 -70 27t-29 64t29 64t70 27q40 0 69 -26.5t29 -64.5t-29 -64.5t-69 -26.5zM183 782q-41 0 -70 26.5t-29 63.5t29 64t70 27q40 0 69 -26.5t29 -64.5q0 -37 -28.5 -63.5t-69.5 -26.5z" />
    <glyph glyph-name="semicolon" unicode=";" horiz-adv-x="376" 
d="M193 782q-41 0 -69.5 26.5t-28.5 63.5q0 38 29 64.5t69 26.5q41 0 70 -27t29 -64t-29 -63.5t-70 -26.5zM39 -257l84 471h147l-135 -471h-96z" />
    <glyph glyph-name="less" unicode="&#x3c;" horiz-adv-x="1210" 
d="M1122 1057v-122l-988 -411l988 -402v-122l-1036 419v209z" />
    <glyph glyph-name="equal" unicode="=" horiz-adv-x="1159" 
d="M1081 242h-1003v116h1003v-116zM1081 646h-1003v116h1003v-116z" />
    <glyph glyph-name="greater" unicode="&#x3e;" horiz-adv-x="1210" 
d="M88 1057l1036 -429v-209l-1036 -419v122l988 402l-988 411v122z" />
    <glyph glyph-name="question" unicode="?" horiz-adv-x="1060" 
d="M516 134q37 0 63 -19.5t26 -47.5t-26 -47.5t-63 -19.5t-63.5 19.5t-26.5 47.5t26.5 47.5t63.5 19.5zM526 1473q185 0 315.5 -114.5t130.5 -276.5q0 -165 -169 -290q-129 -95 -175 -190t-46 -277h-131v71q0 158 59.5 268.5t175.5 194.5l24 17q24 18 34.5 26.5t33 30.5
t33.5 41.5t20.5 48t9.5 59.5q0 113 -93.5 192t-221.5 79q-94 0 -167.5 -52t-110.5 -132t-37 -171h-131q0 127 52 234t155.5 174t238.5 67z" />
    <glyph glyph-name="at" unicode="@" horiz-adv-x="1855" 
d="M928 1394q168 0 321 -65.5t263.5 -176t176 -263.5t65.5 -321q0 -166 -81 -283.5t-216 -142.5q-57 -10 -106 5t-80 46.5t-49.5 66t-23.5 67.5q-102 -163 -305 -163q-80 0 -149 36.5t-113.5 94.5t-69.5 129.5t-25 143.5q0 98 41.5 189t125.5 153.5t190 62.5q98 0 179 -40
t126 -111v126h97v-545q0 -68 42 -112t112 -31q60 11 103.5 60.5t62 113.5t18.5 134q0 142 -56.5 272.5t-151 225t-225 151t-272.5 56.5q-193 0 -355 -93.5t-255.5 -256t-93.5 -355.5q0 -196 93.5 -358t255 -254t355.5 -92q216 0 367 98v-134q-172 -85 -367 -85
q-168 0 -321 65.5t-263.5 175.5t-176 263t-65.5 321t65.5 321t176 263.5t263.5 176t321 65.5zM943 253q83 0 142.5 46.5t86 116.5t26.5 152t-26.5 152t-86 117t-142.5 47q-128 0 -207 -91t-79 -225t79 -224.5t207 -90.5z" />
    <glyph glyph-name="A" unicode="A" horiz-adv-x="1292" 
d="M763 1433l519 -1433h-139l-161 445h-677l-158 -445h-139l507 1433h248zM349 568h588l-298 820z" />
    <glyph glyph-name="B" unicode="B" horiz-adv-x="1304" 
d="M783 811q87 0 157.5 -16t117 -40.5t80.5 -61.5t52 -71.5t29 -78t13.5 -74t2.5 -65.5q0 -105 -50.5 -197t-144.5 -149.5t-208 -57.5h-709v1433h639q126 0 224 -59.5t143 -147.5t35 -180q-4 -38 -14 -68t-35.5 -63t-65.5 -54.5t-108 -35.5t-158 -14q113 0 183 61t70 175
q0 113 -73 188t-181 75h-528v-499h529zM856 124q102 0 175 73t73 207q0 114 -72 200t-177 86h-601v-567z" />
    <glyph glyph-name="C" unicode="C" horiz-adv-x="1378" 
d="M1172 450q4 18 6 28h138q-22 -109 -69 -198t-107.5 -147.5t-134.5 -98t-149.5 -56.5t-153.5 -17q-151 0 -272.5 59t-199.5 162.5t-120 240t-42 294.5q0 209 78 380.5t223.5 273.5t330.5 102q117 0 215 -29t167 -78t120.5 -116.5t80 -140.5t40.5 -154h-134q-4 20 -6 29
q-20 81 -53.5 144.5t-88.5 116t-139 80.5t-194 28q-146 0 -264 -90t-181.5 -235t-63.5 -311q0 -126 34 -240t97 -202.5t161 -141t217 -52.5q158 0 283 97.5t181 271.5z" />
    <glyph glyph-name="D" unicode="D" horiz-adv-x="1359" 
d="M694 1434q123 0 232.5 -52.5t190 -144.5t128 -227.5t47.5 -292.5q0 -196 -73 -358.5t-211 -260.5t-314 -98h-571v1434h571zM695 123q131 3 238.5 84t167.5 216t60 294q0 162 -59.5 298t-167 216t-240.5 80h-440v-1188h441z" />
    <glyph glyph-name="E" unicode="E" horiz-adv-x="1226" 
d="M1176 1310h-924v-534h847v-121h-847v-531h924v-124h-1055v1433h1055v-123z" />
    <glyph glyph-name="F" unicode="F" horiz-adv-x="1142" 
d="M1125 1310h-873v-534h746v-121h-746v-655h-131v1433h1004v-123z" />
    <glyph glyph-name="G" unicode="G" horiz-adv-x="1437" 
d="M1339 0h-118l1 635q0 -29 -1 -56.5t-6.5 -77.5t-15 -93.5t-28.5 -99t-44.5 -100.5t-66 -91t-89.5 -78t-118.5 -53.5t-150.5 -24.5q-120 -5 -223 32t-178 106.5t-128 166t-79 211t-26 240.5q0 209 78 380.5t223.5 273.5t330.5 102q145 0 260.5 -43.5t188.5 -118
t116 -163.5t58 -192h-121l-9 -5q-38 183 -162 291.5t-326 108.5q-113 0 -208.5 -51.5t-160.5 -138t-101 -202t-36 -242.5q0 -129 32.5 -242.5t94 -201.5t159.5 -139t220 -51q220 0 357.5 154.5t159.5 407.5h-516v131h633v-776z" />
    <glyph glyph-name="H" unicode="H" horiz-adv-x="1372" 
d="M1117 1433h133v-1433h-133v1039q0 -62 -7 -110t-28 -95t-55.5 -77.5t-92.5 -49.5t-137 -19h-248q-115 0 -206 -72t-91 -163v-453h-131v1433h131v-966q0 60 7.5 107t29 92.5t56.5 75.5t93 48.5t136 18.5h248q115 0 205 71.5t90 162.5v390z" />
    <glyph glyph-name="I" unicode="I" horiz-adv-x="374" 
d="M252 0h-131v1433h131v-1433z" />
    <glyph glyph-name="J" unicode="J" horiz-adv-x="960" 
d="M716 1434h131v-1061q0 -168 -119.5 -290t-291.5 -122q-170 0 -290.5 121t-120.5 291v89h131v-84q0 -118 82.5 -207t197.5 -89q112 0 193.5 85t86.5 199v1068z" />
    <glyph glyph-name="K" unicode="K" horiz-adv-x="1294" 
d="M343 593l-9 -9zM334 584l-1 -1q-1 -1 -2 -1q1 0 3 2zM1048 1433h175l-892 -851l-79 -76v-506h-131v1433h131v-759zM840 619l453 -619h-162l-397 545q-69 95 -186 109t-205 -61q17 15 37.5 30.5t57.5 38t72.5 37.5t81 23.5t86.5 3t84 -32t78 -74.5z" />
    <glyph glyph-name="L" unicode="L" horiz-adv-x="1036" 
d="M252 124h782v-124h-913v1433h131v-1309z" />
    <glyph glyph-name="M" unicode="M" horiz-adv-x="1669" 
d="M1347 1433h200v-1433h-132v1264l-512 -1264h-139l-512 1264v-1264h-131v1433h200l513 -1269z" />
    <glyph glyph-name="N" unicode="N" horiz-adv-x="1376" 
d="M1121 1433h131v-1433h-161l-837 1261v-1261h-131v1433l161 1l837 -1262v1261z" />
    <glyph glyph-name="O" unicode="O" horiz-adv-x="1525" 
d="M756 1473q153 0 286 -59.5t224.5 -161.5t143.5 -241t52 -294t-52 -294t-143.5 -241t-224.5 -161.5t-286 -59.5q-204 0 -363.5 102t-244.5 273.5t-85 380.5t85 380.5t244.5 273.5t363.5 102zM756 82q130 0 239.5 51t182.5 138t113 202t40 244t-40 244t-113 202t-182.5 138
t-239.5 51t-237.5 -51t-177.5 -138t-108 -202t-38 -244t38 -244t108 -202t177.5 -138t237.5 -51z" />
    <glyph glyph-name="P" unicode="P" horiz-adv-x="1224" 
d="M783 1433q170 0 286 -119t116 -285q0 -119 -44.5 -213.5t-137 -152t-220.5 -57.5l-530 1v-607h-130v1434zM783 727q73 0 127 24t84 66t44.5 91.5t14.5 107.5q0 75 -25 133.5t-65.5 92t-86.5 50.5t-93 17l-530 1v-582z" />
    <glyph glyph-name="Q" unicode="Q" horiz-adv-x="1531" 
d="M1466 717q0 -186 -72 -345t-201 -263l232 -232l-86 -85l-566 566l86 86l246 -247q110 86 170 223.5t60 296.5q0 129 -40 244t-113 202t-182.5 138t-239.5 51t-237.5 -51t-177.5 -138t-108 -202t-38 -244q0 -144 44 -272t116 -213t168 -124.5t195 -15.5q61 15 89 62.5
t17 103.5t-55 100q63 -63 89 -128.5t16 -117.5t-50.5 -90t-104.5 -51q-119 -24 -225 6t-183 101t-134 172t-85 221t-28 246q0 156 50 294.5t139 240.5t219.5 161.5t283.5 59.5t286 -59.5t224.5 -161.5t143.5 -241t52 -294z" />
    <glyph glyph-name="R" unicode="R" horiz-adv-x="1298" 
d="M828 606l425 -606h-161l-424 606l-415 1v-607h-130v1434l698 -1q170 0 286 -119t116 -285q0 -182 -104 -301t-291 -122zM253 728l568 -1q73 0 127 24t84 66t44.5 91.5t14.5 107.5q0 75 -25 133.5t-65.5 92t-86.5 50.5t-93 17l-568 1v-582z" />
    <glyph glyph-name="S" unicode="S" horiz-adv-x="1241" 
d="M849 747q325 -79 325 -362q0 -116 -74 -214.5t-202.5 -155.5t-280.5 -54q-108 2 -200.5 32.5t-157.5 80t-110.5 113.5t-67.5 134t-22 141h133q0 -46 16 -96t51 -99.5t83 -89t118.5 -65.5t152.5 -29q108 -4 208 37.5t160.5 113t60.5 151.5q0 87 -62.5 149t-169.5 88
l-397 95q-298 71 -305 344q0 112 68.5 207t186.5 150t257 55q123 0 223 -39.5t161.5 -105.5t94.5 -147t33 -168h-131q0 56 -25.5 114t-71.5 109t-120.5 83.5t-163.5 32.5q-167 0 -274 -88t-107 -202q0 -75 60.5 -134.5t156.5 -84.5z" />
    <glyph glyph-name="T" unicode="T" horiz-adv-x="1165" 
d="M0 1434h1163v-124h-338q-7 0 -19 -1t-43 -11.5t-54.5 -28.5t-43 -57t-19.5 -92v-1120h-131v1120q0 53 25 92t61.5 57t72.5 28.5t61 11.5l25 1h-760v124z" />
    <glyph glyph-name="U" unicode="U" 
d="M1106 1433h132v-906q0 -118 -46 -224t-123 -180.5t-181 -118t-217 -43.5t-217 43.5t-181 118t-123 180.5t-46 224v906h132v-899q0 -118 58 -222t159 -166t218 -62t218 62t159 166t58 222v899z" />
    <glyph glyph-name="V" unicode="V" horiz-adv-x="1267" 
d="M1118 1433h139l-494 -1433h-248l-507 1433h139l492 -1387z" />
    <glyph glyph-name="W" unicode="W" horiz-adv-x="1894" 
d="M1730 1433h137l-333 -1433h-234l-353 1336l-353 -1336h-235l-332 1433h136l319 -1387l364 1387h202l363 -1387z" />
    <glyph glyph-name="X" unicode="X" horiz-adv-x="1196" 
d="M808 914q-32 -48 -72.5 -61t-72.5 -2t-67 39.5t-50.5 46.5t-28.5 35q8 -10 18 -20.5t31 -22.5t42.5 -13t50 17.5t55.5 59.5l287 440h161q-307 -450 -354 -519zM514 974l673 -974h-172l-416 642l-428 -642h-163l508 736l-476 697h171l303 -457q-1 -1 0 -2zM517 972l-2 1
q-1 0 -1 1v2q1 -1 3 -4z" />
    <glyph glyph-name="Y" unicode="Y" horiz-adv-x="1267" 
d="M1116 1433h157l-574 -905v-528h-131v528l-574 905h157l483 -791z" />
    <glyph glyph-name="Z" unicode="Z" horiz-adv-x="1185" 
d="M1155 0h-1132v121h1132v-121zM308 260q-31 -39 -72 -67.5t-77 -41.5t-67.5 -20.5t-49.5 -8.5l-19 -1q765 950 863 1071q44 54 111 84t113 34l45 3q-736 -915 -847 -1053zM1155 1313h-1068v121h1068v-121z" />
    <glyph glyph-name="bracketleft" unicode="[" horiz-adv-x="598" 
d="M520 1325h-276v-1593h276v-109h-397v1811h397v-109z" />
    <glyph glyph-name="backslash" unicode="\" horiz-adv-x="888" 
d="M185 1434l651 -1434h-136l-651 1434h136z" />
    <glyph glyph-name="bracketright" unicode="]" horiz-adv-x="598" 
d="M78 1434h397v-1811h-397v109h276v1593h-276v109z" />
    <glyph glyph-name="asciicircum" unicode="^" horiz-adv-x="1046" 
d="M623 1436l348 -840h-122l-330 792l-321 -792h-122l339 840h208z" />
    <glyph glyph-name="underscore" unicode="_" horiz-adv-x="1320" 
d="M1198 -246h-1075v78h1075v-78z" />
    <glyph glyph-name="grave" unicode="`" horiz-adv-x="444" 
d="M199 1473l178 -281h-96l-258 281h176z" />
    <glyph glyph-name="a" unicode="a" horiz-adv-x="1011" 
d="M454 90q129 0 229.5 80t100.5 177q0 -172 -87.5 -269t-239.5 -102q-175 -6 -284.5 99.5t-109.5 250.5q0 159 115.5 254t280.5 95h218q47 0 77 30t30 79q0 -45 -6.5 -80t-15.5 -57t-25.5 -38t-28.5 -23.5t-32 -11.5t-30 -4.5t-28 -0.5h-164q-110 0 -184.5 -62.5
t-74.5 -184.5q0 -99 71 -165.5t188 -66.5zM510 1083q104 0 192 -32.5t146 -102.5t58 -164v-783h-122v783q0 88 -76.5 138.5t-197.5 50.5q-172 0 -244 -155h-137q9 30 21.5 58t42.5 68t69 68.5t104 49.5t144 21z" />
    <glyph glyph-name="b" unicode="b" horiz-adv-x="1077" 
d="M561 1057q120 11 224 -62t164 -201.5t60 -276.5q0 -147 -60 -271.5t-163 -197t-225 -72.5q-111 0 -195 46.5t-132 137.5v-159h-121v1434h121v-918q0 -211 93 -321t234 -110q131 0 223.5 125.5t92.5 305.5t-92.5 305t-223.5 125q-141 0 -234 -109.5t-93 -320.5
q0 116 21 209t54.5 151.5t78 99.5t87 58.5t86.5 21.5z" />
    <glyph glyph-name="c" unicode="c" horiz-adv-x="1087" 
d="M879 377v1h142q-38 -181 -158.5 -291.5t-306.5 -110.5q-217 0 -351.5 146.5t-134.5 407.5q0 258 135.5 405.5t345.5 147.5q188 0 314.5 -110.5t160.5 -307.5h-133q-31 152 -120.5 230t-217.5 78q-148 0 -248.5 -123t-100.5 -320q0 -203 91 -323.5t259 -120.5
q241 0 323 291z" />
    <glyph glyph-name="d" unicode="d" horiz-adv-x="1077" 
d="M842 1435h121v-1434h-121v159q-97 -184 -326 -184q-122 0 -225 72.5t-163 197t-60 271.5q0 148 60 276.5t164 201.5t224 62q44 -4 86.5 -21.5t87 -58.5t77.5 -99.5t54 -151.5t21 -209q0 211 -92.5 320.5t-233.5 109.5q-86 0 -159 -57t-115.5 -156t-42.5 -217t42.5 -217.5
t115.5 -156.5t159 -57q67 0 125 26t103.5 77.5t71.5 135.5t26 192v918z" />
    <glyph glyph-name="e" unicode="e" horiz-adv-x="1099" 
d="M1031 530v-34h-840q9 -190 109.5 -299t250.5 -111q118 2 207.5 71.5t127.5 195.5h126q-42 -180 -164.5 -277.5t-296.5 -99.5q-214 2 -347.5 148t-133.5 406q0 128 37 233t101.5 174.5t152.5 107.5t190 38q209 0 344.5 -149t135.5 -404zM196 609h709q-21 163 -119.5 262.5
t-234.5 101.5q-136 -2 -235 -101.5t-120 -262.5z" />
    <glyph glyph-name="f" unicode="f" horiz-adv-x="571" 
d="M344 1056h210v-110h-42q-4 0 -10 -0.5t-23.5 -3.5t-33 -9t-35 -18.5t-33.5 -29t-23.5 -44t-9.5 -60.5v-782h-121v774q0 43 21 75.5t50 50t68.5 29t67 14.5t55.5 4h-469v110h207v117q0 106 76 183t184 77h71v-123h-71q-62 0 -100.5 -43t-38.5 -107v-104z" />
    <glyph glyph-name="g" unicode="g" horiz-adv-x="1079" 
d="M1007 613q0 -46 -16 -100.5t-52.5 -113.5t-88.5 -106.5t-132 -78.5t-175 -31q-173 0 -288 75q-89 58 -140.5 152t-51.5 203q0 90 37.5 172t100.5 141.5t150.5 94.5t183.5 35q120 0 226 -54l150 150l75 -75l-134 -135q73 -62 114 -147.5t41 -181.5zM535 293q154 0 247 90
t93 229q0 133 -95 233.5t-245 100.5t-244.5 -100.5t-94.5 -233.5q0 -139 92.5 -229t246.5 -90zM543 183q98 0 173 -9t140.5 -30.5t102.5 -63t42 -101.5q7 -96 -55.5 -179t-171.5 -130.5t-236 -47.5q-126 0 -233 48t-169 130t-62 179q0 10 2 28h124q-2 -14 -2 -21
q0 -98 96 -177t244 -79q150 0 242.5 74t92.5 182q0 67 -45 112t-117 65t-168 20z" />
    <glyph glyph-name="h" unicode="h" horiz-adv-x="1071" 
d="M113 1433h121v-1434h-121v1434zM541 1079q107 10 204 -31t161 -135.5t64 -223.5v-690h-122v690q0 110 -84.5 194.5t-222.5 84.5q-132 0 -219.5 -85.5t-87.5 -193.5q0 153 83 265t224 125z" />
    <glyph glyph-name="i" unicode="i" horiz-adv-x="346" 
d="M233 -1h-121v1057h121v-1057zM174 1312q-34 0 -58 17.5t-24 42.5t24 43t58 18t57.5 -18t23.5 -43t-23.5 -42.5t-57.5 -17.5z" />
    <glyph glyph-name="j" unicode="j" horiz-adv-x="348" 
d="M175 1312q-34 0 -57.5 17.5t-23.5 42.5t23.5 43t57.5 18t58 -18t24 -43t-24 -42.5t-58 -17.5zM113 515v541h121v-923q0 -129 -17.5 -222t-47 -148.5t-78 -87.5t-99.5 -42.5t-123 -10.5v111q139 0 191.5 90.5t52.5 309.5v382z" />
    <glyph glyph-name="k" unicode="k" horiz-adv-x="1019" 
d="M772 1056h159l-697 -639v-418h-121v1434h121v-871zM626 468l376 -469h-156q-142 178 -304 380q-41 52 -88 75t-84.5 18.5t-69 -16t-48.5 -25.5l-18 -14q10 9 27.5 23.5t68.5 44.5t97 43.5t102.5 1.5t96.5 -62z" />
    <glyph glyph-name="l" unicode="l" horiz-adv-x="348" 
d="M234 -1h-121v1434h121v-1434z" />
    <glyph glyph-name="m" unicode="m" horiz-adv-x="1648" 
d="M113 1056h121v-1057h-121v1057zM1182 1081q161 0 262.5 -105t101.5 -273v-704h-121v704q0 116 -81.5 191.5t-200.5 75.5q-111 0 -182.5 -71t-71.5 -171v-729h-121v729q0 108 -64.5 175t-187.5 67q-119 0 -200.5 -75.5t-81.5 -191.5q0 90 26.5 163.5t70.5 119t98 70.5
t112 25q106 -1 179.5 -46.5t134.5 -136.5q46 80 142 132t185 51z" />
    <glyph glyph-name="n" unicode="n" horiz-adv-x="1071" 
d="M113 1056h121v-1057h-121v1057zM541 1079q63 6 125.5 -7.5t117 -46t96.5 -78.5t66 -110t24 -136v-702h-122v690q0 110 -84.5 194.5t-222.5 84.5q-132 0 -219.5 -85.5t-87.5 -193.5q0 157 87.5 267.5t219.5 122.5z" />
    <glyph glyph-name="o" unicode="o" horiz-adv-x="1101" 
d="M551 1083q209 0 344.5 -149t135.5 -404q0 -260 -133 -406t-347 -148q-214 2 -347.5 148t-133.5 406q0 128 37 233t101.5 174.5t152.5 107.5t190 38zM551 86q157 2 258 120t101 324q0 195 -103 318t-256 125q-153 -2 -256.5 -125t-103.5 -318q0 -205 101.5 -323.5
t258.5 -120.5z" />
    <glyph glyph-name="p" unicode="p" horiz-adv-x="1077" 
d="M561 1081q122 0 225 -72.5t163 -197t60 -271.5q0 -148 -60 -276.5t-164 -201.5t-224 -62q-44 4 -86.5 21.5t-87 58.5t-78 99.5t-54.5 151.5t-21 209q0 -211 93 -320.5t234 -109.5q131 0 223.5 125t92.5 305t-92.5 305t-223.5 125q-141 0 -234 -109.5t-93 -320.5v-918
h-121v1434h121v-159q48 91 132 137.5t195 46.5z" />
    <glyph glyph-name="q" unicode="q" horiz-adv-x="1077" 
d="M842 897v159h121v-1434h-121v918q0 211 -92.5 320.5t-233.5 109.5q-86 0 -159 -57t-115.5 -156t-42.5 -217t42.5 -217t115.5 -156t159 -57q141 0 233.5 109.5t92.5 320.5q0 -116 -21 -209t-54 -151.5t-77.5 -99.5t-87 -58.5t-86.5 -21.5q-120 -11 -224 62t-164 201.5
t-60 276.5q0 147 60 271.5t163 197t225 72.5q229 0 326 -184z" />
    <glyph glyph-name="r" unicode="r" horiz-adv-x="661" 
d="M113 1056h121v-1057h-121v1057zM503 1081q72 0 141 -25v-110q-49 25 -141 25q-114 0 -191.5 -87.5t-77.5 -187.5q0 94 23.5 170t62.5 121.5t86 69.5t97 24z" />
    <glyph glyph-name="s" unicode="s" horiz-adv-x="1001" 
d="M660 560q111 -31 158 -57q115 -66 115 -194q0 -73 -26.5 -132t-69 -96t-99 -62t-114.5 -34.5t-118 -8.5q-103 3 -190.5 35t-143.5 82.5t-82.5 115.5t-13.5 133q11 53 54 89t104 51.5t134.5 14t146.5 -21.5l-162 43q-135 36 -196 98t-61 158q0 128 117.5 218.5t283.5 90.5
q184 0 302 -102.5t99 -224.5h-121q-1 98 -79 157.5t-192 59.5q-117 0 -203 -50t-86 -135q0 -53 40 -90.5t103 -55.5zM506 86q128 -4 217.5 53.5t89.5 152.5q0 100 -170 149l-17 5q-18 4 -50.5 13t-60.5 16q-70 15 -135.5 10t-118 -43t-64.5 -100q-19 -98 71.5 -175
t237.5 -81z" />
    <glyph glyph-name="t" unicode="t" horiz-adv-x="593" 
d="M344 1056h210v-110h-471q22 -1 44.5 -3.5t54.5 -8.5t59 -18.5t51 -30.5t38 -47t14 -65v-501q0 -64 38.5 -107t100.5 -43h71v-123h-71q-105 0 -182.5 75t-77.5 185v522q0 46 -17 80t-41.5 49.5t-49.5 24.5t-42 10l-17 1h-40v110h207v377h121v-377z" />
    <glyph glyph-name="u" unicode="u" horiz-adv-x="1058" 
d="M529 87q81 0 150.5 49.5t107 122.5t37.5 146q0 -212 -88 -320.5t-233 -108.5q-102 0 -182.5 34t-127 89.5t-70 120.5t-23.5 134v704h121v-704q0 -110 88 -188.5t220 -78.5zM824 1058h121v-1056h-121v1056z" />
    <glyph glyph-name="v" unicode="v" horiz-adv-x="1050" 
d="M903 1056h127l-390 -1056h-222l-400 1056h127l383 -1010z" />
    <glyph glyph-name="w" unicode="w" horiz-adv-x="1447" 
d="M1287 1056h134l-308 -1056h-176l-213 879l-213 -879h-176l-308 1056h134l262 -947l230 947h142l230 -947z" />
    <glyph glyph-name="x" unicode="x" horiz-adv-x="1021" 
d="M562 492q107 -144 177 -214q141 -139 250 -140v-138q-60 0 -113 18.5t-91.5 46t-74.5 72t-58.5 82.5t-45.5 93.5t-34.5 88.5t-26.5 82l-328 -483h-149l417 595q-5 6 -28.5 36.5t-38 48.5t-45 51.5t-55 55.5t-60.5 49t-69.5 43t-75 27.5t-82.5 11.5v138q77 0 146.5 -30
t119.5 -76.5t92 -107.5t67 -118t41 -113l310 445h149l-320 -457q-73 -104 -150 -5z" />
    <glyph glyph-name="y" unicode="y" horiz-adv-x="1032" 
d="M878 1056h135l-410 -1056l-92 -238q-30 -78 -82.5 -109t-131.5 -31h-88v121h128q22 0 40 12t25 31l53 146l-437 1124h135l363 -954z" />
    <glyph glyph-name="z" unicode="z" horiz-adv-x="925" 
d="M275 212q-36 -45 -95 -70.5t-100 -28.5l-41 -3q504 622 589 729q38 48 98 74.5t101 29.5l41 3q-511 -632 -593 -734zM868 946h-785v110h785v-110zM886 0h-847v110h847v-110z" />
    <glyph glyph-name="braceleft" unicode="{" horiz-adv-x="884" 
d="M473 913q0 -88 -23 -157.5t-59 -111t-85 -68.5t-95.5 -37t-96.5 -10q50 0 96.5 -10t95.5 -37t85 -68.5t59 -111t23 -157.5v-104q0 -125 87.5 -212t211.5 -87v-119q-112 0 -210.5 54.5t-159.5 154.5t-61 221v170q-1 98 -77.5 153.5t-185.5 55.5v193q109 0 185.5 55.5
t77.5 153.5v170q0 120 60 219.5t158.5 155t212.5 55.5v-119q-124 0 -211.5 -87.5t-87.5 -211.5v-103z" />
    <glyph glyph-name="verticalbar" unicode="|" horiz-adv-x="368" 
d="M244 -231h-121v1781h121v-1781z" />
    <glyph glyph-name="braceright" unicode="}" horiz-adv-x="884" 
d="M806 625v-193q-109 0 -185.5 -55.5t-77.5 -153.5v-170q0 -121 -60.5 -221t-159 -154.5t-210.5 -54.5v119q125 0 212 87t87 212v104q0 88 23 157.5t58.5 111t84.5 68.5t95.5 37t96.5 10q-50 0 -96.5 10t-95.5 37t-84.5 68.5t-58.5 111t-23 157.5v103q0 124 -87 211.5
t-212 87.5v119q114 0 212.5 -55.5t158 -155t59.5 -219.5v-170q1 -98 77.5 -153.5t185.5 -55.5z" />
    <glyph glyph-name="asciitilde" unicode="~" horiz-adv-x="792" 
d="M654 702h67q-5 -46 -25.5 -83.5t-48.5 -58t-61 -34t-64 -12t-57 8.5l-184 67q-18 5 -34 5q-40 0 -72.5 -25.5t-37.5 -69.5h-67q5 46 25.5 83.5t48.5 58t61 34t64 12t57 -8.5l184 -67q15 -4 34 -4q40 0 72.5 25t37.5 69z" />
    <glyph glyph-name="nonbreakingspace" unicode="&#xa0;" horiz-adv-x="526" 
 />
    <glyph glyph-name="exclamdown" unicode="&#xa1;" horiz-adv-x="380" 
d="M159 763h62q33 -867 33 -1140h-128q0 122 8 407t16 509zM190 924q-37 0 -63.5 19t-26.5 47t26.5 47.5t63.5 19.5t63.5 -19.5t26.5 -47.5t-26.5 -47t-63.5 -19z" />
    <glyph glyph-name="cent" unicode="&#xa2;" horiz-adv-x="1159" 
d="M912 376v2h142q-37 -181 -158.5 -291.5t-307.5 -110.5q-159 0 -273 78l-85 -124l-60 42l89 128q-157 151 -157 429q0 258 135.5 406t345.5 148q171 0 293 -93l91 131l59 -41l-96 -139q101 -109 129 -276h-133q-20 100 -69 171l-474 -684q83 -66 206 -66q241 0 323 290z
M239 529q0 -207 92 -325l477 688q-88 81 -220 81q-148 0 -248.5 -123.5t-100.5 -320.5z" />
    <glyph glyph-name="sterling" unicode="&#xa3;" horiz-adv-x="1230" 
d="M507 478q-2 -68 -22 -126.5t-64.5 -113t-128.5 -86.5t-200 -32q129 0 212 110.5t83 266.5q0 80 -27 155h-268v88h224q-33 116 -33 230q0 197 119 329.5t306 132.5q185 0 300 -132.5t126 -333.5h-120q0 149 -84.5 247t-221.5 98q-135 0 -223 -112t-80 -261q7 -118 45 -198
h323v-88h-290q24 -105 24 -174zM1135 -1h-1043v121h1043v-121z" />
    <glyph glyph-name="currency" unicode="&#xa4;" horiz-adv-x="952" 
d="M821 694q0 -120 -76 -215l112 -113l-53 -54l-113 113q-41 -33 -83 -50q-63 -26 -132 -26q-121 0 -216 76l-112 -113l-54 54l113 113q-76 95 -76 215q0 121 76 216l-113 112l54 54l112 -113q95 76 216 76q120 0 215 -76l113 113l53 -54l-112 -113q76 -95 76 -215zM666 504
q79 79 79 190t-79 190t-190 79t-190 -79t-79 -190t79 -190t190 -79t190 79z" />
    <glyph glyph-name="yen" unicode="&#xa5;" horiz-adv-x="1415" 
d="M246 249v88h922v-88h-395v-250h-131v250h-396zM1347 1432l-518 -817h339v-88h-395v-100q0 -25 -13.5 -43.5t-32.5 -27t-38.5 -13.5t-32.5 -5l-14 -1v190h-396v88h340l-518 817h157l482 -791l483 791h157z" />
    <glyph glyph-name="brokenbar" unicode="&#xa6;" horiz-adv-x="346" 
d="M231 813h-116v736h116v-736zM231 -231h-116v733h116v-733z" />
    <glyph glyph-name="section" unicode="&#xa7;" horiz-adv-x="1081" 
d="M342 435q57 -34 134 -57t142.5 -32t132.5 -25t114 -37.5t76.5 -68.5t29.5 -118q0 -73 -26.5 -131.5t-69 -96t-99 -62t-114.5 -34t-118 -8.5q-102 3 -186.5 35.5t-137.5 84.5t-82 115.5t-29 130.5h121q0 -99 86 -175.5t228 -80.5q128 -4 217.5 53.5t89.5 152.5
q0 99 -170 148l-33 9q-33 8 -82 21t-101 27t-96.5 27.5t-61.5 20.5q-173 72 -173 228q0 69 32.5 119.5t84 76t117.5 37t131 8t127 -17.5q-32 7 -80 16t-84.5 15t-81.5 16.5t-78.5 22.5t-66.5 32t-54.5 45t-34.5 61t-13 81q0 128 117.5 218.5t284.5 90.5q184 0 302 -102.5
t99 -224.5h-122q-1 98 -78.5 157.5t-191.5 59.5q-117 0 -203 -50t-86 -135q0 -53 40 -90.5t103 -55.5l300 -82q113 -31 162 -61q108 -65 108 -191q0 -89 -65 -150t-160 -82t-205 -6.5t-196 65.5zM752 740q-32 18 -70 30q43 -14 70 -30zM255 577q0 -23 8.5 -47.5t30 -50.5
t53.5 -46.5t85.5 -33.5t120.5 -13q83 0 144 20t93 52t46.5 65.5t14.5 68.5q0 38 -23.5 78t-72.5 68q-80 45 -202 45q-83 0 -144 -20t-93 -52t-46.5 -65.5t-14.5 -68.5z" />
    <glyph glyph-name="dieresis" unicode="&#xa8;" horiz-adv-x="561" 
d="M146 1433q34 0 57.5 -19.5t23.5 -47.5t-23.5 -47.5t-57.5 -19.5t-57 19.5t-23 47.5t23 47.5t57 19.5zM414 1433q34 0 57.5 -19.5t23.5 -47.5t-23.5 -47.5t-57.5 -19.5t-57.5 19.5t-23.5 47.5t23.5 47.5t57.5 19.5z" />
    <glyph glyph-name="copyright" unicode="&#xa9;" horiz-adv-x="1634" 
d="M1324 1223q101 -101 155.5 -232.5t54.5 -274.5t-54.5 -274.5t-155.5 -232.5t-232.5 -155.5t-274.5 -54.5t-274.5 54.5t-232.5 155.5t-155.5 232.5t-54.5 274.5t54.5 274.5t155.5 232.5t232.5 155.5t274.5 54.5t274.5 -54.5t232.5 -155.5zM1280 254q93 93 142 212t49 250
t-49 250t-142 212q-92 92 -212 142t-251 50t-250 -49.5t-212 -142.5q-93 -92 -142.5 -211.5t-49.5 -250.5t49.5 -250t142.5 -212t212 -142.5t250 -49.5t251 49.5t212 142.5zM825 1069q-122 0 -202.5 -105t-80.5 -247q0 -94 32 -173t97.5 -129.5t153.5 -50.5q87 0 156.5 54.5
t100.5 150.5l3 15h76q-20 -99 -76 -166t-122.5 -93.5t-140.5 -26.5q-165 0 -258.5 119t-93.5 300q0 115 43 210.5t124 152t183 56.5q155 0 240.5 -82.5t104.5 -204.5h-74q-1 2 -2 7.5t-1 8.5q-51 204 -263 204z" />
    <glyph glyph-name="guillemotleft" unicode="&#xab;" horiz-adv-x="1032" 
d="M569 938l-343 -413l348 -406h-150l-344 406l345 413h144zM607 525l348 -406h-150l-344 406l344 413h145z" />
    <glyph glyph-name="logicalnot" unicode="&#xac;" horiz-adv-x="1161" 
d="M68 698h1002v-428h-75v352h-927v76z" />
    <glyph glyph-name="softhyphen" unicode="&#xad;" horiz-adv-x="0" 
 />
    <glyph glyph-name="registered" unicode="&#xae;" horiz-adv-x="1634" 
d="M1324 1223q101 -101 155.5 -232.5t54.5 -274.5t-54.5 -274.5t-155.5 -232.5t-232.5 -155.5t-274.5 -54.5t-274.5 54.5t-232.5 155.5t-155.5 232.5t-54.5 274.5t54.5 274.5t155.5 232.5t232.5 155.5t274.5 54.5t274.5 -54.5t232.5 -155.5zM1280 254q93 93 142 212t49 250
t-49 250t-142 212q-92 92 -212 142t-251 50t-250 -49.5t-212 -142.5q-93 -92 -142.5 -211.5t-49.5 -250.5t49.5 -250t142.5 -212t212 -142.5t250 -49.5t251 49.5t212 142.5zM1139 898q0 -99 -57 -165t-160 -67l233 -333h-88l-233 333h-228v-333h-71v787l383 -1q93 0 157 -65
t64 -156zM606 732h312q77 0 112.5 45.5t35.5 113.5q0 79 -45.5 120t-102.5 41h-312v-320z" />
    <glyph glyph-name="overscore" unicode="&#xaf;" horiz-adv-x="714" 
d="M663 1390h-612v83h612v-83z" />
    <glyph glyph-name="degree" unicode="&#xb0;" horiz-adv-x="559" 
d="M279 1473q82 0 139.5 -57.5t57.5 -139.5t-57.5 -139.5t-139.5 -57.5t-139.5 57.5t-57.5 139.5t57.5 139.5t139.5 57.5zM279 1160q48 0 82 34t34 82t-34 82t-82 34t-82 -34t-34 -82t34 -82t82 -34z" />
    <glyph glyph-name="plusminus" unicode="&#xb1;" horiz-adv-x="772" 
d="M420 732h265v-69h-265v-265h-69v265h-265v69h265v265h69v-265zM685 203h-599v70h599v-70z" />
    <glyph glyph-name="acute" unicode="&#xb4;" horiz-adv-x="446" 
d="M245 1472h177l-259 -281h-95z" />
    <glyph glyph-name="paragraph" unicode="&#xb6;" horiz-adv-x="964" 
d="M437 1473h403v-1684h-130v1576h-136v-1576h-137v982q-145 0 -248 102.5t-103 248.5t103 248.5t248 102.5z" />
    <glyph glyph-name="periodcentered" unicode="&#xb7;" horiz-adv-x="518" 
d="M259 557q-74 0 -126.5 48.5t-52.5 116.5t52.5 116.5t126.5 48.5t126.5 -48.5t52.5 -116.5t-52.5 -116.5t-126.5 -48.5z" />
    <glyph glyph-name="cedilla" unicode="&#xb8;" horiz-adv-x="571" 
d="M284 -87q71 -11 117 -56.5t46 -103.5q0 -68 -59.5 -116t-142.5 -48q-67 0 -122 33v77q55 -29 122 -29q41 0 69.5 24.5t28.5 58.5q0 40 -30 64t-68 24h-82v62l60 97h92l-52 -83z" />
    <glyph glyph-name="guillemotright" unicode="&#xbb;" horiz-adv-x="1032" 
d="M606 938l344 -413l-344 -406h-150l349 406l-344 413h145zM225 938l345 -413l-344 -406h-150l348 406l-344 413h145z" />
    <glyph glyph-name="questiondown" unicode="&#xbf;" horiz-adv-x="1021" 
d="M528 963q-37 0 -63.5 19t-26.5 47t26.5 47.5t63.5 19.5t63.5 -19.5t26.5 -47.5t-26.5 -47t-63.5 -19zM833 98h131q0 -127 -52 -234t-155.5 -174t-238.5 -67q-185 0 -315.5 114.5t-130.5 276.5q0 165 169 290q129 95 174.5 190t45.5 277h131v-71q0 -158 -59 -269
t-175 -194l-24 -17q-24 -18 -34.5 -26.5t-33 -30.5t-33.5 -41.5t-20.5 -48t-9.5 -59.5q0 -113 93.5 -191.5t221.5 -78.5q94 0 167.5 51.5t110.5 131.5t37 171z" />
    <glyph glyph-name="Agrave" unicode="&#xc0;" horiz-adv-x="1296" 
d="M747 1543h-96l-259 281h177zM765 1432l519 -1433h-139l-161 445h-677l-158 -445h-139l507 1433h248zM351 567h588l-298 820z" />
    <glyph glyph-name="Aacute" unicode="&#xc1;" horiz-adv-x="1296" 
d="M838 1824l-259 -281h-96l178 281h177zM765 1432l519 -1433h-139l-161 445h-677l-158 -445h-139l507 1433h248zM351 567h588l-298 820z" />
    <glyph glyph-name="Acircumflex" unicode="&#xc2;" horiz-adv-x="1296" 
d="M765 1432l519 -1433h-139l-161 445h-677l-158 -445h-139l507 1433h248zM351 567h588l-298 820zM647 1797l-192 -255h-129l213 282h216l214 -282h-130z" />
    <glyph glyph-name="Atilde" unicode="&#xc3;" horiz-adv-x="1296" 
d="M496 1670q-40 0 -72.5 -25.5t-37.5 -69.5h-67q5 47 25.5 84t48.5 58t61 34.5t64 12t57 -8.5l184 -67q18 -5 34 -5q40 0 72.5 25.5t37.5 69.5h67q-5 -46 -25.5 -83.5t-48.5 -58t-61 -34t-64 -12t-57 8.5l-184 66q-18 5 -34 5zM765 1433l519 -1433h-139l-161 445h-677
l-158 -445h-139l507 1433h248zM351 568h588l-298 820z" />
    <glyph glyph-name="Adieresis" unicode="&#xc4;" horiz-adv-x="1296" 
d="M514 1603q-34 0 -57 19.5t-23 47.5t23 47.5t57 19.5t57.5 -19.5t23.5 -47.5t-23.5 -47.5t-57.5 -19.5zM782 1603q-34 0 -57.5 19.5t-23.5 47.5t23.5 47.5t57.5 19.5t57.5 -19.5t23.5 -47.5t-23.5 -47.5t-57.5 -19.5zM765 1432l519 -1433h-139l-161 445h-677l-158 -445
h-139l507 1433h248zM351 567h588l-298 820z" />
    <glyph glyph-name="Aring" unicode="&#xc5;" horiz-adv-x="1292" 
d="M763 1434l519 -1433h-139l-161 445h-677l-158 -445h-139l507 1433h248zM349 569h588l-298 820zM645 1548q-82 0 -139.5 57.5t-57.5 139.5t57.5 139.5t139.5 57.5t139.5 -57.5t57.5 -139.5t-57.5 -139.5t-139.5 -57.5zM645 1861q-48 0 -82 -34t-34 -82t34 -82.5t82 -34.5
t82.5 34.5t34.5 82.5t-34.5 82t-82.5 34z" />
    <glyph glyph-name="AE" unicode="&#xc6;" horiz-adv-x="2078" 
d="M2028 1310h-924v-534h847v-121h-847v-531h924v-124h-1055v446h-624l-207 -446h-142l663 1434h1365v-124zM973 568v743h-220l-346 -743h566z" />
    <glyph glyph-name="Ccedilla" unicode="&#xc7;" horiz-adv-x="1378" 
d="M1172 449q2 9 6 29h138q-27 -136 -91.5 -239t-150.5 -162t-179.5 -88t-192.5 -29h-2l-27 -44l21 -3q71 -11 116.5 -56.5t45.5 -103.5q0 -68 -59.5 -116t-142.5 -48q-67 0 -122 33v77q55 -29 122 -29q41 0 69.5 24.5t28.5 58.5q0 40 -30 64t-68 24h-82v62l40 63l72 115
q-37 -58 -102.5 -78.5t-128.5 6.5q-185 79 -285 269t-100 439q0 209 78 380.5t223.5 273.5t330.5 102q117 0 215 -29t167 -78t120.5 -116.5t80 -140.5t40.5 -154h-134q-4 20 -6 29q-20 81 -53.5 144.5t-88.5 116t-139 80.5t-194 28q-146 0 -264 -90t-181.5 -235t-63.5 -311
q0 -165 55 -305t167.5 -232t262.5 -99q4 0 12 -0.5t12 -0.5q158 0 283 97.5t181 271.5z" />
    <glyph glyph-name="Egrave" unicode="&#xc8;" horiz-adv-x="1228" 
d="M1178 1309h-924v-534h847v-121h-847v-531h924v-124h-1055v1433h1055v-123zM750 1543h-95l-259 281h177z" />
    <glyph glyph-name="Eacute" unicode="&#xc9;" horiz-adv-x="1228" 
d="M1178 1309h-924v-534h847v-121h-847v-531h924v-124h-1055v1433h1055v-123zM851 1824l-258 -281h-96l177 281h177z" />
    <glyph glyph-name="Ecircumflex" unicode="&#xca;" horiz-adv-x="1228" 
d="M1178 1309h-924v-534h847v-121h-847v-531h924v-124h-1055v1433h1055v-123zM650 1797l-192 -255h-129l213 282h216l214 -282h-130z" />
    <glyph glyph-name="Edieresis" unicode="&#xcb;" horiz-adv-x="1228" 
d="M1178 1309h-924v-534h847v-121h-847v-531h924v-124h-1055v1433h1055v-123zM516 1603q-34 0 -57 19.5t-23 47.5t23 47.5t57 19.5t57.5 -19.5t23.5 -47.5t-23.5 -47.5t-57.5 -19.5zM784 1603q-34 0 -57 19.5t-23 47.5t23 47.5t57 19.5t57.5 -19.5t23.5 -47.5t-23.5 -47.5
t-57.5 -19.5z" />
    <glyph glyph-name="Igrave" unicode="&#xcc;" horiz-adv-x="378" 
d="M255 -1h-131v1433h131v-1433zM291 1543h-96l-258 281h176z" />
    <glyph glyph-name="Iacute" unicode="&#xcd;" horiz-adv-x="376" 
d="M255 -1h-131v1433h131v-1433zM198 1824h177l-259 -281h-96z" />
    <glyph glyph-name="Icircumflex" unicode="&#xce;" horiz-adv-x="376" 
d="M254 -1h-131v1433h131v-1433zM295 1824l214 -282h-129l-192 255l-193 -255h-128l213 282h215z" />
    <glyph glyph-name="Idieresis" unicode="&#xcf;" horiz-adv-x="376" 
d="M253 -1h-131v1433h131v-1433zM54 1603q-34 0 -57.5 19.5t-23.5 47.5t23.5 47.5t57.5 19.5t57.5 -19.5t23.5 -47.5t-23.5 -47.5t-57.5 -19.5zM322 1603q-34 0 -57.5 19.5t-23.5 47.5t23.5 47.5t57.5 19.5t57 -19.5t23 -47.5t-23 -47.5t-57 -19.5z" />
    <glyph glyph-name="Eth" unicode="&#xd0;" horiz-adv-x="1409" 
d="M744 1434q123 0 232.5 -52.5t190 -144.5t128 -227.5t47.5 -292.5q0 -196 -73 -358.5t-211 -260.5t-314 -98h-572v647h-119v124h119v663h572zM744 123q131 3 238.5 84t167.5 216t60 294q0 162 -59 298t-166.5 216t-240.5 80h-441v-540h441v-124h-441v-524h441z" />
    <glyph glyph-name="Ntilde" unicode="&#xd1;" horiz-adv-x="1376" 
d="M565 1672q-40 0 -72.5 -25.5t-37.5 -69.5h-67q5 47 25.5 84t48.5 58t61 34.5t64 12t57 -8.5l184 -67q18 -5 34 -5q40 0 72.5 25.5t37.5 69.5h67q-5 -47 -25.5 -84t-48.5 -58t-61 -34.5t-64 -12t-57 8.5l-184 67q-18 5 -34 5zM1121 1433h131v-1433h-161l-837 1261v-1261
h-131v1433h161l837 -1261v1261z" />
    <glyph glyph-name="Ograve" unicode="&#xd2;" horiz-adv-x="1525" 
d="M756 1474q153 0 286 -59.5t224.5 -161.5t143.5 -241t52 -294t-52 -294t-143.5 -241t-224.5 -161.5t-286 -59.5q-204 0 -363.5 102t-244.5 273.5t-85 380.5t85 380.5t244.5 273.5t363.5 102zM756 83q130 0 239.5 51t182.5 138t113 202t40 244t-40 244t-113 202t-182.5 138
t-239.5 51t-237.5 -51t-177.5 -138t-108 -202t-38 -244t38 -244t108 -202t177.5 -138t237.5 -51zM874 1588h-96l-258 282h176z" />
    <glyph glyph-name="Oacute" unicode="&#xd3;" horiz-adv-x="1525" 
d="M756 1474q153 0 286 -59.5t224.5 -161.5t143.5 -241t52 -294t-52 -294t-143.5 -241t-224.5 -161.5t-286 -59.5q-204 0 -363.5 102t-244.5 273.5t-85 380.5t85 380.5t244.5 273.5t363.5 102zM756 83q130 0 239.5 51t182.5 138t113 202t40 244t-40 244t-113 202t-182.5 138
t-239.5 51t-237.5 -51t-177.5 -138t-108 -202t-38 -244t38 -244t108 -202t177.5 -138t237.5 -51zM955 1870l-259 -282h-95l177 282h177z" />
    <glyph glyph-name="Ocircumflex" unicode="&#xd4;" horiz-adv-x="1525" 
d="M756 1474q153 0 286 -59.5t224.5 -161.5t143.5 -241t52 -294t-52 -294t-143.5 -241t-224.5 -161.5t-286 -59.5q-204 0 -363.5 102t-244.5 273.5t-85 380.5t85 380.5t244.5 273.5t363.5 102zM756 83q130 0 239.5 51t182.5 138t113 202t40 244t-40 244t-113 202t-182.5 138
t-239.5 51t-237.5 -51t-177.5 -138t-108 -202t-38 -244t38 -244t108 -202t177.5 -138t237.5 -51zM762 1843l-192 -254h-129l213 281h216l214 -281h-130z" />
    <glyph glyph-name="Otilde" unicode="&#xd5;" horiz-adv-x="1525" 
d="M756 1473q153 0 286 -59.5t224.5 -161.5t143.5 -241t52 -294t-52 -294t-143.5 -241t-224.5 -161.5t-286 -59.5q-204 0 -363.5 102t-244.5 273.5t-85 380.5t85 380.5t244.5 273.5t363.5 102zM756 82q130 0 239.5 51t182.5 138t113 202t40 244t-40 244t-113 202t-182.5 138
t-239.5 51t-237.5 -51t-177.5 -138t-108 -202t-38 -244t38 -244t108 -202t177.5 -138t237.5 -51zM609 1669q-40 0 -72.5 -25.5t-37.5 -69.5h-67q5 47 25.5 84t48.5 58t61 34.5t64 12t57 -8.5l184 -67q18 -5 34 -5q40 0 72.5 25.5t37.5 69.5h67q-5 -47 -25.5 -84t-48.5 -58
t-61 -34.5t-64 -12t-57 8.5l-184 67q-18 5 -34 5z" />
    <glyph glyph-name="Odieresis" unicode="&#xd6;" horiz-adv-x="1525" 
d="M756 1474q153 0 286 -59.5t224.5 -161.5t143.5 -241t52 -294t-52 -294t-143.5 -241t-224.5 -161.5t-286 -59.5q-204 0 -363.5 102t-244.5 273.5t-85 380.5t85 380.5t244.5 273.5t363.5 102zM756 83q130 0 239.5 51t182.5 138t113 202t40 244t-40 244t-113 202t-182.5 138
t-239.5 51t-237.5 -51t-177.5 -138t-108 -202t-38 -244t38 -244t108 -202t177.5 -138t237.5 -51zM629 1646q-34 0 -57.5 19.5t-23.5 47.5t23.5 47.5t57.5 19.5t57 -19.5t23 -47.5t-23 -47.5t-57 -19.5zM897 1646q-34 0 -57.5 19.5t-23.5 47.5t23.5 47.5t57.5 19.5t57 -19.5
t23 -47.5t-23 -47.5t-57 -19.5z" />
    <glyph glyph-name="multiply" unicode="&#xd7;" horiz-adv-x="940" 
d="M524 508l330 -330l-55 -55l-330 330l-330 -330l-55 55l330 330l-324 324l55 55l324 -324l324 324l55 -55z" />
    <glyph glyph-name="Oslash" unicode="&#xd8;" horiz-adv-x="1529" 
d="M1221 1298q116 -105 179.5 -256t63.5 -325q0 -155 -52 -294t-143.5 -241t-224.5 -161.5t-286 -59.5q-215 0 -383 116l-83 -120l-60 41l85 123q-120 104 -185.5 259.5t-65.5 336.5q0 156 50 294.5t139 240.5t219.5 161.5t283.5 59.5q229 0 407 -129l87 126l60 -41z
M197 717q0 -149 49.5 -277.5t141.5 -216.5l707 1020q-142 109 -337 109q-130 0 -237.5 -51t-177.5 -138t-108 -202t-38 -244zM758 82q130 0 239.5 51t182.5 138t113 202t40 244q0 141 -47.5 265.5t-135.5 212.5l-706 -1018q135 -95 314 -95z" />
    <glyph glyph-name="Ugrave" unicode="&#xd9;" 
d="M778 1545h-96l-258 281h176zM1106 1435h132v-907q0 -118 -46 -224t-123 -180.5t-181 -118t-217 -43.5t-217 43.5t-181 118t-123 180.5t-46 224v907h132v-900q0 -118 58 -222t159 -166t218 -62t218 62t159 166t58 222v900z" />
    <glyph glyph-name="Uacute" unicode="&#xda;" 
d="M869 1826l-259 -281h-95l177 281h177zM1106 1435h132v-907q0 -118 -46 -224t-123 -180.5t-181 -118t-217 -43.5t-217 43.5t-181 118t-123 180.5t-46 224v907h132v-900q0 -118 58 -222t159 -166t218 -62t218 62t159 166t58 222v900z" />
    <glyph glyph-name="Ucircumflex" unicode="&#xdb;" 
d="M671 1799l-193 -255h-128l213 282h215l214 -282h-129zM1106 1435h132v-907q0 -118 -46 -224t-123 -180.5t-181 -118t-217 -43.5t-217 43.5t-181 118t-123 180.5t-46 224v907h132v-900q0 -118 58 -222t159 -166t218 -62t218 62t159 166t58 222v900z" />
    <glyph glyph-name="Udieresis" unicode="&#xdc;" 
d="M537 1646q-34 0 -57.5 19.5t-23.5 47.5t23.5 47.5t57.5 19.5t57.5 -19.5t23.5 -47.5t-23.5 -47.5t-57.5 -19.5zM805 1646q-34 0 -57.5 19.5t-23.5 47.5t23.5 47.5t57.5 19.5t57.5 -19.5t23.5 -47.5t-23.5 -47.5t-57.5 -19.5zM1106 1435h132v-907q0 -118 -46 -224
t-123 -180.5t-181 -118t-217 -43.5t-217 43.5t-181 118t-123 180.5t-46 224v907h132v-900q0 -118 58 -222t159 -166t218 -62t218 62t159 166t58 222v900z" />
    <glyph glyph-name="Yacute" unicode="&#xdd;" horiz-adv-x="1267" 
d="M812 1826l-259 -281h-96l178 281h177zM1116 1433h157l-574 -906v-527h-131v527l-574 906h157l483 -791z" />
    <glyph glyph-name="Thorn" unicode="&#xde;" horiz-adv-x="1224" 
d="M783 1433q170 0 286 -118.5t116 -284.5q0 -119 -44.5 -213.5t-137 -152t-220.5 -57.5h-234q-138 0 -217 -67.5t-79 -204.5q0 69 9 126.5t26.5 96.5t37.5 69t46.5 48t48.5 29.5t49.5 16t43.5 6t35 1.5h234q73 0 127 24t84 66t44.5 91.5t14.5 107.5q0 75 -25 133.5
t-65.5 92t-86.5 50.5t-93 17h-530v-975v-335l-130 1v1735h131v-302z" />
    <glyph glyph-name="germandbls" unicode="&#xdf;" horiz-adv-x="1079" 
d="M1011 405h1q0 -189 -133 -316t-340 -127q-35 0 -75 5v126q37 -8 75 -8q80 0 147 29t108 76t63.5 103t22.5 112q0 123 -77 202.5t-195 79.5h-144v123h75q116 0 194 61t78 161q0 118 -77.5 198.5t-194.5 80.5h-1q-122 0 -208 -89.5t-86 -212.5l1 -1008h-131l-1 1008
q0 113 55 210.5t153 156.5t217 59q116 0 210 -58t144 -149.5t50 -195.5q0 -85 -42 -157.5t-115 -108.5q81 -25 134 -85.5t72.5 -129t19.5 -146.5z" />
    <glyph glyph-name="agrave" unicode="&#xe0;" horiz-adv-x="1011" 
d="M454 89q129 0 229.5 80t100.5 177q0 -172 -87.5 -268.5t-239.5 -101.5q-175 -6 -284.5 99t-109.5 250q0 159 115.5 254t280.5 95h218q47 0 77 30t30 80q0 -52 -7.5 -91t-23 -61.5t-30 -36.5t-37.5 -19.5t-35 -6.5t-33 -1h-164q-110 0 -184.5 -62.5t-74.5 -184.5
q0 -99 71 -165.5t188 -66.5zM510 1083q104 0 192 -32.5t146 -102.5t58 -164v-783h-122v783q0 88 -76.5 138t-197.5 50q-172 0 -244 -154h-137q9 30 21.5 58t42.5 68t69 68.5t104 49.5t144 21zM624 1193h-95l-259 281h177z" />
    <glyph glyph-name="aacute" unicode="&#xe1;" horiz-adv-x="1011" 
d="M454 89q129 0 229.5 80t100.5 177q0 -172 -87.5 -268.5t-239.5 -101.5q-175 -6 -284.5 99t-109.5 250q0 159 115.5 254t280.5 95h218q47 0 77 30t30 80q0 -52 -7.5 -91t-23 -61.5t-30 -36.5t-37.5 -19.5t-35 -6.5t-33 -1h-164q-110 0 -184.5 -62.5t-74.5 -184.5
q0 -99 71 -165.5t188 -66.5zM510 1083q104 0 192 -32.5t146 -102.5t58 -164v-783h-122v783q0 88 -76.5 138t-197.5 50q-172 0 -244 -154h-137q9 30 21.5 58t42.5 68t69 68.5t104 49.5t144 21zM724 1474l-258 -281h-96l177 281h177z" />
    <glyph glyph-name="acircumflex" unicode="&#xe2;" horiz-adv-x="1011" 
d="M454 89q129 0 229.5 80t100.5 177q0 -172 -87.5 -268.5t-239.5 -101.5q-175 -6 -284.5 99t-109.5 250q0 159 115.5 254t280.5 95h218q47 0 77 30t30 80q0 -52 -7.5 -91t-23 -61.5t-30 -36.5t-37.5 -19.5t-35 -6.5t-33 -1h-164q-110 0 -184.5 -62.5t-74.5 -184.5
q0 -99 71 -165.5t188 -66.5zM510 1083q104 0 192 -32.5t146 -102.5t58 -164v-783h-122v783q0 88 -76.5 138t-197.5 50q-172 0 -244 -154h-137q9 30 21.5 58t42.5 68t69 68.5t104 49.5t144 21zM535 1447l-192 -255h-129l213 282h216l214 -282h-130z" />
    <glyph glyph-name="atilde" unicode="&#xe3;" horiz-adv-x="1011" 
d="M454 89q129 0 229.5 80.5t100.5 177.5q0 -172 -87.5 -269t-239.5 -102q-175 -6 -284.5 99t-109.5 250q0 159 115.5 254.5t280.5 95.5h218q47 0 77 30t30 79q0 -52 -7.5 -91t-23 -61.5t-30 -36.5t-37.5 -19.5t-35 -6.5t-33 -1h-164q-110 0 -184.5 -62.5t-74.5 -184.5
q0 -99 71 -165.5t188 -66.5zM510 1083q104 0 192 -32.5t146 -102.5t58 -164v-783h-122v783q0 88 -76.5 138t-197.5 50q-172 0 -244 -154h-137q9 30 21.5 58t42.5 68t69 68.5t104 49.5t144 21zM370 1311q-40 0 -72.5 -25.5t-37.5 -69.5h-67q5 47 25.5 84t48.5 58t61 34.5
t64 12t57 -8.5l184 -67q18 -5 34 -5q40 0 72.5 25.5t37.5 69.5h67q-5 -47 -25.5 -84t-48.5 -58t-61 -34.5t-64 -12t-57 8.5l-184 67q-18 5 -34 5z" />
    <glyph glyph-name="adieresis" unicode="&#xe4;" horiz-adv-x="1011" 
d="M510 1083q104 0 192 -32.5t146 -102.5t58 -164v-783h-122v783q0 88 -76.5 138t-197.5 50q-172 0 -244 -154h-137q9 30 21.5 58t42.5 68t69 68.5t104 49.5t144 21zM454 89q129 0 229.5 80t100.5 177q0 -172 -87.5 -268.5t-239.5 -101.5q-175 -6 -284.5 99t-109.5 250
q0 159 115.5 254t280.5 95h218q47 0 77 30t30 80q0 -52 -7.5 -91t-23 -61.5t-30 -36.5t-37.5 -19.5t-35 -6.5t-33 -1h-164q-110 0 -184.5 -62.5t-74.5 -184.5q0 -99 71 -165.5t188 -66.5zM386 1250q-34 0 -57 19.5t-23 47.5t23 47.5t57 19.5t57.5 -19.5t23.5 -47.5
t-23.5 -47.5t-57.5 -19.5zM654 1250q-34 0 -57 19.5t-23 47.5t23 47.5t57 19.5t57.5 -19.5t23.5 -47.5t-23.5 -47.5t-57.5 -19.5z" />
    <glyph glyph-name="aring" unicode="&#xe5;" horiz-adv-x="1011" 
d="M510 1083q104 0 192 -32.5t146 -102.5t58 -164v-783h-122v783q0 88 -76.5 138t-197.5 50q-172 0 -244 -154h-137q9 30 21.5 58t42.5 68t69 68.5t104 49.5t144 21zM454 89q129 0 229.5 80.5t100.5 177.5q0 -172 -87.5 -269t-239.5 -102q-175 -6 -284.5 99t-109.5 250
q0 159 115.5 254.5t280.5 95.5h218q47 0 77 30t30 79q0 -52 -7.5 -91t-23 -61.5t-30 -36.5t-37.5 -19.5t-35 -6.5t-33 -1h-164q-110 0 -184.5 -62.5t-74.5 -184.5q0 -99 71 -165.5t188 -66.5zM513 1197q-82 0 -139.5 57.5t-57.5 139.5t57.5 140t139.5 58t139.5 -58
t57.5 -140t-57.5 -139.5t-139.5 -57.5zM513 1511q-48 0 -82.5 -34.5t-34.5 -82.5t34.5 -82t82.5 -34t82 34t34 82t-34 82.5t-82 34.5z" />
    <glyph glyph-name="ae" unicode="&#xe6;" horiz-adv-x="1816" 
d="M1270 83q234 0 330 269h132q-31 -164 -154.5 -270.5t-307.5 -106.5q-231 0 -364 162q-39 48 -63 99q-7 -20 -20.5 -45.5t-45 -64.5t-72 -69.5t-106 -54.5t-142.5 -27q-175 -6 -284.5 99t-109.5 250q0 159 115.5 254.5t280.5 95.5h218q47 0 77 30t30 79q0 88 -76.5 138.5
t-197.5 50.5q-172 0 -244 -155h-137q9 30 21.5 58t42.5 68t69 68.5t104 49.5t144 21q129 0 233.5 -52t143.5 -147q67 95 164.5 146.5t206.5 52.5q74 1 140 -14.5t131.5 -56.5t112.5 -105t76.5 -169.5t29.5 -241.5h-822q0 -182 93 -297t251 -115zM784 346v252
q-76 -30 -166 -30h-164q-110 0 -184.5 -62.5t-74.5 -184.5q0 -99 71 -165.5t188 -66.5q129 0 229.5 80t100.5 177zM1260 972q-99 0 -177 -53t-118 -135t-40 -176h689q0 162 -103 263t-251 101z" />
    <glyph glyph-name="ccedilla" unicode="&#xe7;" horiz-adv-x="1085" 
d="M879 376v2h142q-37 -180 -156 -290t-303 -112l-36 -58l21 -4q71 -11 117 -56.5t46 -103.5q0 -68 -59.5 -116t-142.5 -48q-65 0 -122 34v76q55 -29 122 -29q40 0 68.5 24t28.5 59q0 40 -29.5 64t-67.5 24h-83v62l49 77l65 105q-34 -53 -94.5 -70t-116.5 11
q-121 62 -189.5 190.5t-68.5 311.5q0 258 135.5 406t345.5 148q188 0 314.5 -111t160.5 -308h-133q-31 152 -120.5 230t-217.5 78q-148 0 -248.5 -123t-100.5 -320q0 -198 86.5 -317t246.5 -126h17q241 0 323 290z" />
    <glyph glyph-name="egrave" unicode="&#xe8;" horiz-adv-x="1097" 
d="M1031 529v-33h-840q9 -190 109.5 -299t250.5 -111q118 2 207.5 71t127.5 195h126q-42 -180 -164.5 -277.5t-296.5 -99.5q-214 2 -347.5 148t-133.5 406q0 255 136 404.5t345 149.5t344.5 -149.5t135.5 -404.5zM196 608h709q-21 163 -119.5 262.5t-234.5 101.5
q-136 -2 -235 -101.5t-120 -262.5zM652 1193h-95l-259 281h177z" />
    <glyph glyph-name="eacute" unicode="&#xe9;" horiz-adv-x="1097" 
d="M1031 529v-33h-840q9 -190 109.5 -299t250.5 -111q118 2 207.5 71t127.5 195h126q-42 -180 -164.5 -277.5t-296.5 -99.5q-214 2 -347.5 148t-133.5 406q0 255 136 404.5t345 149.5t344.5 -149.5t135.5 -404.5zM196 608h709q-21 163 -119.5 262.5t-234.5 101.5
q-136 -2 -235 -101.5t-120 -262.5zM752 1474l-258 -281h-96l177 281h177z" />
    <glyph glyph-name="ecircumflex" unicode="&#xea;" horiz-adv-x="1097" 
d="M1031 529v-33h-840q9 -190 109.5 -299t250.5 -111q118 2 207.5 71t127.5 195h126q-42 -180 -164.5 -277.5t-296.5 -99.5q-214 2 -347.5 148t-133.5 406q0 255 136 404.5t345 149.5t344.5 -149.5t135.5 -404.5zM196 608h709q-21 163 -119.5 262.5t-234.5 101.5
q-136 -2 -235 -101.5t-120 -262.5zM555 1447l-192 -255h-129l213 282h216l214 -282h-130z" />
    <glyph glyph-name="edieresis" unicode="&#xeb;" horiz-adv-x="1097" 
d="M1031 529v-33h-840q9 -190 109.5 -299t250.5 -111q118 2 207.5 71t127.5 195h126q-42 -180 -164.5 -277.5t-296.5 -99.5q-214 2 -347.5 148t-133.5 406q0 255 136 404.5t345 149.5t344.5 -149.5t135.5 -404.5zM196 608h709q-21 163 -119.5 262.5t-234.5 101.5
q-136 -2 -235 -101.5t-120 -262.5zM443 1250q-34 0 -57 19.5t-23 47.5t23 47.5t57 19.5t57.5 -19.5t23.5 -47.5t-23.5 -47.5t-57.5 -19.5zM711 1250q-34 0 -57.5 19.5t-23.5 47.5t23.5 47.5t57.5 19.5t57.5 -19.5t23.5 -47.5t-23.5 -47.5t-57.5 -19.5z" />
    <glyph glyph-name="igrave" unicode="&#xec;" horiz-adv-x="344" 
d="M283 1193h-96l-259 281h177zM232 1h-121v1056h121v-1056z" />
    <glyph glyph-name="iacute" unicode="&#xed;" horiz-adv-x="344" 
d="M424 1474l-259 -281h-95l177 281h177zM232 1h-121v1056h121v-1056z" />
    <glyph glyph-name="icircumflex" unicode="&#xee;" horiz-adv-x="344" 
d="M279 1474l214 -282h-130l-192 255l-192 -255h-129l213 282h216zM232 1h-121v1056h121v-1056z" />
    <glyph glyph-name="idieresis" unicode="&#xef;" horiz-adv-x="344" 
d="M38 1250q-34 0 -57.5 19.5t-23.5 47.5t23.5 47.5t57.5 19.5t57 -19.5t23 -47.5t-23 -47.5t-57 -19.5zM305 1250q-34 0 -57 19.5t-23 47.5t23 47.5t57 19.5t57.5 -19.5t23.5 -47.5t-23.5 -47.5t-57.5 -19.5zM232 1h-121v1056h121v-1056z" />
    <glyph glyph-name="eth" unicode="&#xf0;" horiz-adv-x="1107" 
d="M1031 530q0 -260 -133 -406t-347 -148q-214 2 -347.5 148t-133.5 406q0 255 136 404.5t345 149.5q123 0 225 -55q-105 180 -297 343l-222 -154l-49 71l200 139q-89 69 -202 138l89 62q109 -62 205 -136l175 122l50 -71l-155 -108q97 -83 176 -175.5t144 -203.5t102 -241
t39 -267v-18zM551 87q157 2 258 120t101 323v12q-4 190 -106 309.5t-253 121.5q-153 -2 -256.5 -125t-103.5 -318q0 -205 101.5 -323t258.5 -120z" />
    <glyph glyph-name="ntilde" unicode="&#xf1;" horiz-adv-x="1071" 
d="M113 1057h121v-1057h-121v1057zM541 1080q63 6 125.5 -7.5t117 -46t96.5 -78.5t66 -110t24 -136v-702h-122v690q0 110 -84.5 194.5t-222.5 84.5q-132 0 -219.5 -85.5t-87.5 -193.5q0 157 87.5 267.5t219.5 122.5zM415 1314q-40 0 -72.5 -25.5t-37.5 -69.5h-67
q5 47 25.5 84t48.5 58t61 34.5t64 12t57 -8.5l184 -67q18 -5 34 -5q40 0 72.5 25.5t37.5 69.5h67q-5 -47 -25.5 -84t-48.5 -58t-61 -34.5t-64 -12t-57 8.5l-184 67q-18 5 -34 5z" />
    <glyph glyph-name="ograve" unicode="&#xf2;" horiz-adv-x="1101" 
d="M654 1193h-95l-259 281h177zM551 1083q209 0 344.5 -149.5t135.5 -404.5q0 -260 -133 -406t-347 -148q-214 2 -347.5 148t-133.5 406q0 255 136 404.5t345 149.5zM551 86q157 2 258 120t101 323q0 195 -103 318t-256 125q-153 -2 -256.5 -125t-103.5 -318
q0 -205 101.5 -323t258.5 -120z" />
    <glyph glyph-name="oacute" unicode="&#xf3;" horiz-adv-x="1101" 
d="M744 1474l-259 -281h-96l178 281h177zM551 1083q209 0 344.5 -149.5t135.5 -404.5q0 -260 -133 -406t-347 -148q-214 2 -347.5 148t-133.5 406q0 255 136 404.5t345 149.5zM551 86q157 2 258 120t101 323q0 195 -103 318t-256 125q-153 -2 -256.5 -125t-103.5 -318
q0 -205 101.5 -323t258.5 -120z" />
    <glyph glyph-name="ocircumflex" unicode="&#xf4;" horiz-adv-x="1101" 
d="M550 1447l-192 -255h-129l213 282h216l214 -282h-130zM551 1083q209 0 344.5 -149.5t135.5 -404.5q0 -260 -133 -406t-347 -148q-214 2 -347.5 148t-133.5 406q0 255 136 404.5t345 149.5zM551 86q157 2 258 120t101 323q0 195 -103 318t-256 125q-153 -2 -256.5 -125
t-103.5 -318q0 -205 101.5 -323t258.5 -120z" />
    <glyph glyph-name="otilde" unicode="&#xf5;" horiz-adv-x="1101" 
d="M551 1083q209 0 344.5 -149t135.5 -404q0 -260 -133 -406t-347 -148q-214 2 -347.5 148t-133.5 406q0 128 37 233t101.5 174.5t152.5 107.5t190 38zM551 86q157 2 258 120t101 324q0 195 -103 318t-256 125q-153 -2 -256.5 -125t-103.5 -318q0 -205 101.5 -323.5
t258.5 -120.5zM401 1308q-40 0 -72.5 -25t-37.5 -69h-67q5 46 25.5 83.5t48.5 58t61.5 34t64.5 12t57 -8.5l184 -67q18 -5 34 -5q40 0 72.5 25.5t37.5 69.5h67q-5 -46 -25.5 -83.5t-48.5 -58t-61.5 -34t-64.5 -12t-57 8.5l-184 67q-15 4 -34 4z" />
    <glyph glyph-name="odieresis" unicode="&#xf6;" horiz-adv-x="1101" 
d="M417 1250q-34 0 -57.5 19.5t-23.5 47.5t23.5 47.5t57.5 19.5t57 -19.5t23 -47.5t-23 -47.5t-57 -19.5zM684 1250q-34 0 -57 19.5t-23 47.5t23 47.5t57 19.5t57.5 -19.5t23.5 -47.5t-23.5 -47.5t-57.5 -19.5zM551 1083q209 0 344.5 -149.5t135.5 -404.5q0 -260 -133 -406
t-347 -148q-214 2 -347.5 148t-133.5 406q0 255 136 404.5t345 149.5zM551 86q157 2 258 120t101 323q0 195 -103 318t-256 125q-153 -2 -256.5 -125t-103.5 -318q0 -205 101.5 -323t258.5 -120z" />
    <glyph glyph-name="divide" unicode="&#xf7;" horiz-adv-x="978" 
d="M925 465h-872v86h872v-86zM489 739q-32 0 -55.5 23t-23.5 55t23.5 55.5t55.5 23.5t55 -23.5t23 -55.5t-23 -55t-55 -23zM489 265q32 0 55 -23t23 -55t-23 -55.5t-55 -23.5t-55.5 23.5t-23.5 55.5t23.5 55t55.5 23z" />
    <glyph glyph-name="oslash" unicode="&#xf8;" horiz-adv-x="1110" 
d="M892 940q143 -153 143 -412q0 -260 -133 -406t-347 -148q-160 2 -275 83l-93 -134l-59 41l96 140q-150 150 -150 424q0 128 37 233t101.5 174.5t152.5 107.5t190 38q162 0 283 -92l86 124l60 -41zM195 528q0 -201 100 -322l474 683q-93 80 -214 82q-153 -2 -256.5 -125
t-103.5 -318zM555 84q157 2 258 120t101 324q0 185 -95 307l-471 -680q90 -69 207 -71z" />
    <glyph glyph-name="ugrave" unicode="&#xf9;" horiz-adv-x="1058" 
d="M631 1193h-95l-259 281h177zM824 1057h121v-1056h-121v1056zM529 86q81 0 150.5 49.5t107 122.5t37.5 146q0 -212 -88 -320.5t-233 -108.5q-102 0 -182.5 34t-127 89.5t-70 120.5t-23.5 134v704h121v-704q0 -110 88 -188.5t220 -78.5z" />
    <glyph glyph-name="uacute" unicode="&#xfa;" horiz-adv-x="1058" 
d="M712 1474l-258 -281h-96l178 281h176zM529 86q81 0 150.5 49.5t107 122.5t37.5 146q0 -212 -88 -320.5t-233 -108.5q-102 0 -182.5 34t-127 89.5t-70 120.5t-23.5 134v704h121v-704q0 -110 88 -188.5t220 -78.5zM824 1057h121v-1056h-121v1056z" />
    <glyph glyph-name="ucircumflex" unicode="&#xfb;" horiz-adv-x="1058" 
d="M522 1447l-192 -255h-129l213 282h216l214 -282h-130zM824 1057h121v-1056h-121v1056zM529 86q81 0 150.5 49.5t107 122.5t37.5 146q0 -212 -88 -320.5t-233 -108.5q-102 0 -182.5 34t-127 89.5t-70 120.5t-23.5 134v704h121v-704q0 -110 88 -188.5t220 -78.5z" />
    <glyph glyph-name="udieresis" unicode="&#xfc;" horiz-adv-x="1058" 
d="M389 1250q-34 0 -57.5 19.5t-23.5 47.5t23.5 47.5t57.5 19.5t57 -19.5t23 -47.5t-23 -47.5t-57 -19.5zM656 1250q-34 0 -57 19.5t-23 47.5t23 47.5t57 19.5t57.5 -19.5t23.5 -47.5t-23.5 -47.5t-57.5 -19.5zM529 86q81 0 150.5 49.5t107 122.5t37.5 146
q0 -212 -88 -320.5t-233 -108.5q-102 0 -182.5 34t-127 89.5t-70 120.5t-23.5 134v704h121v-704q0 -110 88 -188.5t220 -78.5zM824 1057h121v-1056h-121v1056z" />
    <glyph glyph-name="yacute" unicode="&#xfd;" horiz-adv-x="1032" 
d="M674 1475l-259 -282h-95l177 282h177zM878 1058h135l-410 -1056l-92 -238q-30 -78 -82.5 -109t-131.5 -31h-88v121h128q22 0 40 12t25 31l53 146l-437 1124h135l363 -954z" />
    <glyph glyph-name="thorn" unicode="&#xfe;" horiz-adv-x="1077" 
d="M561 1081q122 0 225 -72.5t163 -197t60 -271.5q0 -148 -60 -276.5t-164 -201t-224 -61.5q-44 4 -86 21.5t-86.5 57.5t-77.5 98t-54.5 150t-22.5 206q1 -106 27.5 -189t72 -133.5t103 -76t124.5 -25.5q86 0 159 57t115.5 156t42.5 217t-42.5 217.5t-115.5 156.5t-159 57
q-141 0 -234 -110t-93 -321v-917h-121v417v1434h121v-418v-159q48 91 132 137.5t195 46.5z" />
    <glyph glyph-name="ydieresis" unicode="&#xff;" horiz-adv-x="1032" 
d="M377 1254q-34 0 -57 19.5t-23 47.5t23 47.5t57 19.5t57.5 -19.5t23.5 -47.5t-23.5 -47.5t-57.5 -19.5zM645 1254q-34 0 -57.5 19.5t-23.5 47.5t23.5 47.5t57.5 19.5t57.5 -19.5t23.5 -47.5t-23.5 -47.5t-57.5 -19.5zM878 1058h135l-410 -1056l-92 -238
q-30 -78 -82.5 -109t-131.5 -31h-88v121h128q22 0 40 12t25 31l53 146l-437 1124h135l363 -954z" />
    <glyph glyph-name="Amacron" unicode="&#x100;" horiz-adv-x="1296" 
d="M938 1604h-611v83h611v-83zM765 1433l519 -1433h-139l-161 445h-677l-158 -445h-139l507 1433h248zM351 568h588l-298 820z" />
    <glyph glyph-name="amacron" unicode="&#x101;" horiz-adv-x="1011" 
d="M454 89q129 0 229.5 80.5t100.5 177.5q0 -172 -87.5 -269t-239.5 -102q-175 -6 -284.5 99t-109.5 250q0 159 115.5 254.5t280.5 95.5h218q47 0 77 30t30 79q0 -52 -7.5 -91t-23 -61.5t-30 -36.5t-37.5 -19.5t-35 -6.5t-33 -1h-164q-110 0 -184.5 -62.5t-74.5 -184.5
q0 -99 71 -165.5t188 -66.5zM510 1083q104 0 192 -32.5t146 -102.5t58 -164v-783h-122v783q0 88 -76.5 138t-197.5 50q-172 0 -244 -154h-137q9 30 21.5 58t42.5 68t69 68.5t104 49.5t144 21zM817 1254h-611v84h611v-84z" />
    <glyph glyph-name="Abreve" unicode="&#x102;" horiz-adv-x="1296" 
d="M765 1433l519 -1433h-139l-161 445h-677l-158 -445h-139l507 1433h248zM351 568h588l-298 820zM635 1552q-120 0 -208.5 79.5t-88.5 193.5h72q0 -70 63 -126t162 -56t165.5 56t66.5 126h70q0 -114 -91 -193.5t-211 -79.5z" />
    <glyph glyph-name="abreve" unicode="&#x103;" horiz-adv-x="1011" 
d="M510 1083q104 0 192 -32.5t146 -102.5t58 -164v-783h-122v783q0 88 -76.5 138t-197.5 50q-172 0 -244 -154h-137q9 30 21.5 58t42.5 68t69 68.5t104 49.5t144 21zM454 89q129 0 229.5 80.5t100.5 177.5q0 -172 -87.5 -269t-239.5 -102q-175 -6 -284.5 99t-109.5 250
q0 159 115.5 254.5t280.5 95.5h218q47 0 77 30t30 79q0 -52 -7.5 -91t-23 -61.5t-30 -36.5t-37.5 -19.5t-35 -6.5t-33 -1h-164q-110 0 -184.5 -62.5t-74.5 -184.5q0 -99 71 -165.5t188 -66.5zM496 1201q-120 0 -208.5 79.5t-88.5 193.5h73q0 -70 62.5 -126t161.5 -56
t165.5 56t66.5 126h71q0 -114 -91.5 -193.5t-211.5 -79.5z" />
    <glyph glyph-name="Aogonek" unicode="&#x104;" horiz-adv-x="1298" 
d="M1135 -206q-5 -54 39.5 -83t111.5 -8v-87q-88 -31 -148.5 -14t-92 59.5t-28.5 94.5q2 40 18 79.5t37.5 68t42.5 51t35 33.5l15 12h-18l-161 445h-677l-158 -445h-139l508 1433h247l519 -1433q-51 -36 -98.5 -93.5t-52.5 -112.5zM353 568h588l-298 820z" />
    <glyph glyph-name="aogonek" unicode="&#x105;" horiz-adv-x="1011" 
d="M510 1083q104 0 192 -32.5t146 -102.5t58 -164v-783q-52 -36 -99.5 -93.5t-52.5 -112.5q-5 -54 40 -83t112 -8v-87q-88 -31 -149 -14t-92.5 59.5t-28.5 94.5q2 40 18 79.5t37.5 68t42.5 51t36 34.5l14 11v783q0 88 -76.5 138t-197.5 50q-172 0 -244 -154h-137
q9 30 21.5 58t42.5 68t69 68.5t104 49.5t144 21zM454 89q129 0 229.5 80.5t100.5 177.5q0 -172 -87.5 -269t-239.5 -102q-175 -6 -284.5 99t-109.5 250q0 159 115.5 254.5t280.5 95.5h218q47 0 77 30t30 79q0 -52 -7.5 -91t-23 -61.5t-30 -36.5t-37.5 -19.5t-35 -6.5t-33 -1
h-164q-110 0 -184.5 -62.5t-74.5 -184.5q0 -99 71 -165.5t188 -66.5z" />
    <glyph glyph-name="Cacute" unicode="&#x106;" horiz-adv-x="1378" 
d="M872 1825l-258 -281h-96l177 281h177zM1172 449q2 9 6 29h138q-27 -136 -91.5 -239t-150.5 -162t-179.5 -88t-192.5 -29q-151 0 -272.5 59.5t-199.5 162.5t-120 240t-42 295q0 209 78 380.5t223.5 273.5t330.5 102q117 0 215 -29t167 -78t120.5 -116.5t80 -140.5
t40.5 -154h-134q-4 20 -6 29q-20 81 -53.5 144.5t-88.5 116t-139 80.5t-194 28q-146 0 -264 -90t-181.5 -235t-63.5 -311q0 -126 34 -240t97 -203t161 -141.5t217 -52.5q158 0 283 97.5t181 271.5z" />
    <glyph glyph-name="cacute" unicode="&#x107;" horiz-adv-x="1085" 
d="M736 1474l-258 -281h-96l178 281h176zM879 376v2h142q-38 -181 -158.5 -292t-306.5 -111q-217 0 -351.5 146.5t-134.5 407.5q0 258 135.5 406t345.5 148q188 0 314.5 -111t160.5 -308h-133q-31 152 -120.5 230t-217.5 78q-148 0 -248.5 -123t-100.5 -320q0 -203 91 -323
t259 -120q241 0 323 290z" />
    <glyph glyph-name="Ccircumflex" unicode="&#x108;" horiz-adv-x="1378" 
d="M711 1798l-192 -255h-128l213 282h215l214 -282h-129zM1172 449q2 9 6 29h138q-27 -136 -91.5 -239t-150.5 -162t-179.5 -88t-192.5 -29q-151 0 -272.5 59.5t-199.5 162.5t-120 240t-42 295q0 209 78 380.5t223.5 273.5t330.5 102q117 0 215 -29t167 -78t120.5 -116.5
t80 -140.5t40.5 -154h-134q-4 20 -6 29q-20 81 -53.5 144.5t-88.5 116t-139 80.5t-194 28q-146 0 -264 -90t-181.5 -235t-63.5 -311q0 -126 34 -240t97 -203t161 -141.5t217 -52.5q158 0 283 97.5t181 271.5z" />
    <glyph glyph-name="ccircumflex" unicode="&#x109;" horiz-adv-x="1085" 
d="M543 1447l-193 -255h-128l213 282h215l214 -282h-129zM879 376v2h142q-38 -181 -158.5 -292t-306.5 -111q-217 0 -351.5 146.5t-134.5 407.5q0 258 135.5 406t345.5 148q188 0 314.5 -111t160.5 -308h-133q-31 152 -120.5 230t-217.5 78q-148 0 -248.5 -123t-100.5 -320
q0 -203 91 -323t259 -120q241 0 323 290z" />
    <glyph glyph-name="Cdot" unicode="&#x10a;" horiz-adv-x="1378" 
d="M1172 449q2 9 6 29h138q-27 -136 -91.5 -239t-150.5 -162t-179.5 -88t-192.5 -29q-151 0 -272.5 59.5t-199.5 162.5t-120 240t-42 295q0 209 78 380.5t223.5 273.5t330.5 102q117 0 215 -29t167 -78t120.5 -116.5t80 -140.5t40.5 -154h-134q-4 20 -6 29
q-20 81 -53.5 144.5t-88.5 116t-139 80.5t-194 28q-146 0 -264 -90t-181.5 -235t-63.5 -311q0 -126 34 -240t97 -203t161 -141.5t217 -52.5q158 0 283 97.5t181 271.5zM695 1604q-34 0 -57 19.5t-23 47.5t23 47.5t57 19.5t57.5 -19.5t23.5 -47.5t-23.5 -47.5t-57.5 -19.5z
" />
    <glyph glyph-name="cdot" unicode="&#x10b;" horiz-adv-x="1085" 
d="M534 1252q-34 0 -57.5 19.5t-23.5 47.5t23.5 47.5t57.5 19.5t57.5 -19.5t23.5 -47.5t-23.5 -47.5t-57.5 -19.5zM879 376v2h142q-38 -181 -158.5 -292t-306.5 -111q-217 0 -351.5 146.5t-134.5 407.5q0 258 135.5 406t345.5 148q188 0 314.5 -111t160.5 -308h-133
q-31 152 -120.5 230t-217.5 78q-148 0 -248.5 -123t-100.5 -320q0 -203 91 -323t259 -120q241 0 323 290z" />
    <glyph glyph-name="Ccaron" unicode="&#x10c;" horiz-adv-x="1378" 
d="M804 1543h-216l-213 282h129l192 -255l192 255h130zM1172 449q2 9 6 29h138q-27 -136 -91.5 -239t-150.5 -162t-179.5 -88t-192.5 -29q-151 0 -272.5 59.5t-199.5 162.5t-120 240t-42 295q0 209 78 380.5t223.5 273.5t330.5 102q117 0 215 -29t167 -78t120.5 -116.5
t80 -140.5t40.5 -154h-134q-4 20 -6 29q-20 81 -53.5 144.5t-88.5 116t-139 80.5t-194 28q-146 0 -264 -90t-181.5 -235t-63.5 -311q0 -126 34 -240t97 -203t161 -141.5t217 -52.5q158 0 283 97.5t181 271.5z" />
    <glyph glyph-name="ccaron" unicode="&#x10d;" horiz-adv-x="1085" 
d="M660 1192h-215l-213 282h128l193 -255l192 255h129zM879 376v2h142q-38 -181 -158.5 -292t-306.5 -111q-217 0 -351.5 146.5t-134.5 407.5q0 258 135.5 406t345.5 148q188 0 314.5 -111t160.5 -308h-133q-31 152 -120.5 230t-217.5 78q-148 0 -248.5 -123t-100.5 -320
q0 -203 91 -323t259 -120q241 0 323 290z" />
    <glyph glyph-name="Dcaron" unicode="&#x10e;" horiz-adv-x="1359" 
d="M768 1543h-215l-213 282h128l193 -255l192 255h129zM694 1433q123 0 232.5 -52.5t190 -144.5t128 -227.5t47.5 -292.5q0 -196 -73 -358.5t-211 -260.5t-314 -98h-571v1434h571zM695 122q131 3 238.5 84t167.5 216t60 294q0 162 -59.5 298t-167 216t-240.5 80h-440v-1188
h441z" />
    <glyph glyph-name="dcaron" unicode="&#x10f;" horiz-adv-x="1220" 
d="M1172 1434h147l-135 -471h-97zM842 516v918h121v-1433h-121v158q-97 -184 -326 -184q-122 0 -225 72.5t-163 197t-60 271.5q0 148 60 276.5t164 201.5t224 62q44 -4 86.5 -21.5t87 -58.5t77.5 -99.5t54 -151.5t21 -209q0 108 -26 192t-71.5 135.5t-103.5 77.5t-125 26
q-86 0 -159 -57t-115.5 -156.5t-42.5 -217.5t42.5 -217t115.5 -156t159 -57q141 0 233.5 109.5t92.5 320.5z" />
    <glyph glyph-name="Dslash" unicode="&#x110;" horiz-adv-x="1409" 
d="M744 1434q123 0 232.5 -52.5t190 -144.5t128 -227.5t47.5 -292.5q0 -196 -73 -358.5t-211 -260.5t-314 -98h-572v647h-119v124h119v663h572zM744 123q131 3 238.5 84t167.5 216t60 294q0 162 -59 298t-166.5 216t-240.5 80h-441v-540h441v-124h-441v-524h441z" />
    <glyph glyph-name="dmacron" unicode="&#x111;" horiz-adv-x="1077" 
d="M963 1327h129v-84h-129v-1242h-121v158q-97 -184 -326 -184q-122 0 -225 72.5t-163 197t-60 271.5q0 148 60 276.5t164 201.5t224 62q44 -4 86.5 -21.5t87 -58.5t77.5 -99.5t54 -151.5t21 -209q0 108 -26 192t-71.5 135.5t-103.5 77.5t-125 26q-86 0 -159 -57
t-115.5 -156.5t-42.5 -217.5t42.5 -217t115.5 -156t159 -57q141 0 233.5 109.5t92.5 320.5v727h-361v84h361v107h121v-107z" />
    <glyph glyph-name="Emacron" unicode="&#x112;" horiz-adv-x="1228" 
d="M968 1606h-611v83h611v-83zM1178 1310h-924v-534h847v-121h-847v-531h924v-124h-1055v1434h1055v-124z" />
    <glyph glyph-name="emacron" unicode="&#x113;" horiz-adv-x="1099" 
d="M1031 529v-33h-840q9 -190 109.5 -299t250.5 -111q118 2 207.5 71t127.5 195h126q-42 -179 -164.5 -276.5t-296.5 -99.5q-215 2 -348 147.5t-133 405.5q0 255 136 404.5t345 149.5t344.5 -149.5t135.5 -404.5zM196 608h709q-21 163 -119.5 262.5t-234.5 101.5
q-136 -2 -235 -101.5t-120 -262.5zM844 1251h-612v83h612v-83z" />
    <glyph glyph-name="Ebreve" unicode="&#x114;" horiz-adv-x="1228" 
d="M1178 1310h-924v-534h847v-121h-847v-531h924v-124h-1055v1434h1055v-124zM646 1552q-120 0 -208.5 79.5t-88.5 193.5h72q0 -70 63 -126t162 -56t165 56t66 126h71q0 -114 -91 -193.5t-211 -79.5z" />
    <glyph glyph-name="ebreve" unicode="&#x115;" horiz-adv-x="1099" 
d="M1031 529v-33h-840q9 -190 109.5 -299t250.5 -111q118 2 207.5 71t127.5 195h126q-42 -179 -164.5 -276.5t-296.5 -99.5q-215 2 -348 147.5t-133 405.5q0 255 136 404.5t345 149.5t344.5 -149.5t135.5 -404.5zM196 608h709q-21 163 -119.5 262.5t-234.5 101.5
q-136 -2 -235 -101.5t-120 -262.5zM545 1201q-120 0 -208.5 79.5t-88.5 193.5h73q0 -70 62.5 -126t161.5 -56t165.5 56t66.5 126h71q0 -114 -91.5 -193.5t-211.5 -79.5z" />
    <glyph glyph-name="Edot" unicode="&#x116;" horiz-adv-x="1228" 
d="M650 1604q-34 0 -57 19.5t-23 47.5t23 47.5t57 19.5t57.5 -19.5t23.5 -47.5t-23.5 -47.5t-57.5 -19.5zM1178 1310h-924v-534h847v-121h-847v-531h924v-124h-1055v1434h1055v-124z" />
    <glyph glyph-name="edot" unicode="&#x117;" horiz-adv-x="1099" 
d="M548 1248q-34 0 -57 19.5t-23 47.5t23 47.5t57 19.5t57.5 -19.5t23.5 -47.5t-23.5 -47.5t-57.5 -19.5zM1031 529v-33h-840q9 -190 109.5 -299t250.5 -111q118 2 207.5 71t127.5 195h126q-42 -179 -164.5 -276.5t-296.5 -99.5q-215 2 -348 147.5t-133 405.5
q0 255 136 404.5t345 149.5t344.5 -149.5t135.5 -404.5zM196 608h709q-21 163 -119.5 262.5t-234.5 101.5q-136 -2 -235 -101.5t-120 -262.5z" />
    <glyph glyph-name="Eogonek" unicode="&#x118;" horiz-adv-x="1228" 
d="M1178 1310h-924v-534h847v-121h-847v-531h924v-124q-52 -36 -99 -93t-52 -112q-5 -54 39.5 -83t111.5 -8v-87q-88 -31 -149 -14t-92.5 59t-28.5 94q2 40 18 79.5t37.5 68t42.5 51t36 33.5l14 12h-933v1434h1055v-124z" />
    <glyph glyph-name="eogonek" unicode="&#x119;" horiz-adv-x="1099" 
d="M1031 529v-33h-840q9 -190 109.5 -299t250.5 -111q118 2 207.5 71t127.5 195h126q-32 -140 -116 -231.5t-206 -125.5q-51 -38 -95 -93t-48 -107q-5 -54 40 -83t112 -8v-87q-88 -31 -149 -14t-92.5 59.5t-28.5 94.5q6 115 118 219q-213 3 -345 148.5t-132 404.5
q0 255 136 404.5t345 149.5t344.5 -149.5t135.5 -404.5zM196 608h709q-21 163 -119.5 262.5t-234.5 101.5q-136 -2 -235 -101.5t-120 -262.5z" />
    <glyph glyph-name="Ecaron" unicode="&#x11a;" horiz-adv-x="1228" 
d="M1178 1310h-924v-534h847v-121h-847v-531h924v-124h-1055v1434h1055v-124zM772 1544h-215l-213 281h128l193 -255l192 255h129z" />
    <glyph glyph-name="ecaron" unicode="&#x11b;" horiz-adv-x="1099" 
d="M661 1192h-215l-213 282h128l192 -255l193 255h129zM1031 529v-33h-840q9 -190 109.5 -299t250.5 -111q118 2 207.5 71t127.5 195h126q-42 -179 -164.5 -276.5t-296.5 -99.5q-215 2 -348 147.5t-133 405.5q0 255 136 404.5t345 149.5t344.5 -149.5t135.5 -404.5zM196 608
h709q-21 163 -119.5 262.5t-234.5 101.5q-136 -2 -235 -101.5t-120 -262.5z" />
    <glyph glyph-name="Gcircumflex" unicode="&#x11c;" horiz-adv-x="1437" 
d="M710 1798l-192 -254h-128l213 281h215l214 -281h-129zM1339 0h-118l1 634q0 -40 -2 -77.5t-13 -107t-30.5 -128t-58.5 -126t-92 -115t-137 -81.5t-187 -38q-120 -5 -223 32t-178 106.5t-128 165.5t-79 210.5t-26 240.5q0 209 78 381t223.5 274t330.5 102q117 0 215 -29
t167 -78t120.5 -116.5t80 -140.5t40.5 -154h-121l-9 -5q-38 183 -162 291.5t-326 108.5q-113 0 -208.5 -51.5t-160.5 -138t-101 -202t-36 -242.5q0 -129 32.5 -242.5t94 -201.5t159.5 -139t220 -51q220 0 357.5 154.5t159.5 408.5h-516v131h633v-776z" />
    <glyph glyph-name="gcircumflex" unicode="&#x11d;" horiz-adv-x="1081" 
d="M545 1447l-192 -255h-129l213 282h216l214 -282h-130zM1009 615q0 -46 -16 -100.5t-52.5 -113.5t-88.5 -106.5t-132 -78.5t-175 -31q-173 0 -288 75q-89 58 -140 152t-51 203q0 121 63 222.5t171.5 160.5t236.5 59q120 0 226 -54l150 150l75 -75l-134 -135
q73 -62 114 -147t41 -181zM537 294q154 0 247 90.5t93 229.5q0 133 -95 233t-245 100t-244.5 -100t-94.5 -233q0 -139 92.5 -229.5t246.5 -90.5zM545 185q98 0 173 -9t140.5 -30.5t102.5 -63t42 -101.5q7 -96 -55.5 -179t-171.5 -130.5t-236 -47.5q-126 0 -233 48t-169 130
t-62 179q0 10 2 28h124q-2 -14 -2 -22q0 -97 96 -176t244 -79q150 0 242.5 73.5t92.5 181.5q0 99 -91.5 148.5t-238.5 49.5z" />
    <glyph glyph-name="Gbreve" unicode="&#x11e;" horiz-adv-x="1437" 
d="M1339 0h-118l1 634q0 -40 -2 -77.5t-13 -107t-30.5 -128t-58.5 -126t-92 -115t-137 -81.5t-187 -38q-120 -5 -223 32t-178 106.5t-128 165.5t-79 210.5t-26 240.5q0 209 78 381t223.5 274t330.5 102q117 0 215 -29t167 -78t120.5 -116.5t80 -140.5t40.5 -154h-121l-9 -5
q-38 183 -162 291.5t-326 108.5q-113 0 -208.5 -51.5t-160.5 -138t-101 -202t-36 -242.5q0 -129 32.5 -242.5t94 -201.5t159.5 -139t220 -51q220 0 357.5 154.5t159.5 408.5h-516v131h633v-776zM706 1553q-120 0 -208.5 79.5t-88.5 193.5h72q0 -70 63 -126.5t162 -56.5
t165.5 56.5t66.5 126.5h70q0 -114 -91 -193.5t-211 -79.5z" />
    <glyph glyph-name="gbreve" unicode="&#x11f;" horiz-adv-x="1081" 
d="M545 185q98 0 173 -9t140.5 -30.5t102.5 -63t42 -101.5q7 -96 -55.5 -179t-171.5 -130.5t-236 -47.5q-126 0 -233 48t-169 130t-62 179q0 10 2 28h124q-2 -14 -2 -22q0 -97 96 -176t244 -79q150 0 242.5 73.5t92.5 181.5q0 99 -91.5 148.5t-238.5 49.5zM1009 615
q0 -46 -16 -100.5t-52.5 -113.5t-88.5 -106.5t-132 -78.5t-175 -31q-173 0 -288 75q-89 58 -140 152t-51 203q0 121 63 222.5t171.5 160.5t236.5 59q120 0 226 -54l150 150l75 -75l-134 -135q73 -62 114 -147t41 -181zM537 294q154 0 247 90.5t93 229.5q0 133 -95 233
t-245 100t-244.5 -100t-94.5 -233q0 -139 92.5 -229.5t246.5 -90.5zM535 1201q-120 0 -208.5 79.5t-88.5 193.5h73q0 -70 62.5 -126t161.5 -56t165.5 56t66.5 126h71q0 -114 -91.5 -193.5t-211.5 -79.5z" />
    <glyph glyph-name="Gdot" unicode="&#x120;" horiz-adv-x="1437" 
d="M1339 0h-118l1 634q0 -40 -2 -77.5t-13 -107t-30.5 -128t-58.5 -126t-92 -115t-137 -81.5t-187 -38q-120 -5 -223 32t-178 106.5t-128 165.5t-79 210.5t-26 240.5q0 209 78 381t223.5 274t330.5 102q117 0 215 -29t167 -78t120.5 -116.5t80 -140.5t40.5 -154h-121l-9 -5
q-38 183 -162 291.5t-326 108.5q-113 0 -208.5 -51.5t-160.5 -138t-101 -202t-36 -242.5q0 -129 32.5 -242.5t94 -201.5t159.5 -139t220 -51q220 0 357.5 154.5t159.5 408.5h-516v131h633v-776zM704 1605q-38 1 -59.5 21.5t-21.5 45.5t21 45.5t59 21.5q38 -1 59.5 -21.5
t21.5 -45.5t-21 -45.5t-59 -21.5z" />
    <glyph glyph-name="gdot" unicode="&#x121;" horiz-adv-x="1081" 
d="M530 1248q-34 0 -57.5 19.5t-23.5 47.5t23.5 47.5t57.5 19.5t57 -19.5t23 -47.5t-23 -47.5t-57 -19.5zM545 185q98 0 173 -9t140.5 -30.5t102.5 -63t42 -101.5q7 -96 -55.5 -179t-171.5 -130.5t-236 -47.5q-126 0 -233 48t-169 130t-62 179q0 10 2 28h124q-2 -14 -2 -22
q0 -97 96 -176t244 -79q150 0 242.5 73.5t92.5 181.5q0 99 -91.5 148.5t-238.5 49.5zM1009 615q0 -46 -16 -100.5t-52.5 -113.5t-88.5 -106.5t-132 -78.5t-175 -31q-173 0 -288 75q-89 58 -140 152t-51 203q0 121 63 222.5t171.5 160.5t236.5 59q120 0 226 -54l150 150
l75 -75l-134 -135q73 -62 114 -147t41 -181zM537 294q154 0 247 90.5t93 229.5q0 133 -95 233t-245 100t-244.5 -100t-94.5 -233q0 -139 92.5 -229.5t246.5 -90.5z" />
    <glyph glyph-name="Gcedilla" unicode="&#x122;" horiz-adv-x="1437" 
d="M616 -434l54 346h121l-80 -346h-95zM1339 0h-118l1 634q0 -40 -2 -77.5t-13 -107t-30.5 -128t-58.5 -126t-92 -115t-137 -81.5t-187 -38q-120 -5 -223 32t-178 106.5t-128 165.5t-79 210.5t-26 240.5q0 209 78 381t223.5 274t330.5 102q117 0 215 -29t167 -78
t120.5 -116.5t80 -140.5t40.5 -154h-121l-9 -5q-38 183 -162 291.5t-326 108.5q-113 0 -208.5 -51.5t-160.5 -138t-101 -202t-36 -242.5q0 -129 32.5 -242.5t94 -201.5t159.5 -139t220 -51q220 0 357.5 154.5t159.5 408.5h-516v131h633v-776z" />
    <glyph glyph-name="gcedilla" unicode="&#x123;" horiz-adv-x="1081" 
d="M710 1474l-259 -281h-96l178 281h177zM1009 615q0 -46 -16 -100.5t-52.5 -113.5t-88.5 -106.5t-132 -78.5t-175 -31q-173 0 -288 75q-89 58 -140 152t-51 203q0 121 63 222.5t171.5 160.5t236.5 59q120 0 226 -54l150 150l75 -75l-134 -135q73 -62 114 -147t41 -181z
M537 294q154 0 247 90.5t93 229.5q0 133 -95 233t-245 100t-244.5 -100t-94.5 -233q0 -139 92.5 -229.5t246.5 -90.5zM545 185q98 0 173 -9t140.5 -30.5t102.5 -63t42 -101.5q7 -96 -55.5 -179t-171.5 -130.5t-236 -47.5q-126 0 -233 48t-169 130t-62 179q0 10 2 28h124
q-2 -14 -2 -22q0 -97 96 -176t244 -79q150 0 242.5 73.5t92.5 181.5q0 99 -91.5 148.5t-238.5 49.5z" />
    <glyph glyph-name="Hcircumflex" unicode="&#x124;" horiz-adv-x="1376" 
d="M689 1798l-192 -254h-128l213 281h215l214 -281h-129zM1119 1433h133v-1433h-133v1039q0 -62 -7 -110t-28 -95t-55.5 -78t-92.5 -50t-137 -19h-248q-115 0 -206 -71.5t-91 -162.5v-453h-131v1433h131v-966q0 75 13.5 132t47 106.5t99.5 76t163 26.5h247q115 0 205 72
t90 163v390z" />
    <glyph glyph-name="hcircumflex" unicode="&#x125;" horiz-adv-x="1071" 
d="M113 1433h121v-1433h-121v1433zM541 1080q79 8 155.5 -15t137.5 -71.5t98 -128t37 -176.5v-689h-121v689q0 110 -84.5 195t-222.5 85q-132 0 -219.5 -86t-87.5 -194q0 153 83 265.5t224 125.5zM370 1508l-193 254l-192 -254h-128l213 281h215l214 -281h-129z" />
    <glyph glyph-name="Hbar" unicode="&#x126;" horiz-adv-x="1447" 
d="M1288 1121h99v-83h-99v-1038h-134v1038q0 -62 -7 -110t-28 -95t-55.5 -77.5t-92.5 -49.5t-137 -19h-247q-115 0 -206 -71.5t-91 -162.5v-453h-132v1038h-101v83h101v312h132v-312h864v312h134v-312zM859 808q113 0 202.5 70t92.5 160h-864v-571q0 76 13 132t46.5 106
t99.5 76.5t163 26.5h247z" />
    <glyph glyph-name="hbar" unicode="&#x127;" horiz-adv-x="1069" 
d="M540 1080q79 8 155.5 -15t137.5 -71.5t98.5 -128t37.5 -176.5v-689h-122v689q0 110 -84.5 195t-222.5 85q-132 0 -219.5 -86t-87.5 -194q0 153 83 265.5t224 125.5zM597 1203h-364v-1203h-121v1203h-126v84h126v146h121v-146h364v-84z" />
    <glyph glyph-name="Itilde" unicode="&#x128;" horiz-adv-x="378" 
d="M447 1779h67q-5 -47 -25.5 -84t-48.5 -58t-61 -34.5t-64 -12t-57 8.5l-184 67q-18 5 -34 5q-40 0 -72.5 -25.5t-37.5 -69.5h-67q5 46 25.5 83.5t48.5 58t61 34t64 12t57 -8.5l184 -66q18 -5 34 -5q40 0 72.5 25.5t37.5 69.5zM253 0h-131v1433h131v-1433z" />
    <glyph glyph-name="itilde" unicode="&#x129;" horiz-adv-x="348" 
d="M234 0h-121v1057h121v-1057zM429 1416h67q-5 -46 -25.5 -83.5t-48.5 -58t-61.5 -34t-64.5 -12t-57 8.5l-184 67q-18 5 -34 5q-40 0 -72 -25.5t-37 -69.5h-68q5 46 25.5 83.5t48.5 58t61.5 34t64.5 12t57 -8.5l184 -67q15 -4 34 -4q40 0 72.5 25t37.5 69z" />
    <glyph glyph-name="Imacron" unicode="&#x12a;" horiz-adv-x="376" 
d="M495 1605h-612v83h612v-83zM254 0h-131v1433h131v-1433z" />
    <glyph glyph-name="imacron" unicode="&#x12b;" horiz-adv-x="346" 
d="M233 0h-121v1057h121v-1057zM480 1252h-611v83h611v-83z" />
    <glyph glyph-name="Ibreve" unicode="&#x12c;" horiz-adv-x="376" 
d="M254 0h-131v1433h131v-1433zM416 1826h71q0 -114 -91.5 -193.5t-211.5 -79.5t-208.5 79.5t-88.5 193.5h73q0 -70 62.5 -126.5t161.5 -56.5t165.5 56.5t66.5 126.5z" />
    <glyph glyph-name="ibreve" unicode="&#x12d;" horiz-adv-x="346" 
d="M233 0h-121v1057h121v-1057zM402 1473h71q0 -114 -91.5 -193.5t-211.5 -79.5t-208.5 79.5t-88.5 193.5h73q0 -70 62.5 -126.5t161.5 -56.5t165.5 56.5t66.5 126.5z" />
    <glyph glyph-name="Iogonek" unicode="&#x12e;" horiz-adv-x="376" 
d="M254 0q-51 -36 -98.5 -93.5t-52.5 -112.5q-5 -54 39.5 -83t111.5 -8v-87q-88 -31 -149 -14t-92.5 59t-28.5 94q2 40 18 79.5t37.5 68t42.5 51.5t36 34l14 12h-9v1433h131v-1433z" />
    <glyph glyph-name="iogonek" unicode="&#x12f;" horiz-adv-x="346" 
d="M169 1249q-34 0 -57.5 20t-23.5 48t23.5 47.5t57.5 19.5t57 -19.5t23 -47.5t-23.5 -48t-56.5 -20zM233 0q-51 -36 -98.5 -93.5t-52.5 -112.5q-5 -54 39.5 -82.5t111.5 -7.5v-87q-88 -31 -149 -14t-92.5 59t-28.5 94q2 40 18 79.5t37.5 68t43 51t36.5 33.5l14 12v1056h121
v-1056z" />
    <glyph glyph-name="Idot" unicode="&#x130;" horiz-adv-x="376" 
d="M188 1604q-50 1 -70.5 34t0 66t70.5 34q50 -1 70.5 -34t0 -66t-70.5 -34zM254 0h-131v1433h131v-1433z" />
    <glyph glyph-name="dotlessi" unicode="&#x131;" horiz-adv-x="348" 
d="M234 0h-121v1056h121v-1056z" />
    <glyph glyph-name="Jcircumflex" unicode="&#x134;" horiz-adv-x="960" 
d="M896 1826l214 -281h-130l-192 254l-192 -254h-129l213 281h216zM716 366v1067h131v-1061q0 -168 -119.5 -290t-291.5 -122q-170 0 -290.5 121t-120.5 291v89h131v-84q0 -118 82.5 -207t197.5 -89q112 0 193.5 85.5t86.5 199.5z" />
    <glyph glyph-name="jcircumflex" unicode="&#x135;" horiz-adv-x="346" 
d="M281 1473l214 -282h-129l-193 255l-192 -255h-128l213 282h215zM112 516v541h121v-924q0 -129 -17.5 -221.5t-47 -148t-78 -87.5t-99.5 -42.5t-123 -10.5v110q139 0 191.5 90.5t52.5 309.5v383z" />
    <glyph glyph-name="Kcedilla" unicode="&#x136;" horiz-adv-x="1302" 
d="M549 -434l53 346h122l-81 -346h-94zM346 593q-2 -2 -5.5 -5t-4.5 -4q1 2 4.5 5t5.5 4zM842 619l453 -619h-162l-397 545q-69 95 -185.5 109t-204.5 -61q17 15 37.5 30.5t57 38t72.5 37.5t81 23.5t86 3t84 -32t78 -74.5zM1050 1433h175l-892 -852l-79 -75v-506h-131v1433
h131v-759zM336 584l-3 -3z" />
    <glyph glyph-name="kcedilla" unicode="&#x137;" horiz-adv-x="1013" 
d="M431 -434l53 347h121l-80 -347h-94zM626 469l376 -469h-156q-142 178 -304 380q-41 52 -88 75t-84.5 18.5t-69 -16t-48.5 -25.5l-18 -14q10 9 27.5 23.5t68.5 44.5t97 43.5t102.5 1.5t96.5 -62zM772 1057h159l-697 -639v-418h-121v1434h121v-871z" />
    <glyph glyph-name="Lacute" unicode="&#x139;" horiz-adv-x="1036" 
d="M475 1824l-259 -281h-95l177 281h177zM253 123h783v-123h-914v1433h131v-1310z" />
    <glyph glyph-name="lacute" unicode="&#x13a;" horiz-adv-x="346" 
d="M186 1815h176l-258 -281h-96zM233 0h-121v1433h121v-1433z" />
    <glyph glyph-name="Lcedilla" unicode="&#x13b;" horiz-adv-x="1038" 
d="M513 -434l54 347h121l-80 -347h-95zM254 123h783v-123h-914v1433h131v-1310z" />
    <glyph glyph-name="lcedilla" unicode="&#x13c;" horiz-adv-x="346" 
d="M144 -86h121l-80 -347h-95zM233 0h-121v1433h121v-1433z" />
    <glyph glyph-name="Lcaron" unicode="&#x13d;" horiz-adv-x="1069" 
d="M254 123h783v-123h-914v1433h131v-1310zM1010 1433l-135 -471h-96l85 471h146z" />
    <glyph glyph-name="lcaron" unicode="&#x13e;" horiz-adv-x="544" 
d="M496 1433h147l-135 -471h-96zM234 0h-121v1433h121v-1433z" />
    <glyph glyph-name="Ldot" unicode="&#x13f;" horiz-adv-x="1038" 
d="M647 627q-50 1 -70.5 34t0 66t70.5 34q50 -1 70.5 -34t0 -66t-70.5 -34zM254 123h783v-123h-914v1433h131v-1310z" />
    <glyph glyph-name="ldot" unicode="&#x140;" horiz-adv-x="579" 
d="M481 922q-34 0 -57 19.5t-23 47.5t23.5 48t56.5 20q34 0 57.5 -20t23.5 -48t-23.5 -47.5t-57.5 -19.5zM234 0h-121v1433h121v-1433z" />
    <glyph glyph-name="Lslash" unicode="&#x141;" horiz-adv-x="1171" 
d="M384 123h783v-123h-914v638l-205 -91l-34 76l239 106v704h131v-646l536 237l34 -76l-570 -252v-573z" />
    <glyph glyph-name="lslash" unicode="&#x142;" horiz-adv-x="800" 
d="M753 1043l34 -76l-392 -174v-793h-121v740l-222 -99l-34 76l256 113v603h121v-549z" />
    <glyph glyph-name="Nacute" unicode="&#x143;" horiz-adv-x="1376" 
d="M871 1824l-259 -281h-95l177 281h177zM1121 1433h131v-1433h-161l-837 1261v-1261h-131v1433h161l837 -1261v1261z" />
    <glyph glyph-name="nacute" unicode="&#x144;" horiz-adv-x="1071" 
d="M541 1080q63 6 125.5 -7.5t117 -46t96.5 -78.5t66 -110t24 -136v-702h-122v690q0 110 -84.5 194.5t-222.5 84.5q-132 0 -219.5 -85.5t-87.5 -193.5q0 157 87.5 267.5t219.5 122.5zM113 1057h121v-1057h-121v1057zM729 1473l-259 -281h-96l178 281h177z" />
    <glyph glyph-name="Ncedilla" unicode="&#x145;" horiz-adv-x="1376" 
d="M634 -434l53 346h122l-80 -346h-95zM1121 1433h131v-1433h-161l-837 1261v-1261h-131v1433h161l837 -1261v1261z" />
    <glyph glyph-name="ncedilla" unicode="&#x146;" horiz-adv-x="1071" 
d="M541 1080q63 6 125.5 -7.5t117 -46t96.5 -78.5t66 -110t24 -136v-702h-122v690q0 110 -84.5 194.5t-222.5 84.5q-132 0 -219.5 -85.5t-87.5 -193.5q0 157 87.5 267.5t219.5 122.5zM113 1057h121v-1057h-121v1057zM443 -434l53 346h122l-81 -346h-94z" />
    <glyph glyph-name="Ncaron" unicode="&#x147;" horiz-adv-x="1376" 
d="M782 1545h-215l-213 281h128l192 -254l193 254h129zM1121 1433h131v-1433h-161l-837 1261v-1261h-131v1433h161l837 -1261v1261z" />
    <glyph glyph-name="ncaron" unicode="&#x148;" horiz-adv-x="1071" 
d="M113 1057h121v-1057h-121v1057zM541 1080q63 6 125.5 -7.5t117 -46t96.5 -78.5t66 -110t24 -136v-702h-122v690q0 110 -84.5 194.5t-222.5 84.5q-132 0 -219.5 -85.5t-87.5 -193.5q0 157 87.5 267.5t219.5 122.5zM671 1191h-215l-213 282h128l192 -255l193 255h129z" />
    <glyph glyph-name="Eng" unicode="&#x14a;" horiz-adv-x="1376" 
d="M1121 1433h131v-1300q0 -83 -5 -133q-10 -117 -39.5 -194t-79 -115.5t-105.5 -53t-136 -14.5v110q116 0 170.5 62.5t68.5 204.5h-35l-837 1261v-1261h-131v1433h161l837 -1261v1261z" />
    <glyph glyph-name="eng" unicode="&#x14b;" horiz-adv-x="1071" 
d="M113 1059h121v-1057h-121v1057zM849 980q120 -108 120 -277v-616q-1 -58 -4 -85v-1q-8 -95 -30 -163t-52 -109.5t-75.5 -65.5t-92.5 -32t-110 -8v110q131 0 184.5 80.5t58.5 272.5v605q0 110 -84.5 194.5t-222.5 84.5q-125 0 -211.5 -78.5t-95.5 -181.5v-6v-12v6
q1 142 76 246t190 131q37 6 41 6q84 8 165.5 -19t142.5 -82z" />
    <glyph glyph-name="Omacron" unicode="&#x14c;" horiz-adv-x="1525" 
d="M756 1473q153 0 286 -59.5t224.5 -161.5t143.5 -241t52 -294t-52 -294t-143.5 -241t-224.5 -161.5t-286 -59.5q-204 0 -363.5 102t-244.5 273.5t-85 380.5t85 380.5t244.5 273.5t363.5 102zM756 82q130 0 239.5 51t182.5 138t113 202t40 244t-40 244t-113 202t-182.5 138
t-239.5 51t-237.5 -51t-177.5 -138t-108 -202t-38 -244t38 -244t108 -202t177.5 -138t237.5 -51zM1055 1603h-611v83h611v-83z" />
    <glyph glyph-name="omacron" unicode="&#x14d;" horiz-adv-x="1101" 
d="M551 1083q209 0 344.5 -149t135.5 -404q0 -260 -133 -406t-347 -148q-214 2 -347.5 148t-133.5 406q0 128 37 233t101.5 174.5t152.5 107.5t190 38zM551 86q157 2 258 120t101 324q0 195 -103 318t-256 125q-153 -2 -256.5 -125t-103.5 -318q0 -205 101.5 -323.5
t258.5 -120.5zM841 1255h-612v84h612v-84z" />
    <glyph glyph-name="Obreve" unicode="&#x14e;" horiz-adv-x="1525" 
d="M756 1473q153 0 286 -59.5t224.5 -161.5t143.5 -241t52 -294t-52 -294t-143.5 -241t-224.5 -161.5t-286 -59.5q-204 0 -363.5 102t-244.5 273.5t-85 380.5t85 380.5t244.5 273.5t363.5 102zM756 82q130 0 239.5 51t182.5 138t113 202t40 244t-40 244t-113 202t-182.5 138
t-239.5 51t-237.5 -51t-177.5 -138t-108 -202t-38 -244t38 -244t108 -202t177.5 -138t237.5 -51zM764 1550q-120 0 -208.5 79.5t-88.5 194.5h73q0 -70 62.5 -126.5t161.5 -56.5t165.5 56.5t66.5 126.5h71q0 -114 -91.5 -194t-211.5 -80z" />
    <glyph glyph-name="obreve" unicode="&#x14f;" horiz-adv-x="1101" 
d="M551 1083q209 0 344.5 -149t135.5 -404q0 -260 -133 -406t-347 -148q-214 2 -347.5 148t-133.5 406q0 128 37 233t101.5 174.5t152.5 107.5t190 38zM551 86q157 2 258 120t101 324q0 195 -103 318t-256 125q-153 -2 -256.5 -125t-103.5 -318q0 -205 101.5 -323.5
t258.5 -120.5zM540 1202q-120 0 -208.5 79.5t-88.5 193.5h73q0 -70 62.5 -126.5t161.5 -56.5t165.5 56.5t66.5 126.5h71q0 -114 -91.5 -193.5t-211.5 -79.5z" />
    <glyph glyph-name="Ohungarumlaut" unicode="&#x150;" horiz-adv-x="1525" 
d="M756 1473q153 0 286 -59.5t224.5 -161.5t143.5 -241t52 -294t-52 -294t-143.5 -241t-224.5 -161.5t-286 -59.5q-204 0 -363.5 102t-244.5 273.5t-85 380.5t85 380.5t244.5 273.5t363.5 102zM756 82q130 0 239.5 51t182.5 138t113 202t40 244t-40 244t-113 202t-182.5 138
t-239.5 51t-237.5 -51t-177.5 -138t-108 -202t-38 -244t38 -244t108 -202t177.5 -138t237.5 -51zM921 1869l-259 -281h-95l177 281h177zM959 1588h-96l178 281h176z" />
    <glyph glyph-name="ohungarumlaut" unicode="&#x151;" horiz-adv-x="1101" 
d="M551 1083q209 0 344.5 -149t135.5 -404q0 -260 -133 -406t-347 -148q-214 2 -347.5 148t-133.5 406q0 128 37 233t101.5 174.5t152.5 107.5t190 38zM551 86q157 2 258 120t101 324q0 195 -103 318t-256 125q-153 -2 -256.5 -125t-103.5 -318q0 -205 101.5 -323.5
t258.5 -120.5zM708 1475l-259 -281h-95l177 281h177zM747 1194h-95l177 281h177z" />
    <glyph glyph-name="OE" unicode="&#x152;" horiz-adv-x="2435" 
d="M2386 1310h-924v-534h847v-121h-847v-531h924v-124h-1055v266q-95 -142 -244 -223.5t-331 -81.5q-204 0 -363.5 102t-244.5 273.5t-85 380.5t85 380.5t244.5 273.5t363.5 102q182 0 331 -81.5t244 -223.5v266h1055v-124zM756 82q130 0 239.5 51t182.5 138t113 202t40 244
t-40 244t-113 202t-182.5 138t-239.5 51t-237.5 -51t-177.5 -138t-108 -202t-38 -244t38 -244t108 -202t177.5 -138t237.5 -51z" />
    <glyph glyph-name="oe" unicode="&#x153;" horiz-adv-x="1943" 
d="M1396 84q234 0 330 268h132q-31 -164 -154.5 -270.5t-307.5 -106.5q-145 0 -255.5 67t-169.5 191q-59 -122 -168 -189.5t-252 -68.5q-214 2 -347.5 148t-133.5 406q0 258 135.5 406t345.5 148q148 0 256 -71.5t166 -195.5q60 122 168.5 194t242.5 73q61 1 116.5 -10.5
t112.5 -36.5t103 -70.5t82.5 -108.5t56.5 -155.5t20 -206.5h-823q0 -181 93.5 -296t250.5 -115zM551 86q173 2 266 122t93 321q0 195 -103 318t-256 125q-153 -2 -256.5 -125t-103.5 -318q0 -201 93.5 -321t266.5 -122zM1387 972q-84 0 -162 -52t-125.5 -136.5t-47.5 -175.5
h688q0 162 -103 263t-250 101z" />
    <glyph glyph-name="Racute" unicode="&#x154;" horiz-adv-x="1298" 
d="M797 1872l-259 -281h-95l177 281h177zM828 607l425 -606h-161l-424 606l-415 1v-607h-130v1433h698q170 0 286 -119t116 -285q0 -182 -104 -301t-291 -122zM253 729l568 -1q73 0 127 24t84 66t44.5 91.5t14.5 107.5q0 75 -25 133.5t-65.5 92t-86.5 50.5t-93 17l-568 1
v-582z" />
    <glyph glyph-name="racute" unicode="&#x155;" horiz-adv-x="661" 
d="M577 1473l-259 -281h-95l177 281h177zM503 1081q72 0 141 -25v-110q-49 25 -141 25q-114 0 -191.5 -87.5t-77.5 -187.5q0 94 23.5 170t62.5 121.5t86 69.5t97 24zM113 1056h121v-1057h-121v1057z" />
    <glyph glyph-name="Rcedilla" unicode="&#x156;" horiz-adv-x="1298" 
d="M576 -432l53 346h121l-80 -346h-94zM828 607l425 -606h-161l-424 606l-415 1v-607h-130v1433h698q170 0 286 -119t116 -285q0 -182 -104 -301t-291 -122zM253 729l568 -1q73 0 127 24t84 66t44.5 91.5t14.5 107.5q0 75 -25 133.5t-65.5 92t-86.5 50.5t-93 17l-568 1v-582
z" />
    <glyph glyph-name="rcedilla" unicode="&#x157;" horiz-adv-x="659" 
d="M92 -434l54 346h121l-80 -346h-95zM502 1081q72 0 141 -25v-110q-49 25 -141 25q-114 0 -191.5 -87.5t-77.5 -187.5q0 94 23.5 170t62.5 121.5t86 69.5t97 24zM112 1056h121v-1057h-121v1057z" />
    <glyph glyph-name="Rcaron" unicode="&#x158;" horiz-adv-x="1298" 
d="M731 1545h-216l-213 281h129l192 -255l192 255h130zM828 607l425 -606h-161l-424 606l-415 1v-607h-130v1433h698q170 0 286 -119t116 -285q0 -182 -104 -301t-291 -122zM253 729l568 -1q73 0 127 24t84 66t44.5 91.5t14.5 107.5q0 75 -25 133.5t-65.5 92t-86.5 50.5
t-93 17l-568 1v-582z" />
    <glyph glyph-name="rcaron" unicode="&#x159;" horiz-adv-x="659" 
d="M474 1191h-216l-213 282h129l192 -255l192 255h130zM234 696q0 94 23.5 170t63 121.5t86.5 69.5t97 24q71 0 140 -25v-110q-48 25 -140 25q-114 0 -192 -87.5t-78 -187.5zM113 1056h121v-1057h-121v1057z" />
    <glyph glyph-name="Sacute" unicode="&#x15a;" horiz-adv-x="1241" 
d="M800 1871l-258 -281h-96l178 281h176zM849 748q325 -79 325 -362q0 -116 -74 -215t-202.5 -156t-280.5 -54q-108 2 -200.5 32.5t-157.5 80t-110.5 114t-67.5 134.5t-22 141h133q0 -46 16 -96t51 -99.5t83 -89t118.5 -65.5t152.5 -29q108 -4 208 37.5t160.5 113
t60.5 151.5q0 87 -62.5 149t-169.5 88l-397 95q-298 71 -305 343q0 112 68.5 207t186.5 150.5t257 55.5q123 0 223 -39.5t161.5 -105.5t94.5 -147t33 -168h-131q0 56 -25.5 114t-71.5 108.5t-120.5 83t-163.5 32.5q-167 0 -274 -87.5t-107 -201.5q0 -75 60.5 -134.5
t156.5 -84.5z" />
    <glyph glyph-name="sacute" unicode="&#x15b;" horiz-adv-x="1001" 
d="M678 1475l-258 -282h-96l177 282h177zM660 561q112 -31 160 -59q113 -66 113 -193q0 -73 -26.5 -132t-69 -96t-99 -62t-114.5 -34.5t-118 -8.5q-207 5 -331.5 116t-98.5 251q11 53 54 89t104 51t134.5 13.5t146.5 -21.5l-162 43q-135 36 -196 98t-61 158
q0 128 117.5 218.5t283.5 90.5q92 0 172.5 -29t132.5 -75t78.5 -105t17.5 -117h-121q-1 98 -79 157t-192 59q-117 0 -203 -49.5t-86 -134.5q0 -53 40 -91t103 -56zM506 87q128 -4 217.5 53.5t89.5 151.5q0 100 -170 149l-17 5q-18 4 -50.5 13t-60.5 16q-70 15 -135.5 10
t-118 -42.5t-64.5 -99.5q-19 -98 71.5 -175t237.5 -81z" />
    <glyph glyph-name="Scircumflex" unicode="&#x15c;" horiz-adv-x="1241" 
d="M621 1845l-190 -256l-128 -2l210 284l88 1h40l88 1l216 -279l-129 -2zM849 748q325 -79 325 -362q0 -116 -74 -215t-202.5 -156t-280.5 -54q-108 2 -200.5 32.5t-157.5 80t-110.5 114t-67.5 134.5t-22 141h133q0 -46 16 -96t51 -99.5t83 -89t118.5 -65.5t152.5 -29
q108 -4 208 37.5t160.5 113t60.5 151.5q0 87 -62.5 149t-169.5 88l-396 95q-299 72 -306 343q0 112 68.5 207t186.5 150.5t257 55.5q123 0 223 -39.5t161.5 -105.5t94.5 -147t33 -168h-131q0 56 -25.5 114t-71.5 108.5t-120.5 83t-163.5 32.5q-167 0 -274 -87.5t-107 -201.5
q0 -75 60.5 -134.5t156.5 -84.5z" />
    <glyph glyph-name="scircumflex" unicode="&#x15d;" horiz-adv-x="1001" 
d="M499 1448l-192 -255h-129l213 282h216l214 -282h-130zM660 561q112 -31 160 -59q113 -66 113 -193q0 -73 -26.5 -132t-69 -96t-99 -62t-114.5 -34.5t-118 -8.5q-207 5 -331.5 116t-98.5 251q11 53 54 89t104 51t134.5 13.5t146.5 -21.5l-162 43q-135 36 -196 98t-61 158
q0 128 117.5 218.5t283.5 90.5q92 0 172.5 -29t132.5 -75t78.5 -105t17.5 -117h-121q-1 98 -79 157t-192 59q-117 0 -203 -49.5t-86 -134.5q0 -53 40 -91t103 -56zM506 87q128 -4 217.5 53.5t89.5 151.5q0 100 -170 149l-17 5q-18 4 -50.5 13t-60.5 16q-70 15 -135.5 10
t-118 -42.5t-64.5 -99.5q-19 -98 71.5 -175t237.5 -81z" />
    <glyph glyph-name="Scedilla" unicode="&#x15e;" horiz-adv-x="1241" 
d="M617 -39q-1 0 -5 0.5t-5 0.5l-27 -45l21 -3q70 -11 116 -56.5t46 -104.5q0 -67 -59.5 -115t-142.5 -48q-67 0 -122 33v77q55 -29 122 -29q41 0 69.5 24t28.5 58q0 40 -30 64t-68 24h-82v63l41 66q-111 17 -201 66.5t-145.5 118t-85 147.5t-29.5 161h133q0 -46 16 -96
t51 -99.5t83 -89t118.5 -65.5t152.5 -29q108 -4 208 37.5t160.5 113t60.5 151.5q0 87 -62.5 149t-169.5 88l-397 95q-298 71 -305 343q0 112 68.5 207t186.5 150.5t257 55.5q123 0 223 -39.5t161.5 -105.5t94.5 -147t33 -168h-131q0 56 -25.5 114t-71.5 108.5t-120.5 83
t-163.5 32.5q-167 0 -274 -87.5t-107 -201.5q0 -75 60.5 -134.5t156.5 -84.5l393 -96q325 -79 325 -362q0 -116 -74 -215t-202.5 -156t-280.5 -54z" />
    <glyph glyph-name="scedilla" unicode="&#x15f;" horiz-adv-x="1001" 
d="M515 475zM933 309q0 -90 -39 -158t-103 -105t-135.5 -54.5t-147.5 -15.5l-36 -58l22 -3q70 -11 116 -56.5t46 -104.5q0 -67 -59.5 -115t-142.5 -48q-70 0 -122 33v76q55 -29 122 -29q41 0 69.5 24.5t28.5 58.5q0 40 -30 64t-68 24h-82v63l49 79q-173 27 -271 130.5
t-74 228.5q11 53 54 89t104 51t134.5 13.5t146.5 -21.5q-70 15 -135.5 10t-118 -42.5t-64.5 -99.5q-19 -98 71.5 -175t237.5 -81q128 -4 217.5 53.5t89.5 151.5q0 100 -170 149l-17 5q-18 4 -50.5 13t-60.5 16l-162 43q-135 36 -196 98t-61 158q0 128 117.5 218.5
t283.5 90.5q92 0 172.5 -29t132.5 -75t78.5 -105t17.5 -117h-121q-1 98 -79 157t-192 59q-117 0 -203 -49.5t-86 -134.5q0 -53 40 -91t103 -56l300 -81q112 -31 160 -59q113 -66 113 -193z" />
    <glyph glyph-name="Scaron" unicode="&#x160;" horiz-adv-x="1241" 
d="M729 1544h-216l-213 282h129l192 -255l192 255h129zM849 748q325 -79 325 -362q0 -116 -74 -215t-202.5 -156t-280.5 -54q-108 2 -200.5 32.5t-157.5 80t-110.5 114t-67.5 134.5t-22 141h133q0 -46 16 -96t51 -99.5t83 -89t118.5 -65.5t152.5 -29q108 -4 208 37.5
t160.5 113t60.5 151.5q0 87 -62.5 149t-169.5 88l-397 95q-298 71 -305 343q0 112 68.5 207t186.5 150.5t257 55.5q123 0 223 -39.5t161.5 -105.5t94.5 -147t33 -168h-131q0 56 -25.5 114t-71.5 108.5t-120.5 83t-163.5 32.5q-167 0 -274 -87.5t-107 -201.5
q0 -75 60.5 -134.5t156.5 -84.5z" />
    <glyph glyph-name="scaron" unicode="&#x161;" horiz-adv-x="1001" 
d="M606 1193h-216l-213 282h129l192 -255l192 255h130zM660 561q112 -31 160 -59q113 -66 113 -193q0 -73 -26.5 -132t-69 -96t-99 -62t-114.5 -34.5t-118 -8.5q-207 5 -331.5 116t-98.5 251q11 53 54 89t104 51t134.5 13.5t146.5 -21.5l-162 43q-135 36 -196 98t-61 158
q0 128 117.5 218.5t283.5 90.5q92 0 172.5 -29t132.5 -75t78.5 -105t17.5 -117h-121q-1 98 -79 157t-192 59q-117 0 -203 -49.5t-86 -134.5q0 -53 40 -91t103 -56zM506 87q128 -4 217.5 53.5t89.5 151.5q0 100 -170 149l-17 5q-18 4 -50.5 13t-60.5 16q-70 15 -135.5 10
t-118 -42.5t-64.5 -99.5q-19 -98 71.5 -175t237.5 -81z" />
    <glyph glyph-name="Tcedilla" unicode="&#x162;" horiz-adv-x="1165" 
d="M0 1310v124h1163v-124h-338q-7 0 -19 -1t-43 -11.5t-54.5 -28.5t-43 -57t-19.5 -92v-1119l-51 -84l21 -3q70 -11 116 -56.5t46 -104.5q0 -67 -59.5 -115t-142.5 -48q-67 0 -122 33v76q55 -29 122 -29q41 0 69.5 24.5t28.5 58.5q0 40 -30 64t-68 24h-82v63l61 97h-40v1119
q0 53 25 92t61.5 57t72.5 28.5t61 11.5l25 1h-760z" />
    <glyph glyph-name="tcedilla" unicode="&#x163;" horiz-adv-x="595" 
d="M554 1059v-111h-471q22 -1 44.5 -3.5t54.5 -8.5t59 -18.5t51 -30.5t38 -47t14 -65v-501q0 -64 38.5 -106.5t100.5 -42.5h71v-123h-71q-35 0 -68 9l-57 -93l21 -3q71 -11 117 -57t46 -104q0 -67 -59.5 -115t-142.5 -48q-67 0 -122 33v76q55 -29 122 -29q40 0 68.5 24
t28.5 59q0 40 -29.5 64t-67.5 24h-83v63l87 137q-55 35 -88 92.5t-33 126.5v523q0 34 -9 61t-24 43.5t-32.5 29t-35.5 18t-33 8.5t-24 4h-9h-40v111h207v376h121v-376h210z" />
    <glyph glyph-name="Tcaron" unicode="&#x164;" horiz-adv-x="1165" 
d="M0 1434h1163v-124h-338q-7 0 -19 -1t-43 -11.5t-54.5 -28.5t-43 -57t-19.5 -92v-1119h-131v1119q0 53 25 92t61.5 57t72.5 28.5t61 11.5l25 1h-760v124zM681 1544h-216l-213 282h129l192 -255l192 255h130z" />
    <glyph glyph-name="tcaron" unicode="&#x165;" horiz-adv-x="823" 
d="M344 1433v-376h210v-111h-471q22 -1 44.5 -3.5t54.5 -8.5t59 -18.5t51 -30.5t38 -47t14 -65v-501q0 -64 38.5 -106.5t100.5 -42.5h71v-123h-71q-106 0 -183 74.5t-77 184.5v523q0 34 -9 61t-24 43.5t-32.5 29t-35.5 18t-33 8.5t-24 4h-9h-40v111h207v376h121zM773 1433
h147l-135 -471h-96z" />
    <glyph glyph-name="Tbar" unicode="&#x166;" horiz-adv-x="1198" 
d="M842 1310q-7 0 -19.5 -1t-43.5 -11.5t-54.5 -28.5t-43 -57t-19.5 -92v-279h407v-83h-407v-757h-131v757h-404v83h404v279q0 53 25 92t61.5 57t72.5 28.5t61 11.5l25 1h-760v124h1164v-124h-338z" />
    <glyph glyph-name="tbar" unicode="&#x167;" horiz-adv-x="647" 
d="M581 1057v-111h-471q22 -1 44.5 -3.5t54.5 -8.5t59 -18.5t51 -30.5t38 -47t14 -65v-110h210v-83h-210v-308q0 -64 38.5 -106.5t100.5 -42.5h71v-123h-71q-106 0 -183 74.5t-77 184.5v321h-207v83h207v119q0 34 -9 61t-24 43.5t-32.5 29t-35.5 18t-33 8.5t-24 4h-9h-40
v111h207v376h121v-376h210z" />
    <glyph glyph-name="Utilde" unicode="&#x168;" 
d="M1106 1435h132v-907q0 -118 -46 -224t-123 -180.5t-181 -118t-217 -43.5t-217 43.5t-181 118t-123 180.5t-46 224v907h132v-900q0 -118 58 -222t159 -166t218 -62t218 62t159 166t58 222v900zM520 1671q-40 0 -72.5 -25.5t-37.5 -69.5h-67q5 47 25.5 84t48.5 58t61 34.5
t64 12t57 -8.5l184 -67q18 -5 34 -5q40 0 72.5 25.5t37.5 69.5h67q-5 -47 -25.5 -84t-48.5 -58t-61 -34.5t-64 -12t-57 8.5l-184 67q-18 5 -34 5z" />
    <glyph glyph-name="utilde" unicode="&#x169;" horiz-adv-x="1058" 
d="M529 85q81 0 150.5 49.5t107 122.5t37.5 146q0 -212 -88 -320.5t-233 -108.5q-102 0 -182.5 34t-127 89.5t-70 120.5t-23.5 134v704h121v-704q0 -110 88 -188.5t220 -78.5zM824 1056h121v-1056h-121v1056zM376 1311q-40 0 -72.5 -25.5t-37.5 -69.5h-67q5 46 25.5 83.5
t48.5 58t61 34t64 12t57 -8.5l185 -67q15 -4 34 -4q40 0 72 25t37 69h68q-5 -46 -25.5 -83.5t-48.5 -58t-61.5 -34t-64.5 -12t-57 8.5l-184 67q-18 5 -34 5z" />
    <glyph glyph-name="Umacron" unicode="&#x16a;" 
d="M1106 1435h132v-907q0 -118 -46 -224t-123 -180.5t-181 -118t-217 -43.5t-217 43.5t-181 118t-123 180.5t-46 224v907h132v-900q0 -118 58 -222t159 -166t218 -62t218 62t159 166t58 222v900zM989 1605h-612v83h612v-83z" />
    <glyph glyph-name="umacron" unicode="&#x16b;" horiz-adv-x="1058" 
d="M824 1056h121v-1056h-121v1056zM529 85q81 0 150.5 49.5t107 122.5t37.5 146q0 -212 -88 -320.5t-233 -108.5q-102 0 -182.5 34t-127 89.5t-70 120.5t-23.5 134v704h121v-704q0 -110 88 -188.5t220 -78.5zM831 1254h-611v83h611v-83z" />
    <glyph glyph-name="Ubreve" unicode="&#x16c;" 
d="M1106 1435h132v-907q0 -118 -46 -224t-123 -180.5t-181 -118t-217 -43.5t-217 43.5t-181 118t-123 180.5t-46 224v907h132v-900q0 -118 58 -222t159 -166t218 -62t218 62t159 166t58 222v900zM683 1553q-120 0 -208.5 79.5t-88.5 193.5h73q0 -70 62.5 -126.5t161.5 -56.5
t165.5 56.5t66.5 126.5h71q0 -114 -91.5 -193.5t-211.5 -79.5z" />
    <glyph glyph-name="ubreve" unicode="&#x16d;" horiz-adv-x="1058" 
d="M529 85q81 0 150.5 49.5t107 122.5t37.5 146q0 -212 -88 -320.5t-233 -108.5q-102 0 -182.5 34t-127 89.5t-70 120.5t-23.5 134v704h121v-704q0 -110 88 -188.5t220 -78.5zM824 1056h121v-1056h-121v1056zM526 1199q-120 0 -208.5 79.5t-88.5 193.5h73q0 -70 62.5 -126
t161.5 -56t165.5 56t66.5 126h71q0 -114 -91.5 -193.5t-211.5 -79.5z" />
    <glyph glyph-name="Uring" unicode="&#x16e;" 
d="M1106 1435h132v-907q0 -118 -46 -224t-123 -180.5t-181 -118t-217 -43.5t-217 43.5t-181 118t-123 180.5t-46 224v907h132v-900q0 -118 58 -222t159 -166t218 -62t218 62t159 166t58 222v900zM680 1548q-82 0 -139.5 57.5t-57.5 139.5t57.5 139.5t139.5 57.5t140 -57.5
t58 -139.5t-58 -139.5t-140 -57.5zM680 1862q-48 0 -82 -34.5t-34 -82.5t34 -82t82 -34t82.5 34t34.5 82t-34.5 82.5t-82.5 34.5z" />
    <glyph glyph-name="uring" unicode="&#x16f;" horiz-adv-x="1058" 
d="M529 85q81 0 150.5 49.5t107 122.5t37.5 146q0 -212 -88 -320.5t-233 -108.5q-102 0 -182.5 34t-127 89.5t-70 120.5t-23.5 134v704h121v-704q0 -110 88 -188.5t220 -78.5zM824 1056h121v-1056h-121v1056zM531 1197q-82 0 -139.5 57.5t-57.5 139.5t57.5 139.5t139.5 57.5
t139.5 -57.5t57.5 -139.5t-57.5 -139.5t-139.5 -57.5zM531 1511q-48 0 -82.5 -34.5t-34.5 -82.5t34.5 -82t82.5 -34t82 34t34 82t-34 82.5t-82 34.5z" />
    <glyph glyph-name="Uhungarumlaut" unicode="&#x170;" 
d="M867 1589h-95l177 281h177zM829 1870l-259 -281h-95l177 281h177zM1106 1435h132v-907q0 -118 -46 -224t-123 -180.5t-181 -118t-217 -43.5t-217 43.5t-181 118t-123 180.5t-46 224v907h132v-900q0 -118 58 -222t159 -166t218 -62t218 62t159 166t58 222v900z" />
    <glyph glyph-name="uhungarumlaut" unicode="&#x171;" horiz-adv-x="1058" 
d="M824 403v653h121v-1056h-121v156q-116 -182 -321 -182q-102 0 -182.5 34t-127 89.5t-70 120.5t-23.5 134v704h121v-704q0 -110 88 -188.5t220 -78.5q81 0 150.5 49.5t107 122.5t37.5 146zM680 1473l-259 -281h-95l177 281h177zM719 1192h-95l177 281h177z" />
    <glyph glyph-name="Uogonek" unicode="&#x172;" 
d="M1106 1435h132v-907q0 -210 -133 -365t-331 -192q-107 -94 -113 -175q-5 -54 39.5 -83t111.5 -8v-87q-88 -31 -149 -14t-92.5 59t-28.5 94q5 106 104 205q-109 5 -208 50.5t-173 119.5t-117.5 177.5t-43.5 218.5v907h132v-900q0 -118 58 -222t159 -166t218 -62t218 62
t159 166t58 222v900z" />
    <glyph glyph-name="uogonek" unicode="&#x173;" horiz-adv-x="1058" 
d="M529 87q81 0 150.5 49.5t107 122.5t37.5 146q0 -212 -88 -320.5t-233 -108.5q-102 0 -182.5 34t-127 89.5t-70 120.5t-23.5 134v704h121v-704q0 -110 88 -188.5t220 -78.5zM824 1058h121v-1056h-2q-52 -37 -99 -94t-51 -111q-5 -54 40 -82.5t112 -7.5v-87
q-88 -31 -149 -14t-92.5 59t-28.5 94q2 40 18 79.5t37.5 68t42.5 51t35 34.5l15 11h1v1055z" />
    <glyph glyph-name="Wcircumflex" unicode="&#x174;" horiz-adv-x="1894" 
d="M950 1799l-192 -255h-129l213 282h216l214 -282h-130zM1730 1433h137l-333 -1433h-234l-353 1336l-353 -1336h-235l-332 1433h136l319 -1387l364 1387h202l363 -1387z" />
    <glyph glyph-name="wcircumflex" unicode="&#x175;" horiz-adv-x="1447" 
d="M722 1445l-192 -254h-129l213 281h216l214 -281h-130zM1287 1056h134l-308 -1056h-176l-213 879l-213 -879h-176l-308 1056h134l262 -947l230 947h142l230 -947z" />
    <glyph glyph-name="Ycircumflex" unicode="&#x176;" horiz-adv-x="1267" 
d="M641 1799l-192 -255h-129l213 282h216l214 -282h-130zM1116 1433h157l-574 -906v-527h-131v527l-574 906h157l483 -791z" />
    <glyph glyph-name="ycircumflex" unicode="&#x177;" horiz-adv-x="1032" 
d="M517 1448l-193 -255h-128l213 282h215l214 -282h-129zM878 1058h135l-410 -1056l-92 -238q-30 -78 -82.5 -109t-131.5 -31h-88v121h128q22 0 40 12t25 31l53 146l-437 1124h135l363 -954z" />
    <glyph glyph-name="Ydieresis" unicode="&#x178;" horiz-adv-x="1267" 
d="M487 1646q-34 0 -57 19.5t-23 47.5t23 47.5t57 19.5t57.5 -19.5t23.5 -47.5t-23.5 -47.5t-57.5 -19.5zM755 1646q-34 0 -57.5 19.5t-23.5 47.5t23.5 47.5t57.5 19.5t57.5 -19.5t23.5 -47.5t-23.5 -47.5t-57.5 -19.5zM1116 1433h157l-574 -906v-527h-131v527l-574 906h157
l483 -791z" />
    <glyph glyph-name="Zacute" unicode="&#x179;" horiz-adv-x="1187" 
d="M779 1825l-259 -281h-96l178 281h177zM1157 -1h-1132v121h1132v-121zM310 259q-31 -39 -72 -67.5t-77 -41.5t-67.5 -20.5t-49.5 -8.5l-19 -1q765 950 863 1071q44 54 111 84t113 33l45 4q-736 -915 -847 -1053zM1157 1312h-1068v121h1068v-121z" />
    <glyph glyph-name="zacute" unicode="&#x17a;" horiz-adv-x="925" 
d="M663 1472l-258 -281h-96l177 281h177zM868 947h-785v110h785v-110zM886 0h-847v111h847v-111zM275 213q-36 -45 -95 -70.5t-100 -28.5l-41 -3q504 622 589 729q38 48 98 74.5t101 29.5l41 3q-511 -632 -593 -734z" />
    <glyph glyph-name="Zdot" unicode="&#x17b;" horiz-adv-x="1187" 
d="M591 1644q-34 0 -57.5 19.5t-23.5 47.5t23.5 47.5t57.5 19.5t57 -19.5t23 -47.5t-23 -47.5t-57 -19.5zM1157 1312h-1068v121h1068v-121zM310 259q-31 -39 -72 -67.5t-77 -41.5t-67.5 -20.5t-49.5 -8.5l-19 -1q765 950 863 1071q44 54 111 84t113 33l45 4
q-736 -915 -847 -1053zM1157 -1h-1132v121h1132v-121z" />
    <glyph glyph-name="zdot" unicode="&#x17c;" horiz-adv-x="925" 
d="M478 1252q-34 0 -57.5 19.5t-23.5 47.5t23.5 47.5t57.5 19.5t57.5 -19.5t23.5 -47.5t-23.5 -47.5t-57.5 -19.5zM868 947h-785v110h785v-110zM886 0h-847v111h847v-111zM275 213q-36 -45 -95 -70.5t-100 -28.5l-41 -3q504 622 589 729q38 48 98 74.5t101 29.5l41 3
q-511 -632 -593 -734z" />
    <glyph glyph-name="Zcaron" unicode="&#x17d;" horiz-adv-x="1187" 
d="M713 1543h-215l-213 281h128l192 -255l193 255h129zM1157 -1h-1132v121h1132v-121zM310 259q-31 -39 -72 -67.5t-77 -41.5t-67.5 -20.5t-49.5 -8.5l-19 -1q765 950 863 1071q44 54 111 84t113 33l45 4q-736 -915 -847 -1053zM1157 1312h-1068v121h1068v-121z" />
    <glyph glyph-name="zcaron" unicode="&#x17e;" horiz-adv-x="925" 
d="M573 1191h-216l-213 282h129l192 -255l192 255h130zM868 947h-785v110h785v-110zM886 0h-847v111h847v-111zM275 213q-36 -45 -95 -70.5t-100 -28.5l-41 -3q504 622 589 729q38 48 98 74.5t101 29.5l41 3q-511 -632 -593 -734z" />
    <glyph glyph-name="Acaron" unicode="&#x1cd;" horiz-adv-x="1296" 
d="M765 1433l519 -1433h-139l-161 445h-677l-158 -445h-139l507 1433h248zM351 568h588l-298 820zM752 1543h-215l-213 282h128l193 -255l192 255h129z" />
    <glyph glyph-name="acaron" unicode="&#x1ce;" horiz-adv-x="1011" 
d="M510 1083q104 0 192 -32.5t146 -102.5t58 -164v-783h-122v783q0 88 -76.5 138t-197.5 50q-172 0 -244 -154h-137q9 30 21.5 58t42.5 68t69 68.5t104 49.5t144 21zM454 89q129 0 229.5 80.5t100.5 177.5q0 -172 -87.5 -269t-239.5 -102q-175 -6 -284.5 99t-109.5 250
q0 159 115.5 254.5t280.5 95.5h218q47 0 77 30t30 79q0 -52 -7.5 -91t-23 -61.5t-30 -36.5t-37.5 -19.5t-35 -6.5t-33 -1h-164q-110 0 -184.5 -62.5t-74.5 -184.5q0 -99 71 -165.5t188 -66.5zM619 1193h-215l-213 281h128l193 -254l192 254h129z" />
    <glyph glyph-name="Icaron" unicode="&#x1cf;" horiz-adv-x="378" 
d="M384 1825h129l-214 -282h-215l-213 282h128l193 -255zM255 0h-131v1433h131v-1433z" />
    <glyph glyph-name="icaron" unicode="&#x1d0;" horiz-adv-x="348" 
d="M366 1473h129l-214 -282h-215l-213 282h128l192 -255zM234 0h-121v1057h121v-1057z" />
    <glyph glyph-name="Ocaron" unicode="&#x1d1;" horiz-adv-x="1525" 
d="M756 1473q153 0 286 -59.5t224.5 -161.5t143.5 -241t52 -294t-52 -294t-143.5 -241t-224.5 -161.5t-286 -59.5q-204 0 -363.5 102t-244.5 273.5t-85 380.5t85 380.5t244.5 273.5t363.5 102zM756 82q130 0 239.5 51t182.5 138t113 202t40 244t-40 244t-113 202t-182.5 138
t-239.5 51t-237.5 -51t-177.5 -138t-108 -202t-38 -244t38 -244t108 -202t177.5 -138t237.5 -51zM869 1542h-216l-213 281h129l192 -255l192 255h130z" />
    <glyph glyph-name="ocaron" unicode="&#x1d2;" horiz-adv-x="1101" 
d="M551 1083q209 0 344.5 -149t135.5 -404q0 -260 -133 -406t-347 -148q-214 2 -347.5 148t-133.5 406q0 128 37 233t101.5 174.5t152.5 107.5t190 38zM551 86q157 2 258 120t101 324q0 195 -103 318t-256 125q-153 -2 -256.5 -125t-103.5 -318q0 -205 101.5 -323.5
t258.5 -120.5zM655 1193h-215l-213 282h128l193 -255l192 255h129z" />
    <glyph glyph-name="Ucaron" unicode="&#x1d3;" 
d="M1106 1435h132v-907q0 -118 -46 -224t-123 -180.5t-181 -118t-217 -43.5t-217 43.5t-181 118t-123 180.5t-46 224v907h132v-900q0 -118 58 -222t159 -166t218 -62t218 62t159 166t58 222v900zM784 1544h-215l-213 281h128l192 -254l193 254h129z" />
    <glyph glyph-name="ucaron" unicode="&#x1d4;" horiz-adv-x="1058" 
d="M529 85q81 0 150.5 49.5t107 122.5t37.5 146q0 -212 -88 -320.5t-233 -108.5q-102 0 -182.5 34t-127 89.5t-70 120.5t-23.5 134v704h121v-704q0 -110 88 -188.5t220 -78.5zM824 1056h121v-1056h-121v1056zM625 1191h-215l-213 281h128l193 -254l192 254h129z" />
    <glyph glyph-name="Gcaron" unicode="&#x1e6;" horiz-adv-x="1437" 
d="M814 1544h-215l-213 281h128l192 -254l193 254h129zM1339 0h-118l1 634q0 -40 -2 -77.5t-13 -107t-30.5 -128t-58.5 -126t-92 -115t-137 -81.5t-187 -38q-120 -5 -223 32t-178 106.5t-128 165.5t-79 210.5t-26 240.5q0 209 78 381t223.5 274t330.5 102q117 0 215 -29
t167 -78t120.5 -116.5t80 -140.5t40.5 -154h-121l-9 -5q-38 183 -162 291.5t-326 108.5q-113 0 -208.5 -51.5t-160.5 -138t-101 -202t-36 -242.5q0 -129 32.5 -242.5t94 -201.5t159.5 -139t220 -51q220 0 357.5 154.5t159.5 408.5h-516v131h633v-776z" />
    <glyph glyph-name="gcaron" unicode="&#x1e7;" horiz-adv-x="1081" 
d="M645 1192h-215l-213 282h128l193 -255l192 255h129zM1009 615q0 -46 -16 -100.5t-52.5 -113.5t-88.5 -106.5t-132 -78.5t-175 -31q-173 0 -288 75q-89 58 -140 152t-51 203q0 121 63 222.5t171.5 160.5t236.5 59q120 0 226 -54l150 150l75 -75l-134 -135q73 -62 114 -147
t41 -181zM537 294q154 0 247 90.5t93 229.5q0 133 -95 233t-245 100t-244.5 -100t-94.5 -233q0 -139 92.5 -229.5t246.5 -90.5zM545 185q98 0 173 -9t140.5 -30.5t102.5 -63t42 -101.5q7 -96 -55.5 -179t-171.5 -130.5t-236 -47.5q-126 0 -233 48t-169 130t-62 179
q0 10 2 28h124q-2 -14 -2 -22q0 -97 96 -176t244 -79q150 0 242.5 73.5t92.5 181.5q0 99 -91.5 148.5t-238.5 49.5z" />
    <glyph glyph-name="Gacute" unicode="&#x1f4;" horiz-adv-x="1437" 
d="M877 1825l-259 -281h-95l177 281h177zM1339 0h-118l1 634q0 -40 -2 -77.5t-13 -107t-30.5 -128t-58.5 -126t-92 -115t-137 -81.5t-187 -38q-120 -5 -223 32t-178 106.5t-128 165.5t-79 210.5t-26 240.5q0 209 78 381t223.5 274t330.5 102q117 0 215 -29t167 -78
t120.5 -116.5t80 -140.5t40.5 -154h-121l-9 -5q-38 183 -162 291.5t-326 108.5q-113 0 -208.5 -51.5t-160.5 -138t-101 -202t-36 -242.5q0 -129 32.5 -242.5t94 -201.5t159.5 -139t220 -51q220 0 357.5 154.5t159.5 408.5h-516v131h633v-776z" />
    <glyph glyph-name="gacute" unicode="&#x1f5;" horiz-adv-x="1079" 
d="M708 1473l-259 -281h-96l178 281h177zM1007 614q0 -46 -16 -100.5t-52.5 -113.5t-88.5 -106.5t-132 -78.5t-175 -31q-173 0 -288 75q-89 58 -140.5 152t-51.5 203q0 90 37.5 172t100.5 141.5t150.5 94.5t183.5 35q120 0 226 -54l150 150l75 -76l-134 -134
q73 -62 114 -147.5t41 -181.5zM535 294q154 0 247 90t93 229q0 133 -95 233t-245 100t-244.5 -100t-94.5 -233q0 -139 92.5 -229t246.5 -90zM543 184q98 0 173 -9t140.5 -30.5t102.5 -63t42 -101.5q7 -96 -55.5 -179t-171.5 -130.5t-236 -47.5q-126 0 -233 48t-169 130
t-62 179q0 10 2 28h124q-2 -14 -2 -21q0 -98 96 -177t244 -79q150 0 242.5 74t92.5 182q0 67 -45 112t-117 65t-168 20z" />
    <glyph glyph-name="uni01f8" unicode="&#x1f8;" horiz-adv-x="1376" 
d="M862 1545h-96l-259 281h177zM1121 1433h131v-1433h-161l-837 1261v-1261h-131v1433h161l837 -1261v1261z" />
    <glyph glyph-name="uni01f9" unicode="&#x1f9;" horiz-adv-x="1083" 
d="M115 1057h121v-1057h-121v1057zM543 1080q63 6 125.5 -7.5t117 -46t96.5 -78.5t66 -110t24 -136v-702h-121v690q0 110 -85 194.5t-223 84.5q-132 0 -219.5 -85.5t-87.5 -193.5q0 157 87.5 267.5t219.5 122.5zM741 1192h-96l-258 281h176z" />
    <glyph glyph-name="Scommaaccent" unicode="&#x218;" horiz-adv-x="1241" 
d="M551 -433l53 347h122l-80 -347h-95zM849 748q325 -79 325 -362q0 -116 -74 -215t-202.5 -156t-280.5 -54q-108 2 -200.5 32.5t-157.5 80t-110.5 114t-67.5 134.5t-22 141h133q0 -46 16 -96t51 -99.5t83 -89t118.5 -65.5t152.5 -29q108 -4 208 37.5t160.5 113t60.5 151.5
q0 87 -62.5 149t-169.5 88l-396 95q-299 72 -306 343q0 112 68.5 207t186.5 150.5t257 55.5q123 0 223 -39.5t161.5 -105.5t94.5 -147t33 -168h-131q0 56 -25.5 114t-71.5 108.5t-120.5 83t-163.5 32.5q-167 0 -274 -87.5t-107 -201.5q0 -75 60.5 -134.5t156.5 -84.5z" />
    <glyph glyph-name="scommaaccent" unicode="&#x219;" horiz-adv-x="1001" 
d="M424 -432l53 347h122l-80 -347h-95zM660 561q112 -31 160 -59q113 -66 113 -193q0 -73 -26.5 -132t-69 -96t-99 -62t-114.5 -34.5t-118 -8.5q-207 5 -331.5 116t-98.5 251q11 53 54 89t104 51t134.5 13.5t146.5 -21.5l-162 43q-135 36 -196 98t-61 158q0 128 117.5 218.5
t283.5 90.5q92 0 172.5 -29t132.5 -75t78.5 -105t17.5 -117h-121q-1 98 -79 157t-192 59q-117 0 -203 -49.5t-86 -134.5q0 -53 40 -91t103 -56zM506 87q128 -4 217.5 53.5t89.5 151.5q0 100 -170 149l-17 5q-18 4 -50.5 13t-60.5 16q-70 15 -135.5 10t-118 -42.5
t-64.5 -99.5q-19 -98 71.5 -175t237.5 -81z" />
    <glyph glyph-name="uni021a" unicode="&#x21a;" horiz-adv-x="1165" 
d="M0 1434h1163v-124h-338q-7 0 -19 -1t-43 -11.5t-54.5 -28.5t-43 -57t-19.5 -92v-1119h-131v1119q0 53 25 92t61.5 57t72.5 28.5t61 11.5l25 1h-760v124zM491 -433l53 347h121l-80 -347h-94z" />
    <glyph glyph-name="uni021b" unicode="&#x21b;" horiz-adv-x="593" 
d="M554 1059v-111h-471q22 -1 44.5 -3.5t54.5 -8.5t59 -18.5t51 -30.5t38 -47t14 -65v-501q0 -64 38.5 -106.5t100.5 -42.5h71v-123h-71q-106 0 -183 74.5t-77 184.5v523q0 34 -9 61t-24 43.5t-32.5 29t-35.5 18t-33 8.5t-24 4h-9h-40v111h207v376h121v-376h210zM330 -429
l53 347h122l-81 -347h-94z" />
    <glyph glyph-name="uni021e" unicode="&#x21e;" horiz-adv-x="1376" 
d="M800 1544h-216l-213 281h129l192 -254l192 254h130zM1119 1433h133v-1433h-133v1039q0 -62 -7 -110t-28 -95t-55.5 -78t-92.5 -50t-137 -19h-248q-115 0 -206 -71.5t-91 -162.5v-453h-131v1433h131v-966q0 75 13.5 132t47 106.5t99.5 76t163 26.5h247q115 0 205 72
t90 163v390z" />
    <glyph glyph-name="uni021f" unicode="&#x21f;" horiz-adv-x="1069" 
d="M112 1433h121v-1433h-121v1433zM540 1080q79 8 155.5 -15t137.5 -71.5t98.5 -128t37.5 -176.5v-689h-121v689q0 110 -85 195t-223 85q-132 0 -219.5 -86t-87.5 -194q0 153 83 265.5t224 125.5zM497 1787l-214 -281h-215l-213 281h128l192 -254l193 254h129z" />
    <glyph glyph-name="uni023b" unicode="&#x23b;" horiz-adv-x="1386" 
d="M1176 449q1 4 3.5 13.5t3.5 15.5h137q-27 -136 -91.5 -239t-150.5 -162t-179.5 -88t-192.5 -29q-222 0 -380 129l-111 -160l-59 41l116 168q-98 103 -149 253t-51 326q0 209 78 380.5t223.5 273.5t330.5 102q245 0 406 -125l115 165l60 -41l-120 -173q130 -134 162 -344
h-134q-4 20 -6 29q-31 129 -95 210l-690 -995q130 -119 310 -119q158 0 283 97.5t181 271.5zM203 717q0 -134 38 -255.5t110 -209.5l690 996q-121 105 -329 105q-146 0 -264 -90t-181.5 -235t-63.5 -311z" />
    <glyph glyph-name="uni023c" unicode="&#x23c;" horiz-adv-x="1091" 
d="M881 376v2h142q-38 -181 -158.5 -292t-306.5 -111q-158 0 -273 79l-86 -124l-60 41l89 128q-156 150 -156 430q0 258 135.5 406t345.5 148q170 0 292 -93l91 131l59 -42l-96 -138q101 -109 129 -277h-133q-20 100 -69 171l-473 -683q83 -66 205 -66q241 0 323 290z
M208 529q0 -206 93 -325l476 688q-87 80 -220 80q-148 0 -248.5 -123t-100.5 -320z" />
    <glyph glyph-name="circumflex" unicode="&#x2c6;" horiz-adv-x="774" 
d="M494 1473l214 -281h-129l-193 254l-192 -254h-128l213 281h215z" />
    <glyph glyph-name="caron" unicode="&#x2c7;" horiz-adv-x="708" 
d="M546 1473h129l-214 -281h-215l-213 281h128l193 -255z" />
    <glyph glyph-name="breve" unicode="&#x2d8;" horiz-adv-x="731" 
d="M600 1473h65q0 -115 -86.5 -188t-215.5 -73t-213 73t-84 188h67q0 -67 71.5 -124.5t158.5 -57.5q88 0 162.5 58t74.5 124z" />
    <glyph glyph-name="dotaccent" unicode="&#x2d9;" horiz-adv-x="284" 
d="M142 1339q-34 0 -57.5 19.5t-23.5 47.5t23.5 47.5t57.5 19.5t57.5 -19.5t23.5 -47.5t-23.5 -47.5t-57.5 -19.5z" />
    <glyph glyph-name="ogonek" unicode="&#x2db;" horiz-adv-x="516" 
d="M242 -206q-5 -54 39.5 -83t111.5 -8v-87q-88 -31 -149 -14t-92.5 59t-28.5 94q2 40 18 79.5t37.5 68t43 51.5t36.5 34l14 12h121q-51 -36 -98.5 -93.5t-52.5 -112.5z" />
    <glyph glyph-name="ilde" unicode="&#x2dc;" horiz-adv-x="774" 
d="M650 1473h67q-5 -46 -25.5 -83.5t-48.5 -58t-61 -34t-64 -12t-57 8.5l-185 66q-18 5 -33 5q-40 0 -72.5 -25.5t-37.5 -69.5h-67q5 47 25.5 84t48.5 58t61 34.5t64 12t57 -8.5l184 -67q18 -5 34 -5q40 0 72.5 25.5t37.5 69.5z" />
    <glyph glyph-name="hungarumlaut" unicode="&#x2dd;" horiz-adv-x="743" 
d="M245 1473h177l-259 -281h-95zM543 1473h177l-259 -281h-95z" />
    <glyph glyph-name="pi" unicode="&#x3c0;" horiz-adv-x="978" 
d="M937 734h-151v-528q0 -31 19 -61q36 -57 132 -57v-88q-116 0 -181 65q-58 59 -58 142v527h-443v-734h-88v734h-136v88h906v-88z" />
    <glyph glyph-name="gmacron" unicode="&#x1e21;" horiz-adv-x="1081" 
d="M838 1251h-612v83h612v-83zM545 185q98 0 173 -9t140.5 -30.5t102.5 -63t42 -101.5q7 -96 -55.5 -179t-171.5 -130.5t-236 -47.5q-126 0 -233 48t-169 130t-62 179q0 10 2 28h124q-2 -14 -2 -22q0 -97 96 -176t244 -79q150 0 242.5 73.5t92.5 181.5q0 99 -91.5 148.5
t-238.5 49.5zM1009 615q0 -46 -16 -100.5t-52.5 -113.5t-88.5 -106.5t-132 -78.5t-175 -31q-173 0 -288 75q-89 58 -140 152t-51 203q0 121 63 222.5t171.5 160.5t236.5 59q120 0 226 -54l150 150l75 -75l-134 -135q73 -62 114 -147t41 -181zM537 294q154 0 247 90.5
t93 229.5q0 133 -95 233t-245 100t-244.5 -100t-94.5 -233q0 -139 92.5 -229.5t246.5 -90.5z" />
    <glyph glyph-name="Wgrave" unicode="&#x1e80;" horiz-adv-x="1894" 
d="M1121 1544h-96l-258 282h176zM1730 1433h137l-333 -1433h-234l-353 1336l-353 -1336h-235l-332 1433h136l319 -1387l364 1387h202l363 -1387z" />
    <glyph glyph-name="wgrave" unicode="&#x1e81;" horiz-adv-x="1447" 
d="M901 1191h-96l-259 281h177zM1287 1056h134l-308 -1056h-176l-213 879l-213 -879h-176l-308 1056h134l262 -947l230 947h142l230 -947z" />
    <glyph glyph-name="Wacute" unicode="&#x1e82;" horiz-adv-x="1894" 
d="M1115 1826l-259 -282h-95l177 282h177zM1730 1433h137l-333 -1433h-234l-353 1336l-353 -1336h-235l-332 1433h136l319 -1387l364 1387h202l363 -1387z" />
    <glyph glyph-name="wacute" unicode="&#x1e83;" horiz-adv-x="1447" 
d="M902 1472l-259 -281h-95l177 281h177zM1287 1056h134l-308 -1056h-176l-213 879l-213 -879h-176l-308 1056h134l262 -947l230 947h142l230 -947z" />
    <glyph glyph-name="Wdieresis" unicode="&#x1e84;" horiz-adv-x="1894" 
d="M807 1646q-34 0 -57.5 19.5t-23.5 47.5t23.5 47.5t57.5 19.5t57.5 -19.5t23.5 -47.5t-23.5 -47.5t-57.5 -19.5zM1075 1646q-34 0 -57.5 19.5t-23.5 47.5t23.5 47.5t57.5 19.5t57 -19.5t23 -47.5t-23 -47.5t-57 -19.5zM1730 1433h137l-333 -1433h-234l-353 1336
l-353 -1336h-235l-332 1433h136l319 -1387l364 1387h202l363 -1387z" />
    <glyph glyph-name="wdieresis" unicode="&#x1e85;" horiz-adv-x="1447" 
d="M585 1252q-34 0 -57 19.5t-23 47.5t23 47.5t57 19.5t57.5 -19.5t23.5 -47.5t-23.5 -47.5t-57.5 -19.5zM853 1252q-34 0 -57.5 19.5t-23.5 47.5t23.5 47.5t57.5 19.5t57.5 -19.5t23.5 -47.5t-23.5 -47.5t-57.5 -19.5zM1287 1056h134l-308 -1056h-176l-213 879l-213 -879
h-176l-308 1056h134l262 -947l230 947h142l230 -947z" />
    <glyph glyph-name="uni1e9e" unicode="&#x1e9e;" horiz-adv-x="1249" 
d="M835 784q158 -44 256.5 -161.5t98.5 -263.5q0 -180 -126.5 -289.5t-334.5 -109.5q-63 0 -134.5 18.5t-96.5 36.5v142q29 -26 94 -49.5t137 -23.5q144 0 236.5 77.5t92.5 197.5q0 121 -97 209t-247 88v151l260 342q-49 64 -139 111.5t-205 47.5q-165 0 -277 -88t-112 -212
v-1008h-132v1008q0 116 69.5 213.5t189.5 154.5t262 57q166 0 299.5 -77t189.5 -200z" />
    <glyph glyph-name="Etilde" unicode="&#x1ebc;" horiz-adv-x="1228" 
d="M502 1672q-40 0 -72.5 -25.5t-37.5 -69.5h-67q5 47 25.5 84t48.5 58t61 34.5t64 12t57 -8.5l184 -67q18 -5 34 -5q40 0 72.5 25.5t37.5 69.5h67q-5 -46 -25.5 -83.5t-48.5 -58t-61 -34t-64 -12t-57 8.5l-184 66q-18 5 -34 5zM1178 1310h-924v-534h847v-121h-847v-531h924
v-124h-1055v1434h1055v-124z" />
    <glyph glyph-name="etilde" unicode="&#x1ebd;" horiz-adv-x="1099" 
d="M1031 529v-33h-840q9 -190 109.5 -299t250.5 -111q118 2 207.5 71t127.5 195h126q-42 -179 -164.5 -276.5t-296.5 -99.5q-215 2 -348 147.5t-133 405.5q0 255 136 404.5t345 149.5t344.5 -149.5t135.5 -404.5zM196 608h709q-21 163 -119.5 262.5t-234.5 101.5
q-136 -2 -235 -101.5t-120 -262.5zM387 1308q-40 0 -72.5 -25.5t-37.5 -69.5h-67q5 46 25.5 83.5t48.5 58t61.5 34t64.5 12t57 -8.5l184 -67q15 -4 34 -4q40 0 72.5 25t37.5 69h67q-5 -46 -25.5 -83.5t-48.5 -58t-61.5 -34t-64.5 -12t-57 8.5l-184 67q-18 5 -34 5z" />
    <glyph glyph-name="Ygrave" unicode="&#x1ef2;" horiz-adv-x="1267" 
d="M811 1545h-95l-259 281h177zM1116 1433h157l-574 -906v-527h-131v527l-574 906h157l483 -791z" />
    <glyph glyph-name="ygrave" unicode="&#x1ef3;" horiz-adv-x="1032" 
d="M697 1193h-95l-259 282h177zM878 1058h135l-410 -1056l-92 -238q-30 -78 -82.5 -109t-131.5 -31h-88v121h128q22 0 40 12t25 31l53 146l-437 1124h135l363 -954z" />
    <glyph glyph-name="Ytilde" unicode="&#x1ef8;" horiz-adv-x="1267" 
d="M479 1671q-40 0 -72.5 -25.5t-37.5 -69.5h-67q5 46 25.5 83.5t48.5 58t61.5 34t64.5 12t57 -8.5l184 -66q18 -5 34 -5q40 0 72.5 25.5t37.5 69.5h67q-6 -58 -36 -101t-68 -61t-80 -25t-73 7l-184 67q-18 5 -34 5zM1116 1433h157l-574 -906v-527h-131v527l-574 906h157
l483 -791z" />
    <glyph glyph-name="ytilde" unicode="&#x1ef9;" horiz-adv-x="1032" 
d="M368 1314q-40 0 -72.5 -25.5t-37.5 -69.5h-67q5 47 25.5 84t48.5 58t61 34.5t64 12t57 -8.5l184 -67q18 -5 34 -5q40 0 72.5 25.5t37.5 69.5h67q-5 -47 -25.5 -84t-48.5 -58t-61 -34.5t-64 -12t-57 8.5l-184 67q-18 5 -34 5zM878 1058h135l-410 -1056l-92 -238
q-30 -78 -82.5 -109t-131.5 -31h-88v121h128q22 0 40 12t25 31l53 146l-437 1124h135l363 -954z" />
    <glyph glyph-name="endash" unicode="&#x2013;" horiz-adv-x="1130" 
d="M1067 444h-1004v116h1004v-116z" />
    <glyph glyph-name="emdash" unicode="&#x2014;" horiz-adv-x="1632" 
d="M1569 443h-1506v117h1506v-117z" />
    <glyph glyph-name="quotesinglbase" unicode="&#x201a;" horiz-adv-x="331" 
d="M113 215h147l-135 -471h-96z" />
    <glyph glyph-name="quoteleftreversed" unicode="&#x201b;" horiz-adv-x="421" 
d="M186 1434h154l-155 -574h-97z" />
    <glyph glyph-name="quotedblleft" unicode="&#x201c;" horiz-adv-x="757" 
d="M572 1433h97l-98 -573h-154zM84 860l155 573h97l-98 -573h-154z" />
    <glyph glyph-name="quotedblright" unicode="&#x201d;" horiz-adv-x="755" 
d="M88 860l98 573h154l-155 -573h-97zM519 1433h154l-155 -573h-97z" />
    <glyph glyph-name="quotedblbase" unicode="&#x201e;" horiz-adv-x="663" 
d="M27 -258l84 472h147l-135 -472h-96zM444 214h147l-135 -472h-96z" />
    <glyph glyph-name="dagger" unicode="&#x2020;" horiz-adv-x="1228" 
d="M662 1070h502v-99h-502v-1347h-98v1347h-501v99h501v501h98v-501z" />
    <glyph glyph-name="daggerdbl" unicode="&#x2021;" horiz-adv-x="1282" 
d="M1191 1213h-503v-990h503v-98h-503v-502h-98v502h-500v98h500v990h-500v98h500v501h98v-501h503v-98z" />
    <glyph glyph-name="bullet" unicode="&#x2022;" horiz-adv-x="522" 
d="M261 555q-74 0 -126.5 48.5t-52.5 116.5t52.5 116.5t126.5 48.5t126.5 -48.5t52.5 -116.5t-52.5 -116.5t-126.5 -48.5z" />
    <glyph glyph-name="ellipsis" unicode="&#x2026;" horiz-adv-x="884" 
d="M147 146q33 0 56 -21.5t23 -51.5t-23 -51.5t-56 -21.5t-56 21.5t-23 51.5t23 51.5t56 21.5zM442 146q33 0 56 -21.5t23 -51.5t-23 -51.5t-56 -21.5t-56 21.5t-23 51.5t23 51.5t56 21.5zM737 146q33 0 56 -21.5t23 -51.5t-23 -51.5t-56 -21.5t-56 21.5t-23 51.5t23 51.5
t56 21.5z" />
    <glyph glyph-name="perthousand" unicode="&#x2030;" horiz-adv-x="2351" 
d="M1271 1413h130l-1037 -1412h-130zM715 1073q0 -167 -86 -262t-224 -96q-138 1 -224.5 95.5t-86.5 262.5q0 166 87.5 261.5t223.5 95.5t223 -96t87 -261zM198 1073q0 -121 54 -193.5t153 -73.5q99 1 153 73.5t54 193.5q0 117 -59.5 190.5t-147.5 75.5q-88 -2 -147.5 -75.5
t-59.5 -190.5zM1228 715q136 0 223 -96t87 -261q0 -167 -86 -261.5t-224 -95.5q-138 1 -224.5 95.5t-86.5 261.5q0 166 87.5 261.5t223.5 95.5zM1228 92q99 1 153 73.5t54 192.5q0 117 -59.5 190.5t-147.5 75.5q-88 -2 -147.5 -75.5t-59.5 -190.5q0 -120 54 -192.5
t153 -73.5zM1949 715q136 0 223 -96t87 -261q0 -167 -86 -261.5t-224 -95.5q-138 1 -224.5 95.5t-86.5 261.5q0 166 87.5 261.5t223.5 95.5zM1949 92q99 1 153 73.5t54 192.5q0 117 -59.5 190.5t-147.5 75.5q-88 -2 -147.5 -75.5t-59.5 -190.5q0 -120 54 -192.5t153 -73.5z
" />
    <glyph glyph-name="guilsinglleft" unicode="&#x2039;" horiz-adv-x="653" 
d="M226 526l348 -406h-150l-344 406l345 413h144z" />
    <glyph glyph-name="guilsinglright" unicode="&#x203a;" horiz-adv-x="653" 
d="M227 939l345 -413l-344 -406h-150l348 406l-344 413h145z" />
    <glyph glyph-name="fraction" unicode="&#x2044;" horiz-adv-x="890" 
d="M704 1433h136l-651 -1433h-136z" />
    <glyph glyph-name="Euro" unicode="&#x20ac;" horiz-adv-x="1523" 
d="M412 984q-34 -85 -159 -85q48 236 204.5 385t377.5 149q111 0 204 -27.5t158 -73.5t113.5 -110t75.5 -133.5t39 -146.5h-130q-1 4 -2.5 13t-2.5 14q-19 77 -50.5 136.5t-83 108.5t-131 75.5t-183.5 26.5q-145 0 -258.5 -91.5t-171.5 -240.5zM362 716q0 -45 -26 -70
t-96 -25q-5 52 -5 95t5 95h-152v88h922v-88h-642q-6 -47 -6 -95zM1279 463q1 4 3.5 13t3.5 14h132q-21 -104 -65.5 -188t-101.5 -139.5t-127 -93t-141.5 -54t-145.5 -16.5q-159 0 -283.5 70.5t-198.5 188.5t-103 275h-164v88h922v-88h-628q42 -185 161.5 -301t298.5 -116
q149 0 266.5 91t170.5 256z" />
    <glyph glyph-name="uni20bf" unicode="&#x20bf;" 
d="M783 810q87 0 157.5 -16t117 -40.5t80.5 -61.5t52 -71.5t29 -78t13.5 -74t2.5 -65.5q0 -105 -50.5 -197t-144.5 -149.5t-208 -57.5h-54v-173l-89 -1v174h-190v-173l-88 -1v174h-288v1434h288v173h88v-173h190v173h89v-174q92 -3 170 -38.5t126.5 -90.5t72.5 -122.5
t17 -134.5q-4 -38 -14 -68.5t-35.5 -63t-65.5 -54.5t-108 -36t-158 -14q113 0 183 61t70 175q0 113 -73 188t-181 75h-528v-499h529zM856 123q102 0 175 72.5t73 207.5q0 114 -72 200t-177 86h-601v-566h602z" />
    <glyph glyph-name="trademark" unicode="&#x2122;" horiz-adv-x="1560" 
d="M61 1375v60h572v-60h-254v-644h-64v644h-254zM1360 1435h98v-704h-64v621l-252 -621h-69l-251 621v-621h-65v704h98l253 -623z" />
    <glyph glyph-name="product" unicode="&#x220f;" horiz-adv-x="1089" 
d="M92 1433h906v-88h-150v-1345h-89v1345h-443v-1345h-88v1345h-136v88z" />
    <glyph glyph-name="minus" unicode="&#x2212;" horiz-adv-x="1130" 
d="M1067 443h-1004v116h1004v-116z" />
    <glyph glyph-name="radical" unicode="&#x221a;" horiz-adv-x="1435" 
d="M1259 1473h122l-500 -1473h-209l-309 885l-265 -91l-37 107l372 125l344 -979z" />
    <glyph glyph-name="approxequal" unicode="&#x2248;" horiz-adv-x="1245" 
d="M921 690q66 0 124 19t83 38l24 19v-113q-4 -3 -10.5 -8t-29.5 -18t-48.5 -23t-65.5 -18t-82 -8q-128 0 -296 77q-144 66 -259 66q-47 0 -92 -10.5t-75.5 -25.5t-54.5 -30.5t-35 -26.5l-12 -10v107q4 4 12 11t35 25.5t57 32t77 25t96 11.5q131 0 296 -76q139 -64 256 -64z
M665 337q136 -63 256 -63q66 0 124 19t83 37l24 19v-112q-4 -3 -10.5 -8t-29.5 -18t-48.5 -23t-65.5 -18t-82 -8q-128 0 -296 77q-142 65 -259 65q-47 0 -92 -10.5t-75.5 -25.5t-54.5 -30t-35 -26l-12 -10v107q4 4 12 11t35 25.5t57 32t77 25t96 11.5q128 0 296 -77z" />
    <glyph glyph-name="notequal" unicode="&#x2260;" horiz-adv-x="1200" 
d="M1102 644h-371l-130 -283h501v-122h-557l-109 -239h-136l109 239h-311v122h366l130 283h-496v121h552l133 292h137l-134 -292h316v-121z" />
    <glyph glyph-name="lessequal" unicode="&#x2264;" horiz-adv-x="1224" 
d="M1130 1305v-122l-988 -411l988 -401v-122l-1036 419v208zM1130 0h-1036v112h1036v-112z" />
    <glyph glyph-name="greaterequal" unicode="&#x2265;" horiz-adv-x="1224" 
d="M94 1305l1036 -429v-208l-1036 -419v122l988 401l-988 411v122zM1130 0h-1036v112h1036v-112z" />
    <glyph glyph-name="e.alt1" unicode="&#xf004;" horiz-adv-x="1093" 
d="M1031 529v-33h-465q59 0 98 -1.5t86.5 -6.5t78.5 -15.5t61 -27t46.5 -42.5t22.5 -61q13 -77 -18 -147.5t-89 -118.5t-133 -75.5t-148 -24.5q-105 1 -195.5 38t-159 105.5t-107.5 174t-39 235.5q0 255 136 404.5t345 149.5t344.5 -149.5t135.5 -404.5zM872 353
q-5 39 -28 66.5t-51.5 42t-74 22.5t-80 10t-85.5 2h-362q9 -188 118.5 -298t261.5 -112q142 0 228.5 80t72.5 187zM196 608h709q-21 163 -119.5 263t-234.5 102q-136 -2 -235 -102t-120 -263z" />
    <glyph glyph-name="g.alt1" unicode="&#xf005;" horiz-adv-x="1075" 
d="M840 1057h121v-923q0 -143 -26.5 -243t-79.5 -158t-123 -83.5t-166 -25.5q-296 0 -381 264h126q78 -154 255 -154q147 0 210.5 101.5t63.5 336.5v344q0 212 -91.5 321.5t-235.5 109.5q-135 0 -230.5 -125.5t-95.5 -305.5q0 -178 94.5 -300t231.5 -130q141 -8 234 104
t93 326q0 -107 -14.5 -194t-40 -144.5t-57 -98.5t-69.5 -63t-73.5 -31.5t-72.5 -9.5q-121 0 -224 72.5t-163 197t-60 271.5t60 271.5t163 197t224 72.5q107 0 197.5 -49.5t129.5 -121.5v171z" />
    <glyph glyph-name="s.alt1" unicode="&#xf006;" horiz-adv-x="999" 
d="M655 560q113 -31 162 -60q110 -66 110 -192q0 -73 -26 -131.5t-68.5 -96t-99 -62t-114.5 -34t-118 -8.5q-102 3 -186.5 35.5t-137.5 84.5t-82 115.5t-29 130.5h121q0 -99 86 -175.5t228 -80.5q128 -4 217.5 53.5t89.5 152.5q0 99 -170 148l-290 77q-135 36 -196.5 98.5
t-61.5 158.5q0 128 117.5 218.5t284.5 90.5q103 -3 187 -35.5t134.5 -84t71 -117t4.5 -132.5q-17 -68 -80.5 -102t-148.5 -31t-183 27zM355 642l13 -4q12 -3 43.5 -11.5t63.5 -17.5q50 -12 96.5 -14t89 8t71.5 38t38 73q9 48 -5.5 94t-49.5 81.5t-93 58.5t-130 25
q-115 -2 -197.5 -52t-82.5 -133q0 -53 40 -90.5t103 -55.5z" />
    <glyph glyph-name="t.alt1" unicode="&#xf007;" horiz-adv-x="593" 
d="M344 783v-9v-501q0 -64 38.5 -106.5t100.5 -42.5h71v-123h-71q-106 0 -183 74.5t-77 184.5v514q0 47 20 81.5t46 51t65.5 26t64.5 11.5t57 3h8h-401h-27h-40v111h207v376h121v-376h210v-111h-42q-7 0 -18 -1.5t-40 -11t-51.5 -25t-40.5 -49t-18 -77.5z" />
    <glyph glyph-name="v.alt1" unicode="&#xf008;" horiz-adv-x="1032" 
d="M883 1057h130l-410 -1056h-175l-410 1056h130l368 -948z" />
    <glyph glyph-name="w.alt1" unicode="&#xf009;" horiz-adv-x="1462" 
d="M1288 1057h133l-232 -1056h-224l-235 985l-235 -985h-223l-233 1056h134l215 -1023l242 1023h200l243 -1023z" />
    <glyph glyph-name="x.alt1" unicode="&#xf00a;" horiz-adv-x="937" 
d="M657 689q-30 -42 -66.5 -54.5t-66 -3.5t-61 33t-47 41.5t-28.5 33.5q10 -13 24 -24.5t37 -22.5t51 1t53 50l213 314h149q-144 -205 -258 -368zM384 744l1 -1l526 -742h-149l-293 433l-293 -433h-149l368 525l-372 531h149zM388 739q-1 2 -3 4l-1 1q1 -1 4 -5z" />
    <glyph glyph-name="A.alt1" unicode="&#xf00b;" horiz-adv-x="1288" 
d="M743 1433l537 -1433h-139l-167 445h-661l-168 -445h-139l540 1433h197zM360 568h568l-284 755z" />
    <glyph glyph-name="M.alt1" unicode="&#xf00c;" horiz-adv-x="1669" 
d="M1309 1433h238v-1433h-132v1365l-481 -1365h-200l-482 1365v-1365h-131v1433h238l475 -1344z" />
    <glyph glyph-name="N.alt1" unicode="&#xf00d;" horiz-adv-x="1376" 
d="M1121 1433h131v-1433h-224l-774 1350v-1350h-131v1433l224 1l774 -1350v1349z" />
    <glyph glyph-name="R.alt1" unicode="&#xf00f;" horiz-adv-x="1320" 
d="M1027 706q71 -10 132.5 -87t61.5 -192v-427h-131v402q0 91 -64.5 147.5t-159.5 56.5l-321 1q-38 0 -73.5 -5.5t-77 -23.5t-71.5 -47t-50 -79.5t-20 -117.5q0 176 60 273q74 120 236 120l288 -1q102 0 177 89.5t75 202.5q0 59 -21 121.5t-56 98.5q-73 75 -175 75h-584
v-586v-120v-607h-132v1434l698 -1q81 0 155 -31q112 -47 179 -147v-2h1q67 -100 67 -224q0 -110 -49.5 -194.5t-144.5 -128.5z" />
    <glyph glyph-name="R.alt2" unicode="&#xf010;" horiz-adv-x="1333" 
d="M1234 131h56v-131h-43q-88 0 -145.5 34.5t-113.5 114.5l-320 457l-120 1h-1q-38 0 -73.5 -5.5t-76 -23.5t-70.5 -46t-50.5 -77.5t-21.5 -114.5q1 172 60 267q74 120 235 120h1h288q102 0 177 89t75 202q0 59 -21 121.5t-56 98.5q-73 75 -175 75l-584 1v-1314h-132v1434
l698 -1q81 0 155 -31q112 -47 179 -147v-2h1q67 -100 67 -224q0 -175 -102.5 -287t-307.5 -132l276 -392q27 -38 66 -62.5t79 -24.5z" />
    <glyph glyph-name="S.alt1" unicode="&#xf011;" horiz-adv-x="1247" 
d="M857 747q50 -12 92.5 -28.5t87 -45.5t75 -67t50 -94.5t19.5 -126.5q0 -116 -74 -214.5t-202.5 -155.5t-280.5 -54q-141 3 -256.5 49t-184.5 116.5t-98 159t-8 176.5q22 90 103 148t194.5 71.5t249.5 -13.5l-203 49q-299 72 -306 344q0 112 68.5 207t186.5 150t257 55
q123 0 223 -39.5t162 -105.5t95 -147t33 -168h-131q0 56 -25.5 114t-72 109t-121 83.5t-163.5 32.5q-167 0 -274 -88t-107 -202q0 -75 60.5 -134.5t156.5 -84.5zM621 83q108 -4 208 37.5t160.5 113t60.5 151.5q0 87 -63 149t-170 88q-1 0 -28 6.5t-74.5 18t-88.5 21.5
q-53 11 -106.5 12t-107 -11t-97 -36.5t-75 -68.5t-41.5 -102q-25 -142 90.5 -256.5t331.5 -122.5z" />
    <glyph glyph-name="V.alt1" unicode="&#xf012;" horiz-adv-x="1265" 
d="M1118 1433h140l-528 -1433h-196l-528 1433h139l487 -1321z" />
    <glyph glyph-name="W.alt1" unicode="&#xf013;" horiz-adv-x="1865" 
d="M1707 1433h137l-377 -1433h-181l-354 1302l-354 -1302h-181l-377 1433h137l336 -1278l349 1278h180l349 -1278z" />
    <glyph glyph-name="X.alt1" unicode="&#xf014;" horiz-adv-x="1282" 
d="M672 646q119 -171 209 -264q200 -203 381 -204v-177q-78 0 -150.5 31.5t-125.5 78t-108 117.5t-90.5 129.5t-81.5 136t-74 117.5l-411 -610h-173q519 754 534 775q-7 10 -30 46t-36.5 57t-41.5 60.5t-49 65t-53 62t-60 60.5t-64 50.5t-70.5 42t-74.5 26t-80 10.5v177
q78 0 148.5 -33t121 -82.5t101 -121t84 -133.5t74.5 -136.5t69 -115.5l420 622h171l-474 -690q-64 -90 -154 30z" />
    <glyph glyph-name="ampersand.alt1" unicode="&#xf015;" horiz-adv-x="1335" 
d="M1047 265l219 -265h-176l-125 150q-173 -189 -415 -189q-197 0 -325.5 110t-128.5 290q0 79 28 146.5t71 114t109 94.5t127.5 82.5t142 84.5t137.5 93q41 28 64 75q19 38 19 73q0 50 -20.5 89t-52 59.5t-63.5 30.5t-61 10q-31 0 -62.5 -9t-63.5 -28.5t-52 -59t-20 -92.5
q0 -20 6 -41q14 -50 50 -85t79 -48.5t91 -7t86 33.5q-95 -73 -197.5 -75.5t-171 56.5t-74.5 155q-8 135 90 228.5t240 93.5q68 0 124 -22.5t91 -57t58.5 -78.5t33 -83.5t9.5 -75.5q0 -30 -10 -60t-23 -54.5t-37.5 -52t-43 -45t-49.5 -41.5t-46.5 -34.5t-46.5 -31t-36 -24.5
l-115 -71q-11 -8 -48.5 -33t-51 -35t-44.5 -34t-44.5 -38.5t-35 -40t-30.5 -47t-17 -49.5t-8 -58q0 -116 83.5 -196t204.5 -92q39 -4 81 1t89.5 22t91 44.5t84.5 73t71.5 104t50 141t21.5 179.5v7q0 2 0.5 5.5t0.5 5.5v6h149q0 -85 -29.5 -204.5t-78.5 -199.5z" />
    <glyph glyph-name="ampersand.alt2" unicode="&#xf016;" horiz-adv-x="1335" 
d="M1047 265l219 -265h-176l-125 150q-173 -189 -415 -189q-197 0 -325.5 110t-128.5 290q0 118 54 201t150 151q35 25 69 33t58 2t43 -16t28 -20l9 -9q-11 -8 -48.5 -33t-51 -35t-44.5 -34t-44.5 -38.5t-35 -40t-30.5 -47t-17 -49.5t-8 -58q0 -116 86 -198.5t202 -87.5
q109 -5 207 42.5t159 126.5l-375 452q-11 14 -49 59t-51 61.5t-42.5 55t-41 60.5t-27.5 54.5t-22 61t-6 57.5q0 137 95 229.5t235 92.5q68 0 124 -22.5t91 -57t58.5 -78.5t33 -83.5t9.5 -75.5q0 -50 -20 -98.5t-43.5 -81t-67.5 -71.5t-65 -54t-64 -44q-2 -2 -3 -2.5t-3 -2
t-3.5 -2.5t-3.5 -2t-3 -2l315 -379q53 134 53 291h149q0 -85 -29.5 -204.5t-78.5 -199.5zM399 1124q0 -19 5.5 -40t18.5 -44.5t23 -41t31 -44t30.5 -38t33 -38.5t26.5 -31q227 155 227 277q0 50 -20.5 89t-52 59.5t-63.5 30.5t-61 10q-31 0 -62 -9t-63.5 -28.5t-52.5 -59
t-20 -92.5z" />
    <glyph glyph-name="a.alt1" unicode="&#xf017;" horiz-adv-x="1011" 
d="M510 1083q104 0 192 -32.5t146 -102.5t58 -164v-783h-122v598q-79 -31 -166 -31h-164q-110 0 -184.5 -62.5t-74.5 -184.5q0 -99 71 -165.5t188 -66.5q129 0 229.5 80t100.5 177q0 -183 -92 -276.5t-235 -93.5q-176 0 -285 102.5t-109 246.5q0 159 115.5 254t280.5 95h218
q47 0 77 30t30 80q0 88 -76.5 138t-197.5 50q-172 0 -244 -154h-137q9 30 21.5 58t42.5 68t69 68.5t104 49.5t144 21z" />
    <glyph glyph-name="a.alt2" unicode="&#xf018;" horiz-adv-x="1011" 
d="M510 1083q104 0 192 -32.5t146 -102.5t58 -164v-783h-122v783q0 88 -76.5 138t-197.5 50q-65 0 -116.5 -22t-81 -57.5t-44 -79t-11 -88.5t23.5 -84v-1q83 34 178 34h218q47 0 77 30t30 80q0 -52 -7.5 -91t-23 -61.5t-30 -36.5t-37.5 -19.5t-35 -6.5t-33 -1h-164
q-110 0 -184.5 -62.5t-74.5 -184.5q0 -99 71 -165.5t188 -66.5q129 0 229.5 80t100.5 177q0 -172 -87.5 -268.5t-239.5 -101.5q-175 -6 -284.5 99t-109.5 250q0 155 114 253l-1 -1q-29 71 -34.5 143.5t15.5 137.5t64.5 115.5t118 80t170.5 29.5z" />
    <glyph glyph-name="a.alt3" unicode="&#xf019;" horiz-adv-x="1003" 
d="M440 89q129 0 229.5 80t100.5 177q0 -172 -88 -268.5t-240 -101.5q-175 -6 -284 99t-109 250q0 159 115.5 254t280.5 95h217q47 0 77.5 30.5t30.5 79.5q0 -52 -7.5 -91t-23 -61.5t-30 -36.5t-37.5 -19.5t-35 -6.5t-33 -1h-164q-110 0 -185 -62.5t-75 -184.5
q0 -99 71.5 -165.5t188.5 -66.5zM739 1083q63 0 107.5 -45t44.5 -108v-929h-121v783v188h-541v111h510z" />
    <glyph glyph-name="a.alt4" unicode="&#xf01a;" horiz-adv-x="1075" 
d="M454 89q129 0 229.5 80t100.5 177q0 -172 -87.5 -268.5t-239.5 -101.5q-175 -6 -284.5 99t-109.5 250q0 159 115.5 254t280.5 95h218q47 0 77 30t30 80q0 -52 -7.5 -91t-23 -61.5t-30 -36.5t-37.5 -19.5t-35 -6.5t-33 -1h-164q-110 0 -184.5 -62.5t-74.5 -184.5
q0 -99 71 -165.5t188 -66.5zM906 111h132v-110h-132q-33 0 -56.5 12t-36 28t-19.5 42t-8.5 45t-1.5 44v612q0 88 -76.5 138t-197.5 50q-172 0 -244 -154h-137q9 30 21.5 58t42.5 68t69 68.5t104 49.5t144 21q104 0 192 -32.5t146 -102.5t58 -164v-673z" />
    <glyph glyph-name="Q.alt1" unicode="&#xf01b;" horiz-adv-x="1531" 
d="M1466 716q0 -186 -72 -344.5t-201 -262.5l232 -232l-86 -86l-1117 1118q-23 -94 -23 -193q0 -144 44 -271.5t116 -212.5t168 -124.5t195 -15.5q61 15 89 62t17 103t-55 100q63 -63 89 -128.5t16 -117t-50.5 -89.5t-104.5 -51q-119 -24 -225 5.5t-183 101t-134 172
t-85 220.5t-28 246q0 156 50 294.5t139 240.5t219.5 161.5t283.5 59.5t286 -59.5t224.5 -161.5t143.5 -241t52 -294zM1105 197q110 87 170 223.5t60 295.5q0 129 -40 244t-113 202t-182.5 138t-239.5 51q-172 0 -299 -84.5t-195 -230.5z" />
    </font>
</defs>
</svg>
