<?xml version="1.0" standalone="no"?>
<!DOCTYPE svg PUBLIC "-//W3C//DTD SVG 1.1//EN" "http://www.w3.org/Graphics/SVG/1.1/DTD/svg11.dtd" >
<svg xmlns="http://www.w3.org/2000/svg" xmlns:xlink="http://www.w3.org/1999/xlink" version="1.1">
<metadata>
Created by FontForge 20170731 at Thu Dec  7 22:11:58 2023
 By Aleksey,,,
</metadata>
<defs>
<font id="AlmiregoLight" horiz-adv-x="1011" >
  <font-face 
    font-family="Almirego Light"
    font-weight="300"
    font-stretch="normal"
    units-per-em="2048"
    panose-1="0 0 0 0 0 0 0 0 0 0"
    ascent="1638"
    descent="-410"
    x-height="1056"
    cap-height="1433"
    bbox="-156 -434 2386 1942"
    underline-thickness="0"
    underline-position="0"
    unicode-range="U+000A-FB02"
  />
<missing-glyph horiz-adv-x="1079" 
d="M102 1434h875v-1434h-875v1434zM160 1393l379 -633l381 633h-760zM514 717l-369 614v-1231zM541 674l-379 -631h758zM565 717l371 -621v1239z" />
    <glyph glyph-name="tt.liga" unicode="tt" horiz-adv-x="1132" 
d="M1091 947h-209v-675q0 -64 38.5 -106.5t100.5 -42.5h70v-123h-70q-105 0 -182.5 75t-77.5 185v687h-417v-675q0 -64 38.5 -106.5t100.5 -42.5h71v-123h-71q-105 0 -182.5 75t-77.5 185v687h-207v110h207v376h121v-376h417v376h121v-376h209v-110z" />
    <glyph glyph-name="fi.liga" unicode="fi" horiz-adv-x="974" 
d="M344 1161v-104h210v-110h-210v-947h-121v947h-207v110h207v117q0 106 76 183t184 77h71v-123h-71q-62 0 -100.5 -43t-38.5 -107zM862 0h-121v1057h121v-1057zM802 1313q-34 0 -57.5 17.5t-23.5 42.5t23.5 43t57.5 18t58 -18t24 -43t-24 -42.5t-58 -17.5z" />
    <glyph glyph-name="fl.liga" unicode="fl" horiz-adv-x="974" 
d="M344 1161v-104h210v-110h-210v-947h-121v947h-207v110h207v117q0 106 76 183t184 77h71v-123h-71q-62 0 -100.5 -43t-38.5 -107zM862 0h-121v1434h121v-1434z" />
    <glyph glyph-name=".notdef" horiz-adv-x="1079" 
d="M102 1434h875v-1434h-875v1434zM160 1393l379 -633l381 633h-760zM514 717l-369 614v-1231zM541 674l-379 -631h758zM565 717l371 -621v1239z" />
    <glyph glyph-name=".null" horiz-adv-x="0" 
 />
    <glyph glyph-name=".null" horiz-adv-x="0" 
 />
    <glyph glyph-name="nonmarkingreturn" horiz-adv-x="682" 
 />
    <glyph glyph-name="controlLF" unicode="&#xa;" horiz-adv-x="0" 
 />
    <glyph glyph-name="controlCR" unicode="&#xd;" horiz-adv-x="0" 
 />
    <glyph glyph-name="space" unicode=" " horiz-adv-x="524" 
 />
    <glyph glyph-name="exclam" unicode="!" horiz-adv-x="401" 
d="M232 294h-63q-33 867 -33 1140h128q0 -122 -8 -407t-16 -509zM200 134q37 0 63.5 -19.5t26.5 -47.5t-26.5 -47t-63.5 -19t-63 19t-26 47t26 47.5t63 19.5z" />
    <glyph glyph-name="quotedbl" unicode="&#x22;" horiz-adv-x="665" 
d="M123 861q-4 100 -16.5 304t-12.5 269h144q0 -65 -12.5 -269t-16.5 -304h-86zM427 1434h144q0 -65 -12.5 -269t-16.5 -304h-86q-4 100 -16.5 304t-12.5 269z" />
    <glyph glyph-name="numbersign" unicode="#" horiz-adv-x="1269" 
d="M1157 894h-241l-94 -351h240l-26 -98h-241l-119 -444h-109l119 444h-252l-120 -444h-109l120 444h-241l26 98h241l95 351h-241l27 98h241l119 442h109l-120 -442h253l119 442h109l-119 -442h241zM713 543l95 351h-253l-95 -351h253z" />
    <glyph glyph-name="dollar" unicode="$" horiz-adv-x="1323" 
d="M867 740q50 -10 95 -25t93 -43.5t82.5 -65.5t57 -94.5t22.5 -126.5q0 -166 -146.5 -289t-359.5 -134v-193h-103v195q-122 11 -221 59t-159.5 118.5t-93 153t-32.5 168.5h133q0 -55 24 -114t68 -114t118 -95.5t163 -51.5v566l-126 23q-148 28 -237.5 116t-93.5 228
q0 159 131.5 275.5t325.5 133.5v120h103v-119q112 -8 202 -50t146.5 -106t86 -141.5t29.5 -160.5h-131q0 70 -36.5 141t-115 127.5t-181.5 67.5v-541zM608 787v522q-145 -15 -235.5 -99.5t-90.5 -187.5q0 -86 68 -141.5t174 -77.5q1 0 11.5 -2t31.5 -6.5t41 -7.5zM711 85
q150 11 262 100t112 200q0 89 -72 148t-186 81q-9 3 -116 22v-551z" />
    <glyph glyph-name="percent" unicode="%" horiz-adv-x="1632" 
d="M715 1033q0 -167 -86 -261.5t-224 -95.5q-138 1 -224.5 95.5t-86.5 261.5q0 166 87.5 261.5t223.5 95.5t223 -96t87 -261zM198 1033q0 -120 54 -192.5t153 -73.5q99 1 153 73.5t54 192.5q0 117 -59.5 190.5t-147.5 75.5q-88 -2 -147.5 -75.5t-59.5 -190.5zM1228 676
q136 0 223 -96t87 -262q0 -167 -86 -261.5t-224 -95.5q-138 1 -224.5 95.5t-86.5 261.5q0 166 87.5 262t223.5 96zM1228 52q99 1 153 73.5t54 192.5q0 117 -59.5 191t-147.5 76q-88 -2 -147.5 -76t-59.5 -191q0 -120 54 -192.5t153 -73.5zM1271 1374h130l-1037 -1413h-130z
" />
    <glyph glyph-name="ampersand" unicode="&#x26;" horiz-adv-x="1382" 
d="M1300 671v-121h-489l455 -549h-176l-124 150q-173 -190 -416 -190q-197 0 -325.5 110.5t-128.5 290.5q0 47 10.5 89.5t24 74.5t42 67t48.5 55.5t61 51.5t61.5 44.5t67.5 43.5q11 7 17 11q-160 188 -160 314q0 137 95 229t235 92q67 0 122 -21.5t89.5 -55t59 -76
t34.5 -81.5t11 -75h-120q0 50 -20.5 88.5t-52 59t-63.5 30.5t-61 10q-24 0 -49 -5t-52.5 -18t-48 -33.5t-34.5 -54.5t-14 -77q0 -32 15 -69.5t45.5 -80t55 -73.5t66 -78t57.5 -66q59 -71 72 -87h590zM882 252l-375 452q-9 -7 -48 -33t-51.5 -35t-44.5 -34t-45 -39t-34.5 -40
t-30.5 -47t-17 -49.5t-8 -58.5q0 -116 86 -198t202 -87q108 -5 206 42.5t160 126.5z" />
    <glyph glyph-name="quotesingle" unicode="'" horiz-adv-x="397" 
d="M170 1434h147l-135 -471h-96z" />
    <glyph glyph-name="quotesingle" unicode="&#x2019;" horiz-adv-x="397" 
d="M170 1434h147l-135 -471h-96z" />
    <glyph glyph-name="quotesingle" unicode="&#x2018;" horiz-adv-x="397" 
d="M170 1434h147l-135 -471h-96z" />
    <glyph glyph-name="parenleft" unicode="(" horiz-adv-x="770" 
d="M255 556q0 -289 109 -536t294 -396h-136q-120 80 -215.5 232.5t-146.5 336t-51 363.5q0 264 119 530t294 388h134q-181 -153 -291 -396t-110 -522z" />
    <glyph glyph-name="parenright" unicode=")" horiz-adv-x="772" 
d="M249 1474q175 -122 294 -388t119 -530q0 -180 -51 -363.5t-146.5 -336t-215.5 -232.5h-136q185 149 293.5 396t108.5 536q0 279 -110 522t-291 396h135z" />
    <glyph glyph-name="asterisk" unicode="*" horiz-adv-x="784" 
d="M694 1196l-218 -125l218 -126l-43 -73l-217 126v-251h-84v251l-218 -126l-42 73l218 126l-218 125l42 73l218 -125v251h84v-251l217 125z" />
    <glyph glyph-name="plus" unicode="+" horiz-adv-x="1155" 
d="M636 561h443v-117h-443v-443h-117v443h-443v117h443v443h117v-443z" />
    <glyph glyph-name="comma" unicode="," horiz-adv-x="329" 
d="M111 214h147l-135 -471h-96z" />
    <glyph glyph-name="hyphen" unicode="-" horiz-adv-x="628" 
d="M565 444h-502v117h502v-117z" />
    <glyph glyph-name="period" unicode="." horiz-adv-x="337" 
d="M168 1q-40 0 -69 26.5t-29 64.5q0 37 28.5 63.5t69.5 26.5t70 -26.5t29 -63.5t-29 -64t-70 -27z" />
    <glyph glyph-name="slash" unicode="/" horiz-adv-x="888" 
d="M702 1434h136l-651 -1433h-136z" />
    <glyph glyph-name="zero" unicode="0" horiz-adv-x="1181" 
d="M590 1434q119 0 212 -57.5t151.5 -158.5t88.5 -233t30 -287t-30 -287t-88.5 -233t-151.5 -158.5t-212 -57.5t-212 57.5t-151 158.5t-88 233t-30 287t30 287t88 233t151 158.5t212 57.5zM590 83q84 0 151.5 50t110.5 135.5t65.5 195.5t22.5 234t-22.5 234t-65.5 195.5
t-110.5 135.5t-151.5 50t-151.5 -50t-110.5 -135.5t-65.5 -195.5t-22.5 -234t22.5 -234t65.5 -195.5t110.5 -135.5t151.5 -50z" />
    <glyph glyph-name="one" unicode="1" horiz-adv-x="712" 
d="M475 1408h114v-1408h-131v1073q-3 -4 -10 -11.5t-36.5 -26.5t-68.5 -33t-110.5 -26t-158.5 -12v109q64 0 116.5 6.5t91.5 16.5t69.5 27.5t50.5 34.5t34 43t21.5 47t11.5 52t5 53t1 55z" />
    <glyph glyph-name="two" unicode="2" horiz-adv-x="1169" 
d="M265 901h-131q0 97 27 184.5t80.5 163t146 124.5t212.5 59q124 10 232 -48.5t171 -165.5t63 -234q0 -225 -237 -364q-326 -182 -395 -229q-76 -52 -119.5 -116.5t-58.5 -153.5h803v-121h-959q0 107 18 180l1 3q57 214 264 337q55 32 150 85.5t163 90.5l67 37h1
q84 49 127.5 108t43.5 146q0 142 -100.5 239t-234.5 84q-70 -7 -127.5 -36t-95.5 -70.5t-63.5 -93.5t-37 -104.5t-11.5 -104.5z" />
    <glyph glyph-name="three" unicode="3" horiz-adv-x="1210" 
d="M493 799h107q137 3 227 74t90 176q0 106 -97.5 185t-227.5 79q-30 0 -62.5 -5t-81.5 -26.5t-86.5 -56.5t-64.5 -103t-27 -159h-132q0 85 17.5 155t46 118t68.5 84.5t80.5 57.5t86.5 34t83 17.5t73 4.5q188 0 321.5 -112.5t133.5 -272.5q0 -56 -21.5 -108.5t-54.5 -90
t-67.5 -64t-66.5 -39.5q37 -8 79 -32.5t85.5 -65.5t72 -106t28.5 -141q0 -88 -38 -168.5t-103 -140.5t-159 -95.5t-200 -35.5q-31 0 -65.5 3t-85.5 15t-96.5 32t-93.5 56.5t-82 85t-56 123t-22 164.5h132q0 -83 27 -148.5t67.5 -103.5t92.5 -63t96 -34t85 -9q154 0 262 99.5
t108 224.5q0 124 -103 197t-264 74h-112v121z" />
    <glyph glyph-name="four" unicode="4" horiz-adv-x="1181" 
d="M887 488h211v-121h-211v-367h-131v367h-674v157l655 909h150v-945zM205 488h551v772z" />
    <glyph glyph-name="five" unicode="5" horiz-adv-x="1183" 
d="M590 924q131 6 244.5 -59t180 -178t66.5 -244q0 -201 -136 -336t-355 -145q-122 -5 -233.5 44t-182 144.5t-70.5 213.5h132q0 -78 52.5 -146t134.5 -104t167 -31q160 10 260 112.5t100 247.5q0 144 -106.5 252.5t-253.5 108.5q-104 0 -179 -45.5t-118 -123.5h-143l76 774
h774v-131h-666l-48 -482q76 64 143 94t161 34z" />
    <glyph glyph-name="six" unicode="6" horiz-adv-x="1196" 
d="M642 915q104 0 189 -34.5t140.5 -94.5t85 -139.5t29.5 -170.5q0 -221 -137 -368t-338 -147q-140 0 -244 61.5t-161 166.5t-80.5 234t-13.5 275q10 154 45.5 281t97 226.5t155 159t213.5 68.5q110 8 209.5 -38t162 -137t62.5 -204h-130q-18 124 -105.5 195.5t-198.5 61.5
q-117 -10 -198 -93t-121.5 -216.5t-47.5 -314.5q57 103 160.5 165.5t225.5 62.5zM603 82q152 0 252 102t100 282q0 141 -92 235t-246 94t-253 -101t-99 -242q0 -151 97 -260.5t241 -109.5z" />
    <glyph glyph-name="seven" unicode="7" horiz-adv-x="1110" 
d="M53 1409h993v-68l-667 -1341h-148l637 1278h-815v131z" />
    <glyph glyph-name="eight" unicode="8" horiz-adv-x="1206" 
d="M838 758q114 -44 187 -145t73 -217q0 -118 -66.5 -218t-180.5 -158t-249 -58t-249 58t-180.5 158t-66.5 218q0 116 73.5 217t187.5 145q-90 42 -147.5 123t-57.5 174q0 157 129 268t311 111t311.5 -111t129.5 -268q0 -93 -57.5 -174t-147.5 -123zM292 1055
q0 -108 90.5 -174t219.5 -66t219.5 66t90.5 174q0 110 -91.5 184t-218.5 74t-218.5 -74t-91.5 -184zM602 83q149 0 256.5 90t107.5 223q0 131 -106.5 213t-257.5 82t-257.5 -82t-106.5 -213q0 -133 107.5 -223t256.5 -90z" />
    <glyph glyph-name="nine" unicode="9" horiz-adv-x="1183" 
d="M545 481q-138 0 -238.5 60t-149 158t-48.5 221q0 222 133.5 368t333.5 146q113 0 202 -40.5t146.5 -110t93.5 -164t48 -200t4 -221.5q-23 -344 -144.5 -530.5t-361.5 -205.5q-110 -8 -209.5 38t-162 137t-62.5 204h130q18 -124 105.5 -195.5t198.5 -61.5q344 31 367 625
q-57 -103 -160.5 -165.5t-225.5 -62.5zM584 1314q-151 0 -248 -102t-97 -283q0 -141 89 -234.5t242 -93.5q154 0 253 101t99 241q0 98 -43 183t-121.5 136.5t-173.5 51.5z" />
    <glyph glyph-name="colon" unicode=":" horiz-adv-x="366" 
d="M183 1q-41 0 -70 27t-29 64t29 63.5t70 26.5t69.5 -26.5t28.5 -63.5q0 -38 -29 -64.5t-69 -26.5zM183 782q-41 0 -70 27t-29 64t29 64t70 27q40 0 69 -26.5t29 -64.5t-29 -64.5t-69 -26.5z" />
    <glyph glyph-name="semicolon" unicode=";" horiz-adv-x="376" 
d="M193 782q-40 0 -69 26.5t-29 64.5t29 64.5t69 26.5q41 0 70 -27t29 -64t-29 -64t-70 -27zM39 -257l84 471h147l-135 -471h-96z" />
    <glyph glyph-name="less" unicode="&#x3c;" horiz-adv-x="1210" 
d="M1122 1057v-122l-988 -411l988 -401v-122l-1036 418v209z" />
    <glyph glyph-name="equal" unicode="=" horiz-adv-x="1159" 
d="M1081 242h-1003v117h1003v-117zM1081 647h-1003v116h1003v-116z" />
    <glyph glyph-name="greater" unicode="&#x3e;" horiz-adv-x="1210" 
d="M88 1057l1036 -429v-209l-1036 -418v122l988 401l-988 411v122z" />
    <glyph glyph-name="question" unicode="?" horiz-adv-x="1062" 
d="M518 134q37 0 63 -19.5t26 -47.5t-26 -47t-63 -19t-63.5 19t-26.5 47t26.5 47.5t63.5 19.5zM528 1473q185 0 315.5 -114.5t130.5 -276.5q0 -164 -169 -289q-129 -95 -175 -190.5t-46 -277.5h-131v71q0 158 59.5 268.5t175.5 194.5l24 17q24 18 34.5 26.5t33 30.5
t33.5 41.5t20.5 48t9.5 59.5q0 113 -93.5 192t-221.5 79q-94 0 -167.5 -51.5t-110.5 -131.5t-37 -171h-131q0 127 52 233.5t155.5 173.5t238.5 67z" />
    <glyph glyph-name="at" unicode="@" horiz-adv-x="1855" 
d="M928 1395q168 0 321 -65.5t263.5 -176t176 -263.5t65.5 -321q0 -166 -81 -284t-216 -143q-57 -10 -106 5t-80 47t-49.5 66.5t-23.5 67.5q-103 -164 -305 -164q-106 0 -190 62.5t-125.5 153.5t-41.5 189t41.5 189t125.5 153.5t190 62.5q98 0 179 -40.5t126 -111.5v126h97
v-545q0 -68 42 -111.5t112 -30.5q60 11 103.5 60.5t62 113.5t18.5 134q0 190 -95 352t-257.5 257t-352.5 95q-193 0 -355 -93.5t-255.5 -255.5t-93.5 -355q0 -196 93.5 -358t255 -254.5t355.5 -92.5q215 0 367 99v-134q-174 -86 -367 -86q-168 0 -321 65.5t-263.5 176
t-176 263.5t-65.5 321t65.5 321t176 263.5t263.5 176t321 65.5zM943 254q83 0 142.5 46.5t86 116.5t26.5 152t-26.5 152t-86 116.5t-142.5 46.5q-128 0 -207 -90.5t-79 -224.5t79 -224.5t207 -90.5z" />
    <glyph glyph-name="A" unicode="A" horiz-adv-x="1292" 
d="M763 1433l519 -1433h-139l-161 445h-677l-158 -445h-139l507 1433h248zM349 568h588l-298 820z" />
    <glyph glyph-name="B" unicode="B" horiz-adv-x="1302" 
d="M1009 765q68 -21 121.5 -82.5t79 -135t25.5 -143.5q0 -105 -50.5 -197t-144.5 -149.5t-208 -57.5h-709v1433h639q95 0 174 -34.5t128 -91t75.5 -124t26.5 -137.5q0 -86 -42.5 -165.5t-114.5 -115.5zM782 1310h-528v-499h529q113 0 183 61t70 175q0 113 -73 188t-181 75z
M856 124q102 0 175 73t73 207q0 114 -72 200t-177 86h-601v-567z" />
    <glyph glyph-name="C" unicode="C" horiz-adv-x="1378" 
d="M1172 450q4 18 6 28h138q-22 -109 -69 -198t-107.5 -147.5t-134.5 -98t-149.5 -56.5t-153.5 -17q-151 0 -272.5 59t-199.5 162.5t-120 240t-42 294.5q0 209 78 380.5t223.5 273.5t330.5 102q117 0 215 -29t167 -78t120.5 -116.5t80 -140.5t40.5 -154h-134q-4 20 -6 29
q-21 84 -54.5 147.5t-88 115.5t-138 79t-194.5 27q-146 0 -264 -90t-181.5 -235t-63.5 -311q0 -126 34 -240t97 -202.5t161 -141t217 -52.5q160 0 283.5 95.5t180.5 273.5z" />
    <glyph glyph-name="D" unicode="D" horiz-adv-x="1359" 
d="M694 1434q123 0 232.5 -52.5t190 -144.5t128 -227.5t47.5 -292.5q0 -196 -73 -358.5t-211 -260.5t-314 -98h-571v1434h571zM695 123q131 3 238.5 84t167.5 216t60 294q0 162 -59.5 298t-167 216t-240.5 80h-440v-1188h441z" />
    <glyph glyph-name="E" unicode="E" horiz-adv-x="1226" 
d="M1176 1310h-924v-534h847v-121h-847v-531h924v-124h-1055v1433h1055v-123z" />
    <glyph glyph-name="F" unicode="F" horiz-adv-x="1142" 
d="M1125 1310h-873v-534h746v-121h-746v-655h-131v1433h1004v-123z" />
    <glyph glyph-name="G" unicode="G" horiz-adv-x="1437" 
d="M1339 0h-118v274q-58 -133 -191.5 -223t-327.5 -90q-151 0 -272.5 59t-199.5 162.5t-120 240t-42 294.5q0 209 78 380.5t223.5 273.5t330.5 102q145 0 260.5 -43.5t188.5 -118t116 -163.5t58 -192h-121l-9 -5q-38 183 -162 291.5t-326 108.5q-113 0 -208.5 -51.5
t-160.5 -138t-101 -202t-36 -242.5q0 -129 32.5 -242.5t94 -201.5t159.5 -139t220 -51q220 0 357.5 154.5t159.5 407.5h-516v131h633v-776z" />
    <glyph glyph-name="H" unicode="H" horiz-adv-x="1372" 
d="M1117 1433h133v-1433h-133v688h-865v-688h-131v1433h131v-624h865v624z" />
    <glyph glyph-name="I" unicode="I" horiz-adv-x="374" 
d="M252 0h-131v1433h131v-1433z" />
    <glyph glyph-name="J" unicode="J" horiz-adv-x="960" 
d="M716 1434h131v-1061q0 -168 -119.5 -290t-291.5 -122q-170 0 -290.5 121t-120.5 291v89h131v-84q0 -118 82.5 -207t197.5 -89q112 0 193.5 85t86.5 199v1068z" />
    <glyph glyph-name="K" unicode="K" horiz-adv-x="1294" 
d="M647 883l646 -883h-162l-578 794l-301 -288v-506h-131v1433h131v-759l796 759h175z" />
    <glyph glyph-name="L" unicode="L" horiz-adv-x="1036" 
d="M252 124h782v-124h-913v1433h131v-1309z" />
    <glyph glyph-name="M" unicode="M" horiz-adv-x="1669" 
d="M1347 1433h200v-1433h-132v1264l-512 -1264h-139l-512 1264v-1264h-131v1433h200l513 -1269z" />
    <glyph glyph-name="N" unicode="N" horiz-adv-x="1376" 
d="M1121 1433h131v-1433h-161l-837 1261v-1261h-131v1433l161 1l837 -1262v1261z" />
    <glyph glyph-name="O" unicode="O" horiz-adv-x="1525" 
d="M756 1473q153 0 286 -59.5t224.5 -161.5t143.5 -241t52 -294t-52 -294t-143.5 -241t-224.5 -161.5t-286 -59.5q-204 0 -363.5 102t-244.5 273.5t-85 380.5t85 380.5t244.5 273.5t363.5 102zM756 82q130 0 239.5 51t182.5 138t113 202t40 244t-40 244t-113 202t-182.5 138
t-239.5 51t-237.5 -51t-177.5 -138t-108 -202t-38 -244t38 -244t108 -202t177.5 -138t237.5 -51z" />
    <glyph glyph-name="P" unicode="P" horiz-adv-x="1224" 
d="M783 1433q170 0 286 -119t116 -285q0 -119 -44.5 -213.5t-137 -152t-220.5 -57.5l-530 1v-607h-130v1434zM783 727q73 0 127 24t84 66t44.5 91.5t14.5 107.5q0 75 -25 133.5t-65.5 92t-86.5 50.5t-93 17l-530 1v-582z" />
    <glyph glyph-name="Q" unicode="Q" horiz-adv-x="1527" 
d="M1462 717q0 -186 -72 -345t-201 -263l232 -232l-86 -85l-249 249q-148 -80 -330 -80q-204 0 -363.5 102t-244.5 273.5t-85 380.5t85 380.5t244.5 273.5t363.5 102q153 0 286 -59.5t224.5 -161.5t143.5 -241t52 -294zM1101 197q110 86 170 223.5t60 296.5q0 129 -40 244
t-113 202t-182.5 138t-239.5 51t-237.5 -51t-177.5 -138t-108 -202t-38 -244t38 -244t108 -202t177.5 -138t237.5 -51t239 50l-167 167l86 85z" />
    <glyph glyph-name="R" unicode="R" horiz-adv-x="1298" 
d="M828 606l425 -606h-161l-424 606l-415 1v-607h-130v1434l698 -1q170 0 286 -119t116 -285q0 -182 -104 -301t-291 -122zM253 728l568 -1q73 0 127 24t84 66t44.5 91.5t14.5 107.5q0 75 -25 133.5t-65.5 92t-86.5 50.5t-93 17l-568 1v-582z" />
    <glyph glyph-name="S" unicode="S" horiz-adv-x="1241" 
d="M849 747q325 -79 325 -362q0 -116 -74 -214.5t-202.5 -155.5t-280.5 -54q-108 2 -200.5 32.5t-157.5 80t-110.5 113.5t-67.5 134t-22 141h133q0 -46 16 -96t51 -99.5t83 -89t118.5 -65.5t152.5 -29q108 -4 208 37.5t160.5 113t60.5 151.5q0 87 -62.5 149t-169.5 88
l-397 95q-298 71 -305 344q0 112 68.5 207t186.5 150t257 55q123 0 223 -39.5t161.5 -105.5t94.5 -147t33 -168h-131q0 56 -25.5 114t-71.5 109t-120.5 83.5t-163.5 32.5q-167 0 -274 -88t-107 -202q0 -75 60.5 -134.5t156.5 -84.5z" />
    <glyph glyph-name="T" unicode="T" horiz-adv-x="1165" 
d="M0 1434h1163v-124h-517v-1310h-131v1310h-515v124z" />
    <glyph glyph-name="U" unicode="U" horiz-adv-x="1343" 
d="M1238 1434v-906q0 -118 -46 -224t-123 -181t-181 -118.5t-217 -43.5t-217 43.5t-181 118.5t-123 181t-46 224v906h132v-900q0 -118 58 -221.5t159 -165.5t218 -62t218 62t159 165.5t58 221.5v900h132z" />
    <glyph glyph-name="V" unicode="V" horiz-adv-x="1267" 
d="M1118 1433h139l-494 -1433h-248l-507 1433h139l492 -1387z" />
    <glyph glyph-name="W" unicode="W" horiz-adv-x="1894" 
d="M1730 1433h137l-333 -1433h-234l-353 1336l-353 -1336h-235l-332 1433h136l319 -1387l364 1387h202l363 -1387z" />
    <glyph glyph-name="X" unicode="X" horiz-adv-x="1198" 
d="M686 736l501 -736h-172l-416 642l-428 -642h-163l508 736l-476 697h171l397 -601l393 601h161z" />
    <glyph glyph-name="Y" unicode="Y" horiz-adv-x="1267" 
d="M1116 1433h157l-574 -905v-528h-131v528l-574 905h157l483 -791z" />
    <glyph glyph-name="Z" unicode="Z" horiz-adv-x="1179" 
d="M1153 1434v-81l-933 -1232h933v-121h-1133v75l937 1238h-872v121h1068z" />
    <glyph glyph-name="bracketleft" unicode="[" horiz-adv-x="598" 
d="M520 1326h-276v-1594h276v-108h-397v1810h397v-108z" />
    <glyph glyph-name="backslash" unicode="\" horiz-adv-x="888" 
d="M185 1434l651 -1433h-136l-651 1433h136z" />
    <glyph glyph-name="bracketright" unicode="]" horiz-adv-x="598" 
d="M78 1434h397v-1810h-397v108h276v1594h-276v108z" />
    <glyph glyph-name="asciicircum" unicode="^" horiz-adv-x="1046" 
d="M623 1436l348 -839h-122l-330 791l-321 -791h-122l339 839h208z" />
    <glyph glyph-name="underscore" unicode="_" horiz-adv-x="1320" 
d="M1198 -244h-1075v78h1075v-78z" />
    <glyph glyph-name="grave" unicode="`" horiz-adv-x="444" 
d="M199 1474l178 -281h-96l-258 281h176z" />
    <glyph glyph-name="a" unicode="a" 
d="M510 1082q104 0 192 -32.5t146 -102.5t58 -164v-783h-122v172q-8 -19 -23.5 -41t-44.5 -49.5t-64 -50t-86.5 -38.5t-108.5 -18q-175 -6 -284.5 99t-109.5 250q0 159 115.5 254.5t280.5 95.5h218q47 0 77 30t30 79q0 88 -76.5 138.5t-197.5 50.5q-172 0 -244 -155h-137
q9 30 21.5 58t42.5 68t69 68.5t104 49.5t144 21zM784 346v252q-76 -30 -166 -30h-164q-110 0 -184.5 -62.5t-74.5 -184.5q0 -99 71 -165.5t188 -66.5q129 0 229.5 80t100.5 177z" />
    <glyph glyph-name="b" unicode="b" horiz-adv-x="1075" 
d="M561 1058q122 0 225 -72.5t163 -197t60 -271.5t-60 -271.5t-163 -197t-225 -72.5q-111 0 -195 46.5t-132 137.5v-159h-121v1434h121v-561q49 91 136 137.5t191 46.5zM561 86q131 0 223.5 125.5t92.5 305.5t-92.5 305t-223.5 125q-141 0 -234 -109.5t-93 -320.5t93 -321
t234 -110z" />
    <glyph glyph-name="c" unicode="c" horiz-adv-x="1085" 
d="M879 376v1h142q-38 -181 -158.5 -291.5t-306.5 -110.5q-217 0 -351.5 146.5t-134.5 407.5q0 258 135.5 405.5t345.5 147.5q188 0 314.5 -110.5t160.5 -307.5h-133q-31 152 -120.5 230t-217.5 78q-148 0 -248.5 -123t-100.5 -320q0 -203 91 -323.5t259 -120.5
q241 0 323 291z" />
    <glyph glyph-name="d" unicode="d" horiz-adv-x="1075" 
d="M840 1435h121v-1434h-121v159q-48 -91 -132 -137.5t-195 -46.5q-121 0 -224 72.5t-163 197t-60 271.5t60 271.5t163 197t224 72.5q104 0 191 -46.5t136 -137.5v561zM513 86q141 0 234 110t93 321t-93 320.5t-234 109.5q-131 0 -223.5 -125t-92.5 -305t92.5 -305.5
t223.5 -125.5z" />
    <glyph glyph-name="e" unicode="e" horiz-adv-x="1097" 
d="M1031 529v-33h-840q9 -190 109.5 -299t250.5 -111q118 2 207.5 71t127.5 195h126q-42 -180 -164.5 -277.5t-296.5 -99.5q-214 2 -347.5 148t-133.5 406q0 255 136 404.5t345 149.5t344.5 -149.5t135.5 -404.5zM196 608h709q-21 163 -119.5 262.5t-234.5 101.5
q-136 -2 -235 -101.5t-120 -262.5z" />
    <glyph glyph-name="f" unicode="f" horiz-adv-x="571" 
d="M344 1055h210v-110h-210v-947h-121v947h-207v110h207v117q0 106 76 183t184 77h71v-123h-71q-62 0 -100.5 -43t-38.5 -107v-104z" />
    <glyph glyph-name="g" unicode="g" horiz-adv-x="1085" 
d="M790 266q89 -25 150.5 -98t61.5 -188q0 -97 -62 -179t-169 -130t-233 -48t-233 48t-169 130t-62 179q0 10 2 28h124q-2 -14 -2 -21q0 -98 96 -177t244 -79q150 0 242.5 74t92.5 182q0 67 -45 112t-117 65t-168 20q-66 0 -145 17.5t-143 58.5q-89 58 -140.5 151.5
t-51.5 202.5q0 90 37.5 172t100.5 141.5t150.5 94.5t183.5 35q120 0 226 -54l150 150l75 -75l-134 -135q73 -62 114 -147.5t41 -181.5q0 -108 -62.5 -206t-154.5 -142zM535 294q154 0 247 90t93 229q0 133 -95 233.5t-245 100.5t-244.5 -100.5t-94.5 -233.5
q0 -139 92.5 -229t246.5 -90z" />
    <glyph glyph-name="h" unicode="h" horiz-adv-x="1071" 
d="M541 1080q107 10 204 -31t161 -135.5t64 -223.5v-690h-122v690q0 110 -84.5 194.5t-222.5 84.5q-132 0 -219.5 -85.5t-87.5 -193.5v-690h-121v1434h121v-535q42 66 120 118.5t187 62.5z" />
    <glyph glyph-name="i" unicode="i" horiz-adv-x="346" 
d="M233 -1h-121v1057h121v-1057zM174 1312q-34 0 -58 17.5t-24 42.5t24 43t58 18t57.5 -18t23.5 -43t-23.5 -42.5t-57.5 -17.5z" />
    <glyph glyph-name="j" unicode="j" horiz-adv-x="348" 
d="M175 1314q-34 0 -57.5 17.5t-23.5 42.5t23.5 43t57.5 18t58 -18t24 -43t-24 -42.5t-58 -17.5zM113 517v541h121v-923q0 -129 -17.5 -222t-47 -148.5t-78 -87.5t-99.5 -42.5t-123 -10.5v111q139 0 191.5 90.5t52.5 309.5v382z" />
    <glyph glyph-name="k" unicode="k" horiz-adv-x="1019" 
d="M484 646l518 -647h-156l-452 564l-160 -146v-418h-121v1434h121v-871l538 494h159z" />
    <glyph glyph-name="l" unicode="l" horiz-adv-x="348" 
d="M234 -1h-121v1434h121v-1434z" />
    <glyph glyph-name="m" unicode="m" horiz-adv-x="1648" 
d="M855 899q46 80 142 132t185 51q161 0 262.5 -105t101.5 -273v-704h-121v704q0 116 -81.5 191.5t-200.5 75.5q-111 0 -182.5 -71t-71.5 -171v-729h-121v729q0 108 -64.5 175t-187.5 67q-119 0 -200.5 -75.5t-81.5 -191.5v-704h-121v1057h121v-144q41 69 128.5 119
t178.5 50q106 -1 179.5 -46.5t134.5 -136.5z" />
    <glyph glyph-name="n" unicode="n" horiz-adv-x="1071" 
d="M541 1080q63 6 125.5 -7.5t117 -46t96.5 -78.5t66 -110t24 -136v-702h-122v690q0 110 -84.5 194.5t-222.5 84.5q-132 0 -219.5 -85.5t-87.5 -193.5v-690h-121v1057h121v-158q42 66 119.5 118.5t187.5 62.5z" />
    <glyph glyph-name="o" unicode="o" horiz-adv-x="1101" 
d="M551 1082q209 0 344.5 -149t135.5 -404q0 -260 -133 -406t-347 -148q-214 2 -347.5 148t-133.5 406q0 128 37 233t101.5 174.5t152.5 107.5t190 38zM551 85q157 2 258 120t101 324q0 195 -103 318t-256 125q-153 -2 -256.5 -125t-103.5 -318q0 -205 101.5 -323.5
t258.5 -120.5z" />
    <glyph glyph-name="p" unicode="p" horiz-adv-x="1075" 
d="M561 1083q122 0 225 -72.5t163 -197t60 -271.5t-60 -271.5t-163 -197t-225 -72.5q-104 0 -191 46.5t-136 137.5v-561h-121v1434h121v-159q48 91 132 137.5t195 46.5zM561 112q131 0 223.5 125t92.5 305t-92.5 305t-223.5 125q-141 0 -234 -109.5t-93 -320.5t93 -320.5
t234 -109.5z" />
    <glyph glyph-name="q" unicode="q" horiz-adv-x="1075" 
d="M840 1058h121v-1434h-121v561q-49 -91 -136 -137.5t-191 -46.5q-121 0 -224 72.5t-163 197t-60 271.5t60 271.5t163 197t224 72.5q111 0 195 -46.5t132 -137.5v159zM513 112q141 0 234 109.5t93 320.5t-93 320.5t-234 109.5q-131 0 -223.5 -125t-92.5 -305t92.5 -305
t223.5 -125z" />
    <glyph glyph-name="r" unicode="r" horiz-adv-x="661" 
d="M503 1081q72 0 141 -25v-110q-49 25 -141 25q-114 0 -191.5 -87.5t-77.5 -187.5v-697h-121v1057h121v-144q29 64 104 116.5t165 52.5z" />
    <glyph glyph-name="s" unicode="s" horiz-adv-x="995" 
d="M655 560q113 -31 162 -60q110 -66 110 -192q0 -73 -26 -131.5t-68.5 -96t-99 -62t-114.5 -34t-118 -8.5q-102 3 -186.5 35.5t-137.5 84.5t-82 115.5t-29 130.5h121q0 -99 86 -175.5t228 -80.5q128 -4 217.5 53.5t89.5 151.5q0 100 -170 149l-290 77q-135 36 -196.5 98
t-61.5 158q0 128 118 219t284 91q184 0 302 -102.5t99 -224.5h-122q-1 98 -78.5 157t-191.5 59q-117 0 -203 -49.5t-86 -134.5q0 -53 40 -90.5t103 -55.5z" />
    <glyph glyph-name="t" unicode="t" horiz-adv-x="593" 
d="M554 945h-210v-674q0 -64 38.5 -107t100.5 -43h71v-123h-71q-105 0 -182.5 75t-77.5 185v687h-207v110h207v377h121v-377h210v-110z" />
    <glyph glyph-name="u" unicode="u" horiz-adv-x="1058" 
d="M824 1057h121v-1056h-121v156q-116 -182 -321 -182q-102 0 -182.5 34t-127 89.5t-70 120.5t-23.5 134v704h121v-704q0 -110 88 -188.5t220 -78.5q81 0 150.5 49.5t107 122.5t37.5 146v653z" />
    <glyph glyph-name="v" unicode="v" horiz-adv-x="1050" 
d="M903 1056h127l-390 -1057h-222l-400 1057h127l383 -1011z" />
    <glyph glyph-name="w" unicode="w" horiz-adv-x="1447" 
d="M1287 1056h134l-308 -1056h-176l-213 879l-213 -879h-176l-308 1056h134l262 -947l230 947h142l230 -947z" />
    <glyph glyph-name="x" unicode="x" horiz-adv-x="942" 
d="M917 1056l-372 -531l368 -525h-149l-293 432l-293 -432h-149l368 525l-372 531h149l297 -439l297 439h149z" />
    <glyph glyph-name="y" unicode="y" horiz-adv-x="1032" 
d="M603 3l-92 -238q-30 -78 -82.5 -109t-131.5 -31h-88v121h128q22 0 40 12t25 31l53 146l-437 1124h135l363 -954l362 954h135z" />
    <glyph glyph-name="z" unicode="z" horiz-adv-x="917" 
d="M222 110h658v-110h-847v55l655 891h-611v110h785v-76z" />
    <glyph glyph-name="braceleft" unicode="{" horiz-adv-x="886" 
d="M473 912q0 -88 -23 -157.5t-59 -111t-85 -68.5t-95.5 -37t-96.5 -10q50 0 96.5 -10t95.5 -37t85 -68.5t59 -111t23 -157.5v-103q0 -125 87.5 -212t211.5 -87v-119q-112 0 -210.5 54.5t-159.5 154.5t-61 221v170q-1 98 -77.5 153.5t-185.5 55.5v193q109 0 185.5 55.5
t77.5 153.5v170q0 120 60 219.5t158.5 155t212.5 55.5v-119q-124 0 -211.5 -87.5t-87.5 -211.5v-104z" />
    <glyph glyph-name="verticalbar" unicode="|" horiz-adv-x="368" 
d="M244 -230h-121v1780h121v-1780z" />
    <glyph glyph-name="braceright" unicode="}" horiz-adv-x="884" 
d="M770 528q-50 0 -96.5 10t-95.5 37t-84.5 68.5t-58.5 111t-23 157.5v104q0 124 -87 211.5t-212 87.5v119q114 0 212.5 -55.5t158 -155t59.5 -219.5v-170q1 -98 77.5 -153.5t185.5 -55.5v-193q-109 0 -185.5 -55.5t-77.5 -153.5v-170q0 -121 -60.5 -221t-159 -154.5
t-210.5 -54.5v119q125 0 212 87t87 212v103q0 88 23 157.5t58.5 111t84.5 68.5t95.5 37t96.5 10z" />
    <glyph glyph-name="asciitilde" unicode="~" horiz-adv-x="792" 
d="M654 702h67q-5 -46 -25.5 -83.5t-48.5 -58t-61 -34t-64 -12t-57 8.5l-184 66q-18 5 -34 5q-40 0 -72.5 -25t-37.5 -69h-67q5 46 25.5 83.5t48.5 58t61 34t64 12t57 -8.5l184 -67q18 -5 34 -5q40 0 72.5 25.5t37.5 69.5z" />
    <glyph glyph-name="nonbreakingspace" unicode="&#xa0;" horiz-adv-x="524" 
 />
    <glyph glyph-name="exclamdown" unicode="&#xa1;" horiz-adv-x="380" 
d="M159 764h62q33 -867 33 -1140h-128q0 122 8 407t16 509zM190 924q-37 0 -63.5 19.5t-26.5 47.5t26.5 47t63.5 19t63.5 -19t26.5 -47t-26.5 -47.5t-63.5 -19.5z" />
    <glyph glyph-name="cent" unicode="&#xa2;" horiz-adv-x="1159" 
d="M912 376v2h142q-37 -181 -158.5 -291.5t-307.5 -110.5q-159 0 -273 78l-85 -124l-60 42l89 128q-157 151 -157 429q0 258 135.5 406t345.5 148q171 0 293 -93l91 131l59 -41l-96 -139q101 -109 129 -276h-133q-20 100 -69 171l-474 -684q83 -66 206 -66q241 0 323 290z
M239 529q0 -207 92 -325l477 688q-88 81 -220 81q-148 0 -248.5 -123.5t-100.5 -320.5z" />
    <glyph glyph-name="sterling" unicode="&#xa3;" horiz-adv-x="1230" 
d="M334 122h801v-121h-1043v121q129 0 212 110t83 266q0 80 -27 155h-268v89h224q-33 116 -33 229q0 129 53 234.5t151 167t221 61.5q185 0 300 -132.5t126 -333.5h-120q0 149 -84.5 247t-221.5 98q-135 0 -223 -112.5t-80 -261.5q7 -116 45 -197h323v-89h-290
q24 -105 24 -173q-4 -121 -49 -213t-124 -145z" />
    <glyph glyph-name="currency" unicode="&#xa4;" horiz-adv-x="952" 
d="M821 694q0 -120 -76 -215l112 -113l-53 -54l-113 113q-41 -33 -83 -50q-63 -26 -132 -26q-121 0 -216 76l-112 -113l-54 54l113 113q-76 95 -76 215q0 121 76 216l-113 112l54 54l112 -113q95 76 216 76q120 0 215 -76l113 113l53 -54l-112 -113q76 -95 76 -215zM666 504
q79 79 79 190t-79 190t-190 79t-190 -79t-79 -190t79 -190t190 -79t190 79z" />
    <glyph glyph-name="yen" unicode="&#xa5;" horiz-adv-x="1415" 
d="M1347 1434l-518 -817h339v-89h-395v-189h395v-89h-395v-249h-131v249h-396v89h396v189h-396v89h340l-518 817h157l482 -791l483 791h157z" />
    <glyph glyph-name="brokenbar" unicode="&#xa6;" horiz-adv-x="346" 
d="M231 813h-116v736h116v-736zM231 -231h-116v733h116v-733z" />
    <glyph glyph-name="section" unicode="&#xa7;" horiz-adv-x="1081" 
d="M748 322q86 0 154.5 -64t68.5 -161q0 -73 -26.5 -131.5t-69 -96t-99 -62t-114.5 -34t-118 -8.5q-102 3 -186.5 35.5t-137.5 84.5t-82 115.5t-29 130.5h121q0 -99 86 -175.5t228 -80.5q128 -4 217.5 53.5t89.5 152.5q0 99 -170 148l-33 9q-33 8 -82 21t-101 27t-96.5 27.5
t-61.5 20.5q-79 33 -122.5 86.5t-50.5 141.5q-6 73 34.5 138t98.5 99t111 34q-104 0 -174.5 75.5t-70.5 165.5q0 128 117.5 218.5t284.5 90.5q184 0 302 -102.5t99 -224.5h-122q-1 98 -78.5 157.5t-191.5 59.5q-117 0 -203 -50t-86 -135q0 -53 40 -90.5t103 -55.5l300 -82
q40 -11 64.5 -19t64.5 -28.5t64.5 -45t47 -66t29.5 -93.5q14 -103 -57 -194.5t-163 -91.5zM553 386q83 0 144 20t93 52t46.5 65.5t14.5 68.5q0 30 -14.5 60.5t-46 61t-93.5 49.5t-144 19q-83 0 -144 -19.5t-93 -52t-46.5 -65.5t-14.5 -68q0 -23 8.5 -47.5t30 -50.5
t53.5 -46.5t85.5 -33.5t120.5 -13z" />
    <glyph glyph-name="dieresis" unicode="&#xa8;" horiz-adv-x="561" 
d="M146 1389q34 0 57.5 -19.5t23.5 -47.5t-23.5 -47.5t-57.5 -19.5t-57 19.5t-23 47.5t23 47.5t57 19.5zM414 1389q34 0 57.5 -19.5t23.5 -47.5t-23.5 -47.5t-57.5 -19.5t-57.5 19.5t-23.5 47.5t23.5 47.5t57.5 19.5z" />
    <glyph glyph-name="copyright" unicode="&#xa9;" horiz-adv-x="1634" 
d="M1324 1225q101 -101 155.5 -232.5t54.5 -274.5t-54.5 -274.5t-155.5 -232.5t-232.5 -155.5t-274.5 -54.5t-274.5 54.5t-232.5 155.5t-155.5 232.5t-54.5 274.5t54.5 274.5t155.5 232.5t232.5 155.5t274.5 54.5t274.5 -54.5t232.5 -155.5zM1280 255q93 93 142 212t49 251
q0 131 -49 250t-142 212q-92 92 -212 142t-251 50t-250 -49.5t-212 -142.5t-142.5 -212t-49.5 -250t49.5 -250.5t142.5 -212.5t212 -142t250 -49q132 0 251.5 49t211.5 142zM825 1071q-122 0 -202.5 -105.5t-80.5 -247.5q0 -94 32 -173t97.5 -129t153.5 -50q87 0 156.5 54
t100.5 150q0 2 1 8t2 8h76q-15 -75 -50.5 -132.5t-83 -90t-99 -48.5t-106.5 -16q-165 0 -258.5 119t-93.5 300q0 115 43 210.5t124 152t183 56.5q155 0 240.5 -82.5t104.5 -204.5h-74q-1 2 -2 8t-1 8q-51 205 -263 205z" />
    <glyph glyph-name="guillemotleft" unicode="&#xab;" horiz-adv-x="1034" 
d="M569 939l-343 -413l348 -406h-150l-344 406l345 413h144zM607 526l348 -406h-150l-344 406l344 413h145z" />
    <glyph glyph-name="logicalnot" unicode="&#xac;" horiz-adv-x="1161" 
d="M68 698h1002v-428h-75v352h-927v76z" />
    <glyph glyph-name="softhyphen" unicode="&#xad;" horiz-adv-x="0" 
 />
    <glyph glyph-name="registered" unicode="&#xae;" horiz-adv-x="1634" 
d="M1324 1225q101 -101 155.5 -232.5t54.5 -274.5t-54.5 -274.5t-155.5 -232.5t-232.5 -155.5t-274.5 -54.5t-274.5 54.5t-232.5 155.5t-155.5 232.5t-54.5 274.5t54.5 274.5t155.5 232.5t232.5 155.5t274.5 54.5t274.5 -54.5t232.5 -155.5zM1280 255q93 93 142 212t49 251
q0 131 -49 250t-142 212q-92 92 -212 142t-251 50t-250 -49.5t-212 -142.5t-142.5 -212t-49.5 -250t49.5 -250.5t142.5 -212.5t212 -142t250 -49q132 0 251.5 49t211.5 142zM1139 899q0 -99 -57 -165t-160 -67l233 -333h-88l-233 333h-228v-333h-71v787h383q93 0 157 -65.5
t64 -156.5zM606 734h312q77 0 112.5 45t35.5 113q0 79 -45.5 120t-102.5 41l-312 1v-320z" />
    <glyph glyph-name="overscore" unicode="&#xaf;" horiz-adv-x="714" 
d="M663 1390h-612v83h612v-83z" />
    <glyph glyph-name="degree" unicode="&#xb0;" horiz-adv-x="559" 
d="M279 1473q82 0 139.5 -57.5t57.5 -139.5t-57.5 -139.5t-139.5 -57.5t-139.5 57.5t-57.5 139.5t57.5 139.5t139.5 57.5zM279 1160q48 0 82 34t34 82t-34 82t-82 34t-82 -34t-34 -82t34 -82t82 -34z" />
    <glyph glyph-name="plusminus" unicode="&#xb1;" horiz-adv-x="772" 
d="M420 732h265v-69h-265v-265h-69v265h-265v69h265v265h69v-265zM685 203h-599v70h599v-70z" />
    <glyph glyph-name="acute" unicode="&#xb4;" horiz-adv-x="444" 
d="M245 1474h177l-259 -281h-95z" />
    <glyph glyph-name="paragraph" unicode="&#xb6;" horiz-adv-x="964" 
d="M437 1473h403v-1684h-130v1576h-136v-1576h-137v982q-145 0 -248 102.5t-103 248.5t103 248.5t248 102.5z" />
    <glyph glyph-name="periodcentered" unicode="&#xb7;" horiz-adv-x="522" 
d="M261 555q-74 0 -126.5 48.5t-52.5 116.5t52.5 116.5t126.5 48.5t126.5 -48.5t52.5 -116.5t-52.5 -116.5t-126.5 -48.5z" />
    <glyph glyph-name="cedilla" unicode="&#xb8;" horiz-adv-x="571" 
d="M284 -87q71 -11 117 -56.5t46 -103.5q0 -68 -59.5 -116t-142.5 -48q-67 0 -122 33v77q55 -29 122 -29q41 0 69.5 24.5t28.5 58.5q0 40 -30 64t-68 24h-82v62l60 97h92l-52 -83z" />
    <glyph glyph-name="guillemotright" unicode="&#xbb;" horiz-adv-x="1034" 
d="M608 939l345 -413l-345 -406h-149l348 406l-344 413h145zM227 939l345 -413l-344 -406h-150l348 406l-344 413h145z" />
    <glyph glyph-name="questiondown" unicode="&#xbf;" horiz-adv-x="1024" 
d="M528 963q-37 0 -63.5 19.5t-26.5 47.5t26.5 47t63.5 19t63.5 -19t26.5 -47t-26.5 -47.5t-63.5 -19.5zM833 98h131q0 -127 -52 -233.5t-155.5 -173.5t-238.5 -67q-185 0 -315.5 114.5t-130.5 276.5q0 164 169 289q129 95 174.5 190.5t45.5 277.5h131v-71q0 -158 -59 -269
t-175 -194l-24 -18q-24 -17 -34.5 -25.5t-33 -30.5t-33.5 -41.5t-20.5 -48t-9.5 -59.5q0 -113 93.5 -192t221.5 -79q94 0 167.5 51.5t110.5 131.5t37 171z" />
    <glyph glyph-name="Agrave" unicode="&#xc0;" horiz-adv-x="1296" 
d="M747 1543h-96l-259 281h177zM765 1432l519 -1433h-139l-161 445h-677l-158 -445h-139l507 1433h248zM351 567h588l-298 820z" />
    <glyph glyph-name="Aacute" unicode="&#xc1;" horiz-adv-x="1296" 
d="M838 1824l-259 -281h-96l178 281h177zM765 1432l519 -1433h-139l-161 445h-677l-158 -445h-139l507 1433h248zM351 567h588l-298 820z" />
    <glyph glyph-name="Acircumflex" unicode="&#xc2;" horiz-adv-x="1296" 
d="M765 1432l519 -1433h-139l-161 445h-677l-158 -445h-139l507 1433h248zM351 567h588l-298 820zM647 1797l-192 -255h-129l213 282h216l214 -282h-130z" />
    <glyph glyph-name="Atilde" unicode="&#xc3;" horiz-adv-x="1292" 
d="M494 1671q-40 0 -72.5 -25.5t-37.5 -69.5h-67q5 46 25.5 83.5t48.5 58t61 34t64 12t57 -8.5l184 -67q15 -4 34 -4q40 0 72.5 25t37.5 69h67q-5 -46 -25.5 -83.5t-48.5 -58t-61 -34t-64 -12t-57 8.5l-184 67q-18 5 -34 5zM763 1433l519 -1433h-139l-161 445h-677
l-158 -445h-139l507 1433h248zM349 568h588l-298 820z" />
    <glyph glyph-name="Adieresis" unicode="&#xc4;" horiz-adv-x="1296" 
d="M514 1603q-34 0 -57 19.5t-23 47.5t23 47.5t57 19.5t57.5 -19.5t23.5 -47.5t-23.5 -47.5t-57.5 -19.5zM782 1603q-34 0 -57.5 19.5t-23.5 47.5t23.5 47.5t57.5 19.5t57.5 -19.5t23.5 -47.5t-23.5 -47.5t-57.5 -19.5zM765 1432l519 -1433h-139l-161 445h-677l-158 -445
h-139l507 1433h248zM351 567h588l-298 820z" />
    <glyph glyph-name="Aring" unicode="&#xc5;" horiz-adv-x="1296" 
d="M765 1432l519 -1433h-139l-161 445h-677l-158 -445h-139l507 1433h248zM351 567h588l-298 820zM647 1546q-82 0 -139.5 57.5t-57.5 139.5t57.5 139.5t139.5 57.5t139.5 -57.5t57.5 -139.5t-57.5 -139.5t-139.5 -57.5zM647 1859q-48 0 -82 -34t-34 -82t34 -82.5t82 -34.5
t82.5 34.5t34.5 82.5t-34.5 82t-82.5 34z" />
    <glyph glyph-name="AE" unicode="&#xc6;" horiz-adv-x="2078" 
d="M2028 1310h-924v-534h847v-121h-847v-531h924v-124h-1055v446h-624l-207 -446h-142l663 1434h1365v-124zM973 568v743h-220l-346 -743h566z" />
    <glyph glyph-name="Ccedilla" unicode="&#xc7;" horiz-adv-x="1378" 
d="M1172 451q4 18 6 28h138q-21 -107 -67 -194.5t-105 -146t-131.5 -98.5t-146.5 -58t-151 -20l-28 -45l21 -4q71 -11 117 -56.5t46 -103.5q0 -68 -59.5 -116t-142.5 -48q-67 0 -122 33v77q55 -29 122 -29q41 0 69.5 24.5t28.5 58.5q0 40 -30 64t-68 24h-82v62l39 63
q-107 11 -197.5 55.5t-156.5 113.5t-112 160.5t-69 198t-23 224.5q0 209 78 380.5t223.5 273.5t330.5 102q117 0 215 -29t167 -78t120.5 -116.5t80 -140.5t40.5 -154h-134q-4 20 -6 29q-20 81 -53.5 144.5t-88.5 116t-139 80.5t-194 28q-146 0 -264 -90t-181.5 -235
t-63.5 -311q0 -126 34 -240t97 -202.5t161 -141t217 -52.5q158 0 283 97.5t181 271.5z" />
    <glyph glyph-name="Egrave" unicode="&#xc8;" horiz-adv-x="1228" 
d="M1178 1309h-924v-534h847v-121h-847v-531h924v-124h-1055v1433h1055v-123zM750 1543h-95l-259 281h177z" />
    <glyph glyph-name="Eacute" unicode="&#xc9;" horiz-adv-x="1228" 
d="M1178 1309h-924v-534h847v-121h-847v-531h924v-124h-1055v1433h1055v-123zM851 1824l-258 -281h-96l177 281h177z" />
    <glyph glyph-name="Ecircumflex" unicode="&#xca;" horiz-adv-x="1228" 
d="M1178 1309h-924v-534h847v-121h-847v-531h924v-124h-1055v1433h1055v-123zM650 1797l-192 -255h-129l213 282h216l214 -282h-130z" />
    <glyph glyph-name="Edieresis" unicode="&#xcb;" horiz-adv-x="1228" 
d="M1178 1309h-924v-534h847v-121h-847v-531h924v-124h-1055v1433h1055v-123zM516 1603q-34 0 -57 19.5t-23 47.5t23 47.5t57 19.5t57.5 -19.5t23.5 -47.5t-23.5 -47.5t-57.5 -19.5zM784 1603q-34 0 -57 19.5t-23 47.5t23 47.5t57 19.5t57.5 -19.5t23.5 -47.5t-23.5 -47.5
t-57.5 -19.5z" />
    <glyph glyph-name="Igrave" unicode="&#xcc;" horiz-adv-x="378" 
d="M255 -1h-131v1433h131v-1433zM291 1543h-96l-258 281h176z" />
    <glyph glyph-name="Iacute" unicode="&#xcd;" horiz-adv-x="376" 
d="M255 -1h-131v1433h131v-1433zM198 1824h177l-259 -281h-96z" />
    <glyph glyph-name="Icircumflex" unicode="&#xce;" horiz-adv-x="376" 
d="M254 -1h-131v1433h131v-1433zM295 1824l214 -282h-129l-192 255l-193 -255h-128l213 282h215z" />
    <glyph glyph-name="Idieresis" unicode="&#xcf;" horiz-adv-x="376" 
d="M254 -1h-132v1433h132v-1433zM54 1603q-34 0 -57.5 19.5t-23.5 47.5t23.5 47.5t57.5 19.5t57.5 -19.5t23.5 -47.5t-23.5 -47.5t-57.5 -19.5zM322 1603q-34 0 -57.5 19.5t-23.5 47.5t23.5 47.5t57.5 19.5t57 -19.5t23 -47.5t-23 -47.5t-57 -19.5z" />
    <glyph glyph-name="Eth" unicode="&#xd0;" horiz-adv-x="1409" 
d="M744 1434q123 0 232.5 -52.5t190 -144.5t128 -227.5t47.5 -292.5q0 -196 -73 -358.5t-211 -260.5t-314 -98h-572v647h-119v124h119v663h572zM744 123q131 3 238.5 84t167.5 216t60 294q0 162 -59 298t-166.5 216t-240.5 80h-441v-540h441v-124h-441v-524h441z" />
    <glyph glyph-name="Ntilde" unicode="&#xd1;" horiz-adv-x="1376" 
d="M1121 1434h131v-1434h-161l-837 1262v-1262h-131v1434h161l837 -1261v1261zM557 1673q-40 0 -72.5 -25.5t-37.5 -69.5h-68q6 58 36 101t68 61t80 25t73 -7l184 -67q18 -5 34 -5q40 0 72.5 25.5t37.5 69.5h67q-5 -47 -25.5 -84t-48.5 -58t-61 -34.5t-64 -12t-57 8.5
l-185 67q-18 5 -33 5z" />
    <glyph glyph-name="Ograve" unicode="&#xd2;" horiz-adv-x="1525" 
d="M756 1474q153 0 286 -59.5t224.5 -161.5t143.5 -241t52 -294t-52 -294t-143.5 -241t-224.5 -161.5t-286 -59.5q-204 0 -363.5 102t-244.5 273.5t-85 380.5t85 380.5t244.5 273.5t363.5 102zM756 83q130 0 239.5 51t182.5 138t113 202t40 244t-40 244t-113 202t-182.5 138
t-239.5 51t-237.5 -51t-177.5 -138t-108 -202t-38 -244t38 -244t108 -202t177.5 -138t237.5 -51zM874 1588h-96l-258 282h176z" />
    <glyph glyph-name="Oacute" unicode="&#xd3;" horiz-adv-x="1525" 
d="M756 1474q153 0 286 -59.5t224.5 -161.5t143.5 -241t52 -294t-52 -294t-143.5 -241t-224.5 -161.5t-286 -59.5q-204 0 -363.5 102t-244.5 273.5t-85 380.5t85 380.5t244.5 273.5t363.5 102zM756 83q130 0 239.5 51t182.5 138t113 202t40 244t-40 244t-113 202t-182.5 138
t-239.5 51t-237.5 -51t-177.5 -138t-108 -202t-38 -244t38 -244t108 -202t177.5 -138t237.5 -51zM955 1870l-259 -282h-95l177 282h177z" />
    <glyph glyph-name="Ocircumflex" unicode="&#xd4;" horiz-adv-x="1525" 
d="M756 1474q153 0 286 -59.5t224.5 -161.5t143.5 -241t52 -294t-52 -294t-143.5 -241t-224.5 -161.5t-286 -59.5q-204 0 -363.5 102t-244.5 273.5t-85 380.5t85 380.5t244.5 273.5t363.5 102zM756 83q130 0 239.5 51t182.5 138t113 202t40 244t-40 244t-113 202t-182.5 138
t-239.5 51t-237.5 -51t-177.5 -138t-108 -202t-38 -244t38 -244t108 -202t177.5 -138t237.5 -51zM762 1843l-192 -254h-129l213 281h216l214 -281h-130z" />
    <glyph glyph-name="Otilde" unicode="&#xd5;" horiz-adv-x="1525" 
d="M756 1473q153 0 286 -59.5t224.5 -161.5t143.5 -241t52 -294t-52 -294t-143.5 -241t-224.5 -161.5t-286 -59.5q-204 0 -363.5 102t-244.5 273.5t-85 380.5t85 380.5t244.5 273.5t363.5 102zM756 82q130 0 239.5 51t182.5 138t113 202t40 244t-40 244t-113 202t-182.5 138
t-239.5 51t-237.5 -51t-177.5 -138t-108 -202t-38 -244t38 -244t108 -202t177.5 -138t237.5 -51zM609 1669q-40 0 -72.5 -25.5t-37.5 -69.5h-67q5 47 25.5 84t48.5 58t61 34.5t64 12t57 -8.5l184 -67q18 -5 34 -5q40 0 72.5 25.5t37.5 69.5h67q-5 -47 -25.5 -84t-48.5 -58
t-61 -34.5t-64 -12t-57 8.5l-184 67q-18 5 -34 5z" />
    <glyph glyph-name="Odieresis" unicode="&#xd6;" horiz-adv-x="1525" 
d="M756 1474q153 0 286 -59.5t224.5 -161.5t143.5 -241t52 -294t-52 -294t-143.5 -241t-224.5 -161.5t-286 -59.5q-204 0 -363.5 102t-244.5 273.5t-85 380.5t85 380.5t244.5 273.5t363.5 102zM756 83q130 0 239.5 51t182.5 138t113 202t40 244t-40 244t-113 202t-182.5 138
t-239.5 51t-237.5 -51t-177.5 -138t-108 -202t-38 -244t38 -244t108 -202t177.5 -138t237.5 -51zM629 1646q-34 0 -57.5 19.5t-23.5 47.5t23.5 47.5t57.5 19.5t57 -19.5t23 -47.5t-23 -47.5t-57 -19.5zM897 1646q-34 0 -57.5 19.5t-23.5 47.5t23.5 47.5t57.5 19.5t57 -19.5
t23 -47.5t-23 -47.5t-57 -19.5z" />
    <glyph glyph-name="multiply" unicode="&#xd7;" horiz-adv-x="940" 
d="M524 508l330 -330l-55 -55l-330 330l-330 -330l-55 55l330 330l-324 324l55 55l324 -324l324 324l55 -55z" />
    <glyph glyph-name="Oslash" unicode="&#xd8;" horiz-adv-x="1529" 
d="M1221 1298q116 -105 179.5 -256t63.5 -325q0 -155 -52 -294t-143.5 -241t-224.5 -161.5t-286 -59.5q-215 0 -383 116l-102 -147l-59 41l103 150q-120 104 -185.5 259.5t-65.5 336.5q0 156 50 294.5t139 240.5t219.5 161.5t283.5 59.5q229 0 407 -129l118 170l59 -41z
M197 717q0 -149 49.5 -277.5t141.5 -216.5l707 1020q-142 109 -337 109q-130 0 -237.5 -51t-177.5 -138t-108 -202t-38 -244zM758 82q130 0 239.5 51t182.5 138t113 202t40 244q0 141 -47.5 265.5t-135.5 212.5l-706 -1018q135 -95 314 -95z" />
    <glyph glyph-name="Ugrave" unicode="&#xd9;" horiz-adv-x="1343" 
d="M778 1544h-96l-258 281h176zM1106 1434h132v-906q0 -118 -46 -224t-123 -181t-181 -118.5t-217 -43.5t-217 43.5t-181 118.5t-123 181t-46 224v906h132v-900q0 -118 58 -221.5t159 -165.5t218 -62t218 62t159 165.5t58 221.5v900z" />
    <glyph glyph-name="Uacute" unicode="&#xda;" horiz-adv-x="1343" 
d="M869 1825l-259 -281h-95l177 281h177zM1106 1434h132v-906q0 -118 -46 -224t-123 -181t-181 -118.5t-217 -43.5t-217 43.5t-181 118.5t-123 181t-46 224v906h132v-900q0 -118 58 -221.5t159 -165.5t218 -62t218 62t159 165.5t58 221.5v900z" />
    <glyph glyph-name="Ucircumflex" unicode="&#xdb;" horiz-adv-x="1343" 
d="M671 1798l-193 -254h-128l213 281h215l214 -281h-129zM1106 1434h132v-906q0 -118 -46 -224t-123 -181t-181 -118.5t-217 -43.5t-217 43.5t-181 118.5t-123 181t-46 224v906h132v-900q0 -118 58 -221.5t159 -165.5t218 -62t218 62t159 165.5t58 221.5v900z" />
    <glyph glyph-name="Udieresis" unicode="&#xdc;" horiz-adv-x="1343" 
d="M537 1646q-34 0 -57.5 19.5t-23.5 47.5t23.5 47.5t57.5 19.5t57.5 -19.5t23.5 -47.5t-23.5 -47.5t-57.5 -19.5zM805 1646q-34 0 -57.5 19.5t-23.5 47.5t23.5 47.5t57.5 19.5t57.5 -19.5t23.5 -47.5t-23.5 -47.5t-57.5 -19.5zM1106 1434h132v-906q0 -118 -46 -224
t-123 -181t-181 -118.5t-217 -43.5t-217 43.5t-181 118.5t-123 181t-46 224v906h132v-900q0 -118 58 -221.5t159 -165.5t218 -62t218 62t159 165.5t58 221.5v900z" />
    <glyph glyph-name="Yacute" unicode="&#xdd;" horiz-adv-x="1267" 
d="M812 1826l-259 -281h-96l178 281h177zM1116 1433h157l-574 -906v-527h-131v527l-574 906h157l483 -791z" />
    <glyph glyph-name="Thorn" unicode="&#xde;" horiz-adv-x="1224" 
d="M783 1433q170 0 286 -118.5t116 -284.5q0 -119 -44.5 -213.5t-137 -152t-220.5 -57.5h-530v-606h-130v1433v300h130v-300zM783 728q73 0 127 24t84 66t44.5 91.5t14.5 107.5q0 75 -25 133.5t-65.5 92t-86.5 50.5t-93 17h-530v-581z" />
    <glyph glyph-name="germandbls" unicode="&#xdf;" horiz-adv-x="1079" 
d="M1011 405h1q0 -189 -133 -316.5t-340 -127.5q-35 0 -75 5v126q32 -7 75 -7q80 0 147 29t108 76t63.5 103t22.5 112q0 123 -77 202t-195 79h-144v124h75q116 0 194 60.5t78 160.5q0 118 -77.5 198.5t-194.5 80.5h-1q-122 0 -208 -89.5t-86 -212.5l1 -1007h-131l-1 1007
q0 113 55 210.5t153 156.5t217 59q117 0 210.5 -57.5t143.5 -149t50 -195.5q0 -85 -42 -157.5t-115 -108.5q81 -25 134 -85.5t72.5 -129t19.5 -146.5z" />
    <glyph glyph-name="agrave" unicode="&#xe0;" 
d="M624 1193h-95l-259 281h177zM510 1083q104 0 192 -32.5t146 -102.5t58 -164v-783h-122v171q-11 -24 -34.5 -53t-62 -62t-99.5 -56t-131 -25q-175 -6 -284.5 99t-109.5 250q0 159 115.5 254t280.5 95h218q47 0 77 30t30 80q0 88 -76.5 138t-197.5 50q-172 0 -244 -154
h-137q9 30 21.5 58t42.5 68t69 68.5t104 49.5t144 21zM784 346v253q-79 -31 -166 -31h-164q-110 0 -184.5 -62.5t-74.5 -184.5q0 -99 71 -165.5t188 -66.5q129 0 229.5 80t100.5 177z" />
    <glyph glyph-name="aacute" unicode="&#xe1;" 
d="M724 1474l-258 -281h-96l177 281h177zM510 1083q104 0 192 -32.5t146 -102.5t58 -164v-783h-122v171q-11 -24 -34.5 -53t-62 -62t-99.5 -56t-131 -25q-175 -6 -284.5 99t-109.5 250q0 159 115.5 254t280.5 95h218q47 0 77 30t30 80q0 88 -76.5 138t-197.5 50
q-172 0 -244 -154h-137q9 30 21.5 58t42.5 68t69 68.5t104 49.5t144 21zM784 346v253q-79 -31 -166 -31h-164q-110 0 -184.5 -62.5t-74.5 -184.5q0 -99 71 -165.5t188 -66.5q129 0 229.5 80t100.5 177z" />
    <glyph glyph-name="acircumflex" unicode="&#xe2;" 
d="M535 1447l-192 -255h-129l213 282h216l214 -282h-130zM510 1083q104 0 192 -32.5t146 -102.5t58 -164v-783h-122v171q-11 -24 -34.5 -53t-62 -62t-99.5 -56t-131 -25q-175 -6 -284.5 99t-109.5 250q0 159 115.5 254t280.5 95h218q47 0 77 30t30 80q0 88 -76.5 138
t-197.5 50q-172 0 -244 -154h-137q9 30 21.5 58t42.5 68t69 68.5t104 49.5t144 21zM784 346v253q-79 -31 -166 -31h-164q-110 0 -184.5 -62.5t-74.5 -184.5q0 -99 71 -165.5t188 -66.5q129 0 229.5 80t100.5 177z" />
    <glyph glyph-name="atilde" unicode="&#xe3;" 
d="M368 1311q-40 0 -72.5 -25.5t-37.5 -69.5h-67q5 46 25.5 83.5t48.5 58t61 34t64 12t57 -8.5l184 -67q15 -4 34 -4q40 0 72.5 25t37.5 69h67q-5 -46 -25.5 -83.5t-48.5 -58t-61 -34t-64 -12t-57 8.5l-184 67q-18 5 -34 5zM510 1083q104 0 192 -32.5t146 -102.5t58 -164
v-783h-122v172q-8 -19 -23.5 -41t-44.5 -49.5t-64 -50t-86.5 -38.5t-108.5 -18q-175 -6 -284.5 99t-109.5 250q0 159 115.5 254.5t280.5 95.5h218q47 0 77 30t30 79q0 88 -76.5 138.5t-197.5 50.5q-172 0 -244 -155h-137q9 30 21.5 58t42.5 68t69 68.5t104 49.5t144 21z
M784 347v252q-76 -30 -166 -30h-164q-110 0 -184.5 -62.5t-74.5 -184.5q0 -99 71 -165.5t188 -66.5q129 0 229.5 80t100.5 177z" />
    <glyph glyph-name="adieresis" unicode="&#xe4;" 
d="M386 1250q-34 0 -57 19.5t-23 47.5t23 47.5t57 19.5t57.5 -19.5t23.5 -47.5t-23.5 -47.5t-57.5 -19.5zM654 1250q-34 0 -57 19.5t-23 47.5t23 47.5t57 19.5t57.5 -19.5t23.5 -47.5t-23.5 -47.5t-57.5 -19.5zM510 1083q104 0 192 -32.5t146 -102.5t58 -164v-783h-122v171
q-11 -24 -34.5 -53t-62 -62t-99.5 -56t-131 -25q-175 -6 -284.5 99t-109.5 250q0 159 115.5 254t280.5 95h218q47 0 77 30t30 80q0 88 -76.5 138t-197.5 50q-172 0 -244 -154h-137q9 30 21.5 58t42.5 68t69 68.5t104 49.5t144 21zM784 346v253q-79 -31 -166 -31h-164
q-110 0 -184.5 -62.5t-74.5 -184.5q0 -99 71 -165.5t188 -66.5q129 0 229.5 80t100.5 177z" />
    <glyph glyph-name="aring" unicode="&#xe5;" 
d="M510 1083q104 0 192 -32.5t146 -102.5t58 -164v-783h-122v172q-8 -19 -23.5 -41t-44.5 -49.5t-64 -50t-86.5 -38.5t-108.5 -18q-175 -6 -284.5 99t-109.5 250q0 159 115.5 254.5t280.5 95.5h218q47 0 77 30t30 79q0 88 -76.5 138.5t-197.5 50.5q-172 0 -244 -155h-137
q9 30 21.5 58t42.5 68t69 68.5t104 49.5t144 21zM784 347v252q-76 -30 -166 -30h-164q-110 0 -184.5 -62.5t-74.5 -184.5q0 -99 71 -165.5t188 -66.5q129 0 229.5 80t100.5 177zM510 1197q-82 0 -139.5 57.5t-57.5 139.5t57.5 139.5t139.5 57.5t139.5 -57.5t57.5 -139.5
t-57.5 -139.5t-139.5 -57.5zM510 1511q-48 0 -82.5 -34.5t-34.5 -82.5t34.5 -82t82.5 -34t82 34t34 82t-34 82.5t-82 34.5z" />
    <glyph glyph-name="ae" unicode="&#xe6;" horiz-adv-x="1816" 
d="M1270 84q234 0 330 268h132q-31 -164 -154.5 -270.5t-307.5 -106.5q-230 0 -364 163q-39 48 -63 99q-7 -20 -20.5 -45.5t-45 -64.5t-72 -70t-106 -55t-142.5 -27q-175 -6 -284.5 99.5t-109.5 250.5q0 159 115.5 254t280.5 95h218q47 0 77 30t30 79q0 88 -76.5 138.5
t-197.5 50.5q-172 0 -244 -155h-137q9 30 21.5 58t42.5 68t69 68.5t104 49.5t144 21q129 0 233.5 -51.5t143.5 -146.5q67 95 164.5 146t206.5 52q74 1 140 -14.5t131.5 -56.5t112.5 -105t76.5 -169.5t29.5 -241.5h-822q0 -182 93 -296.5t251 -114.5zM784 346v252
q-76 -30 -166 -30h-164q-110 0 -184.5 -62.5t-74.5 -184.5q0 -99 71 -165.5t188 -66.5q129 0 229.5 80t100.5 177zM1260 972q-99 0 -177 -53t-118 -135t-40 -176h689q0 162 -103 263t-251 101z" />
    <glyph glyph-name="ccedilla" unicode="&#xe7;" horiz-adv-x="1085" 
d="M879 376v2h142q-37 -180 -156 -290t-303 -112l-36 -58l21 -4q71 -11 117 -56.5t46 -103.5q0 -68 -59.5 -116t-142.5 -48q-65 0 -122 34v76q55 -29 122 -29q40 0 68.5 24t28.5 59q0 40 -29.5 64t-67.5 24h-83v62l49 77q-184 27 -294 170t-110 378q0 258 135.5 406
t345.5 148q188 0 314.5 -111t160.5 -308h-133q-31 152 -120.5 230t-217.5 78q-148 0 -248.5 -123t-100.5 -320q0 -203 91 -323t259 -120q241 0 323 290z" />
    <glyph glyph-name="egrave" unicode="&#xe8;" horiz-adv-x="1097" 
d="M1031 529v-33h-840q9 -190 109.5 -299t250.5 -111q118 2 207.5 71t127.5 195h126q-42 -180 -164.5 -277.5t-296.5 -99.5q-214 2 -347.5 148t-133.5 406q0 255 136 404.5t345 149.5t344.5 -149.5t135.5 -404.5zM196 608h709q-21 163 -119.5 262.5t-234.5 101.5
q-136 -2 -235 -101.5t-120 -262.5zM652 1193h-95l-259 281h177z" />
    <glyph glyph-name="eacute" unicode="&#xe9;" horiz-adv-x="1097" 
d="M1031 529v-33h-840q9 -190 109.5 -299t250.5 -111q118 2 207.5 71t127.5 195h126q-42 -180 -164.5 -277.5t-296.5 -99.5q-214 2 -347.5 148t-133.5 406q0 255 136 404.5t345 149.5t344.5 -149.5t135.5 -404.5zM196 608h709q-21 163 -119.5 262.5t-234.5 101.5
q-136 -2 -235 -101.5t-120 -262.5zM752 1474l-258 -281h-96l177 281h177z" />
    <glyph glyph-name="ecircumflex" unicode="&#xea;" horiz-adv-x="1097" 
d="M1031 529v-33h-840q9 -190 109.5 -299t250.5 -111q118 2 207.5 71t127.5 195h126q-42 -180 -164.5 -277.5t-296.5 -99.5q-214 2 -347.5 148t-133.5 406q0 255 136 404.5t345 149.5t344.5 -149.5t135.5 -404.5zM196 608h709q-21 163 -119.5 262.5t-234.5 101.5
q-136 -2 -235 -101.5t-120 -262.5zM555 1447l-192 -255h-129l213 282h216l214 -282h-130z" />
    <glyph glyph-name="edieresis" unicode="&#xeb;" horiz-adv-x="1097" 
d="M1031 529v-33h-840q9 -190 109.5 -299t250.5 -111q118 2 207.5 71t127.5 195h126q-42 -180 -164.5 -277.5t-296.5 -99.5q-214 2 -347.5 148t-133.5 406q0 255 136 404.5t345 149.5t344.5 -149.5t135.5 -404.5zM196 608h709q-21 163 -119.5 262.5t-234.5 101.5
q-136 -2 -235 -101.5t-120 -262.5zM443 1250q-34 0 -57 19.5t-23 47.5t23 47.5t57 19.5t57.5 -19.5t23.5 -47.5t-23.5 -47.5t-57.5 -19.5zM711 1250q-34 0 -57.5 19.5t-23.5 47.5t23.5 47.5t57.5 19.5t57.5 -19.5t23.5 -47.5t-23.5 -47.5t-57.5 -19.5z" />
    <glyph glyph-name="igrave" unicode="&#xec;" horiz-adv-x="344" 
d="M283 1193h-96l-259 281h177zM232 1h-121v1056h121v-1056z" />
    <glyph glyph-name="iacute" unicode="&#xed;" horiz-adv-x="344" 
d="M424 1474l-259 -281h-95l177 281h177zM232 1h-121v1056h121v-1056z" />
    <glyph glyph-name="icircumflex" unicode="&#xee;" horiz-adv-x="344" 
d="M279 1474l214 -282h-130l-192 255l-192 -255h-129l213 282h216zM232 1h-121v1056h121v-1056z" />
    <glyph glyph-name="idieresis" unicode="&#xef;" horiz-adv-x="344" 
d="M38 1250q-34 0 -57.5 19.5t-23.5 47.5t23.5 47.5t57.5 19.5t57 -19.5t23 -47.5t-23 -47.5t-57 -19.5zM305 1250q-34 0 -57 19.5t-23 47.5t23 47.5t57 19.5t57.5 -19.5t23.5 -47.5t-23.5 -47.5t-57.5 -19.5zM232 1h-121v1056h121v-1056z" />
    <glyph glyph-name="eth" unicode="&#xf0;" horiz-adv-x="1107" 
d="M1031 530q0 -260 -133 -406t-347 -148q-214 2 -347.5 148t-133.5 406q0 255 136 404.5t345 149.5q123 0 225 -55q-105 180 -297 343l-222 -154l-49 71l200 139q-89 69 -202 138l89 62q109 -62 205 -136l175 122l50 -71l-155 -108q97 -83 176 -175.5t144 -203.5t102 -241
t39 -267v-18zM551 87q157 2 258 120t101 323v12q-4 190 -106 309.5t-253 121.5q-153 -2 -256.5 -125t-103.5 -318q0 -205 101.5 -323t258.5 -120z" />
    <glyph glyph-name="ntilde" unicode="&#xf1;" horiz-adv-x="1071" 
d="M414 1314q-40 0 -72.5 -25.5t-37.5 -69.5h-67q5 46 25.5 83.5t48.5 58t61.5 34t64.5 12t57 -8.5l184 -67q15 -4 34 -4q40 0 72 25t37 69h68q-5 -46 -25.5 -83.5t-48.5 -58t-61.5 -34t-64.5 -12t-57 8.5l-184 67q-18 5 -34 5zM541 1079q63 6 125.5 -7.5t117 -46
t96.5 -78.5t66 -110t24 -136v-702h-122v690q0 110 -84.5 194.5t-222.5 84.5q-132 0 -219.5 -85.5t-87.5 -193.5v-690h-121v1057h121v-158q42 66 119.5 118.5t187.5 62.5z" />
    <glyph glyph-name="ograve" unicode="&#xf2;" horiz-adv-x="1101" 
d="M654 1193h-95l-259 281h177zM551 1083q209 0 344.5 -149.5t135.5 -404.5q0 -260 -133 -406t-347 -148q-214 2 -347.5 148t-133.5 406q0 255 136 404.5t345 149.5zM551 86q157 2 258 120t101 323q0 195 -103 318t-256 125q-153 -2 -256.5 -125t-103.5 -318
q0 -205 101.5 -323t258.5 -120z" />
    <glyph glyph-name="oacute" unicode="&#xf3;" horiz-adv-x="1101" 
d="M744 1474l-259 -281h-96l178 281h177zM551 1083q209 0 344.5 -149.5t135.5 -404.5q0 -260 -133 -406t-347 -148q-214 2 -347.5 148t-133.5 406q0 255 136 404.5t345 149.5zM551 86q157 2 258 120t101 323q0 195 -103 318t-256 125q-153 -2 -256.5 -125t-103.5 -318
q0 -205 101.5 -323t258.5 -120z" />
    <glyph glyph-name="ocircumflex" unicode="&#xf4;" horiz-adv-x="1101" 
d="M550 1447l-192 -255h-129l213 282h216l214 -282h-130zM551 1083q209 0 344.5 -149.5t135.5 -404.5q0 -260 -133 -406t-347 -148q-214 2 -347.5 148t-133.5 406q0 255 136 404.5t345 149.5zM551 86q157 2 258 120t101 323q0 195 -103 318t-256 125q-153 -2 -256.5 -125
t-103.5 -318q0 -205 101.5 -323t258.5 -120z" />
    <glyph glyph-name="otilde" unicode="&#xf5;" horiz-adv-x="1101" 
d="M551 1083q209 0 344.5 -149.5t135.5 -404.5q0 -260 -133 -405.5t-347 -147.5q-215 2 -348 147.5t-133 405.5q0 255 136 404.5t345 149.5zM551 86q157 2 258 120t101 323q0 195 -103 318.5t-256 125.5q-153 -2 -256.5 -125.5t-103.5 -318.5q0 -205 101.5 -323t258.5 -120z
M401 1311q-40 0 -72.5 -25.5t-37.5 -69.5h-67q6 58 36 101t68 61t80 25t73 -7l184 -67q18 -5 34 -5q40 0 72.5 25.5t37.5 69.5h67q-6 -58 -36 -101t-68 -61t-80 -25t-73 7l-184 67q-18 5 -34 5z" />
    <glyph glyph-name="odieresis" unicode="&#xf6;" horiz-adv-x="1101" 
d="M417 1250q-34 0 -57.5 19.5t-23.5 47.5t23.5 47.5t57.5 19.5t57 -19.5t23 -47.5t-23 -47.5t-57 -19.5zM684 1250q-34 0 -57 19.5t-23 47.5t23 47.5t57 19.5t57.5 -19.5t23.5 -47.5t-23.5 -47.5t-57.5 -19.5zM551 1083q209 0 344.5 -149.5t135.5 -404.5q0 -260 -133 -406
t-347 -148q-214 2 -347.5 148t-133.5 406q0 255 136 404.5t345 149.5zM551 86q157 2 258 120t101 323q0 195 -103 318t-256 125q-153 -2 -256.5 -125t-103.5 -318q0 -205 101.5 -323t258.5 -120z" />
    <glyph glyph-name="divide" unicode="&#xf7;" horiz-adv-x="978" 
d="M925 465h-872v86h872v-86zM489 739q-32 0 -55.5 23t-23.5 55t23.5 55.5t55.5 23.5t55 -23.5t23 -55.5t-23 -55t-55 -23zM489 265q32 0 55 -23t23 -55t-23 -55.5t-55 -23.5t-55.5 23.5t-23.5 55.5t23.5 55t55.5 23z" />
    <glyph glyph-name="oslash" unicode="&#xf8;" horiz-adv-x="1110" 
d="M892 940q143 -153 143 -413t-133 -405.5t-347 -147.5q-162 2 -275 82l-93 -134l-59 42l96 139q-150 150 -150 424q0 255 136 404.5t345 149.5q162 0 283 -92l86 124l60 -41zM195 527q0 -201 100 -322l474 684q-92 79 -214 81q-153 -2 -256.5 -125t-103.5 -318zM555 84
q157 2 258 120t101 323q0 186 -95 308l-471 -681q88 -68 207 -70z" />
    <glyph glyph-name="ugrave" unicode="&#xf9;" horiz-adv-x="1058" 
d="M824 1057h121v-1056h-121v156q-116 -182 -321 -182q-102 0 -182.5 34t-127 89.5t-70 120.5t-23.5 134v704h121v-704q0 -110 88 -188.5t220 -78.5q81 0 150.5 49.5t107 122.5t37.5 146v653zM631 1193h-95l-259 281h177z" />
    <glyph glyph-name="uacute" unicode="&#xfa;" horiz-adv-x="1058" 
d="M824 1057h121v-1056h-121v156q-116 -182 -321 -182q-102 0 -182.5 34t-127 89.5t-70 120.5t-23.5 134v704h121v-704q0 -110 88 -188.5t220 -78.5q81 0 150.5 49.5t107 122.5t37.5 146v653zM712 1474l-258 -281h-96l178 281h176z" />
    <glyph glyph-name="ucircumflex" unicode="&#xfb;" horiz-adv-x="1058" 
d="M824 1057h121v-1056h-121v156q-116 -182 -321 -182q-102 0 -182.5 34t-127 89.5t-70 120.5t-23.5 134v704h121v-704q0 -110 88 -188.5t220 -78.5q81 0 150.5 49.5t107 122.5t37.5 146v653zM522 1447l-192 -255h-129l213 282h216l214 -282h-130z" />
    <glyph glyph-name="udieresis" unicode="&#xfc;" horiz-adv-x="1058" 
d="M824 1057h121v-1056h-121v156q-116 -182 -321 -182q-102 0 -182.5 34t-127 89.5t-70 120.5t-23.5 134v704h121v-704q0 -110 88 -188.5t220 -78.5q81 0 150.5 49.5t107 122.5t37.5 146v653zM389 1250q-34 0 -57.5 19.5t-23.5 47.5t23.5 47.5t57.5 19.5t57 -19.5t23 -47.5
t-23 -47.5t-57 -19.5zM656 1250q-34 0 -57 19.5t-23 47.5t23 47.5t57 19.5t57.5 -19.5t23.5 -47.5t-23.5 -47.5t-57.5 -19.5z" />
    <glyph glyph-name="yacute" unicode="&#xfd;" horiz-adv-x="1032" 
d="M674 1473l-259 -281h-95l177 281h177zM878 1057h135l-410 -1057l-92 -238q-30 -78 -82 -108.5t-132 -30.5h-88v121h128q22 0 40 12t25 31l53 145l-437 1125h135l363 -955z" />
    <glyph glyph-name="thorn" unicode="&#xfe;" horiz-adv-x="1075" 
d="M561 1081q122 0 225 -72.5t163 -197t60 -271.5t-60 -271.5t-163 -197t-225 -72.5q-104 0 -191 46.5t-136 137.5v-560h-121v1849h121v-416v-159q48 91 132 137.5t195 46.5zM561 110q131 0 223.5 125t92.5 305t-92.5 305.5t-223.5 125.5q-141 0 -234 -110t-93 -321
t93 -320.5t234 -109.5z" />
    <glyph glyph-name="ydieresis" unicode="&#xff;" horiz-adv-x="1032" 
d="M377 1250q-34 0 -57 19.5t-23 47.5t23 47.5t57 19.5t57.5 -19.5t23.5 -47.5t-23.5 -47.5t-57.5 -19.5zM645 1250q-34 0 -57.5 19.5t-23.5 47.5t23.5 47.5t57.5 19.5t57.5 -19.5t23.5 -47.5t-23.5 -47.5t-57.5 -19.5zM878 1057h135l-410 -1057l-92 -238
q-30 -78 -82 -108.5t-132 -30.5h-88v121h128q22 0 40 12t25 31l53 145l-437 1125h135l363 -955z" />
    <glyph glyph-name="Amacron" unicode="&#x100;" horiz-adv-x="1292" 
d="M951 1604h-611v84h611v-84zM763 1433l519 -1433h-139l-161 445h-677l-158 -445h-139l507 1433h248zM349 568h588l-298 820z" />
    <glyph glyph-name="amacron" unicode="&#x101;" 
d="M510 1083q104 0 192 -32.5t146 -102.5t58 -164v-783h-122v172q-8 -19 -23.5 -41t-44.5 -49.5t-64 -50t-86.5 -38.5t-108.5 -18q-175 -6 -284.5 99t-109.5 250q0 159 115.5 254.5t280.5 95.5h218q47 0 77 30t30 79q0 88 -76.5 138.5t-197.5 50.5q-172 0 -244 -155h-137
q9 30 21.5 58t42.5 68t69 68.5t104 49.5t144 21zM784 347v252q-76 -30 -166 -30h-164q-110 0 -184.5 -62.5t-74.5 -184.5q0 -99 71 -165.5t188 -66.5q129 0 229.5 80t100.5 177zM803 1254h-611v83h611v-83z" />
    <glyph glyph-name="Abreve" unicode="&#x102;" horiz-adv-x="1292" 
d="M763 1433l519 -1433h-139l-161 445h-677l-158 -445h-139l507 1433h248zM349 568h588l-298 820zM633 1552q-120 0 -208.5 79.5t-88.5 193.5h72q0 -70 63 -126t162 -56t165 56t66 126h71q0 -114 -91 -193.5t-211 -79.5z" />
    <glyph glyph-name="abreve" unicode="&#x103;" 
d="M510 1083q104 0 192 -32.5t146 -102.5t58 -164v-783h-122v172q-8 -19 -23.5 -41t-44.5 -49.5t-64 -50t-86.5 -38.5t-108.5 -18q-175 -6 -284.5 99t-109.5 250q0 159 115.5 254.5t280.5 95.5h218q47 0 77 30t30 79q0 88 -76.5 138.5t-197.5 50.5q-172 0 -244 -155h-137
q9 30 21.5 58t42.5 68t69 68.5t104 49.5t144 21zM784 347v252q-76 -30 -166 -30h-164q-110 0 -184.5 -62.5t-74.5 -184.5q0 -99 71 -165.5t188 -66.5q129 0 229.5 80t100.5 177zM499 1201q-120 0 -208.5 79.5t-88.5 193.5h73q0 -70 62.5 -126t161.5 -56t165.5 56t66.5 126
h71q0 -114 -91.5 -193.5t-211.5 -79.5z" />
    <glyph glyph-name="Aogonek" unicode="&#x104;" horiz-adv-x="1296" 
d="M1133 -206q-5 -54 39.5 -82.5t111.5 -7.5v-87q-88 -31 -149 -14t-92.5 59t-28.5 94q2 40 18 79.5t37.5 68t43 51t35.5 33.5l15 12h-18l-161 445h-677l-158 -445h-139l507 1433h248l519 -1433q-51 -36 -98.5 -93.5t-52.5 -112.5zM351 568h588l-298 820z" />
    <glyph glyph-name="aogonek" unicode="&#x105;" 
d="M754 -205q-5 -54 40 -82.5t112 -7.5v-87q-88 -31 -149 -14t-92.5 59t-28.5 94q2 40 18 79.5t37.5 68t42.5 51t36 34.5l14 11v172q-8 -19 -23.5 -41t-44.5 -49.5t-64 -50t-86.5 -38.5t-108.5 -18q-175 -6 -284.5 99t-109.5 250q0 159 115.5 254.5t280.5 95.5h218
q47 0 77 30t30 79q0 88 -76.5 138t-197.5 50q-172 0 -244 -154h-137q9 30 21.5 58t42.5 68t69 68.5t104 49.5t144 21q104 0 192 -32.5t146 -102.5t58 -164v-783q-52 -36 -99.5 -93.5t-52.5 -112.5zM454 90q129 0 229.5 80t100.5 177v252q-76 -30 -166 -30h-164
q-110 0 -184.5 -62.5t-74.5 -184.5q0 -99 71 -165.5t188 -66.5z" />
    <glyph glyph-name="Cacute" unicode="&#x106;" horiz-adv-x="1378" 
d="M872 1826l-258 -281h-96l177 281h177zM1172 451q4 18 6 28h138q-22 -109 -69 -198t-107.5 -147.5t-134.5 -98t-149.5 -56.5t-153.5 -17q-151 0 -272.5 59t-199.5 162.5t-120 240t-42 294.5q0 209 78 380.5t223.5 273.5t330.5 102q117 0 215 -29t167 -78t120.5 -116.5
t80 -140.5t40.5 -154h-134q-4 20 -6 29q-20 81 -53.5 144.5t-88.5 116t-139 80.5t-194 28q-146 0 -264 -90t-181.5 -235t-63.5 -311q0 -126 34 -240t97 -202.5t161 -141t217 -52.5q158 0 283 97.5t181 271.5z" />
    <glyph glyph-name="cacute" unicode="&#x107;" horiz-adv-x="1085" 
d="M736 1474l-258 -281h-96l178 281h176zM879 376v2h142q-38 -181 -158.5 -292t-306.5 -111q-217 0 -351.5 146.5t-134.5 407.5q0 258 135.5 406t345.5 148q188 0 314.5 -111t160.5 -308h-133q-31 152 -120.5 230t-217.5 78q-148 0 -248.5 -123t-100.5 -320q0 -203 91 -323
t259 -120q241 0 323 290z" />
    <glyph glyph-name="Ccircumflex" unicode="&#x108;" horiz-adv-x="1378" 
d="M711 1799l-192 -255h-128l213 282h215l214 -282h-129zM1172 451q4 18 6 28h138q-22 -109 -69 -198t-107.5 -147.5t-134.5 -98t-149.5 -56.5t-153.5 -17q-151 0 -272.5 59t-199.5 162.5t-120 240t-42 294.5q0 209 78 380.5t223.5 273.5t330.5 102q117 0 215 -29t167 -78
t120.5 -116.5t80 -140.5t40.5 -154h-134q-4 20 -6 29q-20 81 -53.5 144.5t-88.5 116t-139 80.5t-194 28q-146 0 -264 -90t-181.5 -235t-63.5 -311q0 -126 34 -240t97 -202.5t161 -141t217 -52.5q158 0 283 97.5t181 271.5z" />
    <glyph glyph-name="ccircumflex" unicode="&#x109;" horiz-adv-x="1085" 
d="M543 1447l-193 -255h-128l213 282h215l214 -282h-129zM879 376v2h142q-38 -181 -158.5 -292t-306.5 -111q-217 0 -351.5 146.5t-134.5 407.5q0 258 135.5 406t345.5 148q188 0 314.5 -111t160.5 -308h-133q-31 152 -120.5 230t-217.5 78q-148 0 -248.5 -123t-100.5 -320
q0 -203 91 -323t259 -120q241 0 323 290z" />
    <glyph glyph-name="Cdot" unicode="&#x10a;" horiz-adv-x="1378" 
d="M695 1604q-34 0 -57 19.5t-23 47.5t23 47.5t57 19.5t57.5 -19.5t23.5 -47.5t-23.5 -47.5t-57.5 -19.5zM1172 451q4 18 6 28h138q-22 -109 -69 -198t-107.5 -147.5t-134.5 -98t-149.5 -56.5t-153.5 -17q-151 0 -272.5 59t-199.5 162.5t-120 240t-42 294.5q0 209 78 380.5
t223.5 273.5t330.5 102q117 0 215 -29t167 -78t120.5 -116.5t80 -140.5t40.5 -154h-134q-4 20 -6 29q-20 81 -53.5 144.5t-88.5 116t-139 80.5t-194 28q-146 0 -264 -90t-181.5 -235t-63.5 -311q0 -126 34 -240t97 -202.5t161 -141t217 -52.5q158 0 283 97.5t181 271.5z" />
    <glyph glyph-name="cdot" unicode="&#x10b;" horiz-adv-x="1085" 
d="M534 1252q-34 0 -57.5 19.5t-23.5 47.5t23.5 47.5t57.5 19.5t57.5 -19.5t23.5 -47.5t-23.5 -47.5t-57.5 -19.5zM879 376v2h142q-38 -181 -158.5 -292t-306.5 -111q-217 0 -351.5 146.5t-134.5 407.5q0 258 135.5 406t345.5 148q188 0 314.5 -111t160.5 -308h-133
q-31 152 -120.5 230t-217.5 78q-148 0 -248.5 -123t-100.5 -320q0 -203 91 -323t259 -120q241 0 323 290z" />
    <glyph glyph-name="Ccaron" unicode="&#x10c;" horiz-adv-x="1378" 
d="M804 1544h-216l-213 282h129l192 -255l192 255h130zM1172 451q4 18 6 28h138q-22 -109 -69 -198t-107.5 -147.5t-134.5 -98t-149.5 -56.5t-153.5 -17q-151 0 -272.5 59t-199.5 162.5t-120 240t-42 294.5q0 209 78 380.5t223.5 273.5t330.5 102q117 0 215 -29t167 -78
t120.5 -116.5t80 -140.5t40.5 -154h-134q-4 20 -6 29q-20 81 -53.5 144.5t-88.5 116t-139 80.5t-194 28q-146 0 -264 -90t-181.5 -235t-63.5 -311q0 -126 34 -240t97 -202.5t161 -141t217 -52.5q158 0 283 97.5t181 271.5z" />
    <glyph glyph-name="ccaron" unicode="&#x10d;" horiz-adv-x="1085" 
d="M660 1192h-215l-213 282h128l193 -255l192 255h129zM879 376v2h142q-38 -181 -158.5 -292t-306.5 -111q-217 0 -351.5 146.5t-134.5 407.5q0 258 135.5 406t345.5 148q188 0 314.5 -111t160.5 -308h-133q-31 152 -120.5 230t-217.5 78q-148 0 -248.5 -123t-100.5 -320
q0 -203 91 -323t259 -120q241 0 323 290z" />
    <glyph glyph-name="Dcaron" unicode="&#x10e;" horiz-adv-x="1359" 
d="M768 1544h-215l-213 282h128l193 -255l192 255h129zM694 1434q123 0 232.5 -52.5t190 -144.5t128 -227.5t47.5 -292.5q0 -196 -73 -358.5t-211 -260.5t-314 -98h-571v1434h571zM695 124q131 3 238.5 83.5t167.5 215.5t60 294q0 162 -59.5 298t-167 216t-240.5 80h-440
v-1187h441z" />
    <glyph glyph-name="dcaron" unicode="&#x10f;" horiz-adv-x="1218" 
d="M840 873v561h121v-1434h-121v159q-48 -91 -132 -137.5t-195 -46.5q-121 0 -224 72.5t-163 197t-60 271.5t60 271.5t163 197t224 72.5q104 0 191 -46.5t136 -137.5zM513 86q141 0 234 109.5t93 320.5t-93 320.5t-234 109.5q-131 0 -223.5 -125t-92.5 -305t92.5 -305
t223.5 -125zM1169 1435h147l-135 -472h-96z" />
    <glyph glyph-name="Dslash" unicode="&#x110;" horiz-adv-x="1409" 
d="M744 1434q123 0 232.5 -52.5t190 -144.5t128 -227.5t47.5 -292.5q0 -196 -73 -358.5t-211 -260.5t-314 -98h-572v647h-119v124h119v663h572zM744 123q131 3 238.5 84t167.5 216t60 294q0 162 -59 298t-166.5 216t-240.5 80h-441v-540h441v-124h-441v-524h441z" />
    <glyph glyph-name="dmacron" unicode="&#x111;" horiz-adv-x="1075" 
d="M961 1434v-148h129v-83h-129v-1203h-121v159q-48 -91 -132 -137.5t-195 -46.5q-121 0 -224 72.5t-163 197t-60 271.5t60 271.5t163 197t224 72.5q104 0 191 -46.5t136 -137.5v330h-366v83h366v148h121zM513 86q141 0 234 109.5t93 320.5t-93 320.5t-234 109.5
q-131 0 -223.5 -125t-92.5 -305t92.5 -305t223.5 -125z" />
    <glyph glyph-name="Emacron" unicode="&#x112;" horiz-adv-x="1228" 
d="M968 1606h-611v83h611v-83zM1178 1310h-924v-534h847v-121h-847v-532h924v-123h-1055v1433h1055v-123z" />
    <glyph glyph-name="emacron" unicode="&#x113;" horiz-adv-x="1099" 
d="M1031 529v-33h-840q9 -190 109.5 -299t250.5 -111q118 2 207.5 71t127.5 195h126q-42 -180 -164.5 -277.5t-296.5 -99.5q-214 2 -347.5 148t-133.5 406q0 255 136 404.5t345 149.5t344.5 -149.5t135.5 -404.5zM196 608h709q-21 163 -119.5 262.5t-234.5 101.5
q-136 -2 -235 -101.5t-120 -262.5zM844 1251h-612v84h612v-84z" />
    <glyph glyph-name="Ebreve" unicode="&#x114;" horiz-adv-x="1228" 
d="M1178 1310h-924v-534h847v-121h-847v-532h924v-123h-1055v1433h1055v-123zM646 1552q-120 0 -208.5 79.5t-88.5 193.5h72q0 -70 63 -126t162 -56t165 56t66 126h71q0 -114 -91 -193.5t-211 -79.5z" />
    <glyph glyph-name="ebreve" unicode="&#x115;" horiz-adv-x="1099" 
d="M1031 529v-33h-840q9 -190 109.5 -299t250.5 -111q118 2 207.5 71t127.5 195h126q-42 -180 -164.5 -277.5t-296.5 -99.5q-214 2 -347.5 148t-133.5 406q0 255 136 404.5t345 149.5t344.5 -149.5t135.5 -404.5zM196 608h709q-21 163 -119.5 262.5t-234.5 101.5
q-136 -2 -235 -101.5t-120 -262.5zM545 1201q-120 0 -208.5 79.5t-88.5 193.5h73q0 -70 62.5 -126t161.5 -56t165.5 56t66.5 126h71q0 -114 -91.5 -193.5t-211.5 -79.5z" />
    <glyph glyph-name="Edot" unicode="&#x116;" horiz-adv-x="1228" 
d="M650 1604q-34 0 -57 19.5t-23 47.5t23 47.5t57 19.5t57.5 -19.5t23.5 -47.5t-23.5 -47.5t-57.5 -19.5zM1178 1310h-924v-534h847v-121h-847v-532h924v-123h-1055v1433h1055v-123z" />
    <glyph glyph-name="edot" unicode="&#x117;" horiz-adv-x="1099" 
d="M548 1248q-34 0 -57 19.5t-23 47.5t23 47.5t57 19.5t57.5 -19.5t23.5 -47.5t-23.5 -47.5t-57.5 -19.5zM1031 529v-33h-840q9 -190 109.5 -299t250.5 -111q118 2 207.5 71t127.5 195h126q-42 -180 -164.5 -277.5t-296.5 -99.5q-214 2 -347.5 148t-133.5 406
q0 255 136 404.5t345 149.5t344.5 -149.5t135.5 -404.5zM196 608h709q-21 163 -119.5 262.5t-234.5 101.5q-136 -2 -235 -101.5t-120 -262.5z" />
    <glyph glyph-name="Eogonek" unicode="&#x118;" horiz-adv-x="1228" 
d="M1178 1310h-924v-534h847v-121h-847v-532h924v-123q-52 -36 -99.5 -93.5t-52.5 -112.5q-5 -54 40 -82.5t112 -7.5v-88q-88 -31 -149 -14t-92.5 59.5t-28.5 94.5q2 40 18 79.5t37.5 68t42.5 51t36 33.5l14 12h-933v1433h1055v-123z" />
    <glyph glyph-name="eogonek" unicode="&#x119;" horiz-adv-x="1097" 
d="M1031 529v-33h-840q9 -190 109.5 -299t250.5 -111q118 2 207.5 71t127.5 195h126q-38 -160 -140.5 -255.5t-249.5 -115.5q-47 -39 -83.5 -89t-40.5 -97q-5 -54 39.5 -82.5t111.5 -7.5v-87q-88 -31 -149 -14t-92.5 59t-28.5 94q6 117 121 221q-194 19 -312 163t-118 388
q0 255 136 404.5t345 149.5t344.5 -149.5t135.5 -404.5zM196 608h709q-21 163 -119.5 262.5t-234.5 101.5q-136 -2 -235 -101.5t-120 -262.5z" />
    <glyph glyph-name="Ecaron" unicode="&#x11a;" horiz-adv-x="1228" 
d="M1178 1310h-924v-534h847v-121h-847v-532h924v-123h-1055v1433h1055v-123zM772 1543h-215l-213 282h128l193 -255l192 255h129z" />
    <glyph glyph-name="ecaron" unicode="&#x11b;" horiz-adv-x="1099" 
d="M661 1192h-215l-213 282h128l192 -255l193 255h129zM1031 529v-33h-840q9 -190 109.5 -299t250.5 -111q118 2 207.5 71t127.5 195h126q-42 -180 -164.5 -277.5t-296.5 -99.5q-214 2 -347.5 148t-133.5 406q0 255 136 404.5t345 149.5t344.5 -149.5t135.5 -404.5zM196 608
h709q-21 163 -119.5 262.5t-234.5 101.5q-136 -2 -235 -101.5t-120 -262.5z" />
    <glyph glyph-name="Gcircumflex" unicode="&#x11c;" horiz-adv-x="1437" 
d="M710 1799l-192 -255h-128l213 282h215l214 -282h-129zM1339 0h-118v274q-58 -133 -191.5 -223t-327.5 -90q-151 0 -272.5 59t-199.5 162.5t-120 240t-42 294.5q0 209 78 380.5t223.5 273.5t330.5 102q145 0 260.5 -43.5t188.5 -118t116 -163.5t58 -192h-121l-9 -5
q-38 183 -162 291.5t-326 108.5q-113 0 -208.5 -51.5t-160.5 -138t-101 -202t-36 -242.5q0 -129 32.5 -242.5t94 -201.5t159.5 -139t220 -51q220 0 357.5 154.5t159.5 407.5h-516v132h633v-777z" />
    <glyph glyph-name="gcircumflex" unicode="&#x11d;" horiz-adv-x="1087" 
d="M535 1447l-192 -255h-129l213 282h216l213 -282h-129zM792 267q89 -25 150.5 -98t61.5 -188q0 -97 -62 -179t-169 -130t-233 -48t-233 48t-169 130t-62 179q0 10 2 28h124q-2 -14 -2 -22q0 -97 96 -176t244 -79q150 0 242.5 73.5t92.5 181.5q0 99 -91.5 148.5
t-238.5 49.5q-173 0 -288 75q-89 58 -140 152t-51 203q0 121 63 223t171.5 161t236.5 59q120 0 226 -54l150 149l75 -75l-134 -135q73 -62 114 -147t41 -181q0 -108 -62.5 -206t-154.5 -142zM537 294q154 0 247 90.5t93 229.5q0 133 -95 233t-245 100t-244.5 -100
t-94.5 -233q0 -139 92.5 -229.5t246.5 -90.5z" />
    <glyph glyph-name="Gbreve" unicode="&#x11e;" horiz-adv-x="1437" 
d="M1339 0h-118v274q-58 -133 -191.5 -223t-327.5 -90q-151 0 -272.5 59t-199.5 162.5t-120 240t-42 294.5q0 209 78 380.5t223.5 273.5t330.5 102q145 0 260.5 -43.5t188.5 -118t116 -163.5t58 -192h-121l-9 -5q-38 183 -162 291.5t-326 108.5q-113 0 -208.5 -51.5
t-160.5 -138t-101 -202t-36 -242.5q0 -129 32.5 -242.5t94 -201.5t159.5 -139t220 -51q220 0 357.5 154.5t159.5 407.5h-516v132h633v-777zM706 1553q-120 0 -208.5 79.5t-88.5 193.5h72q0 -70 63 -126t162 -56t165.5 56t66.5 126h70q0 -114 -91 -193.5t-211 -79.5z" />
    <glyph glyph-name="gbreve" unicode="&#x11f;" horiz-adv-x="1087" 
d="M792 267q89 -25 150.5 -98t61.5 -188q0 -97 -62 -179t-169 -130t-233 -48t-233 48t-169 130t-62 179q0 10 2 28h124q-2 -14 -2 -22q0 -97 96 -176t244 -79q150 0 242.5 73.5t92.5 181.5q0 99 -91.5 148.5t-238.5 49.5q-173 0 -288 75q-89 58 -140 152t-51 203
q0 121 63 223t171.5 161t236.5 59q120 0 226 -54l150 149l75 -75l-134 -135q73 -62 114 -147t41 -181q0 -108 -62.5 -206t-154.5 -142zM537 294q154 0 247 90.5t93 229.5q0 133 -95 233t-245 100t-244.5 -100t-94.5 -233q0 -139 92.5 -229.5t246.5 -90.5zM547 1201
q-120 0 -208.5 79.5t-88.5 193.5h72q0 -70 63 -126t162 -56t165 56t66 126h71q0 -114 -91 -193.5t-211 -79.5z" />
    <glyph glyph-name="Gdot" unicode="&#x120;" horiz-adv-x="1437" 
d="M1339 0h-118v274q-58 -133 -191.5 -223t-327.5 -90q-151 0 -272.5 59t-199.5 162.5t-120 240t-42 294.5q0 209 78 380.5t223.5 273.5t330.5 102q145 0 260.5 -43.5t188.5 -118t116 -163.5t58 -192h-121l-9 -5q-38 183 -162 291.5t-326 108.5q-113 0 -208.5 -51.5
t-160.5 -138t-101 -202t-36 -242.5q0 -129 32.5 -242.5t94 -201.5t159.5 -139t220 -51q220 0 357.5 154.5t159.5 407.5h-516v132h633v-777zM704 1605q-50 1 -70.5 34t0 66t70.5 34q50 -1 70.5 -34t0 -66t-70.5 -34z" />
    <glyph glyph-name="gdot" unicode="&#x121;" horiz-adv-x="1087" 
d="M541 1251q-34 0 -57.5 19.5t-23.5 47.5t23.5 47.5t57.5 19.5t57.5 -19.5t23.5 -47.5t-23.5 -47.5t-57.5 -19.5zM792 267q89 -25 150.5 -98t61.5 -188q0 -97 -62 -179t-169 -130t-233 -48t-233 48t-169 130t-62 179q0 10 2 28h124q-2 -14 -2 -22q0 -97 96 -176t244 -79
q150 0 242.5 73.5t92.5 181.5q0 99 -91.5 148.5t-238.5 49.5q-173 0 -288 75q-89 58 -140 152t-51 203q0 121 63 223t171.5 161t236.5 59q120 0 226 -54l150 149l75 -75l-134 -135q73 -62 114 -147t41 -181q0 -108 -62.5 -206t-154.5 -142zM537 294q154 0 247 90.5t93 229.5
q0 133 -95 233t-245 100t-244.5 -100t-94.5 -233q0 -139 92.5 -229.5t246.5 -90.5z" />
    <glyph glyph-name="Gcedilla" unicode="&#x122;" horiz-adv-x="1437" 
d="M614 -432l54 347h121l-80 -347h-95zM1339 0h-118v274q-58 -133 -191.5 -223t-327.5 -90q-151 0 -272.5 59t-199.5 162.5t-120 240t-42 294.5q0 209 78 380.5t223.5 273.5t330.5 102q145 0 260.5 -43.5t188.5 -118t116 -163.5t58 -192h-121l-9 -5q-38 183 -162 291.5
t-326 108.5q-113 0 -208.5 -51.5t-160.5 -138t-101 -202t-36 -242.5q0 -129 32.5 -242.5t94 -201.5t159.5 -139t220 -51q220 0 357.5 154.5t159.5 407.5h-516v132h633v-777z" />
    <glyph glyph-name="gcedilla" unicode="&#x123;" horiz-adv-x="1085" 
d="M728 1473l-259 -281h-95l177 281h177zM790 266q89 -25 150.5 -98t61.5 -188q0 -97 -62 -179t-169 -130t-233 -48t-233 48t-169 130t-62 179q0 10 2 28h124q-2 -14 -2 -21q0 -98 96 -177t244 -79q150 0 242.5 74t92.5 182q0 67 -45 112t-117 65t-168 20q-173 0 -288 75
q-89 58 -140.5 152t-51.5 203q0 90 37.5 172t100.5 141.5t150.5 94.5t183.5 35q120 0 226 -54l150 150l75 -76l-134 -134q73 -62 114 -147.5t41 -181.5q0 -108 -62.5 -206t-154.5 -142zM535 294q154 0 247 90t93 229q0 133 -95 233t-245 100t-244.5 -100t-94.5 -233
q0 -139 92.5 -229t246.5 -90z" />
    <glyph glyph-name="Hcircumflex" unicode="&#x124;" horiz-adv-x="1376" 
d="M689 1799l-192 -255h-128l213 282h215l214 -282h-129zM1119 1434h133v-1433h-133v687h-865v-687h-131v1433h131v-625h865v625z" />
    <glyph glyph-name="hcircumflex" unicode="&#x125;" horiz-adv-x="1071" 
d="M366 1508l-193 254l-192 -254h-128l213 281h215l214 -281h-129zM540 1079q107 10 204 -31t161 -135.5t64 -223.5v-690h-121v690q0 110 -85 195t-223 85q-132 0 -219.5 -86t-87.5 -194v-690h-121v1434h121v-535q42 66 120 118.5t187 62.5z" />
    <glyph glyph-name="Hbar" unicode="&#x126;" horiz-adv-x="1447" 
d="M1289 1122h98v-84h-98v-1037h-134v687h-864v-687h-131v1037h-103v84h103v312h131v-312h864v312h134v-312zM1155 809v229h-864v-229h864z" />
    <glyph glyph-name="hbar" unicode="&#x127;" horiz-adv-x="1069" 
d="M540 1079q107 10 204 -31t161 -135.5t64 -223.5v-690h-121v690q0 110 -85 195t-223 85q-132 0 -219.5 -86t-87.5 -194v-690h-121v1204h-128v83h128v147h121v-147h366v-83h-366v-305q42 66 120 118.5t187 62.5z" />
    <glyph glyph-name="Itilde" unicode="&#x128;" horiz-adv-x="376" 
d="M447 1779h67q-5 -46 -25.5 -83.5t-48.5 -58t-61 -34t-64 -12t-57 8.5l-184 67q-18 5 -34 5q-40 0 -72.5 -25.5t-37.5 -69.5h-67q5 46 25.5 83.5t48.5 58t61 34t64 12t57 -8.5l184 -67q15 -4 34 -4q40 0 72.5 25t37.5 69zM253 0h-131v1434h131v-1434z" />
    <glyph glyph-name="itilde" unicode="&#x129;" horiz-adv-x="348" 
d="M234 -1h-121v1057h121v-1057zM429 1416h67q-6 -58 -36 -101t-68 -61t-80 -25t-73 7l-184 67q-18 5 -34 5q-40 0 -72 -25.5t-37 -69.5h-68q6 58 36 101t68 61t80 25t73 -7l184 -67q18 -5 34 -5q40 0 72.5 25.5t37.5 69.5z" />
    <glyph glyph-name="Imacron" unicode="&#x12a;" horiz-adv-x="376" 
d="M495 1605h-612v84h612v-84zM254 0h-131v1434h131v-1434z" />
    <glyph glyph-name="imacron" unicode="&#x12b;" horiz-adv-x="346" 
d="M233 -1h-121v1057h121v-1057zM480 1252h-611v83h611v-83z" />
    <glyph glyph-name="Ibreve" unicode="&#x12c;" horiz-adv-x="374" 
d="M252 0h-131v1434h131v-1434zM414 1826h71q0 -114 -91.5 -193.5t-211.5 -79.5t-208.5 79.5t-88.5 193.5h73q0 -70 62.5 -126t161.5 -56t165.5 56t66.5 126z" />
    <glyph glyph-name="ibreve" unicode="&#x12d;" horiz-adv-x="346" 
d="M233 -1h-121v1057h121v-1057zM402 1472h71q0 -114 -91.5 -193.5t-211.5 -79.5t-208.5 79.5t-88.5 193.5h73q0 -70 62.5 -126t161.5 -56t165.5 56t66.5 126z" />
    <glyph glyph-name="Iogonek" unicode="&#x12e;" horiz-adv-x="376" 
d="M253 0q-51 -35 -98 -93t-52 -112t39.5 -83t111.5 -8v-87q-88 -31 -149 -14t-92.5 59t-28.5 94q2 39 18 78.5t35 66t42.5 51.5t34.5 34t18 14h-9v1434h131v-1434h-1z" />
    <glyph glyph-name="iogonek" unicode="&#x12f;" horiz-adv-x="346" 
d="M169 1251q-34 0 -57.5 19.5t-23.5 47.5t23.5 47.5t57.5 19.5t57 -19.5t23 -47.5t-23 -47.5t-57 -19.5zM112 1v1057h121v-1057q-51 -36 -98.5 -93.5t-52.5 -112.5q-5 -54 39.5 -82.5t111.5 -7.5v-87q-88 -31 -149 -14t-92.5 59t-28.5 94q2 40 18 79.5t37.5 68t43 51
t36.5 34.5z" />
    <glyph glyph-name="Idot" unicode="&#x130;" horiz-adv-x="376" 
d="M188 1605q-50 1 -70.5 34t0 66t70.5 34q50 -1 70.5 -34t0 -66t-70.5 -34zM254 0h-131v1434h131v-1434z" />
    <glyph glyph-name="dotlessi" unicode="&#x131;" horiz-adv-x="348" 
d="M234 0h-121v1056h121v-1056z" />
    <glyph glyph-name="Jcircumflex" unicode="&#x134;" horiz-adv-x="960" 
d="M896 1827l214 -282h-130l-192 255l-192 -255h-129l213 282h216zM716 367v1067h131v-1061q0 -168 -119.5 -290t-291.5 -122q-170 0 -290.5 121t-120.5 291v89h131v-84q0 -118 82.5 -207t197.5 -89q112 0 193.5 85.5t86.5 199.5z" />
    <glyph glyph-name="jcircumflex" unicode="&#x135;" horiz-adv-x="346" 
d="M281 1473l214 -281h-129l-193 254l-192 -254h-128l213 281h215zM112 516v541h121v-923q0 -129 -17.5 -222t-47 -148.5t-78 -87.5t-99.5 -42.5t-123 -10.5v111q139 0 191.5 90.5t52.5 309.5v382z" />
    <glyph glyph-name="Kcedilla" unicode="&#x136;" horiz-adv-x="1296" 
d="M549 -432l53 346h122l-81 -346h-94zM649 883l646 -882h-162l-578 793l-301 -287v-506h-131v1433h131v-759l796 759h175z" />
    <glyph glyph-name="kcedilla" unicode="&#x137;" horiz-adv-x="1019" 
d="M484 646l518 -647h-156l-452 564l-160 -146v-418h-121v1434h121v-871l538 494h159zM431 -434l53 346h121l-80 -346h-94z" />
    <glyph glyph-name="Lacute" unicode="&#x139;" horiz-adv-x="1036" 
d="M475 1825l-259 -281h-95l177 281h177zM253 124h783v-123h-914v1433h131v-1310z" />
    <glyph glyph-name="lacute" unicode="&#x13a;" horiz-adv-x="346" 
d="M186 1814h176l-258 -281h-96zM233 -1h-121v1434h121v-1434z" />
    <glyph glyph-name="Lcedilla" unicode="&#x13b;" horiz-adv-x="1038" 
d="M513 -433l54 347h121l-80 -347h-95zM254 124h783v-123h-914v1433h131v-1310z" />
    <glyph glyph-name="lcedilla" unicode="&#x13c;" horiz-adv-x="346" 
d="M144 -87h121l-80 -346h-95zM233 -1h-121v1434h121v-1434z" />
    <glyph glyph-name="Lcaron" unicode="&#x13d;" horiz-adv-x="1069" 
d="M254 124h783v-123h-914v1433h131v-1310zM1010 1434l-135 -471h-96l85 471h146z" />
    <glyph glyph-name="lcaron" unicode="&#x13e;" horiz-adv-x="544" 
d="M496 1433h147l-135 -472h-96zM234 -1h-121v1434h121v-1434z" />
    <glyph glyph-name="Ldot" unicode="&#x13f;" horiz-adv-x="1038" 
d="M647 628q-50 1 -70.5 34t0 66t70.5 34q50 -1 70.5 -34t0 -66t-70.5 -34zM254 124h783v-123h-914v1433h131v-1310z" />
    <glyph glyph-name="ldot" unicode="&#x140;" horiz-adv-x="579" 
d="M481 922q-34 0 -57 19.5t-23 47.5t23 47.5t57 19.5t57.5 -19.5t23.5 -47.5t-23.5 -47.5t-57.5 -19.5zM234 -1h-121v1434h121v-1434z" />
    <glyph glyph-name="Lslash" unicode="&#x141;" horiz-adv-x="1171" 
d="M384 124h783v-123h-914v638l-205 -91l-34 76l239 106v704h131v-646l536 237l34 -76l-570 -252v-573z" />
    <glyph glyph-name="lslash" unicode="&#x142;" horiz-adv-x="802" 
d="M755 1042l34 -76l-392 -173v-794h-121v740l-222 -99l-34 76l256 114v603h121v-549z" />
    <glyph glyph-name="Nacute" unicode="&#x143;" horiz-adv-x="1376" 
d="M867 1826l-258 -281h-96l178 281h176zM1121 1434h131v-1433h-161l-837 1261v-1261h-131v1433h161l837 -1261v1261z" />
    <glyph glyph-name="nacute" unicode="&#x144;" horiz-adv-x="1071" 
d="M541 1079q63 6 125.5 -7.5t117 -46t96.5 -78.5t66 -110t24 -136v-702h-122v690q0 110 -84.5 194.5t-222.5 84.5q-132 0 -219.5 -85.5t-87.5 -193.5v-690h-121v1057h121v-158q42 66 119.5 118.5t187.5 62.5zM728 1472l-259 -281h-96l178 281h177z" />
    <glyph glyph-name="Ncedilla" unicode="&#x145;" horiz-adv-x="1376" 
d="M616 -432l53 347h121l-80 -347h-94zM1121 1434h131v-1433h-161l-837 1261v-1261h-131v1433h161l837 -1261v1261z" />
    <glyph glyph-name="ncedilla" unicode="&#x146;" horiz-adv-x="1071" 
d="M442 -432l53 347h122l-81 -347h-94zM541 1079q63 6 125.5 -7.5t117 -46t96.5 -78.5t66 -110t24 -136v-702h-122v690q0 110 -84.5 194.5t-222.5 84.5q-132 0 -219.5 -85.5t-87.5 -193.5v-690h-121v1057h121v-158q42 66 119.5 118.5t187.5 62.5z" />
    <glyph glyph-name="Ncaron" unicode="&#x147;" horiz-adv-x="1376" 
d="M813 1544h-216l-213 282h129l192 -255l192 255h130zM1121 1434h131v-1433h-161l-837 1261v-1261h-131v1433h161l837 -1261v1261z" />
    <glyph glyph-name="ncaron" unicode="&#x148;" horiz-adv-x="1071" 
d="M672 1191h-215l-213 281h128l192 -254l192 254h130zM541 1079q63 6 125.5 -7.5t117 -46t96.5 -78.5t66 -110t24 -136v-702h-122v690q0 110 -84.5 194.5t-222.5 84.5q-132 0 -219.5 -85.5t-87.5 -193.5v-690h-121v1057h121v-158q42 66 119.5 118.5t187.5 62.5z" />
    <glyph glyph-name="Eng" unicode="&#x14a;" horiz-adv-x="1376" 
d="M1121 1434h131v-1300q0 -84 -5 -134q-10 -117 -39.5 -194t-79 -115.5t-105.5 -53t-136 -14.5v111q116 0 170.5 62t68.5 204h-35l-837 1261v-1261h-131v1434h161l837 -1262v1262z" />
    <glyph glyph-name="eng" unicode="&#x14b;" horiz-adv-x="1071" 
d="M849 978q121 -109 121 -277v-616q-1 -34 -5 -86q-10 -117 -39.5 -194t-79 -116t-105.5 -53t-136 -14v111q131 -1 184.5 79t58.5 272v605q0 110 -84.5 194.5t-222.5 84.5q-132 0 -219.5 -85.5t-87.5 -193.5v-690h-121v1057h121v-158q42 66 119.5 118.5t187.5 62.5
q84 8 165.5 -19t142.5 -82z" />
    <glyph glyph-name="Omacron" unicode="&#x14c;" horiz-adv-x="1525" 
d="M756 1473q153 0 286 -59.5t224.5 -161.5t143.5 -241t52 -294t-52 -294t-143.5 -241t-224.5 -161.5t-286 -59.5q-204 0 -363.5 102t-244.5 273.5t-85 380.5t85 380.5t244.5 273.5t363.5 102zM756 82q130 0 239.5 51t182.5 138t113 202t40 244t-40 244t-113 202t-182.5 138
t-239.5 51t-237.5 -51t-177.5 -138t-108 -202t-38 -244t38 -244t108 -202t177.5 -138t237.5 -51zM1055 1603h-611v83h611v-83z" />
    <glyph glyph-name="omacron" unicode="&#x14d;" horiz-adv-x="1101" 
d="M551 1083q209 0 344.5 -149.5t135.5 -404.5q0 -260 -133 -405.5t-347 -147.5q-215 2 -348 147.5t-133 405.5q0 255 136 404.5t345 149.5zM551 86q157 2 258 120t101 323q0 195 -103 318.5t-256 125.5q-153 -2 -256.5 -125.5t-103.5 -318.5q0 -205 101.5 -323t258.5 -120z
M841 1255h-612v83h612v-83z" />
    <glyph glyph-name="Obreve" unicode="&#x14e;" horiz-adv-x="1525" 
d="M756 1473q153 0 286 -59.5t224.5 -161.5t143.5 -241t52 -294t-52 -294t-143.5 -241t-224.5 -161.5t-286 -59.5q-204 0 -363.5 102t-244.5 273.5t-85 380.5t85 380.5t244.5 273.5t363.5 102zM756 82q130 0 239.5 51t182.5 138t113 202t40 244t-40 244t-113 202t-182.5 138
t-239.5 51t-237.5 -51t-177.5 -138t-108 -202t-38 -244t38 -244t108 -202t177.5 -138t237.5 -51zM764 1551q-120 0 -208.5 79.5t-88.5 193.5h73q0 -70 62.5 -126.5t161.5 -56.5t165.5 56.5t66.5 126.5h71q0 -114 -91.5 -193.5t-211.5 -79.5z" />
    <glyph glyph-name="obreve" unicode="&#x14f;" horiz-adv-x="1101" 
d="M551 1083q209 0 344.5 -149.5t135.5 -404.5q0 -260 -133 -405.5t-347 -147.5q-215 2 -348 147.5t-133 405.5q0 255 136 404.5t345 149.5zM551 86q157 2 258 120t101 323q0 195 -103 318.5t-256 125.5q-153 -2 -256.5 -125.5t-103.5 -318.5q0 -205 101.5 -323t258.5 -120z
M540 1201q-120 0 -208.5 79.5t-88.5 193.5h73q0 -70 62.5 -126t161.5 -56t165.5 56t66.5 126h71q0 -114 -91.5 -193.5t-211.5 -79.5z" />
    <glyph glyph-name="Ohungarumlaut" unicode="&#x150;" horiz-adv-x="1525" 
d="M756 1473q153 0 286 -59.5t224.5 -161.5t143.5 -241t52 -294t-52 -294t-143.5 -241t-224.5 -161.5t-286 -59.5q-204 0 -363.5 102t-244.5 273.5t-85 380.5t85 380.5t244.5 273.5t363.5 102zM756 82q130 0 239.5 51t182.5 138t113 202t40 244t-40 244t-113 202t-182.5 138
t-239.5 51t-237.5 -51t-177.5 -138t-108 -202t-38 -244t38 -244t108 -202t177.5 -138t237.5 -51zM802 1869l-259 -281h-96l178 281h177zM840 1588h-96l177 281h177z" />
    <glyph glyph-name="ohungarumlaut" unicode="&#x151;" horiz-adv-x="1101" 
d="M551 1083q209 0 344.5 -149.5t135.5 -404.5q0 -260 -133 -405.5t-347 -147.5q-215 2 -348 147.5t-133 405.5q0 255 136 404.5t345 149.5zM551 86q157 2 258 120t101 323q0 195 -103 318.5t-256 125.5q-153 -2 -256.5 -125.5t-103.5 -318.5q0 -205 101.5 -323t258.5 -120z
M563 1474l-258 -281h-96l177 281h177zM603 1193h-96l177 281h177z" />
    <glyph glyph-name="OE" unicode="&#x152;" horiz-adv-x="2435" 
d="M2386 1310h-924v-534h847v-121h-847v-531h924v-124h-1055v266q-95 -142 -244 -223.5t-331 -81.5q-204 0 -363.5 102t-244.5 273.5t-85 380.5t85 380.5t244.5 273.5t363.5 102q182 0 331 -81.5t244 -223.5v266h1055v-124zM756 82q130 0 239.5 51t182.5 138t113 202t40 244
t-40 244t-113 202t-182.5 138t-239.5 51t-237.5 -51t-177.5 -138t-108 -202t-38 -244t38 -244t108 -202t177.5 -138t237.5 -51z" />
    <glyph glyph-name="oe" unicode="&#x153;" horiz-adv-x="1943" 
d="M1396 84q234 0 330 268h132q-31 -164 -154.5 -270.5t-307.5 -106.5q-145 0 -255.5 67.5t-169.5 191.5q-59 -123 -168 -190.5t-252 -68.5q-214 2 -347.5 148t-133.5 406q0 258 135.5 406t345.5 148q148 0 256 -71.5t166 -195.5q60 122 168.5 194t242.5 73
q61 1 116.5 -10.5t112.5 -36t103 -70t82.5 -108.5t56.5 -155.5t20 -206.5h-823q0 -182 93.5 -297t250.5 -115zM551 86q173 2 266 122t93 321q0 195 -103 318t-256 125q-153 -2 -256.5 -125t-103.5 -318q0 -201 93.5 -321t266.5 -122zM1387 972q-84 0 -162 -52t-125.5 -136.5
t-47.5 -175.5h688q0 162 -103 263t-250 101z" />
    <glyph glyph-name="Racute" unicode="&#x154;" horiz-adv-x="1298" 
d="M797 1872l-259 -281h-95l177 281h177zM828 607l425 -606h-161l-424 606l-415 1v-607h-130v1433h698q170 0 286 -119t116 -285q0 -182 -104 -301t-291 -122zM253 729l568 -1q73 0 127 24t84 66t44.5 91.5t14.5 107.5q0 75 -25 133.5t-65.5 92t-86.5 50.5t-93 17l-568 1
v-582z" />
    <glyph glyph-name="racute" unicode="&#x155;" horiz-adv-x="661" 
d="M560 1472l-259 -281h-95l177 281h177zM503 1081q72 0 141 -25v-110q-49 25 -141 25q-114 0 -191.5 -87.5t-77.5 -187.5v-697h-121v1057h121v-144q29 64 104 116.5t165 52.5z" />
    <glyph glyph-name="Rcedilla" unicode="&#x156;" horiz-adv-x="1298" 
d="M576 -432l53 346h121l-80 -346h-94zM828 607l425 -606h-161l-424 606l-415 1v-607h-130v1433h698q170 0 286 -119t116 -285q0 -182 -104 -301t-291 -122zM253 729l568 -1q73 0 127 24t84 66t44.5 91.5t14.5 107.5q0 75 -25 133.5t-65.5 92t-86.5 50.5t-93 17l-568 1v-582
z" />
    <glyph glyph-name="rcedilla" unicode="&#x157;" horiz-adv-x="659" 
d="M90 -432l54 347h121l-80 -347h-95zM502 1081q72 0 141 -25v-110q-49 24 -141 24q-114 0 -191.5 -87t-77.5 -187v-697h-121v1057h121v-144q29 64 104 116.5t165 52.5z" />
    <glyph glyph-name="Rcaron" unicode="&#x158;" horiz-adv-x="1298" 
d="M731 1545h-216l-213 281h129l192 -255l192 255h130zM828 607l425 -606h-161l-424 606l-415 1v-607h-130v1433h698q170 0 286 -119t116 -285q0 -182 -104 -301t-291 -122zM253 729l568 -1q73 0 127 24t84 66t44.5 91.5t14.5 107.5q0 75 -25 133.5t-65.5 92t-86.5 50.5
t-93 17l-568 1v-582z" />
    <glyph glyph-name="rcaron" unicode="&#x159;" horiz-adv-x="659" 
d="M374 1445l-192 -254h-129l213 281h216l214 -281h-130zM234 912q29 64 104 116.5t165 52.5q72 0 141 -25v-110q-49 25 -141 25q-114 0 -191.5 -87.5t-77.5 -187.5v-697h-121v1057h121v-144z" />
    <glyph glyph-name="Sacute" unicode="&#x15a;" horiz-adv-x="1241" 
d="M800 1871l-258 -281h-96l178 281h176zM849 748q325 -79 325 -363q0 -116 -74 -214.5t-202.5 -155.5t-280.5 -54q-108 2 -200.5 32.5t-157.5 80t-110.5 114t-67.5 134.5t-22 141h133q0 -46 16 -96t51 -99.5t83 -89t118.5 -65.5t152.5 -29q108 -4 208 37t160.5 112.5
t60.5 151.5q0 87 -62.5 149t-169.5 88l-396 96q-299 72 -306 343q0 112 68.5 207t186.5 150t257 55q123 0 223 -39.5t161.5 -105t94.5 -146.5t33 -168h-131q0 56 -25.5 114t-71.5 108.5t-120.5 83t-163.5 32.5q-167 0 -274 -88t-107 -202q0 -75 60.5 -134.5t156.5 -84.5z
" />
    <glyph glyph-name="sacute" unicode="&#x15b;" horiz-adv-x="995" 
d="M676 1473l-259 -281h-95l177 281h177zM655 560q113 -31 162 -60q110 -66 110 -192q0 -73 -26 -132t-68.5 -96t-99 -62t-114.5 -34.5t-118 -8.5q-102 3 -186.5 35.5t-137.5 84.5t-82 115.5t-29 130.5h121q0 -99 86 -175t228 -80q128 -4 217.5 53.5t89.5 151.5
q0 100 -170 149l-290 77q-135 36 -196.5 98t-61.5 158q0 128 117.5 218.5t284.5 90.5q92 0 172.5 -29t132.5 -75t78.5 -105t17.5 -117h-122q-1 98 -78.5 157t-191.5 59q-117 0 -203 -49.5t-86 -134.5q0 -53 40 -91t103 -56z" />
    <glyph glyph-name="Scircumflex" unicode="&#x15c;" horiz-adv-x="1241" 
d="M621 1845l-190 -257l-128 -1l210 284l88 1h40l88 1l216 -280l-129 -1zM849 748q325 -79 325 -363q0 -116 -74 -214.5t-202.5 -155.5t-280.5 -54q-108 2 -200.5 32.5t-157.5 80t-110.5 114t-67.5 134.5t-22 141h133q0 -46 16 -96t51 -99.5t83 -89t118.5 -65.5t152.5 -29
q108 -4 208 37t160.5 112.5t60.5 151.5q0 87 -62.5 149t-169.5 88l-397 96q-298 71 -305 343q0 112 68.5 207t186.5 150t257 55q123 0 223 -39.5t161.5 -105t94.5 -146.5t33 -168h-131q0 56 -25.5 114t-71.5 108.5t-120.5 83t-163.5 32.5q-167 0 -274 -88t-107 -202
q0 -75 60.5 -134.5t156.5 -84.5z" />
    <glyph glyph-name="scircumflex" unicode="&#x15d;" horiz-adv-x="995" 
d="M484 1446l-192 -254h-129l213 281h216l214 -281h-130zM655 560q113 -31 162 -60q110 -66 110 -192q0 -73 -26 -132t-68.5 -96t-99 -62t-114.5 -34.5t-118 -8.5q-102 3 -186.5 35.5t-137.5 84.5t-82 115.5t-29 130.5h121q0 -99 86 -175t228 -80q128 -4 217.5 53.5
t89.5 151.5q0 100 -170 149l-290 77q-135 36 -196.5 98t-61.5 158q0 128 117.5 218.5t284.5 90.5q92 0 172.5 -29t132.5 -75t78.5 -105t17.5 -117h-122q-1 98 -78.5 157t-191.5 59q-117 0 -203 -49.5t-86 -134.5q0 -53 40 -91t103 -56z" />
    <glyph glyph-name="Scedilla" unicode="&#x15e;" horiz-adv-x="1241" 
d="M617 -39h-10l-27 -44l21 -3q70 -11 116 -56.5t46 -104.5q0 -67 -59.5 -115t-142.5 -48q-67 0 -122 33v76q55 -29 122 -29q41 0 69.5 24.5t28.5 58.5q0 40 -30 64t-68 24h-82v62l41 66q-111 17 -201 66.5t-145.5 118.5t-85 148t-29.5 161h133q0 -46 16 -96t51 -99.5
t83 -89t118.5 -65.5t152.5 -29q108 -4 208 37t160.5 112.5t60.5 151.5q0 87 -62.5 149t-169.5 88l-397 96q-298 71 -305 343q0 112 68.5 207t186.5 150t257 55q123 0 223 -39.5t161.5 -105t94.5 -146.5t33 -168h-131q0 56 -25.5 114t-71.5 108.5t-120.5 83t-163.5 32.5
q-167 0 -274 -88t-107 -202q0 -75 60.5 -134.5t156.5 -84.5l393 -95q325 -79 325 -363q0 -116 -74 -214.5t-202.5 -155.5t-280.5 -54z" />
    <glyph glyph-name="scedilla" unicode="&#x15f;" horiz-adv-x="995" 
d="M927 308q0 -90 -39 -158t-102.5 -105t-135 -54.5t-147.5 -15.5l-36 -58l21 -4q71 -11 117 -56.5t46 -103.5q0 -68 -59.5 -116t-142.5 -48q-65 0 -122 34v76q55 -29 122 -29q41 0 69.5 24.5t28.5 58.5q0 40 -30 64t-68 24h-82v62l50 80q-164 27 -257.5 129.5t-93.5 228.5
h121q0 -99 86 -175t228 -80q128 -4 217.5 53.5t89.5 151.5q0 100 -170 149l-290 77q-135 36 -196.5 98t-61.5 158q0 128 117.5 218.5t284.5 90.5q92 0 172.5 -29t132.5 -75t78.5 -105t17.5 -117h-122q-1 98 -78.5 157t-191.5 59q-117 0 -203 -49.5t-86 -134.5q0 -53 40 -91
t103 -56l300 -81q113 -31 162 -60q110 -66 110 -192z" />
    <glyph glyph-name="Scaron" unicode="&#x160;" horiz-adv-x="1241" 
d="M729 1544h-216l-213 281h129l192 -254l192 254h129zM849 748q325 -79 325 -363q0 -116 -74 -214.5t-202.5 -155.5t-280.5 -54q-108 2 -200.5 32.5t-157.5 80t-110.5 114t-67.5 134.5t-22 141h133q0 -46 16 -96t51 -99.5t83 -89t118.5 -65.5t152.5 -29q108 -4 208 37
t160.5 112.5t60.5 151.5q0 87 -62.5 149t-169.5 88l-396 96q-299 72 -306 343q0 112 68.5 207t186.5 150t257 55q123 0 223 -39.5t161.5 -105t94.5 -146.5t33 -168h-131q0 56 -25.5 114t-71.5 108.5t-120.5 83t-163.5 32.5q-167 0 -274 -88t-107 -202q0 -75 60.5 -134.5
t156.5 -84.5z" />
    <glyph glyph-name="scaron" unicode="&#x161;" horiz-adv-x="995" 
d="M603 1192h-216l-213 281h129l192 -255l192 255h130zM655 560q113 -31 162 -60q110 -66 110 -192q0 -73 -26 -132t-68.5 -96t-99 -62t-114.5 -34.5t-118 -8.5q-102 3 -186.5 35.5t-137.5 84.5t-82 115.5t-29 130.5h121q0 -99 86 -175t228 -80q128 -4 217.5 53.5
t89.5 151.5q0 100 -170 149l-290 77q-135 36 -196.5 98t-61.5 158q0 128 117.5 218.5t284.5 90.5q92 0 172.5 -29t132.5 -75t78.5 -105t17.5 -117h-122q-1 98 -78.5 157t-191.5 59q-117 0 -203 -49.5t-86 -134.5q0 -53 40 -91t103 -56z" />
    <glyph glyph-name="Tcedilla" unicode="&#x162;" horiz-adv-x="1165" 
d="M1163 1310h-517v-1310l-51 -83l21 -3q70 -11 116 -56.5t46 -104.5q0 -67 -59.5 -115t-142.5 -48q-67 0 -122 33v76q55 -29 122 -29q41 0 69.5 24.5t28.5 58.5q0 40 -30 64t-68 24h-82v62l61 97h-40v1310h-515v124h1163v-124z" />
    <glyph glyph-name="tcedilla" unicode="&#x163;" horiz-adv-x="595" 
d="M554 1057v-110h-210v-674q0 -64 38.5 -107t100.5 -43h71v-123h-71q-35 0 -68 9l-57 -92l21 -4q71 -11 117 -56.5t46 -103.5q0 -68 -59.5 -116t-142.5 -48q-65 0 -122 34v76q55 -29 122 -29q40 0 68.5 24t28.5 59q0 40 -29.5 64t-67.5 24h-83v62l87 138q-55 35 -88 92.5
t-33 126.5v687h-207v110h207v377h121v-377h210z" />
    <glyph glyph-name="Tcaron" unicode="&#x164;" horiz-adv-x="1165" 
d="M681 1544h-216l-213 281h129l192 -254l192 254h130zM0 1434h1163v-124h-517v-1310h-131v1310h-515v124z" />
    <glyph glyph-name="tcaron" unicode="&#x165;" horiz-adv-x="823" 
d="M774 1434h146l-135 -472h-96zM344 1434v-377h210v-110h-210v-674q0 -64 38.5 -107t100.5 -43h71v-123h-71q-105 0 -182.5 75t-77.5 185v687h-207v110h207v377h121z" />
    <glyph glyph-name="Tbar" unicode="&#x166;" horiz-adv-x="1200" 
d="M1182 1310h-518v-469h406v-83h-406v-758h-131v758h-407v83h407v469h-515v124h1164v-124z" />
    <glyph glyph-name="tbar" unicode="&#x167;" horiz-adv-x="649" 
d="M581 581h-210v-309q0 -64 38.5 -106.5t100.5 -42.5h71v-123h-71q-105 0 -182.5 75t-77.5 185v321h-207v83h207v283h-207v110h207v376h121v-376h210v-110h-210v-283h210v-83z" />
    <glyph glyph-name="Utilde" unicode="&#x168;" horiz-adv-x="1343" 
d="M1106 1435h132v-907q0 -118 -46 -224t-123 -180.5t-181 -118t-217 -43.5t-217 43.5t-181 118t-123 180.5t-46 224v907h132v-900q0 -118 58 -222t159 -166t218 -62t218 62t159 166t58 222v900zM520 1671q-40 0 -72.5 -25.5t-37.5 -69.5h-67q5 47 25.5 84t48.5 58t61 34.5
t64 12t57 -8.5l184 -67q18 -5 34 -5q40 0 72.5 25.5t37.5 69.5h67q-5 -47 -25.5 -84t-48.5 -58t-61 -34.5t-64 -12t-57 8.5l-184 67q-18 5 -34 5z" />
    <glyph glyph-name="utilde" unicode="&#x169;" horiz-adv-x="1058" 
d="M824 1057h121v-1057h-121v157q-116 -182 -321 -182q-102 0 -182.5 34t-127 89.5t-70 120.5t-23.5 134v704h121v-704q0 -110 88 -188.5t220 -78.5q81 0 150.5 49.5t107 122t37.5 145.5v654zM372 1310q-40 0 -72.5 -25.5t-37.5 -69.5h-67q5 47 25.5 84t48.5 58t61 34.5
t64 12t57 -8.5l184 -67q18 -5 34 -5q40 0 72.5 25.5t37.5 69.5h67q-5 -47 -25.5 -84t-48.5 -58t-61 -34.5t-64 -12t-57 8.5l-184 67q-18 5 -34 5z" />
    <glyph glyph-name="Umacron" unicode="&#x16a;" horiz-adv-x="1343" 
d="M1106 1435h132v-907q0 -118 -46 -224t-123 -180.5t-181 -118t-217 -43.5t-217 43.5t-181 118t-123 180.5t-46 224v907h132v-900q0 -118 58 -222t159 -166t218 -62t218 62t159 166t58 222v900zM989 1605h-612v83h612v-83z" />
    <glyph glyph-name="umacron" unicode="&#x16b;" horiz-adv-x="1058" 
d="M824 1057h121v-1057h-121v157q-116 -182 -321 -182q-102 0 -182.5 34t-127 89.5t-70 120.5t-23.5 134v704h121v-704q0 -110 88 -188.5t220 -78.5q81 0 150.5 49.5t107 122t37.5 145.5v654zM832 1254h-612v83h612v-83z" />
    <glyph glyph-name="Ubreve" unicode="&#x16c;" horiz-adv-x="1343" 
d="M1106 1435h132v-907q0 -118 -46 -224t-123 -180.5t-181 -118t-217 -43.5t-217 43.5t-181 118t-123 180.5t-46 224v907h132v-900q0 -118 58 -222t159 -166t218 -62t218 62t159 166t58 222v900zM683 1553q-120 0 -208.5 79.5t-88.5 193.5h73q0 -70 62.5 -126.5t161.5 -56.5
t165.5 56.5t66.5 126.5h71q0 -114 -91.5 -193.5t-211.5 -79.5z" />
    <glyph glyph-name="ubreve" unicode="&#x16d;" horiz-adv-x="1058" 
d="M824 1057h121v-1057h-121v157q-116 -182 -321 -182q-102 0 -182.5 34t-127 89.5t-70 120.5t-23.5 134v704h121v-704q0 -110 88 -188.5t220 -78.5q81 0 150.5 49.5t107 122t37.5 145.5v654zM522 1200q-120 0 -208.5 79.5t-88.5 193.5h73q0 -70 62.5 -126t161.5 -56
t165.5 56t66.5 126h71q0 -114 -91.5 -193.5t-211.5 -79.5z" />
    <glyph glyph-name="Uring" unicode="&#x16e;" horiz-adv-x="1343" 
d="M1106 1435h132v-907q0 -118 -46 -224t-123 -180.5t-181 -118t-217 -43.5t-217 43.5t-181 118t-123 180.5t-46 224v907h132v-900q0 -118 58 -222t159 -166t218 -62t218 62t159 166t58 222v900zM680 1548q-82 0 -139.5 57.5t-57.5 139.5t57.5 139.5t139.5 57.5t140 -57.5
t58 -139.5t-58 -139.5t-140 -57.5zM680 1862q-48 0 -82 -34.5t-34 -82.5t34 -82t82 -34t82.5 34t34.5 82t-34.5 82.5t-82.5 34.5z" />
    <glyph glyph-name="uring" unicode="&#x16f;" horiz-adv-x="1058" 
d="M824 1057h121v-1057h-121v157q-116 -182 -321 -182q-102 0 -182.5 34t-127 89.5t-70 120.5t-23.5 134v704h121v-704q0 -110 88 -188.5t220 -78.5q81 0 150.5 49.5t107 122t37.5 145.5v654zM522 1196q-82 0 -139.5 58t-57.5 140t57.5 139.5t139.5 57.5t139.5 -57.5
t57.5 -139.5t-57.5 -140t-139.5 -58zM522 1510q-48 0 -82.5 -34t-34.5 -82t34.5 -82.5t82.5 -34.5t82 34.5t34 82.5t-34 82t-82 34z" />
    <glyph glyph-name="Uhungarumlaut" unicode="&#x170;" horiz-adv-x="1343" 
d="M748 1589h-96l177 281h177zM710 1870l-259 -281h-96l178 281h177zM1106 1435h132v-907q0 -118 -46 -224t-123 -180.5t-181 -118t-217 -43.5t-217 43.5t-181 118t-123 180.5t-46 224v907h132v-900q0 -118 58 -222t159 -166t218 -62t218 62t159 166t58 222v900z" />
    <glyph glyph-name="uhungarumlaut" unicode="&#x171;" horiz-adv-x="1058" 
d="M824 1057h121v-1057h-121v157q-116 -182 -321 -182q-102 0 -182.5 34t-127 89.5t-70 120.5t-23.5 134v704h121v-704q0 -110 88 -188.5t220 -78.5q81 0 150.5 49.5t107 122t37.5 145.5v654zM555 1473l-259 -281h-95l177 281h177zM594 1192h-95l177 281h177z" />
    <glyph glyph-name="Uogonek" unicode="&#x172;" horiz-adv-x="1343" 
d="M1106 1435h132v-907q0 -113 -42 -214t-112.5 -174.5t-166 -120t-201.5 -55.5q-97 -87 -104 -169q-5 -54 39.5 -82.5t111.5 -7.5v-87q-88 -31 -149 -14t-92.5 59t-28.5 94q6 107 108 209q-209 26 -353 184.5t-144 377.5v907h132v-900q0 -118 58 -222t159 -166t218 -62
t218 62t159 166t58 222v900z" />
    <glyph glyph-name="uogonek" unicode="&#x173;" horiz-adv-x="1058" 
d="M945 0q-52 -36 -99.5 -93.5t-52.5 -112.5q-5 -54 40 -82.5t112 -7.5v-87q-88 -31 -149 -14t-92.5 59t-28.5 94q2 40 18 79.5t37.5 68t42.5 51t35 33.5l15 12l1 157q-116 -182 -321 -182q-102 0 -182.5 34t-127 89.5t-70 120.5t-23.5 134v704h121v-704q0 -110 88 -188.5
t220 -78.5q81 0 150.5 49.5t107 122t37.5 145.5v654h121v-1057z" />
    <glyph glyph-name="Wcircumflex" unicode="&#x174;" horiz-adv-x="1894" 
d="M950 1799l-192 -255h-129l213 282h216l214 -282h-130zM1730 1433h137l-333 -1433h-234l-353 1336l-353 -1336h-235l-332 1433h136l319 -1387l364 1387h202l363 -1387z" />
    <glyph glyph-name="wcircumflex" unicode="&#x175;" horiz-adv-x="1447" 
d="M722 1446l-192 -254h-129l213 281h216l214 -281h-130zM1287 1057h134l-308 -1057h-176l-213 880l-213 -880h-176l-308 1057h134l262 -948l230 948h142l230 -948z" />
    <glyph glyph-name="Ycircumflex" unicode="&#x176;" horiz-adv-x="1267" 
d="M641 1799l-192 -255h-129l213 282h216l214 -282h-130zM1116 1433h157l-574 -906v-527h-131v527l-574 906h157l483 -791z" />
    <glyph glyph-name="ycircumflex" unicode="&#x177;" horiz-adv-x="1032" 
d="M517 1446l-193 -254h-128l213 281h215l214 -281h-129zM878 1057h135l-410 -1057l-92 -238q-30 -78 -82 -108.5t-132 -30.5h-88v121h128q22 0 40 12t25 31l53 145l-437 1125h135l363 -955z" />
    <glyph glyph-name="Ydieresis" unicode="&#x178;" horiz-adv-x="1267" 
d="M487 1646q-34 0 -57 19.5t-23 47.5t23 47.5t57 19.5t57.5 -19.5t23.5 -47.5t-23.5 -47.5t-57.5 -19.5zM755 1646q-34 0 -57.5 19.5t-23.5 47.5t23.5 47.5t57.5 19.5t57.5 -19.5t23.5 -47.5t-23.5 -47.5t-57.5 -19.5zM1116 1433h157l-574 -906v-527h-131v527l-574 906h157
l483 -791z" />
    <glyph glyph-name="Zacute" unicode="&#x179;" horiz-adv-x="1179" 
d="M774 1827l-258 -281h-96l178 281h176zM1153 1435v-82l-933 -1231h933v-121h-1133v75l937 1238h-872v121h1068z" />
    <glyph glyph-name="zacute" unicode="&#x17a;" horiz-adv-x="917" 
d="M657 1473l-259 -281h-95l177 281h177zM222 110h658v-110h-847v56l655 890h-611v111h785v-77z" />
    <glyph glyph-name="Zdot" unicode="&#x17b;" horiz-adv-x="1179" 
d="M587 1648q-34 0 -57.5 19.5t-23.5 47.5t23.5 47.5t57.5 19.5t57 -19.5t23 -47.5t-23 -47.5t-57 -19.5zM1153 1435v-82l-933 -1231h933v-121h-1133v75l937 1238h-872v121h1068z" />
    <glyph glyph-name="zdot" unicode="&#x17c;" horiz-adv-x="917" 
d="M471 1249q-34 0 -57.5 20t-23.5 48t23.5 47.5t57.5 19.5t57 -19.5t23 -47.5t-23.5 -48t-56.5 -20zM222 110h658v-110h-847v56l655 890h-611v111h785v-77z" />
    <glyph glyph-name="Zcaron" unicode="&#x17d;" horiz-adv-x="1179" 
d="M709 1544h-215l-213 282h128l192 -255l193 255h129zM1153 1435v-82l-933 -1231h933v-121h-1133v75l937 1238h-872v121h1068z" />
    <glyph glyph-name="zcaron" unicode="&#x17e;" horiz-adv-x="917" 
d="M567 1192h-215l-213 281h128l192 -255l193 255h129zM222 110h658v-110h-847v56l655 890h-611v111h785v-77z" />
    <glyph glyph-name="Acaron" unicode="&#x1cd;" horiz-adv-x="1292" 
d="M763 1433l519 -1433h-139l-161 445h-677l-158 -445h-139l507 1433h248zM349 568h588l-298 820zM750 1543h-215l-213 282h128l192 -255l193 255h129z" />
    <glyph glyph-name="acaron" unicode="&#x1ce;" 
d="M613 1192h-215l-213 282h128l192 -255l193 255h129zM510 1083q104 0 192 -32.5t146 -102.5t58 -164v-783h-122v172q-8 -19 -23.5 -41t-44.5 -49.5t-64 -50t-86.5 -38.5t-108.5 -18q-175 -6 -284.5 99t-109.5 250q0 159 115.5 254.5t280.5 95.5h218q47 0 77 30t30 79
q0 88 -76.5 138.5t-197.5 50.5q-172 0 -244 -155h-137q9 30 21.5 58t42.5 68t69 68.5t104 49.5t144 21zM784 347v252q-76 -30 -166 -30h-164q-110 0 -184.5 -62.5t-74.5 -184.5q0 -99 71 -165.5t188 -66.5q129 0 229.5 80t100.5 177z" />
    <glyph glyph-name="Icaron" unicode="&#x1cf;" horiz-adv-x="374" 
d="M382 1826h129l-214 -282h-215l-213 282h128l193 -255zM253 0h-131v1434h131v-1434z" />
    <glyph glyph-name="icaron" unicode="&#x1d0;" horiz-adv-x="348" 
d="M366 1472h129l-214 -281h-215l-213 281h128l192 -254zM234 -1h-121v1057h121v-1057z" />
    <glyph glyph-name="Ocaron" unicode="&#x1d1;" horiz-adv-x="1525" 
d="M756 1473q153 0 286 -59.5t224.5 -161.5t143.5 -241t52 -294t-52 -294t-143.5 -241t-224.5 -161.5t-286 -59.5q-204 0 -363.5 102t-244.5 273.5t-85 380.5t85 380.5t244.5 273.5t363.5 102zM756 82q130 0 239.5 51t182.5 138t113 202t40 244t-40 244t-113 202t-182.5 138
t-239.5 51t-237.5 -51t-177.5 -138t-108 -202t-38 -244t38 -244t108 -202t177.5 -138t237.5 -51zM869 1542h-216l-213 281h129l192 -254l192 254h130z" />
    <glyph glyph-name="ocaron" unicode="&#x1d2;" horiz-adv-x="1101" 
d="M551 1083q209 0 344.5 -149.5t135.5 -404.5q0 -260 -133 -405.5t-347 -147.5q-215 2 -348 147.5t-133 405.5q0 255 136 404.5t345 149.5zM551 86q157 2 258 120t101 323q0 195 -103 318.5t-256 125.5q-153 -2 -256.5 -125.5t-103.5 -318.5q0 -205 101.5 -323t258.5 -120z
M655 1193h-215l-213 281h128l193 -254l192 254h129z" />
    <glyph glyph-name="Ucaron" unicode="&#x1d3;" horiz-adv-x="1343" 
d="M1106 1435h132v-907q0 -118 -46 -224t-123 -180.5t-181 -118t-217 -43.5t-217 43.5t-181 118t-123 180.5t-46 224v907h132v-900q0 -118 58 -222t159 -166t218 -62t218 62t159 166t58 222v900zM784 1544h-215l-213 281h128l192 -254l193 254h129z" />
    <glyph glyph-name="ucaron" unicode="&#x1d4;" horiz-adv-x="1058" 
d="M824 1057h121v-1057h-121v157q-116 -182 -321 -182q-102 0 -182.5 34t-127 89.5t-70 120.5t-23.5 134v704h121v-704q0 -110 88 -188.5t220 -78.5q81 0 150.5 49.5t107 122t37.5 145.5v654zM639 1192h-215l-213 281h128l192 -254l192 254h130z" />
    <glyph glyph-name="Gcaron" unicode="&#x1e6;" horiz-adv-x="1437" 
d="M814 1544h-215l-213 282h128l192 -255l193 255h129zM1339 0h-118v274q-58 -133 -191.5 -223t-327.5 -90q-151 0 -272.5 59t-199.5 162.5t-120 240t-42 294.5q0 209 78 380.5t223.5 273.5t330.5 102q145 0 260.5 -43.5t188.5 -118t116 -163.5t58 -192h-121l-9 -5
q-38 183 -162 291.5t-326 108.5q-113 0 -208.5 -51.5t-160.5 -138t-101 -202t-36 -242.5q0 -129 32.5 -242.5t94 -201.5t159.5 -139t220 -51q220 0 357.5 154.5t159.5 407.5h-516v132h633v-777z" />
    <glyph glyph-name="gcaron" unicode="&#x1e7;" horiz-adv-x="1087" 
d="M624 1193h-216l-213 281h129l192 -254l192 254h130zM792 267q89 -25 150.5 -98t61.5 -188q0 -97 -62 -179t-169 -130t-233 -48t-233 48t-169 130t-62 179q0 10 2 28h124q-2 -14 -2 -22q0 -97 96 -176t244 -79q150 0 242.5 73.5t92.5 181.5q0 99 -91.5 148.5t-238.5 49.5
q-173 0 -288 75q-89 58 -140 152t-51 203q0 121 63 223t171.5 161t236.5 59q120 0 226 -54l150 149l75 -75l-134 -135q73 -62 114 -147t41 -181q0 -108 -62.5 -206t-154.5 -142zM537 294q154 0 247 90.5t93 229.5q0 133 -95 233t-245 100t-244.5 -100t-94.5 -233
q0 -139 92.5 -229.5t246.5 -90.5z" />
    <glyph glyph-name="Gacute" unicode="&#x1f4;" horiz-adv-x="1437" 
d="M877 1826l-259 -281h-95l177 281h177zM1339 0h-118v274q-58 -133 -191.5 -223t-327.5 -90q-151 0 -272.5 59t-199.5 162.5t-120 240t-42 294.5q0 209 78 380.5t223.5 273.5t330.5 102q145 0 260.5 -43.5t188.5 -118t116 -163.5t58 -192h-121l-9 -5q-38 183 -162 291.5
t-326 108.5q-113 0 -208.5 -51.5t-160.5 -138t-101 -202t-36 -242.5q0 -129 32.5 -242.5t94 -201.5t159.5 -139t220 -51q220 0 357.5 154.5t159.5 407.5h-516v132h633v-777z" />
    <glyph glyph-name="gacute" unicode="&#x1f5;" horiz-adv-x="1087" 
d="M730 1474l-259 -281h-95l177 281h177zM792 267q89 -25 150.5 -98t61.5 -188q0 -97 -62 -179t-169 -130t-233 -48t-233 48t-169 130t-62 179q0 10 2 28h124q-2 -14 -2 -22q0 -97 96 -176t244 -79q150 0 242.5 73.5t92.5 181.5q0 99 -91.5 148.5t-238.5 49.5
q-173 0 -288 75q-89 58 -140 152t-51 203q0 121 63 223t171.5 161t236.5 59q120 0 226 -54l150 149l75 -75l-134 -135q73 -62 114 -147t41 -181q0 -108 -62.5 -206t-154.5 -142zM537 294q154 0 247 90.5t93 229.5q0 133 -95 233t-245 100t-244.5 -100t-94.5 -233
q0 -139 92.5 -229.5t246.5 -90.5z" />
    <glyph glyph-name="uni01f8" unicode="&#x1f8;" horiz-adv-x="1376" 
d="M886 1545h-95l-259 281h177zM1121 1434h131v-1433h-161l-837 1261v-1261h-131v1433h161l837 -1261v1261z" />
    <glyph glyph-name="uni01f9" unicode="&#x1f9;" horiz-adv-x="1083" 
d="M741 1191h-95l-259 281h177zM543 1079q63 6 125.5 -7.5t117 -46t96.5 -78.5t66 -110t24 -136v-702h-121v690q0 110 -85 194.5t-223 84.5q-132 0 -219.5 -85.5t-87.5 -193.5v-690h-121v1057h121v-158q42 66 119.5 118.5t187.5 62.5z" />
    <glyph glyph-name="Scommaaccent" unicode="&#x218;" horiz-adv-x="1241" 
d="M551 -433l53 346h122l-80 -346h-95zM849 748q325 -79 325 -363q0 -116 -74 -214.5t-202.5 -155.5t-280.5 -54q-108 2 -200.5 32.5t-157.5 80t-110.5 114t-67.5 134.5t-22 141h133q0 -46 16 -96t51 -99.5t83 -89t118.5 -65.5t152.5 -29q108 -4 208 37t160.5 112.5
t60.5 151.5q0 87 -62.5 149t-169.5 88l-397 96q-298 71 -305 343q0 112 68.5 207t186.5 150t257 55q123 0 223 -39.5t161.5 -105t94.5 -146.5t33 -168h-131q0 56 -25.5 114t-71.5 108.5t-120.5 83t-163.5 32.5q-167 0 -274 -88t-107 -202q0 -75 60.5 -134.5t156.5 -84.5z
" />
    <glyph glyph-name="scommaaccent" unicode="&#x219;" horiz-adv-x="995" 
d="M440 -433l53 347h122l-81 -347h-94zM655 560q113 -31 162 -60q110 -66 110 -192q0 -73 -26 -132t-68.5 -96t-99 -62t-114.5 -34.5t-118 -8.5q-102 3 -186.5 35.5t-137.5 84.5t-82 115.5t-29 130.5h121q0 -99 86 -175t228 -80q128 -4 217.5 53.5t89.5 151.5
q0 100 -170 149l-290 77q-135 36 -196.5 98t-61.5 158q0 128 117.5 218.5t284.5 90.5q92 0 172.5 -29t132.5 -75t78.5 -105t17.5 -117h-122q-1 98 -78.5 157t-191.5 59q-117 0 -203 -49.5t-86 -134.5q0 -53 40 -91t103 -56z" />
    <glyph glyph-name="uni021a" unicode="&#x21a;" horiz-adv-x="1165" 
d="M491 -433l53 346h121l-80 -346h-94zM0 1434h1163v-124h-517v-1310h-131v1310h-515v124z" />
    <glyph glyph-name="uni021b" unicode="&#x21b;" horiz-adv-x="593" 
d="M329 -431l53 347h122l-81 -347h-94zM554 947h-210v-674q0 -64 38.5 -107t100.5 -43h71v-123h-71q-105 0 -182.5 75t-77.5 185v687h-207v110h207v377h121v-377h210v-110z" />
    <glyph glyph-name="uni021e" unicode="&#x21e;" horiz-adv-x="1376" 
d="M799 1543h-215l-213 282h128l192 -255l193 255h129zM1119 1434h133v-1433h-133v687h-865v-687h-131v1433h131v-625h865v625z" />
    <glyph glyph-name="uni021f" unicode="&#x21f;" horiz-adv-x="1071" 
d="M541 1079q107 10 204 -31t161 -135.5t64 -223.5v-690h-121v690q0 110 -85 195t-223 85q-132 0 -219.5 -86t-87.5 -194v-690h-121v1434h121v-535q42 66 120 118.5t187 62.5zM493 1787l-214 -281h-216l-213 281h129l192 -254l192 254h130z" />
    <glyph glyph-name="uni023b" unicode="&#x23b;" horiz-adv-x="1386" 
d="M1176 451q1 4 3.5 13.5t3.5 14.5h137q-22 -109 -69 -198t-107.5 -147.5t-134.5 -98t-149.5 -56.5t-153.5 -17q-224 0 -380 128l-111 -160l-59 42l116 168q-98 103 -149 252.5t-51 325.5q0 209 78 380.5t223.5 273.5t330.5 102q245 0 406 -125l115 166l60 -42l-120 -173
q130 -134 162 -344h-134q-4 20 -6 29q-31 129 -95 210l-690 -995q129 -118 310 -118q158 0 283 97.5t181 271.5zM203 718q0 -134 38 -255t110 -209l690 995q-121 105 -329 105q-146 0 -264 -90t-181.5 -235t-63.5 -311z" />
    <glyph glyph-name="uni023c" unicode="&#x23c;" horiz-adv-x="1091" 
d="M881 376v2h142q-38 -181 -158.5 -292t-306.5 -111q-158 0 -273 79l-86 -124l-60 41l89 128q-156 150 -156 430q0 258 135.5 406t345.5 148q170 0 292 -93l91 131l59 -42l-96 -138q101 -109 129 -277h-133q-20 100 -69 171l-473 -683q83 -66 205 -66q241 0 323 290z
M208 529q0 -206 93 -325l476 688q-87 80 -220 80q-148 0 -248.5 -123t-100.5 -320z" />
    <glyph glyph-name="circumflex" unicode="&#x2c6;" horiz-adv-x="774" 
d="M494 1473l214 -281h-129l-193 254l-192 -254h-128l213 281h215z" />
    <glyph glyph-name="caron" unicode="&#x2c7;" horiz-adv-x="708" 
d="M546 1473h129l-214 -281h-215l-213 281h128l193 -255z" />
    <glyph glyph-name="breve" unicode="&#x2d8;" horiz-adv-x="731" 
d="M600 1473h65q0 -115 -86 -188t-216 -73q-129 0 -213 73t-84 188h67q0 -67 71.5 -124.5t158.5 -57.5q88 0 162.5 58t74.5 124z" />
    <glyph glyph-name="dotaccent" unicode="&#x2d9;" horiz-adv-x="284" 
d="M142 1339q-34 0 -57.5 19.5t-23.5 47.5t23.5 47.5t57.5 19.5t57.5 -19.5t23.5 -47.5t-23.5 -47.5t-57.5 -19.5z" />
    <glyph glyph-name="ogonek" unicode="&#x2db;" horiz-adv-x="516" 
d="M242 -206q-5 -54 39.5 -83t111.5 -8v-87q-88 -31 -149 -14t-92.5 59t-28.5 94q2 40 18 79.5t37.5 68t43 51.5t36.5 34l14 12h121q-51 -36 -98.5 -93.5t-52.5 -112.5z" />
    <glyph glyph-name="ilde" unicode="&#x2dc;" horiz-adv-x="774" 
d="M650 1473h67q-5 -46 -25.5 -83.5t-48.5 -58t-61 -34t-64 -12t-57 8.5l-185 66q-18 5 -33 5q-40 0 -72.5 -25.5t-37.5 -69.5h-67q5 47 25.5 84t48.5 58t61 34.5t64 12t57 -8.5l184 -67q18 -5 34 -5q40 0 72.5 25.5t37.5 69.5z" />
    <glyph glyph-name="hungarumlaut" unicode="&#x2dd;" horiz-adv-x="743" 
d="M245 1473h177l-259 -281h-95zM543 1473h177l-259 -281h-95z" />
    <glyph glyph-name="pi" unicode="&#x3c0;" horiz-adv-x="978" 
d="M937 734h-151v-528q0 -31 19 -61q36 -57 132 -57v-88q-116 0 -181 65q-58 59 -58 142v527h-443v-734h-88v734h-136v88h906v-88z" />
    <glyph glyph-name="gmacron" unicode="&#x1e21;" horiz-adv-x="1087" 
d="M840 1254h-612v84h612v-84zM792 267q89 -25 150.5 -98t61.5 -188q0 -97 -62 -179t-169 -130t-233 -48t-233 48t-169 130t-62 179q0 10 2 28h124q-2 -14 -2 -22q0 -97 96 -176t244 -79q150 0 242.5 73.5t92.5 181.5q0 99 -91.5 148.5t-238.5 49.5q-173 0 -288 75
q-89 58 -140 152t-51 203q0 121 63 223t171.5 161t236.5 59q120 0 226 -54l150 149l75 -75l-134 -135q73 -62 114 -147t41 -181q0 -108 -62.5 -206t-154.5 -142zM537 294q154 0 247 90.5t93 229.5q0 133 -95 233t-245 100t-244.5 -100t-94.5 -233q0 -139 92.5 -229.5
t246.5 -90.5z" />
    <glyph glyph-name="Wgrave" unicode="&#x1e80;" horiz-adv-x="1894" 
d="M1121 1544h-96l-258 282h176zM1730 1433h137l-333 -1433h-234l-353 1336l-353 -1336h-235l-332 1433h136l319 -1387l364 1387h202l363 -1387z" />
    <glyph glyph-name="wgrave" unicode="&#x1e81;" horiz-adv-x="1447" 
d="M901 1192h-96l-259 281h177zM1287 1057h134l-308 -1057h-176l-213 880l-213 -880h-176l-308 1057h134l262 -948l230 948h142l230 -948z" />
    <glyph glyph-name="Wacute" unicode="&#x1e82;" horiz-adv-x="1894" 
d="M1115 1826l-259 -282h-95l177 282h177zM1730 1433h137l-333 -1433h-234l-353 1336l-353 -1336h-235l-332 1433h136l319 -1387l364 1387h202l363 -1387z" />
    <glyph glyph-name="wacute" unicode="&#x1e83;" horiz-adv-x="1447" 
d="M902 1473l-259 -281h-95l177 281h177zM1287 1057h134l-308 -1057h-176l-213 880l-213 -880h-176l-308 1057h134l262 -948l230 948h142l230 -948z" />
    <glyph glyph-name="Wdieresis" unicode="&#x1e84;" horiz-adv-x="1894" 
d="M807 1646q-34 0 -57.5 19.5t-23.5 47.5t23.5 47.5t57.5 19.5t57.5 -19.5t23.5 -47.5t-23.5 -47.5t-57.5 -19.5zM1075 1646q-34 0 -57.5 19.5t-23.5 47.5t23.5 47.5t57.5 19.5t57 -19.5t23 -47.5t-23 -47.5t-57 -19.5zM1730 1433h137l-333 -1433h-234l-353 1336
l-353 -1336h-235l-332 1433h136l319 -1387l364 1387h202l363 -1387z" />
    <glyph glyph-name="wdieresis" unicode="&#x1e85;" horiz-adv-x="1447" 
d="M585 1250q-34 0 -57 19.5t-23 47.5t23 47.5t57 19.5t57.5 -19.5t23.5 -47.5t-23.5 -47.5t-57.5 -19.5zM853 1250q-34 0 -57.5 19.5t-23.5 47.5t23.5 47.5t57.5 19.5t57.5 -19.5t23.5 -47.5t-23.5 -47.5t-57.5 -19.5zM1287 1057h134l-308 -1057h-176l-213 880l-213 -880
h-176l-308 1057h134l262 -948l230 948h142l230 -948z" />
    <glyph glyph-name="uni1e9e" unicode="&#x1e9e;" horiz-adv-x="1249" 
d="M835 784q158 -44 256.5 -161.5t98.5 -263.5q0 -180 -126.5 -289.5t-334.5 -109.5q-63 0 -134.5 18.5t-96.5 36.5v142q29 -26 94 -49.5t137 -23.5q144 0 236.5 77.5t92.5 197.5q0 121 -97 209t-247 88v151l260 342q-49 64 -139 111.5t-205 47.5q-165 0 -277 -88t-112 -212
v-1008h-132v1008q0 116 69.5 213.5t189.5 154.5t262 57q166 0 299.5 -77t189.5 -200z" />
    <glyph glyph-name="Etilde" unicode="&#x1ebc;" horiz-adv-x="1228" 
d="M449 1672q-40 0 -72.5 -25.5t-37.5 -69.5h-67q5 47 25.5 84t48.5 58t61 34.5t64 12t57 -8.5l184 -67q18 -5 34 -5q40 0 72.5 25.5t37.5 69.5h67q-5 -47 -25.5 -84t-48.5 -58t-61 -34.5t-64 -12t-57 8.5l-184 67q-18 5 -34 5zM1178 1310h-924v-534h847v-121h-847v-532h924
v-123h-1055v1433h1055v-123z" />
    <glyph glyph-name="etilde" unicode="&#x1ebd;" horiz-adv-x="1099" 
d="M1031 529v-33h-840q9 -190 109.5 -299t250.5 -111q118 2 207.5 71t127.5 195h126q-42 -180 -164.5 -277.5t-296.5 -99.5q-214 2 -347.5 148t-133.5 406q0 255 136 404.5t345 149.5t344.5 -149.5t135.5 -404.5zM196 608h709q-21 163 -119.5 262.5t-234.5 101.5
q-136 -2 -235 -101.5t-120 -262.5zM387 1308q-40 0 -72 -25.5t-37 -69.5h-68q6 58 36 101t68 61t80 25t73 -7l184 -67q18 -5 34 -5q40 0 72.5 25.5t37.5 69.5h67q-6 -58 -36 -101t-68 -61t-80 -25t-73 7l-184 67q-18 5 -34 5z" />
    <glyph glyph-name="Ygrave" unicode="&#x1ef2;" horiz-adv-x="1267" 
d="M811 1545h-95l-259 281h177zM1116 1433h157l-574 -906v-527h-131v527l-574 906h157l483 -791z" />
    <glyph glyph-name="ygrave" unicode="&#x1ef3;" horiz-adv-x="1032" 
d="M697 1192h-95l-259 281h177zM878 1057h135l-410 -1057l-92 -238q-30 -78 -82 -108.5t-132 -30.5h-88v121h128q22 0 40 12t25 31l53 145l-437 1125h135l363 -955z" />
    <glyph glyph-name="Ytilde" unicode="&#x1ef8;" horiz-adv-x="1267" 
d="M479 1671q-40 0 -72.5 -25.5t-37.5 -69.5h-67q5 46 25.5 83.5t48.5 58t61.5 34t64.5 12t57 -8.5l184 -66q18 -5 34 -5q40 0 72.5 25.5t37.5 69.5h67q-6 -58 -36 -101t-68 -61t-80 -25t-73 7l-184 67q-18 5 -34 5zM1116 1433h157l-574 -906v-527h-131v527l-574 906h157
l483 -791z" />
    <glyph glyph-name="ytilde" unicode="&#x1ef9;" horiz-adv-x="1032" 
d="M368 1310q-40 0 -72.5 -25.5t-37.5 -69.5h-67q5 47 25.5 84t48.5 58t61 34.5t64 12t57 -8.5l184 -67q18 -5 34 -5q40 0 72.5 25.5t37.5 69.5h67q-5 -47 -25.5 -84t-48.5 -58t-61 -34.5t-64 -12t-57 8.5l-184 67q-18 5 -34 5zM878 1057h135l-410 -1057l-92 -238
q-30 -78 -82 -108.5t-132 -30.5h-88v121h128q22 0 40 12t25 31l53 145l-437 1125h135l363 -955z" />
    <glyph glyph-name="endash" unicode="&#x2013;" horiz-adv-x="1130" 
d="M1067 444h-1004v117h1004v-117z" />
    <glyph glyph-name="emdash" unicode="&#x2014;" horiz-adv-x="1632" 
d="M1569 444h-1506v117h1506v-117z" />
    <glyph glyph-name="quotesinglbase" unicode="&#x201a;" horiz-adv-x="331" 
d="M113 215h147l-135 -471h-96z" />
    <glyph glyph-name="quoteleftreversed" unicode="&#x201b;" horiz-adv-x="421" 
d="M186 1434h154l-155 -574h-97z" />
    <glyph glyph-name="quotedblleft" unicode="&#x201c;" horiz-adv-x="757" 
d="M572 1433h97l-98 -573h-154zM84 860l155 573h97l-98 -573h-154z" />
    <glyph glyph-name="quotedblright" unicode="&#x201d;" horiz-adv-x="755" 
d="M88 860l98 573h154l-155 -573h-97zM519 1433h154l-155 -573h-97z" />
    <glyph glyph-name="quotedblbase" unicode="&#x201e;" horiz-adv-x="663" 
d="M27 -258l84 472h147l-135 -472h-96zM444 214h147l-135 -472h-96z" />
    <glyph glyph-name="dagger" unicode="&#x2020;" horiz-adv-x="1228" 
d="M662 1070h502v-99h-502v-1347h-98v1347h-501v99h501v501h98v-501z" />
    <glyph glyph-name="daggerdbl" unicode="&#x2021;" horiz-adv-x="1282" 
d="M1191 1213h-503v-990h503v-98h-503v-502h-98v502h-500v98h500v990h-500v98h500v501h98v-501h503v-98z" />
    <glyph glyph-name="bullet" unicode="&#x2022;" horiz-adv-x="522" 
d="M261 556q-74 0 -126.5 49t-52.5 117t52.5 116.5t126.5 48.5t126.5 -48.5t52.5 -116.5t-52.5 -117t-126.5 -49z" />
    <glyph glyph-name="ellipsis" unicode="&#x2026;" horiz-adv-x="884" 
d="M147 146q33 0 56 -21.5t23 -51.5t-23 -51.5t-56 -21.5t-56 21.5t-23 51.5t23 51.5t56 21.5zM442 146q33 0 56 -21.5t23 -51.5t-23 -51.5t-56 -21.5t-56 21.5t-23 51.5t23 51.5t56 21.5zM737 146q33 0 56 -21.5t23 -51.5t-23 -51.5t-56 -21.5t-56 21.5t-23 51.5t23 51.5
t56 21.5z" />
    <glyph glyph-name="perthousand" unicode="&#x2030;" horiz-adv-x="2351" 
d="M1271 1374h130l-1037 -1413h-130zM715 1033q0 -167 -86 -261.5t-224 -95.5q-138 1 -224.5 95.5t-86.5 261.5q0 166 87.5 261.5t223.5 95.5t223 -96t87 -261zM198 1033q0 -120 54 -192.5t153 -73.5q99 1 153 73.5t54 192.5q0 117 -59.5 190.5t-147.5 75.5
q-88 -2 -147.5 -75.5t-59.5 -190.5zM1228 676q136 0 223 -96t87 -262q0 -167 -86 -261.5t-224 -95.5q-138 1 -224.5 95.5t-86.5 261.5q0 166 87.5 262t223.5 96zM1228 52q99 1 153 73.5t54 192.5q0 117 -59.5 191t-147.5 76q-88 -2 -147.5 -76t-59.5 -191q0 -120 54 -192.5
t153 -73.5zM1949 676q136 0 223 -96t87 -262q0 -167 -86 -261.5t-224 -95.5q-138 1 -224.5 95.5t-86.5 261.5q0 166 87.5 262t223.5 96zM1949 52q99 1 153 73.5t54 192.5q0 117 -59.5 191t-147.5 76q-88 -2 -147.5 -76t-59.5 -191q0 -120 54 -192.5t153 -73.5z" />
    <glyph glyph-name="guilsinglleft" unicode="&#x2039;" horiz-adv-x="653" 
d="M226 526l348 -406h-150l-344 406l345 413h144z" />
    <glyph glyph-name="guilsinglright" unicode="&#x203a;" horiz-adv-x="653" 
d="M227 939l345 -413l-344 -406h-150l348 406l-344 413h145z" />
    <glyph glyph-name="fraction" unicode="&#x2044;" horiz-adv-x="890" 
d="M704 1433h136l-651 -1433h-136z" />
    <glyph glyph-name="Euro" unicode="&#x20ac;" horiz-adv-x="1525" 
d="M1279 464q1 5 3.5 14t3.5 13h132q-21 -104 -65.5 -188t-101.5 -139.5t-127 -92.5t-141.5 -53.5t-145.5 -16.5q-120 0 -221.5 40t-173.5 111.5t-120.5 168.5t-69.5 213h-164v89h152q-5 52 -5 95q0 42 5 94h-152v89h165q48 236 204.5 384.5t377.5 148.5q111 0 204 -27.5
t158 -73.5t113.5 -109.5t75.5 -133t39 -146.5h-130q-1 5 -2.5 14t-2.5 13q-19 77 -50.5 136.5t-83 108.5t-131 75.5t-183.5 26.5q-166 0 -288.5 -117.5t-168.5 -299.5h625v-89h-642q-6 -47 -6 -94q0 -43 5 -95h643v-89h-628q42 -185 161.5 -301t298.5 -116q149 0 266.5 91
t170.5 256z" />
    <glyph glyph-name="uni20bf" unicode="&#x20bf;" horiz-adv-x="1341" 
d="M1009 765q68 -21 121.5 -82.5t79 -135t25.5 -143.5q0 -105 -50.5 -197t-144.5 -149.5t-208 -57.5h-54v-174h-89v174h-190v-174h-88v174h-288v1433h288v174h88v-174h190v174h89v-174q92 -3 167.5 -38.5t122.5 -91t72.5 -122.5t25.5 -135q0 -86 -42.5 -165.5t-114.5 -115.5
zM254 1310v-499h529q113 0 183 61t70 175q0 113 -73 188t-181 75h-528zM856 124q102 0 175 73t73 207q0 114 -72 200t-177 86h-601v-567z" />
    <glyph glyph-name="trademark" unicode="&#x2122;" horiz-adv-x="1560" 
d="M61 1374v61h572v-61h-254v-644h-64v644h-254zM1360 1435h98v-705h-64v622l-252 -622h-69l-251 622v-622h-65v705h98l253 -624z" />
    <glyph glyph-name="product" unicode="&#x220f;" horiz-adv-x="1089" 
d="M92 1433h906v-88h-150v-1345h-89v1345h-443v-1345h-88v1345h-136v88z" />
    <glyph glyph-name="minus" unicode="&#x2212;" horiz-adv-x="1130" 
d="M1067 443h-1004v116h1004v-116z" />
    <glyph glyph-name="radical" unicode="&#x221a;" horiz-adv-x="1435" 
d="M1259 1473h122l-500 -1473h-209l-309 885l-265 -91l-37 107l372 125l344 -979z" />
    <glyph glyph-name="approxequal" unicode="&#x2248;" horiz-adv-x="1245" 
d="M921 690q66 0 124 19t83 38l24 19v-113q-4 -3 -10.5 -8t-29.5 -18t-48.5 -23t-65.5 -18t-82 -8q-128 0 -296 77q-144 66 -259 66q-47 0 -92 -10.5t-75.5 -25.5t-54.5 -30.5t-35 -26.5l-12 -10v107q4 4 12 11t35 25.5t57 32t77 25t96 11.5q131 0 296 -76q139 -64 256 -64z
M665 337q136 -63 256 -63q66 0 124 19t83 37l24 19v-112q-4 -3 -10.5 -8t-29.5 -18t-48.5 -23t-65.5 -18t-82 -8q-128 0 -296 77q-142 65 -259 65q-47 0 -92 -10.5t-75.5 -25.5t-54.5 -30t-35 -26l-12 -10v107q4 4 12 11t35 25.5t57 32t77 25t96 11.5q128 0 296 -77z" />
    <glyph glyph-name="notequal" unicode="&#x2260;" horiz-adv-x="1200" 
d="M1102 644h-371l-130 -283h501v-121h-557l-109 -239h-136l109 239h-311v121h366l130 283h-496v121h552l133 292h137l-134 -292h316v-121z" />
    <glyph glyph-name="lessequal" unicode="&#x2264;" horiz-adv-x="1224" 
d="M1130 1305v-122l-988 -411l988 -401v-122l-1036 419v208zM1130 0h-1036v112h1036v-112z" />
    <glyph glyph-name="greaterequal" unicode="&#x2265;" horiz-adv-x="1224" 
d="M94 1305l1036 -429v-208l-1036 -419v122l988 401l-988 411v122zM1130 0h-1036v112h1036v-112z" />
    <glyph glyph-name="ampersand.alt1" unicode="&#xf004;" horiz-adv-x="1335" 
d="M1047 265l219 -264h-176l-125 150q-173 -190 -415 -190q-197 0 -325.5 110.5t-128.5 290.5q0 50 12 95.5t29.5 81t48 71.5t57.5 60.5t67.5 53.5t67.5 46t69.5 43t63.5 39q-82 18 -139 63.5t-80.5 96t-23.5 101.5q0 137 95 229t235 92q68 0 124 -22.5t91 -57t58.5 -78
t33 -83t9.5 -75.5q0 -30 -10 -60t-23 -54.5t-37.5 -52t-43 -45t-49.5 -41.5t-46.5 -34.5t-46.5 -31t-36 -24.5l-115 -71q-9 -7 -48 -33t-51.5 -35t-44.5 -34t-45 -39t-34.5 -40t-30.5 -47t-17 -49.5t-8 -58.5q0 -116 83.5 -196t204.5 -92q56 -5 116.5 7t127 51t119 100.5
t88 167.5t38.5 240v7q0 2 0.5 5t0.5 5v6h149q0 -85 -29.5 -204.5t-78.5 -199.5zM405 1083q14 -50 49.5 -85.5t79.5 -47.5t90 -7.5t87 33t64 75.5q19 38 19 74q0 50 -20.5 88.5t-52 59t-63.5 30.5t-61 10q-24 0 -49 -5t-52.5 -18t-48 -33.5t-34.5 -54.5t-14 -77q0 -21 6 -42z
" />
    <glyph glyph-name="ampersand.alt2" unicode="&#xf005;" horiz-adv-x="1335" 
d="M1047 265l219 -264h-176l-125 150q-173 -190 -415 -190q-197 0 -325.5 110.5t-128.5 290.5q0 47 10.5 89.5t24 74.5t42 67t48.5 55.5t61 51.5t61.5 44.5t67.5 43.5q11 7 17 11q-160 188 -160 314q0 137 95 229t235 92q68 0 124 -22.5t91 -57t58.5 -78t33 -83t9.5 -75.5
q0 -50 -20 -98.5t-43.5 -81t-67.5 -71.5t-65 -54t-64 -44q-2 -2 -3 -2.5t-3 -2t-3.5 -2.5t-3.5 -2t-3 -2l315 -380q53 134 53 291h149q0 -85 -29.5 -204.5t-78.5 -199.5zM399 1125q0 -19 5.5 -40t19 -45t22.5 -40.5t31.5 -45l30 -38t33 -39t26.5 -30.5q227 155 227 278
q0 50 -20.5 88.5t-52 59t-63.5 30.5t-61 10q-24 0 -48.5 -5t-52 -18t-48.5 -33.5t-35 -54.5t-14 -77zM516 83q109 -5 207 42.5t159 126.5l-375 452q-9 -7 -48 -33t-51.5 -35t-44.5 -34t-45 -39t-34.5 -40t-30.5 -47t-17 -49.5t-8 -58.5q0 -116 86 -198t202 -87z" />
    <glyph glyph-name="g.alt1" unicode="&#xf010;" horiz-adv-x="1075" 
d="M840 1057h121v-923q0 -143 -26.5 -243t-79.5 -158t-123 -83.5t-166 -25.5q-296 0 -381 264h126q78 -154 255 -154q147 0 210.5 101.5t63.5 336.5q-104 -197 -327 -197q-121 0 -224 72.5t-163 197t-60 271.5t60 271.5t163 197t224 72.5q107 0 197.5 -49.5t129.5 -121.5
v171zM513 86q144 0 235.5 109t91.5 321t-91.5 321.5t-235.5 109.5q-135 0 -230.5 -125.5t-95.5 -305.5t95.5 -305t230.5 -125z" />
    <glyph glyph-name="v.alt1" unicode="&#xf011;" horiz-adv-x="1032" 
d="M883 1057h130l-410 -1057h-175l-410 1057h130l368 -948z" />
    <glyph glyph-name="w.alt1" unicode="&#xf012;" horiz-adv-x="1462" 
d="M1288 1057h133l-232 -1057h-224l-235 985l-235 -985h-223l-233 1057h134l215 -1023l242 1023h200l243 -1023z" />
    <glyph glyph-name="a.alt1" unicode="&#xf013;" 
d="M510 1083q104 0 192 -32.5t146 -102.5t58 -164v-783h-122v598q-79 -31 -166 -31h-164q-110 0 -184.5 -62.5t-74.5 -184.5q0 -99 71 -165.5t188 -66.5q129 0 229.5 80t100.5 177q0 -183 -92 -276.5t-235 -93.5q-176 0 -285 102.5t-109 246.5q0 159 115.5 254t280.5 95h218
q47 0 77 30t30 80q0 88 -76.5 138t-197.5 50q-172 0 -244 -154h-137q9 30 21.5 58t42.5 68t69 68.5t104 49.5t144 21z" />
    <glyph glyph-name="a.alt2" unicode="&#xf014;" 
d="M510 1083q104 0 192 -32.5t146 -102.5t58 -164v-783h-122v171q-11 -24 -34.5 -53t-62 -62t-99.5 -56t-131 -25q-175 -6 -284.5 99t-109.5 250q0 153 113 252q-29 71 -34.5 143.5t15.5 137.5t64.5 115.5t118 80t170.5 29.5zM784 346v253q-79 -31 -166 -31h-164
q-110 0 -184.5 -62.5t-74.5 -184.5q0 -99 71 -165.5t188 -66.5q129 0 229.5 80t100.5 177zM677 674q47 0 77 30t30 80q0 88 -76.5 138t-197.5 50q-65 0 -116.5 -22t-81 -57.5t-44 -79t-11 -89t23.5 -84.5q80 34 178 34h218z" />
    <glyph glyph-name="a.alt3" unicode="&#xf015;" horiz-adv-x="1003" 
d="M739 1083q63 0 107.5 -45t44.5 -108v-929h-121v171q-11 -24 -34.5 -53t-62.5 -62t-100 -56t-131 -25q-175 -6 -284 99t-109 250q0 159 115.5 254t280.5 95h217q47 0 77.5 30.5t30.5 79.5v188h-541v111h510zM770 346v253q-79 -31 -166 -31h-164q-110 0 -185 -62.5
t-75 -184.5q0 -99 71.5 -165.5t188.5 -66.5q129 0 229.5 80t100.5 177z" />
    <glyph glyph-name="a.alt4" unicode="&#xf016;" horiz-adv-x="1075" 
d="M906 111h132v-110h-132q-33 0 -56.5 12t-36 28t-19.5 42t-8.5 45t-1.5 44q-11 -24 -34.5 -53t-62 -62t-99.5 -56t-131 -25q-175 -6 -284.5 99t-109.5 250q0 159 115.5 254t280.5 95h218q47 0 77 30t30 80q0 88 -76.5 138t-197.5 50q-172 0 -244 -154h-137q9 30 21.5 58
t42.5 68t69 68.5t104 49.5t144 21q104 0 192 -32.5t146 -102.5t58 -164v-673zM784 346v253q-79 -31 -166 -31h-164q-110 0 -184.5 -62.5t-74.5 -184.5q0 -99 71 -165.5t188 -66.5q129 0 229.5 80t100.5 177z" />
    </font>
</defs>
</svg>
