<?xml version="1.0" standalone="no"?>
<!DOCTYPE svg PUBLIC "-//W3C//DTD SVG 1.1//EN" "http://www.w3.org/Graphics/SVG/1.1/DTD/svg11.dtd" >
<svg xmlns="http://www.w3.org/2000/svg" xmlns:xlink="http://www.w3.org/1999/xlink" version="1.1">
<metadata>
Created by FontForge 20170731 at Wed Jul 19 17:47:18 2023
 By Aleksey,,,
</metadata>
<defs>
<font id="AlmiregoDisplayBold" horiz-adv-x="1343" >
  <font-face 
    font-family="Almirego Display Bold"
    font-weight="400"
    font-stretch="normal"
    units-per-em="2048"
    panose-1="0 0 0 0 0 0 0 0 0 0"
    ascent="1638"
    descent="-410"
    x-height="1056"
    cap-height="1433"
    bbox="-121 -446.533 2444 1975"
    underline-thickness="0"
    underline-position="0"
    unicode-range="U+000A-FB02"
  />
<missing-glyph horiz-adv-x="1079" 
d="M102 0v1434h875v-1434h-875zM145 100l369 617l-369 614v-1231zM160 1393l379 -633l381 633h-760zM162 43h758l-379 631zM565 717l371 -621v1239z" />
    <glyph glyph-name="tt.liga" unicode="tt" horiz-adv-x="1277" 
d="M37 858v199h154v376h255v-376h333v376h255v-376h179v-199h-555q27 0 61 -2t93.5 -11t105.5 -25t81 -47.5t35 -74.5v-393q0 -33 23 -56.5t55 -23.5h101v-225h-174q-107 0 -183.5 76t-76.5 184v456q0 40 -13.5 69t-32 42.5t-37.5 21t-32 8.5l-14 1h-580q27 0 61 -2
t93.5 -11t105.5 -25t81 -47.5t35 -74.5v-393q0 -33 23 -56.5t55 -23.5h101v-225h-174q-107 0 -183.5 76t-76.5 184v456q0 40 -13.5 69t-32.5 42.5t-37.5 21t-31.5 8.5l-14 1h-25z" />
    <glyph glyph-name="fi.liga" unicode="fi" horiz-adv-x="1173" 
d="M35 832v224h179v117q0 115 97.5 187.5t235.5 72.5h99v-222h-97h-4q-33 -1 -56 -24.5t-23 -56.5v-74h180v-224h-611zM214 -1v651q0 51 37 88t89 54.5t104.5 27.5t89.5 11l37 1q-4 0 -11 -1t-25.5 -11t-32 -27t-25 -54.5t-11.5 -88.5v-651h-252zM761 1305q0 53 50 90.5
t121 37.5t121.5 -37.5t50.5 -90.5t-50.5 -90t-121.5 -37t-121 37t-50 90zM805 -1v1057h255v-1057h-255z" />
    <glyph glyph-name="fl.liga" unicode="fl" horiz-adv-x="1173" 
d="M35 832v224h179v117q0 115 97.5 187.5t235.5 72.5h99v-222h-97h-4q-33 -1 -56 -24.5t-23 -56.5v-74h180v-224h-611zM214 -1v651q0 51 37 88t89 54.5t104.5 27.5t89.5 11l37 1q-4 0 -11 -1t-25.5 -11t-32 -27t-25 -54.5t-11.5 -88.5v-651h-252zM805 -1v1434h255v-1434
h-255z" />
    <glyph glyph-name=".notdef" horiz-adv-x="1079" 
d="M102 0v1434h875v-1434h-875zM145 100l369 617l-369 614v-1231zM160 1393l379 -633l381 633h-760zM162 43h758l-379 631zM565 717l371 -621v1239z" />
    <glyph glyph-name=".null" horiz-adv-x="0" 
 />
    <glyph glyph-name=".null" horiz-adv-x="0" 
 />
    <glyph glyph-name="nonmarkingreturn" horiz-adv-x="682" 
 />
    <glyph glyph-name="controlLF" unicode="&#xa;" horiz-adv-x="0" 
 />
    <glyph glyph-name="controlCR" unicode="&#xd;" horiz-adv-x="0" 
 />
    <glyph glyph-name="space" unicode=" " horiz-adv-x="571" 
 />
    <glyph glyph-name="exclam" unicode="!" horiz-adv-x="561" 
d="M109 128q0 53 50 90.5t121 37.5t121.5 -37.5t50.5 -90.5t-50.5 -90t-121.5 -37t-121 37t-50 90zM147 1434h266q0 -122 -9.5 -384t-19.5 -464l-9 -201h-190q-38 776 -38 1049z" />
    <glyph glyph-name="quotedbl" unicode="&#x22;" horiz-adv-x="854" 
d="M94 1475h255q0 -67 -12.5 -295.5t-15.5 -318.5h-198q-3 94 -16 320.5t-13 293.5zM503 1475h255q0 -67 -13 -293.5t-16 -320.5h-197q-3 94 -16 320.5t-13 293.5z" />
    <glyph glyph-name="numbersign" unicode="#" horiz-adv-x="1462" 
d="M88 399l51 189h1114l-51 -189h-216l-107 -398h-240l107 398h-202l-108 -398h-240l108 398h-216zM209 848l51 189h1114l-51 -189h-216l-18 -69q-15 -54 -49 -93.5t-77.5 -59.5t-84.5 -29t-81 -9l70 260h-202l-19 -69q-15 -54 -49 -93.5t-77.5 -59.5t-84 -29t-80.5 -9
l70 260h-216zM476 1037l107 397h240l-56 -206q-15 -54 -49 -93.5t-77.5 -59.5t-84 -29t-80.5 -9zM918 1037l107 397h241l-56 -206q-15 -54 -49 -93.5t-77.5 -59.5t-84.5 -29t-81 -9z" />
    <glyph glyph-name="dollar" unicode="$" horiz-adv-x="1386" 
d="M104 463h267q0 -51 22 -100.5t77 -95.5t135 -66v389l-71 13q-190 35 -296 137t-97 280q8 164 135 275.5t329 132.5v122h164v-121q234 -20 363 -148t129 -309h-268q0 79 -59.5 144t-164.5 84v-248q0 -39 -21.5 -61.5t-54.5 -26.5t-52 -4t-34 3l254 -48q194 -36 306 -143
t112 -286q0 -119 -73.5 -213t-187.5 -146t-249 -63v-185h-164v188q-120 15 -217.5 64t-158 118.5t-93 150t-32.5 163.5zM408 1021q0 -122 171 -153q1 0 26 -5v336q-87 -18 -142 -67t-55 -111zM607 200q99 -18 162 -11q103 12 172 65.5t70 131.5q0 37 -14.5 66t-42.5 48
t-61 31t-76 20q-1 0 -6.5 1t-18 3.5t-23.5 4.5v-270q0 -32 -15.5 -53t-35.5 -29t-46.5 -10t-40 -1t-24.5 3z" />
    <glyph glyph-name="percent" unicode="%" horiz-adv-x="1761" 
d="M92 1072q0 163 99.5 260t238.5 97t238.5 -97t99.5 -260t-98.5 -259.5t-239.5 -97.5q-141 1 -239.5 97t-98.5 260zM245 0l1036 1412h234l-1037 -1412h-233zM266 1072q0 -96 48 -148.5t116 -53.5q68 1 116 53.5t48 148.5q0 91 -48.5 145.5t-115.5 55.5q-68 -1 -116 -55
t-48 -146zM991 357q0 163 99.5 260.5t238.5 97.5t238.5 -97.5t99.5 -260.5t-98.5 -259.5t-239.5 -97.5q-141 1 -239.5 97t-98.5 260zM1165 357q0 -96 48 -148t116 -53q68 1 116 53t48 148q0 91 -48.5 146t-115.5 56q-67 -1 -115.5 -55.5t-48.5 -146.5z" />
    <glyph glyph-name="ampersand" unicode="&#x26;" horiz-adv-x="1490" 
d="M96 361q0 105 40 182.5t119 144.5q36 31 78.5 34.5t74 -9t65.5 -38t45.5 -37.5t20.5 -22q-15 19 -50.5 59.5t-67 79t-57.5 75.5q-104 149 -104 283q0 92 55 166.5t142 114.5t184 40q87 0 160 -33t116 -82.5t66.5 -102.5t23.5 -99v-11h-256q0 51 -34.5 83.5t-77.5 32.5
q-45 0 -78 -31t-33 -85q0 -13 3 -26t10.5 -28t13 -25.5t18 -26.5t17 -22t18.5 -23t15 -18l191 -231h584v-224h-398l398 -481h-348l-91 109q-180 -149 -386 -149q-212 0 -344.5 118.5t-132.5 281.5zM362 371q0 -77 58 -133t154 -60q132 -6 247 99l-281 339q-44 -31 -69.5 -51
t-54 -50.5t-41.5 -66t-13 -77.5z" />
    <glyph glyph-name="quotesingle" unicode="'" horiz-adv-x="534" 
d="M86 861l92 512h273v-1l-147 -511h-218z" />
    <glyph glyph-name="parenleft" unicode="(" horiz-adv-x="901" 
d="M109 555q0 264 119 530.5t294 388.5h253q-181 -153 -291 -396.5t-110 -522.5q0 -289 109 -535.5t294 -395.5h-255q-121 80 -216 232t-146 335.5t-51 363.5z" />
    <glyph glyph-name="parenright" unicode=")" horiz-adv-x="901" 
d="M123 -376q185 149 294 395.5t109 535.5q0 279 -110.5 522.5t-291.5 396.5h254q175 -122 294 -388.5t119 -530.5q0 -180 -51 -363.5t-146 -335.5t-216 -232h-255z" />
    <glyph glyph-name="asterisk" unicode="*" horiz-adv-x="823" 
d="M90 978l161 92l-161 93l80 139l161 -93v185h160v-185l160 93l81 -139l-161 -93l161 -92l-81 -139l-160 93v-186h-160v186l-161 -93z" />
    <glyph glyph-name="plus" unicode="+" horiz-adv-x="1175" 
d="M86 391v220h392v393h220v-393h391v-220h-391v-390h-220v390h-392z" />
    <glyph glyph-name="comma" unicode="," horiz-adv-x="458" 
d="M25 -283l93 522h268l-149 -522h-212z" />
    <glyph glyph-name="hyphen" unicode="-" horiz-adv-x="653" 
d="M76 391v220h501v-220h-501z" />
    <glyph glyph-name="period" unicode="." horiz-adv-x="501" 
d="M80 157q0 65 49.5 111t120.5 46t120.5 -46t49.5 -111t-49.5 -110.5t-120.5 -45.5t-120.5 45.5t-49.5 110.5z" />
    <glyph glyph-name="slash" unicode="/" horiz-adv-x="985" 
d="M53 0l651 1433h232l-651 -1433h-232z" />
    <glyph glyph-name="zero" unicode="0" horiz-adv-x="1257" 
d="M109 712q0 155 32.5 287t95 233.5t163 159t228.5 57.5t228.5 -57.5t163 -159t95 -233.5t32.5 -287t-32.5 -287t-95 -233t-163 -158.5t-228.5 -57.5t-228.5 57.5t-163 158.5t-95 233t-32.5 287zM376 712q0 -139 27.5 -253t86 -186t138.5 -72t138.5 72t86 186t27.5 253
t-27.5 253t-86 186.5t-138.5 72.5t-138.5 -72.5t-86 -186.5t-27.5 -253z" />
    <glyph glyph-name="one" unicode="1" horiz-adv-x="759" 
d="M80 919v226q75 0 130.5 18.5t85.5 45.5t48 65.5t22.5 69t4.5 65.5h265v-1408h-265v1408q0 -47 -0.5 -72.5t-3 -73t-7.5 -75.5t-15 -69t-24 -65.5t-36 -53t-50.5 -44.5t-68 -26.5t-86.5 -10.5z" />
    <glyph glyph-name="two" unicode="2" horiz-adv-x="1208" 
d="M105 -1q-8 188 71.5 333.5t213.5 226.5l297 198h1q143 95 143 229q0 76 -37.5 130.5t-92 75.5t-111.5 11q-73 -13 -119.5 -62.5t-63 -109t-16.5 -131.5h-267q0 78 15 148.5t49.5 137.5t87 118t133 85t181.5 42q221 18 364.5 -109t143.5 -339q0 -121 -65.5 -222.5
t-176.5 -174.5q-242 -162 -311 -209q-97 -67 -117 -141h663v-237h-986z" />
    <glyph glyph-name="three" unicode="3" horiz-adv-x="1210" 
d="M102 455h267q0 -67 19 -117t45 -75t61.5 -40t59.5 -18.5t48 -3.5q107 0 170 66.5t63 154.5q0 98 -65.5 157t-164.5 60h-112v225h107q84 2 135 62.5t45 137.5q-5 65 -51 112t-137 47q-23 0 -46.5 -5.5t-51.5 -22t-49 -42.5t-35.5 -71.5t-14.5 -104.5h-269q0 117 35 206
t85.5 138t118 79.5t121.5 39.5t107 9q125 0 235 -51t171.5 -141.5t45.5 -193.5q-5 -32 -19 -59t-31 -46.5t-43.5 -34.5t-49 -25t-56.5 -17t-56 -10.5t-57.5 -5t-51 -2t-46.5 0t-35 0.5q105 0 191 -25.5t143 -68t96 -101t56 -121.5t17 -132q0 -88 -38 -168.5t-103 -140.5
t-159 -95.5t-200 -35.5q-31 0 -65.5 3t-85.5 15t-96.5 32t-93.5 56.5t-82 85t-56 123t-22 164.5z" />
    <glyph glyph-name="four" unicode="4" horiz-adv-x="1202" 
d="M90 317v246l535 871h314v-892h167v-225h-57q-4 0 -11.5 -1t-26.5 -10t-33.5 -25t-26.5 -50.5t-12 -81.5v-148h-266v148q0 47 38.5 81.5t94 50.5t111 25t93.5 10l39 1h-959zM341 542h332v543l-1 -2z" />
    <glyph glyph-name="five" unicode="5" horiz-adv-x="1187" 
d="M104 379h267q0 -75 65.5 -128.5t153.5 -47.5q106 7 164.5 80t58.5 174q0 112 -58.5 189t-164.5 81q-64 3 -114.5 -18t-79.5 -59h-246l76 774h774v-268h-575l-29 -506q15 259 194 296q72 12 143.5 -3t134 -56t110.5 -101.5t75.5 -146t27.5 -182.5q0 -201 -136 -335.5
t-355 -144.5q-122 -5 -233.5 44t-182 144.5t-70.5 213.5z" />
    <glyph glyph-name="six" unicode="6" horiz-adv-x="1196" 
d="M112 712q10 154 45.5 281.5t97 227t155 159t213.5 68.5q110 8 209.5 -38t162 -137t62.5 -204h-266q-11 78 -53 119.5t-115 36.5t-135.5 -81t-96 -195t-39.5 -267t34 -297q-40 158 -11.5 274t99.5 184t168 82q102 15 188 -16.5t140.5 -95t85 -147.5t30.5 -176
q0 -221 -137 -367.5t-338 -146.5q-113 0 -202.5 40.5t-148 110t-95 164t-49 200t-4.5 221.5zM376 462q0 -106 62.5 -184t154.5 -78q97 0 161 72.5t64 199.5q0 100 -58.5 166t-157.5 66t-162.5 -71t-63.5 -171z" />
    <glyph glyph-name="seven" unicode="7" horiz-adv-x="1161" 
d="M84 1142v268h993v-268l-639 -1141h-282l511 913q36 64 91.5 111t109 68.5t101.5 33.5t78 13l30 2h-993z" />
    <glyph glyph-name="eight" unicode="8" horiz-adv-x="1204" 
d="M105 410q6 85 46.5 143t96.5 83.5t124.5 33.5t124.5 3t103 -18q-54 0 -128 33.5t-144 87.5t-119 133.5t-49 160.5q0 157 129 268t311 111q121 0 227 -50.5t166.5 -139t47.5 -189.5q-7 -59 -41 -100.5t-80 -62t-105 -29.5t-111 -7.5t-104 9.5q130 0 244 -61t183 -169.5
t69 -239.5q0 -118 -66.5 -218t-180.5 -158t-249 -58t-252 59.5t-184 160t-59 214.5zM372 428q0 -94 66.5 -160.5t161.5 -66.5t161.5 66.5t66.5 160.5t-66.5 160.5t-161.5 66.5t-161.5 -66.5t-66.5 -160.5zM427 1052q0 -71 51 -121.5t122 -50.5t122 50.5t51 121.5t-51 121.5
t-122 50.5t-122 -50.5t-51 -121.5z" />
    <glyph glyph-name="nine" unicode="9" horiz-adv-x="1196" 
d="M109 934q0 221 137 368t338 147q140 0 244 -61.5t161 -166.5t80.5 -234t13.5 -275q-10 -154 -46 -281t-97 -226.5t-155 -159t-214 -68.5q-110 -8 -209.5 38t-161.5 137t-62 204h266q11 -78 52.5 -119.5t114.5 -36.5t135.5 81t96.5 195t40 266.5t-34 296.5
q41 -158 12 -273.5t-100 -183.5t-168 -82q-102 -15 -188 16.5t-140.5 94.5t-85 147t-30.5 176zM376 953q0 -100 59 -166t158 -66t162 71t63 171q0 106 -62 183.5t-154 77.5q-98 0 -162 -72t-64 -199z" />
    <glyph glyph-name="colon" unicode=":" horiz-adv-x="534" 
d="M96 157q0 65 49.5 111t120.5 46t121 -46t50 -111t-50 -110.5t-121 -45.5t-120.5 45.5t-49.5 110.5zM96 888q0 65 49.5 111t120.5 46t121 -46t50 -111t-50 -110.5t-121 -45.5t-120.5 45.5t-49.5 110.5z" />
    <glyph glyph-name="semicolon" unicode=";" horiz-adv-x="524" 
d="M45 -283l94 522h268l-150 -522h-212zM93 888q0 65 49.5 111t120.5 46t120.5 -46t49.5 -111t-49.5 -110.5t-120.5 -45.5t-120.5 45.5t-49.5 110.5z" />
    <glyph glyph-name="less" unicode="&#x3c;" horiz-adv-x="1234" 
d="M98 308v431l1036 318v-233l-983 -300l983 -290v-233z" />
    <glyph glyph-name="equal" unicode="=" horiz-adv-x="1187" 
d="M92 174v220h1004v-220h-1004zM92 611v220h1004v-220h-1004z" />
    <glyph glyph-name="greater" unicode="&#x3e;" horiz-adv-x="1234" 
d="M100 1v233l984 290l-984 300v233l1036 -318v-431z" />
    <glyph glyph-name="question" unicode="?" horiz-adv-x="1146" 
d="M78 999q0 93 37.5 179.5t101.5 151.5t156 104t194 39q122 0 234.5 -52t183.5 -143t71 -196q0 -194 -177 -325q-112 -82 -151 -158.5t-39 -213.5h-265v11q0 309 260 496q26 20 39 31t33.5 35t28.5 55t6 69q-4 72 -71.5 122t-152.5 45q-103 -6 -162.5 -82t-59.5 -168h-267z
M385 128q0 53 50.5 90.5t121.5 37.5t121 -37.5t50 -90.5t-50 -90t-121 -37t-121.5 37t-50.5 90z" />
    <glyph glyph-name="at" unicode="@" horiz-adv-x="1949" 
d="M102 569q0 170 72 324t191 263.5t279.5 174t331.5 64.5q190 0 353.5 -59t280.5 -165t180 -262t55 -340q-8 -177 -104 -301.5t-254 -153.5q-60 -11 -115 3t-92 43.5t-60.5 65t-28.5 69.5q-83 -131 -267 -131q-107 0 -190.5 62.5t-125 153.5t-41.5 189t41.5 189t125 153
t190.5 62q184 0 267 -130v105h195v-545q0 -53 22 -85t71 -27q68 7 108.5 89.5t45.5 188.5q12 289 -169 451t-488 162q-183 0 -333 -76t-239 -217t-89 -320q0 -180 84.5 -320.5t231 -217t328.5 -76.5q199 0 366 109v-235q-172 -86 -366 -86q-137 0 -266.5 41t-235.5 117
t-186 177t-124.5 228t-44.5 263zM791 569q0 -98 58.5 -165.5t152.5 -67.5q90 0 139 68.5t49 164.5t-49 164t-139 68q-94 0 -152.5 -67t-58.5 -165z" />
    <glyph glyph-name="A" unicode="A" horiz-adv-x="1472" 
d="M12 0l460 1433h517l472 -1433h-277l-131 394h-636l-128 -394h-277zM491 622h486l-246 739z" />
    <glyph glyph-name="B" unicode="B" horiz-adv-x="1402" 
d="M123 0v1433h740q66 0 131.5 -20.5t119.5 -57t93 -86.5t53 -109q6 -27 6 -55q0 -34 -9 -70q-8 -28 -22.5 -51.5t-31.5 -40.5t-43.5 -30.5t-48.5 -22t-56.5 -14.5t-57.5 -9t-61.5 -4.5t-58.5 -1.5h-58q77 0 129 45.5t52 118.5q0 75 -53 128t-128 53h-430v-345h430
q95 0 173 -18t130 -47t92.5 -70t62.5 -81.5t36 -87t18.5 -82.5t4.5 -71q0 -124 -67 -224h-1v-2q-67 -100 -179 -147q-74 -31 -155 -31h-811zM389 228h496q75 0 129.5 63t54.5 141t-55 139.5t-130 61.5h-495v-405z" />
    <glyph glyph-name="C" unicode="C" horiz-adv-x="1378" 
d="M68 717q0 209 78 380.5t223.5 273.5t330.5 102q117 0 215 -29t167 -78t120.5 -116.5t80 -140.5t40.5 -154h-267q-17 59 -45 109t-70 93q-43 43 -105 67q-58 22 -125 21h-12q-109 -3 -194.5 -83t-128 -198t-42.5 -247q0 -98 22.5 -190t66 -168.5t115 -123t161.5 -46.5
q130 0 214.5 73.5t136.5 215.5h266q-22 -109 -69 -198t-107.5 -147.5t-134.5 -98t-149.5 -56.5t-153.5 -17q-151 0 -272.5 59t-199.5 162.5t-120 240t-42 294.5z" />
    <glyph glyph-name="D" unicode="D" horiz-adv-x="1404" 
d="M123 0v1434h622q227 0 395 -179q95 -100 149 -240t54 -298t-54 -298t-149 -240q-168 -179 -395 -179h-622zM388 227h300q182 4 285.5 136.5t103.5 353.5q0 224 -106.5 357t-291.5 133h-291v-980z" />
    <glyph glyph-name="E" unicode="E" horiz-adv-x="1249" 
d="M121 0v1433h1055v-227h-787v-377h710v-225h-710v-377h787v-227h-1055z" />
    <glyph glyph-name="F" unicode="F" horiz-adv-x="1157" 
d="M121 0v1433h1004v-227h-736v-377h609v-225h-609v-604h-268z" />
    <glyph glyph-name="G" unicode="G" horiz-adv-x="1509" 
d="M66 717q0 159 50.5 299.5t138 240.5t209.5 158t259 58q117 0 220.5 -28.5t180 -78t135 -115.5t92.5 -141t46 -154h-266q-14 59 -47 111.5t-82 94t-120 64.5q-63 21 -135 21h-18q-123 -4 -215 -80.5t-137 -194t-45 -255.5q0 -103 23.5 -192.5t70.5 -162.5t124.5 -119
t178.5 -56q23 -2 47 -2q36 0 74 5q60 10 117.5 38t103.5 71t77 108.5t38 144.5q0 -26 -0.5 -45t-4.5 -63.5t-11.5 -79.5t-24 -84.5t-38.5 -87.5t-57.5 -80t-80 -71t-107 -50.5t-136.5 -27.5q-28 -2 -55 -2q-116 0 -217 45q-126 55 -210 159.5t-131 247.5t-47 304zM729 552
v224h684v-776h-227v552h-457z" />
    <glyph glyph-name="H" unicode="H" horiz-adv-x="1447" 
d="M121 0v1433h268v-1433h-268zM389 505v13q0 7 2.5 31.5t6 48t11.5 55.5t19 59.5t29 55.5t40 47.5t53 32t68 12.5h247q54 0 94 15t58 36t28.5 42.5t11.5 36.5l1 15q0 -8 -0.5 -21t-5 -51.5t-12 -73.5t-25 -78t-40.5 -73.5t-61 -51.5t-85 -21h-248q-54 0 -93.5 -13.5
t-57.5 -32.5t-28.5 -38t-11.5 -33zM1058 0v1433h268v-1433h-268z" />
    <glyph glyph-name="I" unicode="I" horiz-adv-x="509" 
d="M121 0v1433h268v-1433h-268z" />
    <glyph glyph-name="J" unicode="J" horiz-adv-x="1032" 
d="M25 373v89h267v-89q0 -77 52 -132t127 -55q72 0 124.5 52t55.5 125v1071h267v-1061q0 -130 -60.5 -224.5t-160.5 -141t-226 -46.5q-120 0 -222 52t-163 147t-61 213z" />
    <glyph glyph-name="K" unicode="K" horiz-adv-x="1366" 
d="M121 0v1433h268v-592l601 592h372l-973 -918v-515h-268zM389 515q7 7 20 18.5t53 40.5t79.5 51.5t94.5 40.5q54 18 102 20q3 0 6 1q45 0 93 -23q51 -24 89 -76l431 -588h-345l-315 441q-43 61 -91 91q-47 30 -84 30h-1q-37 0 -68 -10t-47 -24z" />
    <glyph glyph-name="L" unicode="L" horiz-adv-x="1142" 
d="M121 0v1433h267v-1208h743v-225h-1010z" />
    <glyph glyph-name="M" unicode="M" horiz-adv-x="1669" 
d="M121 0v1433h349l364 -1162l364 1162h349v-1433h-268v958l-305 -958h-281l-304 958v-958h-268z" />
    <glyph glyph-name="N" unicode="N" horiz-adv-x="1406" 
d="M123 0v1433l356 1l536 -1105v1104h267v-1433h-345l-546 1104v-1104h-268z" />
    <glyph glyph-name="O" unicode="O" horiz-adv-x="1525" 
d="M63 717q0 209 85 380.5t244.5 273.5t363.5 102q153 0 286 -59.5t224.5 -161.5t143.5 -241t52 -294t-52 -294t-143.5 -241t-224.5 -161.5t-286 -59.5q-204 0 -363.5 102t-244.5 273.5t-85 380.5zM331 717q0 -144 47 -262.5t145.5 -194t233.5 -75.5t236.5 75.5t151.5 194.5
t50 262t-50 262t-151.5 194t-236.5 75q-102 0 -184.5 -43.5t-134.5 -117.5t-79.5 -169t-27.5 -201z" />
    <glyph glyph-name="P" unicode="P" horiz-adv-x="1226" 
d="M123 0v1434h571q212 0 351.5 -121.5t139.5 -318.5q0 -206 -129 -331t-362 -125l-304 1v-539h-267zM391 763h303q93 0 158.5 64t65.5 157q0 99 -59 162t-165 63h-303v-446z" />
    <glyph glyph-name="Q" unicode="Q" horiz-adv-x="1536" 
d="M66 717q0 156 50 294.5t139 240.5t219.5 161.5t283.5 59.5t286 -59.5t224.5 -161.5t143.5 -241t52 -294q0 -156 -51.5 -294.5t-146.5 -242.5l230 -230l-189 -189l-548 548l189 189l142 -142q107 148 107 361q0 143 -50 262t-151.5 194t-236.5 75q-102 0 -184.5 -43.5
t-134.5 -117.5t-79.5 -169t-27.5 -201q0 -69 10 -131t28 -110.5t42 -91.5t52.5 -73.5t59.5 -56t62.5 -39t61.5 -22.5t57.5 -7.5t49.5 6.5q20 7 31.5 21.5t6 40.5t-34.5 55q55 -55 83.5 -106t30.5 -88v-9q0 -32 -13 -58q-14 -30 -40 -47.5t-59 -25.5q-63 -14 -122 -14
q-54 0 -105 12q-105 24 -191.5 95.5t-148 171t-95 223.5t-33.5 254z" />
    <glyph glyph-name="R" unicode="R" horiz-adv-x="1372" 
d="M123 0v1434h730q120 0 226.5 -60.5t169.5 -162.5t63 -217q0 -187 -113 -320t-273 -136l376 -538h-312l-377 538l-222 1v-539h-268zM391 763h434q104 0 161.5 65.5t57.5 155.5q0 83 -57 154t-134 71h-462v-446z" />
    <glyph glyph-name="S" unicode="S" horiz-adv-x="1310" 
d="M63 462h267q0 -43 17.5 -86.5t52.5 -84.5t98 -69.5t145 -34.5q19 -2 38 -1q105 0 189 48q100 57 100 154q0 70 -52 114q-54 44 -142 67l-283 65q-188 43 -291 145t-103 282q0 119 71.5 213.5t197 146.5t282.5 52q137 0 247 -36.5t179.5 -100t106.5 -146.5t37 -177h-268
q0 94 -82 164.5t-220 70.5q-118 0 -200.5 -54.5t-82.5 -131.5q0 -120 171 -164l282 -65q195 -48 306.5 -158.5t111.5 -289.5q0 -98 -51.5 -181t-135.5 -136q-83 -54 -189 -82q-95 -26 -195 -25h-21q-112 3 -208.5 33t-164 79.5t-116 113.5t-71.5 134t-23 141z" />
    <glyph glyph-name="T" unicode="T" horiz-adv-x="1185" 
d="M10 1196v238h1164v-238h-263q-4 0 -10.5 -0.5t-26 -4t-37 -10t-39 -20.5t-37 -33t-26 -50t-10.5 -69v-1009h-266v990q0 42 21.5 76t55.5 55t75.5 36.5t82.5 22.5t75 11t55 5h22h-836z" />
    <glyph glyph-name="U" unicode="U" 
d="M104 527v906h268v-906q0 -145 82 -233.5t217 -88.5t217 88.5t82 233.5v906h268v-906q0 -118 -46 -224t-123 -180.5t-181 -118t-217 -43.5t-217 43.5t-181 118t-123 180.5t-46 224z" />
    <glyph glyph-name="V" unicode="V" horiz-adv-x="1447" 
d="M12 1433h277l441 -1359l429 1359h277l-447 -1433h-517z" />
    <glyph glyph-name="W" unicode="W" horiz-adv-x="2029" 
d="M43 1433h273l236 -1352l227 1352h470l227 -1352l235 1352h274l-250 -1433h-510l-211 1298l-212 -1298h-510z" />
    <glyph glyph-name="X" unicode="X" horiz-adv-x="1351" 
d="M8 0l508 736l-475 697h326l218 -329l758 -1104h-326l-340 524l-350 -524h-319zM585 1104q4 -6 11.5 -15.5t30.5 -27.5t45.5 -24.5t53 7t57.5 53.5l219 336h316l-341 -500q-28 -41 -65 -53q-18 -6 -36 -6q-20 0 -38 6q-36 12 -73.5 36.5t-69 57t-56.5 61.5t-39 49z" />
    <glyph glyph-name="Y" unicode="Y" horiz-adv-x="1271" 
d="M-4 1433h306l333 -624l333 624h306l-504 -893v-540h-269v540z" />
    <glyph glyph-name="Z" unicode="Z" horiz-adv-x="1224" 
d="M41 0v225h1132v-225h-1132zM41 225l598 747q53 67 127.5 115.5t143 71t129.5 35t97 14.5l37 1l-584 -741q-54 -68 -130 -118t-146.5 -73t-133 -36t-100.5 -15zM105 1209v225h1068v-225h-1068z" />
    <glyph glyph-name="bracketleft" unicode="[" horiz-adv-x="696" 
d="M123 -376v1810h501v-202h-276v-1407h276v-201h-501z" />
    <glyph glyph-name="backslash" unicode="\" horiz-adv-x="894" 
d="M61 1433h227l541 -1433h-227z" />
    <glyph glyph-name="bracketright" unicode="]" horiz-adv-x="696" 
d="M72 -175h276v1407h-276v202h501v-1810h-501v201z" />
    <glyph glyph-name="asciicircum" unicode="^" horiz-adv-x="1103" 
d="M82 597l257 837h430l249 -837h-233l-231 785l-239 -785h-233z" />
    <glyph glyph-name="underscore" unicode="_" horiz-adv-x="1320" 
d="M123 -125h1075v-164h-1075v164z" />
    <glyph glyph-name="grave" unicode="`" horiz-adv-x="559" 
d="M23 1474h290l178 -282h-210z" />
    <glyph glyph-name="a" unicode="a" horiz-adv-x="1087" 
d="M63 326q0 157 114 253t282 96h160q49 1 79 25q29 23 28 55q0 61 -50 93q-46 30 -128 31q-52 0 -97.5 -28t-63.5 -68h-255q22 104 89 174t149 98t178 28q74 0 148 -18.5t139 -53.5t106 -94t41 -133v-783h-256v758q0 -153 -43 -211.5t-124 -58.5h-58q-29 0 -55.5 -5.5
t-55 -18.5t-48 -40t-23.5 -66q-1 -9 -1 -18q0 -57 44 -101q52 -50 139 -51q86 0 155.5 52t69.5 119q0 -183 -70 -281.5t-199 -102.5h-17q-83 0 -153 27q-77 30 -124.5 81.5t-73.5 114t-26 127.5z" />
    <glyph glyph-name="b" unicode="b" horiz-adv-x="1191" 
d="M113 1v1434h255v-918q0 -143 68.5 -234t182.5 -91q108 0 178 97t70 228t-70 228t-178 97q-114 0 -182.5 -91t-68.5 -234q0 140 25 246t66.5 165t85 89.5t91.5 38.5q32 6 62 6q92 0 176 -50q112 -66 180 -199t68 -296q0 -121 -39.5 -225t-105.5 -174t-155 -108
q-82 -35 -172 -34h-14q-92 3 -164 58t-104 126v-159h-255z" />
    <glyph glyph-name="c" unicode="c" horiz-adv-x="1142" 
d="M66 496q-1 14 -1 28q0 110 36 208q40 110 110.5 186.5t166 120.5t199.5 44q192 0 332 -112t173 -306h-274q-25 86 -86.5 140t-142.5 54q-104 0 -175 -96.5t-71 -232.5q0 -140 65.5 -235t181.5 -95q80 0 139 52.5t76 125.5h283q-37 -177 -172 -289.5t-324 -112.5
q-211 0 -359 143.5t-157 376.5z" />
    <glyph glyph-name="d" unicode="d" horiz-adv-x="1191" 
d="M68 517q0 122 40 230.5t106 181.5t156 109q61 24 123 24q30 0 60 -6q37 -6 72 -25.5t72 -60.5t64 -99t44 -149.5t17 -204.5q0 143 -68.5 234t-182.5 91q-108 0 -178 -97t-70 -228t70 -228t178 -97q114 0 182.5 91t68.5 234v918h255v-1434h-255v159q-32 -71 -104.5 -126
t-164.5 -58h-15q-122 0 -226 61q-110 65 -177 191.5t-67 288.5z" />
    <glyph glyph-name="e" unicode="e" horiz-adv-x="1177" 
d="M66 530q0 128 43.5 234t116.5 175t166.5 106.5t196.5 37.5t197 -37.5t167 -106.5t116.5 -175t43.5 -234q0 -38 -3 -72h-783q18 -123 92 -189t170 -68q62 1 118 30t93 84h278q-57 -159 -190 -248t-299 -91q-105 1 -199 38.5t-166.5 106.5t-115 175t-42.5 234zM335 652h509
q-38 99 -105 151.5t-150 54.5q-84 -2 -150 -54t-104 -152z" />
    <glyph glyph-name="f" unicode="f" horiz-adv-x="681" 
d="M35 832v224h179v117q0 115 97.5 187.5t235.5 72.5h99v-222h-97h-4q-33 -1 -56 -24.5t-23 -56.5v-74h180v-224h-611zM214 -1v651q0 51 37 88t89 54.5t104.5 27.5t89.5 11l37 1q-4 0 -11 -1t-25.5 -11t-32 -27t-25 -54.5t-11.5 -88.5v-651h-252z" />
    <glyph glyph-name="g" unicode="g" horiz-adv-x="1157" 
d="M63 613q0 119 73 222t190.5 162t246.5 59h1q84 0 165 -26l166 166l162 -162l-123 -124q139 -129 139 -297q0 -98 -47.5 -182.5t-122 -138.5t-161.5 -84t-171 -30q-258 4 -388 126t-130 309zM74 -21q0 10 2 28h253q-2 -14 -2 -21q0 -63 75 -101t174 -38q98 0 169.5 46.5
t77.5 112.5q1 7 1 13q0 63 -54 108q-58 50 -189 51q180 0 287.5 -21.5t155 -64t53.5 -113.5q1 -9 1 -19q0 -84 -66 -160q-72 -83 -190 -130.5t-246 -47.5q-127 0 -242.5 47.5t-187.5 130.5t-72 179zM316 613q0 -100 68.5 -166t188.5 -66q115 0 186 68.5t71 163.5
q0 84 -75.5 151.5t-181.5 67.5q-110 0 -183.5 -67t-73.5 -152z" />
    <glyph glyph-name="h" unicode="h" horiz-adv-x="1146" 
d="M113 -1v1434h255v-1434h-255zM368 622v-6v6zM368 622q1 205 84.5 326.5t205.5 131.5q14 1 29 1q78 -1 152 -37q88 -44 147 -135t59 -208v-702h-255v617q0 109 -50 179t-161 70q-105 0 -157 -66t-54 -177z" />
    <glyph glyph-name="i" unicode="i" horiz-adv-x="483" 
d="M70 1305q0 53 50 90.5t121 37.5t121.5 -37.5t50.5 -90.5t-50.5 -90t-121.5 -37t-121 37t-50 90zM114 -1v1057h255v-1057h-255z" />
    <glyph glyph-name="j" unicode="j" horiz-adv-x="483" 
d="M-102 -154q58 0 98.5 14.5t63 37.5t35 63t16 77.5t3.5 94.5v923h255v-1039q0 -79 -27.5 -148t-82.5 -125.5t-148 -89t-213 -32.5v224zM70 1305q0 53 50.5 90.5t121.5 37.5t121 -37.5t50 -90.5t-50 -90t-121 -37t-121.5 37t-50.5 90z" />
    <glyph glyph-name="k" unicode="k" horiz-adv-x="1173" 
d="M113 -1v1434h255v-785l441 408h312l-753 -696v-361h-255zM368 360q6 5 16.5 14.5t42.5 33.5t63.5 43t74.5 37t81 22q10 1 19 1q29 0 57 -10q38 -13 66 -47l364 -455h-312q-205 254 -246 306q-34 43 -70 64t-62.5 21t-48.5 -6t-33 -15z" />
    <glyph glyph-name="l" unicode="l" horiz-adv-x="481" 
d="M113 -1v1434h255v-1434h-255z" />
    <glyph glyph-name="m" unicode="m" horiz-adv-x="1724" 
d="M113 -1v1057h255v-1057h-255zM368 703q0 94 20 166t55 115t75.5 66.5t88.5 29.5q14 1 29 1q78 0 152 -42q86 -50 132 -140q32 77 126 129.5t188 52.5q174 0 281 -102.5t107 -262.5v-717h-255v704q0 65 -57.5 109t-128.5 44q-74 0 -130 -40.5t-56 -112.5v-704h-255v704
q0 72 -56 112.5t-130 40.5q-71 0 -128.5 -44t-57.5 -109z" />
    <glyph glyph-name="n" unicode="n" horiz-adv-x="1146" 
d="M113 -1v1057h255v-1057h-255zM368 681q0 171 58.5 277t177.5 121q21 3 42 3q36 0 74 -8q60 -12 117.5 -42t104 -75t75 -111t28.5 -143v-704h-255v682q0 71 -58 123t-153 52q-89 0 -150 -53t-61 -122z" />
    <glyph glyph-name="o" unicode="o" horiz-adv-x="1179" 
d="M66 530q0 128 43.5 234t116.5 175t166.5 106.5t196.5 37.5t197 -37.5t167 -106.5t116.5 -175t43.5 -234t-42.5 -234t-115 -174.5t-167 -106.5t-199.5 -39q-105 1 -199 38.5t-166.5 106.5t-115 175t-42.5 234zM322 530q0 -157 78 -242t189 -87q111 2 189.5 87t78.5 242
q0 149 -79 237.5t-189 90.5q-110 -2 -188.5 -90.5t-78.5 -237.5z" />
    <glyph glyph-name="p" unicode="p" horiz-adv-x="1191" 
d="M113 -378v1434h255v-159q32 71 104 126t164 58h14q90 0 172 -35q89 -37 155 -107t105.5 -174t39.5 -225q0 -163 -67.5 -296t-180.5 -199q-84 -49 -176 -49q-30 0 -62 5q-48 8 -91.5 38.5t-85 89.5t-66.5 165t-25 246q0 -143 68.5 -234t182.5 -91q108 0 178 97t70 228
t-70 228t-178 97q-114 0 -182.5 -91t-68.5 -234v-918h-255z" />
    <glyph glyph-name="q" unicode="q" horiz-adv-x="1191" 
d="M68 540q0 162 67 288.5t177 191.5q105 61 226 61h15q92 -3 164.5 -58t104.5 -126v159h255v-1434h-255v918q0 143 -68.5 234t-182.5 91q-108 0 -178 -97t-70 -228t70 -228t178 -97q114 0 182.5 91t68.5 234q0 -113 -17 -204.5t-44 -149.5t-64 -99t-72 -60.5t-72 -25.5
q-30 -6 -60 -6q-63 0 -123 25q-90 35 -156 108t-106 181.5t-40 230.5z" />
    <glyph glyph-name="r" unicode="r" horiz-adv-x="761" 
d="M113 -1v1057h255v-391q0 188 68 302t156 114q71 0 140 -25v-236q-48 24 -140 24q-107 0 -165.5 -53t-58.5 -138v-654h-255z" />
    <glyph glyph-name="s" unicode="s" horiz-adv-x="1060" 
d="M78 773q7 128 135 218.5t304 90.5q100 0 188.5 -30.5t144.5 -77.5q57 -48 86 -106q22 -45 22 -87q0 -13 -2 -26h-255q0 35 -53.5 67t-121.5 36q-13 1 -25 1q-64 -1 -110 -23q-55 -26 -55 -74q0 -68 133 -91l249 -44q123 -22 198 -104.5t75 -215.5q0 -84 -40 -150
t-106.5 -105.5t-148.5 -59.5q-71 -17 -146 -16h-24q-109 4 -201.5 36t-148.5 79q-54 47 -80 103q-16 36 -17 70q0 20 6 39q22 76 128 110q55 18 131 18q72 0 163 -16l-134 23q-60 11 -113 36t-96 65q-42 41 -66 101q-20 52 -21 112q0 10 1 21zM308 341q0 -60 66 -99t152 -42
h15q73 0 129 28q62 30 62 75q0 39 -28 61t-91 33q-2 0 -92 15q-45 8 -81 8q-46 0 -76 -12q-56 -21 -56 -67z" />
    <glyph glyph-name="t" unicode="t" horiz-adv-x="690" 
d="M37 857v199h154v377h255v-377h179v-199h-555q27 0 61 -2t93.5 -11t105.5 -25t81 -47.5t35 -74.5v-392q0 -33 23 -57t55 -24h101v-225h-174q-107 0 -183.5 76t-76.5 184v456q0 40 -13.5 69t-32.5 42.5t-37.5 21t-31.5 8.5l-14 1h-25z" />
    <glyph glyph-name="u" unicode="u" horiz-adv-x="1134" 
d="M100 352v704h255v-704q0 -68 57 -110.5t155 -42.5q96 0 147 58t51 146q0 -66 -5 -119.5t-20 -109.5t-39.5 -95t-66 -67t-97.5 -34q-30 -4 -59 -4q-51 0 -98 12q-73 18 -123.5 55.5t-86.5 89t-53 108t-17 113.5zM765 0v1056h255v-1056h-255z" />
    <glyph glyph-name="v" unicode="v" horiz-adv-x="1095" 
d="M29 1056h279l243 -934l234 934h280l-291 -1056h-445z" />
    <glyph glyph-name="w" unicode="w" horiz-adv-x="1570" 
d="M27 1056h309l148 -773l157 773h287l158 -773l147 773h310l-309 -1056h-284l-165 743l-163 -743h-287z" />
    <glyph glyph-name="x" unicode="x" horiz-adv-x="1148" 
d="M51 0l450 632q-50 52 -100 81t-135 46t-214 17v280q77 0 141 -11t110.5 -28.5t84.5 -45.5t62.5 -56t45 -67t32 -70.5t23.5 -74.5l21 29l219 324h306q-295 -422 -327 -466q-24 -34 -54.5 -47t-57 -9.5t-55.5 18t-47.5 29t-35.5 31.5l152 -159q37 -38 60.5 -59.5
t61.5 -46.5t76.5 -37.5t95.5 -21t130 -8.5v-280q-92 0 -166.5 24t-122.5 60t-86.5 90.5t-59 101t-39.5 106.5l-265 -382h-306z" />
    <glyph glyph-name="y" unicode="y" horiz-adv-x="1107" 
d="M18 1056h280l256 -719l256 719h279l-487 -1256q-36 -92 -93.5 -135t-173.5 -43h-126v237h106q31 1 49.5 12.5t32.5 43.5l31 85z" />
    <glyph glyph-name="z" unicode="z" horiz-adv-x="1046" 
d="M59 0v224h924v-224h-924zM59 224q312 339 419 454q40 43 104.5 74.5t128.5 46t122.5 22.5t94.5 9l37 1q-292 -315 -427 -461q-38 -41 -101 -71t-126.5 -43.5t-121.5 -21.5t-94 -9zM104 832v224h861v-225z" />
    <glyph glyph-name="braceleft" unicode="{" horiz-adv-x="866" 
d="M90 408v311q105 0 164 43q62 46 64 130v147q0 189 134 326q137 140 332 140h36v-213h-36q-99 0 -169.5 -70.5t-70.5 -170.5v-103q0 -72 -17.5 -131.5t-45 -98.5t-65.5 -68.5t-74 -45t-76.5 -25.5t-67.5 -12.5t-51 -2.5q25 0 51.5 -2.5t67 -12t76.5 -25t74 -45t65.5 -68.5
t45 -98.5t17.5 -132.5v-104q0 -99 70.5 -170t169.5 -71h36v-213h-36q-90 0 -175.5 35t-150.5 98q-140 135 -140 333v147q-2 84 -64 130q-59 43 -164 43z" />
    <glyph glyph-name="verticalbar" unicode="|" horiz-adv-x="471" 
d="M123 -231v1781h225v-1781h-225z" />
    <glyph glyph-name="braceright" unicode="}" horiz-adv-x="866" 
d="M45 -165h36q99 0 169.5 71t70.5 170v104q0 73 17.5 132.5t45 98.5t65.5 68.5t74 45t76.5 25t67 12t51.5 2.5q-24 0 -51 2.5t-67.5 12.5t-76.5 25.5t-74 45t-65.5 68.5t-45 98.5t-17.5 131.5v103q0 100 -70.5 170.5t-169.5 70.5h-36v213h36q195 0 332 -140
q134 -137 134 -326v-147q2 -84 64 -130q59 -43 164 -43v-311q-105 0 -164 -43q-62 -46 -64 -130v-147q0 -197 -141 -333q-65 -63 -150 -98t-175 -35h-36v213z" />
    <glyph glyph-name="asciitilde" unicode="~" horiz-adv-x="868" 
d="M76 468v18q0 91 65 161q68 73 166 73q30 0 67 -10h1q73 -24 184 -67q12 -3 24 -3q32 0 55 20.5t23 56.5v18h132v-18q0 -91 -66 -162q-67 -72 -166 -72q-33 0 -66 9h-1l-1 1q-85 28 -183 66q-12 3 -24 3q-32 0 -55.5 -20.5t-23.5 -55.5v-18h-131z" />
    <glyph glyph-name="nonbreakingspace" unicode="&#xa0;" horiz-adv-x="571" 
 />
    <glyph glyph-name="exclamdown" unicode="&#xa1;" horiz-adv-x="544" 
d="M100 929q0 53 50.5 90.5t121.5 37.5t121 -37.5t50 -90.5t-50 -90t-121 -37t-121.5 37t-50.5 90zM139 -377q0 122 9.5 384t19.5 463l9 202h190q37 -776 37 -1049h-265z" />
    <glyph glyph-name="cent" unicode="&#xa2;" horiz-adv-x="1222" 
d="M103 495q-5 125 35 235.5t110.5 187t166 120.5t199.5 44q128 0 239 -54l89 128l148 -103l-92 -133q96 -105 121 -257h-274q-3 11 -8 25l-323 -465q47 -25 103 -25q80 0 139 52.5t76 125.5h282q-37 -177 -171.5 -289.5t-323.5 -112.5q-131 0 -238 56l-88 -126l-148 102
l93 135q-126 142 -135 354zM370 528q0 -86 26 -159l321 463q-49 26 -101 26q-104 0 -175 -97t-71 -233z" />
    <glyph glyph-name="sterling" unicode="&#xa3;" horiz-adv-x="1247" 
d="M102 1v224h1043v-224h-1043zM102 225q119 0 189.5 71.5t70.5 201.5q0 58 -18 107h-241v185h183q-28 99 -28 181q0 218 122.5 340.5t337.5 122.5q185 0 300 -132.5t126 -333.5h-223q0 109 -53.5 175t-149.5 66q-108 0 -175 -77t-60 -193q4 -78 36 -149h264v-185h-209
q12 -52 12 -125q-3 -94 -51 -149t-152 -80.5t-281 -25.5z" />
    <glyph glyph-name="currency" unicode="&#xa4;" horiz-adv-x="1251" 
d="M94 264l165 165q-63 100 -63 225q0 124 63 225l-165 164l141 142l165 -165q103 63 225 63q121 0 224 -63l166 165l141 -142l-165 -165q63 -100 63 -224t-63 -225l165 -165l-141 -141l-165 165q-103 -63 -225 -63t-225 63l-165 -165zM396 654q0 -95 67 -162t162 -67
t162 67t67 162t-67 162t-162 67t-162 -67t-67 -162z" />
    <glyph glyph-name="yen" unicode="&#xa5;" horiz-adv-x="1427" 
d="M74 1434h306l333 -624l333 624h306l-412 -729h234v-164h-326v-41q0 -35 -28 -60.5t-67.5 -37t-79 -18.5t-67.5 -8h-28v165h-326v164h234zM252 212v164h922v-164h-326v-211h-270v211h-326z" />
    <glyph glyph-name="brokenbar" unicode="&#xa6;" horiz-adv-x="454" 
d="M115 -232v736h224v-736h-224zM115 813v736h224v-736h-224z" />
    <glyph glyph-name="section" unicode="&#xa7;" horiz-adv-x="1159" 
d="M109 130h255q0 -60 66 -99t152 -42q83 -3 144.5 27.5t61.5 75.5q0 38 -28.5 60t-91.5 33l-239 42q-57 10 -110 34.5t-98 61t-69 90t-17 114.5q9 83 79.5 137.5t162 68.5t188.5 -5t158 -71q-43 36 -109 65t-128.5 45t-128.5 41t-114.5 54t-79.5 83t-31 129q0 83 61 154.5
t162.5 113t217.5 41.5q100 0 188.5 -30.5t145 -77.5t85.5 -105.5t20 -113.5h-256q0 35 -53.5 67t-121.5 36q-80 5 -135 -21.5t-55 -74.5q0 -68 134 -91l248 -44q61 -11 113.5 -36t93 -64t58.5 -96t5 -124q-12 -62 -65 -109.5t-127 -69t-154.5 -24t-156 24t-122.5 76.5
q39 -42 96 -70.5t114.5 -42.5t119 -27t114 -29.5t95 -43.5t67 -76.5t24.5 -120.5q0 -94 -69 -172.5t-176 -120t-221 -38.5q-106 3 -196.5 35.5t-150 83.5t-93 115t-33.5 131zM391 574q0 -55 53.5 -93t126.5 -38q79 0 135.5 36t56.5 95q0 55 -53 92.5t-126 37.5
q-79 0 -136 -35.5t-57 -94.5z" />
    <glyph glyph-name="dieresis" unicode="&#xa8;" horiz-adv-x="872" 
d="M76 1307q0 53 44.5 90t108.5 37t108.5 -37t44.5 -90t-44.5 -90.5t-108.5 -37.5t-108.5 37.5t-44.5 90.5zM489 1307q0 53 44.5 90t108.5 37t108.5 -37t44.5 -90t-44.5 -90.5t-108.5 -37.5t-108.5 37.5t-44.5 90.5z" />
    <glyph glyph-name="copyright" unicode="&#xa9;" horiz-adv-x="1634" 
d="M100 718q0 143 54.5 274t155.5 232t232.5 155.5t274.5 54.5t274.5 -54.5t232.5 -155.5t155.5 -232t54.5 -274t-54.5 -274.5t-155.5 -232.5t-232.5 -155.5t-274.5 -54.5t-274.5 54.5t-232.5 155.5t-155.5 232.5t-54.5 274.5zM224 718q0 -119 45 -227.5t129 -192.5
t192.5 -129t226.5 -45q119 0 227.5 45t192.5 129t128.5 192.5t44.5 227.5t-44.5 227t-128.5 192t-192.5 129t-227.5 45q-118 0 -226.5 -45t-192.5 -129t-129 -192.5t-45 -226.5zM469 718q0 177 98 298t253 121t240.5 -82.5t104.5 -204.5h-147q-20 71 -68.5 117t-129.5 44
q-91 -3 -147 -92t-56 -201q0 -74 21 -138.5t68.5 -109.5t113.5 -45q137 0 194 160h147q-15 -75 -50.5 -132.5t-83 -90t-99.5 -48.5t-107 -16q-165 0 -258.5 119.5t-93.5 300.5z" />
    <glyph glyph-name="guillemotleft" unicode="&#xab;" horiz-adv-x="1292" 
d="M80 526l345 413h273l-343 -413l348 -406h-279zM590 526l344 413h274l-344 -413l348 -406h-278z" />
    <glyph glyph-name="logicalnot" unicode="&#xac;" horiz-adv-x="1318" 
d="M82 554v212h1139v-565h-212v353h-927z" />
    <glyph glyph-name="softhyphen" unicode="&#xad;" horiz-adv-x="0" 
 />
    <glyph glyph-name="registered" unicode="&#xae;" horiz-adv-x="1634" 
d="M100 718q0 143 54.5 274t155.5 232t232.5 155.5t274.5 54.5t274.5 -54.5t232.5 -155.5t155.5 -232t54.5 -274t-54.5 -274.5t-155.5 -232.5t-232.5 -155.5t-274.5 -54.5t-274.5 54.5t-232.5 155.5t-155.5 232.5t-54.5 274.5zM224 718q0 -119 45 -227.5t129 -192.5
t192.5 -129t226.5 -45q119 0 227.5 45t192.5 129t128.5 192.5t44.5 227.5t-44.5 227t-128.5 192t-192.5 129t-227.5 45q-118 0 -226.5 -45t-192.5 -129t-129 -192.5t-45 -226.5zM519 334v787h401q101 0 176 -72t75 -169q0 -103 -62.5 -175.5t-149.5 -74.5l207 -296h-171
l-207 296h-122v-296h-147zM666 753h238q57 0 88.5 36t31.5 85q0 45 -31 84.5t-73 39.5h-254v-245z" />
    <glyph glyph-name="overscore" unicode="&#xaf;" horiz-adv-x="741" 
d="M66 1306v167h609v-167h-609z" />
    <glyph glyph-name="degree" unicode="&#xb0;" horiz-adv-x="598" 
d="M84 1258q0 89 63 152t152 63t152 -63t63 -152t-63 -152t-152 -63t-152 63t-63 152zM215 1258q0 -35 24.5 -59.5t59.5 -24.5t59.5 24.5t24.5 59.5t-24.5 59.5t-59.5 24.5t-59.5 -24.5t-24.5 -59.5z" />
    <glyph glyph-name="plusminus" unicode="&#xb1;" horiz-adv-x="884" 
d="M98 96v206h687v-206h-687zM98 626v212h241v234h206v-234h240v-212h-240v-235h-206v235h-241z" />
    <glyph glyph-name="acute" unicode="&#xb4;" horiz-adv-x="559" 
d="M68 1193l177 281h291l-259 -281h-209z" />
    <glyph glyph-name="paragraph" unicode="&#xb6;" horiz-adv-x="1267" 
d="M92 1015q0 124 61.5 229.5t167 167t229.5 61.5h594v-1684h-236v1437h-116v-1437h-235v768h-19q-185 5 -315.5 138t-130.5 320z" />
    <glyph glyph-name="periodcentered" unicode="&#xb7;" horiz-adv-x="825" 
d="M90 721q0 123 94.5 210t228.5 87q133 0 227.5 -87t94.5 -210t-94.5 -210.5t-227.5 -87.5t-228 87.5t-95 210.5z" />
    <glyph glyph-name="cedilla" unicode="&#xb8;" horiz-adv-x="628" 
d="M123 -249l22 -15q57 -38 129 -38q28 0 48.5 16t20.5 39q0 24 -18.5 41.5t-50.5 17.5h-111v99l55 89h159l-39 -63q73 -18 119.5 -69t46.5 -115q0 -80 -67.5 -136.5t-162.5 -56.5q-80 0 -145 43l-6 4v144z" />
    <glyph glyph-name="guillemotright" unicode="&#xbb;" horiz-adv-x="1292" 
d="M78 120l348 406l-344 413h274l345 -413l-344 -406h-279zM587 120l349 406l-344 413h274l344 -413l-344 -406h-279z" />
    <glyph glyph-name="questiondown" unicode="&#xbf;" horiz-adv-x="1107" 
d="M74 15q0 194 176 324q112 82 151 158.5t39 213.5h266v-10q0 -309 -260 -496q-26 -20 -39 -31t-33.5 -35t-28.5 -55t-6 -69q4 -72 71.5 -122t152.5 -45q103 6 162 82t59 168h268q0 -124 -63 -233t-176.5 -175.5t-249.5 -66.5q-122 0 -234.5 52t-183.5 143.5t-71 196.5z
M401 968q0 53 50.5 90.5t121.5 37.5t121.5 -37.5t50.5 -90.5t-50.5 -90t-121.5 -37t-121.5 37t-50.5 90z" />
    <glyph glyph-name="Agrave" unicode="&#xc0;" horiz-adv-x="1478" 
d="M14 -1l460 1433h517l472 -1433h-277l-131 394h-636l-128 -394h-277zM427 1824h290l178 -281h-210zM493 621h486l-246 739z" />
    <glyph glyph-name="Aacute" unicode="&#xc1;" horiz-adv-x="1478" 
d="M14 -1l460 1433h517l472 -1433h-277l-131 394h-636l-128 -394h-277zM493 621h486l-246 739zM518 1543l177 281h291l-259 -281h-209z" />
    <glyph glyph-name="Acircumflex" unicode="&#xc2;" horiz-adv-x="1478" 
d="M14 -1l460 1433h517l472 -1433h-277l-131 394h-636l-128 -394h-277zM392 1542l158 282h377l158 -282h-220l-127 238l-126 -238h-220zM493 621h486l-246 739z" />
    <glyph glyph-name="Atilde" unicode="&#xc3;" horiz-adv-x="1478" 
d="M14 -1l460 1433h517l472 -1433h-277l-131 394h-636l-128 -394h-277zM375 1544v18q0 52 19.5 96.5t51 73t71 47.5t80 19t78.5 -11q170 -62 183 -67q38 -11 70.5 10t32.5 64v18h131v-18q0 -78 -43 -139t-112.5 -85t-143.5 -1q-73 24 -184 67q-38 11 -70 -10t-32 -64v-18
h-132zM493 621h486l-246 739z" />
    <glyph glyph-name="Adieresis" unicode="&#xc4;" horiz-adv-x="1478" 
d="M14 -1l460 1433h517l472 -1433h-277l-131 394h-636l-128 -394h-277zM380 1696q0 53 44.5 90.5t108.5 37.5t108.5 -37.5t44.5 -90.5t-44.5 -90t-108.5 -37t-108.5 37t-44.5 90zM493 621h486l-246 739zM793 1696q0 53 44.5 90.5t108.5 37.5t108.5 -37.5t44.5 -90.5
t-44.5 -90t-108.5 -37t-108.5 37t-44.5 90z" />
    <glyph glyph-name="Aring" unicode="&#xc5;" horiz-adv-x="1478" 
d="M14 -1l460 1433h517l472 -1433h-277l-131 394h-636l-128 -394h-277zM493 621h486l-246 739zM524 1743q0 89 63 152t152 63t152 -63t63 -152t-63 -152t-152 -63t-152 63t-63 152zM654 1743q0 -35 25 -59.5t60 -24.5t59.5 24.5t24.5 59.5t-24.5 59.5t-59.5 24.5t-60 -24.5
t-25 -59.5z" />
    <glyph glyph-name="AE" unicode="&#xc6;" horiz-adv-x="2107" 
d="M4 -1l663 1434h1365v-227h-787v-378h710v-224h-710v-377h787v-228h-1055v396h-495l-184 -396h-294zM587 620h390v586h-117z" />
    <glyph glyph-name="Ccedilla" unicode="&#xc7;" horiz-adv-x="1378" 
d="M68 716q0 209 78 380.5t223.5 273.5t330.5 102q145 0 260.5 -43.5t188.5 -118t116 -163.5t58 -192h-267q-17 59 -45 108.5t-70 92.5t-104 66.5t-138 21.5q-109 -3 -194.5 -83t-128 -198t-42.5 -247q0 -98 22.5 -190t66 -168.5t115 -123t161.5 -46.5q34 0 74 7
q-56 -89 -150.5 -128t-194.5 -17.5t-170 99.5q-93 103 -141.5 249.5t-48.5 317.5zM555 -250l23 -15q56 -37 128 -37q29 0 49 16t20 38q0 24 -18.5 41.5t-50.5 17.5h-111v99l33 54l145 231q188 36 277 282h266q-24 -121 -78 -216t-127 -155t-153.5 -95t-169.5 -46l-17 -29
q73 -18 119.5 -69t46.5 -115q0 -79 -68 -135.5t-163 -56.5q-80 0 -144 42l-7 4v144z" />
    <glyph glyph-name="Egrave" unicode="&#xc8;" horiz-adv-x="1253" 
d="M123 -1v1433h1055v-227h-787v-377h710v-225h-710v-377h787v-227h-1055zM339 1824h291l177 -281h-209z" />
    <glyph glyph-name="Eacute" unicode="&#xc9;" horiz-adv-x="1253" 
d="M123 -1v1433h1055v-227h-787v-377h710v-225h-710v-377h787v-227h-1055zM440 1543l177 281h291l-259 -281h-209z" />
    <glyph glyph-name="Ecircumflex" unicode="&#xca;" horiz-adv-x="1253" 
d="M123 -1v1433h1055v-227h-787v-377h710v-225h-710v-377h787v-227h-1055zM304 1542l157 282h377l159 -282h-221l-126 238l-127 -238h-219z" />
    <glyph glyph-name="Edieresis" unicode="&#xcb;" horiz-adv-x="1253" 
d="M123 -1v1433h1055v-227h-787v-377h710v-225h-710v-377h787v-227h-1055zM291 1696q0 53 44.5 90.5t108.5 37.5t108.5 -37.5t44.5 -90.5t-44.5 -90t-108.5 -37t-108.5 37t-44.5 90zM704 1696q0 53 44.5 90.5t108.5 37.5t108.5 -37.5t44.5 -90.5t-44.5 -90t-108.5 -37
t-108.5 37t-44.5 90z" />
    <glyph glyph-name="Igrave" unicode="&#xcc;" horiz-adv-x="514" 
d="M-53 1824h290l178 -281h-210zM123 -1v1433h267v-1433h-267z" />
    <glyph glyph-name="Iacute" unicode="&#xcd;" horiz-adv-x="514" 
d="M31 1543l177 281h291l-259 -281h-209zM123 -1v1433h267v-1433h-267z" />
    <glyph glyph-name="Icircumflex" unicode="&#xce;" horiz-adv-x="514" 
d="M-90 1542l157 282h378l158 -282h-221l-126 238l-127 -238h-219zM123 -1v1433h267v-1433h-267z" />
    <glyph glyph-name="Idieresis" unicode="&#xcf;" horiz-adv-x="516" 
d="M-102 1696q0 53 44.5 90.5t108.5 37.5t108.5 -37.5t44.5 -90.5t-44.5 -90t-108.5 -37t-108.5 37t-44.5 90zM124 -1v1433h267v-1433h-267zM311 1696q0 53 44.5 90.5t108.5 37.5t108.5 -37.5t44.5 -90.5t-44.5 -90t-108.5 -37t-108.5 37t-44.5 90z" />
    <glyph glyph-name="Eth" unicode="&#xd0;" horiz-adv-x="1441" 
d="M70 596v228h89v610h622q112 0 214 -47t182 -132q95 -100 148.5 -240t53.5 -298t-53.5 -298t-148.5 -240q-80 -85 -182 -132t-214 -47h-622v596h-89zM424 227h300q182 4 285.5 136.5t103.5 353.5q0 224 -106.5 357t-291.5 133h-291v-383h291v-228h-291v-369z" />
    <glyph glyph-name="Ntilde" unicode="&#xd1;" horiz-adv-x="1406" 
d="M123 0v1433h356l536 -1104v1104h267v-1433h-345l-546 1104v-1104h-268zM372 1545v18q0 52 19.5 96.5t51 73t71 47.5t80 19t78.5 -11q170 -62 183 -67q38 -11 70.5 10t32.5 63v18h131v-18q0 -78 -43 -138.5t-112.5 -84.5t-143.5 -1q-73 25 -184 67q-38 11 -70 -10t-32 -64
v-18h-132z" />
    <glyph glyph-name="Ograve" unicode="&#xd2;" horiz-adv-x="1525" 
d="M63 718q0 209 85 380.5t244.5 273.5t363.5 102q153 0 286 -59.5t224.5 -161.5t143.5 -241t52 -294t-52 -294t-143.5 -241t-224.5 -161.5t-286 -59.5q-204 0 -363.5 102t-244.5 273.5t-85 380.5zM331 718q0 -144 47 -262.5t145.5 -194t233.5 -75.5t236.5 75.5t151.5 194.5
t50 262t-50 262t-151.5 194t-236.5 75q-102 0 -184.5 -43.5t-134.5 -117.5t-79.5 -169t-27.5 -201zM463 1870h290l178 -282h-210z" />
    <glyph glyph-name="Oacute" unicode="&#xd3;" horiz-adv-x="1525" 
d="M63 718q0 209 85 380.5t244.5 273.5t363.5 102q153 0 286 -59.5t224.5 -161.5t143.5 -241t52 -294t-52 -294t-143.5 -241t-224.5 -161.5t-286 -59.5q-204 0 -363.5 102t-244.5 273.5t-85 380.5zM331 718q0 -144 47 -262.5t145.5 -194t233.5 -75.5t236.5 75.5t151.5 194.5
t50 262t-50 262t-151.5 194t-236.5 75q-102 0 -184.5 -43.5t-134.5 -117.5t-79.5 -169t-27.5 -201zM544 1588l177 282h291l-259 -282h-209z" />
    <glyph glyph-name="Ocircumflex" unicode="&#xd4;" horiz-adv-x="1525" 
d="M63 718q0 209 85 380.5t244.5 273.5t363.5 102q153 0 286 -59.5t224.5 -161.5t143.5 -241t52 -294t-52 -294t-143.5 -241t-224.5 -161.5t-286 -59.5q-204 0 -363.5 102t-244.5 273.5t-85 380.5zM331 718q0 -144 47 -262.5t145.5 -194t233.5 -75.5t236.5 75.5t151.5 194.5
t50 262t-50 262t-151.5 194t-236.5 75q-102 0 -184.5 -43.5t-134.5 -117.5t-79.5 -169t-27.5 -201zM416 1589l158 281h377l158 -281h-220l-127 237l-126 -237h-220z" />
    <glyph glyph-name="Otilde" unicode="&#xd5;" horiz-adv-x="1525" 
d="M63 717q0 209 85 380.5t244.5 273.5t363.5 102q153 0 286 -59.5t224.5 -161.5t143.5 -241t52 -294t-52 -294t-143.5 -241t-224.5 -161.5t-286 -59.5q-204 0 -363.5 102t-244.5 273.5t-85 380.5zM331 717q0 -106 27.5 -201t79.5 -169t134.5 -117.5t184.5 -43.5
q135 0 236.5 75t151.5 194t50 262t-50 262t-151.5 194.5t-236.5 75.5t-233.5 -75.5t-145.5 -194t-47 -262.5zM401 1548v18q0 52 19.5 96.5t51 73t71 47.5t80 19t78.5 -11q170 -62 183 -67q38 -11 70.5 10t32.5 64v18h131v-18q0 -78 -43 -139t-112.5 -85t-143.5 -1
q-74 25 -184 67q-38 11 -70 -10t-32 -64v-18h-132z" />
    <glyph glyph-name="Odieresis" unicode="&#xd6;" horiz-adv-x="1525" 
d="M63 718q0 209 85 380.5t244.5 273.5t363.5 102q153 0 286 -59.5t224.5 -161.5t143.5 -241t52 -294t-52 -294t-143.5 -241t-224.5 -161.5t-286 -59.5q-204 0 -363.5 102t-244.5 273.5t-85 380.5zM331 718q0 -144 47 -262.5t145.5 -194t233.5 -75.5t236.5 75.5t151.5 194.5
t50 262t-50 262t-151.5 194t-236.5 75q-102 0 -184.5 -43.5t-134.5 -117.5t-79.5 -169t-27.5 -201zM403 1742q0 53 44.5 90.5t108.5 37.5t108.5 -37.5t44.5 -90.5t-44.5 -90t-108.5 -37t-108.5 37t-44.5 90zM816 1742q0 53 44.5 90.5t108.5 37.5t108.5 -37.5t44.5 -90.5
t-44.5 -90t-108.5 -37t-108.5 37t-44.5 90z" />
    <glyph glyph-name="multiply" unicode="&#xd7;" horiz-adv-x="1038" 
d="M90 212l281 280l-281 281l149 148l280 -280l281 280l148 -148l-281 -281l281 -280l-148 -149l-281 281l-280 -281z" />
    <glyph glyph-name="Oslash" unicode="&#xd8;" horiz-adv-x="1531" 
d="M68 717q0 156 50 294.5t139 240.5t219.5 161.5t283.5 59.5q188 0 342 -87l69 99l149 -102l-74 -106q105 -104 162.5 -249.5t57.5 -310.5q0 -155 -52 -294t-143.5 -241t-224.5 -161.5t-286 -59.5q-198 0 -357 99l-77 -111l-148 102l86 125q-94 103 -145 243t-51 298z
M335 717q0 -187 78 -325l556 801q-94 56 -208 56q-135 0 -233.5 -75.5t-145.5 -194t-47 -262.5zM537 253q95 -67 224 -67q135 0 236.5 75t151.5 194t50 262q0 205 -98 350z" />
    <glyph glyph-name="Ugrave" unicode="&#xd9;" 
d="M104 528v907h268v-907q0 -145 82 -233t217 -88t217 88t82 233v907h268v-907q0 -118 -46 -224t-123 -180.5t-181 -118t-217 -43.5t-217 43.5t-181 118t-123 180.5t-46 224zM367 1826h290l178 -281h-210z" />
    <glyph glyph-name="Uacute" unicode="&#xda;" 
d="M104 528v907h268v-907q0 -145 82 -233t217 -88t217 88t82 233v907h268v-907q0 -118 -46 -224t-123 -180.5t-181 -118t-217 -43.5t-217 43.5t-181 118t-123 180.5t-46 224zM458 1545l177 281h291l-259 -281h-209z" />
    <glyph glyph-name="Ucircumflex" unicode="&#xdb;" 
d="M104 528v907h268v-907q0 -145 82 -233t217 -88t217 88t82 233v907h268v-907q0 -118 -46 -224t-123 -180.5t-181 -118t-217 -43.5t-217 43.5t-181 118t-123 180.5t-46 224zM324 1544l158 282h377l159 -282h-221l-126 238l-127 -238h-220z" />
    <glyph glyph-name="Udieresis" unicode="&#xdc;" 
d="M104 528v907h268v-907q0 -145 82 -233t217 -88t217 88t82 233v907h268v-907q0 -118 -46 -224t-123 -180.5t-181 -118t-217 -43.5t-217 43.5t-181 118t-123 180.5t-46 224zM311 1698q0 53 44.5 90.5t108.5 37.5t109 -37.5t45 -90.5t-45 -90t-109 -37t-108.5 37t-44.5 90z
M724 1698q0 53 45 90.5t109 37.5t108.5 -37.5t44.5 -90.5t-44.5 -90t-108.5 -37t-109 37t-45 90z" />
    <glyph glyph-name="Yacute" unicode="&#xdd;" horiz-adv-x="1271" 
d="M-4 1432h306l333 -623l333 623h306l-504 -893v-540h-269v540zM416 1544l177 281h291l-259 -281h-209z" />
    <glyph glyph-name="Thorn" unicode="&#xde;" horiz-adv-x="1226" 
d="M123 0v1736h268v-302h303q212 0 351.5 -121.5t139.5 -318.5q0 -206 -129 -331t-362 -125h-82q-56 0 -98.5 -15.5t-64.5 -36t-36 -47.5t-17.5 -43.5t-4.5 -30.5q0 17 1.5 38t7 62t14 77.5t25.5 78.5t39 72t57 50t77 20h82q93 0 158.5 64t65.5 157q0 99 -59 162t-165 63
h-303v-845v-1l-1 -4v-56v-303h-267z" />
    <glyph glyph-name="germandbls" unicode="&#xdf;" horiz-adv-x="1163" 
d="M113 1008q0 89 41.5 169.5t108 136t150.5 88t168 32.5q124 0 229 -50.5t165 -143.5t52 -208q-7 -92 -63.5 -164t-135.5 -102q128 -39 198.5 -133.5t70.5 -227.5h1q0 -210 -139 -327t-377 -117q-35 0 -75 5v228q37 -8 75 -8q66 0 116.5 20t78.5 53t41.5 70t13.5 76
q0 113 -58 172t-166 59h-101v224h75q80 0 130.5 51t50.5 121q0 77 -51.5 127t-129.5 50h-1q-87 0 -145 -57t-58 -144l1 -1007h-265z" />
    <glyph glyph-name="agrave" unicode="&#xe0;" horiz-adv-x="1087" 
d="M63 325q0 157 114 253t282 96h160q48 0 78.5 24.5t28.5 59.5q-4 59 -50 89.5t-128 30.5q-52 0 -97.5 -28t-63.5 -68h-255q22 104 89 174t149 98t178 28q74 0 148 -18t139 -53t106 -94t41 -133v-783h-256v757q0 -153 -43 -211.5t-124 -58.5h-58q-29 0 -55.5 -5.5
t-55 -18.5t-48 -40t-23.5 -66q-8 -69 43.5 -119t138.5 -50q86 0 155.5 51.5t69.5 118.5q0 -183 -70 -281t-199 -102q-93 -3 -170 27t-124.5 81t-73.5 113.5t-26 127.5zM251 1474h291l177 -282h-209z" />
    <glyph glyph-name="aacute" unicode="&#xe1;" horiz-adv-x="1087" 
d="M63 325q0 157 114 253t282 96h160q48 0 78.5 24.5t28.5 59.5q-4 59 -50 89.5t-128 30.5q-52 0 -97.5 -28t-63.5 -68h-255q22 104 89 174t149 98t178 28q74 0 148 -18t139 -53t106 -94t41 -133v-783h-256v757q0 -153 -43 -211.5t-124 -58.5h-58q-29 0 -55.5 -5.5
t-55 -18.5t-48 -40t-23.5 -66q-8 -69 43.5 -119t138.5 -50q86 0 155.5 51.5t69.5 118.5q0 -183 -70 -281t-199 -102q-93 -3 -170 27t-124.5 81t-73.5 113.5t-26 127.5zM389 1192l177 282h291l-259 -282h-209z" />
    <glyph glyph-name="acircumflex" unicode="&#xe2;" horiz-adv-x="1087" 
d="M63 325q0 157 114 253t282 96h160q48 0 78.5 24.5t28.5 59.5q-4 59 -50 89.5t-128 30.5q-52 0 -97.5 -28t-63.5 -68h-255q22 104 89 174t149 98t178 28q74 0 148 -18t139 -53t106 -94t41 -133v-783h-256v757q0 -153 -43 -211.5t-124 -58.5h-58q-29 0 -55.5 -5.5
t-55 -18.5t-48 -40t-23.5 -66q-8 -69 43.5 -119t138.5 -50q86 0 155.5 51.5t69.5 118.5q0 -183 -70 -281t-199 -102q-93 -3 -170 27t-124.5 81t-73.5 113.5t-26 127.5zM227 1192l157 282h378l158 -282h-220l-127 238l-126 -238h-220z" />
    <glyph glyph-name="atilde" unicode="&#xe3;" horiz-adv-x="1087" 
d="M63 325q0 157 114 253t282 96h160q48 0 78.5 24.5t28.5 59.5q-4 59 -50 90t-128 31q-52 0 -97.5 -28t-63.5 -69h-255q17 79 59 139t100 94.5t122.5 51t134.5 16.5q74 0 148 -18.5t139 -53.5t106 -94t41 -133v-783h-256v757q0 -153 -43 -211.5t-124 -58.5h-58
q-29 0 -55.5 -5t-55 -18t-48 -40t-23.5 -66q-8 -69 43.5 -119.5t138.5 -50.5q86 0 155.5 52t69.5 119q0 -183 -70 -281.5t-199 -102.5q-93 -3 -170 27t-124.5 81t-73.5 113.5t-26 127.5zM186 1184v18q0 52 19.5 96.5t50.5 72.5t71 47t80 19t78 -11q171 -61 184 -66
q38 -11 70 9.5t32 63.5v18h132v-18q0 -78 -43 -138.5t-113 -84.5t-144 -1q-66 22 -183 67q-38 11 -70.5 -10t-32.5 -64v-18h-131z" />
    <glyph glyph-name="adieresis" unicode="&#xe4;" horiz-adv-x="1087" 
d="M63 325q0 157 114 253t282 96h160q48 0 78.5 24.5t28.5 59.5q-4 59 -50 89.5t-128 30.5q-52 0 -97.5 -28t-63.5 -68h-255q22 104 89 174t149 98t178 28q74 0 148 -18t139 -53t106 -94t41 -133v-783h-256v757q0 -153 -43 -211.5t-124 -58.5h-58q-29 0 -55.5 -5.5
t-55 -18.5t-48 -40t-23.5 -66q-8 -69 43.5 -119t138.5 -50q86 0 155.5 51.5t69.5 118.5q0 -183 -70 -281t-199 -102q-93 -3 -170 27t-124.5 81t-73.5 113.5t-26 127.5zM198 1317q0 53 45 90.5t109 37.5t108.5 -37.5t44.5 -90.5t-44.5 -90t-108.5 -37t-109 37t-45 90z
M612 1317q0 53 44.5 90.5t108.5 37.5t108.5 -37.5t44.5 -90.5t-44.5 -90t-108.5 -37t-108.5 37t-44.5 90z" />
    <glyph glyph-name="aring" unicode="&#xe5;" horiz-adv-x="1087" 
d="M63 325q0 157 114 253t282 96h160q48 0 78.5 24.5t28.5 59.5q-4 59 -50 90t-128 31q-52 0 -97.5 -28t-63.5 -69h-255q17 79 59 139t100 94.5t122.5 51t134.5 16.5q74 0 148 -18.5t139 -53.5t106 -94t41 -133v-783h-256v757q0 -153 -43 -211.5t-124 -58.5h-58
q-29 0 -55.5 -5t-55 -18t-48 -40t-23.5 -66q-8 -69 43.5 -119.5t138.5 -50.5q86 0 155.5 52t69.5 119q0 -183 -70 -281.5t-199 -102.5q-93 -3 -170 27t-124.5 81t-73.5 113.5t-26 127.5zM328 1395q0 89 63 152t152 63t152 -63t63 -152t-63 -152t-152 -63t-152 63t-63 152z
M459 1395q0 -35 24.5 -59.5t59.5 -24.5t59.5 24.5t24.5 59.5t-24.5 59.5t-59.5 24.5t-59.5 -24.5t-24.5 -59.5z" />
    <glyph glyph-name="ae" unicode="&#xe6;" horiz-adv-x="1839" 
d="M63 326q0 157 114 253t282 96h160q48 0 78.5 24.5t28.5 59.5q-4 59 -50 89.5t-128 30.5q-52 0 -97.5 -28t-63.5 -68h-255q22 104 89 174t149 98t178 28q100 0 198.5 -32t160.5 -93q146 126 343 126q103 0 197 -38t167 -107t116.5 -175t43.5 -234q0 -36 -3 -71h-783
q18 -123 92 -189.5t170 -68.5q62 1 117.5 30t92.5 84h279q-57 -159 -190.5 -249t-298.5 -90q-88 0 -164.5 24t-128.5 63t-81.5 68.5t-50.5 60.5q-15 -20 -29 -37.5t-51 -52t-75 -59t-95.5 -45t-117.5 -22.5q-93 -3 -170 27t-124.5 81.5t-73.5 114t-26 127.5zM319 359
q-8 -69 43.5 -119.5t138.5 -50.5q86 0 155.5 52t69.5 119v150q-57 -22 -116 -22h-109q-29 0 -55.5 -5t-55 -18t-48 -40t-23.5 -66zM996 652h509q-38 100 -105 152.5t-150 54.5q-83 -2 -149.5 -54.5t-104.5 -152.5z" />
    <glyph glyph-name="ccedilla" unicode="&#xe7;" horiz-adv-x="1142" 
d="M66 496q-5 125 35 235.5t110.5 187t166 120.5t199.5 44q192 0 332 -112.5t173 -306.5h-274q-25 86 -86.5 140.5t-142.5 54.5q-104 0 -175 -97t-71 -233q0 -90 27.5 -163.5t84.5 -119.5t135 -46q16 0 24 1q-49 -78 -133.5 -108.5t-169.5 -4t-138 102.5q-90 129 -97 305z
M383 -248l22 -15q55 -37 129 -37q29 0 49 16t20 38q0 24 -18.5 41.5t-50.5 17.5h-111v99l47 75l134 214q71 8 122.5 59t68.5 118h283q-35 -167 -158 -277.5t-298 -123.5l-23 -38q73 -18 119.5 -69.5t46.5 -115.5q0 -79 -68 -135.5t-163 -56.5q-80 0 -144 42l-7 4v144z" />
    <glyph glyph-name="egrave" unicode="&#xe8;" horiz-adv-x="1177" 
d="M66 529q0 128 43.5 234.5t116.5 175.5t166.5 106.5t196.5 37.5t197 -38t167 -107t116.5 -175t43.5 -234q0 -37 -3 -72h-783q18 -123 92 -189t170 -68q62 1 118 30t93 84h278q-57 -159 -190 -248t-299 -91q-105 1 -199 38.5t-166.5 106.5t-115 175t-42.5 234zM280 1474
h291l177 -282h-209zM335 651h509q-38 100 -105 152.5t-150 54.5q-83 -2 -149.5 -54.5t-104.5 -152.5z" />
    <glyph glyph-name="eacute" unicode="&#xe9;" horiz-adv-x="1177" 
d="M66 529q0 128 43.5 234.5t116.5 175.5t166.5 106.5t196.5 37.5t197 -38t167 -107t116.5 -175t43.5 -234q0 -37 -3 -72h-783q18 -123 92 -189t170 -68q62 1 118 30t93 84h278q-57 -159 -190 -248t-299 -91q-105 1 -199 38.5t-166.5 106.5t-115 175t-42.5 234zM335 651h509
q-38 100 -105 152.5t-150 54.5q-83 -2 -149.5 -54.5t-104.5 -152.5zM380 1192l177 282h291l-259 -282h-209z" />
    <glyph glyph-name="ecircumflex" unicode="&#xea;" horiz-adv-x="1177" 
d="M66 529q0 128 43.5 234.5t116.5 175.5t166.5 106.5t196.5 37.5t197 -38t167 -107t116.5 -175t43.5 -234q0 -37 -3 -72h-783q18 -123 92 -189t170 -68q62 1 118 30t93 84h278q-57 -159 -190 -248t-299 -91q-105 1 -199 38.5t-166.5 106.5t-115 175t-42.5 234zM252 1192
l157 282h377l159 -282h-221l-126 238l-127 -238h-219zM335 651h509q-38 100 -105 152.5t-150 54.5q-83 -2 -149.5 -54.5t-104.5 -152.5z" />
    <glyph glyph-name="edieresis" unicode="&#xeb;" horiz-adv-x="1177" 
d="M66 529q0 128 43.5 234.5t116.5 175.5t166.5 106.5t196.5 37.5t197 -38t167 -107t116.5 -175t43.5 -234q0 -37 -3 -72h-783q18 -123 92 -189t170 -68q62 1 118 30t93 84h278q-57 -159 -190 -248t-299 -91q-105 1 -199 38.5t-166.5 106.5t-115 175t-42.5 234zM243 1317
q0 53 45 90.5t109 37.5t108.5 -37.5t44.5 -90.5t-44.5 -90t-108.5 -37t-109 37t-45 90zM335 651h509q-38 100 -105 152.5t-150 54.5q-83 -2 -149.5 -54.5t-104.5 -152.5zM656 1317q0 53 45 90.5t109 37.5t108.5 -37.5t44.5 -90.5t-44.5 -90t-108.5 -37t-109 37t-45 90z" />
    <glyph glyph-name="igrave" unicode="&#xec;" horiz-adv-x="479" 
d="M-63 1474h290l178 -282h-210zM112 1v1056h255v-1056h-255z" />
    <glyph glyph-name="iacute" unicode="&#xed;" horiz-adv-x="479" 
d="M80 1192l177 282h291l-259 -282h-209zM111 1v1056h256v-1056h-256z" />
    <glyph glyph-name="icircumflex" unicode="&#xee;" horiz-adv-x="481" 
d="M-106 1192l157 282h377l159 -282h-221l-126 238l-127 -238h-219zM113 1v1056h255v-1056h-255z" />
    <glyph glyph-name="idieresis" unicode="&#xef;" horiz-adv-x="479" 
d="M-121 1317q0 53 44.5 90.5t108.5 37.5t109 -37.5t45 -90.5t-45 -90t-109 -37t-108.5 37t-44.5 90zM111 1v1056h255v-1056h-255zM292 1317q0 53 45 90.5t109 37.5t108.5 -37.5t44.5 -90.5t-44.5 -90t-108.5 -37t-109 37t-45 90z" />
    <glyph glyph-name="eth" unicode="&#xf0;" horiz-adv-x="1187" 
d="M66 529q0 128 43.5 234.5t116.5 175.5t166.5 106.5t196.5 37.5q51 0 100 -9q-84 128 -207 242l-172 -119l-77 111l142 99q-79 60 -158 108l160 112q86 -49 163 -105l160 111l78 -111l-126 -87q97 -82 176 -175.5t144 -204.5t102 -241.5t39 -267.5v-17q0 -128 -42.5 -234
t-115 -174.5t-167 -106.5t-199.5 -39q-105 1 -199 38.5t-166.5 106.5t-115 175t-42.5 234zM322 529q0 -157 78 -242t189 -87q111 2 189.5 87t78.5 242v10q-3 145 -81.5 231t-186.5 88q-110 -2 -188.5 -91t-78.5 -238z" />
    <glyph glyph-name="ntilde" unicode="&#xf1;" horiz-adv-x="1146" 
d="M113 0v1057h255v-1057h-255zM289 1183v18q0 65 29.5 117.5t74 79t97 37t98.5 -8.5q171 -62 184 -67q38 -11 70 10t32 64v18h132v-18q0 -78 -43 -139t-113 -85t-144 -1q-66 22 -183 67q-38 11 -70.5 -10t-32.5 -64v-18h-131zM368 681q0 171 58.5 277t177.5 121
q55 7 115.5 -4t118 -41.5t104 -75.5t75 -111t28.5 -143v-704h-255v681q0 71 -58 123.5t-153 52.5q-89 0 -150 -53t-61 -123z" />
    <glyph glyph-name="ograve" unicode="&#xf2;" horiz-adv-x="1179" 
d="M66 529q0 128 43.5 234.5t116.5 175.5t166.5 106.5t196.5 37.5t197 -38t167 -107t116.5 -175t43.5 -234t-42.5 -234t-115 -174.5t-167 -106.5t-199.5 -39q-105 1 -199 38.5t-166.5 106.5t-115 175t-42.5 234zM280 1474h291l177 -282h-209zM322 529q0 -157 78 -242
t189 -87q111 2 189.5 87t78.5 242q0 149 -79 238t-189 91q-110 -2 -188.5 -91t-78.5 -238z" />
    <glyph glyph-name="oacute" unicode="&#xf3;" horiz-adv-x="1179" 
d="M66 529q0 128 43.5 234.5t116.5 175.5t166.5 106.5t196.5 37.5t197 -38t167 -107t116.5 -175t43.5 -234t-42.5 -234t-115 -174.5t-167 -106.5t-199.5 -39q-105 1 -199 38.5t-166.5 106.5t-115 175t-42.5 234zM322 529q0 -157 78 -242t189 -87q111 2 189.5 87t78.5 242
q0 149 -79 238t-189 91q-110 -2 -188.5 -91t-78.5 -238zM380 1192l177 282h291l-259 -282h-209z" />
    <glyph glyph-name="ocircumflex" unicode="&#xf4;" horiz-adv-x="1179" 
d="M66 529q0 128 43.5 234.5t116.5 175.5t166.5 106.5t196.5 37.5t197 -38t167 -107t116.5 -175t43.5 -234t-42.5 -234t-115 -174.5t-167 -106.5t-199.5 -39q-105 1 -199 38.5t-166.5 106.5t-115 175t-42.5 234zM252 1192l157 282h377l159 -282h-221l-126 238l-127 -238
h-219zM322 529q0 -157 78 -242t189 -87q111 2 189.5 87t78.5 242q0 149 -79 238t-189 91q-110 -2 -188.5 -91t-78.5 -238z" />
    <glyph glyph-name="otilde" unicode="&#xf5;" horiz-adv-x="1179" 
d="M66 529q0 128 43.5 234.5t116.5 175.5t166.5 106.5t196.5 37.5t197 -38t167 -107t116.5 -175t43.5 -234t-42.5 -234t-115 -174.5t-167 -106.5t-199.5 -39q-105 1 -199 38.5t-166.5 106.5t-115 175t-42.5 234zM205 1186v18q0 52 19.5 96.5t51 72.5t71 47t80 19t78.5 -11
q170 -61 183 -66q38 -11 70.5 10t32.5 63v18h131v-18q0 -78 -43 -138.5t-112.5 -84.5t-143.5 -1q-93 31 -184 66q-38 11 -70 -9.5t-32 -63.5v-18h-132zM322 529q0 -157 78 -242t189 -87q111 2 189.5 87t78.5 242q0 149 -79 238t-189 91q-110 -2 -188.5 -91t-78.5 -238z" />
    <glyph glyph-name="odieresis" unicode="&#xf6;" horiz-adv-x="1179" 
d="M66 529q0 128 43.5 234.5t116.5 175.5t166.5 106.5t196.5 37.5t197 -38t167 -107t116.5 -175t43.5 -234t-42.5 -234t-115 -174.5t-167 -106.5t-199.5 -39q-105 1 -199 38.5t-166.5 106.5t-115 175t-42.5 234zM243 1317q0 53 45 90.5t109 37.5t108.5 -37.5t44.5 -90.5
t-44.5 -90t-108.5 -37t-109 37t-45 90zM322 529q0 -157 78 -242t189 -87q111 2 189.5 87t78.5 242q0 149 -79 238t-189 91q-110 -2 -188.5 -91t-78.5 -238zM656 1317q0 53 45 90.5t109 37.5t108.5 -37.5t44.5 -90.5t-44.5 -90t-108.5 -37t-109 37t-45 90z" />
    <glyph glyph-name="divide" unicode="&#xf7;" horiz-adv-x="1019" 
d="M74 408v213h871v-213h-871zM360 149q0 61 44 105t105 44q62 0 106 -44t44 -105t-44 -105t-106 -44q-61 0 -105 44t-44 105zM360 868q0 62 44 105.5t105 43.5q62 0 106 -44t44 -105t-44 -105t-106 -44q-61 0 -105 43.5t-44 105.5z" />
    <glyph glyph-name="oslash" unicode="&#xf8;" horiz-adv-x="1191" 
d="M72 529q0 128 43.5 234.5t116.5 175.5t167 106.5t197 37.5q123 0 234 -54l91 130l148 -102l-94 -135q144 -154 144 -393q0 -170 -73.5 -297.5t-191 -191.5t-258.5 -65q-129 2 -238 56l-86 -124l-148 103l89 128q-141 151 -141 391zM328 529q0 -99 35 -174l333 480
q-46 21 -100 23q-110 -2 -189 -91t-79 -238zM491 223q51 -23 105 -23q111 2 189 87t78 242q0 100 -38 176z" />
    <glyph glyph-name="ugrave" unicode="&#xf9;" horiz-adv-x="1134" 
d="M100 353v704h255v-704q0 -68 57 -110.5t155 -42.5q96 0 147 58t51 146q0 -66 -5 -119.5t-20 -109.5t-39.5 -95t-66 -67t-97.5 -34q-84 -10 -157 8t-123.5 55.5t-86.5 89t-53 108t-17 113.5zM258 1474h291l177 -282h-209zM765 1v1056h255v-1056h-255z" />
    <glyph glyph-name="uacute" unicode="&#xfa;" horiz-adv-x="1134" 
d="M100 353v704h255v-704q0 -68 57 -110.5t155 -42.5q96 0 147 58t51 146q0 -66 -5 -119.5t-20 -109.5t-39.5 -95t-66 -67t-97.5 -34q-84 -10 -157 8t-123.5 55.5t-86.5 89t-53 108t-17 113.5zM339 1192l178 282h290l-258 -282h-210zM765 1v1056h255v-1056h-255z" />
    <glyph glyph-name="ucircumflex" unicode="&#xfb;" horiz-adv-x="1134" 
d="M100 353v704h255v-704q0 -68 57 -110.5t155 -42.5q96 0 147 58t51 146q0 -66 -5 -119.5t-20 -109.5t-39.5 -95t-66 -67t-97.5 -34q-84 -10 -157 8t-123.5 55.5t-86.5 89t-53 108t-17 113.5zM214 1192l157 282h378l158 -282h-221l-126 238l-127 -238h-219zM765 1v1056h255
v-1056h-255z" />
    <glyph glyph-name="udieresis" unicode="&#xfc;" horiz-adv-x="1134" 
d="M100 353v704h255v-704q0 -68 57 -110.5t155 -42.5q96 0 147 58t51 146q0 -66 -5 -119.5t-20 -109.5t-39.5 -95t-66 -67t-97.5 -34q-84 -10 -157 8t-123.5 55.5t-86.5 89t-53 108t-17 113.5zM201 1317q0 53 44.5 90.5t108.5 37.5t108.5 -37.5t44.5 -90.5t-44.5 -90
t-108.5 -37t-108.5 37t-44.5 90zM614 1317q0 53 44.5 90.5t108.5 37.5t108.5 -37.5t44.5 -90.5t-44.5 -90t-108.5 -37t-108.5 37t-44.5 90zM765 1v1056h255v-1056h-255z" />
    <glyph glyph-name="yacute" unicode="&#xfd;" horiz-adv-x="1107" 
d="M18 1058h280l256 -719l256 719h279l-487 -1256q-36 -92 -93.5 -135t-173.5 -43h-126v237h106q31 1 49.5 12.5t32.5 43.5l31 85zM323 1201l177 282h291l-259 -282h-209z" />
    <glyph glyph-name="thorn" unicode="&#xfe;" horiz-adv-x="1191" 
d="M113 -376v1812h255v-537q32 71 104 125.5t164 57.5q97 3 186 -34.5t155 -107t105.5 -173.5t39.5 -225q0 -163 -67.5 -296t-180 -199t-238.5 -44q-48 8 -91.5 38.5t-85 89.5t-66.5 165t-25 246q0 -143 68.5 -234t182.5 -91q108 0 178 97t70 228t-70 227.5t-178 96.5
q-114 0 -182.5 -90.5t-68.5 -233.5v-918h-255z" />
    <glyph glyph-name="ydieresis" unicode="&#xff;" horiz-adv-x="1107" 
d="M18 1058h280l256 -719l256 719h279l-487 -1256q-36 -92 -93.5 -135t-173.5 -43h-126v237h106q31 1 49.5 12.5t32.5 43.5l31 85zM230 1324q0 53 45 90.5t109 37.5t108.5 -37.5t44.5 -90.5t-44.5 -90t-108.5 -37t-109 37t-45 90zM643 1324q0 53 45 90.5t109 37.5
t108.5 -37.5t44.5 -90.5t-44.5 -90t-108.5 -37t-109 37t-45 90z" />
    <glyph glyph-name="Amacron" unicode="&#x100;" horiz-adv-x="1478" 
d="M14 -1l460 1433h517l472 -1433h-277l-131 394h-636l-128 -394h-277zM430 1616v166h609v-166h-609zM493 621h486l-246 739z" />
    <glyph glyph-name="amacron" unicode="&#x101;" horiz-adv-x="1087" 
d="M63 325q0 157 114 253t282 96h160q48 0 78.5 24.5t28.5 59.5q-4 59 -50 90t-128 31q-52 0 -97.5 -28t-63.5 -69h-255q17 79 59 139t100 94.5t122.5 51t134.5 16.5q74 0 148 -18.5t139 -53.5t106 -94t41 -133v-783h-256v757q0 -153 -43 -211.5t-124 -58.5h-58
q-29 0 -55.5 -5t-55 -18t-48 -40t-23.5 -66q-8 -69 43.5 -119.5t138.5 -50.5q86 0 155.5 52t69.5 119q0 -183 -70 -281.5t-199 -102.5q-93 -3 -170 27t-124.5 81t-73.5 113.5t-26 127.5zM249 1239v166h609v-166h-609z" />
    <glyph glyph-name="Abreve" unicode="&#x102;" horiz-adv-x="1478" 
d="M14 -1l460 1433h517l472 -1433h-277l-131 394h-636l-128 -394h-277zM410 1824h128q0 -68 53 -114t139 -46t139.5 46t53.5 114h127q0 -78 -26.5 -137t-72 -94t-101 -52t-120.5 -17t-120.5 17t-101 52t-72 94t-26.5 137zM493 621h486l-246 739z" />
    <glyph glyph-name="abreve" unicode="&#x103;" horiz-adv-x="1087" 
d="M63 325q0 157 114 253t282 96h160q48 0 78.5 24.5t28.5 59.5q-4 59 -50 90t-128 31q-52 0 -97.5 -28t-63.5 -69h-255q17 79 59 139t100 94.5t122.5 51t134.5 16.5q74 0 148 -18.5t139 -53.5t106 -94t41 -133v-783h-256v757q0 -153 -43 -211.5t-124 -58.5h-58
q-29 0 -55.5 -5t-55 -18t-48 -40t-23.5 -66q-8 -69 43.5 -119.5t138.5 -50.5q86 0 155.5 52t69.5 119q0 -183 -70 -281.5t-199 -102.5q-93 -3 -170 27t-124.5 81t-73.5 113.5t-26 127.5zM229 1472h128q0 -68 53 -114t139 -46t139.5 46t53.5 114h127q0 -78 -26.5 -137
t-72 -94t-101 -52t-120.5 -17t-120.5 17t-101 52t-72 94t-26.5 137z" />
    <glyph glyph-name="Aogonek" unicode="&#x104;" horiz-adv-x="1478" 
d="M14 -1l460 1433h517l472 -1433q-31 -22 -51.5 -38t-50.5 -44t-47 -59.5t-20 -64.5q-3 -36 14.5 -59.5t45 -31t57 -6t52.5 11.5v-130q-154 -53 -262.5 8.5t-102.5 185.5q2 34 19.5 70t36.5 59t50 49t39.5 32t24.5 16l1 1h-83l-131 394h-636l-128 -394h-277zM493 621h486
l-246 739z" />
    <glyph glyph-name="aogonek" unicode="&#x105;" horiz-adv-x="1087" 
d="M63 325q0 157 114 253t282 96h160q48 0 78.5 24.5t28.5 59.5q-4 59 -50 90t-128 31q-52 0 -97.5 -28t-63.5 -69h-255q17 79 59 139t100 94.5t122.5 51t134.5 16.5q74 0 148 -18.5t139 -53.5t106 -94t41 -133v-783q-32 -22 -52 -38t-50.5 -44t-47.5 -59.5t-20 -64.5
q-3 -36 15 -59.5t45.5 -31t57 -6t52.5 11.5v-131q-153 -53 -262 9t-103 186q1 21 7.5 42t17 39t23 35.5t26.5 32t27.5 27t26 22t22 16t15.5 10.5l5 3h-61v757q0 -153 -43 -211.5t-124 -58.5h-58q-29 0 -55.5 -5t-55 -18t-48 -40t-23.5 -66q-8 -69 43.5 -119.5t138.5 -50.5
q86 0 155.5 52t69.5 119q0 -183 -70 -281.5t-199 -102.5q-93 -3 -170 27t-124.5 81t-73.5 113.5t-26 127.5z" />
    <glyph glyph-name="Cacute" unicode="&#x106;" horiz-adv-x="1378" 
d="M68 718q0 209 78 380.5t223.5 273.5t330.5 102q145 0 260.5 -43.5t188.5 -118t116 -163.5t58 -192h-267q-17 59 -45 108.5t-70 92.5t-104 66.5t-138 21.5q-109 -3 -194.5 -83t-128 -198t-42.5 -247q0 -98 22.5 -190t66 -168.5t115 -123t161.5 -46.5q130 0 214.5 73.5
t136.5 215.5h266q-22 -109 -69 -198t-107.5 -147.5t-134.5 -98t-149.5 -56.5t-153.5 -17q-151 0 -272.5 59t-199.5 162.5t-120 240t-42 294.5zM477 1551l178 281h290l-258 -281h-210z" />
    <glyph glyph-name="cacute" unicode="&#x107;" horiz-adv-x="1142" 
d="M66 496q-5 125 35 235.5t110.5 187t166 120.5t199.5 44q192 0 332 -112.5t173 -306.5h-274q-25 86 -86.5 140.5t-142.5 54.5q-104 0 -175 -97t-71 -233q0 -90 27.5 -163.5t84.5 -119.5t135 -46q80 0 139 52.5t76 125.5h283q-37 -177 -172 -289.5t-324 -112.5
q-211 0 -359 143.5t-157 376.5zM354 1194l177 281h291l-259 -281h-209z" />
    <glyph glyph-name="Ccircumflex" unicode="&#x108;" horiz-adv-x="1378" 
d="M68 718q0 209 78 380.5t223.5 273.5t330.5 102q145 0 260.5 -43.5t188.5 -118t116 -163.5t58 -192h-267q-17 59 -45 108.5t-70 92.5t-104 66.5t-138 21.5q-109 -3 -194.5 -83t-128 -198t-42.5 -247q0 -98 22.5 -190t66 -168.5t115 -123t161.5 -46.5q130 0 214.5 73.5
t136.5 215.5h266q-22 -109 -69 -198t-107.5 -147.5t-134.5 -98t-149.5 -56.5t-153.5 -17q-151 0 -272.5 59t-199.5 162.5t-120 240t-42 294.5zM368 1550l157 282h377l159 -282h-221l-126 238l-127 -238h-219z" />
    <glyph glyph-name="ccircumflex" unicode="&#x109;" horiz-adv-x="1142" 
d="M66 496q-5 125 35 235.5t110.5 187t166 120.5t199.5 44q192 0 332 -112.5t173 -306.5h-274q-25 86 -86.5 140.5t-142.5 54.5q-104 0 -175 -97t-71 -233q0 -90 27.5 -163.5t84.5 -119.5t135 -46q80 0 139 52.5t76 125.5h283q-37 -177 -172 -289.5t-324 -112.5
q-211 0 -359 143.5t-157 376.5zM228 1193l157 282h378l158 -282h-221l-126 238l-127 -238h-219z" />
    <glyph glyph-name="Cdot" unicode="&#x10a;" horiz-adv-x="1378" 
d="M68 718q0 209 78 380.5t223.5 273.5t330.5 102q145 0 260.5 -43.5t188.5 -118t116 -163.5t58 -192h-267q-17 59 -45 108.5t-70 92.5t-104 66.5t-138 21.5q-109 -3 -194.5 -83t-128 -198t-42.5 -247q0 -98 22.5 -190t66 -168.5t115 -123t161.5 -46.5q130 0 214.5 73.5
t136.5 215.5h266q-22 -109 -69 -198t-107.5 -147.5t-134.5 -98t-149.5 -56.5t-153.5 -17q-151 0 -272.5 59t-199.5 162.5t-120 240t-42 294.5zM542 1703q0 53 44.5 90t108.5 37t108.5 -37t44.5 -90t-44.5 -90.5t-108.5 -37.5t-108.5 37.5t-44.5 90.5z" />
    <glyph glyph-name="cdot" unicode="&#x10b;" horiz-adv-x="1142" 
d="M66 496q-5 125 35 235.5t110.5 187t166 120.5t199.5 44q192 0 332 -112.5t173 -306.5h-274q-25 86 -86.5 140.5t-142.5 54.5q-104 0 -175 -97t-71 -233q0 -90 27.5 -163.5t84.5 -119.5t135 -46q80 0 139 52.5t76 125.5h283q-37 -177 -172 -289.5t-324 -112.5
q-211 0 -359 143.5t-157 376.5zM432 1319q0 53 44.5 90t108.5 37t108.5 -37t44.5 -90t-44.5 -90.5t-108.5 -37.5t-108.5 37.5t-44.5 90.5z" />
    <glyph glyph-name="Ccaron" unicode="&#x10c;" horiz-adv-x="1378" 
d="M68 718q0 209 78 380.5t223.5 273.5t330.5 102q145 0 260.5 -43.5t188.5 -118t116 -163.5t58 -192h-267q-17 59 -45 108.5t-70 92.5t-104 66.5t-138 21.5q-109 -3 -194.5 -83t-128 -198t-42.5 -247q0 -98 22.5 -190t66 -168.5t115 -123t161.5 -46.5q130 0 214.5 73.5
t136.5 215.5h266q-22 -109 -69 -198t-107.5 -147.5t-134.5 -98t-149.5 -56.5t-153.5 -17q-151 0 -272.5 59t-199.5 162.5t-120 240t-42 294.5zM362 1832h220l126 -238l127 238h220l-158 -282h-378z" />
    <glyph glyph-name="ccaron" unicode="&#x10d;" horiz-adv-x="1142" 
d="M66 496q-5 125 35 235.5t110.5 187t166 120.5t199.5 44q192 0 332 -112.5t173 -306.5h-274q-25 86 -86.5 140.5t-142.5 54.5q-104 0 -175 -97t-71 -233q0 -90 27.5 -163.5t84.5 -119.5t135 -46q80 0 139 52.5t76 125.5h283q-37 -177 -172 -289.5t-324 -112.5
q-211 0 -359 143.5t-157 376.5zM229 1475h220l127 -238l126 238h221l-159 -282h-377z" />
    <glyph glyph-name="Dcaron" unicode="&#x10e;" horiz-adv-x="1404" 
d="M123 -1v1434h622q227 0 395 -179q95 -100 149 -240t54 -298t-54 -298t-149 -240q-168 -179 -395 -179h-622zM318 1828h219l127 -238l126 238h221l-158 -282h-378zM388 226h300q182 4 285.5 136.5t103.5 353.5q0 224 -106.5 357t-291.5 133h-291v-980z" />
    <glyph glyph-name="dcaron" unicode="&#x10f;" horiz-adv-x="1517" 
d="M68 516q0 122 40 230.5t106 181.5t155.5 108.5t183.5 18.5q37 -6 72 -25.5t72 -60.5t64 -99t44 -149.5t17 -204.5q0 143 -68.5 234t-182.5 91q-108 0 -178 -97t-70 -228t70 -227.5t178 -96.5q114 0 182.5 90.5t68.5 233.5v918h255v-1433h-255v159q-32 -71 -104.5 -126
t-164.5 -58q-97 -3 -185.5 34.5t-155 107t-105.5 173.5t-39 225zM1245 922l92 512h273l-147 -512h-218z" />
    <glyph glyph-name="Dslash" unicode="&#x110;" horiz-adv-x="1441" 
d="M70 596v228h89v610h622q112 0 214 -47t182 -132q95 -100 148.5 -240t53.5 -298t-53.5 -298t-148.5 -240q-80 -85 -182 -132t-214 -47h-622v596h-89zM424 227h300q182 4 285.5 136.5t103.5 353.5q0 224 -106.5 357t-291.5 133h-291v-383h291v-228h-291v-369z" />
    <glyph glyph-name="dmacron" unicode="&#x111;" horiz-adv-x="1191" 
d="M68 516q0 122 40 230.5t106 181.5t155.5 108.5t183.5 18.5q37 -6 72 -25.5t72 -60.5t64 -99t44 -149.5t17 -204.5q0 143 -68.5 234t-182.5 91q-108 0 -178 -97t-70 -228t70 -227.5t178 -96.5q114 0 182.5 90.5t68.5 233.5v648h-257v167h257v103h255v-103h104v-167h-104
v-1163h-255v159q-32 -71 -104.5 -126t-164.5 -58q-97 -3 -185.5 34.5t-155 107t-105.5 173.5t-39 225z" />
    <glyph glyph-name="Emacron" unicode="&#x112;" horiz-adv-x="1253" 
d="M123 -1v1434h1055v-228h-787v-377h710v-224h-710v-378h787v-227h-1055zM316 1616v167h609v-167h-609z" />
    <glyph glyph-name="emacron" unicode="&#x113;" horiz-adv-x="1177" 
d="M66 529q0 128 43.5 234.5t116.5 175.5t166.5 106.5t196.5 37.5t197 -38t167 -107t116.5 -175t43.5 -234q0 -37 -3 -71h-783q18 -123 92 -189.5t170 -68.5q62 1 118 30t93 84h278q-57 -159 -190 -248t-299 -91q-105 1 -199 38.5t-166.5 106.5t-115 175t-42.5 234z
M293 1238v167h609v-167h-609zM335 652h509q-38 99 -105 151.5t-150 54.5q-84 -2 -150 -54t-104 -152z" />
    <glyph glyph-name="Ebreve" unicode="&#x114;" horiz-adv-x="1253" 
d="M123 -1v1434h1055v-228h-787v-377h710v-224h-710v-378h787v-227h-1055zM331 1824h127q0 -68 53.5 -114t139.5 -46t139 46t53 114h128q0 -78 -26.5 -137t-72 -94t-101 -52t-120.5 -17t-120.5 17t-101 52t-72 94t-26.5 137z" />
    <glyph glyph-name="ebreve" unicode="&#x115;" horiz-adv-x="1177" 
d="M66 529q0 128 43.5 234.5t116.5 175.5t166.5 106.5t196.5 37.5t197 -38t167 -107t116.5 -175t43.5 -234q0 -37 -3 -71h-783q18 -123 92 -189.5t170 -68.5q62 1 118 30t93 84h278q-57 -159 -190 -248t-299 -91q-105 1 -199 38.5t-166.5 106.5t-115 175t-42.5 234z
M268 1471h127q0 -68 53 -113.5t140 -45.5q86 0 139 45.5t53 113.5h128q0 -78 -26.5 -137t-72 -93.5t-101 -51.5t-120.5 -17t-120.5 17t-101 51.5t-72 93.5t-26.5 137zM335 652h509q-38 99 -105 151.5t-150 54.5q-84 -2 -150 -54t-104 -152z" />
    <glyph glyph-name="Edot" unicode="&#x116;" horiz-adv-x="1253" 
d="M123 -1v1434h1055v-228h-787v-377h710v-224h-710v-378h787v-227h-1055zM497 1701q0 53 44.5 90t108.5 37t109 -37t45 -90t-45 -90.5t-109 -37.5t-108.5 37.5t-44.5 90.5z" />
    <glyph glyph-name="edot" unicode="&#x117;" horiz-adv-x="1177" 
d="M66 529q0 128 43.5 234.5t116.5 175.5t166.5 106.5t196.5 37.5t197 -38t167 -107t116.5 -175t43.5 -234q0 -37 -3 -71h-783q18 -123 92 -189.5t170 -68.5q62 1 118 30t93 84h278q-57 -159 -190 -248t-299 -91q-105 1 -199 38.5t-166.5 106.5t-115 175t-42.5 234zM335 652
h509q-38 99 -105 151.5t-150 54.5q-84 -2 -150 -54t-104 -152zM426 1317q0 53 44.5 90.5t108.5 37.5t108.5 -37.5t44.5 -90.5t-44.5 -90t-108.5 -37t-108.5 37t-44.5 90z" />
    <glyph glyph-name="Eogonek" unicode="&#x118;" horiz-adv-x="1253" 
d="M123 -1v1434h1055v-228h-787v-377h710v-225h-710v-377h787v-227q-31 -22 -51.5 -38t-50.5 -44t-47 -59.5t-20 -64.5q-3 -36 14.5 -59.5t45 -31t57 -6t52.5 11.5v-130q-154 -53 -262.5 8.5t-102.5 185.5q2 36 20.5 73t41.5 62.5t49.5 48t41 32t18.5 11.5h-861z" />
    <glyph glyph-name="eogonek" unicode="&#x119;" horiz-adv-x="1177" 
d="M66 529q0 128 43.5 234.5t116.5 175.5t166.5 106.5t196.5 37.5t197 -38t167 -107t116.5 -175t43.5 -234q0 -37 -3 -71h-783q18 -123 92 -189.5t170 -68.5q62 1 118 30t93 84h278q-42 -119 -129 -199t-201 -115q-31 -22 -51.5 -38.5t-50 -44t-46 -59t-19.5 -63.5
q-3 -36 14.5 -59.5t45 -31t57 -6t52.5 11.5v-130q-154 -53 -262 8.5t-102 185.5q6 106 139 206q-95 11 -177.5 53.5t-145.5 110.5t-99.5 167.5t-36.5 217.5zM335 652h509q-38 99 -105 151.5t-150 54.5q-84 -2 -150 -54t-104 -152z" />
    <glyph glyph-name="Ecaron" unicode="&#x11a;" horiz-adv-x="1253" 
d="M123 -1v1434h1055v-228h-787v-377h710v-224h-710v-378h787v-227h-1055zM322 1824h219l127 -238l126 238h221l-158 -282h-378z" />
    <glyph glyph-name="ecaron" unicode="&#x11b;" horiz-adv-x="1177" 
d="M66 529q0 128 43.5 234.5t116.5 175.5t166.5 106.5t196.5 37.5t197 -38t167 -107t116.5 -175t43.5 -234q0 -37 -3 -71h-783q18 -123 92 -189.5t170 -68.5q62 1 118 30t93 84h278q-57 -159 -190 -248t-299 -91q-105 1 -199 38.5t-166.5 106.5t-115 175t-42.5 234z
M234 1473h220l126 -237l127 237h220l-158 -281h-378zM335 652h509q-38 99 -105 151.5t-150 54.5q-84 -2 -150 -54t-104 -152z" />
    <glyph glyph-name="Gcircumflex" unicode="&#x11c;" horiz-adv-x="1509" 
d="M66 718q0 159 50.5 299.5t138 240.5t209.5 158t259 58q117 0 220.5 -28.5t180 -78t135 -115.5t92.5 -141t46 -154h-266q-14 59 -47 111.5t-82 94t-120 65t-153 20.5q-123 -4 -215 -80.5t-137 -194t-45 -255.5q0 -103 23.5 -192.5t70.5 -162.5t124.5 -119t178.5 -56
q60 -6 120.5 3.5t118 37.5t103.5 71t77 108.5t38 144.5q0 -26 -0.5 -45t-4.5 -63.5t-11.5 -79.5t-24 -84.5t-38.5 -87.5t-57.5 -80t-80 -71t-107 -50.5t-136.5 -27.5q-147 -13 -272.5 42.5t-209.5 160t-131 247.5t-47 304zM390 1539l158 282h377l158 -282h-220l-127 238
l-126 -238h-220zM729 553v224h684v-776h-227v552h-457z" />
    <glyph glyph-name="gcircumflex" unicode="&#x11d;" horiz-adv-x="1157" 
d="M63 614q0 119 73 222t190.5 162t246.5 59h1q84 0 165 -26l166 166l162 -162l-123 -124q139 -129 139 -297q0 -98 -47.5 -182.5t-122 -138.5t-161.5 -84t-171 -30q-258 4 -388 126t-130 309zM74 -20q0 10 2 28h253q-2 -14 -2 -21q0 -63 75 -101t174 -38q98 0 169.5 46.5
t77.5 112.5q6 71 -52.5 121t-189.5 51q180 0 287.5 -21.5t155 -64t53.5 -113.5q8 -95 -64.5 -178.5t-190.5 -131t-246 -47.5q-127 0 -242.5 47.5t-187.5 130.5t-72 179zM133 1195l157 282h378l158 -282h-221l-126 238l-127 -238h-219zM316 614q0 -100 68.5 -166t188.5 -66
q115 0 186 68.5t71 163.5q0 84 -75.5 151.5t-181.5 67.5q-110 0 -183.5 -67t-73.5 -152z" />
    <glyph glyph-name="Gbreve" unicode="&#x11e;" horiz-adv-x="1509" 
d="M66 718q0 159 50.5 299.5t138 240.5t209.5 158t259 58q117 0 220.5 -28.5t180 -78t135 -115.5t92.5 -141t46 -154h-266q-14 59 -47 111.5t-82 94t-120 65t-153 20.5q-123 -4 -215 -80.5t-137 -194t-45 -255.5q0 -103 23.5 -192.5t70.5 -162.5t124.5 -119t178.5 -56
q60 -6 120.5 3.5t118 37.5t103.5 71t77 108.5t38 144.5q0 -26 -0.5 -45t-4.5 -63.5t-11.5 -79.5t-24 -84.5t-38.5 -87.5t-57.5 -80t-80 -71t-107 -50.5t-136.5 -27.5q-147 -13 -272.5 42.5t-209.5 160t-131 247.5t-47 304zM422 1821h128q0 -68 53 -114t139 -46t139.5 46
t53.5 114h127q0 -78 -26.5 -137t-72 -94t-101 -52t-120.5 -17t-120.5 17t-101 52t-72 94t-26.5 137zM729 553v224h684v-776h-227v552h-457z" />
    <glyph glyph-name="gbreve" unicode="&#x11f;" horiz-adv-x="1157" 
d="M63 614q0 119 73 222t190.5 162t246.5 59h1q84 0 165 -26l166 166l162 -162l-123 -124q139 -129 139 -297q0 -98 -47.5 -182.5t-122 -138.5t-161.5 -84t-171 -30q-258 4 -388 126t-130 309zM74 -20q0 10 2 28h253q-2 -14 -2 -21q0 -63 75 -101t174 -38q98 0 169.5 46.5
t77.5 112.5q6 71 -52.5 121t-189.5 51q180 0 287.5 -21.5t155 -64t53.5 -113.5q8 -95 -64.5 -178.5t-190.5 -131t-246 -47.5q-127 0 -242.5 47.5t-187.5 130.5t-72 179zM257 1475h127q0 -68 53.5 -114t139.5 -46t139 46t53 114h128q0 -78 -26.5 -137t-72 -93.5t-101 -51.5
t-120.5 -17t-120.5 17t-101 51.5t-72 93.5t-26.5 137zM316 614q0 -100 68.5 -166t188.5 -66q115 0 186 68.5t71 163.5q0 84 -75.5 151.5t-181.5 67.5q-110 0 -183.5 -67t-73.5 -152z" />
    <glyph glyph-name="Gdot" unicode="&#x120;" horiz-adv-x="1509" 
d="M66 718q0 159 50.5 299.5t138 240.5t209.5 158t259 58q117 0 220.5 -28.5t180 -78t135 -115.5t92.5 -141t46 -154h-266q-14 59 -47 111.5t-82 94t-120 65t-153 20.5q-123 -4 -215 -80.5t-137 -194t-45 -255.5q0 -103 23.5 -192.5t70.5 -162.5t124.5 -119t178.5 -56
q60 -6 120.5 3.5t118 37.5t103.5 71t77 108.5t38 144.5q0 -26 -0.5 -45t-4.5 -63.5t-11.5 -79.5t-24 -84.5t-38.5 -87.5t-57.5 -80t-80 -71t-107 -50.5t-136.5 -27.5q-147 -13 -272.5 42.5t-209.5 160t-131 247.5t-47 304zM578 1702q0 53 44.5 90.5t108.5 37.5t109 -37.5
t45 -90.5t-45 -90t-109 -37t-108.5 37t-44.5 90zM729 553v224h684v-776h-227v552h-457z" />
    <glyph glyph-name="gdot" unicode="&#x121;" horiz-adv-x="1157" 
d="M63 614q0 119 73 222t190.5 162t246.5 59h1q84 0 165 -26l166 166l162 -162l-123 -124q139 -129 139 -297q0 -98 -47.5 -182.5t-122 -138.5t-161.5 -84t-171 -30q-258 4 -388 126t-130 309zM74 -20q0 10 2 28h253q-2 -14 -2 -21q0 -63 75 -101t174 -38q98 0 169.5 46.5
t77.5 112.5q6 71 -52.5 121t-189.5 51q180 0 287.5 -21.5t155 -64t53.5 -113.5q8 -95 -64.5 -178.5t-190.5 -131t-246 -47.5q-127 0 -242.5 47.5t-187.5 130.5t-72 179zM316 614q0 -100 68.5 -166t188.5 -66q115 0 186 68.5t71 163.5q0 84 -75.5 151.5t-181.5 67.5
q-110 0 -183.5 -67t-73.5 -152zM426 1321q0 53 44.5 90t108.5 37t108.5 -37t44.5 -90t-44.5 -90.5t-108.5 -37.5t-108.5 37.5t-44.5 90.5z" />
    <glyph glyph-name="Gcedilla" unicode="&#x122;" horiz-adv-x="1509" 
d="M66 716q0 159 50.5 299.5t138 240.5t209.5 158t259 58q117 0 220.5 -28.5t180 -78t135 -115.5t92.5 -141t46 -154h-266q-14 59 -47 111.5t-82 94t-120 65t-153 20.5q-123 -4 -215 -80.5t-137 -194t-45 -255.5q0 -103 23.5 -192.5t70.5 -162.5t124.5 -119t178.5 -56
q60 -6 120.5 3.5t118 37.5t103.5 71t77 108.5t38 144.5q0 -26 -0.5 -45t-4.5 -63.5t-11.5 -79.5t-24 -84.5t-38.5 -87.5t-57.5 -80t-80 -71t-107 -50.5t-136.5 -27.5q-147 -13 -272.5 42.5t-209.5 160t-131 247.5t-47 304zM573 -440l75 346h227l-112 -346h-190zM729 551v224
h684v-776h-227v552h-457z" />
    <glyph glyph-name="gcedilla" unicode="&#x123;" horiz-adv-x="1157" 
d="M63 614q0 119 73 222t190.5 162t246.5 59h1q84 0 165 -26l166 166l162 -162l-123 -124q139 -129 139 -297q0 -98 -47.5 -182.5t-122 -138.5t-161.5 -84t-171 -30q-258 4 -388 126t-130 309zM74 -20q0 10 2 28h253q-2 -14 -2 -21q0 -63 75 -101t174 -38q98 0 169.5 46.5
t77.5 112.5q6 71 -52.5 121t-189.5 51q180 0 287.5 -21.5t155 -64t53.5 -113.5q8 -95 -64.5 -178.5t-190.5 -131t-246 -47.5q-127 0 -242.5 47.5t-187.5 130.5t-72 179zM316 614q0 -100 68.5 -166t188.5 -66q115 0 186 68.5t71 163.5q0 84 -75.5 151.5t-181.5 67.5
q-110 0 -183.5 -67t-73.5 -152zM316 1196l177 281h291l-259 -281h-209z" />
    <glyph glyph-name="Hcircumflex" unicode="&#x124;" horiz-adv-x="1452" 
d="M123 -1v1434h268v-1434h-268zM377 1532l158 281h377l158 -281h-220l-127 237l-126 -237h-220zM391 504v13q0 7 2.5 31.5t6 48t11.5 55.5t19 59.5t29 55.5t40 47.5t53 32t68 12.5h247q54 0 94 15t58 36t28.5 42.5t11.5 36.5l1 15q0 -8 -0.5 -21t-5 -51.5t-12 -73.5
t-25 -78t-40.5 -73.5t-61 -51.5t-85 -21h-247q-54 0 -94 -13.5t-58 -32.5t-28.5 -38t-11.5 -32zM1060 -1v1434h268v-1434h-268z" />
    <glyph glyph-name="hcircumflex" unicode="&#x125;" horiz-adv-x="1146" 
d="M-104 1496l157 281h377l159 -281h-221l-126 237l-127 -237h-219zM112 0v1433h255v-1433h-255zM367 623v-7v7zM367 623q1 204 84.5 325.5t206.5 131.5q93 8 181 -35t147 -134.5t59 -208.5v-702h-255v616q0 109 -50 179t-161 70q-105 0 -157.5 -65.5t-54.5 -176.5z" />
    <glyph glyph-name="Hbar" unicode="&#x126;" horiz-adv-x="1587" 
d="M47 1002v167h140v264h268v-264h670v264h268v-264h148v-167h-148v-1003h-268v1003q0 -15 -2 -38t-8.5 -69.5t-22.5 -88.5t-39.5 -82.5t-64.5 -65t-93 -24.5h-247q-54 0 -94 -13.5t-58 -32.5t-28.5 -38t-11.5 -32l-1 -14v12q0 8 2.5 32.5t6 48t11.5 55.5t19 59.5t29 55.5
t40 47.5t53 32t68 12.5h248q51 0 89 13.5t57 31t30.5 41t13.5 35.5t3 22h-670v-1003h-268v1003h-140z" />
    <glyph glyph-name="hbar" unicode="&#x127;" horiz-adv-x="1146" 
d="M10 1162v166h103v105h255v-105h303v-166h-303v-1162h-255v1162h-103zM368 623q1 204 84.5 325.5t206.5 131.5q93 8 181 -35t147 -134.5t59 -208.5v-702h-255v616q0 109 -50.5 179t-161.5 70q-106 0 -157.5 -65.5t-53.5 -176.5z" />
    <glyph glyph-name="Itilde" unicode="&#x128;" horiz-adv-x="514" 
d="M-121 1541v18q0 52 19.5 96.5t51 72.5t71 47t80 19t78.5 -11q170 -61 183 -66q38 -11 70.5 10t32.5 63v18h131v-18q0 -78 -43 -138.5t-112.5 -84.5t-143.5 -1q-93 31 -184 66q-38 11 -70 -9.5t-32 -63.5v-18h-132zM122 -1v1434h268v-1434h-268z" />
    <glyph glyph-name="itilde" unicode="&#x129;" horiz-adv-x="483" 
d="M-119 1181v18q0 52 19.5 96.5t51 72.5t71 47t80 19t78.5 -11q170 -61 183 -66q38 -11 70.5 10t32.5 63v18h131v-18q0 -78 -43 -138.5t-112.5 -84.5t-143.5 -1q-93 31 -184 66q-38 11 -70 -9.5t-32 -63.5v-18h-132zM113 0v1056h255v-1056h-255z" />
    <glyph glyph-name="Imacron" unicode="&#x12a;" horiz-adv-x="514" 
d="M-51 1619v166h609v-166h-609zM123 -1v1434h268v-1434h-268z" />
    <glyph glyph-name="imacron" unicode="&#x12b;" horiz-adv-x="481" 
d="M-61 1236v166h609v-166h-609zM113 0v1056h255v-1056h-255z" />
    <glyph glyph-name="Ibreve" unicode="&#x12c;" horiz-adv-x="514" 
d="M-66 1820h128q0 -68 53 -113.5t140 -45.5q86 0 139 45.5t53 113.5h128q0 -78 -26.5 -137t-72 -93.5t-101 -51.5t-120.5 -17t-121 17t-101.5 51.5t-72 93.5t-26.5 137zM122 -1v1434h268v-1434h-268z" />
    <glyph glyph-name="ibreve" unicode="&#x12d;" horiz-adv-x="481" 
d="M-76 1469h128q0 -68 53 -114t139 -46t139.5 46t53.5 114h127q0 -78 -26.5 -137t-72 -94t-101 -52t-120.5 -17t-120.5 17t-101 52t-72 94t-26.5 137zM113 0v1056h255v-1056h-255z" />
    <glyph glyph-name="Iogonek" unicode="&#x12e;" horiz-adv-x="514" 
d="M25 -228q1 21 7.5 42t17 39t23 35.5t27 32t28 27t26 22t22 16t14.5 10.5l6 3h-74v1434h268v-1434q-31 -22 -51.5 -38t-50.5 -44t-47 -59.5t-20 -64.5q-3 -36 14.5 -59.5t45 -31t57 -6t52.5 11.5v-130q-154 -53 -262.5 8.5t-102.5 185.5z" />
    <glyph glyph-name="iogonek" unicode="&#x12f;" horiz-adv-x="479" 
d="M2 -227q1 21 7.5 42t17 39t23 35.5t27 32t28 27t26 22t22 16t15.5 9.5l5 4h-61v1056h255v-1056q-31 -22 -51.5 -38t-50.5 -44t-47 -59.5t-20 -64.5q-3 -36 14.5 -59.5t45 -31t57 -6t52.5 11.5v-130q-154 -53 -262.5 8.5t-102.5 185.5zM68 1308q0 53 50.5 90.5t121.5 37.5
t121 -37.5t50 -90.5t-50 -90t-121 -37t-121.5 37t-50.5 90z" />
    <glyph glyph-name="Idot" unicode="&#x130;" horiz-adv-x="516" 
d="M104 1700q0 53 45 90.5t109 37.5t108.5 -37.5t44.5 -90.5t-44.5 -90t-108.5 -37t-109 37t-45 90zM124 -1v1434h268v-1434h-268z" />
    <glyph glyph-name="dotlessi" unicode="&#x131;" horiz-adv-x="405" 
d="M113 -1v1057h179v-1057h-179z" />
    <glyph glyph-name="Jcircumflex" unicode="&#x134;" horiz-adv-x="1032" 
d="M25 373v90h267v-90q0 -77 52 -132t127 -55q72 0 124.5 52.5t55.5 125.5v1071h267v-1062q0 -130 -60.5 -224.5t-160.5 -140.5t-226 -46q-120 0 -222 52t-163 147t-61 212zM436 1546l158 282h377l158 -282h-220l-127 238l-126 -238h-220z" />
    <glyph glyph-name="jcircumflex" unicode="&#x135;" horiz-adv-x="481" 
d="M-104 -153q72 0 117 20t66 63t27.5 88t6.5 116v923h255v-1039q0 -79 -27.5 -148t-82.5 -125.5t-148.5 -89t-213.5 -32.5v224zM-104 1189l157 282h377l159 -282h-221l-126 238l-127 -238h-219z" />
    <glyph glyph-name="Kcedilla" unicode="&#x136;" horiz-adv-x="1370" 
d="M123 -1v1434h268v-593l601 593h372l-973 -919v-515h-268zM391 514q7 7 20 18.5t53 40.5t79.5 51.5t94 41t102.5 20t99 -22.5t89 -76l431 -588h-345l-315 441q-44 61 -91.5 91t-84.5 29.5t-68 -10t-47 -22.5zM582 -440l74 346h228l-112 -346h-190z" />
    <glyph glyph-name="kcedilla" unicode="&#x137;" horiz-adv-x="1173" 
d="M113 0v1433h255v-784l441 407h312l-753 -695v-361h-255zM368 361q6 5 16.5 14.5t42.5 33t63.5 42.5t74.5 36.5t80.5 22.5t76 -8.5t66.5 -47.5l364 -454h-312q-205 254 -246 306q-34 43 -70 64t-62.5 21t-48.5 -6t-33 -15zM479 -440l75 347h227l-112 -347h-190z" />
    <glyph glyph-name="Lacute" unicode="&#x139;" horiz-adv-x="1144" 
d="M123 0v1434h268v-1209h742v-225h-1010zM144 1546l177 281h291l-259 -281h-209z" />
    <glyph glyph-name="lacute" unicode="&#x13a;" horiz-adv-x="481" 
d="M18 1508l178 281h290l-258 -281h-210zM113 0v1433h255v-1433h-255z" />
    <glyph glyph-name="Lcedilla" unicode="&#x13b;" horiz-adv-x="1144" 
d="M123 -2v1434h268v-1209h742v-225h-1010zM510 -441l75 347h227l-112 -347h-190z" />
    <glyph glyph-name="lcedilla" unicode="&#x13c;" horiz-adv-x="481" 
d="M55 -440l75 347h228l-112 -347h-191zM112 0v1433h255v-1433h-255z" />
    <glyph glyph-name="Lcaron" unicode="&#x13d;" horiz-adv-x="1175" 
d="M123 0v1434h268v-1209h742v-225h-1010zM738 922l91 512h273l-146 -512h-218z" />
    <glyph glyph-name="lcaron" unicode="&#x13e;" horiz-adv-x="827" 
d="M113 0v1433h255v-1433h-255zM556 922l92 511h273l-147 -511h-218z" />
    <glyph glyph-name="Ldot" unicode="&#x13f;" horiz-adv-x="1148" 
d="M123 0v1434h268v-1209h742v-225h-1010zM608 717q0 53 45 90.5t109 37.5t108.5 -37.5t44.5 -90.5t-44.5 -90t-108.5 -37t-109 37t-45 90z" />
    <glyph glyph-name="ldot" unicode="&#x140;" horiz-adv-x="868" 
d="M113 0v1433h255v-1433h-255zM537 929q0 53 44.5 90t108.5 37t109 -37t45 -90t-45 -90.5t-109 -37.5t-108.5 37.5t-44.5 90.5z" />
    <glyph glyph-name="Lslash" unicode="&#x141;" horiz-adv-x="1265" 
d="M20 697l224 100v637h268v-516l367 165l68 -152l-435 -196v-510h742v-225h-1010v615l-155 -70z" />
    <glyph glyph-name="lslash" unicode="&#x142;" horiz-adv-x="837" 
d="M25 748l207 93v593h255v-478l265 119l68 -152l-333 -150v-773h-255v659l-139 -63z" />
    <glyph glyph-name="Nacute" unicode="&#x143;" horiz-adv-x="1406" 
d="M123 0v1433h356l536 -1104v1104h267v-1433h-345l-546 1104v-1104h-268zM405 1547l178 281h290l-258 -281h-210z" />
    <glyph glyph-name="nacute" unicode="&#x144;" horiz-adv-x="1146" 
d="M113 0v1057h255v-1057h-255zM368 681q0 171 58.5 277t177.5 121q55 7 115.5 -4t118 -41.5t104 -75.5t75 -111t28.5 -143v-704h-255v681q0 71 -58 123.5t-153 52.5q-89 0 -150 -53t-61 -123zM403 1192l177 281h291l-259 -281h-209z" />
    <glyph glyph-name="Ncedilla" unicode="&#x145;" horiz-adv-x="1406" 
d="M123 0v1433h356l536 -1104v1104h267v-1433h-345l-546 1104v-1104h-268zM552 -440l74 347h228l-112 -347h-190z" />
    <glyph glyph-name="ncedilla" unicode="&#x146;" horiz-adv-x="1146" 
d="M113 0v1057h255v-1057h-255zM368 681q0 171 58.5 277t177.5 121q55 7 115.5 -4t118 -41.5t104 -75.5t75 -111t28.5 -143v-704h-255v681q0 71 -58 123.5t-153 52.5q-89 0 -150 -53t-61 -123zM437 -437l75 347h227l-112 -347h-190z" />
    <glyph glyph-name="Ncaron" unicode="&#x147;" horiz-adv-x="1406" 
d="M123 0v1433h356l536 -1104v1104h267v-1433h-345l-546 1104v-1104h-268zM356 1825h220l126 -238l127 238h220l-158 -282h-378z" />
    <glyph glyph-name="ncaron" unicode="&#x148;" horiz-adv-x="1146" 
d="M113 0v1057h255v-1057h-255zM283 1473h219l127 -238l126 238h221l-158 -282h-378zM368 681q0 171 58.5 277t177.5 121q55 7 115.5 -4t118 -41.5t104 -75.5t75 -111t28.5 -143v-704h-255v681q0 71 -58 123.5t-153 52.5q-89 0 -150 -53t-61 -123z" />
    <glyph glyph-name="Eng" unicode="&#x14a;" horiz-adv-x="1406" 
d="M123 0v1433h356l536 -1104v1104h267v-1433q-3 -76 -32 -142.5t-84.5 -119.5t-146.5 -84t-208 -31v224q98 -1 145 38t62 115h-81l-546 1104v-1104h-268z" />
    <glyph glyph-name="eng" unicode="&#x14b;" horiz-adv-x="1146" 
d="M113 0v1057h255v-1057h-255zM368 684q0 146 42.5 245.5t129.5 135.5q39 12 65 15q97 13 201 -31q94 -40 159 -116t78 -181v-1q2 -18 2 -28v-705v-7v-3q-2 -77 -30.5 -144.5t-84 -122.5t-147.5 -86.5t-210 -31.5v224q72 0 117 20t66 63t27.5 88t6.5 116v562q0 1 -0.5 2.5
t-0.5 2.5q-7 66 -64 112.5t-146 46.5t-150 -53t-61 -123z" />
    <glyph glyph-name="Omacron" unicode="&#x14c;" horiz-adv-x="1525" 
d="M63 717q0 209 85 380.5t244.5 273.5t363.5 102q153 0 286 -59.5t224.5 -161.5t143.5 -241t52 -294t-52 -294t-143.5 -241t-224.5 -161.5t-286 -59.5q-204 0 -363.5 102t-244.5 273.5t-85 380.5zM331 717q0 -106 27.5 -201t79.5 -169t134.5 -117.5t184.5 -43.5
q135 0 236.5 75t151.5 194t50 262t-50 262t-151.5 194.5t-236.5 75.5t-233.5 -75.5t-145.5 -194t-47 -262.5zM458 1617v167h609v-167h-609z" />
    <glyph glyph-name="omacron" unicode="&#x14d;" horiz-adv-x="1179" 
d="M66 529q0 128 43.5 234.5t116.5 175.5t166.5 106.5t196.5 37.5t197 -38t167 -107t116.5 -175t43.5 -234t-42.5 -234t-115 -174.5t-167 -106.5t-199.5 -39q-105 1 -199 38.5t-166.5 106.5t-115 175t-42.5 234zM278 1240v167h609v-167h-609zM322 529q0 -157 78 -242
t189 -87q111 2 189.5 87t78.5 242q0 149 -79 238t-189 91q-110 -2 -188.5 -91t-78.5 -238z" />
    <glyph glyph-name="Obreve" unicode="&#x14e;" horiz-adv-x="1525" 
d="M63 717q0 209 85 380.5t244.5 273.5t363.5 102q153 0 286 -59.5t224.5 -161.5t143.5 -241t52 -294t-52 -294t-143.5 -241t-224.5 -161.5t-286 -59.5q-204 0 -363.5 102t-244.5 273.5t-85 380.5zM331 717q0 -106 27.5 -201t79.5 -169t134.5 -117.5t184.5 -43.5
q135 0 236.5 75t151.5 194t50 262t-50 262t-151.5 194.5t-236.5 75.5t-233.5 -75.5t-145.5 -194t-47 -262.5zM426 1828h128q0 -68 53 -114t139 -46t139.5 46t53.5 114h127q0 -78 -26.5 -137t-72 -94t-101 -52t-120.5 -17t-120.5 17t-101 52t-72 94t-26.5 137z" />
    <glyph glyph-name="obreve" unicode="&#x14f;" horiz-adv-x="1179" 
d="M66 529q0 128 43.5 234.5t116.5 175.5t166.5 106.5t196.5 37.5t197 -38t167 -107t116.5 -175t43.5 -234t-42.5 -234t-115 -174.5t-167 -106.5t-199.5 -39q-105 1 -199 38.5t-166.5 106.5t-115 175t-42.5 234zM265 1473h128q0 -68 53 -113.5t140 -45.5q86 0 139 45.5
t53 113.5h128q0 -78 -26.5 -137t-72 -93.5t-101 -51.5t-120.5 -17t-121 17t-101.5 51.5t-72 93.5t-26.5 137zM322 529q0 -157 78 -242t189 -87q111 2 189.5 87t78.5 242q0 149 -79 238t-189 91q-110 -2 -188.5 -91t-78.5 -238z" />
    <glyph glyph-name="Ohungarumlaut" unicode="&#x150;" horiz-adv-x="1525" 
d="M63 717q0 209 85 380.5t244.5 273.5t363.5 102q153 0 286 -59.5t224.5 -161.5t143.5 -241t52 -294t-52 -294t-143.5 -241t-224.5 -161.5t-286 -59.5q-204 0 -363.5 102t-244.5 273.5t-85 380.5zM331 717q0 -106 27.5 -201t79.5 -169t134.5 -117.5t184.5 -43.5
q135 0 236.5 75t151.5 194t50 262t-50 262t-151.5 194.5t-236.5 75.5t-233.5 -75.5t-145.5 -194t-47 -262.5zM470 1588l177 281h291l-259 -281h-209zM846 1588l177 281h291l-259 -281h-209z" />
    <glyph glyph-name="ohungarumlaut" unicode="&#x151;" horiz-adv-x="1181" 
d="M66 529q0 128 43.5 234.5t116.5 175.5t166.5 106.5t196.5 37.5t197 -38t167 -107t116.5 -175t43.5 -234t-42.5 -234t-115 -174.5t-167 -106.5t-199.5 -39q-105 1 -199 38.5t-166.5 106.5t-115 175t-42.5 234zM288 1194l177 281h291l-259 -281h-209zM322 529
q0 -157 78 -242t189 -87q111 2 189.5 87t78.5 242q0 149 -79 238t-189 91q-110 -2 -188.5 -91t-78.5 -238zM681 1194l178 281h290l-258 -281h-210z" />
    <glyph glyph-name="OE" unicode="&#x152;" horiz-adv-x="2324" 
d="M63 718q0 209 85 380.5t244.5 273.5t363.5 102q251 0 439 -154v115h1055v-227h-788v-377h711v-225h-711v-377h788v-228h-1055v115q-188 -154 -439 -154q-204 0 -363.5 102t-244.5 273.5t-85 380.5zM331 718q0 -106 27.5 -201t79.5 -169t134.5 -117.5t184.5 -43.5
q135 0 236.5 75t151.5 194t50 262t-50 262t-151.5 194t-236.5 75q-102 0 -184.5 -43.5t-134.5 -117.5t-79.5 -169t-27.5 -201z" />
    <glyph glyph-name="oe" unicode="&#x153;" horiz-adv-x="1970" 
d="M66 530q0 128 43.5 234.5t116.5 175.5t166.5 106.5t196.5 37.5q114 0 218.5 -46.5t177.5 -132.5q74 86 177.5 132.5t218.5 46.5q103 0 197 -38t167 -107t116.5 -175t43.5 -234q0 -25 -4 -71h-783q18 -123 92.5 -189.5t170.5 -68.5q62 1 117.5 30t92.5 84h278
q-57 -159 -190 -248t-298 -91q-117 1 -220 47t-176 131q-73 -85 -176.5 -131t-219.5 -47q-105 1 -199 38.5t-166.5 106.5t-115 175t-42.5 234zM322 530q0 -157 78 -242t189 -87q111 2 189.5 87t78.5 242q0 149 -79 238t-189 91q-110 -2 -188.5 -91t-78.5 -238zM1126 652h509
q-38 100 -104.5 152.5t-149.5 54.5q-83 -2 -150 -54.5t-105 -152.5z" />
    <glyph glyph-name="Racute" unicode="&#x154;" horiz-adv-x="1372" 
d="M123 0v1434h730q120 0 226.5 -60.5t169.5 -162.5t63 -217q0 -187 -113 -319.5t-273 -135.5l376 -538h-312l-377 538h-222v-539h-268zM391 763h434q104 0 161.5 65.5t57.5 155.5q0 83 -57 154t-134 71h-462v-446zM467 1590l178 281h290l-258 -281h-210z" />
    <glyph glyph-name="racute" unicode="&#x155;" horiz-adv-x="761" 
d="M113 1v1057h255v-391q0 188 68 302t156 114q71 0 140 -25v-237q-48 24 -140 24q-107 0 -165.5 -53t-58.5 -138v-653h-255zM184 1195l177 281h291l-259 -281h-209z" />
    <glyph glyph-name="Rcedilla" unicode="&#x156;" horiz-adv-x="1372" 
d="M123 -1v1434h730q120 0 226.5 -60.5t169.5 -162.5t63 -217q0 -187 -113 -320t-273 -136l376 -538h-312l-377 538l-222 1v-539h-268zM391 762h434q104 0 161.5 65.5t57.5 155.5q0 83 -57 154t-134 71h-462v-446zM528 -440l75 346h228l-112 -346h-191z" />
    <glyph glyph-name="rcedilla" unicode="&#x157;" horiz-adv-x="759" 
d="M92 -439l75 346h227l-112 -346h-190zM111 1v1057h255v-391q0 188 68 302t156 114q72 0 141 -25v-237q-49 24 -141 24q-107 0 -165.5 -53t-58.5 -138v-653h-255z" />
    <glyph glyph-name="Rcaron" unicode="&#x158;" horiz-adv-x="1372" 
d="M123 0v1434h730q120 0 226.5 -60.5t169.5 -162.5t63 -217q0 -187 -113 -319.5t-273 -135.5l376 -538h-312l-377 538h-222v-539h-268zM328 1829h220l126 -237l127 237h220l-158 -281h-377zM391 763h434q104 0 161.5 65.5t57.5 155.5q0 83 -57 154t-134 71h-462v-446z" />
    <glyph glyph-name="rcaron" unicode="&#x159;" horiz-adv-x="761" 
d="M72 1476h219l127 -238l126 238h221l-159 -282h-377zM112 1v1057h255v-391q0 188 68 302t156 114q71 0 140 -25v-237q-48 24 -140 24q-107 0 -165.5 -53t-58.5 -138v-653h-255z" />
    <glyph glyph-name="Sacute" unicode="&#x15a;" horiz-adv-x="1310" 
d="M63 463h267q0 -43 17.5 -86.5t52.5 -84.5t98 -69.5t145 -34.5q129 -10 227.5 46t99.5 151q1 72 -52.5 116.5t-141.5 67.5l-283 66q-188 43 -291 144.5t-103 281.5q0 119 71.5 213.5t197 146.5t282.5 52q137 0 247 -36.5t179.5 -100t106.5 -146t37 -176.5h-268
q0 94 -82 164.5t-220 70.5q-118 0 -200.5 -54.5t-82.5 -131.5q0 -120 171 -164l282 -65q195 -48 306.5 -159t111.5 -290q0 -98 -51.5 -181t-135.5 -136t-189.5 -81.5t-215.5 -25.5q-112 3 -208.5 33.5t-164 79.5t-116 113t-71.5 134.5t-23 141.5zM425 1590l178 281h290
l-258 -281h-210z" />
    <glyph glyph-name="sacute" unicode="&#x15b;" horiz-adv-x="1073" 
d="M66 342h255q0 -60 66 -99t152 -42q83 -3 144.5 27.5t61.5 75.5q0 38 -28.5 60t-91.5 33l-239 42q-60 11 -113 36t-96 65t-66.5 100.5t-19.5 133.5q7 128 135 218.5t304 90.5q100 0 188.5 -30.5t145 -77.5t85.5 -105.5t20 -113.5h-256q0 35 -53.5 67t-121.5 36
q-80 5 -135 -21.5t-55 -74.5q0 -68 134 -91l248 -44q123 -22 198 -104.5t75 -215.5q0 -84 -39.5 -150t-106 -105.5t-148 -59t-170.5 -16.5q-106 3 -196.5 35.5t-150 83.5t-93 115t-33.5 131zM311 1195l177 281h291l-259 -281h-209z" />
    <glyph glyph-name="Scircumflex" unicode="&#x15c;" horiz-adv-x="1310" 
d="M63 463h267q0 -43 17.5 -86.5t52.5 -84.5t98 -69.5t145 -34.5q129 -10 227.5 46t99.5 151q1 72 -52.5 116.5t-141.5 67.5l-283 66q-188 43 -291 144.5t-103 281.5q0 119 71.5 213.5t197 146.5t282.5 52q137 0 247 -36.5t179.5 -100t106.5 -146t37 -176.5h-268
q0 94 -82 164.5t-220 70.5q-118 0 -200.5 -54.5t-82.5 -131.5q0 -120 171 -164l282 -65q195 -48 306.5 -159t111.5 -290q0 -98 -51.5 -181t-135.5 -136t-189.5 -81.5t-215.5 -25.5q-112 3 -208.5 33.5t-164 79.5t-116 113t-71.5 134.5t-23 141.5zM310 1590l157 282h378
l158 -282h-221l-126 238l-127 -238h-219z" />
    <glyph glyph-name="scircumflex" unicode="&#x15d;" horiz-adv-x="1073" 
d="M66 342h255q0 -60 66 -99t152 -42q83 -3 144.5 27.5t61.5 75.5q0 38 -28.5 60t-91.5 33l-239 42q-60 11 -113 36t-96 65t-66.5 100.5t-19.5 133.5q7 128 135 218.5t304 90.5q100 0 188.5 -30.5t145 -77.5t85.5 -105.5t20 -113.5h-256q0 35 -53.5 67t-121.5 36
q-80 5 -135 -21.5t-55 -74.5q0 -68 134 -91l248 -44q123 -22 198 -104.5t75 -215.5q0 -84 -39.5 -150t-106 -105.5t-148 -59t-170.5 -16.5q-106 3 -196.5 35.5t-150 83.5t-93 115t-33.5 131zM191 1194l157 282h377l159 -282h-221l-126 238l-127 -238h-219z" />
    <glyph glyph-name="Scedilla" unicode="&#x15e;" horiz-adv-x="1310" 
d="M63 463h267q0 -43 17.5 -86.5t52.5 -84.5t98 -69.5t145 -34.5q129 -10 227.5 46t99.5 151q1 72 -52.5 116.5t-141.5 67.5l-283 66q-188 43 -291 144.5t-103 281.5q0 119 71.5 213.5t197 146.5t282.5 52q137 0 247 -36.5t179.5 -100t106.5 -146t37 -176.5h-268
q0 94 -82 164.5t-220 70.5q-118 0 -200.5 -54.5t-82.5 -131.5q0 -120 171 -164l282 -65q195 -48 306.5 -159t111.5 -290q0 -91 -44.5 -169t-118.5 -130.5t-167.5 -84.5t-195.5 -38l-15 -25q73 -18 119 -69.5t46 -115.5q0 -80 -67.5 -136t-162.5 -56q-81 0 -145 42l-6 4v144
l22 -15q55 -37 129 -37q29 0 49 16t20 38q0 24 -18.5 42t-50.5 18h-111v99l35 56q-118 16 -214 65t-155.5 118t-91.5 149t-32 163z" />
    <glyph glyph-name="scedilla" unicode="&#x15f;" horiz-adv-x="1073" 
d="M66 342h255q0 -60 66 -99t152 -42q83 -3 144.5 27.5t61.5 75.5q0 38 -28.5 60t-91.5 33l-239 42q-60 11 -113 36t-96 65t-66.5 100.5t-19.5 133.5q7 128 135 218.5t304 90.5q100 0 188.5 -30.5t145 -77.5t85.5 -105.5t20 -113.5h-256q0 35 -53.5 67t-121.5 36
q-80 5 -135 -21.5t-55 -74.5q0 -68 134 -91l248 -44q123 -22 198 -104.5t75 -215.5q0 -75 -32 -136.5t-87 -101t-124.5 -63t-147.5 -29.5l-24 -39q73 -18 119.5 -69.5t46.5 -115.5q0 -79 -68 -135.5t-163 -56.5q-80 0 -144 42l-6 5v143l22 -15q55 -37 128 -37q29 0 49.5 16
t20.5 38q0 24 -18.5 42t-50.5 18h-111v99l44 71q-177 26 -284 129t-107 229z" />
    <glyph glyph-name="Scaron" unicode="&#x160;" horiz-adv-x="1310" 
d="M63 463h267q0 -43 17.5 -86.5t52.5 -84.5t98 -69.5t145 -34.5q129 -10 227.5 46t99.5 151q1 72 -52.5 116.5t-141.5 67.5l-283 66q-188 43 -291 144.5t-103 281.5q0 119 71.5 213.5t197 146.5t282.5 52q137 0 247 -36.5t179.5 -100t106.5 -146t37 -176.5h-268
q0 94 -82 164.5t-220 70.5q-118 0 -200.5 -54.5t-82.5 -131.5q0 -120 171 -164l282 -65q195 -48 306.5 -159t111.5 -290q0 -98 -51.5 -181t-135.5 -136t-189.5 -81.5t-215.5 -25.5q-112 3 -208.5 33.5t-164 79.5t-116 113t-71.5 134.5t-23 141.5zM292 1830h219l127 -237
l126 237h221l-158 -281h-378z" />
    <glyph glyph-name="scaron" unicode="&#x161;" horiz-adv-x="1073" 
d="M66 342h255q0 -60 66 -99t152 -42q83 -3 144.5 27.5t61.5 75.5q0 38 -28.5 60t-91.5 33l-239 42q-60 11 -113 36t-96 65t-66.5 100.5t-19.5 133.5q7 128 135 218.5t304 90.5q100 0 188.5 -30.5t145 -77.5t85.5 -105.5t20 -113.5h-256q0 35 -53.5 67t-121.5 36
q-80 5 -135 -21.5t-55 -74.5q0 -68 134 -91l248 -44q123 -22 198 -104.5t75 -215.5q0 -84 -39.5 -150t-106 -105.5t-148 -59t-170.5 -16.5q-106 3 -196.5 35.5t-150 83.5t-93 115t-33.5 131zM206 1476h220l126 -238l127 238h220l-158 -282h-377z" />
    <glyph glyph-name="Tcedilla" unicode="&#x162;" horiz-adv-x="1185" 
d="M10 1196v237h1164v-237h-449v-1197l-39 -62q73 -18 119.5 -69.5t46.5 -115.5q0 -79 -68 -135.5t-163 -56.5q-80 0 -144 42l-7 4v144l23 -15q55 -37 128 -37q29 0 49 16t20 38q0 24 -18.5 42t-50.5 18h-111v99l56 88h-107v1197h-449z" />
    <glyph glyph-name="tcedilla" unicode="&#x163;" horiz-adv-x="690" 
d="M37 857v199h154v377h255v-377h179v-199h-179v-552q0 -33 23 -57t55 -24h101v-225h-150l-39 -63q73 -18 119.5 -69t46.5 -115q0 -79 -68 -135.5t-163 -56.5q-80 0 -144 42l-6 4v144l22 -15q55 -37 128 -37q29 0 49 16t20 38q0 24 -18.5 41.5t-50.5 17.5h-111v99l74 117
q-64 33 -103.5 95t-39.5 137v598h-154z" />
    <glyph glyph-name="Tcaron" unicode="&#x164;" horiz-adv-x="1185" 
d="M10 1196v237h1164v-237h-263q-4 0 -10.5 -0.5t-26 -4t-37 -10t-39 -21t-37 -33.5t-26 -50t-10.5 -69v-1009h-266v991q0 42 21.5 76t55.5 55t75.5 36.5t82.5 22.5t75 11t55 5h22h-836zM245 1832h220l126 -238l127 238h220l-158 -282h-377z" />
    <glyph glyph-name="tcaron" unicode="&#x165;" horiz-adv-x="1034" 
d="M37 858v199h154v377h255v-377h179v-199h-555q27 0 61 -2t93.5 -11t105.5 -25t81 -47.5t35 -74.5v-392q0 -33 23 -57t55 -24h101v-225h-174q-107 0 -183.5 76t-76.5 184v456q0 40 -13.5 69t-32.5 42.5t-37.5 21t-31.5 8.5l-14 1h-25zM763 920l92 512h273v-1l-147 -511
h-218z" />
    <glyph glyph-name="Tbar" unicode="&#x166;" horiz-adv-x="1224" 
d="M31 1196v237h1163v-237h-262q-4 0 -10.5 -0.5t-26 -4t-37.5 -10t-39.5 -21t-37 -33.5t-26 -50t-10.5 -69v-124h334v-166h-334v-719h-265v719h-338v166h338v106q0 58 40 100.5t96.5 61.5t113 30.5t96.5 12.5l40 1h-835z" />
    <glyph glyph-name="tbar" unicode="&#x167;" horiz-adv-x="741" 
d="M61 537v167h154v12q0 40 -13 69t-32 42.5t-38 21t-32 8.5l-13 1h-26v199h154v376h255v-376h180v-199h-555q21 0 47 -1.5t72 -6t86.5 -15t80 -26.5t63.5 -43t26 -62h180v-167h-180v-232q0 -33 23.5 -56.5t55.5 -23.5h101v-225h-175q-107 0 -183.5 76t-76.5 184v277h-154z
" />
    <glyph glyph-name="Utilde" unicode="&#x168;" 
d="M104 528v906h268v-906q0 -145 82 -233.5t217 -88.5t217 88.5t82 233.5v906h268v-906q0 -118 -46 -224t-123 -181t-181 -118.5t-217 -43.5t-217 43.5t-181 118.5t-123 181t-46 224zM314 1562v18q0 52 19.5 96.5t50.5 72.5t71 47t80 19t78 -11q170 -61 183 -66
q38 -11 70.5 10t32.5 63v18h132v-18q0 -78 -43 -138.5t-113 -84.5t-144 -1q-66 22 -183 67q-38 11 -70.5 -10t-32.5 -64v-18h-131z" />
    <glyph glyph-name="utilde" unicode="&#x169;" horiz-adv-x="1134" 
d="M100 353v704h255v-704q0 -68 57 -110.5t155 -42.5q96 0 147 57.5t51 145.5q0 -54 -3.5 -99.5t-12.5 -94t-26 -86t-41 -69t-61 -51t-84 -24.5q-84 -10 -157 8t-123.5 55.5t-86.5 89t-53 108t-17 113.5zM199 1181v18q0 52 19.5 96.5t50.5 72.5t71 47t80 19t78 -11
q171 -61 184 -66q38 -11 70 9.5t32 63.5v18h132v-18q0 -78 -43 -138.5t-113 -84.5t-144 -1q-85 28 -183 66q-38 11 -70.5 -10t-32.5 -63v-18h-131zM765 0v1057h255v-1057h-255z" />
    <glyph glyph-name="Umacron" unicode="&#x16a;" 
d="M104 528v906h268v-906q0 -145 82 -233.5t217 -88.5t217 88.5t82 233.5v906h268v-906q0 -118 -46 -224t-123 -181t-181 -118.5t-217 -43.5t-217 43.5t-181 118.5t-123 181t-46 224zM371 1633v167h610v-167h-610z" />
    <glyph glyph-name="umacron" unicode="&#x16b;" horiz-adv-x="1134" 
d="M100 353v704h255v-704q0 -68 57 -110.5t155 -42.5q96 0 147 57.5t51 145.5q0 -54 -3.5 -99.5t-12.5 -94t-26 -86t-41 -69t-61 -51t-84 -24.5q-84 -10 -157 8t-123.5 55.5t-86.5 89t-53 108t-17 113.5zM251 1236v166h610v-166h-610zM765 0v1057h255v-1057h-255z" />
    <glyph glyph-name="Ubreve" unicode="&#x16c;" 
d="M104 528v906h268v-906q0 -145 82 -233.5t217 -88.5t217 88.5t82 233.5v906h268v-906q0 -118 -46 -224t-123 -181t-181 -118.5t-217 -43.5t-217 43.5t-181 118.5t-123 181t-46 224zM368 1841h128q0 -68 53 -113.5t139 -45.5q87 0 140 45.5t53 113.5h127q0 -78 -26.5 -137
t-72 -93.5t-101 -51.5t-120.5 -17t-120.5 17t-101 51.5t-72 93.5t-26.5 137z" />
    <glyph glyph-name="ubreve" unicode="&#x16d;" horiz-adv-x="1134" 
d="M100 353v704h255v-704q0 -68 57 -110.5t155 -42.5q96 0 147 57.5t51 145.5q0 -54 -3.5 -99.5t-12.5 -94t-26 -86t-41 -69t-61 -51t-84 -24.5q-84 -10 -157 8t-123.5 55.5t-86.5 89t-53 108t-17 113.5zM240 1469h128q0 -68 53 -114t139 -46t139.5 46t53.5 114h127
q0 -78 -26.5 -137t-72 -94t-101 -52t-120.5 -17t-120.5 17t-101 52t-72 94t-26.5 137zM765 0v1057h255v-1057h-255z" />
    <glyph glyph-name="Uring" unicode="&#x16e;" 
d="M104 528v906h268v-906q0 -145 82 -233.5t217 -88.5t217 88.5t82 233.5v906h268v-906q0 -118 -46 -224t-123 -181t-181 -118.5t-217 -43.5t-217 43.5t-181 118.5t-123 181t-46 224zM459 1760q0 89 63 152t152 63t152 -63t63 -152t-63 -152t-152 -63t-152 63t-63 152z
M589 1760q0 -35 25 -59.5t60 -24.5t59.5 24.5t24.5 59.5t-24.5 60t-59.5 25t-60 -25t-25 -60z" />
    <glyph glyph-name="uring" unicode="&#x16f;" horiz-adv-x="1134" 
d="M100 353v704h255v-704q0 -68 57 -110.5t155 -42.5q96 0 147 57.5t51 145.5q0 -54 -3.5 -99.5t-12.5 -94t-26 -86t-41 -69t-61 -51t-84 -24.5q-84 -10 -157 8t-123.5 55.5t-86.5 89t-53 108t-17 113.5zM344 1394q0 89 63 152t152 63t152 -63t63 -152t-63 -152t-152 -63
t-152 63t-63 152zM475 1394q0 -35 24.5 -59.5t59.5 -24.5t59.5 24.5t24.5 59.5t-24.5 59.5t-59.5 24.5t-59.5 -24.5t-24.5 -59.5zM765 0v1057h255v-1057h-255z" />
    <glyph glyph-name="Uhungarumlaut" unicode="&#x170;" 
d="M104 528v906h268v-906q0 -145 82 -233.5t217 -88.5t217 88.5t82 233.5v906h268v-906q0 -118 -46 -224t-123 -181t-181 -118.5t-217 -43.5t-217 43.5t-181 118.5t-123 181t-46 224zM378 1585l178 281h290l-258 -281h-210zM754 1585l178 281h290l-258 -281h-210z" />
    <glyph glyph-name="uhungarumlaut" unicode="&#x171;" horiz-adv-x="1134" 
d="M100 353v704h255v-704q0 -68 57 -110.5t155 -42.5q96 0 147 57.5t51 145.5q0 -54 -3.5 -99.5t-12.5 -94t-26 -86t-41 -69t-61 -51t-84 -24.5q-84 -10 -157 8t-123.5 55.5t-86.5 89t-53 108t-17 113.5zM259 1190l177 281h291l-259 -281h-209zM652 1190l178 281h290
l-258 -281h-210zM765 0v1057h255v-1057h-255z" />
    <glyph glyph-name="Uogonek" unicode="&#x172;" 
d="M104 528v906h268v-906q0 -145 82 -233.5t217 -88.5t217 88.5t82 233.5v906h268v-906q0 -183 -104 -327.5t-267 -204.5q-31 -22 -51.5 -38t-48.5 -43t-44.5 -57.5t-18.5 -62.5q-3 -36 14.5 -59.5t45 -31t57 -6t52.5 11.5v-131q-153 -53 -262 9t-103 186q5 96 119 189
q-141 11 -260.5 86.5t-191 202t-71.5 276.5z" />
    <glyph glyph-name="uogonek" unicode="&#x173;" horiz-adv-x="1134" 
d="M100 353v704h255v-704q0 -68 57 -110.5t155 -42.5q96 0 147 57.5t51 145.5q0 -54 -3.5 -99.5t-12.5 -94t-26 -86t-41 -69t-61 -51t-84 -24.5q-84 -10 -157 8t-123.5 55.5t-86.5 89t-53 108t-17 113.5zM656 -227q2 42 24.5 83.5t58.5 74t51 44.5t35 24l1 1h-61v1057h255
v-1057q-32 -22 -52 -37.5t-50 -44t-47 -59.5t-20 -64q-3 -36 14.5 -59.5t45 -31t57 -6t52.5 11.5v-131q-154 -53 -262 8.5t-102 185.5z" />
    <glyph glyph-name="Wcircumflex" unicode="&#x174;" horiz-adv-x="2029" 
d="M43 1433h273l236 -1352l227 1352h470l227 -1352l235 1352h274l-250 -1433h-510l-211 1298l-212 -1298h-510zM665 1546l158 281h377l159 -281h-221l-126 237l-127 -237h-220z" />
    <glyph glyph-name="wcircumflex" unicode="&#x175;" horiz-adv-x="1570" 
d="M27 1057h309l148 -773l157 773h287l158 -773l147 773h310l-309 -1056h-284l-165 743l-163 -743h-287zM446 1199l158 281h377l158 -281h-220l-127 238l-126 -238h-220z" />
    <glyph glyph-name="Ycircumflex" unicode="&#x176;" horiz-adv-x="1271" 
d="M-4 1432h306l333 -623l333 623h306l-504 -893v-540h-269v540zM288 1544l157 281h378l158 -281h-220l-127 238l-126 -238h-220z" />
    <glyph glyph-name="ycircumflex" unicode="&#x177;" horiz-adv-x="1107" 
d="M18 1058h280l256 -719l256 719h279l-487 -1256q-36 -92 -93.5 -135t-173.5 -43h-126v237h106q31 1 49.5 12.5t32.5 43.5l31 85zM216 1201l157 282h378l158 -282h-220l-127 238l-126 -238h-220z" />
    <glyph glyph-name="Ydieresis" unicode="&#x178;" horiz-adv-x="1271" 
d="M-4 1432h306l333 -623l333 623h306l-504 -893v-540h-269v540zM270 1698q0 53 44.5 90t108.5 37t108.5 -37t44.5 -90t-44.5 -90.5t-108.5 -37.5t-108.5 37.5t-44.5 90.5zM683 1698q0 53 44.5 90t108.5 37t109 -37t45 -90t-45 -90.5t-109 -37.5t-108.5 37.5t-44.5 90.5z
" />
    <glyph glyph-name="Zacute" unicode="&#x179;" horiz-adv-x="1228" 
d="M43 0v225h1132v-225h-1132zM43 225l598 747q53 67 127.5 115.5t143 71t129.5 35t97 14.5l37 1l-584 -741q-54 -68 -130 -118t-146.5 -73t-133 -36t-100.5 -15zM107 1209v225h1068v-225h-1068zM443 1550l177 281h291l-259 -281h-209z" />
    <glyph glyph-name="zacute" unicode="&#x17a;" horiz-adv-x="1046" 
d="M59 -1v225h924v-225h-924zM59 224q312 339 419 454q40 43 104.5 74.5t128.5 46t122.5 22.5t94.5 9l37 1q-292 -316 -427 -462q-38 -41 -101 -71t-126.5 -43.5t-121.5 -21t-94 -8.5zM104 831v225h861v-225h-861zM333 1195l178 281h291l-259 -281h-210z" />
    <glyph glyph-name="Zdot" unicode="&#x17b;" horiz-adv-x="1228" 
d="M43 0v225h1132v-225h-1132zM43 225l598 747q53 67 127.5 115.5t143 71t129.5 35t97 14.5l37 1l-584 -741q-54 -68 -130 -118t-146.5 -73t-133 -36t-100.5 -15zM107 1209v225h1068v-225h-1068zM456 1701q0 53 44.5 90t108.5 37t108.5 -37t44.5 -90t-44.5 -90.5
t-108.5 -37.5t-108.5 37.5t-44.5 90.5z" />
    <glyph glyph-name="zdot" unicode="&#x17c;" horiz-adv-x="1046" 
d="M59 -1v225h924v-225h-924zM59 224q312 339 419 454q40 43 104.5 74.5t128.5 46t122.5 22.5t94.5 9l37 1q-292 -316 -427 -462q-38 -41 -101 -71t-126.5 -43.5t-121.5 -21t-94 -8.5zM104 831v225h861v-225h-861zM405 1318q0 53 44.5 90.5t108.5 37.5t109 -37.5t45 -90.5
t-45 -90.5t-109 -37.5t-108.5 37.5t-44.5 90.5z" />
    <glyph glyph-name="Zcaron" unicode="&#x17d;" horiz-adv-x="1228" 
d="M43 0v225h1132v-225h-1132zM43 225l598 747q53 67 127.5 115.5t143 71t129.5 35t97 14.5l37 1l-584 -741q-54 -68 -130 -118t-146.5 -73t-133 -36t-100.5 -15zM107 1209v225h1068v-225h-1068zM321 1847h219l127 -238l126 238h221l-159 -282h-377z" />
    <glyph glyph-name="zcaron" unicode="&#x17e;" horiz-adv-x="1046" 
d="M59 -1v225h924v-225h-924zM59 224q312 339 419 454q40 43 104.5 74.5t128.5 46t122.5 22.5t94.5 9l37 1q-292 -316 -427 -462q-38 -41 -101 -71t-126.5 -43.5t-121.5 -21t-94 -8.5zM104 831v225h861v-225h-861zM198 1476h220l126 -237l127 237h220l-158 -281h-378z" />
    <glyph glyph-name="Acaron" unicode="&#x1cd;" horiz-adv-x="1478" 
d="M14 -1l460 1433h517l472 -1433h-277l-131 394h-636l-128 -394h-277zM382 1824h220l126 -238l127 238h220l-158 -282h-377zM493 621h486l-246 739z" />
    <glyph glyph-name="acaron" unicode="&#x1ce;" horiz-adv-x="1087" 
d="M63 325q0 157 114 253t282 96h160q48 0 78.5 24.5t28.5 59.5q-4 59 -50 90t-128 31q-52 0 -97.5 -28t-63.5 -69h-255q17 79 59 139t100 94.5t122.5 51t134.5 16.5q74 0 148 -18.5t139 -53.5t106 -94t41 -133v-783h-256v757q0 -153 -43 -211.5t-124 -58.5h-58
q-29 0 -55.5 -5t-55 -18t-48 -40t-23.5 -66q-8 -69 43.5 -119.5t138.5 -50.5q86 0 155.5 52t69.5 119q0 -183 -70 -281.5t-199 -102.5q-93 -3 -170 27t-124.5 81t-73.5 113.5t-26 127.5zM207 1474h219l127 -238l126 238h221l-158 -282h-378z" />
    <glyph glyph-name="Icaron" unicode="&#x1cf;" horiz-adv-x="514" 
d="M-98 1820h219l127 -237l126 237h221l-159 -281h-377zM123 -1v1434h268v-1434h-268z" />
    <glyph glyph-name="icaron" unicode="&#x1d0;" horiz-adv-x="483" 
d="M-102 1471h219l127 -238l126 238h221l-159 -282h-377zM114 0v1056h255v-1056h-255z" />
    <glyph glyph-name="Ocaron" unicode="&#x1d1;" horiz-adv-x="1525" 
d="M63 717q0 209 85 380.5t244.5 273.5t363.5 102q153 0 286 -59.5t224.5 -161.5t143.5 -241t52 -294t-52 -294t-143.5 -241t-224.5 -161.5t-286 -59.5q-204 0 -363.5 102t-244.5 273.5t-85 380.5zM331 717q0 -106 27.5 -201t79.5 -169t134.5 -117.5t184.5 -43.5
q135 0 236.5 75t151.5 194t50 262t-50 262t-151.5 194.5t-236.5 75.5t-233.5 -75.5t-145.5 -194t-47 -262.5zM412 1828h219l127 -238l126 238h221l-158 -282h-378z" />
    <glyph glyph-name="ocaron" unicode="&#x1d2;" horiz-adv-x="1179" 
d="M66 529q0 128 43.5 234.5t116.5 175.5t166.5 106.5t196.5 37.5t197 -38t167 -107t116.5 -175t43.5 -234t-42.5 -234t-115 -174.5t-167 -106.5t-199.5 -39q-105 1 -199 38.5t-166.5 106.5t-115 175t-42.5 234zM239 1475h220l126 -237l127 237h221l-159 -281h-377zM322 529
q0 -157 78 -242t189 -87q111 2 189.5 87t78.5 242q0 149 -79 238t-189 91q-110 -2 -188.5 -91t-78.5 -238z" />
    <glyph glyph-name="Ucaron" unicode="&#x1d3;" 
d="M104 528v906h268v-906q0 -145 82 -233.5t217 -88.5t217 88.5t82 233.5v906h268v-906q0 -118 -46 -224t-123 -181t-181 -118.5t-217 -43.5t-217 43.5t-181 118.5t-123 181t-46 224zM341 1841h220l126 -237l127 237h220l-158 -281h-378z" />
    <glyph glyph-name="ucaron" unicode="&#x1d4;" horiz-adv-x="1134" 
d="M100 353v704h255v-704q0 -68 57 -110.5t155 -42.5q96 0 147 57.5t51 145.5q0 -54 -3.5 -99.5t-12.5 -94t-26 -86t-41 -69t-61 -51t-84 -24.5q-84 -10 -157 8t-123.5 55.5t-86.5 89t-53 108t-17 113.5zM226 1471h220l126 -238l127 238h220l-158 -282h-377zM765 0v1057h255
v-1057h-255z" />
    <glyph glyph-name="Gcaron" unicode="&#x1e6;" horiz-adv-x="1509" 
d="M66 718q0 159 50.5 299.5t138 240.5t209.5 158t259 58q117 0 220.5 -28.5t180 -78t135 -115.5t92.5 -141t46 -154h-266q-14 59 -47 111.5t-82 94t-120 65t-153 20.5q-123 -4 -215 -80.5t-137 -194t-45 -255.5q0 -103 23.5 -192.5t70.5 -162.5t124.5 -119t178.5 -56
q60 -6 120.5 3.5t118 37.5t103.5 71t77 108.5t38 144.5q0 -26 -0.5 -45t-4.5 -63.5t-11.5 -79.5t-24 -84.5t-38.5 -87.5t-57.5 -80t-80 -71t-107 -50.5t-136.5 -27.5q-147 -13 -272.5 42.5t-209.5 160t-131 247.5t-47 304zM391 1821h219l127 -238l126 238h221l-159 -282
h-377zM729 553v224h684v-776h-227v552h-457z" />
    <glyph glyph-name="gcaron" unicode="&#x1e7;" horiz-adv-x="1157" 
d="M63 614q0 119 73 222t190.5 162t246.5 59h1q84 0 165 -26l166 166l162 -162l-123 -124q139 -129 139 -297q0 -98 -47.5 -182.5t-122 -138.5t-161.5 -84t-171 -30q-258 4 -388 126t-130 309zM74 -20q0 10 2 28h253q-2 -14 -2 -21q0 -63 75 -101t174 -38q98 0 169.5 46.5
t77.5 112.5q6 71 -52.5 121t-189.5 51q180 0 287.5 -21.5t155 -64t53.5 -113.5q8 -95 -64.5 -178.5t-190.5 -131t-246 -47.5q-127 0 -242.5 47.5t-187.5 130.5t-72 179zM200 1477h220l126 -238l127 238h220l-158 -282h-377zM316 614q0 -100 68.5 -166t188.5 -66
q115 0 186 68.5t71 163.5q0 84 -75.5 151.5t-181.5 67.5q-110 0 -183.5 -67t-73.5 -152z" />
    <glyph glyph-name="Gacute" unicode="&#x1f4;" horiz-adv-x="1509" 
d="M66 718q0 159 50.5 299.5t138 240.5t209.5 158t259 58q117 0 220.5 -28.5t180 -78t135 -115.5t92.5 -141t46 -154h-266q-14 59 -47 111.5t-82 94t-120 65t-153 20.5q-123 -4 -215 -80.5t-137 -194t-45 -255.5q0 -103 23.5 -192.5t70.5 -162.5t124.5 -119t178.5 -56
q60 -6 120.5 3.5t118 37.5t103.5 71t77 108.5t38 144.5q0 -26 -0.5 -45t-4.5 -63.5t-11.5 -79.5t-24 -84.5t-38.5 -87.5t-57.5 -80t-80 -71t-107 -50.5t-136.5 -27.5q-147 -13 -272.5 42.5t-209.5 160t-131 247.5t-47 304zM526 1540l177 281h291l-259 -281h-209zM729 553
v224h684v-776h-227v552h-457z" />
    <glyph glyph-name="gacute" unicode="&#x1f5;" horiz-adv-x="1157" 
d="M63 614q0 119 73 222t190.5 162t246.5 59h1q81 0 165 -27l166 167l162 -163l-123 -123q139 -129 139 -297q0 -98 -47.5 -182.5t-122 -138.5t-161.5 -84t-171 -30q-258 4 -388 126t-130 309zM74 -20q0 10 2 28h253q-2 -14 -2 -21q0 -63 75 -101.5t174 -38.5q98 0 169.5 47
t77.5 113q6 71 -52.5 121t-189.5 51q180 0 287.5 -21.5t155 -64t53.5 -113.5q8 -95 -64.5 -178.5t-190.5 -131t-246 -47.5q-127 0 -242.5 47.5t-187.5 130.5t-72 179zM316 614q0 -100 68.5 -166t188.5 -66q115 0 186 68.5t71 163.5q0 84 -75.5 151.5t-181.5 67.5
q-110 0 -183.5 -67t-73.5 -152zM316 1196l177 281h291l-259 -281h-209z" />
    <glyph glyph-name="uni01f8" unicode="&#x1f8;" horiz-adv-x="1406" 
d="M123 0v1433h356l536 -1104v1104h267v-1433h-345l-546 1104v-1104h-268zM479 1828h290l178 -281h-210z" />
    <glyph glyph-name="uni01f9" unicode="&#x1f9;" horiz-adv-x="1159" 
d="M115 0v1057h255v-1057h-255zM370 681q0 171 58.5 277t177.5 121q55 7 115.5 -4t118 -41.5t104 -75.5t75 -111t28.5 -143v-704h-255v681q0 71 -58 123.5t-153 52.5q-89 0 -150 -53t-61 -123zM402 1473h291l177 -281h-209z" />
    <glyph glyph-name="Scommaaccent" unicode="&#x218;" horiz-adv-x="1310" 
d="M63 463h267q0 -43 17.5 -86.5t52.5 -84.5t98 -69.5t145 -34.5q129 -10 227.5 46t99.5 151q1 72 -52.5 116.5t-141.5 67.5l-283 66q-188 43 -291 144.5t-103 281.5q0 119 71.5 213.5t197 146.5t282.5 52q137 0 247 -36.5t179.5 -100t106.5 -146t37 -176.5h-268
q0 94 -82 164.5t-220 70.5q-118 0 -200.5 -54.5t-82.5 -131.5q0 -120 171 -164l282 -65q195 -48 306.5 -159t111.5 -290q0 -98 -51.5 -181t-135.5 -136t-189.5 -81.5t-215.5 -25.5q-112 3 -208.5 33.5t-164 79.5t-116 113t-71.5 134.5t-23 141.5zM522 -439l75 347h227
l-112 -347h-190z" />
    <glyph glyph-name="scommaaccent" unicode="&#x219;" horiz-adv-x="1073" 
d="M66 342h255q0 -60 66 -99t152 -42q83 -3 144.5 27.5t61.5 75.5q0 38 -28.5 60t-91.5 33l-239 42q-60 11 -113 36t-96 65t-66.5 100.5t-19.5 133.5q7 128 135 218.5t304 90.5q100 0 188.5 -30.5t145 -77.5t85.5 -105.5t20 -113.5h-256q0 35 -53.5 67t-121.5 36
q-80 5 -135 -21.5t-55 -74.5q0 -68 134 -91l248 -44q123 -22 198 -104.5t75 -215.5q0 -84 -39.5 -150t-106 -105.5t-148 -59t-170.5 -16.5q-106 3 -196.5 35.5t-150 83.5t-93 115t-33.5 131zM435 -432l75 347h227l-112 -347h-190z" />
    <glyph glyph-name="uni021a" unicode="&#x21a;" horiz-adv-x="1185" 
d="M10 1196v237h1164v-237h-263q-4 0 -10.5 -0.5t-26 -4t-37 -10t-39 -21t-37 -33.5t-26 -50t-10.5 -69v-1009h-266v991q0 42 21.5 76t55.5 55t75.5 36.5t82.5 22.5t75 11t55 5h22h-836zM443 -440l75 347h228l-112 -347h-191z" />
    <glyph glyph-name="uni021b" unicode="&#x21b;" horiz-adv-x="688" 
d="M37 858v199h154v377h255v-377h179v-199h-555q27 0 61 -2t93.5 -11t105.5 -25t81 -47.5t35 -74.5v-392q0 -33 23 -57t55 -24h101v-225h-174q-107 0 -183.5 76t-76.5 184v456q0 40 -13.5 69t-32.5 42.5t-37.5 21t-31.5 8.5l-14 1h-25zM324 -439l75 346h227l-112 -346h-190z
" />
    <glyph glyph-name="uni021e" unicode="&#x21e;" horiz-adv-x="1452" 
d="M123 -1v1434h268v-574h669v574h268v-1434h-268v635h-669v-635h-268zM377 1813h221l126 -237l127 237h219l-157 -281h-377z" />
    <glyph glyph-name="uni021f" unicode="&#x21f;" horiz-adv-x="1146" 
d="M-109 1777h220l126 -237l127 237h220l-158 -281h-377zM114 0v1433h255v-1433h-255zM369 623v-7v7zM369 623q1 204 84.5 325.5t205.5 131.5q93 8 181 -35t147 -134.5t59 -208.5v-702h-255v616q0 109 -50 179t-161 70q-105 0 -157 -65.5t-54 -176.5z" />
    <glyph glyph-name="uni023b" unicode="&#x23b;" horiz-adv-x="1390" 
d="M74 716q0 209 78 380.5t223.5 273.5t330.5 102q211 0 359 -92l116 166l148 -102l-128 -185q102 -128 128 -304h-266q-12 38 -25 69l-529 -763q86 -73 197 -73q130 0 214.5 73.5t136.5 215.5h265q-22 -109 -69 -198t-107.5 -147.5t-134.5 -98t-149.5 -56.5t-153.5 -17
q-192 0 -339 98l-110 -159l-149 103l126 181q-162 207 -162 533zM340 716q0 -164 58 -298l526 758q-92 72 -218 68q-109 -3 -194.5 -83t-128.5 -198t-43 -247z" />
    <glyph glyph-name="uni023c" unicode="&#x23c;" horiz-adv-x="1153" 
d="M72 496q-5 125 35 235.5t110.5 187t166 120.5t199.5 44q129 0 240 -54l88 128l148 -103l-92 -133q96 -105 121 -257h-274q-3 11 -8 25l-322 -465q45 -24 102 -24q80 0 139 52.5t76 125.5h283q-37 -177 -172 -289.5t-324 -112.5q-131 0 -238 56l-87 -127l-149 103l93 134
q-126 142 -135 354zM339 529q0 -83 27 -159l321 463q-49 26 -101 26q-104 0 -175.5 -97t-71.5 -233z" />
    <glyph glyph-name="circumflex" unicode="&#x2c6;" horiz-adv-x="829" 
d="M68 1191l157 282h377l159 -282h-221l-126 238l-127 -238h-219z" />
    <glyph glyph-name="caron" unicode="&#x2c7;" horiz-adv-x="780" 
d="M43 1473h220l126 -238l127 238h220l-158 -282h-378z" />
    <glyph glyph-name="breve" unicode="&#x2d8;" horiz-adv-x="784" 
d="M72 1473h127q0 -68 53.5 -114t139.5 -46t139 46t53 114h128q0 -78 -26.5 -137t-72 -94t-101 -52t-120.5 -17t-120.5 17t-101 52t-72 94t-26.5 137z" />
    <glyph glyph-name="dotaccent" unicode="&#x2d9;" horiz-adv-x="454" 
d="M74 1345q0 53 44.5 90.5t108.5 37.5t108.5 -37.5t44.5 -90.5t-44.5 -90t-108.5 -37t-108.5 37t-44.5 90z" />
    <glyph glyph-name="ogonek" unicode="&#x2db;" horiz-adv-x="612" 
d="M123 -227q1 21 7.5 42t17 39t23 35.5t27 32t28 27t26 22t22 16t14.5 9.5l6 4h194q-31 -22 -51.5 -38t-50.5 -44t-47 -59.5t-20 -64.5q-3 -36 14.5 -59.5t45 -31t57 -6t52.5 11.5v-130q-154 -53 -262.5 8.5t-102.5 185.5z" />
    <glyph glyph-name="ilde" unicode="&#x2dc;" horiz-adv-x="862" 
d="M74 1206v18q0 52 19.5 96.5t50.5 72.5t71 47t80 19t78 -11q171 -62 184 -67q38 -11 70 10t32 64v18h132v-18q0 -78 -43 -138.5t-113 -84.5t-144 -1q-86 28 -183 66q-38 11 -70.5 -10t-32.5 -63v-18h-131z" />
    <glyph glyph-name="hungarumlaut" unicode="&#x2dd;" horiz-adv-x="954" 
d="M68 1192l177 281h291l-259 -281h-209zM461 1192l177 281h291l-259 -281h-209z" />
    <glyph glyph-name="Pi" unicode="&#x3a0;" horiz-adv-x="1259" 
d="M59 1194v240h1136v-240h-105l5 -1193l-240 -1l-5 1194h-441v-1194h-240v1194h-110z" />
    <glyph glyph-name="pi" unicode="&#x3c0;" horiz-adv-x="1120" 
d="M51 709v240h995v-240h-113v-432q0 -9 7 -19q12 -18 61 -18h45v-240h-45q-73 0 -137 25q-82 33 -130 110q-41 68 -41 139v435h-290v-709h-240v709h-112z" />
    <glyph glyph-name="gmacron" unicode="&#x1e21;" horiz-adv-x="1157" 
d="M63 614q0 119 73 222t190.5 162t246.5 59h1q81 0 165 -27l166 167l162 -163l-123 -123q139 -129 139 -297q0 -98 -47.5 -182.5t-122 -138.5t-161.5 -84t-171 -30q-258 4 -388 126t-130 309zM74 -20q0 10 2 28h253q-2 -14 -2 -21q0 -63 75 -101.5t174 -38.5q98 0 169.5 47
t77.5 113q6 71 -52.5 121t-189.5 51q180 0 287.5 -21.5t155 -64t53.5 -113.5q8 -95 -64.5 -178.5t-190.5 -131t-246 -47.5q-127 0 -242.5 47.5t-187.5 130.5t-72 179zM279 1242v166h609v-166h-609zM316 614q0 -100 68.5 -166t188.5 -66q115 0 186 68.5t71 163.5
q0 84 -75.5 151.5t-181.5 67.5q-110 0 -183.5 -67t-73.5 -152z" />
    <glyph glyph-name="Wgrave" unicode="&#x1e80;" horiz-adv-x="2029" 
d="M43 1433h273l236 -1352l227 1352h470l227 -1352l235 1352h274l-250 -1433h-510l-211 1298l-212 -1298h-510zM775 1827h290l178 -281h-210z" />
    <glyph glyph-name="wgrave" unicode="&#x1e81;" horiz-adv-x="1570" 
d="M27 1057h309l148 -773l157 773h287l158 -773l147 773h310l-309 -1056h-284l-165 743l-163 -743h-287zM545 1480h290l178 -281h-210z" />
    <glyph glyph-name="Wacute" unicode="&#x1e82;" horiz-adv-x="2029" 
d="M43 1433h273l236 -1352l227 1352h470l227 -1352l235 1352h274l-250 -1433h-510l-211 1298l-212 -1298h-510zM788 1546l178 281h290l-258 -281h-210z" />
    <glyph glyph-name="wacute" unicode="&#x1e83;" horiz-adv-x="1570" 
d="M27 1057h309l148 -773l157 773h287l158 -773l147 773h310l-309 -1056h-284l-165 743l-163 -743h-287zM569 1199l178 281h290l-258 -281h-210z" />
    <glyph glyph-name="Wdieresis" unicode="&#x1e84;" horiz-adv-x="2029" 
d="M43 1433h273l236 -1352l227 1352h470l227 -1352l235 1352h274l-250 -1433h-510l-211 1298l-212 -1298h-510zM647 1700q0 53 44.5 90t108.5 37t108.5 -37t44.5 -90t-44.5 -90.5t-108.5 -37.5t-108.5 37.5t-44.5 90.5zM1060 1700q0 53 44.5 90t108.5 37t108.5 -37t44.5 -90
t-44.5 -90.5t-108.5 -37.5t-108.5 37.5t-44.5 90.5z" />
    <glyph glyph-name="wdieresis" unicode="&#x1e85;" horiz-adv-x="1570" 
d="M27 1057h309l148 -773l157 773h287l158 -773l147 773h310l-309 -1056h-284l-165 743l-163 -743h-287zM415 1322q0 53 44.5 90.5t108.5 37.5t108.5 -37.5t44.5 -90.5t-44.5 -90t-108.5 -37t-108.5 37t-44.5 90zM828 1322q0 53 44.5 90.5t108.5 37.5t108.5 -37.5
t44.5 -90.5t-44.5 -90t-108.5 -37t-108.5 37t-44.5 90z" />
    <glyph glyph-name="uni1e9e" unicode="&#x1e9e;" horiz-adv-x="1331" 
d="M106 1v973q0 125 75 231t204.5 168t281.5 62q117 0 221.5 -37.5t182.5 -103.5q95 -80 135 -192h1h-1l1 -1l-229 -300q134 -54 213.5 -163t79.5 -240q0 -194 -140 -315t-364 -121q-63 0 -134.5 18.5t-96.5 36.5v243q28 -24 97.5 -48.5t133.5 -24.5q116 0 178 57t62 154
q0 108 -87.5 183.5t-218.5 75.5v152l220 289q-40 51 -107.5 81.5t-146.5 30.5q-123 0 -210 -69t-87 -167v-973h-264z" />
    <glyph glyph-name="Etilde" unicode="&#x1ebc;" horiz-adv-x="1253" 
d="M123 -1v1434h1055v-228h-787v-377h710v-225h-710v-377h787v-227h-1055zM322 1541v18q0 52 19.5 96.5t51 73t71 47.5t80 19t78.5 -11q170 -62 183 -67q38 -11 70.5 10t32.5 64v18h131v-18q0 -78 -43 -139t-112.5 -85t-143.5 -1q-74 24 -184 67q-38 11 -70 -10t-32 -64v-18
h-132z" />
    <glyph glyph-name="etilde" unicode="&#x1ebd;" horiz-adv-x="1177" 
d="M66 529q0 128 43.5 234.5t116.5 175.5t166.5 106.5t196.5 37.5t197 -38t167 -107t116.5 -175t43.5 -234q0 -37 -3 -71h-783q18 -123 92 -189.5t170 -68.5q62 1 118 30t93 84h278q-57 -159 -190 -248t-299 -91q-105 1 -199 38.5t-166.5 106.5t-115 175t-42.5 234z
M249 1184v18q0 52 19.5 96.5t51 72.5t71 47t80 19t78.5 -11q170 -61 183 -66q38 -11 70 9.5t32 63.5v18h132v-18q0 -78 -43 -138.5t-113 -84.5t-144 -1q-86 29 -183 66q-38 11 -70.5 -10t-32.5 -63v-18h-131zM335 652h509q-38 99 -105 151.5t-150 54.5q-84 -2 -150 -54
t-104 -152z" />
    <glyph glyph-name="Ygrave" unicode="&#x1ef2;" horiz-adv-x="1271" 
d="M-4 1432h306l333 -623l333 623h306l-504 -893v-540h-269v540zM424 1825h291l177 -281h-209z" />
    <glyph glyph-name="ygrave" unicode="&#x1ef3;" horiz-adv-x="1107" 
d="M18 1058h280l256 -719l256 719h279l-487 -1256q-36 -92 -93.5 -135t-173.5 -43h-126v237h106q31 1 49.5 12.5t32.5 43.5l31 85zM310 1483h291l177 -282h-209z" />
    <glyph glyph-name="Ytilde" unicode="&#x1ef8;" horiz-adv-x="1271" 
d="M-4 1432h306l333 -623l333 623h306l-504 -893v-540h-269v540zM293 1560v18q0 52 19.5 96.5t51 72.5t71 47t80 19t78.5 -11q170 -61 183 -66q38 -11 70.5 10t32.5 63v18h131v-18q0 -78 -43 -138.5t-113 -84.5t-144 -1q-66 22 -183 67q-38 11 -70.5 -10t-32.5 -64v-18h-131
z" />
    <glyph glyph-name="ytilde" unicode="&#x1ef9;" horiz-adv-x="1107" 
d="M18 1057h280l256 -719l256 719h279l-487 -1256q-36 -92 -93.5 -135t-173.5 -43h-126v237h106q31 1 49.5 12.5t32.5 43.5l31 85zM195 1185v18q0 52 19.5 96.5t51 73t71 47.5t80 19t78.5 -11q170 -62 183 -67q38 -11 70.5 10t32.5 64v17h131v-17q0 -78 -43 -139t-112.5 -85
t-143.5 -1q-73 24 -184 67q-38 11 -70 -10t-32 -64v-18h-132z" />
    <glyph glyph-name="uni2000" unicode="&#x2000;" horiz-adv-x="987" 
 />
    <glyph glyph-name="uni2001" unicode="&#x2001;" horiz-adv-x="1975" 
 />
    <glyph glyph-name="uni2002" unicode="&#x2002;" horiz-adv-x="987" 
 />
    <glyph glyph-name="uni2003" unicode="&#x2003;" horiz-adv-x="1975" 
 />
    <glyph glyph-name="uni2004" unicode="&#x2004;" horiz-adv-x="658" 
 />
    <glyph glyph-name="uni2005" unicode="&#x2005;" horiz-adv-x="493" 
 />
    <glyph glyph-name="uni2006" unicode="&#x2006;" horiz-adv-x="329" 
 />
    <glyph glyph-name="uni2007" unicode="&#x2007;" horiz-adv-x="329" 
 />
    <glyph glyph-name="uni2008" unicode="&#x2008;" horiz-adv-x="246" 
 />
    <glyph glyph-name="uni2009" unicode="&#x2009;" horiz-adv-x="395" 
 />
    <glyph glyph-name="uni200A" unicode="&#x200a;" horiz-adv-x="109" 
 />
    <glyph glyph-name="uni2010" unicode="&#x2010;" horiz-adv-x="653" 
d="M76 391v220h501v-220h-501z" />
    <glyph glyph-name="uni2011" unicode="&#x2011;" horiz-adv-x="653" 
d="M76 391v220h501v-220h-501z" />
    <glyph glyph-name="figuredash" unicode="&#x2012;" horiz-adv-x="653" 
d="M76 391v220h501v-220h-501z" />
    <glyph glyph-name="endash" unicode="&#x2013;" horiz-adv-x="1155" 
d="M76 393v219h1003v-219h-1003z" />
    <glyph glyph-name="emdash" unicode="&#x2014;" horiz-adv-x="1656" 
d="M76 393v219h1505v-219h-1505z" />
    <glyph glyph-name="quoteleft" unicode="&#x2018;" horiz-adv-x="542" 
d="M84 860l166 614h211l-104 -614h-273z" />
    <glyph glyph-name="quotesinglbase" unicode="&#x201a;" horiz-adv-x="458" 
d="M25 -281l93 522h268l-149 -522h-212z" />
    <glyph glyph-name="quoteleftreversed" unicode="&#x201b;" horiz-adv-x="538" 
d="M88 860l105 614h272l-166 -614h-211z" />
    <glyph glyph-name="quotedblleft" unicode="&#x201c;" horiz-adv-x="976" 
d="M84 823l166 614h211l-104 -614h-273zM510 823h1l165 614h212l-105 -614h-273z" />
    <glyph glyph-name="quotedblright" unicode="&#x201d;" horiz-adv-x="974" 
d="M88 823l105 614h272l-165 -614h-212zM515 823l104 614h273l-166 -614h-211z" />
    <glyph glyph-name="quotedblbase" unicode="&#x201e;" horiz-adv-x="864" 
d="M25 -281l93 522h268l-149 -522h-212zM429 -281l93 522h269l-150 -522h-212z" />
    <glyph glyph-name="dagger" unicode="&#x2020;" horiz-adv-x="1349" 
d="M80 858v228h480v481h226v-481h483v-228h-483v-1235h-226v1235h-480z" />
    <glyph glyph-name="daggerdbl" unicode="&#x2021;" horiz-adv-x="1394" 
d="M102 98v229h482v774h-482v229h482v480h226v-480h482v-229h-482v-774h482v-229h-482v-474h-226v474h-482z" />
    <glyph glyph-name="bullet" unicode="&#x2022;" horiz-adv-x="825" 
d="M90 721q0 123 95 210.5t228 87.5t227.5 -87.5t94.5 -210.5t-94.5 -210t-227.5 -87q-134 0 -228.5 87t-94.5 210z" />
    <glyph glyph-name="ellipsis" unicode="&#x2026;" horiz-adv-x="1409" 
d="M80 157q0 65 49.5 111t120.5 46t120.5 -46t49.5 -111t-49.5 -111t-120.5 -46t-120.5 46t-49.5 111zM534 157q0 65 49.5 111t120.5 46t120.5 -46t49.5 -111t-49.5 -111t-120.5 -46t-120.5 46t-49.5 111zM988 157q0 65 49.5 111t120.5 46t120.5 -46t49.5 -111t-49.5 -111
t-120.5 -46t-120.5 46t-49.5 111z" />
    <glyph glyph-name="uni202F" unicode="&#x202f;" horiz-adv-x="395" 
 />
    <glyph glyph-name="perthousand" unicode="&#x2030;" horiz-adv-x="2535" 
d="M92 1072q0 163 99.5 260t238.5 97t238.5 -97t99.5 -260t-98.5 -259.5t-239.5 -97.5q-141 1 -239.5 97t-98.5 260zM245 0l1036 1413h234l-1037 -1413h-233zM266 1072q0 -96 48 -148.5t116 -53.5q68 1 116 53.5t48 148.5q0 91 -48.5 146t-115.5 56q-67 -1 -115.5 -55.5
t-48.5 -146.5zM991 358q0 163 99.5 260t238.5 97t238.5 -97t99.5 -260t-98.5 -260t-239.5 -98q-141 1 -239.5 97.5t-98.5 260.5zM1165 358q0 -96 48 -148.5t116 -53.5q68 1 116 53.5t48 148.5q0 91 -48.5 145.5t-115.5 55.5q-68 -1 -116 -55t-48 -146zM1768 358
q0 163 99.5 260t238.5 97t238.5 -97t99.5 -260t-98.5 -260t-239.5 -98q-141 1 -239.5 97.5t-98.5 260.5zM1942 358q0 -96 48 -148.5t116 -53.5q68 1 116 53.5t48 148.5q0 91 -48.5 145.5t-115.5 55.5q-68 -1 -116 -55t-48 -146z" />
    <glyph glyph-name="guilsinglleft" unicode="&#x2039;" horiz-adv-x="782" 
d="M80 526l345 413h273l-343 -413l348 -406h-279z" />
    <glyph glyph-name="guilsinglright" unicode="&#x203a;" horiz-adv-x="782" 
d="M78 120l348 406l-344 413h274l345 -413l-344 -406h-279z" />
    <glyph glyph-name="fraction" unicode="&#x2044;" horiz-adv-x="985" 
d="M53 0l651 1433h232l-651 -1433h-232z" />
    <glyph glyph-name="uni205F" unicode="&#x205f;" horiz-adv-x="493" 
 />
    <glyph glyph-name="Euro" unicode="&#x20ac;" horiz-adv-x="1605" 
d="M96 471v164h922v-164h-460q43 -112 124.5 -177t198.5 -65q130 0 214.5 73.5t136.5 215.5h265q-22 -109 -69 -198t-107.5 -147.5t-134.5 -98t-149.5 -56.5t-153.5 -17q-238 0 -393.5 125.5t-211.5 344.5h-182zM96 800v164h922v-164h-498q-3 -21 -4 -48q-1 -24 -14.5 -43.5
t-33 -31t-48 -20.5t-51.5 -13t-51.5 -6t-40.5 -2.5t-25 -0.5q-3 40 -3 84q0 42 3 81h-156zM281 964q60 216 219 343t381 127q145 0 260.5 -43.5t188.5 -118t116 -163.5t58 -192h-267q-17 59 -44.5 108.5t-69.5 92.5t-104.5 66.5t-137.5 21.5q-143 -4 -244 -120
q-60 -70 -135 -96t-221 -26z" />
    <glyph glyph-name="uni20bf" unicode="&#x20bf;" horiz-adv-x="1441" 
d="M123 1v1433h275v174h164v-174h165v174h164v-175q79 -5 154 -39t129.5 -86t78.5 -124.5t4 -147.5q-8 -28 -22.5 -51.5t-31.5 -40.5t-43.5 -30.5t-48.5 -22t-56.5 -14.5t-57.5 -9t-61.5 -4.5t-58.5 -1.5h-58q77 0 129 45.5t52 118.5q0 75 -53 128t-128 53h-430v-345h430
q95 0 173 -18t130 -47t92.5 -70t62.5 -81.5t36 -87t18.5 -82.5t4.5 -71q0 -124 -67 -224h-1v-2q-67 -100 -179 -147q-74 -31 -155 -31h-43v-174h-164v174h-165v-174h-164v174h-275zM389 229h496q75 0 129.5 63t54.5 141t-55 139.5t-130 61.5h-495v-405z" />
    <glyph glyph-name="trademark" unicode="&#x2122;" horiz-adv-x="1574" 
d="M74 1318v116h572v-116h-221v-589h-130v589h-221zM769 729v705h172l179 -571l179 571h172v-705h-132v471l-150 -471h-138l-150 471v-471h-132z" />
    <glyph glyph-name="product" unicode="&#x220f;" 
d="M102 1193v240h1136v-240h-105l5 -1193h-240l-5 1193h-441v-1193h-240v1193h-110z" />
    <glyph glyph-name="minus" unicode="&#x2212;" horiz-adv-x="1656" 
d="M76 392v220h1505v-220h-1505z" />
    <glyph glyph-name="radical" unicode="&#x221a;" horiz-adv-x="1548" 
d="M74 918l459 149l284 -875l408 1280h267l-490 -1472h-368l-268 777l-222 -73z" />
    <glyph glyph-name="approxequal" unicode="&#x2248;" horiz-adv-x="1265" 
d="M102 143v251q95 65 197 81q173 29 400 -75q279 -129 463 29v-251q-74 -41 -156 -55q-173 -29 -400 75q-163 72 -277.5 57.5t-226.5 -112.5zM102 559v251q95 65 197 81q173 29 400 -75q279 -129 463 29v-251q-74 -41 -156 -55q-173 -29 -400 75q-163 72 -277.5 57.5
t-226.5 -112.5z" />
    <glyph glyph-name="notequal" unicode="&#x2260;" horiz-adv-x="1212" 
d="M104 174v220h336l98 217h-434v220h534l103 226h232l-103 -226h238v-220h-338l-98 -217h436v-220h-536l-79 -173h-232l79 173h-236z" />
    <glyph glyph-name="lessequal" unicode="&#x2264;" 
d="M106 1v248h1125v-248h-1125zM106 646v346l1125 351v-254l-902 -269l902 -260v-254z" />
    <glyph glyph-name="greaterequal" unicode="&#x2265;" 
d="M111 1v248h1124v-248h-1124zM111 306v254l901 260l-901 269v254l1124 -351v-346z" />
    <glyph glyph-name="uni25FC" unicode="&#x25fc;" horiz-adv-x="1054" 
d="M0 0v1055h1055v-1055h-1055z" />
    <glyph glyph-name="a.alt1" unicode="&#xf000;" horiz-adv-x="1087" 
d="M63 325q0 157 114 253t282 96h160q48 0 78.5 24.5t28.5 59.5q-4 59 -50 89.5t-128 30.5q-52 0 -97.5 -28t-63.5 -68h-255q22 104 89 174t149 98t178 28q74 0 148 -18t139 -53t106 -94t41 -133v-783h-256v508q-54 -21 -116 -21h-109q-29 0 -55.5 -5.5t-55 -18.5t-48 -40
t-23.5 -66q-8 -69 43.5 -119t138.5 -50q86 0 155.5 51.5t69.5 118.5q0 -191 -68 -281.5t-201 -100.5q-93 -7 -170 22t-124.5 81t-73.5 116t-26 129z" />
    <glyph glyph-name="a.alt2" unicode="&#xf001;" horiz-adv-x="1089" 
d="M66 325q0 144 97 238q-50 108 -29 219q22 104 89 174t149 98t178 28q74 0 148 -18t139 -53t106 -94t41 -133v-783h-255v757q0 -153 -43.5 -211.5t-124.5 -58.5h-58q-29 0 -55.5 -5.5t-55 -18.5t-48 -40t-23.5 -66q-8 -69 43.5 -119t138.5 -50q86 0 156 51.5t70 118.5
q0 -183 -70.5 -281.5t-199.5 -102.5q-93 -3 -170 27t-124.5 81.5t-73 114t-25.5 127.5zM386 669q30 5 75 5h160q48 0 78.5 24.5t28.5 59.5q-4 59 -50 89.5t-128 30.5q-52 0 -97.5 -28t-63.5 -68q-25 -56 -3 -113z" />
    <glyph glyph-name="a.alt3" unicode="&#xf002;" horiz-adv-x="1077" 
d="M47 325q0 157 114 253t282 96h159q48 0 79 24.5t29 59.5v120h-408v204h509q64 0 109 -45t45 -109v-927h-255v508q-54 -21 -117 -21h-108q-29 0 -56 -5.5t-55.5 -18.5t-48 -40t-23.5 -66q-8 -69 44 -119t139 -50q86 0 155.5 51.5t69.5 118.5q0 -190 -68.5 -281
t-201.5 -101q-93 -7 -170 22t-124 81t-73 116t-26 129z" />
    <glyph glyph-name="a.alt4" unicode="&#xf003;" horiz-adv-x="1157" 
d="M63 325q0 157 114 253t282 96h160q48 0 78.5 24.5t28.5 59.5q-4 59 -50 89.5t-128 30.5q-52 0 -97.5 -28t-63.5 -68h-255q22 104 89 174t149 98t178 28q74 0 148 -18t139 -53t106 -94t41 -133v-579h132v-204h-229q-66 0 -112.5 46t-46.5 112v350q-54 -21 -116 -21h-109
q-29 0 -55.5 -5.5t-55 -18.5t-48 -40t-23.5 -66q-8 -69 43.5 -119t138.5 -50q86 0 155.5 51.5t69.5 118.5q0 -186 -66.5 -279t-202.5 -103q-94 -7 -171 22t-124.5 81.5t-73 115.5t-25.5 129z" />
    <glyph glyph-name="e.alt1" unicode="&#xf004;" horiz-adv-x="1173" 
d="M66 529q0 128 43.5 234.5t116.5 175.5t166.5 106.5t196.5 37.5t197 -38t167 -107t116.5 -175t43.5 -234q0 -37 -3 -71h-783q18 -123 92 -189t170 -68q67 1 129.5 30.5t81.5 83.5q23 63 -21 103t-175 40q85 0 144.5 -4t121 -17t96.5 -36.5t53 -64.5t8 -98
q-18 -106 -147.5 -183t-290.5 -79q-141 1 -258.5 64.5t-191 191t-73.5 297.5zM335 652h509q-38 99 -105 151.5t-150 54.5q-84 -2 -150 -54t-104 -152z" />
    <glyph glyph-name="g.alt1" unicode="&#xf005;" horiz-adv-x="1210" 
d="M63 516q0 117 40.5 219t108.5 172t159 110t191 40q82 0 158 -34t111 -99v133h267v-868q0 -86 -12 -161t-45 -151.5t-85 -131t-140 -88.5t-202 -34q-84 0 -157.5 23t-121.5 57t-85.5 77.5t-56.5 79t-28 66.5h296q5 -10 14 -21t27 -25.5t47 -23.5t65 -8q67 2 112 29.5
t67 76.5t30 99.5t8 118.5v344q0 -123 -23.5 -219t-63.5 -153t-85.5 -87.5t-96.5 -38.5q-131 -19 -246 39.5t-184 180.5t-69 278zM331 534q0 -130 72 -213t178 -83q113 0 181.5 71t68.5 225t-69 226t-181 72q-105 0 -177.5 -83.5t-72.5 -214.5z" />
    <glyph glyph-name="s.alt1" unicode="&#xf006;" horiz-adv-x="1075" 
d="M66 341h255q0 -60 66 -99t152 -42q83 -3 144.5 27.5t61.5 75.5q0 38 -28.5 60t-91.5 33l-239 42q-60 11 -113 36t-96 65t-66.5 100.5t-19.5 133.5q7 128 135 218.5t304 90.5q101 0 191.5 -30.5t148.5 -77t84.5 -104t9.5 -109.5q-24 -72 -148.5 -99t-276.5 -1
q62 -10 121 20t53 74q-5 35 -56.5 67t-118.5 36q-80 5 -135 -21.5t-55 -74.5q0 -68 134 -91l248 -44q123 -22 198 -104.5t75 -215.5q0 -84 -39.5 -150t-106 -105.5t-148 -59t-170.5 -16.5q-106 3 -196.5 35.5t-150 83.5t-93 115t-33.5 131z" />
    <glyph glyph-name="t.alt1" unicode="&#xf007;" horiz-adv-x="690" 
d="M37 859v198h154v377h255v-377h179v-198h-588zM191 260v439q0 46 39.5 79.5t96 48.5t112.5 23t95 8l40 1q-5 0 -13.5 -1t-31 -8.5t-39 -21t-30.5 -42.5t-14 -69v-411q0 -33 23 -57t55 -24h101v-224h-174q-107 0 -183.5 75.5t-76.5 183.5z" />
    <glyph glyph-name="v.alt1" unicode="&#xf008;" horiz-adv-x="1187" 
d="M20 1057h305l269 -849l269 849h304l-372 -1056h-403z" />
    <glyph glyph-name="w.alt1" unicode="&#xf009;" horiz-adv-x="1593" 
d="M39 1057h274l172 -933l105 933h411l106 -933l172 933h274l-233 -1056h-405l-119 894l-120 -894h-404z" />
    <glyph glyph-name="x.alt1" unicode="&#xf00a;" horiz-adv-x="1095" 
d="M23 1057h305l147 -217l1 -1l593 -838h-306l-215 317l-215 -317h-306l368 525zM475 840q2 -1 3 -3l-2 2zM478 837q9 -11 19 -21t29.5 -22.5t40.5 -6.5t39 33l161 237h306l-246 -352q-25 -35 -56.5 -47.5t-61 -7t-63 25.5t-58.5 41.5t-51.5 50.5t-37.5 42.5t-21 26.5z" />
    <glyph glyph-name="A.alt1" unicode="&#xf00b;" horiz-adv-x="1497" 
d="M6 0l541 1433h403l541 -1433h-294l-144 394h-609l-144 -394h-294zM527 622h443l-222 605z" />
    <glyph glyph-name="M.alt1" unicode="&#xf00c;" horiz-adv-x="1845" 
d="M121 0v1433h503l298 -1344l298 1344h504v-1433h-268v1362l-305 -1362h-458l-304 1362v-1362h-268z" />
    <glyph glyph-name="N.alt1" unicode="&#xf00d;" horiz-adv-x="1552" 
d="M123 0v1434h527l511 -1358v1357l268 1v-1434h-528l-510 1357v-1357h-268z" />
    <glyph glyph-name="Q.alt1" unicode="&#xf00e;" horiz-adv-x="1536" 
d="M66 717q0 156 50 294.5t139 240.5t219.5 161.5t283.5 59.5t286 -59.5t224.5 -161.5t143.5 -241t52 -294q0 -156 -51.5 -294.5t-146.5 -242.5l230 -230l-189 -189l-548 548l-426 426v-18q0 -69 10 -131t28 -110.5t42 -91.5t52.5 -73.5t59.5 -56t62.5 -39t61.5 -22.5
t57.5 -7.5t49.5 6.5q20 7 31.5 21.5t6 40.5t-34.5 55q59 -59 84.5 -114t18 -94.5t-27 -66.5t-48.5 -41q-63 -32 -141.5 -32.5t-158 28t-155.5 92.5t-135 151t-94.5 213.5t-35.5 271.5zM409 1037l681 -681q107 148 107 361q0 143 -50 262t-151.5 194t-236.5 75
q-118 0 -206.5 -56t-143.5 -155z" />
    <glyph glyph-name="R.alt1" unicode="&#xf00f;" horiz-adv-x="1409" 
d="M123 0v1433h730q128 0 236 -57.5t168.5 -159t54.5 -222.5q-5 -96 -60.5 -175t-133.5 -112q96 -27 145 -106.5t49 -173.5v-427h-268v334q0 90 -63.5 146.5t-157.5 57.5h-210q-45 0 -82 -10t-59.5 -25.5t-39 -35t-24 -38.5t-12 -34.5t-4.5 -25.5l-1 -10q0 8 0.5 23
t4.5 56.5t11.5 80t24.5 85t39 80t59 56.5t82 23h213q104 0 161.5 65.5t57.5 155.5q0 83 -57 154t-134 71h-462v-1209h-268z" />
    <glyph glyph-name="R.alt2" unicode="&#xf010;" horiz-adv-x="1384" 
d="M123 0v1434h730q120 0 226.5 -60.5t169.5 -162.5t63 -217q0 -187 -113 -320t-273 -136l171 -244q48 -69 132 -69h62v-225h-146q-79 0 -149 36.5t-115 101.5l-280 400q-59 0 -102 -18.5t-63 -45t-31 -52.5t-13 -44l-1 -19q0 8 0.5 23t4.5 56.5t11.5 80t24.5 85t39 80
t59 56.5t82 23h213q104 0 161.5 65.5t57.5 155.5q0 83 -57 154t-134 71h-462v-1209h-268z" />
    <glyph glyph-name="S.alt1" unicode="&#xf011;" horiz-adv-x="1316" 
d="M82 462q21 64 76 103t117 51.5t140 11t131.5 -9.5t103.5 -19l-151 35q-188 43 -291 145t-103 282q0 119 71 213.5t196.5 146.5t282.5 52q137 0 247 -36.5t179.5 -100t106.5 -146.5t37 -177h-267q0 94 -82.5 164.5t-220.5 70.5q-118 0 -200 -54.5t-82 -131.5
q0 -120 171 -164l282 -65q195 -48 306 -158.5t111 -289.5q0 -98 -51.5 -181t-135.5 -136t-189.5 -81.5t-215.5 -25.5q-140 3 -261 50.5t-196.5 119.5t-107 160t-4.5 171zM336 462q-16 -89 68 -175.5t244 -99.5q129 -10 227.5 46.5t99.5 151.5q1 72 -52.5 116.5t-141.5 67.5
q-2 0 -18.5 4t-52 12t-59.5 14q-118 27 -208 -9t-107 -128z" />
    <glyph glyph-name="V.alt1" unicode="&#xf012;" horiz-adv-x="1400" 
d="M10 1433h291l398 -1226l399 1226h291l-490 -1433h-399z" />
    <glyph glyph-name="W.alt1" unicode="&#xf013;" horiz-adv-x="2035" 
d="M23 1433h298l259 -1226l227 1226h421l227 -1226l259 1226h299l-351 -1433h-414l-230 1241l-231 -1241h-414z" />
    <glyph glyph-name="X.alt1" unicode="&#xf014;" horiz-adv-x="1390" 
d="M39 1l585 826q-32 34 -71 68t-99 75t-122 72t-140 52t-153 21v318q511 0 655 -505l345 506h311q-428 -610 -460 -654q-91 -126 -247 26l149 -163q46 -48 75.5 -76.5t93 -82t117.5 -84.5t128 -56t144 -25v-318q-102 0 -192 30t-157.5 79.5t-123.5 119.5t-94 145t-65 161
l-373 -535h-306z" />
    <glyph glyph-name="ampersand.alt1" unicode="&#xf015;" horiz-adv-x="1460" 
d="M96 361q0 64 19.5 122t48.5 101t79.5 89t94 77t109.5 74l210 141q-55 -29 -119.5 -38.5t-122.5 2.5t-100.5 52.5t-51.5 103.5q-11 71 16.5 136.5t81 111.5t127.5 73.5t153 27.5q88 0 160 -32.5t115.5 -84t67 -111t23.5 -117.5q0 -84 -47.5 -158t-126.5 -123l-293 -192
q-44 -31 -69.5 -51t-54 -50.5t-41.5 -66t-13 -77.5q0 -77 58 -133t154 -60q132 -6 247 99q101 93 149 241q35 105 35 227h248q0 -231 -117 -428l262 -316h-348l-91 109q-180 -149 -386 -149q-212 0 -344.5 118.5t-132.5 281.5zM516 1100q0 -50 36 -86t87 -36t87.5 36
t36.5 86t-36.5 86t-87.5 36t-87 -36t-36 -86z" />
    <glyph glyph-name="ampersand.alt2" unicode="&#xf016;" horiz-adv-x="1460" 
d="M96 361q0 105 40 182.5t119 144.5q37 31 79.5 35t77.5 -12.5t65 -37.5t47 -39l16 -18q-44 -31 -69.5 -51t-54 -50.5t-41.5 -66t-13 -77.5q0 -77 58 -133t154 -60q132 -6 247 99l-281 339q-15 19 -64 75t-78 93.5t-65.5 94.5t-54.5 115.5t-18 118.5q0 92 55 166.5
t142 114.5t184 40q87 0 160 -33t116 -82.5t66.5 -102.5t23.5 -99q0 -30 -5 -59t-11.5 -52t-20 -46.5t-23.5 -39.5t-29 -36t-30 -30.5t-33 -27.5t-31 -23l-32 -21q-22 -15 -26 -18l204 -246q35 105 35 227h248q0 -231 -117 -428l262 -316h-348l-91 109q-180 -149 -386 -149
q-212 0 -344.5 118.5t-132.5 281.5zM528 1106q0 -13 3 -26t10.5 -28t13 -25.5t18 -26.5t17 -22t18.5 -23t15 -18l17 13q18 12 28 19.5t28 24.5t28 32t18.5 36.5t8.5 43.5q0 51 -34.5 83.5t-77.5 32.5q-45 0 -78 -31t-33 -85z" />
    </font>
</defs>
</svg>
