<?xml version="1.0" standalone="no"?>
<!DOCTYPE svg PUBLIC "-//W3C//DTD SVG 1.1//EN" "http://www.w3.org/Graphics/SVG/1.1/DTD/svg11.dtd" >
<svg xmlns="http://www.w3.org/2000/svg" xmlns:xlink="http://www.w3.org/1999/xlink" version="1.1">
<metadata>
Created by FontForge 20170731 at Thu Dec  7 22:11:58 2023
 By Aleksey,,,
</metadata>
<defs>
<font id="AlmiregoRegular" horiz-adv-x="1011" >
  <font-face 
    font-family="Almirego"
    font-weight="400"
    font-stretch="normal"
    units-per-em="2048"
    panose-1="0 0 0 0 0 0 0 0 0 0"
    ascent="1638"
    descent="-410"
    x-height="1057"
    cap-height="1434"
    bbox="-135 -444 2325 1941"
    underline-thickness="0"
    underline-position="0"
    unicode-range="U+000A-FB02"
  />
<missing-glyph horiz-adv-x="1079" 
d="M102 1434h875v-1434h-875v1434zM160 1393l379 -633l381 633h-760zM514 717l-369 614v-1231zM541 674l-379 -631h758zM565 717l371 -621v1239z" />
    <glyph glyph-name="tt.liga" unicode="tt" horiz-adv-x="1153" 
d="M1100 914h-180v-654q0 -33 23.5 -57t55.5 -24h101v-179h-99q-107 0 -183.5 76t-76.5 184v654h-358v-654q0 -33 23 -57t55 -24h101v-179h-98q-107 0 -183.5 76t-76.5 184v654h-179v143h179v376h179v-376h358v376h179v-376h180v-143z" />
    <glyph glyph-name="fi.liga" unicode="fi" horiz-adv-x="1015" 
d="M902 1h-179v1056h179v-1056zM813 1255q-49 0 -85 26.5t-36 63.5t35.5 63t85.5 26t85 -26t35 -63t-35.5 -63.5t-84.5 -26.5zM385 1174v-117h179v-143h-179v-913h-179v913h-179v143h179v117q0 108 76 184t184 76h98v-179h-100q-33 -1 -56 -24.5t-23 -56.5z" />
    <glyph glyph-name="fl.liga" unicode="fl" horiz-adv-x="1015" 
d="M902 1h-179v1433h179v-1433zM385 1174v-117h179v-143h-179v-913h-179v913h-179v143h179v117q0 108 76 184t184 76h98v-179h-100q-33 -1 -56 -24.5t-23 -56.5z" />
    <glyph glyph-name=".notdef" horiz-adv-x="1079" 
d="M102 1434h875v-1434h-875v1434zM160 1393l379 -633l381 633h-760zM514 717l-369 614v-1231zM541 674l-379 -631h758zM565 717l371 -621v1239z" />
    <glyph glyph-name=".null" horiz-adv-x="0" 
 />
    <glyph glyph-name=".null" horiz-adv-x="0" 
 />
    <glyph glyph-name="nonmarkingreturn" horiz-adv-x="682" 
 />
    <glyph glyph-name="controlLF" unicode="&#xa;" horiz-adv-x="0" 
 />
    <glyph glyph-name="controlCR" unicode="&#xd;" horiz-adv-x="0" 
 />
    <glyph glyph-name="space" unicode=" " horiz-adv-x="452" 
 />
    <glyph glyph-name="exclam" unicode="!" horiz-adv-x="458" 
d="M281 340h-104q-38 821 -38 1094h179q0 -122 -9 -395.5t-19 -486.5zM229 1q-50 0 -85 26t-35 63t35 63t85 26t85 -26t35 -63t-35 -63t-85 -26z" />
    <glyph glyph-name="quotedbl" unicode="&#x22;" horiz-adv-x="702" 
d="M123 861q-4 100 -16.5 304t-12.5 269h179q0 -66 -12 -270.5t-16 -302.5h-122zM427 1434h179q0 -66 -12 -270.5t-16 -302.5h-122q-4 100 -16.5 304t-12.5 269z" />
    <glyph glyph-name="numbersign" unicode="#" horiz-adv-x="1282" 
d="M1161 878h-215l-87 -320h216l-35 -129h-215l-116 -428h-159l115 428h-202l-116 -428h-159l116 428h-216l35 129h215l87 320h-216l35 129h216l115 427h159l-115 -427h202l115 427h160l-116 -427h216zM700 558l86 320h-202l-86 -320h202z" />
    <glyph glyph-name="dollar" unicode="$" horiz-adv-x="1323" 
d="M1217 385q0 -164 -142 -286.5t-351 -136.5v-193h-129v196q-119 13 -215.5 61.5t-155.5 118t-90.5 151.5t-31.5 166h184q0 -49 18 -100t53.5 -98.5t97.5 -83.5t140 -48v498l-88 16q-116 30 -154 50q-93 48 -147.5 132t-54.5 192q0 156 127 272.5t317 136.5v120h129v-119
q109 -9 196.5 -52t142 -106.5t83.5 -140t29 -158.5h-184q0 99 -69 185.5t-198 105.5v-476l110 -20q383 -94 383 -383zM552 820q3 0 43 -8v452q-122 -16 -191 -84.5t-69 -158.5q0 -73 58.5 -124t158.5 -77zM724 129q129 13 216 85t87 171q0 83 -61.5 131.5t-175.5 77.5
q-1 0 -9 1.5t-25 4.5t-32 6v-477z" />
    <glyph glyph-name="percent" unicode="%" horiz-adv-x="1632" 
d="M1228 676q136 0 223 -96t87 -262q0 -167 -86 -261.5t-224 -95.5q-138 1 -224.5 95.5t-86.5 261.5q0 166 87.5 262t223.5 96zM1228 80q89 1 137 65.5t48 172.5q0 105 -53 171t-132 68q-79 -2 -132.5 -68t-53.5 -171q0 -108 48.5 -172.5t137.5 -65.5zM715 1033
q0 -167 -86 -261.5t-224 -95.5q-138 1 -224.5 95.5t-86.5 261.5q0 166 87.5 261.5t223.5 95.5t223 -95.5t87 -261.5zM219 1033q0 -108 48.5 -173t137.5 -66q89 1 137 66t48 173q0 105 -53 171t-132 68q-79 -2 -132.5 -68t-53.5 -171zM1256 1374h157l-1036 -1413h-158z" />
    <glyph glyph-name="ampersand" unicode="&#x26;" horiz-adv-x="1388" 
d="M746 671h554v-154h-427l427 -516h-233l-113 137q-165 -177 -404 -177q-197 0 -325.5 110t-128.5 290q0 79 22.5 142t76 117t91 82t116.5 80q8 5 12 8q-146 172 -146 323q0 137 95 229t235 92q68 0 124 -22.5t90.5 -57t58.5 -78t33.5 -83t9.5 -75.5h-154q0 43 -17 76.5
t-43 51t-52.5 26t-50.5 8.5q-25 0 -51 -7.5t-52.5 -24.5t-43 -50.5t-16.5 -79.5q0 -13 2.5 -27t9.5 -29.5t12.5 -27.5t17.5 -30t18 -27.5t21 -28t19.5 -24.5t20.5 -24.5t17 -20.5zM521 115q98 -4 185 38t142 113l-335 405q-110 -75 -147 -111q-89 -85 -90 -189
q0 -105 71.5 -178t173.5 -78z" />
    <glyph glyph-name="quotesingle" unicode="'" horiz-adv-x="432" 
d="M168 1434h183l-135 -471h-132z" />
    <glyph glyph-name="quotesingle" unicode="&#x2019;" horiz-adv-x="432" 
d="M168 1434h183l-135 -471h-132z" />
    <glyph glyph-name="quotesingle" unicode="&#x2018;" horiz-adv-x="432" 
d="M168 1434h183l-135 -471h-132z" />
    <glyph glyph-name="parenleft" unicode="(" horiz-adv-x="823" 
d="M293 555q0 -289 109 -536t294 -396h-174q-120 80 -215.5 232.5t-146.5 336t-51 363.5q0 264 119 530t294 388h172q-181 -153 -291 -396t-110 -522z" />
    <glyph glyph-name="parenright" unicode=")" horiz-adv-x="819" 
d="M123 -377q185 149 294 396t109 536q0 279 -110.5 522t-291.5 396h173q175 -122 294 -388t119 -530q0 -180 -51 -363.5t-146.5 -336t-215.5 -232.5h-174z" />
    <glyph glyph-name="asterisk" unicode="*" horiz-adv-x="796" 
d="M706 1181l-198 -115l198 -114l-55 -95l-198 114v-229h-110v229l-198 -114l-55 95l199 114l-199 115l55 95l198 -115v229h110v-229l198 115z" />
    <glyph glyph-name="plus" unicode="+" horiz-adv-x="1163" 
d="M657 578h426v-152h-426v-425h-151v425h-426v152h426v426h151v-426z" />
    <glyph glyph-name="comma" unicode="," horiz-adv-x="366" 
d="M111 214h182l-135 -471h-131z" />
    <glyph glyph-name="hyphen" unicode="-" horiz-adv-x="641" 
d="M571 426h-501v152h501v-152z" />
    <glyph glyph-name="period" unicode="." horiz-adv-x="380" 
d="M190 1q-48 0 -82 31t-34 75t34 75.5t82 31.5t81.5 -31.5t33.5 -75.5t-33.5 -75t-81.5 -31z" />
    <glyph glyph-name="slash" unicode="/" horiz-adv-x="913" 
d="M702 1434h161l-651 -1433h-161z" />
    <glyph glyph-name="zero" unicode="0" horiz-adv-x="1181" 
d="M590 1433q119 0 212 -57.5t151.5 -158.5t88.5 -233t30 -287t-30 -287t-88.5 -233t-151.5 -158.5t-212 -57.5t-212 57.5t-151 158.5t-88 233t-30 287t30 287t88 233t151 158.5t212 57.5zM590 122q96 0 166 81t103.5 209.5t33.5 284.5t-33.5 284.5t-103.5 210t-166 81.5
t-166 -81.5t-103 -210t-33 -284.5t33 -284.5t103 -209.5t166 -81z" />
    <glyph glyph-name="one" unicode="1" horiz-adv-x="714" 
d="M447 1408h145v-1408h-180v1032q-123 -68 -336 -68v134q97 0 167.5 20.5t109 50.5t60.5 74.5t28 81.5t6 83z" />
    <glyph glyph-name="two" unicode="2" horiz-adv-x="1175" 
d="M315 901h-179q0 97 27 184.5t80.5 163t146 124.5t212.5 59q124 10 232 -48.5t171 -165.5t63 -234q0 -125 -62.5 -222t-161.5 -155q-326 -182 -395 -229q-106 -73 -142 -211h754v-167h-959q0 106 18 179l1 4q64 242 249 352q55 32 150 85.5t162 90.5l68 37h1
q63 36 100.5 100.5t37.5 138.5q0 132 -83.5 214.5t-203.5 70.5q-79 -8 -137.5 -45t-89.5 -93t-45.5 -114t-14.5 -119z" />
    <glyph glyph-name="three" unicode="3" horiz-adv-x="1210" 
d="M316 962v0h-178q0 85 17.5 155t46 118t68.5 84.5t80.5 57.5t86.5 34t83 17.5t73 4.5q188 0 321.5 -112.5t133.5 -272.5q0 -129 -92 -232q-34 -38 -80 -69q61 -33 111 -85q116 -119 116 -273q0 -116 -67 -214.5t-182 -156t-251 -57.5q-31 0 -65.5 3t-85.5 15t-96.5 32
t-93.5 56.5t-82 85t-56 123t-22 164.5h179q0 -79 24.5 -139t59 -92t81.5 -52.5t83.5 -26t72.5 -5.5q133 0 227.5 79t94.5 190q0 110 -93.5 188.5t-225.5 79.5h-112v154h107q112 3 190.5 71t78.5 162q0 96 -81 164t-196 68q-16 0 -32 -1.5t-45.5 -8t-54 -18.5t-52.5 -36
t-47 -56.5t-32 -84t-13 -114.5z" />
    <glyph glyph-name="four" unicode="4" horiz-adv-x="1185" 
d="M889 503h211v-154h-211v-349h-179v349h-626v175l655 909h150v-930zM260 503h450v642z" />
    <glyph glyph-name="five" unicode="5" horiz-adv-x="1183" 
d="M590 924q131 6 244.5 -59t180 -178t66.5 -244q0 -201 -136 -336t-355 -145q-122 -5 -233.5 44t-182 144.5t-70.5 213.5h183q0 -69 45.5 -127t115.5 -87.5t142 -24.5q140 9 226 99t86 219q0 128 -91.5 223t-220.5 95q-176 0 -272 -126h-168l76 774h774v-179h-645l-38 -408
q112 94 273 102z" />
    <glyph glyph-name="six" unicode="6" horiz-adv-x="1196" 
d="M642 915q104 0 189 -34.5t140.5 -94.5t85 -139.5t29.5 -170.5q0 -221 -137 -368t-338 -147q-140 0 -244 61.5t-161 166.5t-80.5 234t-13.5 275q10 154 45.5 281t97 226.5t155 159t213.5 68.5q110 8 209.5 -38t162 -137t62.5 -204h-188q-17 116 -84 174t-162 50
q-98 -9 -172 -85.5t-112.5 -194t-44.5 -261.5q47 77 143.5 127.5t204.5 50.5zM604 114q130 0 216.5 93t86.5 256q0 127 -79.5 212.5t-211.5 85.5t-217.5 -92t-85.5 -219q0 -136 84 -236t207 -100z" />
    <glyph glyph-name="seven" unicode="7" horiz-adv-x="1130" 
d="M66 1409h992v-128l-641 -1280h-186l611 1229h-776v179z" />
    <glyph glyph-name="eight" unicode="8" horiz-adv-x="1206" 
d="M850 758q103 -39 175.5 -144t72.5 -218q0 -118 -66.5 -218t-180.5 -158t-249 -58t-249 58t-180.5 158t-66.5 218q0 113 72.5 218t175.5 144q-79 37 -135.5 122.5t-56.5 174.5q0 157 129 268t311 111t311.5 -111t129.5 -268q0 -88 -57 -174t-136 -123zM341 1055
q0 -93 76.5 -159t184.5 -66t185 66t77 159t-77 159t-185 66t-184.5 -66t-76.5 -159zM602 115q131 0 224 82.5t93 198.5t-93 198t-224 82t-223.5 -82t-92.5 -198t92.5 -198.5t223.5 -82.5z" />
    <glyph glyph-name="nine" unicode="9" horiz-adv-x="1183" 
d="M545 481q-138 0 -238.5 60t-149 158t-48.5 221q0 222 133.5 368t333.5 146q113 0 202 -40.5t146.5 -110t93.5 -164t48 -200t4 -221.5q-8 -124 -29 -228.5t-59.5 -196.5t-92.5 -157t-131.5 -106t-173.5 -48q-191 -15 -325 95.5t-134 283.5h188q17 -116 89.5 -174.5
t181.5 -49.5q98 9 166 86t100 192t38 263q-47 -77 -141 -127t-202 -50zM583 1281q-130 0 -212.5 -92t-82.5 -256q0 -128 75.5 -213t207.5 -85t215 91t83 219q0 137 -81.5 236.5t-204.5 99.5z" />
    <glyph glyph-name="colon" unicode=":" horiz-adv-x="409" 
d="M204 1q-48 0 -82 31t-34 75t34 75.5t82 31.5t82 -31.5t34 -75.5t-34 -75t-82 -31zM204 782q-48 0 -82 31t-34 75t34 75.5t82 31.5t82 -31.5t34 -75.5t-34 -75t-82 -31z" />
    <glyph glyph-name="semicolon" unicode=";" horiz-adv-x="415" 
d="M213 782q-48 0 -82 31t-34 75t34 75.5t82 31.5t82 -31.5t34 -75.5t-34 -75t-82 -31zM41 -257l84 471h183l-135 -471h-132z" />
    <glyph glyph-name="less" unicode="&#x3c;" horiz-adv-x="1218" 
d="M1126 1057v-160l-983 -373l983 -364v-159l-1036 380v285z" />
    <glyph glyph-name="equal" unicode="=" horiz-adv-x="1167" 
d="M1085 224h-1003v152h1003v-152zM1085 629h-1003v151h1003v-151z" />
    <glyph glyph-name="greater" unicode="&#x3e;" horiz-adv-x="1218" 
d="M92 1057l1036 -391v-285l-1036 -380v159l984 364l-984 373v160z" />
    <glyph glyph-name="question" unicode="?" horiz-adv-x="1064" 
d="M518 1q-50 0 -85.5 26t-35.5 63t35.5 63t85.5 26t85 -26t35 -63t-35 -63t-85 -26zM528 1473q185 0 315.5 -114.5t130.5 -276.5q0 -88 -42.5 -166t-116.5 -133q-81 -60 -124 -113.5t-63.5 -123.5t-20.5 -175h-179v25q0 296 242 471q57 43 81 76q44 60 44 139
q0 98 -78.5 168t-188.5 70q-128 0 -197.5 -94t-69.5 -228h-179q0 127 52 234t155.5 174t238.5 67z" />
    <glyph glyph-name="at" unicode="@" horiz-adv-x="1855" 
d="M928 1394q168 0 321 -65.5t263.5 -175.5t176 -263t65.5 -321q0 -166 -81 -284t-216 -143q-118 -22 -201.5 29t-95.5 124q-83 -131 -267 -131q-106 0 -190 62.5t-125.5 153.5t-41.5 189q0 72 25 143.5t69.5 129.5t113.5 94.5t149 36.5q184 0 267 -131v106h135v-545
q0 -60 43.5 -92.5t110.5 -19.5q74 13 113.5 96.5t39.5 181.5q0 137 -53.5 262t-143.5 215t-215 143.5t-262 53.5t-262 -53.5t-215 -143.5t-143.5 -215t-53.5 -262t53.5 -262t143.5 -215.5t215 -144t262 -53.5q200 0 367 109v-175q-172 -85 -367 -85q-168 0 -321 65.5
t-263.5 176t-176 263.5t-65.5 321t65.5 321t176 263t263.5 175.5t321 65.5zM941 299q105 0 162 79.5t57 190.5t-57 190t-162 79q-109 0 -177 -77.5t-68 -191.5t68 -192t177 -78z" />
    <glyph glyph-name="A" unicode="A" horiz-adv-x="1298" 
d="M815 1433l471 -1433h-189l-143 430l-613 -1l-139 -429h-190l460 1433h343zM392 586h509l-258 775z" />
    <glyph glyph-name="B" unicode="B" horiz-adv-x="1302" 
d="M1009 765q81 -25 134 -85.5t72.5 -129t19.5 -146.5q0 -166 -118 -285t-285 -119h-709v1433h639q162 0 283 -115t121 -287q0 -85 -42 -157.5t-115 -108.5zM301 1277v-450h462q94 0 158.5 61t64.5 153q0 94 -66 165t-158 71h-461zM832 156q102 0 163 76.5t61 181.5
q0 96 -67 176t-157 80h-531v-514h531z" />
    <glyph glyph-name="C" unicode="C" horiz-adv-x="1378" 
d="M1121 478h195q-22 -109 -69 -198t-107.5 -147.5t-134.5 -98t-149.5 -56.5t-153.5 -17q-151 0 -272.5 59t-199.5 162.5t-120 240t-42 294.5q0 209 78 380.5t223.5 273.5t330.5 102q117 0 215 -29t167 -78t120.5 -116.5t80 -140.5t40.5 -154h-192q-84 350 -425 350
q-130 0 -236 -85.5t-162.5 -219.5t-56.5 -283q0 -113 30.5 -217.5t86.5 -187.5t144 -133t194 -50q140 0 251 93.5t164 255.5z" />
    <glyph glyph-name="D" unicode="D" horiz-adv-x="1359" 
d="M694 1434q171 0 308 -93.5t213.5 -257.5t76.5 -366t-76.5 -366t-213.5 -257.5t-308 -93.5h-571v1434h571zM694 156q118 3 211.5 82t142.5 205.5t49 273.5q0 150 -48 276.5t-141.5 205t-213.5 78.5h-392v-1121h392z" />
    <glyph glyph-name="E" unicode="E" horiz-adv-x="1234" 
d="M1176 1277h-876v-483h799v-154h-799v-483h876v-157h-1055v1434h1055v-157z" />
    <glyph glyph-name="F" unicode="F" horiz-adv-x="1146" 
d="M1125 1277h-825v-483h698v-154h-698v-640h-179v1434h1004v-157z" />
    <glyph glyph-name="G" unicode="G" horiz-adv-x="1437" 
d="M264 717q0 -113 28.5 -215.5t82 -184.5t139 -132.5t192.5 -55.5q62 -2 122 14.5t116.5 54t100.5 93t74.5 138t39.5 181.5h-453v167h633v-776h-166v218q-55 -107 -196 -182.5t-275 -75.5q-151 0 -272.5 59t-199.5 162.5t-120 240t-42 294.5q0 209 78 381t223.5 274
t330.5 102q117 0 215 -29t167 -78t120.5 -116.5t80 -140.5t40.5 -154h-192q-84 350 -425 350q-98 0 -182 -50t-140 -133t-88 -188.5t-32 -217.5z" />
    <glyph glyph-name="H" unicode="H" horiz-adv-x="1372" 
d="M1071 1434h179v-1434h-179v670h-771v-670h-179v1434h179v-608l771 1v607z" />
    <glyph glyph-name="I" unicode="I" horiz-adv-x="421" 
d="M300 0h-179v1434h179v-1434z" />
    <glyph glyph-name="J" unicode="J" horiz-adv-x="960" 
d="M668 1434h179v-1061q0 -115 -57 -210t-151 -148.5t-203 -53.5q-170 0 -290.5 121t-120.5 291v89h179v-89q0 -97 68.5 -171.5t163.5 -74.5q92 0 160 71t72 165v1071z" />
    <glyph glyph-name="K" unicode="K" horiz-adv-x="1304" 
d="M1299 1434l-624 -589l618 -845h-236l-514 721l-243 -230v-491h-179v1434h179v-724l748 724h251z" />
    <glyph glyph-name="L" unicode="L" horiz-adv-x="1038" 
d="M300 154h734v-154h-913v1434h179v-1280z" />
    <glyph glyph-name="M" unicode="M" horiz-adv-x="1669" 
d="M1261 1434h286v-1434h-180v1216l-438 -1216h-190l-439 1216v-1216h-179v1434h286l427 -1199z" />
    <glyph glyph-name="N" unicode="N" horiz-adv-x="1376" 
d="M1073 1433h179v-1433h-214l-736 1180v-1180h-179v1433l214 1l736 -1181v1180z" />
    <glyph glyph-name="O" unicode="O" horiz-adv-x="1525" 
d="M756 1473q153 0 286 -59.5t224.5 -161.5t143.5 -241t52 -294t-52 -294t-143.5 -241t-224.5 -161.5t-286 -59.5q-204 0 -363.5 102t-244.5 273.5t-85 380.5t85 380.5t244.5 273.5t363.5 102zM756 127q154 0 273 81.5t180 215t61 293.5t-61 293t-180 214.5t-273 81.5
t-269.5 -81.5t-173 -214t-57.5 -293.5t57.5 -293.5t173 -214.5t269.5 -82z" />
    <glyph glyph-name="P" unicode="P" horiz-adv-x="1224" 
d="M783 1434q112 0 205 -56t145 -149t52 -200q0 -181 -110 -302t-293 -121h-480l-1 -606h-178v1434h660zM302 763h480q90 0 157 80t67 176q0 108 -63.5 183t-159.5 75h-480z" />
    <glyph glyph-name="Q" unicode="Q" horiz-adv-x="1529" 
d="M1462 717q0 -169 -60 -316.5t-170 -252.5l230 -230l-127 -126l-249 249q-148 -80 -330 -80q-204 0 -363.5 102t-244.5 273.5t-85 380.5t85 380.5t244.5 273.5t363.5 102q153 0 286 -59.5t224.5 -161.5t143.5 -241t52 -294zM955 425l152 -151q78 81 120.5 196.5
t42.5 246.5q0 160 -61 293t-180 214.5t-273 81.5t-269.5 -81.5t-173 -214t-57.5 -293.5t57.5 -293.5t173 -214.5t269.5 -82q109 0 202 42l-130 130z" />
    <glyph glyph-name="R" unicode="R" horiz-adv-x="1298" 
d="M828 606l425 -606h-219l-424 607h-308v-607h-179v1434h698q106 0 197.5 -51.5t148 -145.5t56.5 -208q0 -179 -107.5 -299.5t-287.5 -123.5zM302 763h478q70 0 122.5 22t82.5 59.5t44.5 81.5t14.5 93q0 101 -58.5 179.5t-165.5 78.5h-518v-514z" />
    <glyph glyph-name="S" unicode="S" horiz-adv-x="1241" 
d="M464 680q-68 16 -127 43.5t-113 72t-85 112.5t-31 153q0 112 68.5 207t186.5 150t257 55q123 0 223 -39.5t161.5 -105t94.5 -146.5t33 -168h-184q0 51 -20 101.5t-58 94.5t-103 71.5t-147 27.5q-152 0 -240 -71.5t-88 -174.5q0 -74 59.5 -128.5t157.5 -80.5l282 -66
q55 -14 106 -34.5t102.5 -55t89.5 -77.5t61.5 -104t23.5 -132q0 -116 -74 -214.5t-202.5 -155.5t-280.5 -54q-108 2 -200.5 32.5t-157.5 80t-110.5 114t-67.5 134.5t-22 141h184q0 -54 21.5 -109t64 -105.5t116.5 -84t168 -37.5q152 -5 261.5 70.5t109.5 187.5
q0 85 -64.5 143.5t-173.5 86.5z" />
    <glyph glyph-name="T" unicode="T" horiz-adv-x="1173" 
d="M4 1434h1164v-164h-493v-1270h-179v1270h-492v164z" />
    <glyph glyph-name="U" unicode="U" horiz-adv-x="1343" 
d="M1058 1434h180v-906q0 -118 -46 -224t-123 -181t-181 -118.5t-217 -43.5t-217 43.5t-181 118.5t-123 181t-46 224v906h180v-906q0 -162 114 -281t273 -119t273 119t114 281v906z" />
    <glyph glyph-name="V" unicode="V" horiz-adv-x="1273" 
d="M1071 1433h190l-446 -1433h-343l-460 1433h190l441 -1359z" />
    <glyph glyph-name="W" unicode="W" horiz-adv-x="1894" 
d="M1677 1433h190l-333 -1433h-343l-244 1298l-244 -1298h-344l-332 1433h189l320 -1352l259 1352h304l259 -1352z" />
    <glyph glyph-name="X" unicode="X" horiz-adv-x="1259" 
d="M747 736l500 -736h-231l-387 596l-397 -596h-224l508 736l-475 697h231l367 -555l362 555h222z" />
    <glyph glyph-name="Y" unicode="Y" horiz-adv-x="1267" 
d="M1060 1433h212l-549 -866v-567h-179v565l-550 868h212l427 -699z" />
    <glyph glyph-name="Z" unicode="Z" horiz-adv-x="1198" 
d="M1161 1274l-907 -1123h907v-151h-1132v153l906 1129h-842v152h1068v-160z" />
    <glyph glyph-name="bracketleft" unicode="[" horiz-adv-x="628" 
d="M553 1293h-276v-1528h276v-142h-430v1811h430v-141z" />
    <glyph glyph-name="backslash" unicode="\" horiz-adv-x="913" 
d="M210 1434l651 -1433h-161l-651 1433h161z" />
    <glyph glyph-name="bracketright" unicode="]" horiz-adv-x="628" 
d="M76 1434h430v-1811h-430v142h276v1528h-276v141z" />
    <glyph glyph-name="asciicircum" unicode="^" horiz-adv-x="1060" 
d="M674 1434l308 -837h-154l-294 795l-302 -795h-154l316 837h280z" />
    <glyph glyph-name="underscore" unicode="_" horiz-adv-x="1320" 
d="M1198 -257h-1075v103h1075v-103z" />
    <glyph glyph-name="grave" unicode="`" horiz-adv-x="483" 
d="M237 1473l178 -281h-134l-258 281h214z" />
    <glyph glyph-name="a" unicode="a" 
d="M510 1083q73 0 141.5 -18.5t126.5 -53.5t93 -94t35 -133v-783h-180v158q-9 -27 -28 -55t-50 -57.5t-81 -49t-110 -21.5q-93 -3 -170 27t-124.5 81t-73.5 113.5t-26 127.5q0 157 114 253t282 96h160q47 0 78.5 34.5t28.5 84.5q-8 134 -216 134q-67 0 -119 -28t-75 -81
h-187q25 80 70.5 135.5t101.5 82t105.5 37t103.5 10.5zM726 325v232q-70 -26 -138 -26h-129q-88 0 -152 -51t-64 -155q0 -83 59 -138.5t157 -55.5q103 0 185 57.5t82 136.5z" />
    <glyph glyph-name="b" unicode="b" horiz-adv-x="1075" 
d="M561 1057q122 0 225 -72.5t163 -197t60 -271.5t-60 -273.5t-163.5 -199t-224.5 -68.5q-92 3 -164.5 58t-104.5 126v-159h-179v1434h179v-536q38 70 111.5 114.5t157.5 44.5zM561 128q111 0 189.5 113t78.5 275t-78.5 275t-189.5 113q-118 0 -193.5 -98t-75.5 -290
t75.5 -290t193.5 -98z" />
    <glyph glyph-name="c" unicode="c" horiz-adv-x="1085" 
d="M556 -25q-213 0 -345 139.5t-141 381.5q-10 265 124.5 426t356.5 161q188 0 314.5 -111t160.5 -308h-167q-26 128 -108 196.5t-196 68.5q-134 0 -224.5 -111.5t-90.5 -288.5q0 -183 82.5 -291.5t233.5 -108.5q109 0 183.5 67t107.5 182h174q-38 -181 -158.5 -292
t-306.5 -111z" />
    <glyph glyph-name="d" unicode="d" horiz-adv-x="1075" 
d="M66 516q0 147 60 271.5t163 197t224 72.5q84 0 157.5 -44.5t111.5 -114.5v536h179v-1434h-179v159q-32 -71 -104.5 -126t-164.5 -58q-121 -4 -224.5 68.5t-163 199t-59.5 273.5zM245 516q0 -162 78.5 -275t189.5 -113q118 0 193.5 98t75.5 290t-75.5 290t-193.5 98
q-111 0 -189.5 -113t-78.5 -275z" />
    <glyph glyph-name="e" unicode="e" horiz-adv-x="1097" 
d="M1031 529v-33h-790q9 -171 96.5 -268t213.5 -99q96 2 171.5 59.5t111.5 163.5h178q-42 -178 -165 -276.5t-296 -100.5q-214 2 -347.5 149t-133.5 405q0 257 135.5 405.5t345.5 148.5t345 -148.5t135 -405.5zM250 639h601q-26 131 -108.5 209.5t-191.5 80.5
q-109 -2 -192 -80.5t-109 -209.5z" />
    <glyph glyph-name="f" unicode="f" horiz-adv-x="591" 
d="M385 1057h179v-144h-179v-913h-179v913h-179v144h179v117q0 108 76 183.5t184 75.5h98v-179h-100q-33 -1 -56 -24t-23 -56v-117z" />
    <glyph glyph-name="g" unicode="g" horiz-adv-x="1087" 
d="M1007 614q0 -107 -51 -198t-140 -150q86 -50 136 -125t50 -161q0 -97 -62 -179t-169 -130t-233 -48t-233 48t-169 130t-62 179q0 10 2 28h167q-2 -14 -2 -21q0 -78 90.5 -144t206.5 -66q140 0 218.5 63t78.5 147q0 86 -68 140t-224 57q-126 3 -222 42.5t-150.5 103
t-81 135.5t-26.5 149q0 90 37.5 172t100.5 141.5t150.5 94.5t183.5 35q105 0 197 -40l157 157l118 -117l-134 -134q134 -129 134 -309zM535 324q134 0 213.5 86.5t79.5 203.5t-79.5 203t-213.5 86q-135 0 -213.5 -86t-78.5 -203t78.5 -203.5t213.5 -86.5z" />
    <glyph glyph-name="h" unicode="h" horiz-adv-x="1071" 
d="M602 1082q66 0 130 -24.5t118 -71.5t87 -124t33 -172v-690h-180v690q0 101 -65.5 175t-183.5 74q-117 0 -183 -65.5t-66 -183.5v-690h-179v1433h179v-497q34 54 121 100t189 46z" />
    <glyph glyph-name="i" unicode="i" horiz-adv-x="405" 
d="M292 0h-179v1057h179v-1057zM202 1255q-50 0 -85 26t-35 63t35.5 63.5t84.5 26.5t85 -26.5t36 -63.5t-35.5 -63t-85.5 -26z" />
    <glyph glyph-name="j" unicode="j" horiz-adv-x="405" 
d="M112 134v923h179v-1039q0 -60 -12 -114.5t-41 -106.5t-73 -90t-113 -61t-156 -23v156q48 0 84.5 14t59.5 41.5t38 59t22 75.5t9.5 80.5t2.5 84.5zM202 1255q-50 0 -85.5 26t-35.5 63t36 63.5t85 26.5t84.5 -26.5t35.5 -63.5t-35 -63t-85 -26z" />
    <glyph glyph-name="k" unicode="k" horiz-adv-x="1017" 
d="M524 597l478 -597h-199l-388 485l-123 -126v-359h-179v1434h179v-871l480 494h199z" />
    <glyph glyph-name="l" unicode="l" horiz-adv-x="405" 
d="M292 0h-179v1434h179v-1434z" />
    <glyph glyph-name="m" unicode="m" horiz-adv-x="1648" 
d="M292 925q37 64 115 110.5t173 46.5q197 0 301 -182q43 76 129 129t185 53q169 0 260 -106t91 -272v-704h-179v704q0 103 -60.5 163.5t-163.5 60.5q-95 0 -159.5 -61.5t-64.5 -162.5v-704h-179v704q0 106 -62 165t-162 59q-99 0 -161.5 -56t-62.5 -168v-704h-179v1057h179
v-132z" />
    <glyph glyph-name="n" unicode="n" horiz-adv-x="1071" 
d="M566 1082q171 0 287.5 -107.5t116.5 -270.5v-704h-180v707q0 97 -64.5 159t-184.5 62q-114 0 -181.5 -62.5t-67.5 -158.5v-707h-179v1057h179v-132q37 58 111.5 107.5t162.5 49.5z" />
    <glyph glyph-name="o" unicode="o" horiz-adv-x="1101" 
d="M551 1083q210 0 345 -148.5t135 -405.5q0 -258 -133 -405t-347 -149q-214 2 -347.5 149t-133.5 405q0 257 135.5 405.5t345.5 148.5zM551 129q133 2 221.5 108.5t88.5 291.5q0 176 -89 287t-221 113q-132 -2 -221.5 -113.5t-89.5 -286.5q0 -185 89 -291.5t222 -108.5z
" />
    <glyph glyph-name="p" unicode="p" horiz-adv-x="1075" 
d="M1009 541q0 -147 -60 -271.5t-163 -197t-225 -72.5q-84 0 -157.5 44.5t-111.5 114.5v-536h-179v1434h179v-159q32 71 104.5 126t164.5 58q121 4 225 -68.5t163.5 -198.5t59.5 -274zM829 541q0 162 -78.5 275t-189.5 113q-118 0 -193.5 -98t-75.5 -290t75.5 -290
t193.5 -98q111 0 189.5 113t78.5 275z" />
    <glyph glyph-name="q" unicode="q" horiz-adv-x="1075" 
d="M513 0q-121 0 -224 72.5t-163 197t-60 271.5t59.5 273.5t163 199t224.5 68.5q92 -3 164.5 -58t104.5 -126v159h179v-1434h-179v536q-38 -70 -111.5 -114.5t-157.5 -44.5zM513 929q-111 0 -189.5 -113t-78.5 -275t78.5 -275t189.5 -113q118 0 193.5 98t75.5 290t-75.5 290
t-193.5 98z" />
    <glyph glyph-name="r" unicode="r" horiz-adv-x="679" 
d="M516 1082q71 0 140 -25v-166q-48 24 -140 24q-77 0 -129 -37.5t-73.5 -91.5t-21.5 -120v-666h-179v1057h179v-159q24 67 86 125.5t138 58.5z" />
    <glyph glyph-name="s" unicode="s" horiz-adv-x="997" 
d="M655 589q272 -74 272 -282q0 -68 -23.5 -124.5t-64 -95t-95 -65t-116 -37.5t-127.5 -9q-101 3 -185 35.5t-137.5 84t-83 115t-29.5 130.5h164q0 -82 77 -145t194 -67q114 -4 179 42.5t65 119.5q0 48 -41 78.5t-117 52.5l-239 64q-46 12 -89 35t-82 58t-63 85.5t-24 108.5
q0 128 117.5 218.5t284.5 90.5q96 0 177.5 -30.5t132 -78t75.5 -105t16 -113.5h-165q0 78 -65 126t-162 48q-94 0 -161 -41.5t-67 -100.5q0 -52 34 -82.5t99 -48.5z" />
    <glyph glyph-name="t" unicode="t" horiz-adv-x="616" 
d="M562 914h-179v-654q0 -33 23 -57t55 -24h101v-179h-98q-107 0 -183.5 76t-76.5 184v654h-179v143h179v376h179v-376h179v-143z" />
    <glyph glyph-name="u" unicode="u" horiz-adv-x="1058" 
d="M100 353v704h180v-704q0 -98 64.5 -161t184.5 -63q74 0 129.5 43.5t81 105t25.5 126.5v653h180v-1056h-180v105q-34 -53 -103 -92t-159 -39q-129 0 -223 56q-85 50 -132.5 134t-47.5 188z" />
    <glyph glyph-name="v" unicode="v" horiz-adv-x="1054" 
d="M840 1057h192l-355 -1057h-293l-364 1057h192l318 -983z" />
    <glyph glyph-name="w" unicode="w" horiz-adv-x="1447" 
d="M1231 1057h190l-308 -1056h-176l-213 818l-213 -818h-176l-308 1056h190l206 -849l218 849h166l218 -849z" />
    <glyph glyph-name="x" unicode="x" horiz-adv-x="1009" 
d="M985 1057l-372 -531l368 -525h-219l-258 381l-258 -381h-219l368 525l-372 531h218l263 -388l263 388h218z" />
    <glyph glyph-name="y" unicode="y" horiz-adv-x="1032" 
d="M823 1057h190l-410 -1056l-92 -238q-43 -95 -141 -128q-39 -12 -73 -12h-88v161h90q47 2 65 43l64 174l-25 64l-385 992h191l307 -849z" />
    <glyph glyph-name="z" unicode="z" horiz-adv-x="942" 
d="M270 144h622v-144h-847v145l619 768h-575v144h785v-163z" />
    <glyph glyph-name="braceleft" unicode="{" horiz-adv-x="821" 
d="M502 912q0 -88 -25.5 -157.5t-64.5 -111t-91.5 -68.5t-101.5 -37t-99 -10q50 0 99 -10t101.5 -37t91.5 -68.5t64.5 -111t25.5 -157.5v-103q0 -115 81 -196t195 -81v-141q-174 0 -302 124.5t-128 305.5v148q-1 103 -75 155.5t-189 52.5v239q115 0 189 52.5t75 155.5v148
q0 114 56 212.5t155.5 158t218.5 59.5v-142q-114 0 -195 -80.5t-81 -195.5v-104z" />
    <glyph glyph-name="verticalbar" unicode="|" horiz-adv-x="401" 
d="M277 -231h-154v1781h154v-1781z" />
    <glyph glyph-name="braceright" unicode="}" horiz-adv-x="821" 
d="M701 528q-50 0 -99 10t-101.5 37t-91.5 68.5t-64.5 111t-25.5 157.5v104q0 115 -81 195.5t-195 80.5v142q119 0 218.5 -59.5t155.5 -158t56 -212.5v-148q1 -103 75 -155.5t189 -52.5v-239q-115 0 -189 -52.5t-75 -155.5v-148q0 -181 -128 -305.5t-302 -124.5v141
q114 0 195 81t81 196v103q0 88 25.5 157.5t64.5 111t91.5 68.5t101.5 37t99 10z" />
    <glyph glyph-name="asciitilde" unicode="~" horiz-adv-x="825" 
d="M657 717h96q0 -64 -36 -119.5t-101 -82.5t-139 -6q-180 66 -183 67q-46 13 -86.5 -13.5t-40.5 -77.5h-95q0 101 82.5 170t192.5 38q181 -66 184 -67q46 -13 86 13t40 78z" />
    <glyph glyph-name="nonbreakingspace" unicode="&#xa0;" horiz-adv-x="679" 
 />
    <glyph glyph-name="exclamdown" unicode="&#xa1;" horiz-adv-x="442" 
d="M169 718h103q38 -822 38 -1095h-179q0 122 9.5 395.5t19.5 486.5zM221 878q-50 0 -85.5 26t-35.5 63t36 63.5t85 26.5t84.5 -26.5t35.5 -63.5t-35 -63t-85 -26z" />
    <glyph glyph-name="cent" unicode="&#xa2;" horiz-adv-x="1161" 
d="M588 128q109 0 183.5 67t107.5 182h175q-38 -181 -159 -292t-307 -111q-142 0 -253 66l-87 -126l-99 69l92 134q-129 140 -138 378q-10 265 124 426t356 161q158 0 273 -78l89 128l99 -69l-98 -141q86 -103 113 -259h-167q-13 64 -43 118l-423 -609q71 -44 162 -44z
M273 528q0 -165 67 -270l426 615q-78 55 -178 55q-134 0 -224.5 -111t-90.5 -289z" />
    <glyph glyph-name="sterling" unicode="&#xa3;" horiz-adv-x="1236" 
d="M527 630q17 -73 17 -151q-7 -219 -163 -325h758v-154h-1043v154q122 0 208.5 100.5t86.5 243.5q0 68 -22 132h-273v134h219q-28 101 -28 207q0 197 119 329.5t306 132.5q185 0 300 -132.5t126 -333.5h-153q0 134 -76 223t-197 89q-120 0 -199 -103.5t-71 -237.5
q5 -98 40 -174h295v-134h-250z" />
    <glyph glyph-name="currency" unicode="&#xa4;" horiz-adv-x="1122" 
d="M945 696q0 -128 -76 -230l160 -159l-79 -79l-160 159q-101 -76 -230 -76q-127 0 -230 77l-159 -160l-79 79l160 159q-76 100 -76 230q0 128 76 230l-160 160l79 78l159 -159q102 76 230 76t230 -76l160 159l79 -78l-160 -160q76 -102 76 -230zM754 503q80 80 80 193
q0 114 -80 194t-194 80q-113 0 -193 -80t-80 -194q0 -113 80 -193t193.5 -80t193.5 80z" />
    <glyph glyph-name="yen" unicode="&#xa5;" horiz-adv-x="1419" 
d="M1348 1433l-477 -753h299v-113h-371v-165h371v-113h-371v-289h-179v289h-372v113h372v163l-1 2h-371v113h299l-477 753h212l427 -699l427 699h212z" />
    <glyph glyph-name="brokenbar" unicode="&#xa6;" horiz-adv-x="382" 
d="M266 814h-151v736h151v-736zM266 -231h-151v735h151v-735z" />
    <glyph glyph-name="section" unicode="&#xa7;" horiz-adv-x="1081" 
d="M735 336q108 0 171.5 -71t63.5 -169q0 -68 -23.5 -124.5t-64 -95t-95 -65t-116 -37.5t-127.5 -9q-101 3 -185 35.5t-137.5 84t-83 115t-29.5 130.5h164q0 -82 77 -145t194 -67q114 -4 179 42.5t65 119.5q0 48 -41 78.5t-117 52.5l-239 64q-42 11 -83.5 32.5t-82.5 55.5
t-66.5 86t-25.5 113q0 104 77.5 180t175.5 76q-109 0 -181 78.5t-72 177.5q0 128 117.5 218.5t284.5 90.5q96 0 177.5 -30.5t132 -78t75.5 -105t16 -113.5h-165q0 78 -65 126t-162 48q-94 0 -161 -41.5t-67 -100.5q0 -52 34 -82.5t99 -48.5l249 -66q49 -13 94.5 -38
t86.5 -62t66 -91t25 -117q0 -98 -70 -172.5t-165 -74.5zM544 430q101 0 172.5 42t71.5 112q0 65 -68 109.5t-160 44.5q-101 0 -172.5 -42t-71.5 -112q0 -65 68 -109.5t160 -44.5z" />
    <glyph glyph-name="dieresis" unicode="&#xa8;" horiz-adv-x="702" 
d="M190 1255q-50 0 -85 26t-35 63t35.5 63.5t84.5 26.5t84.5 -26.5t35.5 -63.5t-35 -63t-85 -26zM512 1255q-50 0 -85.5 26t-35.5 63t36 63.5t85 26.5t84.5 -26.5t35.5 -63.5t-35 -63t-85 -26z" />
    <glyph glyph-name="copyright" unicode="&#xa9;" horiz-adv-x="1634" 
d="M1324 1224q101 -101 155.5 -232.5t54.5 -274.5t-54.5 -274.5t-155.5 -232.5t-232.5 -155.5t-274.5 -54.5t-274.5 54.5t-232.5 155.5t-155.5 232.5t-54.5 274.5t54.5 274.5t155.5 232.5t232.5 155.5t274.5 54.5t274.5 -54.5t232.5 -155.5zM1253 281q87 87 133.5 199.5
t46.5 236.5t-46.5 236t-133.5 199t-200 134t-236 47t-235.5 -47t-199.5 -134t-134 -199.5t-47 -235.5t47 -236t134 -200t199 -133.5t236 -46.5t236.5 46.5t199.5 133.5zM823 1043q-108 0 -180 -98.5t-72 -227.5q0 -85 28.5 -158t87 -121t136.5 -48t139.5 52t90.5 142h108
q-15 -75 -50.5 -132.5t-83 -90t-99.5 -48.5t-107 -16q-165 0 -258.5 119.5t-93.5 300.5q0 177 98 298t253 121t240.5 -82.5t104.5 -204.5h-106q-47 194 -236 194z" />
    <glyph glyph-name="guillemotleft" unicode="&#xab;" horiz-adv-x="1130" 
d="M617 940l-343 -413l348 -406h-198l-344 406l345 413h192zM703 527l348 -406h-198l-344 406l344 413h193z" />
    <glyph glyph-name="logicalnot" unicode="&#xac;" horiz-adv-x="1218" 
d="M74 721h1051v-477h-124v353h-927v124z" />
    <glyph glyph-name="softhyphen" unicode="&#xad;" horiz-adv-x="0" 
 />
    <glyph glyph-name="registered" unicode="&#xae;" horiz-adv-x="1634" 
d="M1324 1224q101 -101 155.5 -232.5t54.5 -274.5t-54.5 -274.5t-155.5 -232.5t-232.5 -155.5t-274.5 -54.5t-274.5 54.5t-232.5 155.5t-155.5 232.5t-54.5 274.5t54.5 274.5t155.5 232.5t232.5 155.5t274.5 54.5t274.5 -54.5t232.5 -155.5zM1253 281q87 87 133.5 199.5
t46.5 236.5t-46.5 236t-133.5 199t-200 134t-236 47t-235.5 -47t-199.5 -134t-134 -199.5t-47 -235.5t47 -236t134 -200t199 -133.5t236 -46.5t236.5 46.5t199.5 133.5zM1139 898q0 -98 -59 -164.5t-158 -67.5l233 -333h-120l-233 333h1h-170v-333h-98v787h383q45 0 85 -17
q61 -26 98 -81v-1h1q37 -54 37 -123zM633 752h263q75 0 110 38.5t35 95.5q0 27 -10.5 56t-27.5 45q-36 34 -85 34l-284 1z" />
    <glyph glyph-name="overscore" unicode="&#xaf;" horiz-adv-x="729" 
d="M669 1352h-610v120h610v-120z" />
    <glyph glyph-name="degree" unicode="&#xb0;" horiz-adv-x="559" 
d="M279 1472q82 0 139.5 -57.5t57.5 -139.5t-57.5 -139.5t-139.5 -57.5t-139.5 57.5t-57.5 139.5t57.5 139.5t139.5 57.5zM279 1186q37 0 63.5 26t26.5 63t-26.5 63.5t-63.5 26.5t-63.5 -26.5t-26.5 -63.5t26.5 -63t63.5 -26z" />
    <glyph glyph-name="plusminus" unicode="&#xb1;" horiz-adv-x="784" 
d="M450 755h241v-124h-241v-234h-117v234h-241v124h241v234h117v-234zM691 178h-599v117h599v-117z" />
    <glyph glyph-name="acute" unicode="&#xb4;" horiz-adv-x="485" 
d="M245 1473h215l-259 -281h-133z" />
    <glyph glyph-name="paragraph" unicode="&#xb6;" horiz-adv-x="1134" 
d="M474 1472h537v-1684h-179v1528h-179v-1528h-179v912q-160 0 -273 113t-113 273t113 273t273 113z" />
    <glyph glyph-name="periodcentered" unicode="&#xb7;" horiz-adv-x="620" 
d="M309 513q-93 0 -159 61t-66 147t66 146.5t159 60.5t159.5 -60.5t66.5 -146.5t-66.5 -147t-159.5 -61z" />
    <glyph glyph-name="cedilla" unicode="&#xb8;" horiz-adv-x="217" 
d="M121 -73q76 -12 125 -61t49 -114q0 -74 -63 -126t-153 -52q-77 0 -136 40v109q58 -39 136 -39q35 0 59 20t24 48q0 30 -22.5 52t-60.5 22h-97v81l71 112h124z" />
    <glyph glyph-name="guillemotright" unicode="&#xbb;" horiz-adv-x="1130" 
d="M704 940l345 -413l-345 -406h-197l348 406l-344 413h193zM275 940l345 -413l-344 -406h-198l348 406l-344 413h193z" />
    <glyph glyph-name="questiondown" unicode="&#xbf;" horiz-adv-x="1024" 
d="M530 917q-50 0 -85 26t-35 63t35.5 63.5t84.5 26.5t84.5 -26.5t35.5 -63.5t-35 -63t-85 -26zM787 98h179q0 -127 -52 -234t-155.5 -174t-238.5 -67q-184 0 -315 115t-131 277q0 88 42.5 166t116.5 133q119 88 163 173.5t44 238.5h180v-25q0 -296 -242 -471
q-57 -43 -81 -76q-44 -60 -44 -139q0 -98 78.5 -168t188.5 -70q128 0 197.5 93.5t69.5 227.5z" />
    <glyph glyph-name="Agrave" unicode="&#xc0;" horiz-adv-x="1304" 
d="M817 1432l472 -1433h-190l-143 430h-613l-139 -430h-190l460 1433h343zM394 585l509 1l-258 774zM770 1543h-134l-259 281h215z" />
    <glyph glyph-name="Aacute" unicode="&#xc1;" horiz-adv-x="1304" 
d="M817 1432l472 -1433h-190l-143 430h-613l-139 -430h-190l460 1433h343zM394 585l509 1l-258 774zM861 1824l-259 -281h-134l178 281h215z" />
    <glyph glyph-name="Acircumflex" unicode="&#xc2;" horiz-adv-x="1304" 
d="M817 1432l472 -1433h-190l-143 430h-613l-139 -430h-190l460 1433h343zM394 585l509 1l-258 774zM651 1780l-164 -237h-157l196 281h250l197 -281h-158z" />
    <glyph glyph-name="Atilde" unicode="&#xc3;" horiz-adv-x="1298" 
d="M815 1433l471 -1433h-189l-143 430h-613l-139 -430h-190l460 1433h343zM392 586h509l-258 775zM531 1654q-47 13 -87 -12.5t-40 -77.5h-95q0 47 21.5 91.5t58.5 75.5t87 43.5t108 -3.5q181 -66 184 -67q46 -13 86 13t40 78h96q0 -47 -21.5 -92t-59 -76t-87.5 -43.5
t-108 3.5q-180 66 -183 67z" />
    <glyph glyph-name="Adieresis" unicode="&#xc4;" horiz-adv-x="1304" 
d="M817 1433l472 -1433h-190l-143 430l-613 -1l-139 -429h-190l460 1433h343zM394 586h509l-258 775zM491 1581q-44 0 -75.5 26.5t-31.5 63.5t31.5 63t75.5 26t76 -26t32 -63t-32 -63.5t-76 -26.5zM813 1581q-44 0 -76 26.5t-32 63.5t32 63t76 26t76 -26t32 -63t-32 -63.5
t-76 -26.5z" />
    <glyph glyph-name="Aring" unicode="&#xc5;" horiz-adv-x="1304" 
d="M817 1433l472 -1433h-190l-143 430l-613 -1l-139 -429h-190l460 1433h343zM394 586h509l-258 775zM651 1547q-82 0 -139.5 57.5t-57.5 139.5t57.5 139.5t139.5 57.5t140 -57.5t58 -139.5t-58 -139.5t-140 -57.5zM651 1833q-37 0 -63 -26t-26 -63t26 -63.5t63 -26.5
t63.5 26.5t26.5 63.5t-26.5 63t-63.5 26z" />
    <glyph glyph-name="AE" unicode="&#xc6;" horiz-adv-x="2091" 
d="M2032 1277h-876v-483h799v-154h-799v-484h876v-156h-1055v430h-583l-200 -430h-190l663 1433h1365v-156zM467 586h510v691h-187z" />
    <glyph glyph-name="Ccedilla" unicode="&#xc7;" horiz-adv-x="1380" 
d="M707 127q140 0 251 94t164 256h195q-21 -106 -65.5 -192.5t-102 -144.5t-128.5 -98.5t-143.5 -59.5t-148.5 -22l-28 -46q76 -12 125.5 -60.5t49.5 -113.5q0 -74 -63.5 -126t-153.5 -52q-78 0 -136 39v110q59 -40 136 -40q35 0 59.5 20.5t24.5 48.5q0 30 -23 51.5
t-61 21.5h-96v81l45 72q-129 18 -232 83.5t-170 165.5t-102.5 228t-35.5 273q0 124 29 239t85 208.5t132 163t175.5 108t211.5 38.5q145 0 260.5 -43.5t188.5 -118.5t116 -164t58 -192h-192q-18 75 -49 135.5t-80 111.5t-124.5 78.5t-171.5 24.5q-98 -3 -184.5 -53.5
t-145 -132.5t-92.5 -187t-34 -216q0 -113 30.5 -217.5t87 -188t144.5 -133.5t194 -50z" />
    <glyph glyph-name="Egrave" unicode="&#xc8;" horiz-adv-x="1236" 
d="M1178 1276h-876v-483h799v-154h-799v-483h876v-157h-1055v1434h1055v-157zM769 1543h-133l-259 281h215z" />
    <glyph glyph-name="Eacute" unicode="&#xc9;" horiz-adv-x="1236" 
d="M870 1824l-258 -281h-134l177 281h215zM1178 1276h-876v-483h799v-154h-799v-483h876v-157h-1055v1434h1055v-157z" />
    <glyph glyph-name="Ecircumflex" unicode="&#xca;" horiz-adv-x="1236" 
d="M1178 1276h-876v-483h799v-154h-799v-483h876v-157h-1055v1434h1055v-157zM650 1780l-165 -237h-156l195 281h251l197 -281h-158z" />
    <glyph glyph-name="Edieresis" unicode="&#xcb;" horiz-adv-x="1236" 
d="M1178 1276h-876v-483h799v-154h-799v-483h876v-157h-1055v1434h1055v-157zM490 1581q-44 0 -76 26t-32 63t32 63t76 26t75.5 -26t31.5 -63t-31.5 -63t-75.5 -26zM811 1581q-44 0 -75.5 26t-31.5 63t31.5 63t75.5 26t76 -26t32 -63t-32 -63t-76 -26z" />
    <glyph glyph-name="Igrave" unicode="&#xcc;" horiz-adv-x="425" 
d="M302 -1h-179v1434h179v-1434zM333 1543h-134l-258 281h214z" />
    <glyph glyph-name="Iacute" unicode="&#xcd;" horiz-adv-x="425" 
d="M302 -1h-179v1434h179v-1434zM417 1824l-259 -281h-133l177 281h215z" />
    <glyph glyph-name="Icircumflex" unicode="&#xce;" horiz-adv-x="425" 
d="M302 -1h-179v1434h179v-1434zM338 1824l196 -281h-157l-165 237l-164 -237h-157l196 281h251z" />
    <glyph glyph-name="Idieresis" unicode="&#xcf;" horiz-adv-x="428" 
d="M303 -1h-180v1434h180v-1434zM52 1581q-44 0 -75.5 26t-31.5 63t31.5 63t75.5 26t76 -26t32 -63t-32 -63t-76 -26zM374 1581q-44 0 -76 26t-32 63t32 63t76 26t75.5 -26t31.5 -63t-31.5 -63t-75.5 -26z" />
    <glyph glyph-name="Eth" unicode="&#xd0;" horiz-adv-x="1411" 
d="M746 1434q171 0 308 -93.5t213.5 -257.5t76.5 -366t-76.5 -366t-213.5 -257.5t-308 -93.5h-572v632h-119v157h119v645h572zM746 156q118 3 211.5 82t142.5 205.5t49 273.5q0 150 -48 276.5t-141.5 205t-213.5 78.5h-392v-488h392v-157h-392v-476h392z" />
    <glyph glyph-name="Ntilde" unicode="&#xd1;" horiz-adv-x="1376" 
d="M1073 1433h179v-1433h-214l-736 1180v-1180h-179v1433l214 1l736 -1181v1180zM586 1654q-46 13 -86 -13t-40 -78h-95q0 101 82.5 170t192.5 38q181 -66 184 -67q46 -13 86 13t40 78h96q0 -47 -21.5 -92t-59 -76t-87.5 -43.5t-108 3.5q-181 66 -184 67z" />
    <glyph glyph-name="Ograve" unicode="&#xd2;" horiz-adv-x="1525" 
d="M893 1589h-134l-258 281h214zM756 1474q153 0 286 -59.5t224.5 -161.5t143.5 -241t52 -294t-52 -294t-143.5 -241t-224.5 -161.5t-286 -59.5q-204 0 -363.5 102t-244.5 273.5t-85 380.5t85 380.5t244.5 273.5t363.5 102zM756 129q154 0 273 81.5t180 214.5t61 293
t-61 293t-180 214.5t-273 81.5t-269.5 -81.5t-173 -214t-57.5 -293.5t57.5 -293.5t173 -214t269.5 -81.5z" />
    <glyph glyph-name="Oacute" unicode="&#xd3;" horiz-adv-x="1525" 
d="M974 1870l-259 -281h-133l177 281h215zM756 1474q153 0 286 -59.5t224.5 -161.5t143.5 -241t52 -294t-52 -294t-143.5 -241t-224.5 -161.5t-286 -59.5q-204 0 -363.5 102t-244.5 273.5t-85 380.5t85 380.5t244.5 273.5t363.5 102zM756 129q154 0 273 81.5t180 214.5
t61 293t-61 293t-180 214.5t-273 81.5t-269.5 -81.5t-173 -214t-57.5 -293.5t57.5 -293.5t173 -214t269.5 -81.5z" />
    <glyph glyph-name="Ocircumflex" unicode="&#xd4;" horiz-adv-x="1525" 
d="M762 1827l-164 -238h-157l196 282h251l196 -282h-157zM756 1474q153 0 286 -59.5t224.5 -161.5t143.5 -241t52 -294t-52 -294t-143.5 -241t-224.5 -161.5t-286 -59.5q-204 0 -363.5 102t-244.5 273.5t-85 380.5t85 380.5t244.5 273.5t363.5 102zM756 129q154 0 273 81.5
t180 214.5t61 293t-61 293t-180 214.5t-273 81.5t-269.5 -81.5t-173 -214t-57.5 -293.5t57.5 -293.5t173 -214t269.5 -81.5z" />
    <glyph glyph-name="Otilde" unicode="&#xd5;" horiz-adv-x="1525" 
d="M756 1474q153 0 286 -59.5t224.5 -161.5t143.5 -241t52 -294t-52 -294t-143.5 -241.5t-224.5 -162t-286 -59.5t-284 59.5t-220 162t-139 241t-50 294.5q0 209 85 380.5t244.5 273.5t363.5 102zM756 128q154 0 273 81.5t180 215t61 293.5t-61 293t-180 214.5t-273 81.5
t-269.5 -81.5t-173 -214t-57.5 -293.5t57.5 -293.5t173 -214.5t269.5 -82zM644 1655q-46 13 -86 -13t-40 -78h-96q0 47 21.5 92t59 76t87.5 43.5t108 -3.5q180 -66 183 -67q46 -13 86.5 13t40.5 78h95q0 -101 -82.5 -170t-192.5 -38q-181 66 -184 67z" />
    <glyph glyph-name="Odieresis" unicode="&#xd6;" horiz-adv-x="1525" 
d="M602 1624q-44 0 -76 26.5t-32 63.5t32 63t76 26t75.5 -26t31.5 -63t-31.5 -63.5t-75.5 -26.5zM923 1624q-44 0 -75.5 26.5t-31.5 63.5t31.5 63t75.5 26t76 -26t32 -63t-32 -63.5t-76 -26.5zM756 1474q153 0 286 -59.5t224.5 -161.5t143.5 -241t52 -294t-52 -294
t-143.5 -241t-224.5 -161.5t-286 -59.5q-204 0 -363.5 102t-244.5 273.5t-85 380.5t85 380.5t244.5 273.5t363.5 102zM756 129q154 0 273 81.5t180 214.5t61 293t-61 293t-180 214.5t-273 81.5t-269.5 -81.5t-173 -214t-57.5 -293.5t57.5 -293.5t173 -214t269.5 -81.5z" />
    <glyph glyph-name="multiply" unicode="&#xd7;" horiz-adv-x="997" 
d="M907 802l-301 -301l301 -301l-107 -107l-302 301l-301 -301l-107 107l301 301l-301 301l107 107l301 -301l302 301z" />
    <glyph glyph-name="Oslash" unicode="&#xd8;" horiz-adv-x="1529" 
d="M1237 1280q108 -105 167.5 -252t59.5 -315q0 -155 -52 -294t-143.5 -241t-224.5 -161.5t-286 -59.5q-204 0 -366 104l-103 -149l-99 69l107 154q-111 105 -171 255t-60 323q0 156 50 294.5t139 240.5t219.5 161.5t283.5 59.5q214 0 384 -113l117 168l99 -69zM258 713
q0 -125 36.5 -236t105.5 -192l643 928q-124 89 -285 89q-154 0 -269.5 -81.5t-173 -214t-57.5 -293.5zM758 124q154 0 273 81.5t180 214.5t61 293q0 249 -139 416l-642 -926q117 -79 267 -79z" />
    <glyph glyph-name="Ugrave" unicode="&#xd9;" horiz-adv-x="1343" 
d="M869 1547h-133l-259 281h215zM1058 1434h180v-906q0 -118 -46 -224t-123 -181t-181 -118.5t-217 -43.5t-217 43.5t-181 118.5t-123 181t-46 224v906h180v-906q0 -162 114 -281t273 -119t273 119t114 281v906z" />
    <glyph glyph-name="Uacute" unicode="&#xda;" horiz-adv-x="1343" 
d="M881 1828l-259 -281h-133l177 281h215zM1058 1434h180v-906q0 -118 -46 -224t-123 -181t-181 -118.5t-217 -43.5t-217 43.5t-181 118.5t-123 181t-46 224v906h180v-906q0 -162 114 -281t273 -119t273 119t114 281v906z" />
    <glyph glyph-name="Ucircumflex" unicode="&#xdb;" horiz-adv-x="1343" 
d="M1058 1434h180v-906q0 -118 -46 -224t-123 -181t-181 -118.5t-217 -43.5t-217 43.5t-181 118.5t-123 181t-46 224v906h180v-906q0 -162 114 -281t273 -119t273 119t114 281v906zM657 1785l-164 -238h-157l196 281h251l196 -281h-158z" />
    <glyph glyph-name="Udieresis" unicode="&#xdc;" horiz-adv-x="1343" 
d="M500 1627q-44 0 -75.5 26t-31.5 63t31.5 63t75.5 26t76 -26t32 -63t-32 -63t-76 -26zM822 1627q-44 0 -76 26t-32 63t32 63t76 26t75.5 -26t31.5 -63t-31.5 -63t-75.5 -26zM1058 1434h180v-906q0 -118 -46 -224t-123 -181t-181 -118.5t-217 -43.5t-217 43.5t-181 118.5
t-123 181t-46 224v906h180v-906q0 -162 114 -281t273 -119t273 119t114 281v906z" />
    <glyph glyph-name="Yacute" unicode="&#xdd;" horiz-adv-x="1267" 
d="M833 1826l-259 -281h-133l177 281h215zM1060 1432h212l-549 -866v-567h-179v566l-550 867h212l427 -699z" />
    <glyph glyph-name="Thorn" unicode="&#xde;" horiz-adv-x="1224" 
d="M783 1433q170 0 286 -119.5t116 -284.5q0 -181 -110 -302t-293 -121h-480v-306l-1 -300h-178v1433v301h179v-301h481zM782 762q90 0 157 80.5t67 176.5q0 108 -63.5 183t-159.5 75h-480l-1 -515h480z" />
    <glyph glyph-name="germandbls" unicode="&#xdf;" horiz-adv-x="1079" 
d="M1011 405h1q0 -189 -133 -316.5t-340 -127.5q-35 0 -75 5v157q37 -8 75 -8q59 0 108.5 19t83 49t57 68.5t34 77.5t10.5 76q0 117 -59.5 191.5t-164.5 74.5h-144v156h75q103 0 163.5 55.5t60.5 148.5q0 106 -62 177.5t-162 71.5h-1q-110 0 -178 -78.5t-68 -193.5l1 -1007
h-179l-1 1007q0 181 126 303.5t299 122.5q170 0 287 -118.5t117 -283.5q0 -85 -42 -157.5t-115 -108.5q81 -25 134 -85.5t72.5 -129t19.5 -146.5z" />
    <glyph glyph-name="agrave" unicode="&#xe0;" 
d="M643 1193h-133l-259 281h215zM510 1083q73 0 141.5 -18.5t126.5 -53.5t93 -94t35 -133v-783h-180v158q-9 -27 -28 -55t-50 -57.5t-81 -49t-110 -21.5q-93 -3 -170 27t-124.5 81t-73.5 113.5t-26 127.5q0 157 114 253t282 96h160q47 0 78.5 34.5t28.5 84.5
q-8 134 -216 134q-67 0 -119 -28t-75 -81h-187q25 80 70.5 135.5t101.5 82t105.5 37t103.5 10.5zM726 325v232q-70 -26 -138 -26h-129q-88 0 -152 -51t-64 -155q0 -83 59 -138.5t157 -55.5q103 0 185 57.5t82 136.5z" />
    <glyph glyph-name="aacute" unicode="&#xe1;" 
d="M743 1474l-258 -281h-134l177 281h215zM510 1083q73 0 141.5 -18.5t126.5 -53.5t93 -94t35 -133v-783h-180v158q-9 -27 -28 -55t-50 -57.5t-81 -49t-110 -21.5q-93 -3 -170 27t-124.5 81t-73.5 113.5t-26 127.5q0 157 114 253t282 96h160q47 0 78.5 34.5t28.5 84.5
q-8 134 -216 134q-67 0 -119 -28t-75 -81h-187q25 80 70.5 135.5t101.5 82t105.5 37t103.5 10.5zM726 325v232q-70 -26 -138 -26h-129q-88 0 -152 -51t-64 -155q0 -83 59 -138.5t157 -55.5q103 0 185 57.5t82 136.5z" />
    <glyph glyph-name="acircumflex" unicode="&#xe2;" 
d="M535 1430l-164 -238h-157l196 282h251l196 -282h-157zM510 1083q73 0 141.5 -18.5t126.5 -53.5t93 -94t35 -133v-783h-180v158q-9 -27 -28 -55t-50 -57.5t-81 -49t-110 -21.5q-93 -3 -170 27t-124.5 81t-73.5 113.5t-26 127.5q0 157 114 253t282 96h160q47 0 78.5 34.5
t28.5 84.5q-8 134 -216 134q-67 0 -119 -28t-75 -81h-187q25 80 70.5 135.5t101.5 82t105.5 37t103.5 10.5zM726 325v232q-70 -26 -138 -26h-129q-88 0 -152 -51t-64 -155q0 -83 59 -138.5t157 -55.5q103 0 185 57.5t82 136.5z" />
    <glyph glyph-name="atilde" unicode="&#xe3;" 
d="M510 1083q73 0 141.5 -18.5t126.5 -53.5t93 -94t35 -133v-783h-180v158q-9 -27 -28 -55t-50 -57.5t-81 -49t-110 -21.5q-93 -3 -170 27t-124.5 81t-73.5 113.5t-26 127.5q0 157 114 253t282 96h160q47 0 78.5 34.5t28.5 84.5q-8 134 -216 134q-67 0 -119 -28t-75 -81
h-187q25 80 70.5 135.5t101.5 82t105.5 37t103.5 10.5zM726 325v232q-70 -26 -138 -26h-129q-88 0 -152 -51t-64 -155q0 -83 59 -138.5t157 -55.5q103 0 185 57.5t82 136.5zM402 1263q-46 13 -86.5 -13t-40.5 -77h-95q0 47 21.5 91.5t58.5 75.5t87 43.5t108 -3.5
q181 -66 184 -67q46 -13 86 13t40 78h96q0 -47 -21.5 -92t-59 -76t-87.5 -43.5t-108 3.5q-180 66 -183 67z" />
    <glyph glyph-name="adieresis" unicode="&#xe4;" 
d="M360 1228q-44 0 -76 26t-32 63t32 63.5t76 26.5t75.5 -26.5t31.5 -63.5t-31.5 -63t-75.5 -26zM681 1228q-44 0 -75.5 26t-31.5 63t31.5 63.5t75.5 26.5t76 -26.5t32 -63.5t-32 -63t-76 -26zM510 1083q73 0 141.5 -18.5t126.5 -53.5t93 -94t35 -133v-783h-180v158
q-9 -27 -28 -55t-50 -57.5t-81 -49t-110 -21.5q-93 -3 -170 27t-124.5 81t-73.5 113.5t-26 127.5q0 157 114 253t282 96h160q47 0 78.5 34.5t28.5 84.5q-8 134 -216 134q-67 0 -119 -28t-75 -81h-187q25 80 70.5 135.5t101.5 82t105.5 37t103.5 10.5zM726 325v232
q-70 -26 -138 -26h-129q-88 0 -152 -51t-64 -155q0 -83 59 -138.5t157 -55.5q103 0 185 57.5t82 136.5z" />
    <glyph glyph-name="aring" unicode="&#xe5;" 
d="M510 1083q73 0 141.5 -18.5t126.5 -53.5t93 -94t35 -133v-783h-180v158q-9 -27 -28 -55t-50 -57.5t-81 -49t-110 -21.5q-93 -3 -170 27t-124.5 81t-73.5 113.5t-26 127.5q0 157 114 253t282 96h160q47 0 78.5 34.5t28.5 84.5q-8 134 -216 134q-67 0 -119 -28t-75 -81
h-187q25 80 70.5 135.5t101.5 82t105.5 37t103.5 10.5zM726 325v232q-70 -26 -138 -26h-129q-88 0 -152 -51t-64 -155q0 -83 59 -138.5t157 -55.5q103 0 185 57.5t82 136.5zM510 1196q-82 0 -139.5 57.5t-57.5 139.5t57.5 140t139.5 58t139.5 -58t57.5 -140t-57.5 -139.5
t-139.5 -57.5zM510 1483q-37 0 -63.5 -26.5t-26.5 -63.5t26.5 -63t63.5 -26t63 26t26 63t-26 63.5t-63 26.5z" />
    <glyph glyph-name="ae" unicode="&#xe6;" horiz-adv-x="1759" 
d="M1212 129q204 0 284 223h178q-31 -164 -154.5 -270.5t-307.5 -106.5q-76 0 -143 19.5t-108.5 44.5t-77.5 61t-50 55.5t-27 41.5q-15 -31 -44 -66t-72 -71.5t-105 -60.5t-128 -24q-89 0 -160 25t-113.5 63t-71 87t-39 92t-10.5 83q0 154 112 251.5t284 97.5h160
q44 0 74.5 30.5t32.5 69.5q8 152 -216 152q-61 0 -115.5 -26t-78.5 -82h-187q21 69 59.5 120.5t78.5 78t90 42.5t83.5 19.5t69.5 3.5q76 0 140.5 -16t105.5 -42t66 -49.5t41 -47.5q64 74 150.5 114.5t186.5 41.5q61 1 116.5 -10.5t112.5 -36.5t103 -70.5t82.5 -108.5
t56.5 -155.5t20 -206.5h-785q0 -161 84 -263.5t222 -102.5zM1204 941q-124 0 -206.5 -91t-82.5 -211h594q0 67 -27 124.5t-70 96t-97.5 60t-110.5 21.5zM726 325v232q-70 -26 -138 -26h-129q-10 0 -21 -1t-39.5 -6t-52.5 -18.5t-49 -34.5t-39.5 -59t-14.5 -87
q0 -83 59 -138.5t157 -55.5q103 0 185 57.5t82 136.5z" />
    <glyph glyph-name="ccedilla" unicode="&#xe7;" horiz-adv-x="1085" 
d="M556 130q110 0 184 66.5t107 181.5h174q-37 -175 -151.5 -285t-290.5 -117l-30 -47q76 -12 125.5 -61t49.5 -114q0 -74 -63 -126t-153 -52q-78 0 -137 40v109q59 -40 137 -40q34 0 58.5 20t24.5 49q0 30 -22.5 52t-60.5 22h-97v80l47 76q-172 30 -276 165t-112 347
q-10 265 124.5 426t356.5 161q188 0 314.5 -111t160.5 -308h-167q-26 128 -108 196.5t-196 68.5q-134 0 -224.5 -111.5t-90.5 -288.5q0 -183 82.5 -291t233.5 -108z" />
    <glyph glyph-name="egrave" unicode="&#xe8;" horiz-adv-x="1097" 
d="M1031 529v-33h-790q9 -171 96.5 -268t213.5 -99q96 2 171.5 59.5t111.5 163.5h178q-42 -178 -165 -276.5t-296 -100.5q-214 2 -347.5 149t-133.5 405q0 257 135.5 405.5t345.5 148.5t345 -148.5t135 -405.5zM250 639h601q-26 131 -108.5 209.5t-191.5 80.5
q-109 -2 -192 -80.5t-109 -209.5zM671 1193h-133l-259 281h215z" />
    <glyph glyph-name="eacute" unicode="&#xe9;" horiz-adv-x="1097" 
d="M1031 529v-33h-790q9 -171 96.5 -268t213.5 -99q96 2 171.5 59.5t111.5 163.5h178q-42 -178 -165 -276.5t-296 -100.5q-214 2 -347.5 149t-133.5 405q0 257 135.5 405.5t345.5 148.5t345 -148.5t135 -405.5zM250 639h601q-26 131 -108.5 209.5t-191.5 80.5
q-109 -2 -192 -80.5t-109 -209.5zM771 1474l-258 -281h-134l177 281h215z" />
    <glyph glyph-name="ecircumflex" unicode="&#xea;" horiz-adv-x="1097" 
d="M1031 529v-33h-790q9 -171 96.5 -268t213.5 -99q96 2 171.5 59.5t111.5 163.5h178q-42 -178 -165 -276.5t-296 -100.5q-214 2 -347.5 149t-133.5 405q0 257 135.5 405.5t345.5 148.5t345 -148.5t135 -405.5zM250 639h601q-26 131 -108.5 209.5t-191.5 80.5
q-109 -2 -192 -80.5t-109 -209.5zM559 1430l-165 -238h-156l195 282h251l196 -282h-157z" />
    <glyph glyph-name="edieresis" unicode="&#xeb;" horiz-adv-x="1097" 
d="M1031 529v-33h-790q9 -171 96.5 -268t213.5 -99q96 2 171.5 59.5t111.5 163.5h178q-42 -178 -165 -276.5t-296 -100.5q-214 2 -347.5 149t-133.5 405q0 257 135.5 405.5t345.5 148.5t345 -148.5t135 -405.5zM250 639h601q-26 131 -108.5 209.5t-191.5 80.5
q-109 -2 -192 -80.5t-109 -209.5zM404 1228q-44 0 -76 26t-32 63t32 63.5t76 26.5t75.5 -26.5t31.5 -63.5t-31.5 -63t-75.5 -26zM725 1228q-44 0 -75.5 26t-31.5 63t31.5 63.5t75.5 26.5t76 -26.5t32 -63.5t-32 -63t-76 -26z" />
    <glyph glyph-name="igrave" unicode="&#xec;" horiz-adv-x="405" 
d="M331 1193h-134l-258 281h214zM292 0h-180v1057h180v-1057z" />
    <glyph glyph-name="iacute" unicode="&#xed;" horiz-adv-x="405" 
d="M466 1474l-259 -281h-133l177 281h215zM292 0h-179v1057h179v-1057z" />
    <glyph glyph-name="icircumflex" unicode="&#xee;" horiz-adv-x="403" 
d="M321 1474l197 -282h-158l-164 238l-165 -238h-156l195 282h251zM291 0h-179v1057h179v-1057z" />
    <glyph glyph-name="idieresis" unicode="&#xef;" horiz-adv-x="407" 
d="M48 1228q-44 0 -75.5 26t-31.5 63t31.5 63.5t75.5 26.5t76 -26.5t32 -63.5t-32 -63t-76 -26zM370 1228q-44 0 -76 26t-32 63t32 63.5t76 26.5t75.5 -26.5t31.5 -63.5t-31.5 -63t-75.5 -26zM292 0h-179v1057h179v-1057z" />
    <glyph glyph-name="eth" unicode="&#xf0;" horiz-adv-x="1107" 
d="M1031 554v-19q0 -257 -133 -404t-347 -149q-214 2 -347.5 148.5t-133.5 404.5q0 257 135.5 405.5t345.5 148.5q79 0 151 -23q-97 150 -251 284l-190 -132l-57 81l168 116q-93 72 -196 135l119 83q107 -62 200 -132l177 123l56 -81l-153 -106q202 -173 326.5 -396
t129.5 -487zM551 136q133 2 221.5 108t88.5 291v12q-3 171 -91.5 278.5t-218.5 109.5q-132 -2 -221.5 -113.5t-89.5 -286.5q0 -185 89 -291t222 -108z" />
    <glyph glyph-name="ntilde" unicode="&#xf1;" horiz-adv-x="1071" 
d="M454 1292q-46 13 -86 -13t-40 -78h-96q0 101 82.5 170t192.5 38q181 -66 184 -67q46 -13 86 13t40 78h96q0 -101 -82.5 -170t-192.5 -38q-181 66 -184 67zM566 1082q171 0 287.5 -107.5t116.5 -270.5v-704h-180v707q0 97 -64.5 159t-184.5 62q-114 0 -181.5 -62.5
t-67.5 -158.5v-707h-179v1057h179v-132q37 58 111.5 107.5t162.5 49.5z" />
    <glyph glyph-name="ograve" unicode="&#xf2;" horiz-adv-x="1101" 
d="M673 1193h-133l-259 281h215zM551 1083q210 0 345 -148.5t135 -405.5q0 -258 -133 -405t-347 -149q-214 2 -347.5 149t-133.5 405q0 257 135.5 405.5t345.5 148.5zM551 129q133 2 221.5 108.5t88.5 291.5q0 176 -89 287t-221 113q-132 -2 -221.5 -113.5t-89.5 -286.5
q0 -185 89 -291.5t222 -108.5z" />
    <glyph glyph-name="oacute" unicode="&#xf3;" horiz-adv-x="1101" 
d="M763 1474l-259 -281h-134l178 281h215zM551 1083q210 0 345 -148.5t135 -405.5q0 -258 -133 -405t-347 -149q-214 2 -347.5 149t-133.5 405q0 257 135.5 405.5t345.5 148.5zM551 129q133 2 221.5 108.5t88.5 291.5q0 176 -89 287t-221 113q-132 -2 -221.5 -113.5
t-89.5 -286.5q0 -185 89 -291.5t222 -108.5z" />
    <glyph glyph-name="ocircumflex" unicode="&#xf4;" horiz-adv-x="1101" 
d="M550 1430l-164 -238h-157l196 282h250l197 -282h-158zM551 1083q210 0 345 -148.5t135 -405.5q0 -258 -133 -405t-347 -149q-214 2 -347.5 149t-133.5 405q0 257 135.5 405.5t345.5 148.5zM551 129q133 2 221.5 108.5t88.5 291.5q0 176 -89 287t-221 113
q-132 -2 -221.5 -113.5t-89.5 -286.5q0 -185 89 -291.5t222 -108.5z" />
    <glyph glyph-name="otilde" unicode="&#xf5;" horiz-adv-x="1101" 
d="M428 1264q-46 13 -86 -13t-40 -78h-96q0 47 21.5 92t59 76t87.5 43.5t108 -3.5q181 -66 184 -67q46 -13 86 13t40 78h96q0 -47 -21.5 -92t-59 -76t-87.5 -43.5t-108 3.5q-181 66 -184 67zM551 1083q210 0 345 -148.5t135 -405.5q0 -258 -133 -405t-347 -149
q-214 2 -347.5 149t-133.5 405q0 257 135.5 405.5t345.5 148.5zM551 129q133 2 221.5 108.5t88.5 291.5q0 176 -89 287t-221 113q-132 -2 -221.5 -113.5t-89.5 -286.5q0 -185 89 -291.5t222 -108.5z" />
    <glyph glyph-name="odieresis" unicode="&#xf6;" horiz-adv-x="1101" 
d="M390 1228q-44 0 -76 26t-32 63t32 63.5t76 26.5t75.5 -26.5t31.5 -63.5t-31.5 -63t-75.5 -26zM711 1228q-44 0 -75.5 26t-31.5 63t31.5 63.5t75.5 26.5t76 -26.5t32 -63.5t-32 -63t-76 -26zM551 1083q210 0 345 -148.5t135 -405.5q0 -258 -133 -405t-347 -149
q-214 2 -347.5 149t-133.5 405q0 257 135.5 405.5t345.5 148.5zM551 129q133 2 221.5 108.5t88.5 291.5q0 176 -89 287t-221 113q-132 -2 -221.5 -113.5t-89.5 -286.5q0 -185 89 -291.5t222 -108.5z" />
    <glyph glyph-name="divide" unicode="&#xf7;" horiz-adv-x="995" 
d="M933 445h-872v124h872v-124zM497 81q-43 0 -74 30.5t-31 74.5t31 74.5t74 30.5t74 -30.5t31 -74.5t-31 -74.5t-74 -30.5zM497 711q-43 0 -74 30.5t-31 74.5t31 74.5t74 30.5t74 -30.5t31 -74.5t-31 -74.5t-74 -30.5z" />
    <glyph glyph-name="oslash" unicode="&#xf8;" horiz-adv-x="1112" 
d="M908 922q128 -150 128 -396q0 -257 -133.5 -404.5t-347.5 -149.5q-146 2 -256 71l-86 -125l-100 69l94 135q-133 151 -133 404q0 257 135.5 405.5t345.5 148.5q147 0 262 -77l93 133l99 -69zM244 526q0 -151 65 -257l413 597q-73 57 -167 59q-132 -2 -221.5 -113
t-89.5 -286zM555 126q133 2 221.5 108.5t88.5 291.5q0 142 -61 246l-411 -594q72 -50 162 -52z" />
    <glyph glyph-name="ugrave" unicode="&#xf9;" horiz-adv-x="1058" 
d="M731 1195h-133l-259 281h215zM765 1057h180v-1056h-180v131q-15 -27 -35.5 -51t-52 -49.5t-77 -41t-97.5 -15.5q-98 0 -177 32.5t-127 87t-73.5 120.5t-25.5 138v704h180v-704q0 -98 64.5 -161t184.5 -63q61 0 108 25t74 66.5t40.5 88t13.5 95.5v653z" />
    <glyph glyph-name="uacute" unicode="&#xfa;" horiz-adv-x="1058" 
d="M650 1476l-258 -281h-134l177 281h215zM765 1057h180v-1056h-180v131q-15 -27 -35.5 -51t-52 -49.5t-77 -41t-97.5 -15.5q-98 0 -177 32.5t-127 87t-73.5 120.5t-25.5 138v704h180v-704q0 -98 64.5 -161t184.5 -63q61 0 108 25t74 66.5t40.5 88t13.5 95.5v653z" />
    <glyph glyph-name="ucircumflex" unicode="&#xfb;" horiz-adv-x="1058" 
d="M765 1057h180v-1056h-180v131q-15 -27 -35.5 -51t-52 -49.5t-77 -41t-97.5 -15.5q-98 0 -177 32.5t-127 87t-73.5 120.5t-25.5 138v704h180v-704q0 -98 64.5 -161t184.5 -63q61 0 108 25t74 66.5t40.5 88t13.5 95.5v653zM524 1432l-164 -238h-156l195 282h251l196 -282
h-157z" />
    <glyph glyph-name="udieresis" unicode="&#xfc;" horiz-adv-x="1058" 
d="M362 1230q-44 0 -76 26t-32 63t32 63.5t76 26.5t75.5 -26.5t31.5 -63.5t-31.5 -63t-75.5 -26zM683 1230q-44 0 -75.5 26t-31.5 63t31.5 63.5t75.5 26.5t76 -26.5t32 -63.5t-32 -63t-76 -26zM765 1057h180v-1056h-180v131q-15 -27 -35.5 -51t-52 -49.5t-77 -41
t-97.5 -15.5q-98 0 -177 32.5t-127 87t-73.5 120.5t-25.5 138v704h180v-704q0 -98 64.5 -161t184.5 -63q61 0 108 25t74 66.5t40.5 88t13.5 95.5v653z" />
    <glyph glyph-name="yacute" unicode="&#xfd;" horiz-adv-x="1032" 
d="M696 1477l-259 -281h-133l177 281h215zM823 1057h190l-502 -1295q-25 -56 -81 -97.5t-133 -41.5h-88v161h90q47 2 65 43l64 173l-410 1057h191l307 -850z" />
    <glyph glyph-name="thorn" unicode="&#xfe;" horiz-adv-x="1075" 
d="M561 1081q121 4 225 -68.5t163.5 -198.5t59.5 -274q0 -147 -60 -271.5t-163 -197t-225 -72.5q-84 0 -157.5 44.5t-111.5 114.5v-536h-179v796v1056h179v-577q32 71 104.5 126t164.5 58zM561 152q111 0 190 113t79 275t-79 275t-190 113q-118 0 -193.5 -98t-75.5 -290
t75.5 -290t193.5 -98z" />
    <glyph glyph-name="ydieresis" unicode="&#xff;" horiz-adv-x="1032" 
d="M339 1231q-44 0 -76 26t-32 63t32 63.5t76 26.5t75.5 -26.5t31.5 -63.5t-31.5 -63t-75.5 -26zM660 1231q-44 0 -75.5 26t-31.5 63t31.5 63.5t75.5 26.5t76 -26.5t32 -63.5t-32 -63t-76 -26zM823 1057h190l-502 -1295q-25 -56 -81 -97.5t-133 -41.5h-88v161h90q47 2 65 43
l64 173l-410 1057h191l307 -850z" />
    <glyph glyph-name="Amacron" unicode="&#x100;" horiz-adv-x="1298" 
d="M815 1433l471 -1433h-189l-143 430h-613l-139 -430h-190l460 1433h343zM392 586h509l-258 775zM954 1581h-609v121h609v-121z" />
    <glyph glyph-name="amacron" unicode="&#x101;" 
d="M510 1083q73 0 141.5 -18.5t126.5 -53.5t93 -94t35 -133v-783h-180v158q-9 -27 -28 -55t-50 -57.5t-81 -49t-110 -21.5q-93 -3 -170 27t-124.5 81t-73.5 113.5t-26 127.5q0 157 114 253t282 96h160q47 0 78.5 34.5t28.5 84.5q-8 134 -216 134q-67 0 -119 -28t-75 -81
h-187q25 80 70.5 135.5t101.5 82t105.5 37t103.5 10.5zM726 325v232q-70 -26 -138 -26h-129q-88 0 -152 -51t-64 -155q0 -83 59 -138.5t157 -55.5q103 0 185 57.5t82 136.5zM836 1235h-609v121h609v-121z" />
    <glyph glyph-name="Abreve" unicode="&#x102;" horiz-adv-x="1298" 
d="M815 1433l471 -1433h-189l-143 430h-613l-139 -430h-190l460 1433h343zM392 586h509l-258 775zM649 1545q-128 0 -218 82t-90 198h95q0 -66 62.5 -113t150.5 -47t151 47t63 113h95q0 -116 -90.5 -198t-218.5 -82z" />
    <glyph glyph-name="abreve" unicode="&#x103;" 
d="M510 1083q73 0 141.5 -18.5t126.5 -53.5t93 -94t35 -133v-783h-180v158q-9 -27 -28 -55t-50 -57.5t-81 -49t-110 -21.5q-93 -3 -170 27t-124.5 81t-73.5 113.5t-26 127.5q0 157 114 253t282 96h160q47 0 78.5 34.5t28.5 84.5q-8 134 -216 134q-67 0 -119 -28t-75 -81
h-187q25 80 70.5 135.5t101.5 82t105.5 37t103.5 10.5zM726 325v232q-70 -26 -138 -26h-129q-88 0 -152 -51t-64 -155q0 -83 59 -138.5t157 -55.5q103 0 185 57.5t82 136.5zM517 1193q-128 0 -218 82.5t-90 198.5h95q0 -66 62.5 -113t150.5 -47t151 47t63 113h95
q0 -116 -90.5 -198.5t-218.5 -82.5z" />
    <glyph glyph-name="Aogonek" unicode="&#x104;" horiz-adv-x="1302" 
d="M1128 -193q-3 -41 23 -66.5t80 -25.5q11 0 25 3t22 6l9 3v-122q-47 -30 -129 -30q-98 0 -150 55t-49 126q2 40 17 79.5t35 68t39.5 51t33.5 33.5l13 12l-143 430h-613l-139 -430h-190l460 1433h343l471 -1433q-31 -21 -49 -35.5t-46.5 -41t-44.5 -56t-18 -60.5zM392 586
h509l-258 775z" />
    <glyph glyph-name="aogonek" unicode="&#x105;" 
d="M906 1q-31 -22 -49 -36t-47 -40.5t-45 -56t-18 -60.5q-3 -41 23.5 -66.5t80.5 -25.5q11 0 25 3t22 6l8 3v-123q-47 -29 -129 -29q-98 0 -150 54.5t-49 125.5q2 40 18 79.5t37.5 68t42.5 51.5t36 35l14 11v158q-9 -27 -28 -55t-50 -57.5t-81 -49t-110 -21.5
q-93 -3 -170 27t-124.5 81t-73.5 113.5t-26 127.5q0 157 114 253t282 96h160q47 0 78.5 34.5t28.5 84.5q-8 134 -216 134q-67 0 -119 -28t-75 -81h-187q25 80 70.5 135.5t101.5 82t105.5 37t103.5 10.5q73 0 141.5 -18.5t126.5 -53.5t93 -94t35 -133v-783zM726 325v232
q-70 -26 -138 -26h-129q-88 0 -152 -51t-64 -155q0 -83 59 -138.5t157 -55.5q103 0 185 57.5t82 136.5z" />
    <glyph glyph-name="Cacute" unicode="&#x106;" horiz-adv-x="1380" 
d="M910 1825l-259 -281h-133l177 281h215zM707 129q140 0 251 94t164 256h195q-27 -136 -91.5 -239t-150.5 -162t-179.5 -88t-192.5 -29q-151 0 -272.5 59.5t-200 162.5t-120.5 240t-42 295q0 124 29 239t85 208.5t132 163t175.5 108t211.5 38.5q145 0 260.5 -43.5
t188.5 -118.5t116 -164t58 -192h-192q-18 75 -49 135.5t-80 111.5t-124.5 78.5t-171.5 24.5q-98 -3 -184.5 -53.5t-145 -132.5t-92.5 -187t-34 -216q0 -113 30.5 -217.5t87 -188t144.5 -133.5t194 -50z" />
    <glyph glyph-name="cacute" unicode="&#x107;" horiz-adv-x="1085" 
d="M779 1481l-258 -281h-134l177 281h215zM556 130q110 0 184 66.5t107 181.5h174q-38 -181 -158.5 -291.5t-306.5 -110.5q-213 0 -345 139t-141 381q-10 265 124.5 426t356.5 161q188 0 314.5 -111t160.5 -308h-167q-26 128 -108 196.5t-196 68.5q-134 0 -224.5 -111.5
t-90.5 -288.5q0 -183 82.5 -291t233.5 -108z" />
    <glyph glyph-name="Ccircumflex" unicode="&#x108;" horiz-adv-x="1380" 
d="M702 1781l-164 -238h-157l196 282h250l197 -282h-158zM707 129q140 0 251 94t164 256h195q-27 -136 -91.5 -239t-150.5 -162t-179.5 -88t-192.5 -29q-151 0 -272.5 59.5t-200 162.5t-120.5 240t-42 295q0 124 29 239t85 208.5t132 163t175.5 108t211.5 38.5
q145 0 260.5 -43.5t188.5 -118.5t116 -164t58 -192h-192q-18 75 -49 135.5t-80 111.5t-124.5 78.5t-171.5 24.5q-98 -3 -184.5 -53.5t-145 -132.5t-92.5 -187t-34 -216q0 -113 30.5 -217.5t87 -188t144.5 -133.5t194 -50z" />
    <glyph glyph-name="ccircumflex" unicode="&#x109;" horiz-adv-x="1085" 
d="M553 1437l-164 -237h-157l196 281h250l197 -281h-158zM556 130q110 0 184 66.5t107 181.5h174q-38 -181 -158.5 -291.5t-306.5 -110.5q-213 0 -345 139t-141 381q-10 265 124.5 426t356.5 161q188 0 314.5 -111t160.5 -308h-167q-26 128 -108 196.5t-196 68.5
q-134 0 -224.5 -111.5t-90.5 -288.5q0 -183 82.5 -291t233.5 -108z" />
    <glyph glyph-name="Cdot" unicode="&#x10a;" horiz-adv-x="1380" 
d="M707 129q140 0 251 94t164 256h195q-27 -136 -91.5 -239t-150.5 -162t-179.5 -88t-192.5 -29q-151 0 -272.5 59.5t-200 162.5t-120.5 240t-42 295q0 124 29 239t85 208.5t132 163t175.5 108t211.5 38.5q145 0 260.5 -43.5t188.5 -118.5t116 -164t58 -192h-192
q-18 75 -49 135.5t-80 111.5t-124.5 78.5t-171.5 24.5q-98 -3 -184.5 -53.5t-145 -132.5t-92.5 -187t-34 -216q0 -113 30.5 -217.5t87 -188t144.5 -133.5t194 -50zM696 1580q-44 0 -76 26.5t-32 63.5t32 63t76 26t75.5 -26t31.5 -63t-31.5 -63.5t-75.5 -26.5z" />
    <glyph glyph-name="cdot" unicode="&#x10b;" horiz-adv-x="1085" 
d="M549 1250q-44 0 -75.5 26.5t-31.5 63.5t31.5 63t75.5 26t76 -26t32 -63t-32 -63.5t-76 -26.5zM556 130q110 0 184 66.5t107 181.5h174q-38 -181 -158.5 -291.5t-306.5 -110.5q-213 0 -345 139t-141 381q-10 265 124.5 426t356.5 161q188 0 314.5 -111t160.5 -308h-167
q-26 128 -108 196.5t-196 68.5q-134 0 -224.5 -111.5t-90.5 -288.5q0 -183 82.5 -291t233.5 -108z" />
    <glyph glyph-name="Ccaron" unicode="&#x10c;" horiz-adv-x="1380" 
d="M831 1543h-251l-196 282h157l164 -238l165 238h156zM707 129q140 0 251 94t164 256h195q-27 -136 -91.5 -239t-150.5 -162t-179.5 -88t-192.5 -29q-151 0 -272.5 59.5t-200 162.5t-120.5 240t-42 295q0 124 29 239t85 208.5t132 163t175.5 108t211.5 38.5
q145 0 260.5 -43.5t188.5 -118.5t116 -164t58 -192h-192q-18 75 -49 135.5t-80 111.5t-124.5 78.5t-171.5 24.5q-98 -3 -184.5 -53.5t-145 -132.5t-92.5 -187t-34 -216q0 -113 30.5 -217.5t87 -188t144.5 -133.5t194 -50z" />
    <glyph glyph-name="ccaron" unicode="&#x10d;" horiz-adv-x="1085" 
d="M679 1200h-250l-197 281h158l164 -237l164 237h157zM556 130q110 0 184 66.5t107 181.5h174q-38 -181 -158.5 -291.5t-306.5 -110.5q-213 0 -345 139t-141 381q-10 265 124.5 426t356.5 161q188 0 314.5 -111t160.5 -308h-167q-26 128 -108 196.5t-196 68.5
q-134 0 -224.5 -111.5t-90.5 -288.5q0 -183 82.5 -291t233.5 -108z" />
    <glyph glyph-name="Dcaron" unicode="&#x10e;" horiz-adv-x="1359" 
d="M742 1543h-251l-196 282h157l165 -238l164 238h157zM694 1434q171 0 308 -93.5t213.5 -257.5t76.5 -366t-76.5 -366t-213.5 -257.5t-308 -93.5h-571v1434h571zM694 156q118 3 211.5 82t142.5 205.5t49 273.5q0 150 -48 276.5t-141.5 205t-213.5 78.5h-392v-1121h392z" />
    <glyph glyph-name="dcaron" unicode="&#x10f;" horiz-adv-x="1273" 
d="M1186 1429h182l-135 -471h-131zM782 899v535h179v-1433h-179v159q-32 -71 -104.5 -126t-164.5 -58q-121 -4 -224.5 68.5t-163 198.5t-59.5 273t60 271.5t163 197t224 72.5q84 0 157.5 -44t111.5 -114zM513 129q118 0 193.5 97.5t75.5 289.5t-75.5 290t-193.5 98
q-111 0 -189.5 -113t-78.5 -275t78.5 -274.5t189.5 -112.5z" />
    <glyph glyph-name="Dslash" unicode="&#x110;" horiz-adv-x="1411" 
d="M746 1434q171 0 308 -93.5t213.5 -257.5t76.5 -366t-76.5 -366t-213.5 -257.5t-308 -93.5h-572v632h-119v157h119v645h572zM746 156q118 3 211.5 82t142.5 205.5t49 273.5q0 150 -48 276.5t-141.5 205t-213.5 78.5h-392v-488h392v-157h-392v-476h392z" />
    <glyph glyph-name="dmacron" unicode="&#x111;" horiz-adv-x="1075" 
d="M961 1306h129v-121h-129v-1184h-179v159q-32 -71 -104.5 -126t-164.5 -58q-121 -4 -224.5 68.5t-163 198.5t-59.5 273t60 271.5t163 197t224 72.5q84 0 157.5 -44t111.5 -114v286h-308v121h308v128h179v-128zM513 129q118 0 193.5 97.5t75.5 289.5t-75.5 290t-193.5 98
q-111 0 -189.5 -113t-78.5 -275t78.5 -274.5t189.5 -112.5z" />
    <glyph glyph-name="Emacron" unicode="&#x112;" horiz-adv-x="1236" 
d="M947 1584h-610v120h610v-120zM1178 1278h-876v-483h799v-154h-799v-484h876v-156h-1055v1433h1055v-156z" />
    <glyph glyph-name="emacron" unicode="&#x113;" horiz-adv-x="1099" 
d="M849 1236h-609v121h609v-121zM1031 530v-34h-790q9 -170 96.5 -267t213.5 -99q96 2 171.5 59.5t111.5 163.5h178q-42 -178 -165 -276.5t-296 -100.5q-214 2 -347.5 149t-133.5 405q0 257 135.5 405t345.5 148t345 -148t135 -405zM250 639h601q-26 131 -108.5 209.5
t-191.5 80.5q-109 -2 -192 -80.5t-109 -209.5z" />
    <glyph glyph-name="Ebreve" unicode="&#x114;" horiz-adv-x="1236" 
d="M702 1546q-128 0 -218.5 82.5t-90.5 198.5h95q0 -66 63 -113t151 -47t150.5 47t62.5 113h95q0 -116 -90 -198.5t-218 -82.5zM1178 1278h-876v-483h799v-154h-799v-484h876v-156h-1055v1433h1055v-156z" />
    <glyph glyph-name="ebreve" unicode="&#x115;" horiz-adv-x="1099" 
d="M540 1195q-128 0 -218 82t-90 198h95q0 -66 62.5 -113t150.5 -47t151 47t63 113h95q0 -116 -90.5 -198t-218.5 -82zM1031 530v-34h-790q9 -170 96.5 -267t213.5 -99q96 2 171.5 59.5t111.5 163.5h178q-42 -178 -165 -276.5t-296 -100.5q-214 2 -347.5 149t-133.5 405
q0 257 135.5 405t345.5 148t345 -148t135 -405zM250 639h601q-26 131 -108.5 209.5t-191.5 80.5q-109 -2 -192 -80.5t-109 -209.5z" />
    <glyph glyph-name="Edot" unicode="&#x116;" horiz-adv-x="1236" 
d="M1178 1277h-876v-483h799v-154h-799v-484h876v-156h-1055v1433h1055v-156zM650 1581q-44 0 -75.5 26.5t-31.5 63.5t31.5 63t75.5 26t76 -26t32 -63t-32 -63.5t-76 -26.5z" />
    <glyph glyph-name="edot" unicode="&#x117;" horiz-adv-x="1099" 
d="M552 1244q-44 0 -75.5 26.5t-31.5 63.5t31.5 63t75.5 26t76 -26t32 -63t-32 -63.5t-76 -26.5zM1031 530v-34h-790q9 -170 96.5 -267t213.5 -99q96 2 171.5 59.5t111.5 163.5h178q-42 -178 -165 -276.5t-296 -100.5q-214 2 -347.5 149t-133.5 405q0 257 135.5 405
t345.5 148t345 -148t135 -405zM250 639h601q-26 131 -108.5 209.5t-191.5 80.5q-109 -2 -192 -80.5t-109 -209.5z" />
    <glyph glyph-name="Eogonek" unicode="&#x118;" horiz-adv-x="1236" 
d="M1178 1278h-876v-483h799v-154h-799v-484h876v-156q-31 -22 -49 -36t-47 -40.5t-45 -56t-18 -60.5q-3 -41 23.5 -66.5t80.5 -25.5q11 0 25 3t22 6l8 3v-123q-47 -29 -129 -29q-98 0 -150 55t-49 126q2 40 17 79.5t35 68t39.5 51t32.5 34.5l14 11h-865v1433h1055v-156z
" />
    <glyph glyph-name="eogonek" unicode="&#x119;" horiz-adv-x="1097" 
d="M1031 529v-34h-790q9 -170 96.5 -267t213.5 -99q96 2 171.5 59.5t111.5 163.5h178q-32 -133 -110 -223t-191 -128q-31 -21 -49 -35.5t-46.5 -41t-44.5 -56t-18 -60.5q-3 -41 23 -66.5t80 -25.5q11 0 25 3t22 6l8 3v-122q-46 -30 -128 -30q-98 0 -150 55t-49 126
q6 117 120 220q-195 18 -314.5 163.5t-119.5 388.5q0 257 135.5 405t345.5 148t345 -148t135 -405zM250 639h601q-26 131 -108.5 209t-191.5 80q-109 -2 -192 -80t-109 -209z" />
    <glyph glyph-name="Ecaron" unicode="&#x11a;" horiz-adv-x="1236" 
d="M816 1545h-251l-197 282h158l164 -238l164 238h157zM1178 1278h-876v-483h799v-154h-799v-484h876v-156h-1055v1433h1055v-156z" />
    <glyph glyph-name="ecaron" unicode="&#x11b;" horiz-adv-x="1099" 
d="M673 1193h-250l-197 282h158l164 -238l164 238h157zM1031 530v-34h-790q9 -170 96.5 -267t213.5 -99q96 2 171.5 59.5t111.5 163.5h178q-42 -178 -165 -276.5t-296 -100.5q-214 2 -347.5 149t-133.5 405q0 257 135.5 405t345.5 148t345 -148t135 -405zM250 639h601
q-26 131 -108.5 209.5t-191.5 80.5q-109 -2 -192 -80.5t-109 -209.5z" />
    <glyph glyph-name="Gcircumflex" unicode="&#x11c;" horiz-adv-x="1437" 
d="M723 1778l-165 -238h-156l195 282h251l197 -282h-158zM1339 1h-166v218q-55 -107 -196 -182t-275 -75q-151 0 -272.5 59t-199.5 162.5t-120 240t-42 294.5q0 209 78 380.5t223.5 273.5t330.5 102q145 0 260.5 -43.5t188.5 -118t116 -163.5t58 -192h-192q-84 349 -425 349
q-98 0 -182 -50t-140 -132.5t-88 -188t-32 -217.5q0 -113 28.5 -215.5t82 -184.5t139 -132.5t192.5 -55.5q62 -2 122 14.5t116.5 54t100.5 93t74.5 138t39.5 181.5h-453v166h633v-776z" />
    <glyph glyph-name="gcircumflex" unicode="&#x11d;" horiz-adv-x="1089" 
d="M536 1430l-165 -237h-156l195 281h251l197 -281h-158zM1009 615q0 -107 -51 -198t-140 -150q86 -50 136 -125t50 -161q0 -97 -62 -179t-169 -130t-233 -48t-233 48t-169 130t-62 179q0 10 2 28h167q-2 -14 -2 -21q0 -78 90.5 -144t206.5 -66q140 0 218.5 63t78.5 147
q0 86 -68 140t-224 57q-126 3 -222 42.5t-150 103t-80.5 135.5t-26.5 149q0 121 63 223t171.5 161t236.5 59q105 0 197 -40l157 157l118 -118l-134 -133q134 -129 134 -309zM537 325q134 0 213.5 86.5t79.5 203.5t-79.5 203t-213.5 86q-135 0 -213.5 -86t-78.5 -203
t78.5 -203.5t213.5 -86.5z" />
    <glyph glyph-name="Gbreve" unicode="&#x11e;" horiz-adv-x="1437" 
d="M694 1542q-128 0 -218.5 82.5t-90.5 198.5h95q0 -66 63 -113t151 -47t150.5 47t62.5 113h95q0 -116 -90 -198.5t-218 -82.5zM1339 1h-166v218q-55 -107 -196 -182t-275 -75q-151 0 -272.5 59t-199.5 162.5t-120 240t-42 294.5q0 209 78 380.5t223.5 273.5t330.5 102
q145 0 260.5 -43.5t188.5 -118t116 -163.5t58 -192h-192q-84 349 -425 349q-98 0 -182 -50t-140 -132.5t-88 -188t-32 -217.5q0 -113 28.5 -215.5t82 -184.5t139 -132.5t192.5 -55.5q62 -2 122 14.5t116.5 54t100.5 93t74.5 138t39.5 181.5h-453v166h633v-776z" />
    <glyph glyph-name="gbreve" unicode="&#x11f;" horiz-adv-x="1089" 
d="M533 1195q-128 0 -218.5 82t-90.5 198h96q0 -66 62.5 -113t150.5 -47t150.5 47t62.5 113h96q0 -116 -90.5 -198t-218.5 -82zM1009 615q0 -107 -51 -198t-140 -150q86 -50 136 -125t50 -161q0 -97 -62 -179t-169 -130t-233 -48t-233 48t-169 130t-62 179q0 10 2 28h167
q-2 -14 -2 -21q0 -78 90.5 -144t206.5 -66q140 0 218.5 63t78.5 147q0 86 -68 140t-224 57q-126 3 -222 42.5t-150 103t-80.5 135.5t-26.5 149q0 121 63 223t171.5 161t236.5 59q105 0 197 -40l157 157l118 -118l-134 -133q134 -129 134 -309zM537 325q134 0 213.5 86.5
t79.5 203.5t-79.5 203t-213.5 86q-135 0 -213.5 -86t-78.5 -203t78.5 -203.5t213.5 -86.5z" />
    <glyph glyph-name="Gdot" unicode="&#x120;" horiz-adv-x="1437" 
d="M704 1582q-44 0 -76 26t-32 63t32 63t76 26t75.5 -26t31.5 -63t-31.5 -63t-75.5 -26zM1339 0h-166v218q-55 -107 -196 -182t-275 -75q-151 0 -272.5 59t-199.5 162.5t-120 240t-42 294.5q0 209 78 380.5t223.5 273.5t330.5 102q145 0 260.5 -43.5t188.5 -118t116 -163.5
t58 -192h-192q-84 349 -425 349q-98 0 -182 -50t-140 -132.5t-88 -188t-32 -217.5q0 -113 28.5 -215.5t82 -184.5t139 -132.5t192.5 -55.5q62 -2 122 14.5t116.5 54t100.5 93t74.5 138t39.5 181.5h-453v167h633v-777z" />
    <glyph glyph-name="gdot" unicode="&#x121;" horiz-adv-x="1089" 
d="M534 1244q-44 0 -76 26.5t-32 63.5t32 63t76 26t75.5 -26t31.5 -63t-31.5 -63.5t-75.5 -26.5zM1009 615q0 -107 -51 -198t-140 -150q86 -50 136 -125t50 -161q0 -97 -62 -179t-169 -130t-233 -48t-233 48t-169 130t-62 179q0 10 2 28h167q-2 -14 -2 -21q0 -78 90.5 -144
t206.5 -66q140 0 218.5 63t78.5 147q0 86 -68 140t-224 57q-126 3 -222 42.5t-150 103t-80.5 135.5t-26.5 149q0 121 63 223t171.5 161t236.5 59q105 0 197 -40l157 157l118 -118l-134 -133q134 -129 134 -309zM537 325q134 0 213.5 86.5t79.5 203.5t-79.5 203t-213.5 86
q-135 0 -213.5 -86t-78.5 -203t78.5 -203.5t213.5 -86.5z" />
    <glyph glyph-name="Gcedilla" unicode="&#x122;" horiz-adv-x="1437" 
d="M560 -438l75 347h170l-112 -347h-133zM1339 1h-166v219q-55 -107 -196 -182.5t-275 -75.5q-151 0 -272.5 59t-199.5 162.5t-120 240t-42 294.5q0 209 78 380.5t223.5 273.5t330.5 102q145 0 260.5 -43.5t188.5 -118t116 -163.5t58 -192h-192q-84 349 -425 349
q-98 0 -182 -50t-140 -132.5t-88 -188t-32 -217.5q0 -113 28.5 -215.5t82 -184.5t139 -132.5t192.5 -55.5q62 -2 122 14.5t116.5 54t100.5 93t74.5 138t39.5 181.5h-453v167h633v-777z" />
    <glyph glyph-name="gcedilla" unicode="&#x123;" horiz-adv-x="1089" 
d="M740 1474l-259 -281h-133l177 281h215zM1009 615q0 -107 -51 -198t-140 -150q86 -50 136 -125t50 -161q0 -97 -62 -179t-169 -130t-233 -48t-233 48t-169 130t-62 179q0 10 2 28h167q-2 -14 -2 -21q0 -78 90.5 -144t206.5 -66q140 0 218.5 63t78.5 147q0 86 -68 140
t-224 57q-126 3 -222 42.5t-150 103t-80.5 135.5t-26.5 149q0 121 63 223t171.5 161t236.5 59q105 0 197 -40l157 157l118 -118l-134 -133q134 -129 134 -309zM537 325q134 0 213.5 86.5t79.5 203.5t-79.5 203t-213.5 86q-135 0 -213.5 -86t-78.5 -203t78.5 -203.5
t213.5 -86.5z" />
    <glyph glyph-name="Hcircumflex" unicode="&#x124;" horiz-adv-x="1376" 
d="M686 1775l-165 -237h-156l195 281h251l196 -281h-157zM1073 1433h179v-1434h-179v670h-771v-670h-179v1434h179v-608l771 1v607z" />
    <glyph glyph-name="hcircumflex" unicode="&#x125;" horiz-adv-x="1071" 
d="M364 1499l-164 237l-165 -237h-156l195 281h251l197 -281h-158zM603 1082q66 0 130 -24.5t117.5 -71.5t86.5 -124t33 -172v-690h-180v690q0 101 -65.5 175t-183.5 74q-117 0 -183 -65.5t-66 -183.5v-690h-179v1433h179v-497q34 53 121.5 99.5t189.5 46.5z" />
    <glyph glyph-name="Hbar" unicode="&#x126;" horiz-adv-x="1452" 
d="M1291 1140h99v-121h-99v-1020h-179v670h-771v-670h-179v1020h-103v121h103v293h179v-293h771v293h179v-293zM1112 826v193h-771v-194z" />
    <glyph glyph-name="hbar" unicode="&#x127;" horiz-adv-x="1069" 
d="M601 1082q66 0 130 -24.5t117.5 -71.5t86.5 -124t33 -172v-690h-179v690q0 101 -65.5 175t-183.5 74q-117 0 -183 -65.5t-66 -183.5v-690h-179v1255h-87v121h87v58h179v-58h343v-121h-343v-319q34 54 121 100t189 46z" />
    <glyph glyph-name="Itilde" unicode="&#x128;" horiz-adv-x="425" 
d="M454 1802h96q0 -47 -21.5 -91.5t-58.5 -75.5t-87 -43.5t-108 3.5q-181 65 -184 66q-46 13 -86 -12.5t-40 -77.5h-96q0 47 21.5 91.5t58.5 75.5t87 43.5t108 -3.5q181 -65 184 -66q46 -13 86 12.5t40 77.5zM302 0h-179v1434h179v-1434z" />
    <glyph glyph-name="itilde" unicode="&#x129;" horiz-adv-x="403" 
d="M450 1404h96q0 -47 -21.5 -92t-59 -76t-87.5 -43.5t-108 3.5q-180 66 -183 67q-47 13 -87 -12.5t-40 -77.5h-95q0 47 21.5 91.5t58.5 75.5t87 43.5t108 -3.5q181 -66 184 -67q46 -13 86 13t40 78zM291 0h-179v1057h179v-1057z" />
    <glyph glyph-name="Imacron" unicode="&#x12a;" horiz-adv-x="423" 
d="M301 0h-179v1434h179v-1434zM517 1626h-609v121h609v-121z" />
    <glyph glyph-name="imacron" unicode="&#x12b;" horiz-adv-x="405" 
d="M505 1235h-609v120h609v-120zM291 0h-179v1057h179v-1057z" />
    <glyph glyph-name="Ibreve" unicode="&#x12c;" horiz-adv-x="423" 
d="M424 1825h95q0 -116 -90.5 -198.5t-218.5 -82.5t-218 82.5t-90 198.5h95q0 -66 62.5 -113t150.5 -47t151 47t63 113zM301 0h-179v1434h179v-1434z" />
    <glyph glyph-name="ibreve" unicode="&#x12d;" horiz-adv-x="405" 
d="M422 1474h95q0 -116 -90.5 -198.5t-218.5 -82.5t-218 82.5t-90 198.5h95q0 -66 62.5 -113t150.5 -47t151 47t63 113zM291 0h-179v1057h179v-1057z" />
    <glyph glyph-name="Iogonek" unicode="&#x12e;" horiz-adv-x="425" 
d="M256 -284q11 0 25 3t23 6l8 3v-122q-47 -30 -129 -30q-98 0 -150 55t-49 126q2 40 17 79.5t35 68t39.5 51t32.5 34.5l14 11v1434h179v-1434q-140 -98 -148 -193q-3 -41 23 -66.5t80 -25.5z" />
    <glyph glyph-name="iogonek" unicode="&#x12f;" horiz-adv-x="405" 
d="M112 1v1056h179v-1056q-31 -22 -49 -36t-47 -40.5t-45 -56t-18 -60.5q-3 -41 23.5 -66.5t80.5 -25.5q11 0 25 3t22 6l8 3v-122q-46 -30 -128 -30q-98 0 -150.5 55t-49.5 126q2 40 18 79.5t37.5 68t43 51t36.5 34.5zM202 1256q-50 0 -85.5 26t-35.5 63t36 63.5t85 26.5
t84.5 -26.5t35.5 -63.5t-35 -63t-85 -26z" />
    <glyph glyph-name="Idot" unicode="&#x130;" horiz-adv-x="423" 
d="M212 1584q-44 0 -76 26t-32 63t32 63t76 26t75.5 -26t31.5 -63t-31.5 -63t-75.5 -26zM302 0h-180v1433h180v-1433z" />
    <glyph glyph-name="dotlessi" unicode="&#x131;" horiz-adv-x="405" 
d="M292 0h-179v1057h179v-1057z" />
    <glyph glyph-name="Jcircumflex" unicode="&#x134;" horiz-adv-x="960" 
d="M882 1825l196 -282h-157l-164 238l-165 -238h-156l195 282h251zM668 364v1071h179v-1062q0 -115 -57 -210t-151 -148t-203 -53q-170 0 -290.5 120.5t-120.5 290.5v90h179v-90q0 -97 68.5 -171t163.5 -74q92 0 160 71t72 165z" />
    <glyph glyph-name="jcircumflex" unicode="&#x135;" horiz-adv-x="405" 
d="M323 1474l197 -282h-158l-164 238l-165 -238h-156l195 282h251zM112 134v923h180v-1039q0 -60 -12 -114.5t-41.5 -106.5t-73.5 -90t-113 -61t-156 -23v156q48 0 84.5 14t59.5 41.5t38 59t22 75.5t9.5 80.5t2.5 84.5z" />
    <glyph glyph-name="Kcedilla" unicode="&#x136;" horiz-adv-x="1310" 
d="M475 -444l75 347h169l-112 -347h-132zM1301 1428l-624 -588l618 -845h-236l-514 720l-243 -229v-491h-179v1433h179v-723l748 723h251z" />
    <glyph glyph-name="kcedilla" unicode="&#x137;" horiz-adv-x="1017" 
d="M336 -440l74 346h170l-112 -346h-132zM524 597l478 -597h-199l-388 485l-123 -126v-359h-179v1434h179v-871l480 494h199z" />
    <glyph glyph-name="Lacute" unicode="&#x139;" horiz-adv-x="1040" 
d="M524 1824l-259 -281h-133l177 281h215zM302 154h735v-154h-914v1433h179v-1279z" />
    <glyph glyph-name="lacute" unicode="&#x13a;" horiz-adv-x="403" 
d="M411 1812l-259 -281h-134l178 281h215zM292 0h-180v1434h180v-1434z" />
    <glyph glyph-name="Lcedilla" unicode="&#x13b;" horiz-adv-x="1040" 
d="M447 -437l75 347h169l-111 -347h-133zM302 154h735v-154h-914v1433h179v-1279z" />
    <glyph glyph-name="lcedilla" unicode="&#x13c;" horiz-adv-x="405" 
d="M41 -442l75 347h169l-112 -347h-132zM291 -2h-179v1434h179v-1434z" />
    <glyph glyph-name="Lcaron" unicode="&#x13d;" horiz-adv-x="1075" 
d="M302 154h735v-154h-914v1433h179v-1279zM1022 1433l-135 -471h-131l84 471h182z" />
    <glyph glyph-name="lcaron" unicode="&#x13e;" horiz-adv-x="626" 
d="M541 1434h182l-135 -471h-131zM292 0h-179v1433h179v-1433z" />
    <glyph glyph-name="Ldot" unicode="&#x13f;" horiz-adv-x="1042" 
d="M302 154h735v-154h-914v1433h179v-1279zM669 627q-44 0 -75.5 26.5t-31.5 63.5t31.5 63t75.5 26t76 -26t32 -63t-32 -63.5t-76 -26.5z" />
    <glyph glyph-name="ldot" unicode="&#x140;" horiz-adv-x="647" 
d="M520 875q-44 0 -75.5 26t-31.5 63t31.5 63.5t75.5 26.5t76 -26.5t32 -63.5t-32 -63t-76 -26zM292 0h-179v1434h179v-1434z" />
    <glyph glyph-name="Lslash" unicode="&#x141;" horiz-adv-x="1181" 
d="M438 154h735v-154h-914v610l-196 -85l-49 110l245 107v691h179v-612l485 211l48 -111l-533 -232v-535z" />
    <glyph glyph-name="lslash" unicode="&#x142;" horiz-adv-x="815" 
d="M754 1055l48 -111l-362 -158v-786h-179v708l-192 -84l-49 111l241 105v594h179v-516z" />
    <glyph glyph-name="Nacute" unicode="&#x143;" horiz-adv-x="1376" 
d="M888 1823l-259 -281h-133l177 281h215zM1073 1433h179v-1434h-214l-736 1180v-1180h-179v1434h214l736 -1181v1181z" />
    <glyph glyph-name="nacute" unicode="&#x144;" horiz-adv-x="1071" 
d="M768 1474l-259 -281h-133l177 281h215zM566 1082q171 0 287.5 -107.5t116.5 -270.5v-704h-180v707q0 97 -64.5 159t-184.5 62q-114 0 -181.5 -62.5t-67.5 -158.5v-707h-179v1057h179v-132q37 58 111.5 107.5t162.5 49.5z" />
    <glyph glyph-name="Ncedilla" unicode="&#x145;" horiz-adv-x="1376" 
d="M621 -438l75 347h169l-111 -347h-133zM1073 1433h179v-1434h-214l-736 1180v-1180h-179v1434h214l736 -1181v1181z" />
    <glyph glyph-name="ncedilla" unicode="&#x146;" horiz-adv-x="1071" 
d="M405 -441l75 347h169l-112 -347h-132zM566 1082q171 0 287.5 -107.5t116.5 -270.5v-704h-180v706q0 98 -64.5 160t-184.5 62q-114 0 -181.5 -63t-67.5 -159v-706h-179v1057h179v-132q37 58 111.5 107.5t162.5 49.5z" />
    <glyph glyph-name="Ncaron" unicode="&#x147;" horiz-adv-x="1376" 
d="M834 1542h-251l-196 281h157l165 -237l164 237h157zM1073 1433h179v-1434h-214l-736 1180v-1180h-179v1434h214l736 -1181v1181z" />
    <glyph glyph-name="ncaron" unicode="&#x148;" horiz-adv-x="1071" 
d="M687 1192h-251l-196 282h157l164 -238l165 238h156zM566 1082q171 0 287.5 -107.5t116.5 -270.5v-704h-180v707q0 97 -64.5 159t-184.5 62q-114 0 -181.5 -62.5t-67.5 -158.5v-707h-179v1057h179v-132q37 58 111.5 107.5t162.5 49.5z" />
    <glyph glyph-name="Eng" unicode="&#x14a;" horiz-adv-x="1376" 
d="M1252 1434v-1431v-3q-2 -58 -15.5 -110.5t-43.5 -102t-74 -85.5t-111.5 -57.5t-151.5 -21.5v156q52 0 91 17t62.5 49t37 69.5t19.5 85.5h-28l-736 1181v-1181h-179v1434h214l736 -1181v1181h179z" />
    <glyph glyph-name="eng" unicode="&#x14b;" horiz-adv-x="1071" 
d="M790 1021q80 -48 127.5 -126.5t51.5 -175.5v-716q-2 -58 -15 -111t-43 -103t-74 -86t-112 -58t-152 -22v156q57 0 98.5 22t64 54.5t35 83t16 94t3.5 101.5v585q-5 92 -69.5 150t-179.5 58q-114 0 -181.5 -63t-67.5 -159v-706h-179v1056h179v-131q37 58 111.5 107.5
t162.5 49.5q123 0 224 -60z" />
    <glyph glyph-name="Omacron" unicode="&#x14c;" horiz-adv-x="1525" 
d="M756 1473q153 0 286 -59.5t224.5 -161.5t143.5 -241t52 -294t-52 -294t-143.5 -241t-224.5 -161.5t-286 -59.5q-204 0 -363.5 102t-244.5 273.5t-85 380.5t85 380.5t244.5 273.5t363.5 102zM756 128q154 0 273 81.5t180 214.5t61 293t-61 293t-180 214.5t-273 81.5
t-269.5 -81.5t-173 -214t-57.5 -293.5t57.5 -293.5t173 -214t269.5 -81.5zM1055 1668h-609v121h609v-121z" />
    <glyph glyph-name="omacron" unicode="&#x14d;" horiz-adv-x="1101" 
d="M844 1235h-609v121h609v-121zM551 1083q210 0 345 -148.5t135 -405.5q0 -258 -133 -405t-347 -149q-214 2 -347.5 149t-133.5 405q0 257 135.5 405.5t345.5 148.5zM551 129q133 2 221.5 108.5t88.5 291.5q0 176 -89 287t-221 113q-132 -2 -221.5 -113.5t-89.5 -286.5
q0 -185 89 -291.5t222 -108.5z" />
    <glyph glyph-name="Obreve" unicode="&#x14e;" horiz-adv-x="1525" 
d="M749 1585q-128 0 -218.5 82t-90.5 198h96q0 -66 62.5 -113t150.5 -47t150.5 47t62.5 113h95q0 -116 -90 -198t-218 -82zM756 1473q153 0 286 -59.5t224.5 -161.5t143.5 -241t52 -294t-52 -294t-143.5 -241t-224.5 -161.5t-286 -59.5q-204 0 -363.5 102t-244.5 273.5
t-85 380.5t85 380.5t244.5 273.5t363.5 102zM756 128q154 0 273 81.5t180 214.5t61 293t-61 293t-180 214.5t-273 81.5t-269.5 -81.5t-173 -214t-57.5 -293.5t57.5 -293.5t173 -214t269.5 -81.5z" />
    <glyph glyph-name="obreve" unicode="&#x14f;" horiz-adv-x="1101" 
d="M542 1194q-128 0 -218.5 82t-90.5 198h96q0 -66 62.5 -112.5t150.5 -46.5t150.5 46.5t62.5 112.5h96q0 -116 -90.5 -198t-218.5 -82zM551 1083q210 0 345 -148.5t135 -405.5q0 -258 -133 -405t-347 -149q-214 2 -347.5 149t-133.5 405q0 257 135.5 405.5t345.5 148.5z
M551 129q133 2 221.5 108.5t88.5 291.5q0 176 -89 287t-221 113q-132 -2 -221.5 -113.5t-89.5 -286.5q0 -185 89 -291.5t222 -108.5z" />
    <glyph glyph-name="Ohungarumlaut" unicode="&#x150;" horiz-adv-x="1525" 
d="M937 1869l-259 -281h-133l177 281h215zM981 1588h-134l178 281h214zM756 1473q153 0 286 -59.5t224.5 -161.5t143.5 -241t52 -294t-52 -294t-143.5 -241t-224.5 -161.5t-286 -59.5q-204 0 -363.5 102t-244.5 273.5t-85 380.5t85 380.5t244.5 273.5t363.5 102zM756 128
q154 0 273 81.5t180 214.5t61 293t-61 293t-180 214.5t-273 81.5t-269.5 -81.5t-173 -214t-57.5 -293.5t57.5 -293.5t173 -214t269.5 -81.5z" />
    <glyph glyph-name="ohungarumlaut" unicode="&#x151;" horiz-adv-x="1101" 
d="M551 1083q210 0 345 -148.5t135 -405.5q0 -258 -133 -405t-347 -149q-214 2 -347.5 149t-133.5 405q0 257 135.5 405.5t345.5 148.5zM551 129q133 2 221.5 108.5t88.5 291.5q0 176 -89 287t-221 113q-132 -2 -221.5 -113.5t-89.5 -286.5q0 -185 89 -291.5t222 -108.5z
M725 1475l-259 -281h-134l178 281h215zM769 1194h-134l177 281h215z" />
    <glyph glyph-name="OE" unicode="&#x152;" horiz-adv-x="2383" 
d="M2325 1276h-876v-483h799v-154h-799v-483h876v-157h-1055v188q-95 -107 -227 -166.5t-287 -59.5q-204 0 -363.5 102t-244.5 273.5t-85 380.5t85 380.5t244.5 273.5t363.5 102q155 0 287 -59.5t227 -166.5v186h1055v-157zM756 128q154 0 273 81.5t180 214.5t61 293
t-61 293t-180 214.5t-273 81.5t-269.5 -81.5t-173 -214t-57.5 -293.5t57.5 -293.5t173 -214t269.5 -81.5z" />
    <glyph glyph-name="oe" unicode="&#x153;" horiz-adv-x="1894" 
d="M1347 129q204 0 284 223h178q-31 -164 -154.5 -270.5t-307.5 -106.5q-131 0 -234.5 55t-166.5 158q-63 -102 -164.5 -157t-230.5 -56q-214 2 -347.5 148.5t-133.5 405.5q0 257 135.5 405.5t345.5 148.5q134 0 235 -58.5t163 -163.5q64 103 164 162t221 60
q61 1 116.5 -10.5t112.5 -36t103 -70t82.5 -108.5t56.5 -155.5t20 -206.5h-785q0 -161 84.5 -264t222.5 -103zM1339 941q-124 0 -206.5 -91t-82.5 -211h593q0 88 -45.5 159t-114.5 107t-144 36zM551 129q149 2 229.5 110.5t80.5 289.5q0 176 -89 287t-221 113
q-133 -2 -222 -113t-89 -287q0 -181 81 -289.5t230 -110.5z" />
    <glyph glyph-name="Racute" unicode="&#x154;" horiz-adv-x="1298" 
d="M825 1869l-258 -282h-134l177 282h215zM828 607l425 -607h-219l-424 607h-308v-607h-179v1434h698q106 0 197.5 -51.5t148 -145.5t56.5 -208q0 -179 -107.5 -299t-287.5 -123zM302 763h478q70 0 122.5 22t82.5 59.5t44.5 81.5t14.5 93q0 101 -58.5 179.5t-165.5 78.5
h-518v-514z" />
    <glyph glyph-name="racute" unicode="&#x155;" horiz-adv-x="679" 
d="M615 1473l-259 -281h-133l177 281h215zM516 1082q71 0 140 -25v-166q-48 24 -140 24q-77 0 -129 -37.5t-73.5 -91.5t-21.5 -120v-666h-179v1057h179v-159q24 67 86 125.5t138 58.5z" />
    <glyph glyph-name="Rcedilla" unicode="&#x156;" horiz-adv-x="1298" 
d="M519 -440l74 347h170l-112 -347h-132zM828 607l425 -607h-219l-424 607h-308v-607h-179v1434h698q106 0 197.5 -51.5t148 -145.5t56.5 -208q0 -179 -107.5 -299t-287.5 -123zM302 763h478q70 0 122.5 22t82.5 59.5t44.5 81.5t14.5 93q0 101 -58.5 179.5t-165.5 78.5h-518
v-514z" />
    <glyph glyph-name="rcedilla" unicode="&#x157;" horiz-adv-x="679" 
d="M84 -440l75 346h169l-112 -346h-132zM515 1082q72 0 141 -25v-166q-49 24 -141 24q-77 0 -129 -37.5t-73.5 -91.5t-21.5 -120v-666h-179v1057h179v-159q24 67 86 125.5t138 58.5z" />
    <glyph glyph-name="Rcaron" unicode="&#x158;" horiz-adv-x="1298" 
d="M771 1586h-251l-196 282h157l165 -238l164 238h156zM828 607l425 -607h-219l-424 607h-308v-607h-179v1434h698q106 0 197.5 -51.5t148 -145.5t56.5 -208q0 -179 -107.5 -299t-287.5 -123zM302 763h478q70 0 122.5 22t82.5 59.5t44.5 81.5t14.5 93q0 101 -58.5 179.5
t-165.5 78.5h-518v-514z" />
    <glyph glyph-name="rcaron" unicode="&#x159;" horiz-adv-x="679" 
d="M502 1192h-250l-197 282h158l164 -238l164 238h157zM293 898q24 67 86 125.5t138 58.5q71 0 140 -25v-166q-48 24 -140 24q-77 0 -129 -37.5t-73.5 -91.5t-21.5 -120v-666h-179v1057h179v-159z" />
    <glyph glyph-name="Sacute" unicode="&#x15a;" horiz-adv-x="1241" 
d="M861 1869l-259 -282h-133l177 282h215zM791 788q55 -14 106 -34.5t102.5 -55t89.5 -77.5t61.5 -104t23.5 -132q0 -116 -74 -214.5t-202.5 -155.5t-280.5 -54q-108 2 -200.5 32.5t-157.5 80t-110.5 114t-67.5 134.5t-22 141h184q0 -54 21.5 -109t64 -105.5t116.5 -84
t168 -37.5q152 -5 261.5 70.5t109.5 187.5q0 85 -64.5 143.5t-173.5 86.5l-282 65q-68 16 -127 43.5t-113 72t-85 112.5t-31 153q0 112 68.5 207t186.5 150t257 55q123 0 223 -39.5t161.5 -105.5t94.5 -147t33 -168h-184q0 51 -20 101.5t-58 95t-103 72t-147 27.5
q-152 0 -240 -72t-88 -175q0 -74 59.5 -128.5t157.5 -80.5z" />
    <glyph glyph-name="sacute" unicode="&#x15b;" horiz-adv-x="997" 
d="M696 1473l-259 -281h-133l177 281h215zM655 589q272 -74 272 -282q0 -84 -36 -150.5t-96 -106t-135.5 -59t-158.5 -16.5q-101 3 -185 35.5t-137.5 84t-83 115t-29.5 130.5h164q0 -82 77 -145t194 -67q114 -4 179 42.5t65 119.5q0 48 -41 78.5t-117 52.5l-239 64
q-46 12 -89 35t-82 58t-63 85.5t-24 108.5q0 128 117.5 218.5t284.5 90.5q96 0 177.5 -30.5t132 -78t75.5 -105t16 -113.5h-165q0 78 -65 126t-162 48q-95 0 -161.5 -41.5t-66.5 -99.5q0 -52 34 -82.5t99 -48.5z" />
    <glyph glyph-name="Scircumflex" unicode="&#x15c;" horiz-adv-x="1241" 
d="M622 1824l-165 -238h-156l195 282h251l197 -282h-158zM791 788q55 -14 106 -34.5t102.5 -55t89.5 -77.5t61.5 -104t23.5 -132q0 -116 -74 -214.5t-202.5 -155.5t-280.5 -54q-108 2 -200.5 32.5t-157.5 80t-110.5 114t-67.5 134.5t-22 141h184q0 -54 21.5 -109t64 -105.5
t116.5 -84t168 -37.5q152 -5 261.5 70.5t109.5 187.5q0 85 -64.5 143.5t-173.5 86.5l-282 65q-68 16 -127 43.5t-113 72t-85 112.5t-31 153q0 112 68.5 207t186.5 150t257 55q123 0 223 -39.5t161.5 -105.5t94.5 -147t33 -168h-184q0 51 -20 101.5t-58 95t-103 72t-147 27.5
q-152 0 -240 -72t-88 -175q0 -74 59.5 -128.5t157.5 -80.5z" />
    <glyph glyph-name="scircumflex" unicode="&#x15d;" horiz-adv-x="997" 
d="M492 1429l-165 -237h-156l195 281h251l196 -281h-157zM655 589q272 -74 272 -282q0 -84 -36 -150.5t-96 -106t-135.5 -59t-158.5 -16.5q-101 3 -185 35.5t-137.5 84t-83 115t-29.5 130.5h164q0 -82 77 -145t194 -67q114 -4 179 42.5t65 119.5q0 48 -41 78.5t-117 52.5
l-239 64q-46 12 -89 35t-82 58t-63 85.5t-24 108.5q0 128 117.5 218.5t284.5 90.5q96 0 177.5 -30.5t132 -78t75.5 -105t16 -113.5h-165q0 78 -65 126t-162 48q-95 0 -161.5 -41.5t-66.5 -99.5q0 -52 34 -82.5t99 -48.5z" />
    <glyph glyph-name="Scedilla" unicode="&#x15e;" horiz-adv-x="1241" 
d="M1174 385q0 -114 -71.5 -211.5t-195.5 -155.5t-272 -58l-32 -52q76 -12 125.5 -61t49.5 -114q0 -73 -63.5 -125t-153.5 -52q-78 0 -136 39v110q59 -40 136 -40q35 0 59.5 20t24.5 48q0 30 -23 52t-61 22h-96v81l51 81q-110 17 -199 67t-144.5 118.5t-84.5 147.5t-29 160
h184q0 -54 21.5 -109t64 -105.5t116.5 -84t168 -37.5q151 -5 261 71t110 188q0 85 -64.5 143t-173.5 86l-282 65q-54 13 -101.5 32t-95.5 51t-82 73t-55.5 99.5t-21.5 126.5q0 112 68.5 207t186.5 150t257 55q123 0 223 -39.5t161.5 -105.5t94.5 -147t33 -168h-184
q0 51 -20 101.5t-58 95t-103 72t-147 27.5q-152 0 -240 -72t-88 -175q0 -74 59.5 -128.5t157.5 -80.5l282 -65q55 -14 106 -34.5t102.5 -55t89.5 -77.5t61.5 -104t23.5 -132z" />
    <glyph glyph-name="scedilla" unicode="&#x15f;" horiz-adv-x="997" 
d="M927 308q0 -82 -34 -147t-91.5 -104.5t-129 -60t-152.5 -20.5l-30 -47q76 -12 125.5 -61t49.5 -114q0 -74 -63 -126t-153 -52q-78 0 -137 40v109q59 -40 137 -40q34 0 58.5 20t24.5 49q0 30 -22.5 52t-60.5 22h-97v80l50 80q-157 31 -246.5 131.5t-89.5 222.5h164
q0 -82 77 -145t194 -67q114 -4 179 42.5t65 119.5q0 48 -41 78.5t-117 52.5l-239 64q-46 12 -89 35t-82 58t-63 85.5t-24 108.5q0 128 117.5 218.5t284.5 90.5q96 0 177.5 -30.5t132 -78t75.5 -105t16 -113.5h-165q0 78 -65 126t-162 48q-94 0 -161 -41.5t-67 -100.5
q0 -52 34 -82.5t99 -48.5l249 -66q272 -74 272 -283z" />
    <glyph glyph-name="Scaron" unicode="&#x160;" horiz-adv-x="1241" 
d="M760 1586h-251l-197 282h158l164 -238l165 238h156zM791 788q55 -14 106 -34.5t102.5 -55t89.5 -77.5t61.5 -104t23.5 -132q0 -116 -74 -214.5t-202.5 -155.5t-280.5 -54q-108 2 -200.5 32.5t-157.5 80t-110.5 114t-67.5 134.5t-22 141h184q0 -54 21.5 -109t64 -105.5
t116.5 -84t168 -37.5q152 -5 261.5 70.5t109.5 187.5q0 85 -64.5 143.5t-173.5 86.5l-282 65q-68 16 -127 43.5t-113 72t-85 112.5t-31 153q0 112 68.5 207t186.5 150t257 55q123 0 223 -39.5t161.5 -105.5t94.5 -147t33 -168h-184q0 51 -20 101.5t-58 95t-103 72t-147 27.5
q-152 0 -240 -72t-88 -175q0 -74 59.5 -128.5t157.5 -80.5z" />
    <glyph glyph-name="scaron" unicode="&#x161;" horiz-adv-x="997" 
d="M620 1192h-251l-196 282h157l165 -238l164 238h156zM655 589q272 -74 272 -282q0 -84 -36 -150.5t-96 -106t-135.5 -59t-158.5 -16.5q-101 3 -185 35.5t-137.5 84t-83 115t-29.5 130.5h164q0 -82 77 -145t194 -67q114 -4 179 42.5t65 119.5q0 48 -41 78.5t-117 52.5
l-239 64q-46 12 -89 35t-82 58t-63 85.5t-24 108.5q0 128 117.5 218.5t284.5 90.5q96 0 177.5 -30.5t132 -78t75.5 -105t16 -113.5h-165q0 78 -65 126t-162 48q-95 0 -161.5 -41.5t-66.5 -99.5q0 -52 34 -82.5t99 -48.5z" />
    <glyph glyph-name="Tcedilla" unicode="&#x162;" horiz-adv-x="1173" 
d="M675 1269v-1269l-53 -88q76 -12 125 -60.5t49 -113.5q0 -74 -63 -126t-153 -52q-79 0 -137 39v110q59 -40 137 -40q34 0 58.5 20t24.5 49q0 30 -22.5 51.5t-60.5 21.5h-97v81l68 108h-55v1269h-492v164h1164v-164h-493z" />
    <glyph glyph-name="tcedilla" unicode="&#x163;" horiz-adv-x="616" 
d="M562 913h-179v-654q0 -33 23 -57t55 -24h101v-179h-98q-9 0 -29 2l-48 -77q76 -12 125.5 -60.5t49.5 -113.5q0 -74 -63 -126t-153 -52q-78 0 -137 40v109q59 -40 137 -40q34 0 58.5 20t24.5 49q0 30 -22.5 52t-60.5 22h-97v80l82 132q-58 34 -92.5 93t-34.5 130v654h-179
v143h179v377h179v-377h179v-143z" />
    <glyph glyph-name="Tcaron" unicode="&#x164;" horiz-adv-x="1173" 
d="M709 1586h-251l-196 282h158l164 -238l164 238h157zM4 1433h1164v-164h-493v-1269h-179v1269h-492v164z" />
    <glyph glyph-name="tcaron" unicode="&#x165;" horiz-adv-x="868" 
d="M800 1477h182l-135 -471h-131zM383 1434v-376h179v-143h-179v-654q0 -33 23 -57t55 -24h101v-179h-98q-107 0 -183.5 76t-76.5 184v654h-179v143h179v376h179z" />
    <glyph glyph-name="Tbar" unicode="&#x166;" horiz-adv-x="1210" 
d="M1186 1269h-492v-410h380v-121h-380v-738h-179v738h-385v121h385v410h-492v164h1163v-164z" />
    <glyph glyph-name="tbar" unicode="&#x167;" horiz-adv-x="669" 
d="M589 553h-179v-293q0 -33 23 -57t55 -24h101v-179h-99q-107 0 -183.5 76t-76.5 184v293h-179v121h179v240h-179v143h179v376h180v-376h179v-143h-179v-240h179v-121z" />
    <glyph glyph-name="Utilde" unicode="&#x168;" horiz-adv-x="1343" 
d="M1058 1434h180v-906q0 -118 -46 -224t-123 -181t-181 -118.5t-217 -43.5t-217 43.5t-181 118.5t-123 181t-46 224v906h180v-906q0 -162 114 -281t273 -119t273 119t114 281v906zM574 1664q-46 13 -86.5 -13t-40.5 -78h-95q0 101 82.5 170t192.5 38q181 -66 184 -67
q46 -13 86 13t40 78h96q0 -47 -21.5 -92t-59 -76t-87.5 -43.5t-108 3.5q-180 66 -183 67z" />
    <glyph glyph-name="utilde" unicode="&#x169;" horiz-adv-x="1058" 
d="M408 1264q-46 13 -86 -12.5t-40 -77.5h-96q0 47 21.5 92t59 75.5t87.5 43t108 -3.5q180 -65 183 -66q47 -13 87 12.5t40 77.5h95q0 -47 -21.5 -91.5t-58.5 -75.5t-87 -43.5t-108 3.5q-181 65 -184 66zM765 1057h180v-1056h-180v131q-15 -27 -35.5 -51t-52 -49.5t-77 -41
t-97.5 -15.5q-98 0 -177 32.5t-127 87t-73.5 120.5t-25.5 138v704h180v-704q0 -98 64.5 -161t184.5 -63q61 0 108 25t74 66.5t40.5 88t13.5 95.5v653z" />
    <glyph glyph-name="Umacron" unicode="&#x16a;" horiz-adv-x="1343" 
d="M1058 1434h180v-906q0 -118 -46 -224t-123 -181t-181 -118.5t-217 -43.5t-217 43.5t-181 118.5t-123 181t-46 224v906h180v-906q0 -162 114 -281t273 -119t273 119t114 281v906zM975 1671h-609v120h609v-120z" />
    <glyph glyph-name="umacron" unicode="&#x16b;" horiz-adv-x="1058" 
d="M822 1236h-609v121h609v-121zM765 1057h180v-1056h-180v131q-15 -27 -35.5 -51t-52 -49.5t-77 -41t-97.5 -15.5q-98 0 -177 32.5t-127 87t-73.5 120.5t-25.5 138v704h180v-704q0 -98 64.5 -161t184.5 -63q61 0 108 25t74 66.5t40.5 88t13.5 95.5v653z" />
    <glyph glyph-name="Ubreve" unicode="&#x16c;" horiz-adv-x="1343" 
d="M1058 1434h180v-906q0 -118 -46 -224t-123 -181t-181 -118.5t-217 -43.5t-217 43.5t-181 118.5t-123 181t-46 224v906h180v-906q0 -162 114 -281t273 -119t273 119t114 281v906zM675 1587q-128 0 -218.5 82.5t-90.5 198.5h96q0 -66 62.5 -113t150.5 -47t150.5 47
t62.5 113h96q0 -116 -90.5 -198.5t-218.5 -82.5z" />
    <glyph glyph-name="ubreve" unicode="&#x16d;" horiz-adv-x="1058" 
d="M526 1195q-128 0 -218.5 82t-90.5 198h96q0 -66 62.5 -112.5t150.5 -46.5t150.5 46.5t62.5 112.5h95q0 -116 -90 -198t-218 -82zM765 1057h180v-1056h-180v131q-15 -27 -35.5 -51t-52 -49.5t-77 -41t-97.5 -15.5q-98 0 -177 32.5t-127 87t-73.5 120.5t-25.5 138v704h180
v-704q0 -98 64.5 -161t184.5 -63q61 0 108 25t74 66.5t40.5 88t13.5 95.5v653z" />
    <glyph glyph-name="Uring" unicode="&#x16e;" horiz-adv-x="1343" 
d="M1058 1434h180v-906q0 -118 -46 -224t-123 -181t-181 -118.5t-217 -43.5t-217 43.5t-181 118.5t-123 181t-46 224v906h180v-906q0 -162 114 -281t273 -119t273 119t114 281v906zM692 1543q-82 0 -139.5 57.5t-57.5 139.5t57.5 139.5t139.5 57.5t139.5 -57.5t57.5 -139.5
t-57.5 -139.5t-139.5 -57.5zM692 1829q-37 0 -63 -26t-26 -63t26 -63.5t63 -26.5t63.5 26.5t26.5 63.5t-26.5 63t-63.5 26z" />
    <glyph glyph-name="uring" unicode="&#x16f;" horiz-adv-x="1058" 
d="M525 1197q-82 0 -139.5 58t-57.5 140t57.5 139.5t139.5 57.5t139.5 -57.5t57.5 -139.5t-57.5 -140t-139.5 -58zM525 1484q-37 0 -63.5 -26t-26.5 -63t26.5 -63.5t63.5 -26.5t63.5 26.5t26.5 63.5t-26.5 63t-63.5 26zM765 1057h180v-1056h-180v131q-15 -27 -35.5 -51
t-52 -49.5t-77 -41t-97.5 -15.5q-98 0 -177 32.5t-127 87t-73.5 120.5t-25.5 138v704h180v-704q0 -98 64.5 -161t184.5 -63q61 0 108 25t74 66.5t40.5 88t13.5 95.5v653z" />
    <glyph glyph-name="Uhungarumlaut" unicode="&#x170;" horiz-adv-x="1343" 
d="M1058 1434h180v-906q0 -118 -46 -224t-123 -181t-181 -118.5t-217 -43.5t-217 43.5t-181 118.5t-123 181t-46 224v906h180v-906q0 -162 114 -281t273 -119t273 119t114 281v906zM845 1871l-259 -281h-133l177 281h215zM889 1590h-133l177 281h215z" />
    <glyph glyph-name="uhungarumlaut" unicode="&#x171;" horiz-adv-x="1056" 
d="M765 404v653h180v-1056h-180v131q-15 -27 -35.5 -51t-52 -49.5t-77 -41t-97.5 -15.5q-98 0 -177 32.5t-127 87t-73.5 120.5t-25.5 138v704h180v-704q0 -98 64.5 -161t184.5 -63q61 0 108 25t74 66.5t40.5 88t13.5 95.5zM697 1476l-259 -281h-134l178 281h215zM741 1195
h-134l177 281h215z" />
    <glyph glyph-name="Uogonek" unicode="&#x172;" horiz-adv-x="1343" 
d="M1058 528v906h180v-906q0 -111 -40.5 -211t-109.5 -173.5t-162.5 -121t-196.5 -58.5q-93 -79 -99 -161q-3 -41 23.5 -66t80.5 -25q11 0 25 3t22 5l8 3v-122q-47 -30 -129 -30q-98 0 -150 55t-49 126q6 114 106 219q-197 37 -330 192t-133 365v906h180v-906
q0 -162 114 -281t273 -119t273 119t114 281z" />
    <glyph glyph-name="uogonek" unicode="&#x173;" horiz-adv-x="1058" 
d="M891 -283q11 0 25 2.5t22 5.5l9 3v-122q-47 -30 -129 -30q-98 0 -150 55t-49 126q2 40 17.5 79.5t37 68t42 51t34.5 34.5l15 11v131q-15 -27 -35.5 -51t-52 -49.5t-77 -41t-97.5 -15.5q-98 0 -177 32.5t-127 87t-73.5 120.5t-25.5 138v704h180v-704q0 -98 64.5 -161
t184.5 -63q61 0 108 25t74 66.5t40.5 88t13.5 95.5v653h180v-1056q-30 -21 -48.5 -35.5t-46.5 -41t-44 -56t-18 -60.5q-3 -41 23 -66t80 -25z" />
    <glyph glyph-name="Wcircumflex" unicode="&#x174;" horiz-adv-x="1894" 
d="M949 1783l-165 -237h-156l195 281h251l196 -281h-157zM1677 1433h190l-333 -1433h-343l-244 1298l-244 -1298h-344l-332 1433h189l320 -1352l259 1352h304l259 -1352z" />
    <glyph glyph-name="wcircumflex" unicode="&#x175;" horiz-adv-x="1447" 
d="M722 1431l-164 -238h-156l195 282h251l196 -282h-157zM1231 1056h190l-308 -1057h-176l-213 819l-213 -819h-176l-308 1057h190l206 -849l218 849h166l218 -849z" />
    <glyph glyph-name="Ycircumflex" unicode="&#x176;" horiz-adv-x="1267" 
d="M627 1782l-164 -238h-157l196 282h250l197 -282h-158zM1060 1432h212l-549 -866v-567h-179v566l-550 867h212l427 -699z" />
    <glyph glyph-name="ycircumflex" unicode="&#x177;" horiz-adv-x="1032" 
d="M516 1433l-165 -238h-156l195 282h251l197 -282h-158zM823 1057h190l-502 -1295q-25 -56 -81 -97.5t-133 -41.5h-88v161h90q47 2 65 43l64 173l-410 1057h191l307 -850z" />
    <glyph glyph-name="Ydieresis" unicode="&#x178;" horiz-adv-x="1267" 
d="M474 1624q-44 0 -75.5 26.5t-31.5 63.5t31.5 63t75.5 26t76 -26t32 -63t-32 -63.5t-76 -26.5zM796 1624q-44 0 -75.5 26.5t-31.5 63.5t31.5 63t75.5 26t76 -26t32 -63t-32 -63.5t-76 -26.5zM1060 1432h212l-549 -866v-567h-179v566l-550 867h212l427 -699z" />
    <glyph glyph-name="Zacute" unicode="&#x179;" horiz-adv-x="1202" 
d="M848 1826l-259 -281h-134l178 281h215zM1163 1433v-159l-907 -1123h907v-152h-1132v154l906 1129h-842v151h1068z" />
    <glyph glyph-name="zacute" unicode="&#x17a;" horiz-adv-x="942" 
d="M696 1472l-259 -281h-133l177 281h215zM270 144h622v-144h-847v145l619 768h-575v144h785v-163z" />
    <glyph glyph-name="Zdot" unicode="&#x17b;" horiz-adv-x="1202" 
d="M1163 1434v-160l-907 -1123h907v-151h-1132v153l906 1129h-842v152h1068zM597 1581q-44 0 -76 26.5t-32 63.5t32 63t76 26t75.5 -26t31.5 -63t-31.5 -63.5t-75.5 -26.5z" />
    <glyph glyph-name="zdot" unicode="&#x17c;" horiz-adv-x="940" 
d="M477 1250q-44 0 -75.5 26.5t-31.5 63.5t31.5 63t75.5 26t76 -26t32 -63t-32 -63.5t-76 -26.5zM270 144h622v-144h-847v145l619 768h-575v144h785v-163z" />
    <glyph glyph-name="Zcaron" unicode="&#x17d;" horiz-adv-x="1202" 
d="M787 1587h-251l-196 281h157l164 -237l165 237h156zM1163 1433v-159l-907 -1123h907v-152h-1132v154l906 1129h-842v151h1068z" />
    <glyph glyph-name="zcaron" unicode="&#x17e;" horiz-adv-x="942" 
d="M605 1191h-251l-196 281h157l165 -237l164 237h156zM270 144h622v-144h-847v145l619 768h-575v144h785v-163z" />
    <glyph glyph-name="Acaron" unicode="&#x1cd;" horiz-adv-x="1298" 
d="M815 1433l471 -1433h-189l-143 430h-613l-139 -430h-190l460 1433h343zM392 586h509l-258 775zM775 1543h-251l-196 282h157l165 -238l164 238h157z" />
    <glyph glyph-name="acaron" unicode="&#x1ce;" 
d="M510 1083q73 0 141.5 -18.5t126.5 -53.5t93 -94t35 -133v-783h-180v158q-9 -27 -28 -55t-50 -57.5t-81 -49t-110 -21.5q-93 -3 -170 27t-124.5 81t-73.5 113.5t-26 127.5q0 157 114 253t282 96h160q47 0 78.5 34.5t28.5 84.5q-8 134 -216 134q-67 0 -119 -28t-75 -81
h-187q25 80 70.5 135.5t101.5 82t105.5 37t103.5 10.5zM726 325v232q-70 -26 -138 -26h-129q-88 0 -152 -51t-64 -155q0 -83 59 -138.5t157 -55.5q103 0 185 57.5t82 136.5zM662 1192h-251l-196 282h157l165 -238l164 238h156z" />
    <glyph glyph-name="Icaron" unicode="&#x1cf;" horiz-adv-x="425" 
d="M369 1825h157l-196 -281h-250l-197 281h158l164 -237zM302 0h-179v1434h179v-1434z" />
    <glyph glyph-name="icaron" unicode="&#x1d0;" horiz-adv-x="405" 
d="M363 1474h157l-196 -282h-251l-196 282h157l165 -238zM291 0h-179v1057h179v-1057z" />
    <glyph glyph-name="Ocaron" unicode="&#x1d1;" horiz-adv-x="1525" 
d="M879 1586h-251l-197 282h158l164 -238l165 238h156zM756 1473q153 0 286 -59.5t224.5 -161.5t143.5 -241t52 -294t-52 -294t-143.5 -241t-224.5 -161.5t-286 -59.5q-204 0 -363.5 102t-244.5 273.5t-85 380.5t85 380.5t244.5 273.5t363.5 102zM756 128q154 0 273 81.5
t180 214.5t61 293t-61 293t-180 214.5t-273 81.5t-269.5 -81.5t-173 -214t-57.5 -293.5t57.5 -293.5t173 -214t269.5 -81.5z" />
    <glyph glyph-name="ocaron" unicode="&#x1d2;" horiz-adv-x="1101" 
d="M672 1193h-251l-196 281h157l164 -237l165 237h156zM551 1083q210 0 345 -148.5t135 -405.5q0 -258 -133 -405t-347 -149q-214 2 -347.5 149t-133.5 405q0 257 135.5 405.5t345.5 148.5zM551 129q133 2 221.5 108.5t88.5 291.5q0 176 -89 287t-221 113
q-132 -2 -221.5 -113.5t-89.5 -286.5q0 -185 89 -291.5t222 -108.5z" />
    <glyph glyph-name="Ucaron" unicode="&#x1d3;" horiz-adv-x="1343" 
d="M1058 1434h180v-906q0 -118 -46 -224t-123 -181t-181 -118.5t-217 -43.5t-217 43.5t-181 118.5t-123 181t-46 224v906h180v-906q0 -162 114 -281t273 -119t273 119t114 281v906zM802 1589h-251l-196 282h157l165 -238l164 238h156z" />
    <glyph glyph-name="ucaron" unicode="&#x1d4;" horiz-adv-x="1058" 
d="M655 1193h-251l-196 282h157l164 -238l165 238h156zM765 1057h180v-1056h-180v131q-15 -27 -35.5 -51t-52 -49.5t-77 -41t-97.5 -15.5q-98 0 -177 32.5t-127 87t-73.5 120.5t-25.5 138v704h180v-704q0 -98 64.5 -161t184.5 -63q61 0 108 25t74 66.5t40.5 88t13.5 95.5
v653z" />
    <glyph glyph-name="Gcaron" unicode="&#x1e6;" horiz-adv-x="1437" 
d="M846 1542h-251l-197 281h158l164 -237l165 237h156zM1339 1h-166v218q-55 -107 -196 -182t-275 -75q-151 0 -272.5 59t-199.5 162.5t-120 240t-42 294.5q0 209 78 380.5t223.5 273.5t330.5 102q145 0 260.5 -43.5t188.5 -118t116 -163.5t58 -192h-192q-84 349 -425 349
q-98 0 -182 -50t-140 -132.5t-88 -188t-32 -217.5q0 -113 28.5 -215.5t82 -184.5t139 -132.5t192.5 -55.5q62 -2 122 14.5t116.5 54t100.5 93t74.5 138t39.5 181.5h-453v166h633v-776z" />
    <glyph glyph-name="gcaron" unicode="&#x1e7;" horiz-adv-x="1089" 
d="M661 1193h-251l-196 282h157l164 -238l165 238h156zM1009 615q0 -107 -51 -198t-140 -150q86 -50 136 -125t50 -161q0 -97 -62 -179t-169 -130t-233 -48t-233 48t-169 130t-62 179q0 10 2 28h167q-2 -14 -2 -21q0 -78 90.5 -144t206.5 -66q140 0 218.5 63t78.5 147
q0 86 -68 140t-224 57q-126 3 -222 42.5t-150 103t-80.5 135.5t-26.5 149q0 121 63 223t171.5 161t236.5 59q105 0 197 -40l157 157l118 -118l-134 -133q134 -129 134 -309zM537 325q134 0 213.5 86.5t79.5 203.5t-79.5 203t-213.5 86q-135 0 -213.5 -86t-78.5 -203
t78.5 -203.5t213.5 -86.5z" />
    <glyph glyph-name="Gacute" unicode="&#x1f4;" horiz-adv-x="1437" 
d="M900 1822l-258 -281h-134l178 281h214zM1339 1h-166v218q-55 -107 -196 -182t-275 -75q-151 0 -272.5 59t-199.5 162.5t-120 240t-42 294.5q0 209 78 380.5t223.5 273.5t330.5 102q145 0 260.5 -43.5t188.5 -118t116 -163.5t58 -192h-192q-84 349 -425 349
q-98 0 -182 -50t-140 -132.5t-88 -188t-32 -217.5q0 -113 28.5 -215.5t82 -184.5t139 -132.5t192.5 -55.5q62 -2 122 14.5t116.5 54t100.5 93t74.5 138t39.5 181.5h-453v166h633v-776z" />
    <glyph glyph-name="gacute" unicode="&#x1f5;" horiz-adv-x="1087" 
d="M738 1473l-259 -281h-133l177 281h215zM1007 614q0 -107 -51 -198t-140 -150q86 -50 136 -125t50 -161q0 -97 -62 -179t-169 -130t-233 -48t-233 48t-169 130t-62 179q0 10 2 28h167q-2 -14 -2 -21q0 -78 90.5 -144t206.5 -66q140 0 218.5 63t78.5 147q0 86 -68 140
t-224 57q-126 3 -222 42.5t-150.5 103t-81 135.5t-26.5 149q0 90 37.5 172t100.5 141.5t150.5 94.5t183.5 35q105 0 197 -40l157 157l118 -117l-134 -134q134 -129 134 -309zM535 324q134 0 213.5 86.5t79.5 203.5t-79.5 203t-213.5 86q-135 0 -213.5 -86t-78.5 -203
t78.5 -203.5t213.5 -86.5z" />
    <glyph glyph-name="uni01f8" unicode="&#x1f8;" horiz-adv-x="1376" 
d="M880 1542h-133l-259 281h215zM1073 1433h179v-1434h-214l-736 1180v-1180h-179v1434h214l736 -1181v1181z" />
    <glyph glyph-name="uni01f9" unicode="&#x1f9;" horiz-adv-x="1083" 
d="M769 1193h-133l-259 281h215zM568 1082q171 0 287.5 -107.5t116.5 -270.5v-704h-180v706q0 98 -64.5 160t-184.5 62q-114 0 -181.5 -63t-67.5 -159v-706h-179v1057h179v-132q37 58 111.5 107.5t162.5 49.5z" />
    <glyph glyph-name="Scommaaccent" unicode="&#x218;" horiz-adv-x="1241" 
d="M503 -440l75 347h169l-112 -347h-132zM791 788q55 -14 106 -34.5t102.5 -55t89.5 -77.5t61.5 -104t23.5 -132q0 -116 -74 -214.5t-202.5 -155.5t-280.5 -54q-108 2 -200.5 32.5t-157.5 80t-110.5 114t-67.5 134.5t-22 141h184q0 -54 21.5 -109t64 -105.5t116.5 -84
t168 -37.5q152 -5 261.5 70.5t109.5 187.5q0 85 -64.5 143.5t-173.5 86.5l-282 65q-68 16 -127 43.5t-113 72t-85 112.5t-31 153q0 112 68.5 207t186.5 150t257 55q123 0 223 -39.5t161.5 -105.5t94.5 -147t33 -168h-184q0 51 -20 101.5t-58 95t-103 72t-147 27.5
q-152 0 -240 -72t-88 -175q0 -74 59.5 -128.5t157.5 -80.5z" />
    <glyph glyph-name="scommaaccent" unicode="&#x219;" horiz-adv-x="997" 
d="M418 -440l75 346h169l-111 -346h-133zM655 589q272 -74 272 -282q0 -84 -36 -150.5t-96 -106t-135.5 -59t-158.5 -16.5q-101 3 -185 35.5t-137.5 84t-83 115t-29.5 130.5h164q0 -82 77 -145t194 -67q114 -4 179 42.5t65 119.5q0 48 -41 78.5t-117 52.5l-239 64
q-46 12 -89 35t-82 58t-63 85.5t-24 108.5q0 128 117.5 218.5t284.5 90.5q96 0 177.5 -30.5t132 -78t75.5 -105t16 -113.5h-165q0 78 -65 126t-162 48q-95 0 -161.5 -41.5t-66.5 -99.5q0 -52 34 -82.5t99 -48.5z" />
    <glyph glyph-name="uni021a" unicode="&#x21a;" horiz-adv-x="1173" 
d="M447 -440l75 347h169l-112 -347h-132zM4 1433h1164v-164h-493v-1269h-179v1269h-492v164z" />
    <glyph glyph-name="uni021b" unicode="&#x21b;" horiz-adv-x="616" 
d="M275 -439l75 347h169l-112 -347h-132zM562 913h-179v-654q0 -33 23 -57t55 -24h101v-179h-98q-107 0 -183.5 76t-76.5 184v654h-179v143h179v376h179v-376h179v-143z" />
    <glyph glyph-name="uni021e" unicode="&#x21e;" horiz-adv-x="1376" 
d="M813 1542h-250l-197 281h158l164 -237l164 237h157zM1073 1433h179v-1433h-179v670h-771v-670h-179v1433h179v-607l771 1v606z" />
    <glyph glyph-name="uni021f" unicode="&#x21f;" horiz-adv-x="1071" 
d="M528 1780l-196 -281h-251l-196 281h157l164 -237l164 237h158zM602 1082q66 0 130 -24.5t117.5 -71.5t86.5 -124t33 -172v-690h-179v690q0 101 -65.5 175t-183.5 74q-117 0 -183.5 -66t-66.5 -183v-690h-179v1433h179v-497q34 53 121.5 99.5t189.5 46.5z" />
    <glyph glyph-name="uni023b" unicode="&#x23b;" horiz-adv-x="1388" 
d="M711 129q140 0 251 94t164 256h195q-27 -136 -91.5 -239t-150.5 -162t-179.5 -88t-192.5 -29q-209 0 -363 114l-109 -157l-99 69l119 172q-89 103 -136 247t-47 312q0 124 29 239t85 208.5t132 163t175.5 108t211.5 38.5q231 0 386 -110l114 165l100 -69l-123 -177
q116 -132 146 -327h-192q-22 93 -66 166l-621 -896q112 -98 262 -98zM255 718q0 -230 112 -397l623 898q-109 92 -279 88q-98 -3 -184.5 -53.5t-145 -132.5t-92.5 -187t-34 -216z" />
    <glyph glyph-name="uni023c" unicode="&#x23c;" horiz-adv-x="1095" 
d="M560 128q109 0 183.5 67t107.5 182h174q-38 -181 -158.5 -292t-306.5 -111q-142 0 -253 66l-88 -126l-99 69l93 134q-130 141 -139 378q-10 265 124.5 426t356.5 161q157 0 272 -78l89 128l100 -69l-98 -141q85 -101 112 -259h-166q-12 61 -44 118l-422 -609
q71 -44 162 -44zM244 528q0 -165 67 -270l426 615q-78 55 -178 55q-134 0 -224.5 -111t-90.5 -289z" />
    <glyph glyph-name="circumflex" unicode="&#x2c6;" horiz-adv-x="778" 
d="M514 1474l196 -281h-157l-165 237l-164 -237h-156l195 281h251z" />
    <glyph glyph-name="caron" unicode="&#x2c7;" horiz-adv-x="712" 
d="M521 1474h156l-195 -281h-251l-196 281h157l165 -237z" />
    <glyph glyph-name="breve" unicode="&#x2d8;" horiz-adv-x="753" 
d="M589 1472h96q0 -116 -90.5 -198t-218.5 -82t-218 82t-90 198h95q0 -66 62.5 -112.5t150.5 -46.5t150.5 46.5t62.5 112.5z" />
    <glyph glyph-name="dotaccent" unicode="&#x2d9;" horiz-adv-x="350" 
d="M175 1293q-44 0 -75.5 26.5t-31.5 63.5t31.5 63t75.5 26t76 -26t32 -63t-32 -63.5t-76 -26.5z" />
    <glyph glyph-name="ogonek" unicode="&#x2db;" horiz-adv-x="575" 
d="M292 -194q-3 -41 23.5 -66t80.5 -25q11 0 25 2.5t22 5.5l8 3v-122q-47 -30 -129 -30q-98 0 -150 55t-49 126q2 40 18 79.5t37.5 68t43 51t36.5 34.5l14 11h179q-31 -22 -49 -36t-47 -40.5t-45 -56t-18 -60.5z" />
    <glyph glyph-name="ilde" unicode="&#x2dc;" horiz-adv-x="815" 
d="M655 1472h96q0 -47 -21.5 -91.5t-58.5 -75.5t-87.5 -43.5t-108.5 3.5q-181 66 -184 67q-46 13 -86 -13.5t-40 -77.5h-95q0 101 82.5 170t192.5 38q181 -66 184 -67q46 -13 86 13t40 77z" />
    <glyph glyph-name="hungarumlaut" unicode="&#x2dd;" horiz-adv-x="788" 
d="M245 1472h215l-259 -281h-133zM548 1472h214l-258 -281h-134z" />
    <glyph glyph-name="pi" unicode="&#x3c0;" horiz-adv-x="1007" 
d="M949 698h-112v-468q0 -22 14 -42q25 -37 98 -37v-152q-33 0 -59.5 3t-59.5 13t-61.5 32t-48.5 55q-35 57 -35 127v469h-379v-699h-151v699h-112v152h906v-152z" />
    <glyph glyph-name="gmacron" unicode="&#x1e21;" horiz-adv-x="1087" 
d="M846 1235h-609v121h609v-121zM1007 614q0 -107 -51 -198t-140 -150q86 -50 136 -125t50 -161q0 -97 -62 -179t-169 -130t-233 -48t-233 48t-169 130t-62 179q0 10 2 28h167q-2 -14 -2 -21q0 -78 90.5 -144t206.5 -66q140 0 218.5 63t78.5 147q0 86 -68 140t-224 57
q-126 3 -222 42.5t-150.5 103t-81 135.5t-26.5 149q0 90 37.5 172t100.5 141.5t150.5 94.5t183.5 35q105 0 197 -40l157 157l118 -117l-134 -134q134 -129 134 -309zM535 324q134 0 213.5 86.5t79.5 203.5t-79.5 203t-213.5 86q-135 0 -213.5 -86t-78.5 -203t78.5 -203.5
t213.5 -86.5z" />
    <glyph glyph-name="Wgrave" unicode="&#x1e80;" horiz-adv-x="1894" 
d="M1140 1546h-134l-258 281h215zM1677 1433h190l-333 -1433h-343l-244 1298l-244 -1298h-344l-332 1433h189l320 -1352l259 1352h304l259 -1352z" />
    <glyph glyph-name="wgrave" unicode="&#x1e81;" horiz-adv-x="1447" 
d="M920 1194h-133l-259 281h215zM1231 1056h190l-308 -1057h-176l-213 819l-213 -819h-176l-308 1057h190l206 -849l218 849h166l218 -849z" />
    <glyph glyph-name="Wacute" unicode="&#x1e82;" horiz-adv-x="1894" 
d="M1150 1827l-258 -281h-134l178 281h214zM1677 1433h190l-333 -1433h-343l-244 1298l-244 -1298h-344l-332 1433h189l320 -1352l259 1352h304l259 -1352z" />
    <glyph glyph-name="wacute" unicode="&#x1e83;" horiz-adv-x="1447" 
d="M927 1475l-259 -281h-133l177 281h215zM1231 1056h190l-308 -1057h-176l-213 819l-213 -819h-176l-308 1057h190l206 -849l218 849h166l218 -849z" />
    <glyph glyph-name="Wdieresis" unicode="&#x1e84;" horiz-adv-x="1894" 
d="M790 1625q-44 0 -75.5 26.5t-31.5 63.5t31.5 63t75.5 26t76 -26t32 -63t-32 -63.5t-76 -26.5zM1112 1625q-44 0 -75.5 26.5t-31.5 63.5t31.5 63t75.5 26t76 -26t32 -63t-32 -63.5t-76 -26.5zM1677 1433h190l-333 -1433h-343l-244 1298l-244 -1298h-344l-332 1433h189
l320 -1352l259 1352h304l259 -1352z" />
    <glyph glyph-name="wdieresis" unicode="&#x1e85;" horiz-adv-x="1447" 
d="M560 1229q-44 0 -76 26t-32 63t32 63.5t76 26.5t75.5 -26.5t31.5 -63.5t-31.5 -63t-75.5 -26zM881 1229q-44 0 -75.5 26t-31.5 63t31.5 63.5t75.5 26.5t76 -26.5t32 -63.5t-32 -63t-76 -26zM1231 1056h190l-308 -1057h-176l-213 819l-213 -819h-176l-308 1057h190
l206 -849l218 849h166l218 -849z" />
    <glyph glyph-name="uni1e9e" unicode="&#x1e9e;" horiz-adv-x="1249" 
d="M835 785q158 -44 256.5 -161.5t98.5 -263.5q0 -180 -126.5 -289.5t-334.5 -109.5q-63 0 -134.5 18.5t-96.5 36.5v170q28 -24 98 -49t133 -25q132 0 208 68t76 180q0 120 -99.5 208t-250.5 88v152l261 342q-44 58 -121 94.5t-173 36.5q-142 0 -242.5 -79.5t-100.5 -192.5
v-1008h-178v1008q0 116 69.5 213.5t189.5 154.5t262 57q166 0 299.5 -77t189.5 -200z" />
    <glyph glyph-name="Etilde" unicode="&#x1ebc;" horiz-adv-x="1236" 
d="M571 1656q-46 13 -86 -12.5t-40 -77.5h-95q0 47 21.5 91.5t58.5 75.5t87 43.5t108 -3.5q181 -66 184 -67q46 -13 86 13t40 78h96q0 -47 -21.5 -92t-59 -76t-87.5 -43.5t-108 3.5q-181 66 -184 67zM1178 1278h-876v-483h799v-154h-799v-484h876v-156h-1055v1433h1055v-156
z" />
    <glyph glyph-name="etilde" unicode="&#x1ebd;" horiz-adv-x="1099" 
d="M437 1265q-46 13 -86 -13t-40 -78h-96q0 47 21.5 92t59 76t87.5 43.5t108 -3.5q181 -66 184 -67q46 -13 86 12.5t40 77.5h95q0 -47 -21.5 -91.5t-58.5 -75.5t-87 -43.5t-108 3.5q-181 66 -184 67zM1031 530v-34h-790q9 -170 96.5 -267t213.5 -99q96 2 171.5 59.5
t111.5 163.5h178q-42 -178 -165 -276.5t-296 -100.5q-214 2 -347.5 149t-133.5 405q0 257 135.5 405t345.5 148t345 -148t135 -405zM250 639h601q-26 131 -108.5 209.5t-191.5 80.5q-109 -2 -192 -80.5t-109 -209.5z" />
    <glyph glyph-name="Ygrave" unicode="&#x1ef2;" horiz-adv-x="1267" 
d="M822 1545h-133l-259 281h215zM1060 1432h212l-549 -866v-567h-179v566l-550 867h212l427 -699z" />
    <glyph glyph-name="ygrave" unicode="&#x1ef3;" horiz-adv-x="1032" 
d="M720 1196h-133l-259 281h215zM823 1057h190l-502 -1295q-25 -56 -81 -97.5t-133 -41.5h-88v161h90q47 2 65 43l64 173l-410 1057h191l307 -850z" />
    <glyph glyph-name="Ytilde" unicode="&#x1ef8;" horiz-adv-x="1267" 
d="M518 1661q-47 13 -87 -12.5t-40 -77.5h-95q0 47 21.5 91.5t58.5 75.5t87 43.5t108 -3.5q181 -65 184 -66q46 -13 86 12.5t40 77.5h96q0 -47 -21.5 -92t-59 -75.5t-87.5 -43t-108 3.5q-180 65 -183 66zM1060 1432h212l-549 -866v-567h-179v566l-550 867h212l427 -699z" />
    <glyph glyph-name="ytilde" unicode="&#x1ef9;" horiz-adv-x="1032" 
d="M399 1265q-46 13 -86 -12.5t-40 -77.5h-95q0 47 21.5 91.5t58.5 75.5t87 43.5t108 -3.5q181 -65 184 -66q46 -13 86 12.5t40 77.5h96q0 -47 -21.5 -92t-59 -75.5t-87.5 -43t-108 3.5q-181 65 -184 66zM823 1057h190l-502 -1295q-25 -56 -81 -97.5t-133 -41.5h-88v161h90
q47 2 65 43l64 173l-410 1057h191l307 -850z" />
    <glyph glyph-name="endash" unicode="&#x2013;" horiz-adv-x="1142" 
d="M1073 426h-1003v152h1003v-152z" />
    <glyph glyph-name="emdash" unicode="&#x2014;" horiz-adv-x="1644" 
d="M1575 426h-1505v152h1505v-152z" />
    <glyph glyph-name="quotesinglbase" unicode="&#x201a;" horiz-adv-x="366" 
d="M111 213h182l-135 -471h-131z" />
    <glyph glyph-name="quoteleftreversed" unicode="&#x201b;" horiz-adv-x="448" 
d="M186 1434h179l-155 -574h-122z" />
    <glyph glyph-name="quotedblleft" unicode="&#x201c;" horiz-adv-x="782" 
d="M572 1434h122l-98 -574h-179zM84 860l155 574h122l-98 -574h-179z" />
    <glyph glyph-name="quotedblright" unicode="&#x201d;" horiz-adv-x="780" 
d="M88 860l98 574h179l-155 -574h-122zM519 1434h179l-155 -574h-122z" />
    <glyph glyph-name="quotedblbase" unicode="&#x201e;" horiz-adv-x="694" 
d="M441 213h182l-135 -471h-131zM27 -258l84 471h182l-135 -471h-131z" />
    <glyph glyph-name="dagger" unicode="&#x2020;" horiz-adv-x="1245" 
d="M690 1090h483v-140h-483v-1327h-138v1327h-480v140h480v480h138v-480z" />
    <glyph glyph-name="daggerdbl" unicode="&#x2021;" horiz-adv-x="1290" 
d="M1195 1191h-482v-954h482v-140h-482v-474h-137v474h-482v140h482v954h-482v140h482v481h137v-481h482v-140z" />
    <glyph glyph-name="bullet" unicode="&#x2022;" horiz-adv-x="620" 
d="M309 513q-93 0 -159 61t-66 147t66 146.5t159 60.5t159.5 -60.5t66.5 -146.5t-66.5 -147t-159.5 -61z" />
    <glyph glyph-name="ellipsis" unicode="&#x2026;" horiz-adv-x="1015" 
d="M190 -1q-48 0 -82 31.5t-34 75.5t34 75.5t82 31.5t81.5 -31.5t33.5 -75.5t-33.5 -75.5t-81.5 -31.5zM507 -1q-48 0 -81.5 31.5t-33.5 75.5t33.5 75.5t81.5 31.5t82 -31.5t34 -75.5t-34 -75.5t-82 -31.5zM825 -1q-48 0 -82 31.5t-34 75.5t34 75.5t82 31.5t82 -31.5
t34 -75.5t-34 -75.5t-82 -31.5z" />
    <glyph glyph-name="perthousand" unicode="&#x2030;" horiz-adv-x="2351" 
d="M1256 1374h157l-1036 -1413h-158zM715 1033q0 -167 -86 -261.5t-224 -95.5q-138 1 -224.5 95.5t-86.5 261.5q0 166 87.5 261.5t223.5 95.5t223 -95.5t87 -261.5zM219 1033q0 -108 48.5 -173t137.5 -66q89 1 137 66t48 173q0 105 -53 171t-132 68q-79 -2 -132.5 -68
t-53.5 -171zM1228 676q136 0 223 -96t87 -262q0 -167 -86 -261.5t-224 -95.5q-138 1 -224.5 95.5t-86.5 261.5q0 166 87.5 262t223.5 96zM1228 80q89 1 137 65.5t48 172.5q0 105 -53 171t-132 68q-79 -2 -132.5 -68t-53.5 -171q0 -108 48.5 -172.5t137.5 -65.5zM1949 676
q136 0 223 -96t87 -262q0 -167 -86 -261.5t-224 -95.5q-138 1 -224.5 95.5t-86.5 261.5q0 166 87.5 262t223.5 96zM1949 80q89 1 137 65.5t48 172.5q0 105 -53 171t-132 68q-79 -2 -132.5 -68t-53.5 -171q0 -108 48.5 -172.5t137.5 -65.5z" />
    <glyph glyph-name="guilsinglleft" unicode="&#x2039;" horiz-adv-x="700" 
d="M274 526l348 -407h-198l-344 407l345 413h192z" />
    <glyph glyph-name="guilsinglright" unicode="&#x203a;" horiz-adv-x="700" 
d="M275 939l345 -413l-344 -407h-198l348 407l-344 413h193z" />
    <glyph glyph-name="fraction" unicode="&#x2044;" horiz-adv-x="915" 
d="M704 1433h161l-650 -1433h-162z" />
    <glyph glyph-name="Euro" unicode="&#x20ac;" horiz-adv-x="1527" 
d="M843 159q133 0 238.5 88.5t154.5 242.5h185q-21 -104 -65.5 -188t-101.5 -139.5t-127.5 -92.5t-142 -53.5t-145.5 -16.5q-234 0 -385.5 143t-197.5 378h-166v114h151q-3 40 -3 82q0 41 3 82h-151v114h168q50 231 205.5 375.5t373.5 144.5q111 0 204 -27.5t158 -73.5
t113.5 -109.5t75.5 -133t39 -146.5h-182q-80 331 -402 331q-141 0 -248.5 -101.5t-154.5 -259.5h572v-114h-595q-5 -45 -5 -82q0 -46 4 -82h596v-114h-575q43 -160 148.5 -261t257.5 -101z" />
    <glyph glyph-name="uni20bf" unicode="&#x20bf;" horiz-adv-x="1341" 
d="M1009 765q81 -25 134 -85.5t72.5 -129t19.5 -146.5q0 -166 -118 -285t-285 -119h-42v-174h-114v174h-164v-174h-114v174h-275v1433h275v174h114v-174h164v174h114v-175q154 -11 265 -123.5t111 -277.5q0 -85 -42 -157.5t-115 -108.5zM301 1277v-451h462q94 0 158.5 61.5
t64.5 153.5q0 94 -66 165t-158 71h-461zM832 156q102 0 163 76.5t61 181.5q0 96 -67 176t-157 80h-531v-514h531z" />
    <glyph glyph-name="trademark" unicode="&#x2122;" horiz-adv-x="1566" 
d="M68 1356v80h572v-80h-242v-624h-88v624h-242zM1324 1436h140v-704h-88v597l-216 -597h-93l-216 597v-597h-88v704h141l210 -589z" />
    <glyph glyph-name="product" unicode="&#x220f;" horiz-adv-x="1251" 
d="M1148 1433v-152h-106l5 -1282h-152l-4 1282h-529v-1282h-152v1282h-110v152h1048z" />
    <glyph glyph-name="minus" unicode="&#x2212;" horiz-adv-x="1142" 
d="M1073 426h-1003v152h1003v-152z" />
    <glyph glyph-name="radical" unicode="&#x221a;" horiz-adv-x="1503" 
d="M1256 1472h191l-489 -1473h-293l-293 853l-256 -83l-48 148l424 139l49 -149l270 -833z" />
    <glyph glyph-name="approxequal" unicode="&#x2248;" horiz-adv-x="1253" 
d="M1145 815l11 10v-199q-80 -48 -161 -61q-164 -28 -382 72q-92 42 -165 57t-128 2t-91.5 -33.5t-80.5 -58.5l-52 -45v207q96 70 202 88q164 28 382 -72q92 -42 165 -57t128 -2t91.5 33.5t80.5 58.5zM680 366q92 -42 165 -57t128 -2t91.5 33.5t80.5 58.5l11 10v-200
q-80 -48 -161 -61q-162 -28 -382 73q-92 42 -165 57t-128 2t-91.5 -33.5t-80.5 -58.5l-52 -45v207q96 70 202 88q164 28 382 -72z" />
    <glyph glyph-name="notequal" unicode="&#x2260;" horiz-adv-x="1204" 
d="M741 628l-116 -253h479v-151h-548l-103 -224h-167l103 224h-289v151h358l116 253h-474v152h543l127 276h167l-127 -276h294v-152h-363z" />
    <glyph glyph-name="lessequal" unicode="&#x2264;" horiz-adv-x="1245" 
d="M1144 1305v-160l-983 -373l983 -363v-160l-1036 381v284zM1144 0h-1046v156h1046v-156z" />
    <glyph glyph-name="greaterequal" unicode="&#x2265;" horiz-adv-x="1245" 
d="M1136 914v-284l-1036 -381v160l984 363l-984 373v160zM1146 0h-1046v156h1046v-156z" />
    <glyph glyph-name="A.alt1" unicode="&#xf003;" horiz-adv-x="1298" 
d="M747 1433l540 -1433h-189l-158 430l-583 -1l-157 -429h-190l541 1433h196zM414 586h469l-234 641z" />
    <glyph glyph-name="M.alt1" unicode="&#xf004;" horiz-adv-x="1673" 
d="M1210 1433h339v-1433h-180v1362l-380 -1362h-306l-381 1362v-1362h-179v1433h339l374 -1344z" />
    <glyph glyph-name="N.alt1" unicode="&#xf005;" horiz-adv-x="1376" 
d="M1073 1433h179v-1433h-341l-609 1357v-1357h-179v1433l340 1l610 -1358v1357z" />
    <glyph glyph-name="Q.alt1" unicode="&#xf006;" horiz-adv-x="1529" 
d="M1462 717q0 -169 -60 -316.5t-170 -252.5l230 -230l-127 -126l-249 249q-148 -80 -330 -80q-204 0 -363.5 102t-244.5 273.5t-85 380.5t85 380.5t244.5 273.5t363.5 102q153 0 286 -59.5t224.5 -161.5t143.5 -241t52 -294zM756 127q109 0 202 42l-690 690
q-12 -69 -12 -142q0 -161 57.5 -293.5t173 -214.5t269.5 -82zM333 1048l774 -774q78 81 120.5 196.5t42.5 246.5q0 160 -61 293t-180 214.5t-273 81.5q-143 0 -251 -69t-172 -189z" />
    <glyph glyph-name="V.alt1" unicode="&#xf008;" horiz-adv-x="1265" 
d="M1068 1433h190l-528 -1433h-196l-528 1433h190l436 -1226z" />
    <glyph glyph-name="W.alt1" unicode="&#xf009;" horiz-adv-x="1865" 
d="M1654 1433h190l-377 -1433h-196l-339 1241l-339 -1241h-196l-377 1433h190l285 -1226l335 1226h204l335 -1226z" />
    <glyph glyph-name="ampersand.alt1" unicode="&#xf011;" horiz-adv-x="1359" 
d="M1061 289l239 -288h-233l-113 137q-165 -177 -404 -177q-197 0 -325.5 110t-128.5 290q0 47 10.5 89.5t23.5 74.5t41.5 67t48 55.5t61 51.5t62.5 45t69.5 45t66.5 42q-57 16 -100.5 51t-66 77t-33.5 81t-11 73q0 137 95 229t235 92q68 0 124 -22.5t91 -57t58.5 -78.5
t33 -83.5t9.5 -75.5q0 -50 -19.5 -98t-43.5 -80.5t-66 -70t-63.5 -53t-60.5 -42.5l-148 -102q-110 -75 -147 -111q-89 -85 -90 -189q0 -105 71.5 -178t173.5 -78q137 -6 240.5 65.5t156.5 193.5t57 274v7v6v8h180q0 -78 -25.5 -187.5t-68.5 -192.5zM597 1280
q-26 0 -51.5 -7.5t-52.5 -24.5t-43.5 -50.5t-16.5 -79.5q0 -16 4 -31q13 -55 55.5 -87.5t90.5 -36t95.5 22t69.5 77.5q12 27 12 55q0 43 -17 76.5t-43 51t-52.5 26t-50.5 8.5z" />
    <glyph glyph-name="ampersand.alt2" unicode="&#xf012;" horiz-adv-x="1359" 
d="M1061 289l239 -288h-233l-113 137q-165 -177 -404 -177q-197 0 -325.5 110t-128.5 290q0 79 22.5 142t76 117t91 82t116.5 80q8 5 12 8v0q-146 172 -146 323q0 137 95 229t235 92q68 0 124 -22.5t91 -57t58.5 -78.5t33 -83.5t9.5 -75.5q0 -50 -19.5 -98t-43.5 -80.5
t-66 -70t-63.5 -53t-60.5 -42.5l279 -336q35 97 35 232h180q0 -78 -25.5 -187.5t-68.5 -192.5zM597 1280q-26 0 -51.5 -7.5t-52.5 -24.5t-43.5 -50.5t-16.5 -79.5q0 -15 4.5 -31.5t10 -30.5t17.5 -34t19 -31t23.5 -32.5t22 -28.5t23.5 -28t19 -23q24 17 47.5 35.5t59.5 53
t58.5 74t22.5 76.5q0 43 -17 76.5t-43 51t-52.5 26t-50.5 8.5zM521 115q98 -4 185 38t142 113l-335 405q-110 -75 -147 -111q-89 -85 -90 -189q0 -105 71.5 -178t173.5 -78z" />
    <glyph glyph-name="R.alt1" unicode="&#xf017;" horiz-adv-x="1323" 
d="M1029 706q71 -10 133 -87t62 -192v-427h-179v402q0 91 -64.5 147.5t-159.5 56.5h-519v-606h-179v1434l698 -1q116 0 210 -58t143.5 -150t49.5 -196q0 -109 -50 -194t-145 -129zM780 763q132 0 198.5 75t66.5 179q0 119 -65 189.5t-160 70.5h-518v-514h478z" />
    <glyph glyph-name="R.alt2" unicode="&#xf018;" horiz-adv-x="1337" 
d="M1235 179h56v-179h-43q-100 0 -189 46t-146 128l-303 433h-308v-607h-179v1434h698q118 0 212 -60t142.5 -152t48.5 -193q0 -175 -102.5 -287t-307.5 -132l241 -344q28 -40 78 -63.5t102 -23.5zM302 763h519q91 0 157.5 74.5t66.5 169.5q0 103 -61.5 175t-162.5 72h-519
v-491z" />
    <glyph glyph-name="g.alt1" unicode="&#xf019;" horiz-adv-x="1075" 
d="M782 1057h179v-1038q0 -57 -11 -109.5t-39.5 -106t-72 -92.5t-113.5 -63.5t-159 -24.5q-79 0 -144 21t-104 49.5t-69 68.5t-42.5 68t-21.5 58h200q6 -13 15 -26t29.5 -34.5t56 -35t80.5 -13.5t80.5 14.5t57.5 35t38 55t23.5 61.5t11.5 69.5t4.5 63t0.5 56.5
q-36 -67 -112.5 -113t-156.5 -46q-121 0 -224 72.5t-163 197t-60 271.5t60 271.5t163 197t224 72.5q82 0 158 -34.5t111 -99.5v134zM513 128q118 0 193.5 98t75.5 290t-75.5 290t-193.5 98q-111 0 -189.5 -113t-78.5 -275t78.5 -275t189.5 -113z" />
    <glyph glyph-name="v.alt1" unicode="&#xf01a;" horiz-adv-x="1032" 
d="M823 1057h190l-410 -1057h-175l-410 1057h191l307 -850z" />
    <glyph glyph-name="w.alt1" unicode="&#xf01b;" horiz-adv-x="1462" 
d="M1262 1057h160l-232 -1057h-291l-170 957l-170 -957h-279l-245 1057h160l223 -997l181 997h259l181 -997z" />
    <glyph glyph-name="a.alt1" unicode="&#xf01c;" 
d="M510 1083q73 0 141.5 -18.5t126.5 -53.5t93 -94t35 -133v-783h-180v324q0 -82 -18.5 -146t-47 -101.5t-67 -61t-74 -32t-72.5 -8.5q-160 0 -272 99.5t-112 249.5q0 157 114 253t282 96h160q47 0 78.5 34.5t28.5 84.5q-8 134 -216 134q-67 0 -119 -28t-75 -81h-187
q25 80 70.5 135.5t101.5 82t105.5 37t103.5 10.5zM726 325v232q-70 -26 -138 -26h-129q-88 0 -152 -51t-64 -155q0 -83 59 -138.5t157 -55.5q103 0 185 57.5t82 136.5z" />
    <glyph glyph-name="a.alt2" unicode="&#xf01d;" 
d="M510 1083q73 0 141.5 -18.5t126.5 -53.5t93 -94t35 -133v-783h-180v158q-9 -27 -28 -55t-50 -57.5t-81 -49t-110 -21.5q-93 -3 -170 27t-124.5 81t-73.5 113.5t-26 127.5q0 155 113 252q-56 150 -25 267t136 184q93 55 223 55zM316 818q-33 -75 -1 -165q67 21 144 21h160
q47 0 78.5 34.5t28.5 84.5q-8 134 -216 134q-66 0 -118 -27.5t-75 -80.5zM726 325v232q-70 -26 -138 -26h-129q-88 0 -152 -51t-64 -155q0 -83 59 -138.5t157 -55.5q103 0 185 57.5t82 136.5z" />
    <glyph glyph-name="a.alt3" unicode="&#xf01e;" horiz-adv-x="1003" 
d="M739 1083q64 0 108 -45.5t44 -107.5v-929h-179v158q-9 -27 -28 -55t-50.5 -57.5t-81.5 -49t-110 -21.5q-93 -3 -170 27t-124.5 81t-73 113.5t-25.5 127.5q0 157 114 253t282 96h159q45 0 76 31.5t32 77.5v144h-484v156h511zM712 325v232q-70 -26 -138 -26h-129
q-89 0 -153 -51t-64 -155q0 -83 59.5 -138.5t157.5 -55.5q103 0 185 57.5t82 136.5z" />
    <glyph glyph-name="a.alt4" unicode="&#xf01f;" horiz-adv-x="1077" 
d="M906 153h132v-152h-164q-70 0 -108.5 45t-39.5 107v6q-9 -27 -28 -55t-50 -57.5t-81 -49t-110 -21.5q-93 -3 -170 27t-124.5 81t-73.5 113.5t-26 127.5q0 157 114 253t282 96h160q47 0 78.5 34.5t28.5 84.5q-8 134 -216 134q-67 0 -119 -28t-75 -81h-187
q25 80 70.5 135.5t101.5 82t105.5 37t103.5 10.5q73 0 141.5 -18.5t126.5 -53.5t93 -94t35 -133v-631zM459 131q103 0 185 57.5t82 136.5v232q-70 -26 -138 -26h-129q-88 0 -152 -51t-64 -155q0 -83 59 -138.5t157 -55.5z" />
    </font>
</defs>
</svg>
