<svg width="263" height="263" xmlns="http://www.w3.org/2000/svg"><g fill="none" fill-rule="evenodd"><circle fill="#82CC31" cx="131.5" cy="131.5" r="131.5"/><path d="M162.063 90.031v12.419h-12.626v9.853c18.5 7.374 31.563 25.187 31.563 46.02C181 185.76 158.389 208 130.5 208c-27.893 0-50.5-22.24-50.5-49.677 0-20.835 13.063-38.648 31.563-46.02v-9.853H98.937V90.03h63.126zm-19.817 47.188l-11.746 11.76-11.708-11.76-8.257 8.255 11.746 11.8-11.746 11.799 8.257 8.255 11.708-11.76 11.746 11.76 8.22-8.255-11.709-11.8 11.708-11.799-8.219-8.255zM150.466 57v18.875h-39.931V57h39.93z" fill="#253F09" fill-rule="nonzero"/></g></svg>