<svg width="112" height="112" xmlns="http://www.w3.org/2000/svg"><g fill="none" fill-rule="evenodd"><circle cx="55.849" cy="55.849" r="55.849" fill="#82CC31"/><path d="M57.742 23.139l24.641 8.214c.656.218 1.097.83 1.097 1.522v26.55c0 8.553-4.315 15.185-9.544 20.04-6.437 5.977-14.23 9.221-16.53 10.097l-.199.075c-.213.08-.358.13-.426.154l-.04.014-.004.002c-.28.094-.578.11-.863.047l-.17-.047s-9.555-3.244-17.199-10.343c-5.229-4.854-9.544-11.486-9.544-20.039v-26.55c0-.691.441-1.304 1.097-1.522l24.64-8.214a4.82 4.82 0 013.044 0zM62.875 46h-13.75v2.842h2.75v2.255l-.267.116C47.72 52.966 45 56.968 45 61.63 45 67.91 49.924 73 56 73c6.075 0 11-5.09 11-11.37 0-4.768-2.845-8.845-6.875-10.533v-2.255h2.75V46zM60 39h-8v4h8v-4z" fill="#253F09"/></g></svg>