<svg width="112" height="112" viewBox="0 0 112 112" xmlns="http://www.w3.org/2000/svg"><title>Group 10</title><g fill="none" fill-rule="evenodd"><circle cx="55.849" cy="55.849" r="55.849" fill="#7FCF8D"/><g fill="#113C18" fill-rule="nonzero"><path d="M66 85.81c0-1.208-.966-2.188-2.159-2.188h-3.009s-2.118-.003-2.678-1.913l-.037-2.293c.275-1.882 1.604-2.56 1.604-2.56l5.562-4.91c.654-.53-.131-1.724-.131-1.724-.785-.928-1.963-.331-1.963-.331s-1.505 1.326-2.486 1.857c-1.633.883-2.408-.49-2.737-1.45L57.76 57.81c.309-1.406 1.567-2.048 1.567-2.048l5.562-4.908c.655-.531-.131-1.725-.131-1.725-.786-.929-1.963-.332-1.963-.332s-1.505 1.327-2.487 1.858c-2.392 1.293-2.682-2.322-2.682-2.322l.015 2.258-.211-12.772c0-1.557-.46-2.819-1.996-2.819-1.535 0-1.995 1.262-1.995 2.82l-.345 20.863c-.127.481-.992 3.374-3.19 2.187-.98-.53-2.486-1.857-2.486-1.857s-1.178-.597-1.962.332c0 0-.786 1.193-.131 1.724l5.561 4.908s1.7.657 2.047 2.472l-.213 12.935v-.747c0 2.892-2.137 2.986-2.446 2.985h-.04.01-3.085c-1.193 0-2.159.98-2.159 2.19C45 87.02 45.966 88 47.159 88h16.683C65.034 88 66 87.02 66 85.81z"/><path d="M55.415 30.564c5.206 0 5.205 3.76 5.205 3.76 0 2.872 2.57 2.801 2.57 2.801h2.124C68.032 37.123 68 34.393 68 34.393v-2.188c-.066-2.735-2.507-2.8-2.507-2.8-2.9.002-1.908-1.371-2.896-2.738C60.688 24.027 55.348 24 55.348 24 44.74 24 44.871 34.803 44.871 34.803c0 2.94-3.295 3.008-3.295 3.008-2.833 0-2.57 2.598-2.57 2.598v4.855c0 2.871 2.636 2.735 2.636 2.735h4.744c2.966 0 2.636-2.667 2.636-2.667v-8.751c.001-6.975 6.393-6.017 6.393-6.017zM69.517 50.088c-.069 3.207-1.77 3.977-2.69 4.21-.76.191-1.042.994-1.034 1.403.012.76.558 1.258.965 1.27 2.483.066 10.484 0 10.484 0 2.827 0 2.69-2.607 2.69-2.607L80 52.16c-.068-2.472-2.758-2.606-2.758-2.606h-2.138c-2.827 0-2.827-2.673-2.827-2.673l-.07-3.14c0-2.673-2.69-2.74-2.69-2.74l-4.896.067c-2.69 0-2.62 2.271-2.62 2.271 0 1.872 2.482 2.005 2.482 2.005h2.344c2.76.735 2.69 3.676 2.69 3.676v1.069zM79.306 69.553h-1.01c-2.76 0-2.76-2.673-2.76-2.673l-.069-3.14c0-2.673-2.626-2.74-2.626-2.74l-8.282.067c-2.627 0-2.559 2.272-2.559 2.272 0 1.87 2.424 2.005 2.424 2.005h2.29c2.693.735 2.626 3.675 2.626 3.675v1.069c-.067 3.207-1.728 3.978-2.626 4.21-.742.192-1.018.995-1.01 1.403.013.761.545 1.259.943 1.27 2.424.066 12.66 0 12.66 0 2.76 0 2.625-2.606 2.625-2.606L82 72.159c-.068-2.472-2.694-2.606-2.694-2.606zM47.845 68.39v-1.669c-.067-2.203-2.56-2.433-2.56-2.433-.898-.232-2.558-1.001-2.626-4.207v-1.068s-.067-2.938 2.627-3.672h2.29S50 55.207 50 53.337c0 0 .066-2.27-2.56-2.27L39.158 51s-2.627.067-2.627 2.737l-.067 3.139s0 2.67-2.76 2.67h-1.01s-2.627.134-2.694 2.605l.068 6.21s-.136 2.603 2.625 2.603c0 0 10.236.081 12.66 0 2.894-.095 2.492-2.573 2.492-2.573z"/></g></g></svg>