<svg width="112" height="112" xmlns="http://www.w3.org/2000/svg"><g fill="none" fill-rule="evenodd"><circle cx="55.849" cy="55.849" r="55.849" fill="#75CFC5"/><g fill="#05403A" fill-rule="nonzero"><path d="M27.544 65.833l18.635 18.623a5.283 5.283 0 0 0 7.465 0l23.362-23.35a2.96 2.96 0 0 0 .69-1.23l4.229-12.413a2.652 2.652 0 0 0-.698-2.494L71.024 34.746c-1.482 1.587-2.503 3.34-2.939 4.98 3.251.617 5.058 3.961 3.968 6.952l-.009.01c-1.212 3.549-5.886 4.735-8.677 1.944a5.268 5.268 0 0 1-.793-6.411c-.354-3.818 1.85-8.19 4.648-11.156l.06-.061-.252-.236a2.618 2.618 0 0 0-2.485-.689l-12.41 4.23c-.462.114-.89.367-1.23.69L27.545 58.367a5.286 5.286 0 0 0 0 7.466zM47.46 50.586c.48-.48 1.265-.48 1.744 0l12.209 12.212a1.23 1.23 0 0 1 0 1.744c-.48.48-1.256.489-1.744 0L47.46 52.331a1.237 1.237 0 0 1 0-1.745zm-5.014 5.016c.48-.48 1.264-.48 1.744 0L56.4 67.813a1.23 1.23 0 0 1 0 1.745c-.48.48-1.256.488-1.744 0l-12.21-12.212a1.237 1.237 0 0 1 0-1.744zm-5.014 5.015c.48-.48 1.264-.48 1.744 0L51.385 72.83a1.23 1.23 0 0 1 0 1.744c-.48.48-1.255.489-1.744 0L37.433 62.362a1.237 1.237 0 0 1 0-1.745z"/><path d="M82.544 41.263c3.89-4.748 4.626-10.353 1.545-13.385-3.08-3.032-8.766-2.298-13.598 1.52-6.152 4.845-9.52 14.428-2.793 17.602 1.225-.167 2.102-1.048 2.317-2.104-6.068-.975-3.004-9.336 2.407-13.597 3.61-2.722 7.778-3.465 9.745-1.529 1.967 1.936 1.213 6.038-1.554 9.592l1.931 1.9z"/></g></g></svg>