<svg width="112" height="112" viewBox="0 0 112 112" xmlns="http://www.w3.org/2000/svg"><title>Group 5</title><g fill="none" fill-rule="evenodd"><circle fill="#58ACF1" cx="55.849" cy="55.849" r="55.849"/><path d="M80.293 64.075c-.088-.03-.18-.05-.27-.064l-5.206-.813c.017-.299.045-.594.045-.897 0-.952-.099-1.88-.26-2.785l5.421-.847c.09-.015.182-.034.27-.064.194-.06 4.707-1.547 4.707-8.151a1.89 1.89 0 0 0-1.885-1.893 1.89 1.89 0 0 0-1.884 1.893c0 3.356-1.59 4.32-1.983 4.507l-5.77.9a15.775 15.775 0 0 0-1.572-2.733c2.937-1.305 6.097-3.931 6.097-8.49v-9.002c1.885-.286 3.347-1.03 4.344-2.243 1.706-2.073 1.289-4.576 1.235-4.855-.194-1.027-1.186-1.71-2.207-1.5a1.892 1.892 0 0 0-1.494 2.215c.002.01.14 1.028-.44 1.73-.684.833-2.157 1.008-3.268 1.008-1.112 0-2.59-.175-3.318-1.013-.638-.732-.513-1.772-.513-1.772a1.895 1.895 0 0 0-1.551-2.178 1.88 1.88 0 0 0-2.17 1.557c-.044.279-.395 2.762 1.338 4.817 1.001 1.186 2.436 1.93 4.275 2.226v9.01c0 3.597-3.458 5.013-5.105 5.49a15.78 15.78 0 0 0-1.818-1.28c1.155-1.04 1.897-2.533 1.897-4.21 0-3.129-2.538-5.677-5.654-5.677-3.117 0-5.655 2.548-5.655 5.678 0 .666.137 1.297.348 1.892h-4.465a5.628 5.628 0 0 0 .348-1.892c0-3.13-2.538-5.678-5.654-5.678-3.117 0-5.654 2.548-5.654 5.678 0 1.676.742 3.17 1.897 4.21-.693.425-1.356.893-1.973 1.418-1.502-.15-4.95-.867-4.95-4.367V35.807c0-.026-.015-.048-.016-.075 2.489-.107 4.387-.871 5.594-2.334 1.705-2.073 1.288-4.579 1.234-4.86-.191-1.015-1.15-1.663-2.174-1.49-1.014.18-1.696 1.158-1.532 2.178 0 .01.16 1.06-.451 1.781-.69.814-2.14.984-3.235.984-1.102 0-2.57-.175-3.295-1.008-.639-.732-.513-1.78-.513-1.78a1.894 1.894 0 0 0-1.554-2.175c-1.013-.175-1.995.527-2.167 1.56-.044.276-.395 2.767 1.34 4.822.77.912 1.826 1.53 3.096 1.916-.042.157-.097.31-.097.481V45.9c0 4.47 2.928 6.673 5.815 7.611a15.78 15.78 0 0 0-1.29 2.35l-5.772-.9c-.456-.217-2.01-1.2-2.01-4.507a1.89 1.89 0 0 0-1.884-1.893A1.89 1.89 0 0 0 27 50.454c0 6.606 4.528 8.092 4.72 8.153.088.028.178.047.27.062l5.438.847c-.162.906-.26 1.833-.26 2.785 0 .303.028.598.045.896l-5.224.814c-.09.015-.181.035-.27.062-.191.061-4.719 1.547-4.719 8.153a1.89 1.89 0 0 0 1.885 1.893 1.89 1.89 0 0 0 1.884-1.893c0-3.358 1.6-4.32 1.993-4.504l5.098-.795a15.768 15.768 0 0 0 3.061 5.58c-2.828.998-5.638 3.262-5.638 7.772v2.829A1.89 1.89 0 0 0 37.167 85a1.89 1.89 0 0 0 1.885-1.892v-2.83c0-4.208 4.437-4.612 5.462-4.65a15.547 15.547 0 0 0 8.36 2.443h6.282c3.075 0 5.938-.905 8.363-2.445 1.017.03 5.458.394 5.458 4.653v2.829A1.89 1.89 0 0 0 74.862 85a1.89 1.89 0 0 0 1.885-1.892v-2.83c0-4.509-2.81-6.773-5.639-7.772a15.768 15.768 0 0 0 3.062-5.579l5.063.79c.454.22 1.998 1.203 1.998 4.51a1.89 1.89 0 0 0 1.884 1.892A1.89 1.89 0 0 0 85 72.226c0-6.603-4.513-8.092-4.707-8.15zm-16.74-21.329a1.892 1.892 0 0 1 0 3.785 1.892 1.892 0 0 1 0-3.785zm-15.077 0a1.892 1.892 0 0 1 0 3.785 1.892 1.892 0 0 1 0-3.785zm4.397 31.54c-6.581 0-11.936-5.376-11.936-11.985 0-3.459 1.488-6.555 3.83-8.744l.019-.016c2.13-1.985 4.959-3.225 8.087-3.225h6.283c3.168 0 6.033 1.266 8.172 3.295.032.028.063.053.096.08 2.253 2.18 3.669 5.227 3.669 8.61 0 6.609-5.355 11.985-11.937 11.985h-6.283z" fill="#0C3150" fill-rule="nonzero"/></g></svg>