<svg width="112" height="112" xmlns="http://www.w3.org/2000/svg"><g fill="none" fill-rule="evenodd"><circle fill="#B4A6CD" cx="55.849" cy="55.849" r="55.849"/><path d="M56 39a6 6 0 110-12 6 6 0 010 12zm-5.986-1.163C48.45 37.207 36.187 35 34.754 35c-1.433 0-13.551 4.341-13.56 4.347a2.707 2.707 0 00-1.555 1.765 2.693 2.693 0 00.42 2.31 2.72 2.72 0 002.077 1.112c.273.012 11.461-3.837 12.624-3.808 1.164.03 5.94 1.843 5.94 1.843L11.935 79.003a3.575 3.575 0 00.44 5.23 3.616 3.616 0 005.21-.807L27.63 70.882l.088-.101 7.546-8.676 6.574 5.642s-9.027 7.217-9.164 7.341l-.03.026a3.577 3.577 0 00-.08 5.177 3.61 3.61 0 002.63 1.035 3.608 3.608 0 002.57-1.174l11.74-9.44a3.566 3.566 0 00.51-5.306l-7.16-8.142 9.666-8.805 10.044 6.575s.811.496 1.52.461c1.499-.074 2.717-1.21 2.717-2.705 0 0 1.198-13.85 1.198-13.992a2.703 2.703 0 00-1.379-2.282 2.73 2.73 0 00-2.675 0 2.703 2.703 0 00-1.379 2.282l-.715 9.287S51.589 38.467 50.02 37.837h-.007z" fill="#3C1C79" fill-rule="nonzero" opacity=".146"/><path d="M77 39a6 6 0 110-12 6 6 0 010 12zm-5.986-1.163C69.45 37.207 57.187 35 55.754 35c-1.433 0-13.551 4.341-13.56 4.347a2.707 2.707 0 00-1.555 1.765 2.693 2.693 0 00.42 2.31 2.72 2.72 0 002.077 1.112c.273.012 11.461-3.837 12.624-3.808 1.164.03 5.94 1.843 5.94 1.843L32.935 79.003a3.575 3.575 0 00.44 5.23 3.616 3.616 0 005.21-.807L48.63 70.882l.088-.101 7.546-8.676 6.574 5.642s-9.027 7.217-9.164 7.341l-.03.026a3.577 3.577 0 00-.08 5.177 3.61 3.61 0 002.63 1.035 3.608 3.608 0 002.57-1.174l11.74-9.44a3.566 3.566 0 00.51-5.306l-7.16-8.142 9.666-8.805 10.044 6.575s.811.496 1.52.461c1.499-.074 2.717-1.21 2.717-2.705 0 0 1.198-13.85 1.198-13.992a2.703 2.703 0 00-1.379-2.282 2.73 2.73 0 00-2.675 0 2.703 2.703 0 00-1.379 2.282l-.715 9.287S72.589 38.467 71.02 37.837h-.007z" fill="#3C1C79" fill-rule="nonzero"/></g></svg>