<svg width="112" height="112" xmlns="http://www.w3.org/2000/svg"><g fill="none" fill-rule="evenodd"><circle cx="55.849" cy="55.849" r="55.849" fill="#FFE9FD"/><path d="M72.903 58.384v-.87H55.112V34.919L37.286 45.296v12.218h17.827v21.189c4.98-.737 9.15-3.013 12.515-6.83 3.407-3.837 5.167-8.334 5.277-13.49h-.002zM55.518 26L81 40.734l-.034.067v17.366c-.11 7.223-2.605 13.49-7.48 18.8-4.877 5.266-10.867 8.278-17.968 9.033-7.104-.755-13.094-3.766-17.97-9.033-4.876-5.31-7.381-11.577-7.514-18.8V40.801L30 40.734 55.518 26z" fill="#AF29A1" fill-rule="nonzero"/></g></svg>