<svg width="112" height="112" viewBox="0 0 112 112" xmlns="http://www.w3.org/2000/svg"><title>Group 3</title><g fill-rule="nonzero" fill="none"><circle fill="#E04E39" cx="56" cy="56" r="56"/><path d="M96.83 46.812c-13.257-5.46-28.73-1.897-33.555 1.678-3.392 2.516-5.435 3.202-6.503 3.361h-.005v.001a3.786 3.786 0 0 1-.267.031 3.786 3.786 0 0 1-.266-.03v-.003h-.006c-1.068-.16-3.11-.845-6.502-3.36-4.826-3.575-20.299-7.14-33.555-1.679 0 0-.931 3.462 1.553 5.04 2.483 1.57 1.553 8.5 3.728 13.224C23.632 69.8 25.802 72 35.432 72s15.11-3.406 16.468-8.814c1.263-5.029 2.08-6.36 4.6-6.8 2.52.44 3.337 1.771 4.6 6.8C62.458 68.595 67.938 72 77.568 72c9.631 0 11.802-2.2 13.98-6.925 2.176-4.724 1.245-11.654 3.728-13.225 2.484-1.576 1.553-5.038 1.553-5.038zM48.972 57.065c-.464 6.259-5.88 12.518-13.464 11.892 0 0-11.458.784-12.386-9.39-.928-10.173 3.407-12.989 12.074-12.518 8.669.47 14.243 3.752 13.776 10.016zm40.904 2.5c-.928 10.176-12.386 9.392-12.386 9.392-7.583.626-13-5.633-13.464-11.892-.467-6.264 5.107-9.546 13.776-10.016 8.667-.47 13.002 2.345 12.074 12.517z" fill="#682218"/></g></svg>