<svg width="112" height="112" viewBox="0 0 112 112" xmlns="http://www.w3.org/2000/svg"><title>Group 12</title><g fill="none" fill-rule="evenodd"><circle cx="55.849" cy="55.849" r="55.849" fill="#E3CC09"/><g fill="#433D07" fill-rule="nonzero"><path d="M41 50h4l-2.003-7z"/><path d="M48.333 28H33.095C29.73 28 27 30.78 27 34.21V87l18.286-18.632H59L48.333 28zm-2.925 25.618h-6.332l-1.41 4.658H34.62l6.095-20.184h3.048l6.095 20.184H46.81l-1.402-4.658zM81.833 28H51l10.792 40h20.041C85.24 68 88 65.245 88 61.846V34.154C88 30.755 85.24 28 81.833 28zM71.042 38h3.083v3.077h-3.083V38zm9.25 20a20.703 20.703 0 0 1-8.202-1.615A16.826 16.826 0 0 1 64.875 58v-3.077a13.825 13.825 0 0 0 3.854-.538c-2.382-1.893-3.854-4.377-3.854-7.154h3.083c0 2.215 1.604 4.238 4.101 5.661a10.412 10.412 0 0 0 5.15-8.738H64.874v-3.077h15.417v3.077a13.182 13.182 0 0 1-4.91 10.1c1.597.448 3.25.673 4.91.67V58z"/></g></g></svg>