<svg width="112" height="112" xmlns="http://www.w3.org/2000/svg"><g fill="none" fill-rule="evenodd"><circle cx="55.849" cy="55.849" r="55.849" fill="#6BB10A"/><g fill="#233C00" fill-rule="nonzero"><path d="M38.79 83.59c.062.786.72 1.397 1.519 1.41h30.382a1.541 1.541 0 0 0 1.52-1.41L73 70H38l.79 13.59zM65.98 50v1.417c0 .782-.67 1.416-1.497 1.416h-5.989c-.826 0-1.497-.634-1.497-1.416V50H34l1.048 17h40.904L77 50H65.98zM67.83 27H66.35v-1.5c0-.828-.662-1.5-1.479-1.5a1.49 1.49 0 0 0-1.478 1.5V27H44.17c-1.873.014-3.538 1.212-4.17 3h32c-.632-1.788-2.297-2.986-4.17-3zM60 50h3v-3.603L61.5 45 60 46.397zM57 47v-1.5a1.41 1.41 0 0 1 .45-1.05L60 41.87V32H37.503a1.44 1.44 0 0 0-1.08.48 1.41 1.41 0 0 0-.42 1.11l.78 13.41H57zM63 41.87l2.55 2.58c.29.27.454.652.45 1.05V47h8.217l.78-13.41a1.41 1.41 0 0 0-.42-1.11 1.44 1.44 0 0 0-1.08-.48H63v9.87z"/></g></g></svg>