<svg width="48" height="48" viewBox="0 0 48 48" fill="none" xmlns="http://www.w3.org/2000/svg">
<style>
    @media (prefers-color-scheme: dark) {
      path {
        fill: white;
      }
    }
  </style>
<path fill-rule="evenodd" clip-rule="evenodd" d="M35.4988 13.9033C36.2885 13.9033 36.9288 14.5435 36.9288 15.3333V41.2899H44.4688V15.3333C44.4688 10.3793 40.4527 6.36328 35.4988 6.36328H35.3227C30.6104 6.36328 26.7016 10.0095 26.3743 14.7104L25.0686 33.4674C25.0304 34.017 24.5734 34.4433 24.0225 34.4433H23.9158C23.3657 34.4433 22.909 34.0181 22.8698 33.4694L20.9823 7.05661H3.47542V41.2899H11.0154V14.5966H13.9619L15.349 34.0068C15.6702 38.5012 19.41 41.9833 23.9158 41.9833H24.0225C28.5344 41.9833 32.2771 38.4921 32.5904 33.991L33.8961 15.234C33.9483 14.4846 34.5715 13.9033 35.3227 13.9033H35.4988Z" fill="#050307"/>
</svg>
