<svg width="112" height="112" viewBox="0 0 112 112" xmlns="http://www.w3.org/2000/svg"><title>Group 9</title><g fill="none" fill-rule="evenodd"><circle cx="55.849" cy="55.849" r="55.849" fill="#F25555"/><g fill="#410505" fill-rule="nonzero"><path d="M38.59 45.782c.763 2.112 2.826 3.626 5.252 3.626 1.806 0 3.412-.84 4.429-2.141a5.415 5.415 0 0 0 3.445 2.066C52.4 52.013 54.883 54 57.84 54c2.68 0 4.968-1.629 5.885-3.927a6.034 6.034 0 0 0 2.185.406c2.808 0 5.16-1.906 5.774-4.465.64.215 1.324.333 2.04.333 3.465 0 6.275-2.741 6.275-6.122 0-3.359-2.772-6.085-6.205-6.122-.873-2.16-3.03-3.69-5.551-3.69-2.519 0-4.671 1.523-5.548 3.675a6.276 6.276 0 0 0-1.681-.615c0-.07.005-.142.005-.213 0-5.114-4.25-9.26-9.491-9.26-5.105 0-9.267 3.933-9.48 8.864a7.092 7.092 0 0 0-3.068-.693c-3.856 0-6.981 3.05-6.981 6.811-.001 3.635 2.916 6.603 6.59 6.8z"/><path d="M65.77 51.57c-.316 0-.63-.022-.942-.062-1.527 2.4-4.022 3.865-6.782 3.865-3.349 0-6.307-2.19-7.607-5.479a7.171 7.171 0 0 1-1.57-.894 7.051 7.051 0 0 1-4.227 1.411c-.187 0-.372-.01-.558-.025a4.456 4.456 0 0 0-.084.86c0 2.242 1.652 4.06 3.688 4.06.023 0 .044-.003.066-.003a5.52 5.52 0 0 0-.066.82c0 2.694 1.983 4.877 4.43 4.877 2.068 0 3.801-1.564 4.287-3.674.1-.027.199-.053.298-.086.327 2.135 2.009 3.76 4.04 3.76 2.266 0 4.103-2.022 4.103-4.517 0-.19-.013-.379-.035-.563.37.096.756.151 1.153.151 2.78 0 5.036-2.482 5.036-5.543 0-.353-.032-.698-.089-1.033-1.393 1.304-3.191 2.075-5.14 2.075zM64.633 77.877c-2.7.522-5.743.8-8.905.8-3.163 0-6.208-.278-8.906-.802-2.788 3.02-6.594 4.632-6.594 4.632 0 3.034 6.94 5.493 15.5 5.493 8.56 0 15.5-2.458 15.5-5.493 0 0-3.806-1.612-6.595-4.63zM56.159 74.5c2.24 0 4.444-.155 6.458-.447-.792-2.732-1.337-7.061-1.702-11.07-.29.039-.589.063-.892.063a6.501 6.501 0 0 1-3.805-1.202 6.814 6.814 0 0 1-4.815 1.136c-.365 4.01-.911 8.34-1.703 11.073 2.015.292 4.219.447 6.459.447z"/><path d="M62.508 65c.146.968.307 1.88.48 2.702 1.284.231 2.48.524 3.554.878 2.752.908 3.68 1.88 3.844 2.184-.163.304-1.091 1.277-3.844 2.183-2.866.945-6.608 1.466-10.541 1.466-3.932 0-7.675-.52-10.542-1.466-2.752-.906-3.682-1.879-3.845-2.183.163-.305 1.093-1.276 3.845-2.184a26.22 26.22 0 0 1 3.552-.878A45.95 45.95 0 0 0 49.493 65C43.333 65.938 39 68.164 39 70.763 39 74.208 46.61 77 56 77s17-2.791 17-6.237c.001-2.6-4.332-4.826-10.492-5.763z"/></g></g></svg>