<svg xmlns="http://www.w3.org/2000/svg" viewBox="0 0 164 66"><g fill="none" fill-rule="evenodd" stroke="#000" stroke-linejoin="round" stroke-width=".9"><path d="M79.18-96.735L19.16-68.293 5.08-38.1 1 19.34l30.72 39.19 68.84 6.57 52.14-34.82 10.22-27.682-6.42-19.652-4.12-36.453-24.32-27.662z"/><path d="M100.56 65.1L121 33.57l31.7-3.289-40.14-40.87 39.82-42.916-36.02-5.721 11.7-21.943-36.38 5.58-18.94 45.9 16.2 34.818 11.62 59.97-37.5-12.716-31.34 6.147.36-23.865 13.76-5.48-.678-27.345L1 19.34l11.9-36.772 6.26-50.862 19.22 29.338 7.52-32.089 33.28-25.69 12.5 21.146 24.68 16.363-43.62 29.537M1 19.34l31.08 15.325"/><path d="M100.56 65.1L45.162 1.84 88.94 5.13l23.62-15.717 43.94-6.465M46 29.077l17.1 23.415M18.914-69.031l26.543-2.754L72.1-30.395 37.992-39.67l6.733 40.83L12.7-18.127"/><path d="M73-30.36l40.1 19.035 8.5 44.005"/></g></svg>