<svg width="112" height="112" viewBox="0 0 112 112" xmlns="http://www.w3.org/2000/svg"><title>Group</title><g fill="none" fill-rule="evenodd"><circle fill="#C7C7C7" cx="55.849" cy="55.849" r="55.849"/><g fill="#272727" fill-opacity=".586" fill-rule="nonzero"><path d="M63.057 44.252l-2.862 2.135 3.212 4.308 2.863-2.13 4.265 1.837.415 3.543 5.337-.625-.415-3.543L79.597 47l3.278 1.407L85 43.475l-3.278-1.413-.542-4.615 2.862-2.135-3.21-4.305-2.864 2.135-4.268-1.84-.415-3.545-5.337.625.417 3.545-3.725 2.775-3.28-1.412-2.125 4.935 3.28 1.412.542 4.615zm8.46-8.505a5.137 5.137 0 0 1 5.703 4.505 5.136 5.136 0 0 1-4.502 5.705 5.141 5.141 0 0 1-5.706-4.507 5.139 5.139 0 0 1 4.505-5.703zM83.583 74.47l-.648-5.33-3.545.428-2.79-3.716 1.405-3.282-4.943-2.11-1.402 3.282-4.612.56-2.143-2.86-4.297 3.225 2.142 2.858-1.825 4.275-3.545.43.648 5.332 3.542-.424 2.79 3.714-1.402 3.28 4.942 2.113 1.403-3.283 4.612-.557 2.142 2.852 4.296-3.222-2.138-2.857 1.822-4.275 3.545-.433zm-8.375.9a5.133 5.133 0 0 1-6.74 2.71 5.14 5.14 0 0 1-2.713-6.747 5.135 5.135 0 0 1 6.742-2.705 5.136 5.136 0 0 1 2.71 6.742z"/><path d="M58.28 64.115l1.862-4.502 4.203-.395v-6.755l-4.203-.393-1.862-4.505 2.69-3.245-4.777-4.777-3.248 2.692-4.503-1.867-.392-4.2h-6.758l-.392 4.2-4.502 1.865-3.248-2.69-4.777 4.777 2.692 3.248-1.868 4.502-4.197.393v6.755l4.197.395 1.868 4.502-2.693 3.245 4.778 4.778 3.248-2.69 4.504 1.865.39 4.202h6.758l.393-4.202 4.502-1.865 3.248 2.69 4.777-4.778-2.69-3.245zm-13.608.375c-4.774 0-8.65-3.877-8.65-8.647a8.65 8.65 0 1 1 8.65 8.648z"/></g></g></svg>