<svg width="112" height="112" xmlns="http://www.w3.org/2000/svg"><g fill="none" fill-rule="evenodd"><circle cx="55.849" cy="55.849" r="55.849" fill="#D1DDF0"/><path d="M54.498 25.257 30.09 38.476A2.131 2.131 0 0 0 29 40.324c0 15.844 3.308 26.132 8.238 33.373 4.93 7.24 11.363 11.297 17.129 14.98a2.146 2.146 0 0 0 2.266 0c5.767-3.684 12.199-7.74 17.13-14.98C78.692 66.457 82 56.167 82 40.324a2.133 2.133 0 0 0-1.09-1.848l-24.408-13.22c-.76-.365-1.34-.317-2.005 0ZM56 29v55c-5.326-3.458-10.577-7.071-14.63-13.097-4.214-6.264-7.198-15.34-7.37-29.85L56 29Z" fill="#2454A7" fill-rule="nonzero"/></g></svg>