<svg xmlns="http://www.w3.org/2000/svg" width="260" height="260"><g fill="none" fill-rule="evenodd"><circle cx="130" cy="130" r="130" fill="#DC700E"/><g fill="#452609" fill-rule="nonzero"><path d="M104.891 191 205 132.507V98.17l-100.109 58.489zM56 162.678 104.891 191v-34.339L56 128.34zM156.42 68 56 125.844l48.583 28.024L205 95.99 156.42 68Zm22.164 26.428-1.538 2.102-2.567 1.946-3.33 1.448-3.926.965-4.207.3-4.245-.3-3.956-.962-3.328-1.447-2.498-1.946-1.542-2.103-.489-2.225.491-2.228 1.542-2.169 2.492-1.874 3.334-1.483 3.957-.928 4.24-.332 4.213.332 3.915.927 3.338 1.485 2.56 1.876 1.541 2.166.491 2.226-.488 2.224Zm-32.561 18.731-1.543 2.138-2.497 1.91-3.333 1.481-3.917.93-4.28.301-4.177-.3-3.918-.931-3.34-1.484-2.562-1.91-1.543-2.135-.52-2.224.52-2.22 1.543-2.137 2.564-1.881 3.334-1.516 3.917-.927 4.179-.333 4.279.333 3.917.927 3.333 1.516 2.495 1.877 1.546 2.141.518 2.22-.515 2.224Zm-32.587 19.008-1.74 2.15-2.602 1.85-3.435 1.386-4.006.866-4.23.265-4.206-.4-3.86-1.028-3.257-1.545-2.358-1.934-1.413-2.167-.426-2.249.638-2.183 1.743-2.122 2.61-1.856 3.393-1.415 4.006-.866 4.266-.265 4.17.433 3.898 1.03 3.257 1.51 2.354 1.934 1.412 2.161.398 2.255-.612 2.19Z"/></g></g></svg>