<svg width="112" height="112" xmlns="http://www.w3.org/2000/svg"><g fill="none" fill-rule="evenodd"><circle fill="#0E94DC" cx="55.849" cy="55.849" r="55.849"/><g fill="#0B4F73" fill-rule="nonzero"><path d="M75.56 68.024c.048-.051.093-.106.135-.163.052-.044.105-.073.157-.125 2.007-1.97 1.378-5.66-1.85-10.98A78.637 78.637 0 0063.121 43.25l2.943-2.9c.736-.72.741-1.89.011-2.616a1.897 1.897 0 00-2.654-.011l-2.951 2.951c-1.131-1.077-2.247-2.133-3.415-3.121-3.864-3.365-16.835-13.977-21.433-9.446a1.55 1.55 0 00-.142.17c-.05.037-.097.076-.142.118a27.928 27.928 0 00-7.616 13.557 27.651 27.651 0 00.853 15.473 28.049 28.049 0 009.062 12.664L28.65 86.547a3.645 3.645 0 00.074 3.654A3.755 3.755 0 0031.953 92h22.78a3.756 3.756 0 003.245-1.815c.677-1.13.694-2.53.043-3.676l-5.878-10.486c1.1.13 2.209.197 3.317.2 3.733.003 7.43-.72 10.88-2.126a28.403 28.403 0 009.22-6.073zM54.59 40.285a117.94 117.94 0 013.242 2.952l-3.407 3.342a1.829 1.829 0 000 2.613c.732.721 1.92.721 2.651 0l3.4-3.35c10.59 10.773 13.428 18.137 12.769 19.267-1.228.738-9.264-2.362-20.917-13.837-11.653-11.475-14.761-19.393-14.08-20.574.154-.073.325-.106.495-.096 1.872 0 7.609 2.531 15.847 9.682v.001zM35.12 34.329c2.171 6.118 9.309 14.39 14.543 19.548A82.249 82.249 0 0064.73 65.892a27.22 27.22 0 004.838 2.31 24.985 24.985 0 01-16.314 4.31A24.866 24.866 0 0137.94 65.49a24.202 24.202 0 01-7.16-15.074 24.09 24.09 0 014.339-16.086zm12.282 40.912l7.331 13.032H31.93l8.791-16.087a28.47 28.47 0 006.62 2.885c.025.058.053.115.083.17h-.022zM64.805 31.61a6.594 6.594 0 016.585 6.585 1.805 1.805 0 103.61 0A10.203 10.203 0 0064.805 28a1.805 1.805 0 100 3.61z"/><path d="M82.118 40A1.88 1.88 0 0084 38.118 18.14 18.14 0 0065.882 20a1.882 1.882 0 100 3.764 14.377 14.377 0 0114.354 14.355A1.881 1.881 0 0082.118 40z"/></g></g></svg>