<svg width="112" height="112" viewBox="0 0 112 112" xmlns="http://www.w3.org/2000/svg"><title>Group 8</title><g fill="none" fill-rule="evenodd"><circle cx="55.849" cy="55.849" r="55.849" fill="#A4D6E7"/><path d="M79.562 79.105a5.305 5.305 0 0 1-5.284-4.904l-.044-.41c-.637-10.358-5.651-18.731-13.113-24.465a6.992 6.992 0 0 0-1.18-4.718l8.965-8.987.45.451a.633.633 0 0 0 .897 0l.957-.954a.639.639 0 0 0 0-.9l-2.225-2.229 2.083-2.06a.45.45 0 0 0 .615-.05c.412-.35 1.063-.258 1.34-.198l.231.236a.68.68 0 1 0 .974-.95l-6.587-6.763a.677.677 0 0 0-.961-.008.673.673 0 0 0-.012.96l.224.232c.051.29.136.979-.264 1.376a.458.458 0 0 0 .028.647c.004.004.008.004.011.006l-2.132 2.11-2.23-2.238a.638.638 0 0 0-.9 0l-.953.959a.637.637 0 0 0 0 .9l.456.459L41.674 46.89l-.202-.205a.985.985 0 0 0-1.395.006l-1.85 1.853a6.87 6.87 0 0 0-1.502 2.257l-4.916.432c-.287.067-.821.732-.809 2.198.012 1.466.522 2.133.809 2.202l4.78.417-2.585 3.097c-.152.253-.06 1.102.982 2.13 1.042 1.028 1.87 1.139 2.124.983l3.325-2.25.473 5.45c.068.286.734.822 2.195.809 1.463-.011 2.126-.521 2.195-.81l.486-5.601a6.88 6.88 0 0 0 2.237-1.5l1.847-1.85a.99.99 0 0 0-.004-1.398l-.2-.201.578-.578a6.927 6.927 0 0 0 5.213 1.105c1.124 1.654 2.735 4.452 3.6 8.177.277 1.186.516 2.465.558 3.852h3.776a1.252 1.252 0 0 1 0 2.506H38.094c-.976 0-1.765.791-1.765 1.77 0 .976.79 1.767 1.765 1.767H58.22l-.002.007c-1.143 2.041-2.927 3.66-5.103 4.553-7.414 3.044-13.712 3.427-18.864 3.817a2.029 2.029 0 0 0-2.027 2.029c0 1.124.909 2.084 2.027 2.084L79.56 86A3.444 3.444 0 0 0 83 82.554a3.443 3.443 0 0 0-3.438-3.449zM65.127 28.77l1.645-1.647a.434.434 0 0 1 .542-.051l.613.611c.11.171.098.396-.052.545l-1.645 1.645a.444.444 0 0 1-.622 0l-.48-.483a.442.442 0 0 1-.001-.62zm-24.79 22.859A6.525 6.525 0 0 0 38.41 56a4.906 4.906 0 0 1 1.038-5.446L41.018 49l.982.976-1.664 1.653zm14.746-1.286a3.104 3.104 0 0 1-1.642.337l.003.002a.556.556 0 0 0-.454.23c-.186.25-.156.597.063.786.498.477 1.093.778 1.706.87h.001c.04.002.083.01.117.04.079.067.09.193.025.282a.19.19 0 0 1-.162.078l-.003.007c-1.356.19-2.777-.723-3.416-2.328-.49-1.245-.4-2.58.136-3.596a3.52 3.52 0 0 1 1.639-1.696c1.512-.763 3.177-.255 3.728 1.119.55 1.382-.23 3.112-1.74 3.87zm3.102-8.59c.276.13.388.458.257.73a.548.548 0 0 1-.73.256l-.003-.002a7.099 7.099 0 0 0-3.276-.729l-.007.008a7.207 7.207 0 0 0-6.213 3.74s-.003 0-.003.004c-.55 1-.869 2.142-.887 3.356l-1.759 1.76a.421.421 0 0 1-.599 0l-1.84-1.84a.424.424 0 0 1 0-.601L62.44 29.12a.416.416 0 0 1 .521-.052l1.968 1.97a.416.416 0 0 1-.05.522l-9.403 9.404c.917.103 1.833.36 2.708.79z" fill="#063342" fill-rule="nonzero"/></g></svg>