<svg width="261" height="261" xmlns="http://www.w3.org/2000/svg"><g fill="none" fill-rule="evenodd"><circle fill="#B980D1" cx="130.5" cy="130.5" r="130.5"/><path d="M179.941 131.677v8.41h-19.858V126.07c0-1.088-.194-20.622-12.877-35.287a48.02 48.02 0 0 0 11.287 1.647c.231 0 .433-.056.659-.066.1.125.211.24.332.345l.27.189.002.001c12.651 8.963 20.164 23.395 20.185 38.778zm-24.507-59.672c7.724 0 10.478 3.637 10.478 7.04a7.056 7.056 0 0 1-1.99 4.85 7.356 7.356 0 0 1-5.453 2.19c-8.122 0-19.462-4.16-25.293-6.542 6.255-5.004 14.149-7.677 22.258-7.538zm-64.346 7.04c0-3.403 2.754-7.04 10.478-7.04 8.11-.139 16.003 2.534 22.258 7.538-5.831 2.383-17.171 6.542-25.293 6.542a7.41 7.41 0 0 1-5.248-2.005 6.947 6.947 0 0 1-2.195-5.035zm-14.03 52.632c0-.974.031-1.943.091-2.908.046-.729.123-1.452.202-2.174.025-.23.036-.462.065-.691a47.45 47.45 0 0 1 9.598-23.203c.05-.063.095-.13.144-.193.488-.623 1-1.23 1.52-1.83.116-.133.225-.272.342-.404.47-.53.963-1.043 1.457-1.554.184-.19.36-.385.547-.571.45-.451.922-.885 1.393-1.319.249-.23.49-.466.745-.69.437-.387.892-.755 1.344-1.126.307-.253.609-.512.924-.757.433-.338.883-.66 1.329-.983.412-.3.816-.607 1.24-.895.175.006.33.05.508.05a48.02 48.02 0 0 0 11.287-1.646c-12.683 14.665-12.877 34.199-12.877 35.287v14.017H77.06v-8.41zm28.058 27.83c.06 2.786-1.637 5.281-4.173 6.133l-47.3 14.223a3.32 3.32 0 0 1-3.034-.607c-1.035-.835-1.632-2.134-1.608-3.502a4.575 4.575 0 0 1 1.137-3.054l25.32-27.917h29.658v14.724zm-2.337-19.42v-14.159c0-.309.297-29.835 23.929-41.404.71-.304 1.317-.571 1.792-.785.473.213 1.077.478 1.781.78 23.571 11.543 23.94 41.103 23.94 41.41v14.158h-51.442zm101.321 21.13h-32.707c-9.794-.011-18.099-7.007-19.51-16.434h30.232l23.434 9.117c1.736.676 2.734 2.455 2.38 4.24-.353 1.786-1.96 3.077-3.829 3.077z" fill="#4C0C67" fill-rule="nonzero"/></g></svg>