<svg width="112" height="112" xmlns="http://www.w3.org/2000/svg"><g fill="none" fill-rule="evenodd"><circle cx="55.849" cy="55.849" r="55.849" fill="#C6DBE2"/><path d="M29 65.75l14.022-14.101a6.098 6.098 0 014.324-1.802c1.622 0 3.178.648 4.324 1.802L65.692 65.75m-4.077-4.1l3.83-3.851a6.098 6.098 0 014.324-1.802c1.622 0 3.178.648 4.324 1.802L82 65.75M33.077 76h44.846C80.175 76 82 74.164 82 71.9V39.1c0-2.264-1.825-4.1-4.077-4.1H33.077C30.825 35 29 36.836 29 39.1v32.8c0 2.264 1.825 4.1 4.077 4.1zm29.558-30.75c0 .566-.457 1.025-1.02 1.025s-1.019-.459-1.019-1.025c0-.566.456-1.025 1.02-1.025.562 0 1.019.459 1.019 1.025z" stroke="#306578" stroke-linecap="round" stroke-linejoin="round" stroke-width="4.5"/></g></svg>