<svg width="112" height="112" xmlns="http://www.w3.org/2000/svg"><g fill-rule="nonzero" fill="none"><circle fill="#5BCCEB" cx="56" cy="56" r="56"/><g fill="#0C5062"><path d="M62.031 45.056l5.532-9.538L62.03 26H50.97l-5.532 9.518 5.532 9.538zM43.594 56.958H32.53L27 66.496l5.531 9.518h11.063l5.531-9.518zM69.406 56.958l-5.531 9.538 5.531 9.518H80.47L86 66.496l-5.531-9.538zM50.846 67.148l-5.409 9.334L50.97 86H62.03l5.532-9.518-5.409-9.334zM69.406 36.394l-5.531 9.518 5.531 9.517H80.47L86 45.912l-5.531-9.518zM43.594 55.43l5.531-9.518-5.531-9.518H32.53L27 45.912l5.531 9.517zM45.438 56.102l5.408 9.334h11.308l5.408-9.334-5.53-9.518H50.968z"/></g></g></svg>