<svg width="112" height="112" viewBox="0 0 112 112" xmlns="http://www.w3.org/2000/svg"><title>Group 4</title><g fill="none" fill-rule="evenodd"><circle fill="#5BCCEB" fill-rule="nonzero" cx="56" cy="56" r="56"/><path fill="#000" d="M48.53 60.808l1.687-1.667 6.82 6.741-1.687 1.667z"/><path d="M83.18 45.096a1.165 1.165 0 0 0-.31-1.139l-11.519-11.35.895-3.304c2.274-.059 4.107-1.892 4.107-4.146 0-2.291-1.892-4.157-4.217-4.157-2.326 0-4.218 1.866-4.218 4.157 0 1.497.813 2.799 2.021 3.532l-.891 3.29-15.77 4.164a1.188 1.188 0 0 0-.846.834L48.212 52.5 32.7 56.595l-.786-.774a4.056 4.056 0 0 0 .521-1.959c0-2.292-1.892-4.157-4.218-4.157S24 51.571 24 53.862s1.892 4.157 4.218 4.157c.732 0 1.411-.202 2.012-.526l1.093 1.077-4.11 15.102c-.11.406.008.84.31 1.138l12.02 11.845a1.202 1.202 0 0 0 1.155.305l16.42-4.336c.413-.108.734-.427.846-.833l4.219-15.522 15.085-3.984 6.04 5.953L85 66.572l-6.04-5.952 4.22-15.524zM72.136 23.357c1.007 0 1.825.807 1.825 1.8 0 .992-.82 1.8-1.825 1.8-1.006 0-1.826-.808-1.826-1.8 0-.993.819-1.8 1.826-1.8zm-43.92 32.305c-1.007 0-1.826-.808-1.826-1.8s.82-1.8 1.826-1.8c1.006 0 1.826.808 1.826 1.8s-.82 1.8-1.826 1.8zM55.83 80.524l-15.085 3.983-11.042-10.881 4.042-14.866 15.084-3.982L59.872 65.66l-4.04 14.864zm5.732-16.532L50.521 53.11l4.042-14.865 15.085-3.984 11.043 10.882-4.043 14.865-15.085 3.984z" fill="#1F4752" fill-rule="nonzero"/><path d="M77.652 44.985L74.676 42 73 43.68l2.493 2.5-1.924 7.204 2.29.616 2.1-7.867c.11-.41-.007-.848-.307-1.148z" fill="#000"/></g></svg>