<svg width="112" height="112" xmlns="http://www.w3.org/2000/svg"><g fill-rule="nonzero" fill="none"><circle fill="#5BCCEB" cx="56" cy="56" r="56"/><g fill="#1F4752"><path d="M80.44 89.567h3.12c2.582 0 4.683-1.967 4.683-4.385V34.024c0-.197-.042-.395-.126-.576l-4.682-10.232c-.246-.538-.81-.885-1.435-.885-.624 0-1.19.347-1.435.885l-4.682 10.232c-.084.181-.126.379-.126.576v51.158c0 2.418 2.1 4.385 4.682 4.385zm2.979-2.205H80.58c-.783 0-1.419-.618-1.419-1.377V81.85h5.676v4.134c0 .759-.636 1.377-1.42 1.377zm1.419-14.329h-5.676V39.966h5.676v33.067zm-5.676 2.205h5.676v2.204h-5.676v-2.204zM82 28.944l2.838 6.594v1.122h-5.676v-1.124L82 28.944zM49.484 91.106v4.43c0 .808.664 1.464 1.486 1.464h16.34c.822 0 1.486-.656 1.486-1.464V16.464c0-.808-.664-1.464-1.486-1.464H50.97c-.822 0-1.486.656-1.486 1.464v4.43C30.513 21.665 15.318 37.114 15.318 56c0 18.886 15.195 34.334 34.166 35.106zm2.6-72.782h13.37v10.293h-7.428v2.94h7.427v14.704h-7.427v2.941h7.427v14.704h-7.427v2.94h7.427V81.55h-7.427v2.941h7.427v10.293H52.084v-76.46zm-3.342 53.19c-7.49-.751-13.37-7.42-13.37-15.514s5.88-14.764 13.37-15.514v31.028zm1.114-33.72c-9.556.748-17.103 8.62-17.103 18.205 0 9.587 7.548 17.458 17.103 18.206v13.93a32.883 32.883 0 01-20.562-8.387l5.224-5.135-2.103-2.067-5.223 5.135c-5.006-5.387-8.176-12.45-8.531-20.219h7.399v-2.924h-7.4c.356-7.77 3.526-14.832 8.53-20.219l5.223 5.135 2.103-2.067-5.223-5.135a32.875 32.875 0 0120.561-8.387v13.929h.002z"/></g></g></svg>