<svg width="112" height="112" viewBox="0 0 112 112" xmlns="http://www.w3.org/2000/svg"><title>Group 11</title><g fill="none" fill-rule="evenodd"><circle cx="55.849" cy="55.849" r="55.849" fill="#F2B500"/><g fill="#574206" fill-rule="nonzero"><path d="M66.427 67.082l-2.418 2.41A1.741 1.741 0 0 1 62.8 70c-.445 0-.89-.19-1.21-.508L56.5 64.29l-5.155 5.139a1.741 1.741 0 0 1-1.209.508c-.445 0-.89-.19-1.209-.508l-2.418-2.41A1.73 1.73 0 0 1 46 65.812c0-.444.19-.889.51-1.206l5.154-5.139-5.155-5.139A1.73 1.73 0 0 1 46 53.124c0-.444.19-.888.51-1.206l2.417-2.41a1.741 1.741 0 0 1 1.21-.508c.445 0 .89.19 1.208.508l5.155 5.265 5.155-5.139a1.741 1.741 0 0 1 1.209-.507c.445 0 .89.19 1.209.507l2.418 2.411c.318.318.509.762.509 1.206 0 .444-.19.888-.51 1.205l-5.154 5.14 5.155 5.138c.318.317.509.761.509 1.206 0 .444-.255.824-.573 1.142z"/><path d="M56.5 88C40.778 88 28 74.76 28 58.468 28 57.105 29.065 56 30.38 56c1.316 0 2.38 1.104 2.38 2.467 0 13.565 10.649 24.6 23.74 24.6s23.74-11.035 23.74-24.6c0-13.566-10.649-24.535-23.74-24.535H35.83c-1.316 0-2.38-1.104-2.38-2.467S34.513 29 35.83 29H56.5C72.222 29 85 42.24 85 58.532 85 74.76 72.222 88 56.5 88z"/><path d="M43.568 26.304l-5 4.731c-.527.498-.527 1.37 0 1.93l5 4.731c.922.872.264 2.304-.987 2.304h-3.158c-.395 0-.724-.125-.987-.374l-7.041-6.661c-.527-.498-.527-1.37 0-1.93l7.04-6.661c.264-.25.593-.374.988-.374h3.158c1.25 0 1.909 1.432.987 2.304z"/></g></g></svg>