<svg width="112" height="112" xmlns="http://www.w3.org/2000/svg"><g fill="none" fill-rule="evenodd"><circle cx="55.849" cy="55.849" r="55.849" fill="#F358D3"/><g fill="#650952" fill-rule="nonzero"><path d="M83.8 25.8a3.61 3.61 0 0 1-3.6-3.6 1.2 1.2 0 1 0-2.4 0 3.61 3.61 0 0 1-3.6 3.6 1.2 1.2 0 1 0 0 2.4 3.61 3.61 0 0 1 3.6 3.6 1.2 1.2 0 1 0 2.4 0 3.61 3.61 0 0 1 3.6-3.6 1.2 1.2 0 1 0 0-2.4zM32.8 34.8a3.61 3.61 0 0 1-3.6-3.6 1.2 1.2 0 1 0-2.4 0 3.61 3.61 0 0 1-3.6 3.6 1.2 1.2 0 1 0 0 2.4 3.61 3.61 0 0 1 3.6 3.6 1.2 1.2 0 1 0 2.4 0 3.61 3.61 0 0 1 3.6-3.6 1.2 1.2 0 1 0 0-2.4zM72.222 57.845c-.004 3.219-2.675 5.827-5.972 5.831h-21.5c-3.297-.004-5.968-2.612-5.972-5.83V40.01c-3.102 3.72-4.79 8.374-4.778 13.17V87h43V53.18c.012-4.8-1.676-9.456-4.778-13.18v17.845zM68.554 80.35a1.177 1.177 0 0 1-.638.64c-.292.121-.62.124-.915.009a31.535 31.535 0 0 0-23.002 0 1.218 1.218 0 0 1-1.184-.165 1.152 1.152 0 0 1 .297-2 33.954 33.954 0 0 1 24.776 0c.612.239.91.918.666 1.516zm0-6.997a1.177 1.177 0 0 1-.638.639c-.292.122-.62.125-.915.01a31.535 31.535 0 0 0-23.002 0 1.218 1.218 0 0 1-1.184-.165 1.152 1.152 0 0 1 .297-2 33.954 33.954 0 0 1 24.776 0c.612.239.91.917.666 1.516z"/><path d="M44.625 61h21.75c2.001-.002 3.623-1.581 3.625-3.53V35.119C70 27.32 63.508 21 55.5 21S41 27.32 41 35.118V57.47c.002 1.948 1.624 3.527 3.625 3.529zm9.667-36.47c.667 0 1.208.526 1.208 1.176 0 .65-.541 1.176-1.208 1.176-4.003.005-7.246 3.162-7.25 7.06 0 .649-.541 1.176-1.209 1.176-.667 0-1.208-.527-1.208-1.177.006-5.195 4.33-9.406 9.667-9.412z"/></g></g></svg>