<svg width="112" height="112" xmlns="http://www.w3.org/2000/svg"><g fill="none" fill-rule="evenodd"><circle cx="55.849" cy="55.849" r="55.849" fill="#FFE2E2"/><path d="M52 35.836c.001-.839-.552-1.571-1.343-1.779a1.768 1.768 0 00-2.01.899l-21.428 40.33a1.876 1.876 0 00.03 1.816c.323.557.907.898 1.538.898h21.427c.987 0 1.786-.82 1.786-1.833V35.836zm9.343-1.779a1.769 1.769 0 012.01.899l21.43 40.334a1.876 1.876 0 01-.033 1.813 1.777 1.777 0 01-1.535.897h-21.43C60.8 78 60 77.18 60 76.167V35.832c0-.837.553-1.567 1.343-1.775zM63 43v31h17L63 43z" fill="#FF4848" fill-rule="nonzero"/></g></svg>